<?xml version="1.0" standalone="no"?>
<!DOCTYPE svg PUBLIC "-//W3C//DTD SVG 20010904//EN"
 "http://www.w3.org/TR/2001/REC-SVG-20010904/DTD/svg10.dtd">
<svg version="1.0" xmlns="http://www.w3.org/2000/svg"
 width="768.000000pt" height="768.000000pt" viewBox="0 0 768.000000 768.000000"
 preserveAspectRatio="xMidYMid meet">
<metadata>
Created by potrace 1.11, written by Peter Selinger 2001-2013
</metadata>
<g transform="translate(0.000000,768.000000) scale(0.100000,-0.100000)"
fill="#000000" stroke="none">
<path d="M4656 7502 c-37 -3 -68 -32 -589 -553 l-549 -549 80 -83 c44 -45 110
-113 145 -150 l66 -68 389 390 389 389 0 -1324 c0 -728 2 -1327 6 -1330 3 -3
45 -6 94 -6 48 0 141 1 206 1 l117 1 -2 1641 -3 1642 -155 1 c-85 1 -173 0
-194 -2z"/>
<path d="M6495 4934 c-123 -22 -209 -50 -308 -101 -110 -57 -261 -183 -322
-268 -11 -15 -30 -40 -42 -55 -12 -15 -39 -58 -59 -96 -20 -38 -39 -73 -43
-79 -4 -5 -15 -34 -25 -62 -21 -62 -31 -47 109 -158 55 -44 111 -90 125 -103
14 -13 40 -32 58 -43 17 -11 32 -25 32 -30 0 -5 4 -9 9 -9 5 0 18 31 30 68 43
141 139 294 240 382 56 49 160 111 173 104 4 -3 8 -1 8 4 0 6 15 13 33 16 17
3 43 9 57 12 40 10 173 11 198 2 13 -4 36 -10 53 -13 39 -7 139 -55 139 -67 0
-5 4 -7 9 -4 16 10 125 -108 159 -172 18 -34 30 -62 26 -62 -3 0 -2 -6 4 -12
23 -30 36 -211 19 -273 -4 -16 -10 -39 -12 -50 -11 -49 -72 -148 -119 -193
-111 -106 -217 -144 -411 -147 l-130 -2 -1 -211 -1 -211 105 0 c139 0 188 -7
267 -37 11 -4 22 -8 25 -9 3 0 25 -11 50 -24 96 -51 191 -177 221 -294 16 -64
17 -186 1 -263 -23 -119 -119 -258 -208 -304 -16 -8 -31 -18 -34 -21 -5 -7
-88 -37 -130 -47 -35 -9 -208 -8 -251 0 -68 14 -144 47 -204 88 -49 34 -135
117 -135 130 0 6 -4 10 -8 10 -27 0 -152 278 -152 337 0 32 -18 38 -44 14 -12
-12 -26 -21 -30 -21 -3 0 -17 -9 -29 -21 -20 -18 -190 -149 -250 -192 -24 -17
-24 -20 -12 -62 33 -109 119 -270 187 -350 85 -102 218 -208 328 -262 55 -27
142 -61 172 -67 13 -3 34 -8 48 -11 14 -3 40 -8 59 -11 18 -3 43 -8 55 -10 11
-3 71 -5 131 -5 98 1 139 5 250 26 53 10 160 48 167 59 4 6 8 8 8 4 0 -18 161
81 234 143 47 40 145 167 177 231 33 65 73 174 84 228 28 135 26 361 -5 480
-5 19 -10 38 -10 42 0 4 -9 28 -20 53 -11 25 -17 45 -14 45 3 0 -4 13 -15 29
-12 16 -21 33 -21 38 0 5 -10 23 -22 40 -13 16 -32 43 -43 58 -22 30 -97 108
-139 142 l-27 22 88 88 c100 100 160 197 203 326 36 105 44 166 44 302 -1 176
-22 270 -92 415 -14 30 -29 57 -33 60 -3 3 -12 16 -19 30 -16 30 -75 104 -111
139 -128 124 -283 212 -434 247 -23 5 -72 15 -95 20 -60 11 -261 10 -325 -2z"/>
<path d="M924 3488 c-3 -5 -8 -6 -12 -4 -4 2 -32 0 -62 -6 -301 -53 -547 -235
-665 -492 -31 -65 -42 -100 -72 -218 -13 -55 -11 -319 4 -386 46 -203 156
-377 318 -501 l30 -23 -30 -25 c-107 -90 -172 -161 -214 -233 -27 -46 -68
-135 -76 -165 -5 -16 -9 -33 -10 -37 -2 -5 -3 -9 -5 -10 -3 -4 -9 -38 -18 -88
-9 -55 -9 -280 0 -335 64 -398 356 -671 788 -736 68 -10 234 -13 310 -5 124
13 292 63 385 114 39 22 170 117 195 142 10 10 39 45 65 77 25 32 50 63 55 69
18 23 68 131 88 190 37 107 46 169 45 314 0 117 -2 138 -29 248 -31 125 -129
285 -233 378 -25 23 -62 56 -81 73 l-35 32 35 27 c46 35 150 139 178 177 44
60 91 140 97 165 0 3 8 19 18 36 9 17 14 34 11 37 -3 3 -1 14 5 25 6 10 13 32
16 48 2 16 7 40 11 54 9 39 12 262 3 295 -4 17 -10 48 -13 70 -5 39 -9 56 -23
93 -3 9 -7 20 -8 25 -2 4 -4 9 -5 12 -1 3 -3 8 -4 13 -1 4 -13 30 -25 57 -79
169 -231 317 -411 402 -77 36 -190 73 -223 73 -13 0 -27 3 -31 7 -10 11 -43
13 -214 16 -84 2 -155 0 -158 -5z m286 -423 c14 -3 36 -8 49 -11 13 -3 31 -9
40 -13 9 -5 21 -10 26 -11 76 -16 205 -131 250 -224 104 -213 47 -470 -137
-623 -23 -19 -129 -75 -150 -79 -5 -1 -9 -2 -10 -4 -4 -2 -31 -9 -78 -18 -46
-9 -216 -9 -260 1 -162 35 -299 137 -366 272 -40 81 -47 118 -48 235 0 129 36
226 119 318 67 75 202 143 315 158 25 3 46 7 48 9 5 4 176 -4 202 -10z m-20
-1429 c150 -25 283 -110 362 -231 92 -140 96 -368 10 -522 -13 -24 -28 -43
-33 -43 -5 0 -9 -6 -9 -14 0 -32 -140 -126 -232 -154 -321 -99 -645 31 -740
296 -22 63 -32 225 -16 277 5 17 11 40 14 53 18 89 139 226 245 279 68 33 175
67 187 59 5 -3 14 -1 21 3 15 9 128 7 191 -3z"/>
</g>
</svg>
