<?xml version="1.0" standalone="no"?>
<!DOCTYPE svg PUBLIC "-//W3C//DTD SVG 20010904//EN"
 "http://www.w3.org/TR/2001/REC-SVG-20010904/DTD/svg10.dtd">
<svg version="1.0" xmlns="http://www.w3.org/2000/svg"
 width="1180.000000pt" height="1180.000000pt" viewBox="0 0 1180.000000 1180.000000"
 preserveAspectRatio="xMidYMid meet">
<metadata>
Created by potrace 1.11, written by Peter Selinger 2001-2013
</metadata>
<g transform="translate(0.000000,1180.000000) scale(0.100000,-0.100000)"
fill="#000000" stroke="none">
<path d="M3407 11779 c-27 -4 -69 -10 -93 -14 -158 -21 -428 -141 -540 -240
-7 -5 -35 -30 -65 -55 -78 -67 -132 -128 -237 -265 -59 -78 -139 -251 -173
-375 -17 -61 -19 -71 -35 -160 -9 -48 -12 -347 -4 -391 4 -24 11 -60 14 -79
21 -134 73 -280 143 -398 24 -41 43 -76 43 -78 0 -3 5 -10 10 -17 26 -30 47
-57 70 -88 43 -58 174 -183 258 -246 118 -89 324 -187 437 -207 40 -8 75 -15
105 -21 69 -16 262 -21 370 -10 54 5 158 24 220 40 47 12 165 57 178 67 8 7
16 11 16 10 1 -4 59 20 66 28 3 3 22 14 43 25 145 76 367 291 464 450 28 46
123 245 123 258 0 7 3 17 7 21 4 3 8 12 9 19 1 7 10 41 19 77 19 73 21 84 31
190 11 121 7 307 -7 316 -5 2 -6 11 -3 18 4 10 -12 99 -31 176 -11 45 -50 144
-83 210 -152 309 -439 565 -757 675 -27 9 -57 20 -65 23 -100 36 -409 59 -533
41z"/>
<path d="M8127 11784 c-1 -2 -27 -5 -57 -9 -64 -7 -97 -12 -127 -19 -13 -4
-31 -8 -40 -10 -169 -39 -391 -161 -530 -293 -18 -17 -33 -29 -33 -27 0 3 -15
-12 -32 -33 -18 -21 -46 -51 -61 -68 -15 -16 -35 -42 -45 -57 -9 -16 -20 -28
-24 -28 -4 0 -8 -5 -8 -10 0 -6 -8 -20 -19 -31 -47 -51 -168 -328 -185 -424
-2 -16 -7 -40 -10 -53 -26 -118 -27 -366 -2 -517 10 -55 32 -148 43 -175 3 -8
7 -20 8 -25 11 -50 89 -201 151 -295 97 -145 253 -298 399 -390 107 -68 271
-138 365 -155 14 -2 50 -9 80 -15 146 -30 337 -29 503 0 75 14 198 49 212 61
5 5 15 9 23 9 17 0 125 50 133 62 3 5 13 10 21 11 19 3 130 79 198 136 60 50
199 192 200 203 0 4 11 18 25 32 14 14 25 28 25 31 0 4 11 21 24 38 49 65 138
254 151 320 2 9 6 21 9 25 3 5 7 19 10 33 3 13 10 44 16 69 31 139 31 413 2
540 -5 19 -9 38 -10 43 -1 4 -2 8 -3 10 0 1 -3 13 -6 27 -7 35 -9 42 -21 73
-7 16 -12 33 -12 39 0 11 -23 66 -50 118 -52 100 -72 136 -85 150 -8 9 -15 20
-15 24 0 4 -6 13 -12 20 -7 7 -26 31 -43 52 -48 62 -174 187 -245 241 -59 46
-194 133 -205 133 -3 0 -31 13 -63 28 -32 16 -96 39 -142 51 -47 13 -92 26
-100 29 -8 2 -22 6 -30 7 -8 1 -42 5 -75 10 -55 8 -302 15 -308 9z"/>
<path d="M2239 7339 c-11 -6 -6 -4015 4 -4139 4 -41 9 -93 12 -115 3 -22 8
-62 11 -90 7 -69 12 -107 17 -130 3 -11 8 -40 11 -65 28 -208 131 -598 191
-727 8 -17 15 -34 15 -38 0 -3 11 -31 25 -61 14 -30 25 -57 25 -60 0 -6 91
-188 119 -236 11 -21 30 -55 42 -75 33 -59 92 -148 101 -151 4 -2 8 -8 8 -14
0 -11 135 -191 190 -253 19 -22 82 -87 140 -146 88 -88 134 -131 254 -234 29
-26 138 -107 201 -150 39 -27 72 -51 75 -54 3 -3 23 -15 44 -26 22 -11 45 -24
51 -30 22 -20 171 -101 285 -156 47 -22 93 -44 103 -50 51 -28 415 -159 481
-174 6 -1 18 -5 26 -8 15 -6 255 -62 308 -72 15 -3 36 -7 47 -9 11 -2 40 -7
65 -11 25 -4 54 -9 65 -11 11 -3 36 -6 55 -9 37 -4 136 -15 185 -21 176 -19
716 -26 880 -11 44 4 100 9 125 11 25 2 72 7 105 11 56 6 80 9 148 20 15 3 42
7 60 10 68 11 245 47 302 62 33 8 70 17 82 19 50 9 317 100 431 146 150 61
463 216 482 239 3 3 21 14 40 24 19 10 37 21 40 24 3 3 45 33 95 66 49 33 99
67 110 76 11 9 58 47 105 84 93 74 121 100 244 220 88 86 172 181 252 285 70
90 144 198 144 210 0 5 5 10 10 10 6 0 10 5 10 12 0 6 6 19 14 27 7 9 28 45
47 81 19 36 36 67 39 70 5 5 82 158 85 170 2 5 28 67 50 115 7 17 23 59 36 95
12 36 27 71 32 77 5 7 7 13 3 13 -3 0 3 24 13 53 18 46 44 138 42 144 0 2 6
20 14 42 7 22 16 54 19 73 9 53 15 78 20 86 2 4 7 26 10 48 6 39 11 64 21 114
2 14 7 40 10 58 3 17 7 44 9 60 18 108 31 239 43 427 4 55 7 989 7 2075 l1
1975 -3663 0 c-2015 0 -3668 -3 -3673 -6z m5246 -1758 c20 -2 10 -2128 -10
-2162 -2 -3 -7 -34 -10 -69 -3 -35 -8 -67 -10 -70 -3 -4 -7 -25 -9 -47 -3 -22
-10 -52 -15 -67 -6 -14 -9 -26 -6 -26 2 0 -5 -26 -16 -57 -11 -32 -19 -59 -19
-61 1 -7 -15 -62 -28 -92 -9 -19 -16 -40 -18 -45 -1 -6 -20 -48 -42 -95 -193
-401 -549 -678 -984 -766 -13 -2 -34 -6 -48 -9 -14 -3 -36 -7 -50 -10 -118
-24 -514 -24 -620 -1 -13 3 -42 8 -65 12 -66 9 -157 33 -240 63 -33 12 -67 23
-75 25 -40 11 -258 133 -286 161 -6 5 -23 19 -39 30 -48 34 -189 177 -236 240
-103 137 -185 297 -235 455 -8 25 -18 59 -24 75 -24 77 -60 269 -77 411 -10
88 -15 2097 -4 2103 7 5 3126 7 3166 2z"/>
</g>
</svg>
