<?xml version="1.0" encoding="UTF-8"?>
<svg width="342px" height="745px" viewBox="0 0 342 745" version="1.1" xmlns="http://www.w3.org/2000/svg" xmlns:xlink="http://www.w3.org/1999/xlink">
    <!-- Generator: Sketch 63.1 (92452) - https://sketch.com -->
    <title>Group 34</title>
    <desc>Created with Sketch.</desc>
    <defs>
        <polygon id="path-1" points="0 0.455812212 161.530724 0.455812212 161.530724 225.856995 0 225.856995"></polygon>
    </defs>
    <g id="Site" stroke="none" stroke-width="1" fill="none" fill-rule="evenodd">
        <g id="About-–-1440px" transform="translate(-1064.000000, -167.000000)">
            <g id="Group-34" transform="translate(1064.000000, 167.000000)">
                <path d="M82.5582,706.0986 C79.6392,699.8876 77.0612,693.4526 76.8732,686.4986 C76.6732,679.0816 78.4222,671.8206 80.3962,664.7256 C84.2742,650.7886 89.2722,636.1696 84.5882,621.7776 C80.3942,608.8926 70.3012,598.4366 67.3922,585.1076 C64.4002,571.3926 72.6172,559.1316 78.4572,547.4116 C81.4932,541.3196 84.1622,534.9066 84.8232,528.0666 C85.4752,521.3216 83.7902,514.7656 81.2082,508.5826 C76.2642,496.7446 67.3022,485.1676 69.3482,471.6416 C71.4322,457.8656 82.0702,447.0876 84.7722,433.4376 C87.7382,418.4586 78.4372,406.3166 70.7202,394.5216 C67.2562,389.2276 64.3382,383.8526 63.1032,377.5886 C62.0762,372.3766 61.9762,366.3946 64.6202,361.6116 C65.8992,359.2966 67.7722,357.5006 70.1062,356.2726 C72.9222,354.7886 70.7572,350.3286 67.9232,351.8216 C56.6142,357.7756 55.9302,372.0876 59.3782,382.9906 C63.5862,396.2926 74.9962,405.8916 79.1162,419.2146 C81.2482,426.1106 80.4342,432.8546 77.8072,439.4836 C75.2132,446.0276 71.4682,452.0296 68.5152,458.4056 C65.5962,464.7056 63.6602,471.3756 64.1882,478.3746 C64.6862,484.9806 67.3212,491.2316 70.1862,497.1246 C73.0872,503.0926 76.4902,508.9506 78.4432,515.3246 C80.4222,521.7866 80.4322,528.2316 78.4232,534.6906 C74.2902,547.9766 64.8512,559.0836 62.3062,572.9446 C59.7062,587.1006 67.4962,599.0006 74.0972,610.7746 C77.4932,616.8336 80.5422,623.1256 81.3652,630.1046 C82.2252,637.3996 80.7212,644.8036 78.8712,651.8316 C75.1622,665.9296 69.3492,680.6456 73.1632,695.3686 C74.9132,702.1206 78.1492,708.3536 81.1502,714.6086 C83.8932,720.3246 86.9152,726.4766 87.1612,732.9356 C87.2792,736.0626 86.6142,739.0016 85.2822,741.8226 C83.9182,744.7076 88.6022,746.3436 89.9532,743.4856 C95.9652,730.7536 87.9132,717.4926 82.5582,706.0986" id="Fill-1" fill="#000000"></path>
                <g id="Group-5" transform="translate(0.000000, 192.977000)">
                    <mask id="mask-2" fill="white">
                        <use xlink:href="#path-1"></use>
                    </mask>
                    <g id="Clip-4"></g>
                    <path d="M161.4801,87.3077 C161.1551,77.0407 159.8381,66.6787 156.4991,56.9307 C153.1131,47.0477 148.6381,38.2877 142.4021,29.8947 C136.9621,22.5727 129.8751,16.0747 122.0571,11.3737 C113.1671,6.0267 103.7241,3.0277 93.5501,1.3797 C89.3631,0.7017 85.0761,0.4057 80.7651,0.4627 C76.4551,0.4057 72.1671,0.7017 67.9801,1.3797 C57.8061,3.0277 48.3641,6.0267 39.4731,11.3737 C31.6561,16.0747 24.5681,22.5727 19.1281,29.8947 C12.8931,38.2877 8.4181,47.0477 5.0321,56.9307 C1.6921,66.6787 0.3751,77.0407 0.0501,87.3077 C-0.2999,98.3807 1.2041,109.3277 3.3781,120.1617 C5.0041,128.2617 7.2861,136.2227 10.2591,143.9317 C16.7071,160.6497 25.7931,175.8767 37.7841,189.1897 C43.7421,195.8067 50.4961,201.3117 57.8051,206.3657 C60.3051,208.0947 62.8771,209.6447 65.5121,211.0597 C63.9001,213.6747 63.2771,216.8657 64.6941,219.6127 C65.9441,222.0347 68.6281,223.1607 71.2571,222.4027 C72.1491,222.1457 72.8551,221.7357 73.4591,221.2317 C74.0941,223.0197 75.3391,224.5367 77.3681,225.4127 C80.4651,226.7507 83.4401,224.9127 84.5741,221.9577 C84.8471,221.2427 85.0511,220.5077 85.1961,219.7587 C86.8761,221.2807 89.0481,222.1807 91.5161,221.9237 C94.4491,221.6177 96.8521,219.4067 96.8121,216.3197 C96.7901,214.5577 96.1431,212.9447 95.2601,211.4587 C98.1601,209.9377 100.9861,208.2597 103.7251,206.3657 C111.0341,201.3117 117.7881,195.8067 123.7471,189.1897 C135.7381,175.8767 144.8241,160.6497 151.2711,143.9317 C154.2451,136.2227 156.5261,128.2617 158.1521,120.1617 C160.3271,109.3277 161.8301,98.3807 161.4801,87.3077" id="Fill-3" fill="#00B366" mask="url(#mask-2)"></path>
                </g>
                <path d="M62.2863,311.0029 C54.8243,307.0349 46.7943,307.7169 39.0493,310.4869 C35.6613,311.6989 33.2183,314.7529 34.1203,318.5259 C34.8883,321.7379 38.7503,324.6749 42.1603,323.4549 C46.3043,321.9729 51.3223,320.2349 55.1743,322.2829 C58.3513,323.9719 62.3503,323.3999 64.3703,320.1989 C66.1833,317.3249 65.4783,312.6999 62.2863,311.0029" id="Fill-6" fill="#FFFFFF"></path>
                <path d="M47.2428,315.6113 C46.9638,314.4713 46.4258,313.4723 45.6278,312.6133 C45.1898,312.2513 44.7528,311.8893 44.3148,311.5263 C43.2958,310.8893 42.1848,310.5483 40.9828,310.5043 L40.8178,310.4983 C39.9018,310.4333 39.0398,310.5953 38.2318,310.9863 C37.3968,311.2273 36.6668,311.6623 36.0408,312.2913 C35.3708,312.8733 34.8888,313.5723 34.5918,314.3893 C34.1478,315.1693 33.9278,316.0183 33.9317464,316.9373 C33.9918,317.5303 34.0508,318.1233 34.1098,318.7163 C34.3888,319.8553 34.9268,320.8553 35.7248,321.7143 C36.1628,322.0763 36.5998,322.4383 37.0378,322.8003 C38.0568,323.4383 39.1678,323.7793 40.3698,323.8233 L40.5348,323.8293 C41.4508,323.8943 42.3128,323.7323 43.1208,323.3413 C43.9558,323.1003 44.6858,322.6653 45.3118,322.0363 C45.9818,321.4543 46.4648,320.7553 46.7618,319.9383 C47.2048,319.1583 47.4248,318.3093 47.4208536,317.3903 C47.3618,316.7973 47.3028,316.2043 47.2428,315.6113" id="Fill-8" fill="#000000"></path>
                <path d="M66.1251,310.4395 C59.8621,307.2765 52.8541,306.0495 46.0361,306.7765 C43.0831,306.7865 40.1631,306.5915 37.2171,306.2015 C35.3661,305.9565 32.0941,305.2215 30.3971,306.4365 C28.4561,307.8265 29.9951,310.0935 31.5771,311.6295 C31.4751,311.6915 31.3721,311.7495 31.2711,311.8125 C29.2881,313.0405 31.0021,316.2545 33.0011,315.0165 C42.3631,309.2185 54.3121,308.5345 64.1831,313.5195 C66.2611,314.5695 68.2171,311.4955 66.1251,310.4395" id="Fill-10" fill="#000000"></path>
                <path d="M124.5934,311.5513 C117.1304,307.5833 109.1014,308.2653 101.3564,311.0353 C97.9684,312.2473 95.5254,315.3013 96.4274,319.0743 C97.1954,322.2863 101.0574,325.2223 104.4664,324.0033 C108.6114,322.5213 113.6294,320.7833 117.4814,322.8313 C120.6584,324.5203 124.6574,323.9483 126.6774,320.7473 C128.4904,317.8723 127.7844,313.2483 124.5934,311.5513" id="Fill-12" fill="#FFFFFF"></path>
                <path d="M109.5495,316.2012 C109.2715,315.0612 108.7335,314.0622 107.9355,313.2032 C107.4965,312.8412 107.0595,312.4782 106.6215,312.1162 C105.6025,311.4792 104.4915,311.1382 103.2895,311.0942 L103.1245,311.0882 C102.2085,311.0232 101.3465,311.1852 100.5385,311.5762 C99.7035,311.8172 98.9735,312.2522 98.3485,312.8812 C97.6785,313.4632 97.1955,314.1622 96.8985,314.9792 C96.4545,315.7592 96.2355,316.6082 96.2374864,317.5272 C96.2975,318.1202 96.3575,318.7132 96.4165,319.3062 C96.6955,320.4452 97.2345,321.4452 98.0315,322.3042 C98.4695,322.6662 98.9065,323.0282 99.3455,323.3902 C100.3635,324.0282 101.4745,324.3692 102.6775,324.4132 L102.8415,324.4192 C103.7575,324.4842 104.6195,324.3222 105.4285,323.9312 C106.2635,323.6902 106.9925,323.2552 107.6185,322.6262 C108.2885,322.0442 108.7715,321.3452 109.0685,320.5282 C109.5115,319.7482 109.7325,318.8982 109.728553,317.9802 C109.6685,317.3872 109.6095,316.7942 109.5495,316.2012" id="Fill-14" fill="#000000"></path>
                <path d="M97.3473,314.0679 C107.2193,309.0829 119.1673,309.7659 128.5293,315.5649 C130.5293,316.8029 132.2433,313.5889 130.2603,312.3599 C130.1593,312.2979 130.0553,312.2389 129.9533,312.1779 C131.5353,310.6409 133.0753,308.3749 131.1333,306.9849 C129.4363,305.7699 126.1643,306.5049 124.3133,306.7499 C121.3683,307.1389 118.4483,307.3349 115.4933,307.3249 C108.6763,306.5979 101.6673,307.8249 95.4063,310.9869 C93.3143,312.0439 95.2703,315.1169 97.3473,314.0679" id="Fill-16" fill="#000000"></path>
                <path d="M262.2809,512.666 C259.3619,506.455 256.7849,500.02 256.5959,493.066 C256.3959,485.649 258.1459,478.388 260.1199,471.293 C263.9969,457.356 268.9959,442.737 264.3109,428.345 C260.1179,415.46 250.0239,405.004 247.1159,391.675 C244.1229,377.96 252.3399,365.7 258.1799,353.979 C261.2169,347.887 263.8849,341.474 264.5469,334.634 C265.1979,327.889 263.5129,321.333 260.9309,315.15 C255.9869,303.312 247.0249,291.735 249.0709,278.209 C251.1549,264.433 261.7929,253.655 264.4959,240.005 C267.4619,225.027 258.1599,212.884 250.4429,201.089 C246.9789,195.795 244.0609,190.42 242.8259,184.156 C241.7989,178.944 241.6999,172.962 244.3429,168.179 C245.6229,165.864 247.4949,164.069 249.8289,162.84 C252.6449,161.357 250.4799,156.897 247.6459,158.389 C236.3369,164.343 235.6529,178.655 239.1009,189.558 C243.3089,202.861 254.7189,212.459 258.8389,225.782 C260.9709,232.678 260.1569,239.422 257.5299,246.051 C254.9359,252.595 251.1909,258.597 248.2379,264.973 C245.3189,271.273 243.3829,277.944 243.9109,284.943 C244.4099,291.548 247.0449,297.799 249.9089,303.692 C252.8099,309.66 256.2139,315.518 258.1659,321.892 C260.1449,328.354 260.1549,334.799 258.1459,341.258 C254.0129,354.544 244.5749,365.651 242.0289,379.513 C239.4289,393.668 247.2189,405.568 253.8199,417.342 C257.2169,423.401 260.2649,429.693 261.0879,436.672 C261.9479,443.967 260.4439,451.371 258.5939,458.399 C254.8849,472.497 249.0729,487.213 252.8859,501.937 C254.6359,508.688 257.8719,514.921 260.8739,521.176 C263.6169,526.892 266.6379,533.045 266.8839,539.503 C267.0029,542.63 266.3369,545.57 265.0049,548.39 C263.6419,551.276 268.3259,552.911 269.6759,550.053 C275.6879,537.321 267.6359,524.06 262.2809,512.666" id="Fill-18" fill="#000000"></path>
                <path d="M341.2028,86.8521 C340.8788,76.5861 339.5608,66.2231 336.2218,56.4751 C332.8358,46.5921 328.3608,37.8321 322.1258,29.4391 C316.6848,22.1181 309.5978,15.6191 301.7798,10.9181 C292.8898,5.5711 283.4468,2.5721 273.2728,0.9241 C269.0858,0.2461 264.7988,-0.0499 260.4878,0.0071 C256.1788,-0.0499 251.8908,0.2461 247.7028,0.9241 C237.5288,2.5721 228.0878,5.5711 219.1958,10.9181 C211.3798,15.6191 204.2908,22.1181 198.8508,29.4391 C192.6158,37.8321 188.1408,46.5921 184.7548,56.4751 C181.4148,66.2231 180.0978,76.5861 179.7738,86.8521 C179.4238,97.9251 180.9268,108.8721 183.1008,119.7061 C184.7268,127.8061 187.0098,135.7671 189.9818,143.4761 C196.4298,160.1941 205.5148,175.4221 217.5068,188.7351 C223.4658,195.3511 230.2198,200.8561 237.5278,205.9101 C240.0288,207.6381 242.5998,209.1891 245.2348,210.6041 C243.6238,213.2191 243.0008,216.4101 244.4178,219.1581 C245.6668,221.5801 248.3508,222.7051 250.9798,221.9481 C251.8728,221.6901 252.5778,221.2801 253.1818,220.7771 C253.8168,222.5651 255.0618,224.0811 257.0918,224.9571 C260.1878,226.2951 263.1628,224.4571 264.2968,221.5021 C264.5708,220.7881 264.7748,220.0521 264.9188,219.3031 C266.5988,220.8261 268.7718,221.7251 271.2398,221.4681 C274.1728,221.1621 276.5748,218.9511 276.5358,215.8641 C276.5138,214.1021 275.8658,212.4901 274.9828,211.0031 C277.8838,209.4821 280.7098,207.8041 283.4478,205.9101 C290.7578,200.8561 297.5118,195.3511 303.4698,188.7351 C315.4608,175.4221 324.5468,160.1941 330.9948,143.4761 C333.9678,135.7671 336.2498,127.8061 337.8758,119.7061 C340.0498,108.8721 341.5538,97.9251 341.2028,86.8521" id="Fill-20" fill="#FF6EE0"></path>
                <path d="M270.2936,106.6939 C273.6106,98.5029 282.2026,93.0029 291.0336,93.2369 C298.9066,93.4459 306.1146,97.8369 310.5336,104.2139 C309.8846,104.5349 309.4186,105.2359 309.4196,105.9659 C309.4196,107.1649 309.4696,108.3759 309.8266,109.5289 C309.9756,110.0079 310.2556,110.3489 310.5936,110.5749 C308.8686,113.0699 306.7206,115.2639 304.2676,117.0209 C303.9876,117.2529 303.6846,117.4609 303.3596,117.6429 C302.6386,118.1139 301.8966,118.5499 301.1316,118.9449 C300.2906,119.4539 299.3976,119.8549 298.4776,120.1189 C296.1066,121.0049 293.5916,121.5209 291.0056,121.5829 C282.1746,121.7949 273.5966,116.2739 270.2986,108.0739 C270.2056,107.8419 270.1836,107.6199 270.2066,107.4109 C270.1726,107.1879 270.190931,106.9469 270.2936,106.6939" id="Fill-22" fill="#FFFFFF"></path>
                <path d="M291.4948,107.9722 C291.3658,106.6022 291.5798,105.3062 292.1378,104.0832 C292.4698,102.8252 293.0968,101.7162 294.0168,100.7592 L294.7898,100.0892 C295.0378,99.8502 295.2988,99.6242 295.5698,99.4122 L295.9468,99.0862 C296.5418,98.6952 297.1598,98.3752 297.8008,98.1222 C298.7798,97.7172 299.8458,97.4572 300.9858,97.3922 C306.2008,97.0982 311.4548,101.4022 311.5168,106.7992 C311.5178,106.8772 311.5108,106.9542 311.5098,107.0332 C311.6148,108.3562 311.3998,109.6122 310.8598,110.7982 C310.5268,112.0562 309.9008,113.1652 308.9788,114.1222 L307.0498,115.7952 C305.5458,116.7852 303.8938,117.3332 302.0958,117.4402 C301.2058,117.3712 300.3148,117.3022 299.4258,117.2332 C297.7098,116.8552 296.1948,116.0832 294.8818,114.9182 C294.8588,114.8972 294.8358,114.8772 294.8118,114.8562 C293.8818,114.0852 293.1908,113.1542 292.7168,112.0802 C292.6018,111.8762 292.4968,111.6662 292.3968,111.4542 C291.8218,110.3852 291.5178,109.2252 291.4948,107.9722" id="Fill-24" fill="#000000"></path>
                <path d="M209.5436,106.5669 C212.8616,98.3749 221.4536,92.8759 230.2846,93.1099 C237.6216,93.3039 244.3806,97.1329 248.8446,102.8139 C248.3656,102.9979 247.9816,103.4099 247.8546,104.0959 C247.4496,106.2869 247.5126,108.3499 247.8546,110.5449 C247.9566,111.1999 248.3226,111.5989 248.7876,111.7949 C248.7986,111.8089 248.8126,111.8209 248.8226,111.8359 C247.2966,113.7599 245.5056,115.4689 243.5186,116.8929 C243.2376,117.1259 242.9356,117.3339 242.6096,117.5159 C241.8896,117.9869 241.1466,118.4229 240.3816,118.8169 C239.5416,119.3269 238.6476,119.7269 237.7286,119.9909 C235.3566,120.8779 232.8426,121.3939 230.2566,121.4559 C221.4246,121.6669 212.8466,116.1469 209.5496,107.9459 C209.4556,107.7139 209.4346,107.4919 209.4566,107.2839 C209.4236,107.0609 209.4406,106.8189 209.5436,106.5669" id="Fill-26" fill="#FFFFFF"></path>
                <path d="M229.8336,107.9722 C229.7046,106.6022 229.9186,105.3062 230.4766,104.0832 C230.8086,102.8252 231.4356,101.7162 232.3556,100.7592 L233.1286,100.0892 C233.3766,99.8502 233.6376,99.6242 233.9086,99.4122 L234.2856,99.0862 C234.8806,98.6952 235.4986,98.3752 236.1396,98.1222 C237.1186,97.7172 238.1846,97.4572 239.3246,97.3922 C244.5396,97.0982 249.7936,101.4022 249.8556,106.7992 C249.8566,106.8772 249.8496,106.9542 249.8486,107.0332 C249.9536,108.3562 249.7386,109.6122 249.1986,110.7982 C248.8656,112.0562 248.2396,113.1652 247.3176,114.1222 L245.3886,115.7952 C243.8846,116.7852 242.2326,117.3332 240.4346,117.4402 C239.5446,117.3712 238.6536,117.3022 237.7646,117.2332 C236.0486,116.8552 234.5336,116.0832 233.2206,114.9182 C233.1976,114.8972 233.1746,114.8772 233.1506,114.8562 C232.2206,114.0852 231.5296,113.1542 231.0556,112.0802 C230.9406,111.8762 230.8356,111.6662 230.7356,111.4542 C230.1606,110.3852 229.8566,109.2252 229.8336,107.9722" id="Fill-28" fill="#000000"></path>
                <path d="M210.2204,99.9502 C220.8054,88.2992 239.1264,88.5042 249.4004,100.4552 C250.8134,102.1002 248.4284,104.5062 247.0044,102.8492 C237.8884,92.2442 222.0304,91.9812 212.6154,102.3452 C211.1464,103.9612 208.7574,101.5612 210.2204,99.9502" id="Fill-30" fill="#000000"></path>
                <path d="M271.8815,99.9502 C282.4665,88.2992 300.7875,88.5042 311.0615,100.4552 C312.4745,102.1002 310.0895,104.5062 308.6655,102.8492 C299.5495,92.2442 283.6915,91.9812 274.2765,102.3452 C272.8075,103.9612 270.4185,101.5612 271.8815,99.9502" id="Fill-32" fill="#000000"></path>
            </g>
        </g>
    </g>
</svg>