<?xml version="1.0" encoding="UTF-8"?>
<svg width="680px" height="154px" viewBox="0 0 680 154" version="1.1" xmlns="http://www.w3.org/2000/svg" xmlns:xlink="http://www.w3.org/1999/xlink">
    <!-- Generator: Sketch 63 (92445) - https://sketch.com -->
    <title>bunting</title>
    <desc>Created with Sketch.</desc>
    <g id="Page-1" stroke="none" stroke-width="1" fill="none" fill-rule="evenodd">
        <g id="bunting" fill-rule="nonzero">
            <path d="M308.2688,119.9466 C307.629681,119.591708 306.88718,119.469695 306.1681,119.6014 C306.0912,119.6023 306.0144,119.6052 305.9376,119.6066 C305.174775,119.496345 304.405662,119.435152 303.635,119.4234 C301.6627,119.2552 299.6835,119.1872 297.705,119.1443 C294.5374,119.0755 291.3688,119.0625 288.2092,118.8467 C288.132537,118.789273 288.046352,118.745808 287.9546,118.7183 C287.063363,118.462796 286.1399,118.337334 285.2128,118.3458 C284.5428,118.1376 283.706,118.5338 283.9149,119.3909 L283.9311,119.4562 C283.941701,119.548215 283.964189,119.638468 283.998,119.7247 C286.667867,130.6413 289.759633,141.441867 293.2733,152.1264 C293.426178,152.483745 293.766079,152.725571 294.153795,152.752837 C294.541511,152.780104 294.911912,152.588231 295.1133,152.2558 C300.137567,142.0748 304.753633,131.707 308.9615,121.1524 C309.074008,120.901319 309.059482,120.611547 308.922429,120.372976 C308.785377,120.134405 308.542372,119.975888 308.2688,119.9466 L308.2688,119.9466 Z" id="Path" fill="#FF5122"></path>
            <path d="M397.2552,116.2206 C396.568607,115.969597 395.816167,115.964755 395.1264,116.2069 C395.0506,116.2197 394.9751,116.2345 394.8994,116.2479 C394.128721,116.257769 393.359471,116.317124 392.5964,116.4256 C390.622,116.5667 388.6564,116.8079 386.6954,117.0737 C383.5554,117.4992 380.4238,117.9799 377.2691,118.259 C377.184469,118.214106 377.092545,118.184582 376.9976,118.1718 C376.077431,118.058198 375.145678,118.078104 374.2312,118.2309 C373.5373,118.1295 372.7721,118.6514 373.112,119.4654 L373.1382,119.5274 C373.162987,119.616645 373.199257,119.702295 373.2461,119.7822 C377.583967,130.1496 382.320467,140.336667 387.4556,150.3434 C387.662275,150.672521 388.035652,150.858424 388.422844,150.824985 C388.810035,150.791546 389.146012,150.544382 389.2932,150.1847 C392.6701,139.3454 396.0832,126.8366 398.5948,115.7647 C398.7478,115.09 397.7935,116.2489 397.2552,116.2206 Z" id="Path" fill="#7E29F3"></path>
            <path d="M367.6905,119.2684 C367.023568,118.969057 366.273409,118.91049 365.5681,119.1027 C365.4915,119.1101 365.4153,119.1195 365.3388,119.1274 C364.56932,119.082225 363.797733,119.0865 363.0288,119.1402 C361.0494,119.1402 359.0716,119.2402 357.0966,119.365 C353.9346,119.565 350.7766,119.8209 347.6098,119.8739 C347.528561,119.823114 347.438982,119.787093 347.3452,119.7675 C346.435469,119.588554 345.50467,119.541873 344.5816,119.6289 C343.8967,119.4782 343.0962,119.9441 343.3771,120.7803 L343.3988,120.844 C343.417159,120.934764 343.447209,121.022764 343.4882,121.1058 C347.0744,131.756733 351.071067,142.256167 355.4782,152.6041 C355.660857,152.947115 356.019997,153.159183 356.408572,153.153585 C356.797147,153.147763 357.149901,152.925234 357.3224,152.577 C361.4651,142.007 365.7624,129.7737 369.0591,118.9096 C369.26,118.2476 368.2254,119.3352 367.6905,119.2684 Z" id="Path" fill="#02B26A"></path>
            <path d="M337.9933,120.0892 C337.333466,119.774511 336.584846,119.698659 335.8753,119.8746 C335.7986,119.8802 335.7221,119.8878 335.6453,119.894 C334.876961,119.831069 334.105376,119.817507 333.3353,119.8534 C331.3564,119.8075 329.3768,119.862 327.3995,119.9414 C324.2337,120.0685 321.0703,120.2514 317.9034,120.2314 C317.823344,120.178772 317.734611,120.140719 317.6413,120.119 C316.735844,119.918994 315.806242,119.850857 314.8813,119.9167 C314.2,119.7502 313.389,120.1974 313.6505,121.04 L313.6705,121.1041 C313.686704,121.195307 313.714706,121.284018 313.7538,121.368 C317.093333,132.098733 320.846667,142.687533 325.0138,153.1344 C325.188493,153.481567 325.54267,153.701882 325.931299,153.705163 C326.319928,153.708372 326.677735,153.494002 326.8582,153.1498 C331.2436,142.6778 335.210033,132.044467 338.7575,121.2498 C338.854167,120.992527 338.82194,120.704537 338.670798,120.474995 C338.519655,120.245452 338.267833,120.102055 337.9933,120.0892 Z" id="Path" fill="#FF97AC"></path>
            <path d="M425.7781,111.0677 C425.1368,110.7109 424.3943,111.8901 423.6996,112.0277 C423.6241,112.0426 423.5496,112.0593 423.4738,112.0747 C422.703652,112.104959 421.936241,112.184623 421.1763,112.3132 C419.2063,112.5064 417.2477,112.7994 415.2944,113.1168 C412.1671,113.6251 409.049,114.1884 405.9028,114.5507 C405.816971,114.50808 405.724273,114.480995 405.629,114.4707 C404.706174,114.38143 403.775292,114.425957 402.8652,114.6029 C402.1688,114.5198 401.4177,115.0617 401.779,115.8665 L401.8068,115.9277 C401.8339,116.016287 401.872424,116.100966 401.9214,116.1796 C406.531467,126.428867 411.5353,136.487333 416.9329,146.355 C417.14821,146.67856 417.526394,146.854531 417.912583,146.810851 C418.298771,146.767171 418.628098,146.511176 418.7657,146.1477 C421.8557,135.223 424.9366,122.6285 427.1551,111.4943 C427.29,110.8155 426.317,111.0818 425.7781,111.0677 Z" id="Path" fill="#FFD40C"></path>
            <path d="M454.9754,105.6222 C454.265427,105.447863 453.51695,105.525411 452.8578,105.8416 C452.7839,105.8627 452.7105,105.8856 452.6367,105.9072 C451.871642,106.001394 451.113417,106.144589 450.3667,106.3359 C448.4196,106.6923 446.4922,107.1471 444.572,107.6259 C441.4978,108.3925 438.4373,109.2131 435.332,109.8359 C435.242916,109.800606 435.148292,109.781343 435.0525,109.779 C434.125433,109.766825 433.201466,109.888581 432.3092,110.1405 C431.6083,110.1157 430.9049,110.7182 431.3319,111.4905 L431.3647,111.5492 C431.399065,111.635221 431.444479,111.716403 431.4998,111.7907 C436.946467,121.6211 442.769467,131.228567 448.9688,140.6131 C449.210258,140.917629 449.601748,141.061548 449.982958,140.985926 C450.364168,140.910303 450.671073,140.62784 450.778,140.2542 C452.948267,129.1104 454.675667,117.893733 455.9602,106.6042 C456.002911,106.332377 455.912882,106.056537 455.718038,105.862248 C455.523195,105.667959 455.247101,105.578715 454.9754,105.6222 L454.9754,105.6222 Z" id="Path" fill="#FF5122"></path>
            <path d="M539.85,78.628 C539.121529,78.5664083 538.394266,78.759605 537.7924,79.1746 C537.7224,79.207 537.6538,79.2411 537.5843,79.2739 C536.843322,79.4860905 536.116728,79.745624 535.409,80.0509 C533.5412,80.7062 531.7082,81.4558 529.8861,82.2279 C526.9688,83.464 524.0735,84.7513 521.1033,85.8501 C521.009788,85.8291267 520.913307,85.8248274 520.8183,85.8374 C519.900667,85.9697436 519.006968,86.2339731 518.1649,86.6219 C517.4687,86.7066 516.8677,87.4112 517.4097,88.1072 L517.4512,88.1601 C517.498591,88.2396917 517.556104,88.3128014 517.6223,88.3776 C524.5341,97.2392 531.782767,105.8223 539.3683,114.1269 C539.654256,114.390097 540.063393,114.471267 540.42817,114.337173 C540.792947,114.203079 541.052097,113.876242 541.0995,113.4905 C541.5074,102.1447 541.511,89.1788 541.023,77.8362 C540.9933,77.145 540.3772,78.5139 539.85,78.628 Z" id="Path" fill="#7E29F3"></path>
            <path d="M512.1276,89.3428 C511.405388,89.2292771 510.666164,89.3700243 510.0362,89.741 C509.9643,89.7683 509.8932,89.7974 509.8215,89.8251 C509.067268,89.9839535 508.324007,90.1910457 507.5963,90.4451 C505.6863,90.9651 503.8046,91.582 501.932,92.2219 C498.9339,93.2465 495.954,94.3237 492.9128,95.2075 C492.821048,95.1798982 492.72514,95.1687265 492.6295,95.1745 C491.704759,95.2410178 490.794467,95.4407115 489.9268,95.7674 C489.2268,95.8021 488.5768,96.4621 489.0674,97.195 L489.1051,97.2507 C489.14666,97.333492 489.198796,97.4105362 489.2602,97.4799 C495.520867,106.813233 502.137733,115.892233 509.1108,124.7169 C509.37724,124.999831 509.779535,125.109995 510.152949,125.002282 C510.526363,124.894569 510.80818,124.587069 510.883,124.2057 C512.1004,112.918 513.0302,99.9857 513.3538,88.637 C513.3735,87.9452 512.6612,89.2665 512.1276,89.3428 Z" id="Path" fill="#02B26A"></path>
            <path d="M483.6913,97.9436 C482.97189,97.8135419 482.229642,97.93725 481.5913,98.2936 C481.5188,98.3192 481.447,98.3467 481.3747,98.3727 C480.616991,98.5140595 479.869124,98.7038487 479.1357,98.9409 C477.2144,99.417 475.3188,99.9901 473.4319,100.5866 C470.411,101.5418 467.407,102.55 464.3463,103.3634 C464.255255,103.333546 464.159654,103.320005 464.0639,103.3234 C463.137872,103.368409 462.223198,103.546918 461.3482,103.8534 C460.6471,103.8719 459.9822,104.5167 460.4561,105.2608 L460.4925,105.3173 C460.532158,105.401065 460.582584,105.479293 460.6425,105.55 C466.686167,115.025 473.091833,124.2542 479.8595,133.2376 C480.119311,133.526647 480.518956,133.646115 480.894777,133.547081 C481.270599,133.448048 481.559472,133.147147 481.6431,132.7676 C483.1205,121.511 484.1513,110.208967 484.7355,98.8615 C484.760917,98.5876545 484.653735,98.3181855 484.447174,98.136609 C484.240614,97.9550326 483.959627,97.8832839 483.6913,97.9436 L483.6913,97.9436 Z" id="Path" fill="#FF97AC"></path>
            <path d="M566.0146,66.1563 C565.302,65.9807 564.8957,67.3137 564.2615,67.6288 C564.1927,67.663 564.1247,67.6988 564.0561,67.7335 C563.320977,67.9651938 562.601496,68.2438675 561.9021,68.5678 C560.0521,69.2722 558.2397,70.0699 556.4386,70.8898 C553.555,72.2025 550.6946,73.5659 547.7545,74.7427 C547.660485,74.7241493 547.563929,74.7223889 547.4693,74.7375 C546.555479,74.8940762 545.669062,75.181813 544.8375,75.5918 C544.1437,75.6948 543.5616,76.4151 544.1218,77.0966 L544.1647,77.1484 C544.214182,77.2267114 544.273611,77.2982749 544.3415,77.3613 C551.4845,86.0375667 558.957167,94.4262333 566.7595,102.5273 C567.052308,102.782991 567.46345,102.8532 567.824562,102.709518 C568.185675,102.565836 568.436105,102.232264 568.4733,101.8454 C568.5814,90.4928 568.2426,77.5313 567.4552,66.2054 C567.4072,65.5154 566.5382,66.0282 566.0146,66.1563 Z" id="Path" fill="#FFD40C"></path>
            <path d="M163.0577,95.2635 C162.6366,94.6625 161.8093,94.5521 161.1244,94.3722 C161.05,94.3527 160.9752,94.335 160.9008,94.3159 C160.194754,94.0067923 159.469597,93.7433174 158.7298,93.5271 C156.8732,92.8405 154.9834,92.2487 153.0875,91.6812 C150.0522,90.7727 147.0012,89.9176 144.0127,88.8695 C143.954066,88.7937101 143.882499,88.7288797 143.8013,88.678 C143.010105,88.1946956 142.153262,87.8281799 141.2573,87.5898 C140.6673,87.211 139.7547,87.3704 139.7283,88.2522 L139.7265,88.3194 C139.712264,88.4109486 139.709944,88.5039556 139.7196,88.5961 C139.390667,99.8294333 139.4993,111.063267 140.0455,122.2976 C140.097897,122.682669 140.361231,123.006103 140.727683,123.135473 C141.094134,123.264844 141.502162,123.178425 141.7847,122.9116 C149.335233,114.433133 156.5419,105.666 163.4047,96.6102 C163.579933,96.3980749 163.643004,96.1148714 163.574351,95.8484313 C163.505698,95.5819912 163.313623,95.3645307 163.0577,95.2635 L163.0577,95.2635 Z" id="Path" fill="#FF5122"></path>
            <path d="M249.8314,115.333 C249.236247,114.908442 248.512153,114.703684 247.7828,114.7537 C247.7063,114.746 247.6297,114.7402 247.5528,114.7329 C246.807215,114.537534 246.049858,114.390231 245.2854,114.2919 C243.3445,113.9029 241.3854,113.6127 239.4245,113.3475 C236.2845,112.9229 233.1377,112.5535 230.0224,111.9837 C229.952695,111.917977 229.871918,111.865096 229.7838,111.8275 C228.926969,111.473329 228.023475,111.244769 227.1013,111.1489 C226.4593,110.8667 225.5829,111.1663 225.6941,112.0414 L225.7029,112.1081 C225.703089,112.200718 225.71529,112.292921 225.7392,112.3824 C227.1642,123.530133 229.021433,134.609933 231.3109,145.6218 C231.422641,145.994034 231.733173,146.272517 232.115334,146.343209 C232.497495,146.413902 232.887097,146.264931 233.1246,145.9573 C239.2622,136.4061 245.8782,125.2552 251.2435,115.2499 C251.5709,114.64 250.3428,115.5035 249.8314,115.333 Z" id="Path" fill="#7E29F3"></path>
            <path d="M220.5206,110.41 C219.957253,109.944082 219.24965,109.68815 218.5186,109.6859 C218.4429,109.6727 218.3669,109.6614 218.291,109.6488 C217.561329,109.4006 216.81646,109.199552 216.061,109.0469 C214.1529,108.5202 212.2197,108.0909 210.2826,107.6862 C207.1812,107.0384 204.0686,106.4452 201.002,105.6543 C200.937135,105.583758 200.860322,105.525226 200.7751,105.4814 C199.945764,105.066969 199.060936,104.774451 198.148,104.6129 C197.528,104.2855 196.6322,104.5218 196.6806,105.4029 L196.6846,105.47 C196.678115,105.56243 196.683696,105.655311 196.7012,105.7463 C197.3262,116.967167 198.3872,128.1513 199.8842,139.2987 C199.969038,139.677981 200.258873,139.977961 200.635011,140.075794 C201.01115,140.173627 201.410415,140.05288 201.6693,139.763 C208.4734,130.6747 215.8693,120.0248 221.9355,110.4284 C222.3051,109.8432 221.0185,110.6165 220.5206,110.41 Z" id="Path" fill="#02B26A"></path>
            <path d="M191.6743,103.3047 C191.121838,102.825921 190.420308,102.553763 189.6895,102.5347 C189.6141,102.5198 189.5384,102.5068 189.4629,102.4923 C188.739072,102.227405 187.998983,102.009257 187.2472,101.8392 C185.3518,101.2687 183.429,100.7948 181.5017,100.3456 C178.4161,99.6264 175.318,98.9615 172.2704,98.1001 C172.207217,98.0280598 172.131788,97.9677642 172.0476,97.922 C171.228033,97.4885633 170.350176,97.1757357 169.4412,96.9932 C168.8287,96.6516 167.928,96.8671 167.956,97.7488 L167.9585,97.8161 C167.949836,97.9083105 167.953197,98.0012562 167.9685,98.0926 C168.3345,109.325 169.137233,120.530633 170.3767,131.7095 C170.452786,132.090622 170.735627,132.397186 171.109401,132.503656 C171.483174,132.610127 171.885103,132.498621 172.1506,132.2148 C179.1626,123.285933 185.8136,114.090133 192.1036,104.6274 C192.26545,104.404899 192.310965,104.118349 192.226026,103.856647 C192.141088,103.594946 191.935967,103.389743 191.6743,103.3047 L191.6743,103.3047 Z" id="Path" fill="#FF97AC"></path>
            <path d="M278.6977,117.95 C278.1743,117.4355 277.145,118.3748 276.4388,118.3225 C276.3621,118.3167 276.2853,118.3125 276.2088,118.3077 C275.458316,118.132176 274.697357,118.004916 273.9306,117.9267 C271.9801,117.5892 270.0142,117.3508 268.0468,117.1375 C264.8968,116.7959 261.7412,116.5098 258.612,116.0225 C258.540606,115.958593 258.458475,115.907811 258.3694,115.8725 C257.503344,115.541059 256.593955,115.336447 255.6694,115.265 C255.0201,114.9998 254.152,115.3224 254.2862,116.1943 L254.2968,116.2608 C254.299372,116.35337 254.313995,116.445209 254.3403,116.534 C256.059233,127.6402 258.208433,138.667067 260.7879,149.6146 C260.909411,149.983757 261.22717,150.253957 261.611057,150.314556 C261.994944,150.375155 262.380483,150.215976 262.6098,149.9022 C268.493,140.1922 274.8122,128.8705 279.9115,118.727 C280.2225,118.1088 279.2134,118.1067 278.6977,117.95 Z" id="Path" fill="#FFD40C"></path>
            <path d="M29.8225,34.27 C29.5683,33.5816 28.7963,33.2642 28.1798,32.9159 C28.1128,32.878 28.045,32.8419 27.9778,32.8045 C27.3737277,32.3258346 26.7395576,31.8864315 26.0792,31.489 C24.4585,30.3524 22.7816,29.299 21.0927,28.2677 C18.3887,26.6164 15.6558,25.0128 13.0327,23.2385 C12.9952532,23.150426 12.9425055,23.0696793 12.8769,23 C12.2347987,22.3311479 11.4994369,21.7585674 10.6936,21.3 C10.4910388,21.0101301 10.1414857,20.8603841 9.79189863,20.9137177 C9.44231157,20.9670514 9.1533119,21.2142163 9.0464,21.5513 L9.0276,21.6159 C8.99045132,21.7007357 8.96453247,21.7900565 8.9505,21.8816 C5.77276667,32.6616 3.01813333,43.5530333 0.6866,54.5559 C0.639224647,54.9416486 0.811562318,55.321497 1.13304035,55.5398965 C1.45451839,55.7582959 1.87114088,55.7785636 2.2123,55.5924 C11.6723,49.3152 20.8733,42.6714 29.8153,35.661 C30.0388865,35.5004777 30.1720586,35.242574 30.1734948,34.9673354 C30.1749079,34.6920967 30.0444128,34.4328283 29.8225,34.27 Z" id="Path" fill="#FF5122"></path>
            <path d="M593.433,53.5584 C592.702203,53.576884 592.000474,53.8484354 591.4476,54.3267 C591.3818,54.3667 591.3176,54.4079 591.2516,54.4481 C590.538271,54.7399768 589.844412,55.077337 589.1743,55.4581 C587.3894,56.3138 585.6493,57.2592 583.9226,58.2259 C581.158,59.7736 578.4208,61.3699 575.5885,62.7869 C575.493285,62.7762236 575.396932,62.7824869 575.3039,62.8054 C574.406229,63.0373747 573.54676,63.3977603 572.7521,63.8754 C572.0693,64.0354 571.549,64.8019 572.1639,65.4345 L572.211,65.4825 C572.266786,65.5564387 572.331929,65.6228263 572.4048,65.68 C580.2438,73.733 588.387433,81.472 596.8357,88.897 C597.148723,89.1273336 597.564273,89.1632683 597.91219,88.9900894 C598.260107,88.8169105 598.481958,88.4637036 598.4869,88.0751 C597.6517,76.7527 596.369933,65.4763333 594.6416,54.246 C594.611102,53.9726072 594.451569,53.7303361 594.212468,53.5943059 C593.973366,53.4582756 593.683595,53.4449274 593.433,53.5584 L593.433,53.5584 Z" id="Path" fill="#FF5122"></path>
            <path d="M668.757,5.5563 C668.0232,5.5549 667.457,6.1679 666.9155,6.6245 C666.8567,6.6745 666.7992,6.7251 666.7408,6.775 C666.081657,7.17448265 665.448854,7.61589137 664.8463,8.0965 C663.2163,9.2197 661.6449,10.4247 660.0898,11.6486 C657.5998,13.6081 655.1449,15.6112 652.5679,17.4521 C652.472197,17.4564456 652.378015,17.4776721 652.2897,17.5148 C651.439124,17.883734 650.646276,18.3735547 649.9357,18.9691 C649.59342,19.0580393 649.331299,19.3335629 649.259525,19.6798493 C649.187751,20.0261357 649.318767,20.3831444 649.5975,20.6008 L649.6515,20.6408 C649.71812,20.7051648 649.79285,20.7605654 649.8738,20.8056 C658.871467,27.5389333 668.121233,33.9149 677.6231,39.9335 C677.96818,40.1123369 678.384302,40.0831319 678.701019,39.8578477 C679.017736,39.6325634 679.181835,39.2490509 679.1261,38.8644 C676.5373,27.8103 673.1326,15.2994 669.6803,4.4844 C669.47,3.825 669.2354,5.3077 668.757,5.5563 Z" id="Path" fill="#7E29F3"></path>
            <path d="M644.2963,22.3252 C643.5644,22.2713 642.9557,22.8423 642.3832,23.2591 C642.321,23.3044 642.26,23.3511 642.1981,23.3967 C641.512127,23.7481229 640.84943,24.143236 640.2141,24.5796 C638.5081,25.5835 636.8541,26.6731 635.216,27.7828 C632.5926,29.5594 630.0007,31.3821 627.2988,33.0342 C627.203031,33.0316469 627.107563,33.0460347 627.0168,33.0767 C626.142003,33.3839359 625.316175,33.8159303 624.5649,34.3593 C623.8982,34.5769 623.4449,35.3844 624.111,35.9626 L624.162,36.0064 C624.223906,36.0752448 624.294497,36.1357516 624.372,36.1864 C632.8658,43.5456 641.636467,50.5660333 650.684,57.2477 C651.015421,57.4506767 651.432524,57.4512618 651.764513,57.2492157 C652.096501,57.0471695 652.287617,56.6764263 652.2596,56.2888 C650.4671,45.078 647.9647,32.3558 645.2939,21.3214 C645.131,20.6493 644.7912,22.1114 644.2963,22.3252 Z" id="Path" fill="#02B26A"></path>
            <path d="M620.0029,38.2378 C619.2724,38.167 618.6507,38.7238 618.0688,39.1278 C618.0055,39.1716 617.9435,39.2169 617.8806,39.2611 C617.186679,39.5965778 616.515029,39.9762933 615.8698,40.3979 C614.1411,41.3622 612.4628,42.4134 610.7991,43.485 C608.1355,45.2006 605.5021,46.963 602.7629,48.5523 C602.66721,48.5475892 602.57144,48.5598101 602.48,48.5884 C601.598383,48.8753883 600.762827,49.2881813 599.9992,49.814 C599.3276,50.0162 598.8557,50.813 599.5084,51.4064 L599.5584,51.4514 C599.618638,51.5217705 599.687786,51.583994 599.7641,51.6365 C608.085767,59.1898333 616.692167,66.4107333 625.5833,73.2992 C625.909962,73.5097231 626.326924,73.5198901 626.663458,73.3255381 C626.999993,73.131186 627.199581,72.7649544 627.1805,72.3768 C625.647167,61.1276 623.6709,49.9520333 621.2517,38.8501 C621.204598,38.5789581 621.030477,38.3467804 620.783378,38.2256251 C620.536279,38.1044698 620.2461,38.1089964 620.0029,38.2378 Z" id="Path" fill="#FF97AC"></path>
            <path d="M108.6288,75.7676 C108.2704,75.1276 107.4588,74.934 106.7952,74.6859 C106.7232,74.659 106.6505,74.6338 106.5784,74.6074 C105.907101,74.2286423 105.212171,73.8933858 104.4979,73.6037 C102.72,72.7337 100.8995,71.9537 99.0705,71.1985 C96.1423,69.9885 93.1929,68.8303 90.3253,67.4862 C90.2746423,67.4049041 90.210015,67.3332013 90.1344,67.2744 C89.395925,66.7138169 88.5803778,66.2627972 87.713,65.9353 C87.1639,65.4989 86.2402,65.5653 86.125,66.4402 L86.1165,66.5069 C86.0930683,66.5965082 86.0813705,66.6887795 86.0817,66.7814 C84.6217,77.9246 83.5973,89.1121667 83.0085,100.3441 C83.0217958,100.73251 83.2511926,101.080867 83.6027557,101.246524 C83.9543189,101.412181 84.3690025,101.367316 84.677,101.1303 C93.0437,93.4561 102.2804,84.3567 110.0159,76.0468 C110.4873,75.54 109.08,76.0627 108.6288,75.7676 Z" id="Path" fill="#7E29F3"></path>
            <path d="M81.5368,63.5454 C81.225,62.881 80.429,62.6303 79.7851,62.3354 C79.7151,62.3034 79.6445,62.2731 79.5744,62.2415 C78.9318681,61.8157375 78.262695,61.431616 77.571,61.0915 C75.8598,60.0965 74.0996,59.1892 72.3293,58.3047 C69.495,56.8887 66.6359,55.5227 63.8716,53.9772 C63.8268512,53.8925051 63.767508,53.8163711 63.6963,53.7523 C62.9996247,53.1403684 62.2182263,52.6322574 61.3763,52.2437 C60.8599,51.7692 59.9337,51.7697 59.7563,52.6337 L59.7431,52.6997 C59.7133163,52.7873972 59.6950632,52.8785952 59.6888,52.971 C57.4368,63.9814 55.6158333,75.0672 54.2259,86.2284 C54.2114016,86.616779 54.4153278,86.9806496 54.7541693,87.1710043 C55.0930108,87.361359 55.5098545,87.3462251 55.834,87.1318 C64.7275,80.0749 74.5906,71.6586 82.9,63.9225 C83.4067,63.4516 81.9657,63.8719 81.5368,63.5454 Z" id="Path" fill="#02B26A"></path>
            <path d="M55.4494,49.3312 C55.1531,48.6598 54.363,48.3912 53.7261,48.0812 C53.6569,48.0476 53.587,48.0157 53.5177,47.9825 C52.8851512,47.5420731 52.2249951,47.142686 51.5413,46.7868 C49.8535,45.7526 48.1147,44.8049 46.3652,43.8799 C43.5643,42.3989 40.7376,40.9673 38.0097,39.3585 C37.9669722,39.2727738 37.9094191,39.1952802 37.8397,39.1296 C37.157478,38.5017516 36.3881324,37.9757525 35.5555,37.5679 C35.3353851,37.2911303 34.9772508,37.1632927 34.6316314,37.238121 C34.286012,37.3129493 34.0128254,37.577471 33.9269,37.9205 L33.9122,37.9861 C33.8803985,38.0730976 33.8600282,38.1638564 33.8516,38.2561 C31.3462667,49.2115667 29.2701,60.2524 27.6231,71.3786 C27.5997575,71.7664856 27.7952717,72.1348594 28.1296002,72.3329113 C28.4639287,72.5309632 28.8809353,72.5254389 29.2099,72.3186 C38.2637667,65.469 47.0365,58.2694667 55.5281,50.72 C55.7413932,50.5460028 55.8584201,50.280355 55.8428467,50.0055342 C55.8272732,49.7307134 55.6809846,49.479987 55.4494,49.3312 Z" id="Path" fill="#FF97AC"></path>
            <path d="M135.46,86.4644 C135.0848,85.8337 134.2681,85.662 133.5985,85.4316 C133.5258,85.4065 133.4525,85.3833 133.3797,85.3587 C132.698621,84.9978848 131.995111,84.6811019 131.2735,84.4103 C129.4735,83.5874 127.6327,82.8564 125.7844,82.1493 C122.8253,81.0172 119.8464,79.9371 116.9444,78.6693 C116.891591,78.5893599 116.825068,78.5193835 116.7479,78.4626 C115.994877,77.9216662 115.16767,77.4923337 114.2919,77.1879 C113.7319,76.7662 112.8099,76.8572 112.7178,77.7346 L112.7111,77.8015 C112.69004,77.8916869 112.680796,77.9842293 112.6836,78.0768 C111.518733,89.2546667 110.790133,100.4654 110.4978,111.709 C110.521365,112.096919 110.759893,112.439084 111.115711,112.595386 C111.471529,112.751687 111.884878,112.695873 112.1865,112.4508 C120.3476,104.5584 129.3408,95.2182 136.8542,86.7069 C137.3121,86.1883 135.919,86.7475 135.46,86.4644 Z" id="Path" fill="#FFD40C"></path>
            <path d="M672.0694,0.9176 C598.93044,57.68777 512.915618,95.5375284 421.649,111.112 C329.5099,126.8144 234.075,118.1884 145.9046,87.3557 C96.2538651,69.9920226 49.3059239,45.6992234 6.4532,15.1978 C4.7859,14.01 3.21,16.77 4.8616,17.9461 C81.4984513,72.3013017 170.474874,106.697567 263.7454,118.0247 C356.5278,129.2863 451.4912,116.2847 538.1711,81.4602 C586.750264,61.9729256 632.363301,35.7831809 673.6832,3.6529 C675.2726,2.4151 673.6821,-0.3384 672.0694,0.9176 Z" id="Path" fill="#000000"></path>
        </g>
    </g>
</svg>