<svg id="Layer_30" data-name="Layer 30" xmlns="http://www.w3.org/2000/svg" width="9.8614in" height="2.0162in" viewBox="0 0 710.024 145.1651"><title>bunting-two</title><path d="M523.0922,61.93c-.2148-1.0421-1.2524-1.6648-2.0605-2.2982-.0877-.0688-.1771-.1353-.2652-.2035a26.112,26.112,0,0,0-2.4358-2.2986c-2.0761-1.9815-4.2509-3.8561-6.4478-5.7017-3.5171-2.9549-7.0861-5.8478-10.4607-8.9616a1.18,1.18,0,0,0-.1712-.3764,13.9592,13.9592,0,0,0-2.76-2.9114,1.3472,1.3472,0,0,0-2.416.0021l-.0409.0885a1.5489,1.5489,0,0,0-.1683.3642q-10.348,22.1429-18.9495,45.0417a1.5032,1.5032,0,0,0,1.9617,1.8174Q501.266,76.08,522.78,63.9216A1.246,1.246,0,0,0,523.0922,61.93Z" fill="#ff97ac"/><path d="M637.1317,55.36c-1.0561-.13-1.9778.6545-2.8362,1.2178-.0933.0611-.1849.1245-.2777.1862a26.1327,26.1327,0,0,0-2.9565,1.5733c-2.5412,1.3338-5.0125,2.7955-7.4635,4.2871-3.9241,2.3882-7.806,4.8453-11.8351,7.0477a1.1778,1.1778,0,0,0-.4114.0418,13.9643,13.9643,0,0,0-3.6409,1.6848c-.9808.2682-1.6944,1.4057-.77,2.29l.0707.0671a1.5514,1.5514,0,0,0,.2913.2759q17.6738,16.8826,36.622,32.3521a1.5033,1.5033,0,0,0,2.3492-1.2779c-1.8069-16.3612-4.4515-33.63-7.5428-49.7982C638.5423,54.3219,637.8634,55.0846,637.1317,55.36Z" fill="#ffd40c"/><path d="M664.1772,24.9563c-1.0366.24-1.6339,1.2924-2.2474,2.1157-.0667.0894-.1311.18-.1971.27a26.1169,26.1169,0,0,0-2.2387,2.4909c-1.9306,2.1236-3.7517,4.3433-5.5435,6.5843-2.8686,3.5879-5.6739,7.2261-8.7048,10.6754a1.179,1.179,0,0,0-.3722.18,13.9609,13.9609,0,0,0-2.8435,2.83,1.3472,1.3472,0,0,0,.0608,2.4152l.09.0388a1.5436,1.5436,0,0,0,.3682.1594q22.3875,9.8072,45.4885,17.85a1.5033,1.5033,0,0,0,1.7693-2.0053c-7.3021-14.7524-15.7022-30.0709-24.1447-44.2016C665.1471,23.4983,664.7705,24.4475,664.1772,24.9563Z" fill="#ff5122"/><path d="M561.1469,77.3208c-.5764-.8944-1.7687-1.1007-2.751-1.4-.1066-.0325-.214-.0623-.3208-.0941a26.1039,26.1039,0,0,0-3.1011-1.2647c-2.6512-1.0989-5.356-2.0623-8.0708-2.9908-4.3465-1.4866-8.7189-2.8967-12.99-4.5829a1.1786,1.1786,0,0,0-.2955-.2893,13.9633,13.9633,0,0,0-3.6247-1.7193c-.8339-.5819-2.1646-.4021-2.2524.8739l-.0063.0973a1.5479,1.5479,0,0,0-.0255.4q-1.66,24.3849-1.4191,48.8448a1.5032,1.5032,0,0,0,2.4854.9871q17.1222-17.79,32.7988-36.8921A1.246,1.246,0,0,0,561.1469,77.3208Z" fill="#02b26a"/><path d="M601.4113,74.3462c-.9311-.515-2.0791-.1325-3.0859.069-.1093.0218-.218.0464-.3272.0689a26.1414,26.1414,0,0,0-3.33.3537c-2.8556.287-5.6942.7185-8.5251,1.1856-4.5325.7477-9.0515,1.5751-13.6118,2.1113a1.1785,1.1785,0,0,0-.3972-.115,13.96,13.96,0,0,0-4.0068.2012c-1.01-.118-2.0971.67-1.57,1.8358l.0406.0887a1.5455,1.5455,0,0,0,.167.3648q10.0793,22.2663,21.8692,43.6986a1.5033,1.5033,0,0,0,2.6566-.3068q6.6624-23.7751,11.43-48.0223A1.2459,1.2459,0,0,0,601.4113,74.3462Z" fill="#7e29f3"/><path d="M93.5992,59.2319c-.2051-1.0441-1.2367-1.6765-2.039-2.3173-.087-.07-.1758-.137-.2633-.2061a26.1292,26.1292,0,0,0-2.4142-2.3211c-2.0576-2.0008-4.2149-3.8955-6.3944-5.7615-3.4895-2.9876-7.0314-5.9136-10.3769-9.0586a1.1786,1.1786,0,0,0-.1676-.3781,13.9626,13.9626,0,0,0-2.7329-2.937,1.3472,1.3472,0,0,0-2.4159-.02l-.0417.0881a1.5451,1.5451,0,0,0-.1717.3626Q56.0278,58.7281,47.2134,81.5458a1.5032,1.5032,0,0,0,1.9447,1.8356q22.4841-10.2035,44.11-22.1607A1.2459,1.2459,0,0,0,93.5992,59.2319Z" fill="#ff97ac"/><path d="M207.6807,55.26c-1.0549-.1393-1.9838.6361-2.8475,1.1914-.0938.06-.186.1228-.2793.1837a26.12,26.12,0,0,0-2.9711,1.5456c-2.5535,1.31-5.0383,2.7487-7.5031,4.2174-3.9462,2.3516-7.8508,4.7724-11.9,6.9372a1.1781,1.1781,0,0,0-.4118.038,13.9582,13.9582,0,0,0-3.6564,1.6507c-.9833.2591-1.7074,1.39-.7915,2.2827l.07.0677a1.5463,1.5463,0,0,0,.2887.2786q17.5156,17.0466,36.3191,32.6918a1.5032,1.5032,0,0,0,2.3609-1.2559c-1.6544-16.3774-4.138-33.67-7.0786-49.8663C209.1009,54.2353,208.4149,54.9916,207.6807,55.26Z" fill="#ffd40c"/><path d="M308.4109,60.7675c-.2051-1.0441-1.2368-1.6764-2.039-2.3173-.0871-.07-.1758-.137-.2633-.206a26.1182,26.1182,0,0,0-2.4143-2.3212c-2.0575-2.0008-4.2148-3.8955-6.3944-5.7615-3.4895-2.9875-7.0313-5.9135-10.3768-9.0586a1.1774,1.1774,0,0,0-.1677-.378,13.96,13.96,0,0,0-2.7328-2.937,1.3472,1.3472,0,0,0-2.4159-.02l-.0418.0882a1.5512,1.5512,0,0,0-.1717.3626Q270.84,60.2637,262.025,83.0814a1.5032,1.5032,0,0,0,1.9447,1.8357q22.4843-10.2035,44.11-22.1608A1.2459,1.2459,0,0,0,308.4109,60.7675Z" fill="#ff97ac"/><path d="M422.4923,56.7953c-1.0548-.1394-1.9837.6361-2.8474,1.1914-.0938.06-.186.1228-.2794.1836a26.1256,26.1256,0,0,0-2.971,1.5457c-2.5535,1.31-5.0384,2.7486-7.5032,4.2174-3.9462,2.3515-7.8508,4.7724-11.9,6.9371a1.1775,1.1775,0,0,0-.4117.038,13.9639,13.9639,0,0,0-3.6565,1.6508c-.9833.2591-1.7074,1.39-.7914,2.2826l.07.0678a1.55,1.55,0,0,0,.2887.2786Q410.006,92.2347,428.8094,107.88a1.5033,1.5033,0,0,0,2.361-1.256c-1.6545-16.3773-4.1381-33.67-7.0786-49.8663C423.9126,55.7709,423.2266,56.5273,422.4923,56.7953Z" fill="#ffd40c"/><path d="M449.82,26.6454c-1.0388.23-1.6459,1.2771-2.2671,2.0946-.0675.0888-.1327.1791-.2.2683a26.115,26.115,0,0,0-2.2618,2.47c-1.95,2.1055-3.792,4.3082-5.6045,6.5324-2.902,3.5611-5.7411,7.1729-8.804,10.5938a1.1787,1.1787,0,0,0-.3738.1768,13.9625,13.9625,0,0,0-2.87,2.8034A1.3472,1.3472,0,0,0,427.4777,54l.0891.04a1.55,1.55,0,0,0,.3667.1628q22.2953,10.0152,45.32,18.2729a1.5033,1.5033,0,0,0,1.7879-1.9887c-7.1644-14.82-15.4215-30.2159-23.732-44.4246C450.8033,25.1965,450.4179,26.1421,449.82,26.6454Z" fill="#ff5122"/><path d="M346.3206,76.5124c-.5681-.9-1.7584-1.1172-2.7378-1.4254-.1064-.0335-.2135-.0643-.32-.0971a26.1325,26.1325,0,0,0-3.0891-1.2936c-2.6409-1.1235-5.3366-2.112-8.0427-3.0658-4.3325-1.527-8.6915-2.9778-12.9465-4.7037a1.1791,1.1791,0,0,0-.2928-.292,13.9585,13.9585,0,0,0-3.6086-1.753c-.8284-.59-2.1607-.4223-2.26.8529l-.0072.0972a1.5533,1.5533,0,0,0-.0293.4q-1.8873,24.3686-1.8739,48.8295a1.5032,1.5032,0,0,0,2.4761,1.01q17.2872-17.6295,33.141-36.585A1.246,1.246,0,0,0,346.3206,76.5124Z" fill="#02b26a"/><path d="M386.6109,73.9129c-.9262-.5237-2.0777-.1518-3.0864.04-.1095.0208-.2184.0443-.3278.0658a26.1281,26.1281,0,0,0-3.3334.3227c-2.8582.26-5.7007.6654-8.5359,1.1061-4.5392.7055-9.0657,1.4908-13.6308,1.9844a1.1816,1.1816,0,0,0-.3961-.1187,13.9643,13.9643,0,0,0-4.0085.1639c-1.0088-.1274-2.1032.6507-1.5875,1.8211l.04.0891a1.5486,1.5486,0,0,0,.1636.3663q9.8715,22.3593,21.4612,43.9a1.5032,1.5032,0,0,0,2.6593-.282q6.8838-23.7121,11.8772-47.9137A1.2459,1.2459,0,0,0,386.6109,73.9129Z" fill="#7e29f3"/><path d="M235.0082,25.11c-1.0387.23-1.6458,1.2772-2.267,2.0947-.0675.0887-.1327.1791-.2.2683a26.1148,26.1148,0,0,0-2.2618,2.47c-1.95,2.1056-3.792,4.3083-5.6046,6.5325-2.9019,3.561-5.741,7.1729-8.8039,10.5938a1.18,1.18,0,0,0-.3738.1767,13.96,13.96,0,0,0-2.87,2.8035,1.3471,1.3471,0,0,0,.0384,2.4156l.0891.04a1.5472,1.5472,0,0,0,.3666.1629q22.2952,10.0152,45.32,18.2729a1.5032,1.5032,0,0,0,1.7879-1.9887c-7.1643-14.82-15.4214-30.2159-23.7319-44.4246C235.9916,23.6608,235.6062,24.6064,235.0082,25.11Z" fill="#ff5122"/><path d="M131.509,74.9767c-.5681-.9-1.7585-1.1171-2.7379-1.4253-.1063-.0335-.2134-.0643-.32-.0972a26.1244,26.1244,0,0,0-3.0892-1.2935c-2.6409-1.1235-5.3366-2.1121-8.0426-3.0659-4.3325-1.527-8.6916-2.9777-12.9466-4.7036a1.1774,1.1774,0,0,0-.2927-.2921,13.9629,13.9629,0,0,0-3.6086-1.7529c-.8284-.59-2.1607-.4223-2.26.8528l-.0072.0973a1.5489,1.5489,0,0,0-.0293.4q-1.8873,24.3684-1.8739,48.8295a1.5032,1.5032,0,0,0,2.4761,1.01q17.2872-17.63,33.141-36.585A1.246,1.246,0,0,0,131.509,74.9767Z" fill="#02b26a"/><path d="M65.1155,30.5029c.1224-1.0569-.6678-1.9733-1.2369-2.828-.0618-.0928-.1258-.184-.1881-.2764a26.1352,26.1352,0,0,0-1.5931-2.9459c-1.3509-2.5321-2.8291-4.9936-4.3372-7.4345-2.4145-3.908-4.8977-7.7732-7.1271-11.7874a1.1775,1.1775,0,0,0-.0446-.4111A13.9617,13.9617,0,0,0,48.8794,1.19c-.2749-.979-1.4172-1.6849-2.2951-.7548l-.0666.0712A1.5464,1.5464,0,0,0,46.2438.8Q29.48,18.5864,14.1385,37.6383a1.22,1.22,0,0,0-.0676,1.5652,1.2194,1.2194,0,0,0,1.3613.7753q24.523-2.8752,48.7624-7.6822A1.2461,1.2461,0,0,0,65.1155,30.5029Z" fill="#ff5122"/><path d="M171.7993,72.3772c-.9263-.5236-2.0778-.1517-3.0864.04-.1095.0208-.2184.0444-.3278.0659a26.1316,26.1316,0,0,0-3.3335.3227c-2.8581.26-5.7006.6654-8.5358,1.1061-4.5392.7055-9.0657,1.4907-13.6308,1.9844a1.1777,1.1777,0,0,0-.3961-.1187,13.9607,13.9607,0,0,0-4.0085.1638c-1.0089-.1273-2.1033.6507-1.5876,1.8212l.04.0891a1.5445,1.5445,0,0,0,.1636.3663q9.8713,22.3593,21.4612,43.9a1.5032,1.5032,0,0,0,2.6593-.2821q6.8836-23.712,11.8772-47.9137A1.246,1.246,0,0,0,171.7993,72.3772Z" fill="#7e29f3"/><path d="M254.3643-15.8355c-15.278,40.7037-43.705,71.5345-76.5306,83.6932-33.1759,12.2886-68.3345,3.0219-95.9677-22.82C65.9471,30.1513,53.1422,10.207,44.6784-13.1524c-1.0626-2.9326-4.4548-.4753-3.3918,2.4585C56.5276,31.37,86.022,62.6531,120.1378,73.962c34.15,11.32,70.643.2507,99.358-27.5572,16.0631-15.5557,29.2149-35.927,38.0834-59.5545C258.68-16.0831,255.4739-18.7914,254.3643-15.8355Z"/><path d="M467.5-12.0869c-16.4637,40.2388-45.7814,70.2237-78.9491,81.4158-33.5215,11.3117-68.3937,1.0192-95.2582-25.6206-15.476-15.3467-27.6912-35.6575-35.4673-59.2547-.9762-2.9625-4.4389-.6056-3.4623,2.358,14.0024,42.4921,42.5679,74.6258,76.3379,86.9292,33.8036,12.3155,70.6053,2.32,100.1224-24.6354C447.3354,34.0269,461.0783,14.05,470.635-9.308,471.8215-12.208,468.6958-15.009,467.5-12.0869Z"/><path d="M680.6862-14.3c-15.278,40.7037-43.7049,71.5344-76.53,83.6932-33.1759,12.2886-68.3346,3.0219-95.9678-22.82C492.269,31.687,479.4641,11.7426,471-11.6167c-1.0625-2.9326-4.4548-.4754-3.3918,2.4584,15.241,42.0638,44.7354,73.347,78.8513,84.656,34.15,11.32,70.6429.2507,99.3579-27.5572,16.0631-15.5557,29.2149-35.9271,38.0834-59.5545C685.0021-14.5475,681.7958-17.2558,680.6862-14.3Z"/></svg>