<?xml version="1.0" encoding="UTF-8"?>
<svg width="310px" height="256px" viewBox="0 0 310 256" version="1.1" xmlns="http://www.w3.org/2000/svg" xmlns:xlink="http://www.w3.org/1999/xlink">
    <!-- Generator: Sketch 63.1 (92452) - https://sketch.com -->
    <title>Fill 1</title>
    <desc>Created with Sketch.</desc>
    <g id="Site" stroke="none" stroke-width="1" fill="none" fill-rule="evenodd">
        <g id="Home-–-1440px-" transform="translate(0.000000, -875.000000)" fill="#FFFFFF">
            <g id="Home-/-Illustrations" transform="translate(-252.000000, 837.000000)">
                <g id="Clouds" transform="translate(164.000000, 38.000000)">
                    <path d="M118.580883,179.69342 C105.660888,191.429466 89.2272091,198.471411 71.6110244,198.471411 C31.6860435,198.471411 0,165.610325 0,126.874053 C0,91.6655189 25.824463,62.3162527 59.8735349,56.4426589 C77.4889236,-2.25348575 156.145626,-11.6408895 187.843614,40.0121157 C219.544786,-23.3797205 314.647506,-8.11474347 322.858574,62.3186404 C362.783551,59.9714313 398,92.8326768 398,133.915999 C398,176.181202 360.421725,209.043084 318.161986,204.347393 C309.937385,234.861429 281.765421,256 250.065443,256 C221.893478,256 198.402976,240.735421 186.661506,218.428896 C158.489542,219.6103 131.484559,204.345403 118.564963,179.691828 L118.580883,179.69342 Z" id="Fill-1"></path>
                </g>
            </g>
        </g>
    </g>
</svg>