<?xml version="1.0" encoding="UTF-8"?>
<svg width="280px" height="256px" viewBox="0 0 280 256" version="1.1" xmlns="http://www.w3.org/2000/svg" xmlns:xlink="http://www.w3.org/1999/xlink">
    <!-- Generator: Sketch 63.1 (92452) - https://sketch.com -->
    <title>Fill 1</title>
    <desc>Created with Sketch.</desc>
    <g id="Site" stroke="none" stroke-width="1" fill="none" fill-rule="evenodd">
        <g id="Home-–-1440px-" transform="translate(-1160.000000, -2155.000000)" fill="#FFFFFF">
            <g id="Home-/-Illustrations" transform="translate(-298.000000, 837.000000)">
                <g id="Clouds" transform="translate(210.000000, 38.000000)">
                    <path d="M1366.58088,1459.69342 C1353.66089,1471.42947 1337.22721,1478.47141 1319.61102,1478.47141 C1279.68604,1478.47141 1248,1445.61032 1248,1406.87405 C1248,1371.66552 1273.82446,1342.31625 1307.87353,1336.44266 C1325.48892,1277.74651 1404.14563,1268.35911 1435.84361,1320.01212 C1467.54479,1256.62028 1562.64751,1271.88526 1570.85857,1342.31864 C1610.78355,1339.97143 1646,1372.83268 1646,1413.916 C1646,1456.1812 1608.42172,1489.04308 1566.16199,1484.34739 C1557.93739,1514.86143 1529.76542,1536 1498.06544,1536 C1469.89348,1536 1446.40298,1520.73542 1434.66151,1498.4289 C1406.48954,1499.6103 1379.48456,1484.3454 1366.56496,1459.69183 L1366.58088,1459.69342 Z" id="Fill-1"></path>
                </g>
            </g>
        </g>
    </g>
</svg>