<?xml version="1.0" encoding="UTF-8"?>
<svg width="423px" height="617px" viewBox="0 0 423 617" version="1.1" xmlns="http://www.w3.org/2000/svg" xmlns:xlink="http://www.w3.org/1999/xlink">
    <!-- Generator: Sketch 63.1 (92452) - https://sketch.com -->
    <title>Group 31</title>
    <desc>Created with Sketch.</desc>
    <defs>
        <polygon id="path-1" points="0.925145721 0.828930748 353.499 0.828930748 353.499 435.999955 0.925145721 435.999955"></polygon>
        <polygon id="path-3" points="5.75857115e-05 0.720547061 460.499 0.720547061 460.499 206.598653 5.75857115e-05 206.598653"></polygon>
    </defs>
    <g id="Site" stroke="none" stroke-width="1" fill="none" fill-rule="evenodd">
        <g id="Home-–-1440px-" transform="translate(-1017.000000, -3236.000000)">
            <g id="Group-31" transform="translate(1017.000000, 3235.000000)">
                <g id="Group-3" transform="translate(107.000000, 183.280000)">
                    <mask id="mask-2" fill="white">
                        <use xlink:href="#path-1"></use>
                    </mask>
                    <g id="Clip-2"></g>
                    <path d="M242.4406,352.1019 C242.3806,347.1989 243.2506,342.2499 245.2476,337.4309 C249.9106,326.1779 260.5256,316.5049 273.4546,318.8759 C287.6856,321.4849 290.8166,335.3119 281.8436,345.6899 C272.0626,357.0029 255.9266,356.0079 242.4406,352.1019 M169.5866,112.5739 C176.4206,113.6789 185.4736,118.3189 186.0746,126.1509 C186.7476,134.9149 177.2596,142.6119 170.8136,146.9739 C155.2696,157.4929 137.6676,158.5739 126.2226,143.1099 C133.8036,124.5379 148.2336,109.1199 169.5866,112.5739 M176.3306,243.3299 C182.5066,230.8259 196.9186,220.9139 211.2996,224.3609 C231.1386,229.1159 216.0886,248.9009 204.5506,253.6809 C194.2966,257.9299 183.0986,256.9919 172.7576,253.3829 C173.5736,249.9249 174.7386,246.5509 176.3306,243.3299 M341.2866,410.6809 C310.3686,409.6849 273.5286,405.8599 252.9946,379.7889 C262.8446,380.6149 272.7256,379.5639 282.0976,375.7559 C301.3826,367.9199 316.2066,346.5439 311.9136,325.2759 C306.9136,300.4989 278.4716,287.9159 255.4846,295.3699 C235.1336,301.9669 221.7676,320.7349 218.0606,341.2049 C197.9316,328.9699 181.2786,309.9629 174.5446,287.5739 C173.7656,284.9819 173.1096,282.3209 172.5916,279.6219 C184.2616,282.4349 196.4276,282.6769 208.0986,279.1639 C229.5646,272.6999 249.1526,252.9979 246.1376,229.1119 C243.0886,204.9599 216.6326,195.5049 195.3046,199.5349 C173.7296,203.6109 157.2446,220.3129 150.2376,240.5449 C131.2066,224.7629 120.2486,199.5189 119.9236,175.0489 C119.9106,174.0199 119.9306,172.9639 119.9656,171.8969 C140.2066,185.7059 165.3206,181.6259 185.1916,167.7679 C203.8546,154.7519 219.5626,131.5599 206.4726,109.0089 C194.4626,88.3169 167.2006,82.8999 145.7736,90.1779 C133.7506,94.2609 123.8486,101.7509 116.0376,111.1489 C115.2986,100.9139 115.9716,90.4359 116.5746,80.9819 C116.9096,75.7249 117.4166,70.4939 118.0636,65.2879 C143.1806,81.5519 185.0196,78.9939 213.3916,58.8999 C213.7536,58.6439 214.0196,58.3799 214.2456,58.1149 C215.4486,56.9949 215.8366,55.5039 214.3346,54.3419 C190.9226,36.2489 149.1466,37.0669 119.4336,55.6689 C121.5566,42.4259 124.6146,29.3479 128.4546,16.4349 C133.1076,0.7899 108.6866,-5.8951 104.0466,9.7069 C99.7906,24.0209 96.4826,38.6369 94.2196,53.4119 C68.2366,30.6479 28.0796,22.9049 2.2256,36.3419 C0.5406,37.2179 0.6576,38.7529 1.6426,40.0699 C1.8176,40.3719 2.0326,40.6779 2.3426,40.9939 C25.9966,65.1019 65.1246,75.2269 92.6496,65.2079 C91.3946,76.1809 90.7166,87.2179 90.6776,98.2649 C90.6206,114.0509 92.3446,130.5839 98.5146,145.0069 C86.4726,186.8199 102.5596,235.4009 136.7886,262.0499 C139.6936,264.3129 142.7736,266.4209 145.9656,268.3839 C146.5356,308.3829 174.3666,345.4989 208.6926,364.9419 C212.2626,366.9639 216.0046,368.8639 219.8536,370.6099 C225.3006,388.0889 238.0726,403.1739 252.9946,413.6819 C278.5176,431.6539 310.9736,435.0159 341.2866,435.9919 C357.5796,436.5169 357.5606,411.2049 341.2866,410.6809" id="Fill-1" fill="#00310F" mask="url(#mask-2)"></path>
                </g>
                <g id="Group-6" transform="translate(0.000000, 0.280000)">
                    <mask id="mask-4" fill="white">
                        <use xlink:href="#path-3"></use>
                    </mask>
                    <g id="Clip-5"></g>
                    <path d="M460.423,100.7596 C458.603,83.6006 450.232,69.6606 434.752,61.3216 C420.012,53.3806 404.261,52.6626 387.902,52.1076 C382.622,51.9286 376.378,52.1396 371.573,49.5686 C364.419,45.7386 359.46,37.5866 352.438,33.1366 C337.315,23.5576 319.889,24.4556 302.773,23.9556 C289.072,23.5546 279.509,15.7156 267.622,9.7366 C255.553,3.6656 243.139,0.3796 230.25,0.7486 C217.36,0.3796 204.946,3.6656 192.877,9.7366 C180.99,15.7156 171.426,23.5546 157.727,23.9556 C140.61,24.4556 123.184,23.5576 108.062,33.1366 C101.039,37.5866 96.08,45.7386 88.926,49.5686 C84.121,52.1396 77.877,51.9286 72.598,52.1076 C56.238,52.6626 40.488,53.3806 25.747,61.3216 C10.268,69.6606 1.896,83.6006 0.076,100.7596 C-0.028,101.7406 -0.014,102.7046 0.051,103.6586 C-0.014,104.6136 -0.028,105.5776 0.076,106.5586 C1.896,123.7176 10.268,137.6576 25.747,145.9966 C40.488,153.9386 56.238,154.6556 72.598,155.2106 C77.877,155.3896 84.121,155.1786 88.926,157.7506 C96.08,161.5796 101.039,169.7326 108.062,174.1816 C123.184,183.7616 140.61,182.8626 157.727,183.3636 C171.426,183.7636 180.99,191.6036 192.877,197.5826 C204.946,203.6536 217.36,206.9396 230.25,206.5706 C243.139,206.9396 255.553,203.6536 267.622,197.5826 C279.509,191.6036 289.072,183.7636 302.773,183.3636 C319.889,182.8626 337.315,183.7616 352.438,174.1816 C359.46,169.7326 364.419,161.5796 371.573,157.7506 C376.378,155.1786 382.622,155.3896 387.902,155.2106 C404.261,154.6556 420.012,153.9386 434.752,145.9966 C450.232,137.6576 458.603,123.7176 460.423,106.5586 C460.527,105.5776 460.514,104.6136 460.448,103.6586 C460.514,102.7046 460.527,101.7406 460.423,100.7596" id="Fill-4" fill="#FFFFFF" mask="url(#mask-4)"></path>
                </g>
                <path d="M256.4836,50.6353 C246.3476,42.1163 234.4836,39.2343 223.5476,40.8813 C219.5046,41.1773 215.5546,41.9733 211.5816,43.5393 C211.0966,43.7303 210.6316,43.9643 210.1766,44.2163 C209.8846,44.3523 209.5866,44.4733 209.2986,44.6203 C209.2686,44.6343 209.2386,44.6473 209.2086,44.6613 C208.9776,44.7713 208.7486,44.8813 208.5196,44.9953 C207.2566,45.6123 206.0136,46.2903 204.8146,47.1033 C204.6736,47.1983 204.5466,47.3103 204.4116,47.4113 C203.6286,47.9483 202.8646,48.5103 202.1336,49.1093 C201.7836,49.3953 201.4516,49.7013 201.1296,50.0203 C188.3736,60.6383 179.5746,83.3863 177.9626,95.0243 C174.4196,120.5963 184.1896,149.0773 207.5926,162.1843 C235.2966,177.7003 263.4696,159.5043 273.6866,132.4313 C283.5136,106.3893 278.7496,69.3493 256.4836,50.6353" id="Fill-7" fill="#B10100"></path>
                <path d="M217.6257,93.9615 C212.9827,91.4925 207.9867,91.9175 203.1677,93.6405 C201.0597,94.3945 199.5397,96.2955 200.1007,98.6435 C200.5787,100.6415 202.9817,102.4685 205.1027,101.7095 C207.6817,100.7875 210.8037,99.7055 213.2007,100.9805 C215.1777,102.0315 217.6657,101.6755 218.9227,99.6835 C220.0507,97.8955 219.6117,95.0175 217.6257,93.9615" id="Fill-9" fill="#FFFFFF"></path>
                <path d="M219.6613,96.4878 C219.4883,95.7788 219.1533,95.1568 218.6563,94.6228 C218.3843,94.3978 218.1123,94.1718 217.8393,93.9458 C217.2053,93.5498 216.5143,93.3378 215.7653,93.3098 L215.6633,93.3068 C215.0933,93.2658 214.5573,93.3668 214.0543,93.6098 C213.5353,93.7598 213.0803,94.0308 212.6913,94.4228 C212.2743,94.7838 211.9743,95.2188 211.7893,95.7278 C211.5133,96.2128 211.3763,96.7408 211.379252,97.3128 C211.4153,97.6818 211.4533,98.0508 211.4903,98.4198 C211.6633,99.1288 211.9983,99.7508 212.4943,100.2848 C212.7673,100.5098 213.0393,100.7358 213.3113,100.9618 C213.9463,101.3578 214.6373,101.5708 215.3853,101.5978 L215.4873,101.6008 C216.0573,101.6418 216.5943,101.5408 217.0973,101.2978 C217.6163,101.1478 218.0703,100.8768 218.4593,100.4858 C218.8763,100.1238 219.1773,99.6888 219.3613,99.1798 C219.6383,98.6948 219.7743,98.1668 219.772322,97.5948 C219.7353,97.2258 219.6983,96.8568 219.6613,96.4878" id="Fill-11" fill="#000000"></path>
                <path d="M220.0143,93.6109 C216.1183,91.6429 211.7563,90.8799 207.5143,91.3319 C205.6773,91.3379 203.8603,91.2159 202.0273,90.9739 C200.8753,90.8219 198.8403,90.3649 197.7843,91.1209 C196.5763,91.9859 197.5333,93.3959 198.5183,94.3519 C198.4543,94.3899 198.3903,94.4259 198.3273,94.4649 C197.0943,95.2299 198.1603,97.2299 199.4043,96.4589 C205.2293,92.8509 212.6633,92.4249 218.8063,95.5279 C220.0983,96.1809 221.3153,94.2679 220.0143,93.6109" id="Fill-13" fill="#000000"></path>
                <path d="M235.5505,85.9243 C238.0645,85.7743 240.5785,85.6083 243.0925,85.4603 C252.8835,84.8823 262.8585,84.6223 272.4805,86.7053 C272.4855,86.6103 272.4845,86.5113 272.4765,86.4073 C272.3775,85.0283 271.1175,84.2743 269.8955,84.0023 C269.1775,83.8433 268.4415,83.8173 267.7795,83.4703 C267.1005,83.1153 266.4925,82.6703 265.7145,82.5563 C264.4255,82.3673 263.2885,83.0203 262.0275,83.0433 C260.6905,83.0673 259.8895,81.6023 258.7665,81.0603 C256.5435,79.9883 254.3885,81.4383 252.2035,81.8033 C251.5985,81.9043 250.9945,81.9023 250.4315,81.6383 C249.7105,81.3003 249.1305,80.7533 248.3695,80.4863 C247.5855,80.2103 246.7585,80.2023 245.9465,80.3593 C245.1575,80.5123 244.2755,81.0853 243.4715,81.0473 C243.0255,81.0253 242.8495,80.7283 242.5545,80.4403 C242.2805,80.1723 241.9665,79.9583 241.6115,79.8113 C240.9405,79.5323 240.1775,79.4843 239.4815,79.7013 C238.6295,79.9683 237.9805,80.6313 237.6545,81.4293 C237.3325,81.4033 237.0085,81.4673 236.7235,81.6223 C235.5295,81.9483 234.5545,82.8393 234.6535,84.2733 C234.6995,84.9623 235.0485,85.5003 235.5505,85.9243" id="Fill-15" fill="#000000"></path>
                <path d="M220.8561,85.9243 C218.3411,85.7743 215.8281,85.6083 213.3141,85.4603 C203.5231,84.8823 193.5481,84.6223 183.9251,86.7053 C183.9211,86.6103 183.9221,86.5113 183.9301,86.4073 C184.0291,85.0283 185.2891,84.2743 186.5111,84.0023 C187.2281,83.8433 187.9651,83.8173 188.6271,83.4703 C189.3051,83.1153 189.9141,82.6703 190.6921,82.5563 C191.9811,82.3673 193.1181,83.0203 194.3781,83.0433 C195.7161,83.0673 196.5161,81.6023 197.6401,81.0603 C199.8631,79.9883 202.0181,81.4383 204.2021,81.8033 C204.8081,81.9043 205.4111,81.9023 205.9751,81.6383 C206.6951,81.3003 207.2761,80.7533 208.0371,80.4863 C208.8211,80.2103 209.6481,80.2023 210.4601,80.3593 C211.2491,80.5123 212.1311,81.0853 212.9351,81.0473 C213.3801,81.0253 213.5571,80.7283 213.8511,80.4403 C214.1261,80.1723 214.4401,79.9583 214.7951,79.8113 C215.4661,79.5323 216.2291,79.4843 216.9251,79.7013 C217.7771,79.9683 218.4261,80.6313 218.7521,81.4293 C219.0741,81.4033 219.3981,81.4673 219.6831,81.6223 C220.8771,81.9483 221.8511,82.8393 221.7531,84.2733 C221.7071,84.9623 221.3581,85.5003 220.8561,85.9243" id="Fill-17" fill="#000000"></path>
                <path d="M256.3937,94.3028 C251.7507,91.8338 246.7537,92.2588 241.9357,93.9818 C239.8277,94.7358 238.3077,96.6358 238.8687,98.9838 C239.3467,100.9828 241.7497,102.8098 243.8707,102.0508 C246.4497,101.1288 249.5717,100.0468 251.9687,101.3218 C253.9457,102.3718 256.4337,102.0158 257.6907,100.0248 C258.8187,98.2358 258.3797,95.3588 256.3937,94.3028" id="Fill-19" fill="#FFFFFF"></path>
                <path d="M258.4294,96.8291 C258.2564,96.1201 257.9214,95.4981 257.4244,94.9641 C257.1524,94.7381 256.8794,94.5131 256.6074,94.2871 C255.9734,93.8911 255.2824,93.6791 254.5334,93.6511 L254.4314,93.6471 C253.8614,93.6071 253.3254,93.7081 252.8224,93.9511 C252.3034,94.1011 251.8484,94.3711 251.4594,94.7641 C251.0424,95.1251 250.7424,95.5601 250.5574,96.0691 C250.2814,96.5541 250.1444,97.0821 250.146378,97.6541 C250.1834,98.0231 250.2214,98.3921 250.2584,98.7611 C250.4314,99.4701 250.7664,100.0911 251.2624,100.6261 C251.5344,100.8511 251.8074,101.0771 252.0794,101.3021 C252.7144,101.6991 253.4054,101.9111 254.1534,101.9381 L254.2554,101.9421 C254.8254,101.9831 255.3624,101.8821 255.8654,101.6391 C256.3844,101.4891 256.8384,101.2181 257.2274,100.8271 C257.6444,100.4641 257.9454,100.0291 258.1294,99.5211 C258.4064,99.0361 258.5424,98.5071 258.540422,97.9361 C258.5034,97.5671 258.4664,97.1981 258.4294,96.8291" id="Fill-21" fill="#000000"></path>
                <path d="M239.4416,95.8687 C245.5836,92.7667 253.0176,93.1917 258.8426,96.7997 C260.0876,97.5707 261.1536,95.5707 259.9196,94.8067 C259.8566,94.7667 259.7926,94.7307 259.7296,94.6927 C260.7136,93.7367 261.6706,92.3267 260.4626,91.4617 C259.4076,90.7057 257.3716,91.1627 256.2196,91.3147 C254.3866,91.5577 252.5696,91.6797 250.7326,91.6727 C246.4906,91.2207 242.1296,91.9837 238.2336,93.9517 C236.9316,94.6097 238.1486,96.5217 239.4416,95.8687" id="Fill-23" fill="#000000"></path>
                <path d="M248.6071,131.4175 C247.6811,131.6805 246.7141,131.7835 245.7441,131.7345 C244.2571,131.8175 242.8101,131.4275 241.4021,130.1755 C239.9881,128.9185 238.8001,127.4005 237.0021,126.6615 C233.8211,125.3545 230.7511,126.9375 229.0881,129.5715 C227.3471,126.9895 224.2301,125.5005 221.0901,126.9045 C219.3151,127.6985 218.1741,129.2515 216.7991,130.5525 C215.4301,131.8465 213.9951,132.2805 212.5071,132.2435 C211.5391,132.3215 210.5691,132.2485 209.6361,132.0135 C209.6331,132.0595 209.6341,132.1045 209.6301,132.1495 C209.6321,132.1515 209.6351,132.1525 209.6371,132.1545 C209.6261,132.2905 209.6401,132.4385 209.6911,132.5965 C212.7421,142.1075 219.1951,150.8465 228.8441,150.8595 C229.0391,150.8595 229.2251,150.8455 229.4151,150.8385 C229.6051,150.8395 229.7911,150.8485 229.9841,150.8425 C239.6281,150.5335 245.8121,141.6025 248.5691,132.0005 C248.6151,131.8415 248.6251,131.6935 248.6101,131.5585 C248.6121,131.5565 248.6151,131.5545 248.6171,131.5535 C248.6121,131.5075 248.6111,131.4625 248.6071,131.4175" id="Fill-25" fill="#FF5018"></path>
                <path d="M229.8478,40.0118 C229.7538,40.0038 229.6828,39.9618 229.5818,39.9646469 C229.4918,39.9668 229.4018,39.9778 229.3108,39.9838 C229.3058,39.9838 229.3028,39.9808 229.2968,39.9798 C228.6308,39.9598 227.9678,40.0098 227.3058,40.0668 C227.1198,40.0758 226.9328,40.0678 226.7468,40.0828 C226.6438,39.9898 225.5588,40.1318 224.6808,40.2648 C223.4308,40.3608 222.1788,40.5028 220.9148,40.7468 C220.8928,40.7508 220.8828,40.7648 220.8608,40.7698 C183.0338,45.9198 168.6538,83.6338 175.6358,114.1958 C175.9378,115.5178 177.4748,115.9568 178.5858,115.6398 C179.1358,115.6108 179.6948,115.4778 180.2478,115.2968 C181.1388,115.0398 182.0088,114.6718 182.8308,114.2108 C185.1528,113.3218 186.8958,111.9728 188.0528,109.4598 C188.7808,107.8768 188.2248,106.0018 188.8258,104.4328 C190.8188,99.2328 193.6328,98.8818 197.6488,96.5378 C201.2038,94.4638 203.6488,92.4328 205.2848,88.9708 C207.7728,83.7058 206.0158,77.7158 209.6838,73.0058 C213.0968,68.6238 219.5178,66.8928 223.6128,62.8358 C225.0558,61.4058 226.3118,59.8438 227.3978,58.1958 C228.3428,59.4138 229.3588,60.5908 230.5148,61.6678 C234.7308,65.5968 241.2028,67.1308 244.7478,71.4058 C248.5578,76.0018 246.9848,82.0428 249.6328,87.2298 C251.3738,90.6398 253.8808,92.5948 257.4968,94.5598 C261.5828,96.7798 264.4068,97.0438 266.5578,102.1798 C267.2058,103.7308 266.7078,105.6218 267.4848,107.1808 C268.5438,109.3098 270.0108,110.5628 271.8898,111.3948 C272.0048,111.4548 272.1318,111.4928 272.2498,111.5488 C272.2518,111.5498 272.2538,111.5508 272.2558,111.5508 C272.2678,111.5568 272.2798,111.5608 272.2908,111.5668 C272.8018,111.8598 273.3318,112.1078 273.8848,112.3108 C273.9048,112.3198 273.9188,112.3358 273.9408,112.3438 C275.1728,112.8038 276.3738,113.1458 277.7018,113.1658 C277.7248,113.1658 277.7398,113.1548 277.7618,113.1548 C278.7578,113.1538 279.8258,112.6268 280.0398,111.5358 C286.2388,80.1238 270.0348,43.7198 229.8478,40.0118" id="Fill-27" fill="#FF98AE"></path>
                <path d="M236.3268,114.4644 C236.1048,112.1994 234.1078,110.6834 232.7378,109.1344 C230.3658,106.4524 228.7898,103.2244 227.9518,99.7034 C227.8208,99.1494 226.9938,99.3834 227.1268,99.9394 C227.9978,103.6014 229.6608,106.9764 232.1318,109.7614 C233.7588,111.5954 236.1988,113.3574 235.1358,116.2204 C234.1098,118.9824 230.2278,119.6854 227.8478,119.0804 C227.3128,118.9444 227.0848,119.7994 227.6198,119.9364 C230.9208,120.7744 236.7678,118.9644 236.3268,114.4644" id="Fill-29" fill="#000000"></path>
            </g>
        </g>
    </g>
</svg>