<?xml version="1.0" encoding="UTF-8"?>
<svg width="205px" height="667px" viewBox="0 0 205 667" version="1.1" xmlns="http://www.w3.org/2000/svg" xmlns:xlink="http://www.w3.org/1999/xlink">
    <!-- Generator: Sketch 63.1 (92452) - https://sketch.com -->
    <title>Group 33</title>
    <desc>Created with Sketch.</desc>
    <defs>
        <polygon id="path-1" points="0.160329165 0.563222611 123.340541 0.563222611 123.340541 240 0.160329165 240"></polygon>
        <polygon id="path-3" points="0 0.608390643 219.626 0.608390643 219.626 144.84861 0 144.84861"></polygon>
    </defs>
    <g id="Site" stroke="none" stroke-width="1" fill="none" fill-rule="evenodd">
        <g id="About-–-1440px" transform="translate(-1235.000000, -1247.000000)">
            <g id="Group-33" transform="translate(1235.000000, 1247.000000)">
                <g id="Group-3" transform="translate(52.000000, 426.869000)">
                    <mask id="mask-2" fill="white">
                        <use xlink:href="#path-1"></use>
                    </mask>
                    <g id="Clip-2"></g>
                    <path d="M123.2985,230.1514 C123.4605,228.7724 122.9255,227.2414 121.4215,225.6974 C121.1805,225.4234 120.9135,225.1724 120.6275,224.9354 C106.9245,211.8124 89.2315,203.8004 71.0995,201.4234 C71.1525,200.9254 71.1845,200.4124 71.1765,199.8704 C70.2675,137.2564 69.3575,74.6434 68.4465,12.0314 C68.2365,-2.4396 45.6535,-3.6666 45.8655,10.9324 C46.7755,73.5464 47.6855,136.1594 48.5955,198.7724 C48.6085,199.6954 48.7155,200.5634 48.8995,201.3784 C31.1765,203.6974 14.4445,211.7744 2.1525,226.1954 C0.6445,227.9634 0.0795,229.9244 0.1705,231.8014 C-0.0205,235.7634 2.4785,239.8294 7.6775,239.9854 C7.7415,239.9894 7.8045,239.9904 7.8695,239.9924 C7.9425,239.9934 8.0095,240.000486 8.0835,240.000486 C43.8605,239.6504 79.6375,239.3014 115.4135,238.9524 C121.0815,238.8974 123.7115,234.3434 123.2985,230.1514" id="Fill-1" fill="#FFFBE3" mask="url(#mask-2)"></path>
                </g>
                <path d="M164.987,360.291 C161.805,387.614 157.93,415.664 150.377,441.79 C143.544,465.419 131.053,488.414 110.583,496.609 C90.112,488.414 77.622,465.419 70.79,441.79 C63.236,415.664 59.361,387.614 56.179,360.291 C50.789,314.005 49.226,267.253 48.394,220.543 C51.414,223.931 56.196,225.453 62.881,223.292 C63.734,223.017 64.603,222.684 65.478,222.309 C67.465,224.669 70.205,226.51 73.883,227.564 C74.297,227.683 74.706,227.759 75.115,227.838 C77.595,229.176 80.665,229.611 84.279,228.645 C85.207,228.397 86.104,228.061 86.984,227.682 C87.181,227.718 87.369,227.771 87.57,227.802 C89.874,228.154 92.071,228.131 94.155,227.826 C96.791,229.514 99.521,230.203 102.216,230.166 C103.071,233.011 105.355,235.352 108.36,236.306 C114.692,238.318 121.453,239.075 128.061,238.351 C132.57,237.857 136.488,234.978 136.9,230.291 C137.264,230.306 137.62,230.338 137.996,230.33 C142.873,230.215 147.66,227.981 151.57,224.629 C152.311,224.656 153.065,224.652 153.845,224.584 C154.492,224.528 155.114,224.433 155.725,224.319 C156.769,224.723 157.913,224.994 159.163,225.106 C162.865,225.438 165.699,224.44 167.821,222.614 C169.512,222.688 171.228,222.276 172.755,221.449 C171.919,267.857 170.341,314.304 164.987,360.291 M179.454,180.833 C136.66,158.843 83.781,157.928 41.676,181.258 C39.994,182.19 39.438,183.697 39.609,185.153 C39.599,185.323 39.572,185.479 39.5747688,185.659 C40.263,234.424 40.965,283.27 45.064,331.828 C47.049,355.332 49.802,378.767 53.718,401.92 C57.364,423.478 61.523,445.535 70.174,465.091 C78.402,483.693 91.285,499.316 108.017,506.086 C108.701,506.728 109.564,507.094 110.583,506.973 C111.602,507.094 112.466,506.728 113.148,506.086 C129.881,499.316 142.764,483.693 150.993,465.091 C159.643,445.535 163.801,423.478 167.448,401.92 C171.364,378.767 174.118,355.332 176.102,331.828 C180.202,283.27 180.739,232.855 181.426,184.09 C181.427,184.067 181.422,184.049 181.422,184.025 C181.622,182.888 181.103,181.68 179.454,180.833" id="Fill-4" fill="#FFFBE3"></path>
                <path d="M106.2594,3.1528 C105.4774,121.4458 105.5414,239.7468 106.4524,358.0428 C106.4884,362.6508 113.6954,363.4068 113.6584,358.7428 C112.7474,240.4468 112.6844,122.1468 113.4664,3.8528 C113.4964,-0.7632 106.2904,-1.5142 106.2594,3.1528" id="Fill-6" fill="#000000"></path>
                <path d="M181.3366,217.1191 C181.3296,217.0781 181.3286,217.0311 181.3246,216.9871 C181.4686,215.7421 181.1146,214.4161 180.0066,213.2441 C175.9736,208.9821 172.4346,211.0331 167.7796,212.4191 C165.2606,213.1691 163.3376,212.5391 160.7546,212.8651 C158.1306,213.1951 156.9376,214.7481 154.7516,215.7631 C150.6426,217.6681 146.3866,216.0561 142.1486,217.2301 C139.1106,218.0721 136.7716,220.7591 133.8106,221.5061 C129.7896,222.5201 124.9966,220.2681 120.8146,220.8251 C114.8376,221.6211 113.6846,223.7341 106.9986,222.0431 C99.9496,220.2601 93.6436,223.2581 86.9216,220.2461 C84.1806,219.0181 81.8716,218.5151 78.8946,218.8561 C74.6396,219.3451 73.3596,219.5321 69.7026,217.0061 C67.4396,215.4431 65.1266,214.7901 62.3956,214.5651 C57.8196,214.1881 55.8266,213.0231 51.9126,211.2441 C47.4916,209.2341 42.6326,210.2981 40.2116,214.6251 C39.5136,215.8721 39.4346,217.0831 39.7326,218.1541 C39.6316,218.5491 39.5606,218.9681 39.5671244,219.4441 C40.2556,263.2591 40.9576,307.1481 45.0566,350.7761 C47.0416,371.8941 49.7946,392.9501 53.7116,413.7531 C57.3576,433.1231 61.5156,452.9411 70.1666,470.5131 C78.3946,487.2261 91.2776,501.2641 108.0106,507.3461 C108.6926,507.9221 109.5566,508.2511 110.5756,508.1421 C111.5956,508.2511 112.4576,507.9221 113.1416,507.3461 C129.8726,501.2641 142.7576,487.2261 150.9856,470.5131 C159.6366,452.9411 163.7946,433.1231 167.4406,413.7531 C171.3576,392.9501 174.1096,371.8941 176.0946,350.7761 C180.1846,307.2591 180.7296,262.0831 181.4146,218.3731 C181.5166,217.9531 181.4896,217.5281 181.3366,217.1191" id="Fill-8" fill="#397AFF"></path>
                <path d="M88.1916,336.0156 C89.2566,336.3006 90.3666,336.4016 91.4766,336.3286 C93.1806,336.3976 94.8326,335.9256 96.4226,334.4666 C98.0216,333.0016 99.3556,331.2426 101.4026,330.3636 C105.0666,328.7916 108.6606,330.6076 110.5946,333.6626 C110.6016,341.8196 110.7546,349.8336 111.2226,357.9116 C110.7776,357.9366 110.3276,357.9496 109.8646,357.9416 C98.8116,357.7566 91.5726,347.6336 88.2446,336.6836 C88.1896,336.5016 88.1756,336.3326 88.1906,336.1766 L88.1826,336.1706 C88.1876,336.1196 88.1886,336.0686 88.1916,336.0156" id="Fill-10" fill="#FF5018"></path>
                <path d="M132.8454,336.0156 C131.7804,336.3006 130.6704,336.4016 129.5604,336.3286 C127.8564,336.3976 126.2044,335.9256 124.6144,334.4666 C123.0154,333.0016 121.6824,331.2426 119.6344,330.3636 C115.9694,328.7916 112.3764,330.6076 110.4424,333.6626 C110.4364,341.8196 110.2834,349.8336 109.8144,357.9116 C110.2584,357.9366 110.7094,357.9496 111.1714,357.9416 C122.2254,357.7566 129.4644,347.6336 132.7924,336.6836 C132.8474,336.5016 132.8624,336.3326 132.8474,336.1766 C132.8494,336.1746 132.8524,336.1726 132.8544,336.1706 C132.8494,336.1196 132.8494,336.0686 132.8454,336.0156" id="Fill-12" fill="#FF5018"></path>
                <path d="M130.3239,298.7963 C138.3219,294.5443 146.9279,295.2753 155.2269,298.2433 C158.8569,299.5423 161.4749,302.8163 160.5089,306.8593 C159.6859,310.3013 155.5469,313.4473 151.8929,312.1413 C147.4519,310.5523 142.0739,308.6903 137.9459,310.8843 C134.5409,312.6953 130.2559,312.0823 128.0919,308.6513 C126.1479,305.5713 126.9039,300.6153 130.3239,298.7963" id="Fill-14" fill="#FFFFFF"></path>
                <path d="M126.819,303.1474 C127.117,301.9264 127.694,300.8554 128.549,299.9354 C129.018,299.5464 129.487,299.1584 129.957,298.7704 C131.048,298.0864 132.239,297.7214 133.528,297.6744 L133.704,297.6684 C134.685,297.5984 135.609,297.7724 136.475,298.1904 C137.371,298.4494 138.153,298.9154 138.823,299.5904 C139.541,300.2134 140.058,300.9624 140.377,301.8384 C140.852,302.6744 141.088,303.5844 141.08405,304.5684 C141.02,305.2044 140.956,305.8394 140.892,306.4754 C140.593,307.6964 140.017,308.7674 139.162,309.6874 C138.693,310.0764 138.223,310.4644 137.755,310.8524 C136.663,311.5354 135.472,311.9014 134.183,311.9484 L134.007,311.9544 C133.025,312.0244 132.101,311.8504 131.236,311.4314 C130.34,311.1734 129.558,310.7074 128.888,310.0324 C128.171,309.4094 127.652,308.6604 127.335,307.7844 C126.859,306.9484 126.624,306.0384 126.62795,305.0544 C126.691,304.4184 126.755,303.7834 126.819,303.1474" id="Fill-16" fill="#000000"></path>
                <path d="M128.2917,301.4936 C138.8707,296.1506 151.6757,296.8836 161.7077,303.0976 C163.8507,304.4246 165.6877,300.9796 163.5627,299.6636 C163.4537,299.5966 163.3437,299.5346 163.2337,299.4686 C164.9307,297.8216 166.5797,295.3926 164.4987,293.9026 C162.6797,292.6006 159.1747,293.3886 157.1897,293.6506 C154.0337,294.0686 150.9037,294.2776 147.7387,294.2676 C140.4337,293.4886 132.9217,294.8026 126.2107,298.1926 C123.9697,299.3246 126.0647,302.6186 128.2917,301.4936" id="Fill-18" fill="#000000"></path>
                <path d="M63.5524,299.3837 C71.5494,295.1317 80.1554,295.8627 88.4554,298.8307 C92.0854,300.1297 94.7034,303.4037 93.7374,307.4467 C92.9144,310.8887 88.7754,314.0357 85.1214,312.7287 C80.6804,311.1397 75.3024,309.2777 71.1744,311.4717 C67.7694,313.2827 63.4834,312.6697 61.3194,309.2387 C59.3764,306.1587 60.1324,301.2027 63.5524,299.3837" id="Fill-20" fill="#FFFFFF"></path>
                <path d="M60.047,303.7348 C60.345,302.5138 60.922,301.4428 61.777,300.5228 C62.246,300.1338 62.715,299.7458 63.185,299.3578 C64.276,298.6738 65.467,298.3088 66.755,298.2618 L66.932,298.2558 C67.914,298.1858 68.838,298.3598 69.704,298.7778 C70.598,299.0368 71.381,299.5028 72.051,300.1778 C72.769,300.8008 73.287,301.5498 73.605,302.4258 C74.08,303.2618 74.316,304.1718 74.31205,305.1558 C74.248,305.7918 74.184,306.4268 74.121,307.0628 C73.822,308.2838 73.245,309.3548 72.39,310.2748 C71.921,310.6638 71.452,311.0518 70.983,311.4398 C69.891,312.1228 68.7,312.4888 67.412,312.5358 L67.235,312.5418 C66.254,312.6118 65.33,312.4378 64.464,312.0188 C63.569,311.7608 62.787,311.2948 62.116,310.6198 C61.399,309.9968 60.88,309.2478 60.563,308.3718 C60.088,307.5358 59.852,306.6258 59.85595,305.6418 C59.92,305.0058 59.983,304.3708 60.047,303.7348" id="Fill-22" fill="#000000"></path>
                <path d="M94.8317,298.7797 C88.1207,295.3897 80.6097,294.0757 73.3037,294.8547 C70.1387,294.8647 67.0087,294.6557 63.8527,294.2377 C61.8687,293.9757 58.3627,293.1887 56.5437,294.4907 C54.4627,295.9797 56.1117,298.4087 57.8087,300.0557 C57.6987,300.1217 57.5877,300.1837 57.4797,300.2517 C55.3547,301.5677 57.1917,305.0117 59.3347,303.6847 C69.3667,297.4707 82.1717,296.7377 92.7497,302.0807 C94.9777,303.2057 97.0737,299.9117 94.8317,298.7797" id="Fill-24" fill="#000000"></path>
                <g id="Group-28" transform="translate(0.000000, 7.869000)">
                    <mask id="mask-4" fill="white">
                        <use xlink:href="#path-3"></use>
                    </mask>
                    <g id="Clip-27"></g>
                    <path d="M218.8688,112.3091 C183.2398,75.3731 147.6098,38.4381 111.9808,1.5021 C111.3278,0.8251 110.5548,0.5741 109.8058,0.6121 C109.0588,0.5741 108.2848,0.8251 107.6328,1.5021 C72.0698,38.3681 36.5078,75.2341 0.9458,112.1001 C0.7158,112.2971 0.5218,112.5281 0.3688,112.7861 C0.3488,112.8181 0.3338,112.8511 0.3148,112.8831 C0.2658,112.9751 0.2208,113.0671 0.1828,113.1631 C0.1358,113.2751 0.0968,113.3861 0.0688,113.4981 C0.0678,113.5001 0.0678,113.5021 0.0668,113.5051 C-0.3212,115.0651 1.0358,116.6331 2.6388,116.9081 C65.9538,154.5641 153.0978,153.7741 217.2138,116.8591 C219.1218,116.3721 220.5778,114.0801 218.8688,112.3091" id="Fill-26" fill="#FF680B" mask="url(#mask-4)"></path>
                </g>
                <path d="M169.6305,143.3173 C169.6275,143.0863 169.5815,142.8423 169.4585,142.5823 C148.6635,98.7133 129.2785,54.3903 111.3205,9.6533 C111.3195,9.6503 111.3175,9.6463 111.3175,9.6423 C111.3115,9.6293 111.3055,9.6153 111.2995,9.6013 C110.9065,8.6223 109.9505,8.2413 108.9995,8.2823 C108.0495,8.2413 107.0935,8.6223 106.6995,9.6013 C106.6945,9.6153 106.6895,9.6293 106.6835,9.6423 C106.6825,9.6463 106.6805,9.6503 106.6785,9.6533 C88.7205,54.3903 69.3365,98.7133 48.5415,142.5823 C48.4615,142.7503 48.4155,142.9113 48.3875,143.0683 C47.7925,143.9923 48.0945,145.2663 49.7845,145.6353 C88.6715,154.1483 130.1925,156.5803 168.4665,145.3293 C169.4875,145.0283 169.7875,144.2073 169.6305,143.3173" id="Fill-29" fill="#FEF6D6"></path>
                <path d="M81.6779,261.8466 C81.6899,261.8376 81.7009,261.8286 81.7129,261.8206 L81.7889,261.8376 C81.7519,261.8406 81.7149,261.8436 81.6779,261.8466 M90.6839,260.9836 L87.6819,260.3376 C84.4269,259.6366 81.1719,258.9356 77.9169,258.2356 L75.5439,241.9056 C75.3079,240.2866 75.0739,238.6696 74.8379,237.0516 C74.7909,236.7286 74.2569,236.7416 74.1979,237.0516 C73.0549,243.1036 72.0779,249.1866 71.2699,255.2926 C71.1419,256.2596 71.0189,257.2256 70.8999,258.1936 C70.8229,258.2106 70.7459,258.2266 70.6689,258.2426 C70.2329,258.3196 69.8029,258.4196 69.3719,258.5226 C69.2129,258.5566 69.0529,258.5916 68.8929,258.6256 C68.8349,258.6416 68.7759,258.6536 68.7159,258.6626 C68.6469,258.6826 68.5759,258.7006 68.5059,258.7146 C68.5009,258.7166 68.4959,258.7176 68.4909,258.7196 C68.4349,258.7306 68.3789,258.7426 68.3229,258.7546 C68.3099,258.7556 68.2979,258.7566 68.2849,258.7566 C65.8369,259.2836 63.3889,259.8106 60.9419,260.3376 L57.9399,260.9836 C57.7399,261.0266 57.7709,261.3606 57.9669,261.3836 C61.7959,261.8416 65.6369,262.1936 69.4859,262.4396 C69.9319,262.4686 70.3799,262.4936 70.8259,262.5196 C71.6989,267.8466 72.5729,273.1746 73.4459,278.5016 C73.7099,280.1156 73.9739,281.7286 74.2389,283.3416 C74.2919,283.6636 74.8259,283.6416 74.8789,283.3296 C75.9119,277.2586 76.7779,271.1586 77.4759,265.0386 C77.5709,264.2006 77.6629,263.3616 77.7529,262.5226 C78.2149,262.4956 78.6769,262.4696 79.1379,262.4396 C82.9869,262.1936 86.8279,261.8416 90.6569,261.3836 C90.8529,261.3606 90.8839,261.0266 90.6839,260.9836" id="Fill-31" fill="#FFFFFF"></path>
            </g>
        </g>
    </g>
</svg>