<svg xmlns="http://www.w3.org/2000/svg" viewBox="0 0 694.3951 445.6737"><title>fairyman</title><g id="Layer_2" data-name="Layer 2"><g id="Layer_5" data-name="Layer 5"><path d="M184.9214,279.4755c-9.3809-8.5887-16.5349-18.9627-22.8389-29.881q-1.9866-4.5185-3.5429-9.2651a2.14,2.14,0,0,0-2.42-1.58c-.16-.3031-.3159-.607-.4756-.91a2.8438,2.8438,0,0,0-.1038-.9607q-.9072-3.1167-1.8145-6.2335a2.1023,2.1023,0,0,0-3.1065-1.3706c-.7215-1.431-2.3788-1.4165-3.5563-.6045a2.9717,2.9717,0,0,0-1.7093-.007,2.6837,2.6837,0,0,0-3.9443-.9285,2.83,2.83,0,0,0-.9438-.2052,2.1413,2.1413,0,0,0-1.3493-1.7671q-.7206-3.4334-1.4411-6.8665a2.5335,2.5335,0,0,0-2.9211-2.1388l-.6159-3.4883a2.615,2.615,0,0,0-4.5013-1.3479c-.0529-.1476-.1078-.2948-.1615-.4423-.0289-.6026-.0537-1.2049-.0916-1.8079a2.399,2.399,0,0,0-2.51-2.1781q-.2214-1.8456-.4429-3.6912a2.3731,2.3731,0,0,0-1.7371-2.0633,18.3519,18.3519,0,0,0-5.599-7.2635,2.5075,2.5075,0,0,0-3.2882.2,3.0112,3.0112,0,0,0-2.9307-.5533,2.9344,2.9344,0,0,0-1.8532-.3907,2.7347,2.7347,0,0,0-4.7937-.2766,2.6645,2.6645,0,0,0-1.3168,1.7855q-1.5922,6.9789-3.2795,13.9348a40.74,40.74,0,0,1-3.802,7.0033,32.6789,32.6789,0,0,1-3.1059,3.707c-.3289.2893-.6682.5795-1.0227.8743-2.0945,1.7422-4.6225,3.8-5.0581,6.669-.7025,4.6268,3.34,6.585,7.29,7.1588C93.8748,242.139,90.33,249.3286,88.6652,256.9c-1.2346,5.6149,1.0808,9.9167,5.7424,13.0645,9.2819,6.2678,20.4682,4.6869,29.79-.2406,5.7412-.3708,7.0686,14.62,7.1745,18.2136.0888,3.0144,4.236,2.709,5.0655.2255a3.32,3.32,0,0,0,4.5426-.1335c.299-.3476.5662-.7006.8225-1.0557a3.7952,3.7952,0,0,0,1.2395.1242,4.5086,4.5086,0,0,0,2.3351.07,4.3548,4.3548,0,0,0,2.3384-1.286,6.5534,6.5534,0,0,0,1.3993-.24c.0492-.0143.0848-.0368.1327-.052a5.8888,5.8888,0,0,0,4.74-.1875,6.1406,6.1406,0,0,0,.9351-.5262c.3624.1551.7132.32,1.1024.4521a2.9614,2.9614,0,0,0,2.7114-.4589,6.339,6.339,0,0,0,3.827.489,4.4054,4.4054,0,0,0,2.8692-1.6139,3.2145,3.2145,0,0,0,3.0883-1.6744c.0462.02.0869.0465.1334.0665a4.3151,4.3151,0,0,0,3.8856-.3464,3.2914,3.2914,0,0,0,2.4869-.491,3.6528,3.6528,0,0,0,2.4629-1.808c1.367,1.4254,2.7621,2.83,4.233,4.1762C184.23,285.9628,187.4058,281.75,184.9214,279.4755Z" fill="#970100"/><path d="M121.3669,214.8128a38.8811,38.8811,0,0,0-12.3316-4.3544c-1.4182-.2545-2.95,1.3212-3.23,2.899a2.6819,2.6819,0,0,0,2.131,3.32,34.7238,34.7238,0,0,1,10.947,4.0173c1.2487.7048,3.0538-.43,3.6794-1.9118A3.0238,3.0238,0,0,0,121.3669,214.8128Z" fill="#fff"/><path d="M209.364,237.0163c-7.44-6.86-15.8217-1.8192-18.8034,6.5079-2.9553,8.2529-1.7459,17.7787,1.7324,25.98,4.5422,10.71,12.7364,19.0894,21.0351,26.67a1.5066,1.5066,0,0,0,.0879.1723,3.5477,3.5477,0,0,0,3.0925,1.8068c.5705.0375.9438-.5127,1.0742-1.0161,2.6678-10.3018,3.3745-21.9658,2.7475-32.7859C219.7587,254.4892,216.7976,243.87,209.364,237.0163Z" fill="#ff97ac"/><path d="M210.883,276.6387c-1.8625-3.6988-4.6626-6.7912-5.8861-10.8287-1.2242-4.04-1.4309-8.2914-2.6339-12.3485a44.1627,44.1627,0,0,0-5.2361-11.2646c-.3587-.5594-1.1374.01-.7778.57a43.2448,43.2448,0,0,1,5.2414,11.4725c1.1167,3.9107,1.3037,8.008,2.5036,11.8922,1.0713,3.4682,3.2162,6.2285,5.025,9.3028,2.5211,4.2849,3.18,8.8957,3.662,13.7473a.4825.4825,0,1,0,.9632-.0506C213.3212,284.87,212.8478,280.5406,210.883,276.6387Z" fill="#ff681e"/><path d="M207.713,282.8648a84.6758,84.6758,0,0,1-9.1322-11.4889c-.3671-.5532-1.1464.015-.7779.57a86.302,86.302,0,0,0,9.3066,11.69C207.5625,284.1139,208.1645,283.3409,207.713,282.8648Z" fill="#ff681e"/><path d="M202.7876,269.795a65.9287,65.9287,0,0,1-6.4216-9.464c-.3247-.5807-1.1016-.0086-.7778.57a65.9165,65.9165,0,0,0,6.4216,9.4641C202.4231,270.8733,203.2062,270.31,202.7876,269.795Z" fill="#ff681e"/><path d="M199.1473,257.4181a31.7714,31.7714,0,0,1-3.8841-7.5775.48.48,0,1,0-.9027.322,32.7875,32.7875,0,0,0,4.009,7.8258A.4825.4825,0,1,0,199.1473,257.4181Z" fill="#ff681e"/><path d="M216.7113,265.7352a63.2772,63.2772,0,0,1-1.9017,13.7727.49.49,0,0,0,.9555.2154,64.4951,64.4951,0,0,0,1.9094-14.0387C217.6925,265.0253,216.7291,265.0838,216.7113,265.7352Z" fill="#ff681e"/><path d="M211.7384,255.2508a86.2473,86.2473,0,0,1-1.4058,12.0057.49.49,0,1,0,.9555.2153,86.2477,86.2477,0,0,0,1.4058-12.0056C212.7245,254.8129,211.7692,254.5924,211.7384,255.2508Z" fill="#ff681e"/><path d="M205.84,245.3547l-.01,7.73c-.0008.6618.9624.6048.9632-.0507l.01-7.73C206.8044,244.6422,205.8412,244.6992,205.84,245.3547Z" fill="#ff681e"/><path d="M133.58,210.5132c-.12-2.367-3.7479-3.2742-5.334-4.22-.9519-.5674-1.5619-1.46-2.6939-1.7321a10.6886,10.6886,0,0,1-2.307-.5854,7.1717,7.1717,0,0,0-1.8727-.8036c-.6355-.1256-1.312-.08-1.937-.2469a15.317,15.317,0,0,1-2.4618-1.27c-1.2522-.5942-3.2968-.0706-4.27-.9292-.7649-.6744-.956-1.4958-2.1486-1.636a2.5326,2.5326,0,0,0-1.9761.5991c-1.2005-.372-2.42-.3394-3.099,1.0146-.952,1.8988.8917,3.1756,2.539,3.4268a4.3538,4.3538,0,0,1,2.2761.7517c.3957.2976.7021.6921,1.1214.967,1.23.8063,2.5387.1419,3.7506.7331.9437.46,1.4258,1.3447,2.514,1.676,1.4454.44,2.7734.2083,4.0556,1.1478a3.878,3.878,0,0,0,2.86.906c1.7411-.0268,2.8892,1.0263,4.4922,1.5172C130.39,212.2279,133.6928,212.74,133.58,210.5132Z"/><path d="M97.6038,246.3246c-.171.006-.3412-.0029-.5121.0006a2.4376,2.4376,0,0,0-.5981-1.4446,2.598,2.598,0,0,0-3.6316-.2573c-.2465.245-.4747.5071-.7093.7634-.5726,1.4444-1.1952,2.8681-1.7845,4.3055a2.67,2.67,0,0,0,2.1807,1.6144,34.6417,34.6417,0,0,0,4.691.1539,2.6492,2.6492,0,0,0,2.75-2.386A2.5917,2.5917,0,0,0,97.6038,246.3246Z" fill="#fff"/><path d="M108.9686,210.5424c-4.0862-.4273-4.7571,5.9225-.6641,6.3505C112.3908,217.32,113.0616,210.97,108.9686,210.5424Z"/><path d="M106.6444,210.6106a39.0714,39.0714,0,0,1,16.9239,6.7725c1.2661.89,2.4667-1.19,1.2113-2.0723a40.6519,40.6519,0,0,0-17.4971-7.0145c-1.511-.2271-2.1626,2.0851-.6381,2.3143Z"/><path d="M103.9212,248.5481a7.5813,7.5813,0,0,1-.55,1.1781.773.773,0,0,0-.9592-.4739.7258.7258,0,0,0-.63-.1509,7.9831,7.9831,0,0,0-.8836.2594.55.55,0,0,0-.6063-.2871c-3.6485.9714-6.4582-.365-9.94-1.01-4.3038-.7976-4.3918,5.9508-1.1984,7.1065a14.7793,14.7793,0,0,0,9.3251.0831,11.0344,11.0344,0,0,0,6.7766-6.378C105.5108,248.1692,104.1759,247.8468,103.9212,248.5481Z" fill="#de521b"/><path d="M104.6513,247.9585c-.1554-.0384-.31-.0811-.4623-.1293a4.8822,4.8822,0,0,1-.6461-.218l-.0194.0008a9.4959,9.4959,0,0,1-4.8675-3.5136c-1.0719-1.5366-1.3664-3.3886-2.3664-4.9553a4.2412,4.2412,0,0,0-3.5714-1.9214A2.9515,2.9515,0,0,0,89.78,239.08c-2.7007,6.4113,8.2174,11.457,13.5352,10.5942a.7714.7714,0,0,0,.2276-.076,1.5133,1.5133,0,0,0,.9379-.3339c.3783-.2281,1.0633-.8309.8524-1.24C105.2892,247.94,104.7159,248.0214,104.6513,247.9585Z" fill="#de521b"/><path d="M224.0515,182.0976a11.982,11.982,0,0,0-3.7524-9.2276,9.8549,9.8549,0,0,0,3.7578-11.4339,13.1985,13.1985,0,0,0-7.1286-7.649c3.2724-4.7108,4.23-10.92.1568-15.663a12.0029,12.0029,0,0,0-10.1154-3.8368,10.1951,10.1951,0,0,0-3.7-10.227,12.5524,12.5524,0,0,0-9.6526-2.3839,10.5543,10.5543,0,0,0-8.1873-8.241,14.1059,14.1059,0,0,0-9.8431,1.2446c-.038-.082-.0705-.1652-.1149-.2455a12.1332,12.1332,0,0,0-11.3274-6.4857,14.39,14.39,0,0,0-8.4726,3.2812c-3.5235-3.6907-7.8219-5.833-12.9424-3.5808a17.378,17.378,0,0,0-7.934,7.44c-3.5725-2.2272-7.9064-2.94-11.4108.065a12.8125,12.8125,0,0,0-4.0723,7.6317,10.5843,10.5843,0,0,0-11.12,1.6187,13.7145,13.7145,0,0,0-4.339,10.3559,11.4565,11.4565,0,0,0-10.0739,6.315,11.7326,11.7326,0,0,0-.4441,8.8279,8.6964,8.6964,0,0,0-6.939,8.26c-.1157,3.7733,1.7774,6.7549,4.39,9.1864-.102.0727-.2612.1987-.3283.2434a10.14,10.14,0,0,0-1.3488,1.1294,8.1515,8.1515,0,0,0-2.1262,2.9292,7.087,7.087,0,0,0,1.4,7.3363,17.8115,17.8115,0,0,0,5.09,3.9479c-2.5109,2.9808-3.91,6.85-1.1627,10.2078,2.4458,2.99,6.6382,4.2311,10.6205,4.2891a9.3629,9.3629,0,0,0,4.6208,7.2062,9.873,9.873,0,0,0,9.9073-.17,14.87,14.87,0,0,0,7.5317,4.948,15.3747,15.3747,0,0,0,4.542.541,11.4126,11.4126,0,0,0,7.14,9.2409,8.9324,8.9324,0,0,0,.3026,5.1124,9.5871,9.5871,0,0,0,7.175,6.09c.2457.1518.4862.3112.7422.4465a10.3478,10.3478,0,0,0,1.97,9.2015c3.659,4.4139,9.6061,4.75,14.8413,3.6124a11.8921,11.8921,0,0,0,13.2642,3.6624c4.3613-1.6318,6.4825-5.4582,8.0834-9.4737a9.9638,9.9638,0,0,0,8.3692-.1166c5.4093-2.593,6.4477-7.8276,7.4368-12.9833,4.3129.1774,9.0909-.8605,11.55-4.24,2.1591-2.9677,2.0124-7.0925,1.1143-10.8714,3.46-.5467,6.58-2.1265,8.0908-5.6532,1.7984-4.1994.7962-8.8889-1.1587-12.9527A11.2623,11.2623,0,0,0,224.0515,182.0976Z" fill="#003418"/><path d="M112.5344,240.8015a3.4635,3.4635,0,0,0-1.3536.0854,4.3019,4.3019,0,0,0-.6588-.8916,3.877,3.877,0,0,0-.5629-.733,3.3739,3.3739,0,0,0-2.261-.9243,4.0323,4.0323,0,0,0-2.1844.0433c-.0542.017-.1094.0493-.1641.07a4.1875,4.1875,0,0,0-.87-1.0019,3.8686,3.8686,0,0,0-3.4059-1.252c-.09.0127-.17.0478-.2572.0659-.0379-.0169-.0751-.0344-.1143-.05-.0135-.0284-.0333-.0551-.0478-.0834a3.68,3.68,0,0,0-2.2314-2.0812,4.6129,4.6129,0,0,0-4.62.1248,4.468,4.468,0,0,0-1.3172,6.2363,3.3737,3.3737,0,0,0,2.6345,1.3668,6.0044,6.0044,0,0,0,1.8614.114,3.72,3.72,0,0,0,1.6294,2.6119,4.9487,4.9487,0,0,0,5.0009-.1127,3.2693,3.2693,0,0,0,.79.6843,3.8607,3.8607,0,0,0,1.3456,1.1538,4.1242,4.1242,0,0,0,3.828-.0582,2.8553,2.8553,0,0,0,1.7755,1.0255,3.2184,3.2184,0,0,0,3.686-2.5349l.032-.1729A3.1989,3.1989,0,0,0,112.5344,240.8015Z" fill="#003418"/><path d="M309.0951,220.7442c2.9188-19.4682-14.3476-27.4567-31.0085-23.1643-16.5129,4.2543-30.5272,16.6025-39.932,31.1574-12.2814,19.0065-16.8236,41.3478-19.9647,62.9843a2.9836,2.9836,0,0,0-.1815.3295,6.9016,6.9016,0,0,0,.4683,6.9514c.5626.9593,1.856.9595,2.8086.62,19.4973-6.9542,39.046-18.5526,55.78-31.3768C292.3169,256.5572,306.1789,240.1948,309.0951,220.7442Z" fill="#ff97ac"/><path d="M547.6,196.2741a35.4691,35.4691,0,0,0-2.4442-3.4382,18.32,18.32,0,0,0,2.709,1.284,14.1992,14.1992,0,0,0,5.8.9375c1.334-.0827,2.979-.3631,3.7328-1.6161,1.8186-3.0228-3.7053-5.4664-5.7812-6.0514-.7755-.2186-1.5625-.4034-2.357-.5633,1.028-.1376,2.0469-.3137,3.05-.5449,2.1016-.4845,7.7367-2.6594,6.0657-5.7662-.6927-1.2878-2.3223-1.6471-3.6508-1.7939a14.2,14.2,0,0,0-5.8388.6574,18.3062,18.3062,0,0,0-2.7676,1.1522,35.4767,35.4767,0,0,0,2.6068-3.3167c1.2195-1.7788,3.8966-7.1934.564-8.35-1.3815-.48-2.8244.3587-3.9019,1.15a14.2015,14.2015,0,0,0-3.854,4.4351,19.231,19.231,0,0,0-1.75,4.229,37.7342,37.7342,0,0,0-1.207-5.0417c-.6619-2.0526-3.31-7.4817-6.2624-5.5518-1.2241.8-1.4431,2.4542-1.4761,3.7905a14.2,14.2,0,0,0,1.153,5.7614,18.2984,18.2984,0,0,0,1.384,2.6593,35.4935,35.4935,0,0,0-3.5269-2.3145c-1.8764-1.0633-7.5-3.269-8.3677.15-.36,1.4173.5983,2.7834,1.4782,3.79a14.2013,14.2013,0,0,0,4.7476,3.4618,17.99,17.99,0,0,0,2.1745.8319,18.3221,18.3221,0,0,0-2.8821.8889,14.2016,14.2016,0,0,0-4.9087,3.2293c-.9273.9627-1.95,2.2811-1.6589,3.7141.7027,3.457,6.4255,1.5245,8.3509.5526a35.4574,35.4574,0,0,0,3.6341-2.1421,18.3063,18.3063,0,0,0-1.51,2.59,14.1994,14.1994,0,0,0-1.4288,5.6993c-.0314,1.3363.1077,2.9992,1.2919,3.8571,2.8567,2.07,5.7624-3.2257,6.5224-5.244a37.7406,37.7406,0,0,0,1.4481-4.9778,19.227,19.227,0,0,0,1.5446,4.3083,14.1992,14.1992,0,0,0,3.6362,4.6153c1.0382.8419,2.4391,1.7486,3.842,1.3361C551.146,203.6467,548.7325,198.11,547.6,196.2741Z" fill="#fff"/><path d="M542.187,184.6913c-2.9029-3.46-8.2851,1.0458-5.3773,4.5116C539.7127,192.6629,545.0948,188.1571,542.187,184.6913Z" fill="#ffe604"/><path d="M246.9683,266.4544c3.9208-7.0371,5.8415-14.9215,11.0051-21.3,5.1666-6.3819,11.7855-11.3572,17.003-17.7238a85.9018,85.9018,0,0,0,12.4167-20.7293c.5091-1.1884-1.2572-1.8207-1.7675-.63A84.1186,84.1186,0,0,1,272.88,227.0371c-5.0762,6.0678-11.468,10.8429-16.4108,17.0157-4.4133,5.5117-6.5149,11.9787-9.4889,18.2474-4.1452,8.7374-10.848,14.8333-18.1322,20.9063-.9941.8288.14,2.3236,1.1332,1.4953C236.38,279.3676,242.8323,273.8779,246.9683,266.4544Z" fill="#ff681e"/><path d="M233.4839,268.15a164.7028,164.7028,0,0,1,8.5236-27.2464.9387.9387,0,1,0-1.7676-.63,167.8757,167.8757,0,0,0-8.6568,27.7465C231.3087,269.2713,233.2105,269.3963,233.4839,268.15Z" fill="#ff681e"/><path d="M249.1459,245.9494a128.237,128.237,0,0,1,8.2236-20.6718c.58-1.1569-1.1891-1.7827-1.7675-.6294a128.228,128.228,0,0,0-8.2236,20.6718C247.012,246.54,248.7749,247.185,249.1459,245.9494Z" fill="#ff681e"/><path d="M265.0959,226.5744a61.79,61.79,0,0,1,7.9572-14.5268.9332.9332,0,1,0-1.5041-1.1018,63.7879,63.7879,0,0,0-8.2207,14.9991A.9387.9387,0,1,0,265.0959,226.5744Z" fill="#ff681e"/><path d="M270.8852,263.9311a123.0841,123.0841,0,0,1-24.2483,11.9774.9526.9526,0,0,0,.6967,1.7733,125.4478,125.4478,0,0,0,24.6849-12.2554C273.1,264.7355,271.9533,263.2484,270.8852,263.9311Z" fill="#ff681e"/><path d="M291.8372,291.2415a72.9509,72.9509,0,0,1-22.6659,7.9689c-3.5129.6252-2.0243,5.9783,1.4763,5.3554.96-.1709,1.9121-.3647,2.86-.5705a3.0487,3.0487,0,0,0-.1981.5849,126.3236,126.3236,0,0,0-3.2522,31.7023,2.7415,2.7415,0,0,0,4.7608,1.8222c-.0114.2158-.0234.4317-.0345.6476a2.7409,2.7409,0,0,0-.9153,1.9505q-1.5136,25.2427-.6189,50.5206a2.9973,2.9973,0,0,0,.343,1.32,25.06,25.06,0,0,0-2.0492,10.31c.0293,1.0125.7284,3.4756,1.2224,5.8943-.0012.8657.0164,1.7353.0591,2.6105a3.0366,3.0366,0,0,0,.4088,1.4169c-.043.8965-.2621,1.5667-.7788,1.81a2.2546,2.2546,0,0,0-1.2786,1.5508c-2.451.093-4.9035.1638-7.3587.2-3.5706.0519-3.5809,5.6058,0,5.5537q13.37-.1944,26.6667-1.5222c2.8451-.2841,3.4133-3.96,1.6529-5.1783a150.0017,150.0017,0,0,0,.0136-23.47l.7755-18.0826q.9782-12.0735,1.0371-24.1807.2609-6.0811.5216-12.1623a2.4675,2.4675,0,0,0-.7821-2.0521c-.09-2.1939-.1962-4.3881-.3317-6.5823a3.0533,3.0533,0,0,0-.508-1.5629l-.3724-26.5366a2.6132,2.6132,0,0,0-1.1338-2.1182,2.5581,2.5581,0,0,0,.1347-.7635c1.0578-.5242,2.1088-1.0672,3.1489-1.64C297.7714,294.3117,294.9727,289.5138,291.8372,291.2415Z" fill="#970100"/><path d="M282.3332,244.4774a167.7561,167.7561,0,0,1-20.862,10.8462.9526.9526,0,1,0,.6967,1.7733,167.7426,167.7426,0,0,0,20.862-10.8462C284.1149,245.5867,283.4269,243.8081,282.3332,244.4774Z" fill="#ff681e"/><path d="M291.8242,224.1767,279.37,232.6012c-1.0663.7213.0772,2.21,1.1333,1.4953l12.4545-8.4245C294.0239,224.9507,292.88,223.4623,291.8242,224.1767Z" fill="#ff681e"/><path d="M167.1453,381.1106A152.9868,152.9868,0,0,1,121.81,421.1738a4.8862,4.8862,0,0,0-.7864-2.92,4.5691,4.5691,0,0,0-1.9426-3.7106,3.82,3.82,0,0,0-.6579-4.2748c.3921-.3841.7928-.7571,1.1813-1.1459,1.9216-1.9236,1.2629-4.4418-.3941-5.9522.268-.2738.5462-.5353.8124-.8113a4.0255,4.0255,0,0,0,.5983-4.6478c1.152-2.1228-.0978-4.8545-2.14-5.97a4.8621,4.8621,0,0,0-3.5265-4.3816c-.5963-2.4943-3.2124-4.6432-5.8546-3.3682-.3116.15-.6119.3178-.9223.47a5.3639,5.3639,0,0,0-3.2374-1.5557,4.9135,4.9135,0,0,0-3.88-1.19c.319-.3912.6442-.7769.9616-1.17a4.4491,4.4491,0,0,0-1.2352-6.6582c.5173-2.386-1.6215-4.6571-3.9911-5.0574.3318-.3272.65-.6653.9851-.99,2.6886-2.5983.132-6.8488-2.8989-7.4069,3.8312-5.0319,7.4753-10.2253,11.0755-15.4142,5.8649-8.4531,11.6993-16.9572,18.2986-24.8629,6.9751-8.356,15.9388-19.2734,27.27-21.0781,4.21-.6705,3.6274-7.314-.6241-6.6368-10.8333,1.7254-19.01,9.4574-26.2537,17.1906-7.4037,7.9039-13.7622,16.708-19.9508,25.5728-11.4793,16.4431-22.6777,33.6356-38.8343,45.7715a84.1852,84.1852,0,0,0,6.92-14.52c2.5786-7.4675,3.1536-15.2241,3.4014-23.0643.5077-16.0638,2.7345-30.6655,10.4554-44.3079a10.485,10.485,0,0,0,1.91,5.5524,9.27,9.27,0,0,0,5.75,3.7391,10.2463,10.2463,0,0,0,5.6511,3.7807c7.3244,1.8871,14.4339-3.4317,18.3256-9.1894a25.1548,25.1548,0,0,0,3.1556-21.72c-1.8161-5.7351-6.0284-11.572-11.9408-12.7525a3.5989,3.5989,0,0,0-.3449-.1244c-28.4087-7.1839-48.2964,17.2563-64.1909,37.0035-17.7671,22.0736-33.8491,46.83-41.6363,74.3162-3.3652,11.8782-5.576,24.002.5074,35.3654,5.6283,10.513,15.3474,18.6837,26.0263,23.7417,24.0926,11.411,52.0406,7.2308,75.9593-2.4445a157.71,157.71,0,0,0,66.2448-50.7354C174.6332,382.2238,169.74,377.6944,167.1453,381.1106Z" fill="#970100"/><path d="M275.9949,345.54a30.4957,30.4957,0,0,0,1.6416-12.4072c-.4913-5.3507-1.9362-10.5363-2.2524-15.9195a71.6613,71.6613,0,0,1,.9986-16.7,4.706,4.706,0,0,0-3.721-5.4243,4.1878,4.1878,0,0,0-2.14-.4261c-9.7406.51-19.0606,3.7169-28.7989,4.194a75.2706,75.2706,0,0,1-24.194-2.7983A76.1479,76.1479,0,0,1,176.7521,268.02a4.7846,4.7846,0,0,0-6.7192-.9762c-.0288.0124-.0569.0159-.0858.0289a239.8061,239.8061,0,0,1-36.1689,12.8147,4.7712,4.7712,0,0,0-.4807.1817c-2.5116-.4392-5.2506.9409-4.9753,4.1772.4118,4.8417-5.1584,6.9711-8.0953,9.9013-2.9336,2.9269-3.7718,6.1174-5.0855,9.8678-2.636,7.5256-10.82,9.9244-14.5721,16.805-1.8543,3.4006-2.2337,7.409-4.0192,10.8028-1.7255,3.28-5.0354,5.0251-7.1561,8.004-3.8,5.3377-2.4036,13.5745-6.4343,18.4376a3.4447,3.4447,0,0,0-2.3838,3.9849c.7885,6.3677,3.7557,11.06,7.7291,15.9759a61.0514,61.0514,0,0,1,6.1407,8.164c1.9,3.3752,2.1345,7.0843,3.3053,10.7,2.133,6.5872,6.9559,9.7736,12.209,13.7517a13.7212,13.7212,0,0,1,5.7485,8.3435c.93,3.7329,1.4155,7.148,3.3748,10.5523a4.0276,4.0276,0,0,0,4.7914,1.9657,9.5822,9.5822,0,0,0,5.8055-1.718c3.8027-2.5379,4.5517-5.8945,9.228-7.3721,7.0906-2.24,10.4963-4.8679,13.4663-11.8434,1.07-2.5128,1.9447-4.8885,3.6881-6.7434,15.6064,13.224,36.0159,16.6061,55.9336,17.8079,12.2354.7382,24.5074,1.0079,36.7557,1.4634,3.8571.1434,18.1914,2.3039,22.3692-2.2324a4.135,4.135,0,0,0,2.1645-2.6828,52.8958,52.8958,0,0,0,2.2189-15.2373c-.0579-5.1647-1.4478-9.9137-2.1834-14.9685-.7668-5.2687,1.6666-8.9521,3.0657-13.7563,1.309-4.4949.97-8.6759-.1184-13.1733C274.8512,355.1918,274.1368,351.4133,275.9949,345.54Z" fill="#fff5b0"/><path d="M582.93,246.584c-11.4383-19.8933-24.928-39.16-35.9649-59.4624q.6967-3.3329,1.3936-6.6659a6.233,6.233,0,0,0-4.8252-7.7356c-.1787,2.51-3.3775,4.2185-5.3884,2.1207a51.1112,51.1112,0,0,1-4.8831-5.9878,2.7949,2.7949,0,0,1-3.7593-1.32c-3.1671-7.18-6.1595-14.4542-8.5881-21.8947-1.1738-2.7874-2.2385-5.62-3.2372-8.4786a139.3623,139.3623,0,0,0,4.0792,16.9374,183.3693,183.3693,0,0,0-23.2486,26.8921q-4.9213-17.174-11.2852-33.8931c-2.291-6.008-11.5363-2.2-9.2406,3.82a406.2471,406.2471,0,0,1,13.1647,40.7224c-9.016,13.5815-17.2722,27.7826-26.1343,41.3686-5.1895,7.9557-10.4791,16.9143-18.0722,22.8247-8.3007,6.4612-19.1094,7.4944-29.2827,7.8821-21.8927.8343-43.718-3.3474-65.6026-.958a139.034,139.034,0,0,0-62.6375,23.2812,6.2743,6.2743,0,0,0-2.9548,6.3043,5.4656,5.4656,0,0,0-.0793.9436l1.8515,122.9275a4.6474,4.6474,0,0,0,1.6941,3.6713,5.06,5.06,0,0,0,3.2317,1.5576,867.0372,867.0372,0,0,0,128.0572,3.4506q31.75-1.51,63.3317-5.3592c19.892-2.4264,40.0533-4.97,59.58-9.5584,16.4308-3.8612,32.3395-10.69,43.7713-23.5058,10.2236-11.461,16.5452-26.0392,19.2078-41.0871C613.331,310.2151,600.2172,276.65,582.93,246.584Zm-27.5724-25.812q1.4352,2.29,2.8714,4.5718a8.9091,8.9091,0,0,0-4.5514.0164Q554.5219,223.0676,555.3571,220.772Zm-9.41-15.3181q.7617,1.2768,1.53,2.5494a5.582,5.582,0,0,0-2.5545,1.3707Q545.435,207.414,545.947,205.4539Zm-18.8107-36.4582c1.4688,3.5558,3.05,7.0687,4.7172,10.5471-3.0666-2.2771-7.5646-2.4988-9.81,1.018a7.4078,7.4078,0,0,0-4.25-1.1544Q522.2469,174,527.1363,168.9957ZM521.59,301.8469c.496-1.0379.9744-2.0843,1.4659-3.1244a91.1425,91.1425,0,0,0,23.1429,25.6632c.0816.1989.16.4.2446.5971-10.9757-1.5859-21.709-5.0779-32.2845-9.3275A140.7141,140.7141,0,0,0,521.59,301.8469Z" fill="#ff6edc"/><path d="M491.727,208.8919a78.6108,78.6108,0,0,0,3.0244,14.2911l-14.6373,8.6133a2.0492,2.0492,0,0,0,.7457,3.8453q9.049.7139,18.1226,1.0049,1.1211,3.0676,2.333,6.1021,1.3387,3.3327,2.79,6.6187c.7754,1.7564,1.5629,3.4285,3.6806,3.6385a2.0809,2.0809,0,0,0,2.1827-1.8683q1.1576-6.6334,2.1775-13.2891a85.916,85.916,0,0,0,18.4644,1.8072,2.0507,2.0507,0,0,0,1.2937-3.7088,107.0523,107.0523,0,0,0-14.5771-10.3912,61.1268,61.1268,0,0,0,8.2257-14.6142,1.802,1.802,0,0,0-.2115-1.7581,1.6965,1.6965,0,0,0-2.1944-1.1817,55.6766,55.6766,0,0,0-8.3408,3.5091l-8.8184,4.1276a1.9923,1.9923,0,0,0-.7456.5816,103.5925,103.5925,0,0,0-9.7874-9.1686,1.63,1.63,0,0,0-.6105-.3146A2.1766,2.1766,0,0,0,491.727,208.8919Z" fill="#ff5122"/><path d="M438.7282,63.4447a40.11,40.11,0,0,0,2.0274,5.7617,4.4225,4.4225,0,0,0,.2112,1.4887q18.02,55.2881,39.94,109.2,5.0346,12.39,10.2866,24.69a16.6732,16.6732,0,0,0,2.2234,9.25,86.9308,86.9308,0,0,0,16.0626,18.7495c11.7108,10.4656,32.3472,18.6758,45.4564,5.9029,7.5471-7.3534,9.3976-17.4816,9.0284-27.6369a4.8409,4.8409,0,0,0-.6494-2.2215,32.1214,32.1214,0,0,0-5.8193-10.549l-45.8841-98.0531q-7.1841-15.3522-14.3682-30.7044c.0324-.167.0615-.3353.0837-.5056,2.5163-19.3564,5.3491-39.5738,15.808-56.3022l.62-.4041a5.7857,5.7857,0,0,0,2.4739-4.37A5.8485,5.8485,0,0,0,513.9361.8415,5.4318,5.4318,0,0,0,508.517.6162a7.9274,7.9274,0,0,0-2.7341,1.1283c-10.8762,7.0883-22.014,14.5487-29.7108,25.2342-5.4929,7.6258-9.1217,16.5459-12.086,25.6058a76.5933,76.5933,0,0,0-2.9914,9.522c-.0829.3405-.1529.6842-.2313,1.0259q-.4176,1.429-.83,2.8467a8.8586,8.8586,0,0,0-.2547,1.1738c-.04-.0624-.0794-.1253-.1193-.1878-1.1177-3.619-3.47-6.7865-5.47-9.9765-2.5914-4.1323-7.0325-8.35-12.3458-6.211C435.9763,53.0991,437.4313,58.7635,438.7282,63.4447Z"/><path d="M599.2067,24.4742a40.1174,40.1174,0,0,0-3.4012,5.0734,4.4208,4.4208,0,0,0-1.0658,1.06q-33.4957,47.5347-63.5543,97.3684-6.91,11.4505-13.6177,23.0214a16.6733,16.6733,0,0,0-6.0778,7.3188,86.9289,86.9289,0,0,0-5.4011,24.091c-1.3715,15.6458,4.4073,37.09,22.4866,39.9435,10.4084,1.6425,19.6287-2.939,27.5418-9.3147a4.8418,4.8418,0,0,0,1.39-1.85,32.1236,32.1236,0,0,0,4.9655-10.9768L613.54,104.753l15.9913-29.8913c.1531-.074.3053-.1514.455-.2357,17.01-9.573,34.9-19.4082,54.5608-21.0463l.6949.2547a5.7856,5.7856,0,0,0,4.9814-.6348,5.8483,5.8483,0,0,0,4.1536-5.9664,5.4318,5.4318,0,0,0-3.0639-4.4755,7.9287,7.9287,0,0,0-2.5407-1.5144c-12.1891-4.4678-24.8329-8.9223-38-8.69-9.3966.166-18.7139,2.6-27.7454,5.65a76.5733,76.5733,0,0,0-9.4179,3.3048c-.3223.1375-.6395.2872-.96.4289q-1.3945.5211-2.777,1.04a8.8543,8.8543,0,0,0-1.0927.4988c.026-.0695.0529-.1386.079-.2081,2.23-3.0618,3.3586-6.8421,4.716-10.3542,1.7585-4.55,2.4777-10.6318-2.4165-13.6072C605.8457,16.0761,602.18,20.6328,599.2067,24.4742Z"/><path d="M538.2145,203.2859a35.476,35.476,0,0,0-4.205-.3374,18.3156,18.3156,0,0,0,2.7248-1.25,14.2,14.2,0,0,0,4.4464-3.841c.7941-1.0752,1.6366-2.5156,1.1612-3.8985-1.1469-3.336-6.5693-.6748-8.3517.5394-.6659.4537-1.3133.9377-1.9465,1.4437.5554-.876,1.0754-1.77,1.5429-2.6867.98-1.9214,2.9354-7.6363-.5187-8.353-1.4318-.2971-2.7544.72-3.7208,1.6438a14.1992,14.1992,0,0,0-3.2492,4.8955,18.3,18.3,0,0,0-.8962,2.8608,35.4636,35.4636,0,0,0-.8654-4.1288c-.5789-2.0776-3.0062-7.6087-6.0343-5.799-1.2552.75-1.5405,2.3942-1.6271,3.7281a14.2006,14.2006,0,0,0,.92,5.8031,19.2284,19.2284,0,0,0,2.115,4.0588,37.746,37.746,0,0,0-4.6382-2.3158c-1.9979-.8123-7.8587-2.2735-8.2783,1.2291-.1739,1.452.9527,2.683,1.9551,3.5671a14.2025,14.2025,0,0,0,5.1548,2.82,18.3185,18.3185,0,0,0,2.9268.649,35.4858,35.4858,0,0,0-4.04,1.2142c-2.0206.754-7.3245,3.6441-5.2632,6.5069.8544,1.1867,2.5169,1.3307,3.8533,1.3033a14.2,14.2,0,0,0,5.7034-1.412,17.9868,17.9868,0,0,0,2.035-1.1311,18.3268,18.3268,0,0,0-1.1715,2.7792,14.2023,14.2023,0,0,0-.6811,5.8361c.1415,1.3291.4941,2.96,1.7791,3.658,3.1,1.6836,5.2978-3.9426,5.7908-6.0422a35.4817,35.4817,0,0,0,.6948-4.1609,18.3033,18.3033,0,0,0,1.0131,2.8215,14.201,14.201,0,0,0,3.4477,4.7578c1.0036.8829,2.3669,1.8451,3.7853,1.4894,3.4217-.8582,1.2326-6.4878.1748-8.3673a37.735,37.735,0,0,0-2.8826-4.3088,19.2288,19.2288,0,0,0,4.2933,1.5859,14.2005,14.2005,0,0,0,5.8728.1808c1.3123-.2542,2.9073-.7447,3.493-2.0845C546.1416,205.308,540.3485,203.598,538.2145,203.2859Z" fill="#fff"/><path d="M525.8619,199.9879c-4.5165,0-4.524,7.0193,0,7.0193C530.3785,207.0072,530.386,199.9879,525.8619,199.9879Z" fill="#ffe604"/><path d="M515.7383,154.1439a35.476,35.476,0,0,0-4.2051-.3374,18.3167,18.3167,0,0,0,2.7249-1.25,14.2,14.2,0,0,0,4.4464-3.841c.7941-1.0752,1.6365-2.5156,1.1612-3.8985-1.1469-3.336-6.5693-.6748-8.3517.5394-.6659.4537-1.3133.9377-1.9466,1.4436.5555-.8759,1.0754-1.77,1.543-2.6866.98-1.9214,2.9354-7.6363-.5187-8.353-1.4318-.2971-2.7544.72-3.7208,1.6438a14.2008,14.2008,0,0,0-3.2493,4.8955,18.3208,18.3208,0,0,0-.8962,2.8608,35.4486,35.4486,0,0,0-.8653-4.1289c-.5789-2.0775-3.0062-7.6086-6.0343-5.7989-1.2552.75-1.5405,2.3942-1.6272,3.7281a14.2024,14.2024,0,0,0,.9205,5.8031,19.2327,19.2327,0,0,0,2.1149,4.0588,37.7234,37.7234,0,0,0-4.6381-2.3158c-1.9979-.8123-7.8588-2.2735-8.2783,1.2291-.1739,1.4519.9526,2.683,1.9551,3.5671a14.2016,14.2016,0,0,0,5.1548,2.82,18.3161,18.3161,0,0,0,2.9268.649,35.4655,35.4655,0,0,0-4.04,1.2142c-2.0206.754-7.3246,3.6441-5.2633,6.5069.8545,1.1867,2.517,1.3307,3.8533,1.3033a14.2,14.2,0,0,0,5.7035-1.412,17.9868,17.9868,0,0,0,2.035-1.1311,18.3268,18.3268,0,0,0-1.1715,2.7792,14.2006,14.2006,0,0,0-.6811,5.8361c.1415,1.3291.4941,2.96,1.7791,3.658,3.1,1.6836,5.2978-3.9426,5.7908-6.0422a35.5026,35.5026,0,0,0,.6948-4.1609,18.3029,18.3029,0,0,0,1.013,2.8215,14.2027,14.2027,0,0,0,3.4478,4.7578c1.0036.8829,2.3669,1.8451,3.7853,1.4894,3.4217-.8582,1.2326-6.4878.1748-8.3673a37.735,37.735,0,0,0-2.8826-4.3088,19.2288,19.2288,0,0,0,4.2933,1.5859,14.2005,14.2005,0,0,0,5.8728.1808c1.3123-.2542,2.9073-.7447,3.493-2.0845C523.6654,156.166,517.8723,154.456,515.7383,154.1439Z" fill="#fff"/><path d="M503.3857,150.8459c-4.5165,0-4.524,7.0192,0,7.0192C507.9023,157.8651,507.91,150.8459,503.3857,150.8459Z" fill="#ffe604"/><path d="M494.0471,104.3534a35.4938,35.4938,0,0,0-4.205-.3374,18.3214,18.3214,0,0,0,2.7249-1.25,14.2008,14.2008,0,0,0,4.4463-3.841c.7941-1.0752,1.6366-2.5156,1.1612-3.8984-1.1468-3.3361-6.5693-.6749-8.3517.5394-.6658.4536-1.3133.9376-1.9465,1.4436.5554-.876,1.0754-1.77,1.5429-2.6867.98-1.9214,2.9354-7.6363-.5187-8.353-1.4318-.2971-2.7544.72-3.7208,1.6438a14.1992,14.1992,0,0,0-3.2492,4.8955,18.31,18.31,0,0,0-.8962,2.8608,35.484,35.484,0,0,0-.8653-4.1288c-.5789-2.0776-3.0062-7.6087-6.0344-5.799-1.2552.75-1.54,2.3943-1.6271,3.7281a14.2,14.2,0,0,0,.9205,5.8031,19.2266,19.2266,0,0,0,2.1149,4.0589,37.7184,37.7184,0,0,0-4.6382-2.3159c-1.9979-.8122-7.8587-2.2734-8.2783,1.2292-.1739,1.4519.9527,2.6829,1.9551,3.567a14.2,14.2,0,0,0,5.1548,2.82,18.3076,18.3076,0,0,0,2.9268.649,35.4659,35.4659,0,0,0-4.04,1.2143c-2.0206.7539-7.3245,3.6441-5.2632,6.5068.8544,1.1867,2.5169,1.3307,3.8533,1.3033a14.201,14.201,0,0,0,5.7035-1.412,17.9854,17.9854,0,0,0,2.0349-1.1311,18.3237,18.3237,0,0,0-1.1715,2.7793,14.2,14.2,0,0,0-.681,5.836c.1414,1.3292.494,2.96,1.779,3.6581,3.1,1.6836,5.2978-3.9427,5.7908-6.0423a35.4626,35.4626,0,0,0,.6948-4.1608,18.3176,18.3176,0,0,0,1.0131,2.8215,14.2005,14.2005,0,0,0,3.4478,4.7577c1.0035.8829,2.3668,1.8451,3.7852,1.4894,3.4217-.8581,1.2326-6.4878.1748-8.3672a37.7218,37.7218,0,0,0-2.8826-4.3088,19.2334,19.2334,0,0,0,4.2933,1.5858,14.2028,14.2028,0,0,0,5.8729.1809c1.3122-.2543,2.9072-.7447,3.493-2.0846C501.9743,106.3756,496.1811,104.6656,494.0471,104.3534Z" fill="#fff"/><path d="M481.6946,101.0554c-4.5166,0-4.5241,7.0193,0,7.0193C486.2111,108.0747,486.2186,101.0554,481.6946,101.0554Z" fill="#ffe604"/><path d="M570.8,147.47a35.4664,35.4664,0,0,0-2.4443-3.4383,18.315,18.315,0,0,0,2.709,1.2841,14.2,14.2,0,0,0,5.8.9375c1.3341-.0827,2.9791-.3631,3.7329-1.6161,1.8186-3.0228-3.7054-5.4664-5.7812-6.0514-.7755-.2186-1.5625-.4034-2.3571-.5634,1.0281-.1375,2.047-.3136,3.05-.5448,2.1016-.4845,7.7367-2.6594,6.0656-5.7662-.6926-1.2878-2.3222-1.6471-3.6508-1.7939a14.2,14.2,0,0,0-5.8387.6574,18.3116,18.3116,0,0,0-2.7677,1.1522,35.4778,35.4778,0,0,0,2.6069-3.3167c1.22-1.7788,3.8966-7.1934.564-8.35-1.3815-.48-2.8244.3587-3.9019,1.15a14.2015,14.2015,0,0,0-3.854,4.4351,19.2262,19.2262,0,0,0-1.75,4.229,37.7342,37.7342,0,0,0-1.207-5.0417c-.6619-2.0526-3.3095-7.4817-6.2625-5.5518-1.224.8-1.443,2.4542-1.476,3.79a14.2017,14.2017,0,0,0,1.1529,5.7614,18.3181,18.3181,0,0,0,1.384,2.6593,35.4806,35.4806,0,0,0-3.5268-2.3145c-1.8764-1.0633-7.5-3.269-8.3678.15-.36,1.4173.5983,2.7834,1.4783,3.79a14.2,14.2,0,0,0,4.7476,3.4618,17.99,17.99,0,0,0,2.1745.8319,18.3233,18.3233,0,0,0-2.8822.8889,14.2022,14.2022,0,0,0-4.9086,3.2293c-.9273.9627-1.95,2.2811-1.6589,3.7141.7027,3.457,6.4255,1.5245,8.3508.5526a35.4588,35.4588,0,0,0,3.6342-2.1421,18.3164,18.3164,0,0,0-1.51,2.59,14.2027,14.2027,0,0,0-1.4288,5.6993c-.0313,1.3363.1078,2.9992,1.292,3.8571,2.8567,2.07,5.7624-3.2257,6.5223-5.2441a37.7351,37.7351,0,0,0,1.4482-4.9777,19.227,19.227,0,0,0,1.5446,4.3083,14.1989,14.1989,0,0,0,3.6361,4.6153c1.0383.8419,2.4391,1.7486,3.8421,1.3361C574.3464,154.8424,571.9329,149.3052,570.8,147.47Z" fill="#fff"/><path d="M565.3874,135.887c-2.903-3.46-8.2851,1.0458-5.3773,4.5116C562.9131,143.8586,568.2952,139.3528,565.3874,135.887Z" fill="#ffe604"/><path d="M595.0021,98.85a35.4813,35.4813,0,0,0-2.4442-3.4382,18.31,18.31,0,0,0,2.709,1.284,14.201,14.201,0,0,0,5.8.9376c1.3341-.0828,2.979-.3632,3.7328-1.6162,1.8186-3.0228-3.7053-5.4663-5.7812-6.0514-.7755-.2185-1.5624-.4034-2.357-.5633,1.028-.1376,2.0469-.3137,3.05-.5449,2.1016-.4844,7.7367-2.6594,6.0657-5.7662-.6927-1.2878-2.3223-1.647-3.6508-1.7939a14.2019,14.2019,0,0,0-5.8388.6574,18.3207,18.3207,0,0,0-2.7676,1.1522,35.4636,35.4636,0,0,0,2.6068-3.3167c1.2195-1.7788,3.8966-7.1934.564-8.35-1.3815-.48-2.8243.3587-3.9019,1.15a14.2,14.2,0,0,0-3.854,4.435,19.235,19.235,0,0,0-1.75,4.229,37.7379,37.7379,0,0,0-1.207-5.0417c-.6619-2.0526-3.31-7.4816-6.2624-5.5518-1.2241.8-1.4431,2.4543-1.476,3.79a14.1984,14.1984,0,0,0,1.1529,5.7614,18.2933,18.2933,0,0,0,1.384,2.6593,35.4935,35.4935,0,0,0-3.5269-2.3145c-1.8764-1.0633-7.5-3.2689-8.3677.15-.36,1.4173.5983,2.7835,1.4782,3.79a14.2023,14.2023,0,0,0,4.7476,3.4618,17.9732,17.9732,0,0,0,2.1745.8319A18.3221,18.3221,0,0,0,574.4,89.68a14.2,14.2,0,0,0-4.9087,3.2294c-.9273.9626-1.95,2.2811-1.6588,3.7141.7027,3.4569,6.4254,1.5244,8.3508.5526a35.4938,35.4938,0,0,0,3.6341-2.1421,18.295,18.295,0,0,0-1.51,2.59,14.1994,14.1994,0,0,0-1.4288,5.6993c-.0314,1.3362.1078,2.9991,1.2919,3.8571,2.8567,2.07,5.7624-3.2257,6.5224-5.2441a37.7362,37.7362,0,0,0,1.4481-4.9778,19.227,19.227,0,0,0,1.5446,4.3083,14.2006,14.2006,0,0,0,3.6362,4.6154c1.0382.8418,2.4391,1.7485,3.842,1.3361C598.5481,106.2227,596.1346,100.6856,595.0021,98.85Z" fill="#fff"/><path d="M589.5892,87.2673c-2.903-3.46-8.2851,1.0458-5.3774,4.5116C587.1148,95.2389,592.4969,90.7331,589.5892,87.2673Z" fill="#ffe604"/><path d="M343.5227,365.4414a78.609,78.609,0,0,0-13.7178,5.0207l-10.6021-13.2679a2.0494,2.0494,0,0,0-3.7008,1.2836q.5769,9.0588,1.5756,18.0819-2.8777,1.545-5.71,3.1749-3.109,1.7979-6.1561,3.7c-1.6287,1.0167-3.1722,2.0334-3.08,4.1595a2.0808,2.0808,0,0,0,2.159,1.8956q6.7305.2051,13.4635.2708a85.9292,85.9292,0,0,0,.83,18.5341,2.0508,2.0508,0,0,0,3.8548.7546,107.0417,107.0417,0,0,0,8.2187-15.9036,61.1238,61.1238,0,0,0,15.6332,6.07,1.8018,1.8018,0,0,0,1.71-.4587,1.6965,1.6965,0,0,0,.8586-2.34,55.6833,55.6833,0,0,0-4.6566-7.7588q-2.6684-4.0719-5.3365-8.1438a1.9934,1.9934,0,0,0-.6815-.6557,103.6046,103.6046,0,0,0,7.6878-10.9887,1.63,1.63,0,0,0,.2248-.649A2.1766,2.1766,0,0,0,343.5227,365.4414Z" fill="#ff5122"/><path d="M363.8032,285.4681a78.608,78.608,0,0,0-13.7177,5.0207L339.4833,277.221a2.0493,2.0493,0,0,0-3.7007,1.2835q.5768,9.0588,1.5755,18.0819-2.8776,1.545-5.7095,3.1749-3.1091,1.7979-6.1562,3.7c-1.6287,1.0167-3.1721,2.0334-3.08,4.16a2.0807,2.0807,0,0,0,2.1589,1.8956q6.73.205,13.4636.2708a85.9164,85.9164,0,0,0,.83,18.5341,2.0508,2.0508,0,0,0,3.8548.7546,107.0512,107.0512,0,0,0,8.2187-15.9036,61.1231,61.1231,0,0,0,15.6331,6.07,1.8018,1.8018,0,0,0,1.71-.4587,1.6964,1.6964,0,0,0,.8586-2.34,55.657,55.657,0,0,0-4.6566-7.7587q-2.6682-4.072-5.3365-8.1439a1.9934,1.9934,0,0,0-.6815-.6557,103.59,103.59,0,0,0,7.6878-10.9887,1.63,1.63,0,0,0,.2249-.649A2.1767,2.1767,0,0,0,363.8032,285.4681Z" fill="#ff5122"/><path d="M442.9494,345.2443a78.6169,78.6169,0,0,0-13.9555-4.3161q-.1984-8.49-.397-16.9789a2.0493,2.0493,0,0,0-3.7219-1.2209q-5.0292,7.5567-9.701,15.34c-2.15-.3428-4.305-.6582-6.4659-.9331q-3.5628-.4531-7.14-.7856c-1.9117-.1779-3.7556-.304-4.97,1.4435a2.0808,2.0808,0,0,0,.5693,2.8161q5.23,4.2406,10.5475,8.372A85.921,85.921,0,0,0,397.1469,364.23a2.0508,2.0508,0,0,0,2.61,2.9357,107.0422,107.0422,0,0,0,16.1736-7.6737,61.1272,61.1272,0,0,0,8.76,14.3,1.802,1.802,0,0,0,1.6386.6712,1.6966,1.6966,0,0,0,2.1006-1.3414,55.6707,55.6707,0,0,0,.9957-8.9939q.344-4.8562.688-9.7123a1.9929,1.9929,0,0,0-.1449-.9345,103.5892,103.5892,0,0,0,12.7736-4.0851,1.6309,1.6309,0,0,0,.5721-.38A2.1767,2.1767,0,0,0,442.9494,345.2443Z" fill="#ff5122"/><path d="M514.8594,360.9984a78.6171,78.6171,0,0,0-13.7178,5.0207L490.54,352.7513a2.0493,2.0493,0,0,0-3.7008,1.2835q.5769,9.0589,1.5756,18.082-2.8778,1.5448-5.71,3.1749-3.1091,1.7978-6.1561,3.7c-1.6287,1.0166-3.1722,2.0333-3.08,4.1594a2.081,2.081,0,0,0,2.159,1.8957q6.73.2051,13.4635.2707a85.9289,85.9289,0,0,0,.83,18.5341,2.0507,2.0507,0,0,0,3.8548.7546,107.0461,107.0461,0,0,0,8.2188-15.9035,61.129,61.129,0,0,0,15.6331,6.07,1.8021,1.8021,0,0,0,1.71-.4588,1.6964,1.6964,0,0,0,.8586-2.34,55.6774,55.6774,0,0,0-4.6566-7.7588q-2.6684-4.0719-5.3365-8.1439a1.9921,1.9921,0,0,0-.6815-.6556,103.5956,103.5956,0,0,0,7.6878-10.9888,1.63,1.63,0,0,0,.2248-.649A2.1766,2.1766,0,0,0,514.8594,360.9984Z" fill="#ff5122"/><path d="M585.719,293.1572a78.6051,78.6051,0,0,0-13.7177,5.0207L561.3991,284.91a2.0493,2.0493,0,0,0-3.7007,1.2835q.5767,9.0588,1.5755,18.0819-2.8776,1.545-5.71,3.1749-3.1092,1.7979-6.1562,3.7c-1.6287,1.0166-3.1722,2.0333-3.08,4.1594a2.0807,2.0807,0,0,0,2.1589,1.8956q6.7305.205,13.4636.2708a85.9164,85.9164,0,0,0,.83,18.5341,2.0508,2.0508,0,0,0,3.8548.7546,107.0512,107.0512,0,0,0,8.2187-15.9036,61.1231,61.1231,0,0,0,15.6331,6.07,1.8018,1.8018,0,0,0,1.71-.4587,1.6964,1.6964,0,0,0,.8586-2.34,55.6667,55.6667,0,0,0-4.6566-7.7587q-2.6682-4.072-5.3365-8.1439a1.9934,1.9934,0,0,0-.6815-.6557,103.58,103.58,0,0,0,7.6878-10.9887,1.63,1.63,0,0,0,.2249-.649A2.1767,2.1767,0,0,0,585.719,293.1572Z" fill="#ff5122"/><path d="M442.88,282.87q5.71,3.5685,11.493,7.0179c-1.0222,1.606-2.0224,3.2255-2.9868,4.8643,8.9179,2.3539,17.7573,4.9785,26.4194,8.0516-.01-.18-.022-.361-.0314-.5412q-.253-4.8616-.506-9.7234a1.9942,1.9942,0,0,0-.2583-.91,103.6,103.6,0,0,0,12.1775-5.6182,1.6285,1.6285,0,0,0,.5212-.4472,2.1767,2.1767,0,0,0-.8239-3.699,78.6187,78.6187,0,0,0-14.3789-2.5752q-1.2363-8.4014-2.4726-16.8026a2.0493,2.0493,0,0,0-3.8433-.756q-4.0662,8.1155-7.75,16.4126c-2.1761-.077-4.3531-.1262-6.5316-.1345q-3.5913-.0136-7.1819.0943c-1.9192.0575-3.7646.158-4.756,2.0411A2.0807,2.0807,0,0,0,442.88,282.87Z" fill="#ff5122"/><path d="M116.83,326.4306h-.74a3.8876,3.8876,0,0,0,0,7.7752h.74a3.8876,3.8876,0,1,0,0-7.7752Z" fill="#fff"/><path d="M125.716,315.3232c-5.0029,0-5.0113,7.7752,0,7.7752C130.7189,323.0984,130.7272,315.3232,125.716,315.3232Z" fill="#fff"/><path d="M142.0069,356.7908c-5.003,0-5.0113,7.7752,0,7.7752C147.01,364.566,147.0181,356.7908,142.0069,356.7908Z" fill="#fff"/><path d="M147.19,349.3859c-5.003,0-5.0112,7.7751,0,7.7751C152.1933,357.161,152.2016,349.3859,147.19,349.3859Z" fill="#fff"/><path d="M153.8547,358.2718c-5.0029,0-5.0112,7.7752,0,7.7752C158.8577,366.047,158.866,358.2718,153.8547,358.2718Z" fill="#fff"/><path d="M131.5094,400.5029c-.0477.0022-.0925.0153-.14.019a2.9169,2.9169,0,0,0-.4647-.0406,3.9808,3.9808,0,0,0-3.8876,3.8876c-.162,2.3522,2.005,4.0837,4.18,4.1675a4.1634,4.1634,0,0,0,4.1994-4.1459A3.93,3.93,0,0,0,131.5094,400.5029Z" fill="#fff"/><path d="M107.2036,367.1577c-5.0029,0-5.0112,7.7752,0,7.7752C112.2066,374.9329,112.2149,367.1577,107.2036,367.1577Z" fill="#fff"/><path d="M159.7787,280.52c-5.003,0-5.0113,7.7752,0,7.7752C164.7817,288.2952,164.79,280.52,159.7787,280.52Z" fill="#fff"/><path d="M167.9241,288.6655c-5.0029,0-5.0113,7.7751,0,7.7751C172.9271,296.4406,172.9353,288.6655,167.9241,288.6655Z" fill="#fff"/><path d="M180.5125,282.7415c-5.003,0-5.0112,7.7751,0,7.7751C185.5155,290.5166,185.5238,282.7415,180.5125,282.7415Z" fill="#fff"/><path d="M162,310.88c-5.003,0-5.0113,7.7751,0,7.7751C167.0031,318.6554,167.0114,310.88,162,310.88Z" fill="#fff"/><path d="M200.3753,385.693c-.0477.0021-.0923.0153-.1395.019a2.9089,2.9089,0,0,0-.465-.0406,3.9808,3.9808,0,0,0-3.8876,3.8876c-.162,2.3523,2.0049,4.0838,4.18,4.1676a4.1636,4.1636,0,0,0,4.1994-4.146A3.93,3.93,0,0,0,200.3753,385.693Z" fill="#fff"/><path d="M204.2083,375.3032c-5.003,0-5.0113,7.7752,0,7.7752C209.2113,383.0784,209.22,375.3032,204.2083,375.3032Z" fill="#fff"/><path d="M218.2776,376.7841c-5.0029,0-5.0112,7.7752,0,7.7752C223.2807,384.5593,223.2889,376.7841,218.2776,376.7841Z" fill="#fff"/><path d="M227.9041,390.8535c-5.003,0-5.0113,7.7752,0,7.7752C232.907,398.6287,232.9153,390.8535,227.9041,390.8535Z" fill="#fff"/><path d="M246.2034,389.03a3.9578,3.9578,0,0,0-5.4979,0q-.37.37-.74.74a3.8876,3.8876,0,0,0,5.4979,5.4979l.74-.74A3.9331,3.9331,0,0,0,246.2034,389.03Z" fill="#fff"/><path d="M210.8728,400.48c-5.003,0-5.0113,7.7752,0,7.7752C215.8757,408.2551,215.884,400.48,210.8728,400.48Z" fill="#fff"/><path d="M200.5058,313.8422c-5.0029,0-5.0112,7.7752,0,7.7752C205.5088,321.6174,205.5171,313.8422,200.5058,313.8422Z" fill="#fff"/><path d="M221.24,329.3925c-5.0029,0-5.0112,7.7752,0,7.7752C226.2426,337.1677,226.2509,329.3925,221.24,329.3925Z" fill="#fff"/><path d="M221.98,321.2471c-5.003,0-5.0113,7.7752,0,7.7752C226.9831,329.0223,226.9914,321.2471,221.98,321.2471Z" fill="#fff"/><path d="M230.8661,325.69c-5.003,0-5.0113,7.7752,0,7.7752C235.869,333.4653,235.8773,325.69,230.8661,325.69Z" fill="#fff"/><path d="M238.5953,336.5369l-.7432-1.48a3.9131,3.9131,0,0,0-5.319-1.3947,3.9826,3.9826,0,0,0-1.3947,5.319l.7433,1.48a3.9129,3.9129,0,0,0,5.3189,1.3946A3.9824,3.9824,0,0,0,238.5953,336.5369Z" fill="#fff"/><path d="M256.7833,311.6207c-5.0029,0-5.0113,7.7752,0,7.7752C261.7863,319.3959,261.7945,311.6207,256.7833,311.6207Z" fill="#fff"/><path d="M194.3689,347.5625q-.37-.37-.74-.74a3.8876,3.8876,0,0,0-5.4979,5.4978l.74.74a3.8876,3.8876,0,1,0,5.4979-5.4979Z" fill="#fff"/><path d="M253.8213,365.6767c-5.0029,0-5.0112,7.7752,0,7.7752C258.8243,373.4519,258.8326,365.6767,253.8213,365.6767Z" fill="#fff"/></g></g></svg>