<svg xmlns="http://www.w3.org/2000/svg" viewBox="0 0 668.9183 239.3194"><title>green-blob</title><g id="Layer_2" data-name="Layer 2"><g id="Layer_1-2" data-name="Layer 1"><path d="M656.804,146.1219c-11.5211-10.455-26.2545-13.4693-41.318-14.6064-6.0781-.46-12.1059-.5567-17.9329-2.4682a38.6738,38.6738,0,0,1-3.8108-1.44c-.2306-.1485-.5188-.3341-.8878-.5746-2.4886-1.6215-4.9739-3.1774-7.387-4.9162-.1593-.1148-.9411-.7348-1.2827-.997-.7093-.61-1.4142-1.2289-2.1069-1.8548-1.8087-1.6358-3.5723-3.32-5.3217-5.0189-4.18-4.0581-8.2429-8.2378-12.5179-12.1974-9.1957-8.519-18.93-15.8981-30.7346-20.3909-12.3274-4.6915-27.74-4.4848-39.1143-6.448a35.1126,35.1126,0,0,1-14.1661-5.1871c-.3735-.2394-1.45-1.1407-1.8589-1.4689-.6171-.5778-1.2349-1.1568-1.8283-1.7552-2.06-2.0782-3.9766-4.2939-5.8545-6.5362-7.1352-8.518-13.748-17.2213-23.0521-23.5786a47.5645,47.5645,0,0,0-17.1324-7.2075c-7.962-1.6394-16.2168-.6062-24.0762-2.1634-10.1945-2.02-19.094-12.9664-29.0517-17.9409a84.8174,84.8174,0,0,0-78.5959.6031c-11.3167,6.1834-20.4635,15.2821-29.66,24.14-8.1714,7.871-14.5988,13.811-24.2714,16.2628-12.406,3.1453-25.3833,2.675-37.8456,5.5023a70.1341,70.1341,0,0,0-34.6013,19.6353c-3.4974,3.5358-6.73,7.3213-10.0919,10.9827-1.872,2.0385-3.77,4.0527-5.77,5.9665-.8768.8388-1.7682,1.6595-2.6861,2.4533q-.9738.861-1.9979,1.6616l-.007.0043c-4.7164,3.0588-7.0184,3.7037-13.1944,4.3187-4.2357.4222-13.3912.62-19.2342,1.3388-14.7609,1.8174-25.6383,9.4648-35.869,19.7366-1.9,1.9071-3.8333,3.763-5.8428,5.5545-2.8535,2.5432-1.6051,1.2294-.8764.7486-1.2021.7932-2.489,1.4205-3.7576,2.0932-.1689.0893-.9335.44-1.5452.7237-.8522.2681-3.2338,1.1268-3.0115,1.06-2.8294.8521-5.7107,1.5266-8.5982,2.1483-10.9977,2.366-21.9388,4.0425-32.32,8.6374-24.5455,10.8649-33.7452,37.508-23.41,61.72a46.876,46.876,0,0,0,25.2425,24.8273c11.7275,4.79,24.8329,2.7546,36.6965-.4019,5.2981-1.41,10.5407-2.9386,15.9366-3.9382.32-.0591.58-.1061.815-.1482l.0527.0357c-.1174.0126-.227.0216-.3155.0229.1167-.0016.2329.0007.35,0a72.386,72.386,0,0,0,26.9947,11.0556c15.1311,2.7628,29.29.7361,43.74-4.2423,13.1489-4.53,23.8119-7.43,37.6515-5.4678,13.4171,1.9032,27.1753,6.3067,40.8952,8.3117,14.6444,2.14,29.198.53,43.5865-2.61,12.5451-2.7386,25.4145-6.6813,37.419-6.2982,11.7253.3742,23.2714,6.2251,35.1847,9.8292a87.528,87.528,0,0,0,44.9941,1.4112c14.3269-3.1377,28.0484-8.1737,42.6712-10.0317a138.5765,138.5765,0,0,1,39.6443.9683c15.7274,2.6125,30.6258,7.1652,46.7213,4.5848,13.909-2.23,24.09-11.5847,37.053-15.8159,10.0115-3.2673,24.5813-.2213,36.3835,1.507,15.4577,2.2634,31.2427,2.5217,45.8133-3.9061C667.7905,202.853,679.5843,166.7953,656.804,146.1219Z" fill="#00dd7e"/><path d="M176.8275,148.091q-8.5575,7.5634-16.6153,15.6514c-3.1766,3.1883,1.7364,8.1844,4.929,4.98q8.0607-8.0909,16.6153-15.6514C185.1327,150.087,180.2024,145.1081,176.8275,148.091Z"/><path d="M154.6236,136.7158q-4.6911,10.413-8.711,21.0986c-1.5848,4.2125,4.9479,6.7467,6.5406,2.5131q4.0215-10.69,8.711-21.0987C163.015,135.1206,156.4737,132.6091,154.6236,136.7158Z"/><path d="M129.4328,137.4892q2.061,11.2334,4.8292,22.3095c1.0912,4.3664,7.9061,2.7372,6.8094-1.6512q-2.769-11.08-4.8291-22.31C135.4292,131.4062,128.62,133.059,129.4328,137.4892Z"/><path d="M109.9659,153.3773q7.2253,8.8448,14.9943,17.2106c3.0627,3.298,8.2457-1.4173,5.1677-4.7319q-7.7718-8.3689-14.9944-17.2106C112.2829,145.1559,107.1163,149.8891,109.9659,153.3773Z"/><path d="M179.7725,171.1668a2.2437,2.2437,0,0,0-.1449-1.1951c-5.529-13.65-19.8455-22.8132-34.56-22.4234-14.6267.3874-27.8961,9.4255-34.8575,22.071a2.2844,2.2844,0,0,0-.5779,1.802,2.3347,2.3347,0,0,0,.5338,1.3107,43.9766,43.9766,0,0,0,12.8507,14.4468,10.08,10.08,0,0,0,1.5128,1.0374,42.0676,42.0676,0,0,0,3.7129,2.1691,18.4008,18.4008,0,0,0,4.4222,1.956,38.1376,38.1376,0,0,0,12.45,2.4393c14.716.3529,29.0094-8.8465,34.5042-22.51A2.2605,2.2605,0,0,0,179.7725,171.1668Z" fill="#fff"/><path d="M161.9138,171.4435a12.53,12.53,0,0,0-1.07-6.48,12.4707,12.4707,0,0,0-3.1329-5.54l-1.2878-1.1162a16.3941,16.3941,0,0,0-1.3-1.1271l-.6271-.5436a16.9224,16.9224,0,0,0-3.0886-1.6058,16.2062,16.2062,0,0,0-5.3087-1.2161c-8.6886-.49-17.4434,6.68-17.5477,15.6734-.0015.131.0119.2593.0132.39a12.5052,12.5052,0,0,0,1.0825,6.2748,12.4716,12.4716,0,0,0,3.1329,5.5395l3.2153,2.7869a16.5606,16.5606,0,0,0,8.2557,2.7408l4.4492-.3442a16.6214,16.6214,0,0,0,7.5707-3.8582l.1154-.1031a12.4725,12.4725,0,0,0,3.4921-4.6249c.1912-.341.3671-.69.532-1.0444A12.5407,12.5407,0,0,0,161.9138,171.4435Z"/><path d="M321.0194,78.7q-8.5575,7.5633-16.6154,15.6513c-3.1765,3.1884,1.7365,8.1844,4.929,4.98Q317.3939,91.24,325.9484,83.68C329.3246,80.696,324.3943,75.7171,321.0194,78.7Z"/><path d="M298.8155,67.3247q-4.6911,10.413-8.711,21.0987c-1.5848,4.2124,4.9478,6.7467,6.5406,2.513q4.0214-10.69,8.711-21.0987C307.2069,65.73,300.6655,63.2181,298.8155,67.3247Z"/><path d="M273.6247,68.0982q2.061,11.2334,4.8292,22.31c1.0911,4.3664,7.9061,2.7372,6.8094-1.6512q-2.7692-11.08-4.8291-22.31C279.6211,62.0151,272.8119,63.668,273.6247,68.0982Z"/><path d="M254.1578,83.9863q7.2253,8.8448,14.9943,17.21c3.0626,3.298,8.2457-1.4173,5.1676-4.7319q-7.7717-8.3688-14.9944-17.2106C256.4748,75.7649,251.3082,80.4981,254.1578,83.9863Z"/><path d="M323.9644,101.7757a2.2449,2.2449,0,0,0-.1449-1.1951c-5.529-13.65-19.8455-22.8132-34.56-22.4234-14.6268.3875-27.8962,9.4255-34.8575,22.071a2.2845,2.2845,0,0,0-.5779,1.802,2.3328,2.3328,0,0,0,.5338,1.3107,43.9732,43.9732,0,0,0,12.8506,14.4468,10.0736,10.0736,0,0,0,1.5129,1.0375,42.13,42.13,0,0,0,3.7128,2.1691,18.4061,18.4061,0,0,0,4.4222,1.9559,38.1388,38.1388,0,0,0,12.45,2.4394c14.7159.3529,29.0094-8.8466,34.5042-22.51A2.26,2.26,0,0,0,323.9644,101.7757Z" fill="#fff"/><path d="M306.1056,102.0525a12.53,12.53,0,0,0-1.07-6.48,12.47,12.47,0,0,0-3.1329-5.54l-1.2878-1.1162a16.4517,16.4517,0,0,0-1.3-1.1272l-.6272-.5436a16.9246,16.9246,0,0,0-3.0885-1.6058,16.2087,16.2087,0,0,0-5.3088-1.216c-8.6885-.49-17.4433,6.68-17.5476,15.6734-.0015.1309.0119.2592.0131.39a12.5047,12.5047,0,0,0,1.0826,6.2747,12.47,12.47,0,0,0,3.1329,5.5395l3.2153,2.787a16.56,16.56,0,0,0,8.2557,2.7408l4.4492-.3443a16.6219,16.6219,0,0,0,7.5707-3.8582l.1154-.1031a12.4725,12.4725,0,0,0,3.492-4.6249c.1913-.3409.3672-.69.5321-1.0443A12.54,12.54,0,0,0,306.1056,102.0525Z"/><path d="M393.7076,145.3242q-8.5575,7.5635-16.6153,15.6514c-3.1766,3.1883,1.7364,8.1844,4.9289,4.98q8.0608-8.0909,16.6154-15.6514C402.0128,147.32,397.0825,142.3413,393.7076,145.3242Z"/><path d="M371.5037,133.949q-4.6911,10.413-8.711,21.0986c-1.5848,4.2125,4.9478,6.7467,6.5406,2.5131q4.0213-10.69,8.711-21.0987C379.8951,132.3538,373.3537,129.8423,371.5037,133.949Z"/><path d="M346.3129,134.7224q2.061,11.2334,4.8292,22.31c1.0912,4.3664,7.9061,2.7372,6.8094-1.6512q-2.7692-11.08-4.8291-22.3095C352.3093,128.6394,345.5,130.2922,346.3129,134.7224Z"/><path d="M326.846,150.6105q7.2253,8.8448,14.9943,17.2106c3.0626,3.298,8.2457-1.4173,5.1676-4.7319q-7.7717-8.369-14.9943-17.2106C329.163,142.3891,323.9964,147.1223,326.846,150.6105Z"/><path d="M396.6526,168.4a2.2447,2.2447,0,0,0-.1449-1.1951c-5.529-13.65-19.8455-22.8132-34.56-22.4234-14.6268.3874-27.8962,9.4255-34.8575,22.071a2.2844,2.2844,0,0,0-.5779,1.802,2.3338,2.3338,0,0,0,.5338,1.3107,43.9753,43.9753,0,0,0,12.8506,14.4468,10.08,10.08,0,0,0,1.5129,1.0374,42.08,42.08,0,0,0,3.7128,2.1691,18.4015,18.4015,0,0,0,4.4223,1.956,38.1376,38.1376,0,0,0,12.45,2.4393c14.7159.353,29.0094-8.8465,34.5042-22.51A2.26,2.26,0,0,0,396.6526,168.4Z" fill="#fff"/><path d="M378.7938,168.6767a12.53,12.53,0,0,0-1.0695-6.48,12.4707,12.4707,0,0,0-3.1329-5.54l-1.2878-1.1162a16.43,16.43,0,0,0-1.3-1.1271l-.6272-.5436a16.9183,16.9183,0,0,0-3.0885-1.6058,16.2062,16.2062,0,0,0-5.3088-1.2161c-8.6885-.49-17.4433,6.68-17.5476,15.6734-.0015.131.0119.2593.0131.39a12.5052,12.5052,0,0,0,1.0826,6.2748,12.4707,12.4707,0,0,0,3.1329,5.54l3.2153,2.7869a16.56,16.56,0,0,0,8.2557,2.7408l4.4492-.3442a16.6219,16.6219,0,0,0,7.5707-3.8582l.1154-.1031a12.4722,12.4722,0,0,0,3.492-4.6249c.1913-.341.3672-.69.5321-1.0444A12.5394,12.5394,0,0,0,378.7938,168.6767Z"/><path d="M497.7062,108.5773q-8.5575,7.5635-16.6153,15.6514c-3.1766,3.1884,1.7364,8.1844,4.929,4.98q8.0607-8.0908,16.6153-15.6514C506.0114,110.5734,501.0811,105.5945,497.7062,108.5773Z"/><path d="M475.5023,97.2021q-4.6911,10.413-8.711,21.0987c-1.5848,4.2124,4.9479,6.7467,6.5406,2.513q4.0213-10.69,8.711-21.0987C483.8937,95.607,477.3523,93.0954,475.5023,97.2021Z"/><path d="M450.3115,97.9756q2.061,11.2334,4.8292,22.31c1.0912,4.3664,7.9061,2.7372,6.8094-1.6512q-2.7692-11.08-4.8291-22.31C456.3079,91.8925,449.4987,93.5454,450.3115,97.9756Z"/><path d="M430.8446,113.8636q7.2253,8.8449,14.9943,17.2106c3.0626,3.298,8.2457-1.4173,5.1677-4.7319q-7.7718-8.3688-14.9944-17.2106C433.1616,105.6423,427.995,110.3755,430.8446,113.8636Z"/><path d="M500.6512,131.6531a2.2448,2.2448,0,0,0-.1449-1.1951c-5.529-13.65-19.8455-22.8132-34.56-22.4234-14.6267.3875-27.8961,9.4255-34.8575,22.071a2.2845,2.2845,0,0,0-.5779,1.802,2.3345,2.3345,0,0,0,.5338,1.3107,43.9745,43.9745,0,0,0,12.8507,14.4468,10.08,10.08,0,0,0,1.5128,1.0375,42.1042,42.1042,0,0,0,3.7128,2.169,18.4032,18.4032,0,0,0,4.4223,1.956,38.1377,38.1377,0,0,0,12.45,2.4394c14.716.3529,29.0094-8.8466,34.5042-22.51A2.26,2.26,0,0,0,500.6512,131.6531Z" fill="#fff"/><path d="M482.7924,131.93a12.53,12.53,0,0,0-1.07-6.48,12.47,12.47,0,0,0-3.1329-5.54l-1.2878-1.1162a16.4132,16.4132,0,0,0-1.3-1.1272l-.6271-.5436a16.9287,16.9287,0,0,0-3.0886-1.6058,16.2087,16.2087,0,0,0-5.3087-1.216c-8.6886-.49-17.4434,6.68-17.5477,15.6734-.0015.1309.0119.2592.0131.39a12.506,12.506,0,0,0,1.0826,6.2748,12.47,12.47,0,0,0,3.1329,5.5395l3.2153,2.7869a16.56,16.56,0,0,0,8.2557,2.7409l4.4492-.3443a16.6214,16.6214,0,0,0,7.5707-3.8582l.1154-.1031a12.4728,12.4728,0,0,0,3.4921-4.6249c.1912-.3409.3671-.69.532-1.0443A12.54,12.54,0,0,0,482.7924,131.93Z"/></g></g></svg>