<?xml version="1.0" encoding="UTF-8"?>
<svg width="592px" height="500px" viewBox="0 0 592 500" version="1.1" xmlns="http://www.w3.org/2000/svg" xmlns:xlink="http://www.w3.org/1999/xlink">
    <!-- Generator: Sketch 63.1 (92452) - https://sketch.com -->
    <title>Group 67</title>
    <desc>Created with Sketch.</desc>
    <defs>
        <polygon id="path-1" points="0.000240750028 0.161654413 631.243251 0.161654413 631.243251 132.687502 0.000240750028 132.687502"></polygon>
        <polygon id="path-3" points="0.70199265 0.0240949148 119.850913 0.0240949148 119.850913 118 0.70199265 118"></polygon>
    </defs>
    <g id="Site" stroke="none" stroke-width="1" fill="none" fill-rule="evenodd">
        <g id="Location-–-1440px" transform="translate(-848.000000, -1782.000000)">
            <g id="Location-/-Illustrations" transform="translate(-228.000000, 694.000000)">
                <g id="Group-67" transform="translate(1076.000000, 1088.000000)">
                    <path d="M549.671887,243.6547 C554.901806,227.879704 554.184136,206.670097 545.976297,191.912309 C537.454993,176.589814 524.212463,162.911774 506.901301,157.946219 C488.851388,152.769128 472.790421,154.669265 455.335359,161.65452 C452.502257,162.788532 449.659989,163.889434 446.804889,164.959985 C413.952452,175.293012 380.001055,181.102868 345.697696,183.883174 C297.402973,186.43539 247.485931,185.253553 199.784226,177.034957 C182.545473,173.120639 165.755837,167.754087 149.671956,160.264827 C153.969729,162.340629 158.266585,164.417352 162.564358,166.494074 C145.994697,158.489772 131.512971,153.076314 112.662897,156.822324 C96.2114733,160.09192 77.860927,171.569075 69.1718915,186.316747 C60.438861,201.139835 55.285933,219.267468 59.4902163,236.482742 C63.4919387,252.86843 72.9618875,272.427144 88.8835368,280.123341 C107.164424,288.959988 124.899955,297.236526 144.498863,302.575487 C163.83655,307.843629 183.738841,311.544573 203.592553,314.229228 C234.396467,318.393709 265.721907,319.756731 296.781542,319.976543 C333.704444,320.238663 370.994888,318.330249 407.541081,312.925988 C444.774698,307.419639 480.879107,296.849325 515.822228,282.865019 C531.08945,276.755335 544.650028,258.803368 549.671887,243.6547" id="Fill-1" fill="#FFB129"></path>
                    <g id="Group-5" transform="translate(0.000000, 191.000000)">
                        <mask id="mask-2" fill="white">
                            <use xlink:href="#path-1"></use>
                        </mask>
                        <g id="Clip-4"></g>
                        <path d="M628.806153,33.4461979 C619.698565,8.95677034 594.983604,-4.18179517 569.693514,3.09101172 C552.650611,7.99274966 535.490298,12.4643014 518.204318,16.4322876 C510.072707,18.2988738 501.914495,20.055391 493.736103,21.70826 C489.646907,22.5346945 485.549456,23.3207703 481.452005,24.105929 C480.839267,24.2242531 480.291656,24.3820186 479.822931,24.5471221 C478.666251,24.6764531 477.51691,24.7782669 476.49507,24.9516255 C442.04786,30.8063772 407.282356,34.7927083 372.404945,36.8950255 C337.522031,38.9973428 302.529961,39.2330738 267.623198,37.5930462 C259.549375,37.212391 251.489311,36.6758048 243.424661,36.1474738 C241.955192,36.022729 240.485723,35.8998186 239.017172,35.7695703 C234.340922,35.35406 229.669259,34.905529 225.000347,34.4221428 C207.36397,32.5940807 189.776208,30.2899703 172.266414,27.4960531 C133.113601,21.2496393 94.3974096,12.5450186 56.3077144,1.54729448 C32.6145939,-5.29440897 4.63506415,14.2043083 0.737577939,37.9535221 C-3.64239303,64.6388255 11.8723356,86.2242669 37.1449974,93.5218393 C176.872951,133.867619 326.817473,143.331715 470.481439,120.569453 C513.656487,113.728667 556.434356,104.639722 598.449973,92.5569014 C622.067877,85.764729 637.459691,56.71386 628.806153,33.4461979" id="Fill-3" fill="#FF5018" mask="url(#mask-2)"></path>
                    </g>
                    <path d="M591.268071,349.863521 C597.132804,332.271335 596.327481,308.620107 587.12405,292.163018 C577.57024,275.076134 562.72221,259.822798 543.312822,254.285535 C523.074264,248.512097 505.068229,250.631252 485.49741,258.421319 C482.321062,259.685488 479.13279,260.913042 475.932593,262.106725 C439.097775,273.629799 401.031124,280.108096 362.569149,283.209476 C308.4208,286.055459 252.453596,284.737281 198.969318,275.573197 C179.641564,271.206731 160.816448,265.222752 142.783815,256.870628 C147.601078,259.185679 152.420175,261.501645 157.238355,263.816695 C138.659973,254.89153 122.423265,248.855373 101.287661,253.03235 C82.8431936,256.678394 62.2670964,269.477538 52.525255,285.922726 C42.7338835,302.453047 36.9572036,322.667858 41.6708203,341.865658 C46.1560481,360.137988 56.7747561,381.94926 74.6257793,390.531149 C95.1239124,400.384531 115.008422,409.614524 136.983287,415.569211 C158.663722,421.443342 180.979794,425.570888 203.239916,428.564251 C237.777087,433.208083 272.899447,434.728564 307.724627,434.973892 C349.123555,435.265905 390.933399,433.137597 431.909486,427.111509 C473.655125,420.970995 514.136828,409.182455 553.316073,393.58859 C570.432399,386.775256 585.637229,366.756341 591.268071,349.863521" id="Fill-6" fill="#FFB129"></path>
                    <path d="M118.59102,84.0378853 C115.321049,84.2746219 112.306573,85.5366098 109.391354,86.932445 C107.67733,87.7528282 105.952278,88.6943112 104.080178,89.1240791 C101.632755,89.6867837 100.224774,88.7562269 98.1118836,87.762844 C95.3887457,86.483556 92.1877031,85.9554514 89.4498604,87.5643495 C87.5060749,88.7061481 86.7239654,90.3633039 86.3738083,92.2417174 C82.8593705,92.5813433 79.5544755,94.4360832 76.065771,94.284936 C72.218638,94.1183099 68.6196478,92.2799595 64.7146148,92.2553753 C61.6100722,92.2353437 58.5147201,93.4108318 57.3015773,96.2680599 C53.17873,94.3495833 48.2958304,96.2143389 44.1968783,93.6839893 C39.8736787,91.01524 36.033898,87.6144283 30.6161127,89.3416947 C28.3681225,90.058278 28.5565272,92.9018482 30.6161127,93.688542 C34.448541,95.1508454 37.5006979,97.5974267 39.9040072,100.887154 C41.4480071,103.000483 42.8725308,105.332338 45.1416592,106.77461 C47.554159,108.307935 50.3453064,108.531924 53.139211,108.42175 C54.8835632,108.353461 57.6002677,107.968309 59.6828295,108.54194 C59.8307961,111.423752 59.47972,114.312848 60.4934294,117.117266 C61.6422389,120.298641 64.1687006,122.62048 67.3826098,123.685795 C70.7941143,124.817578 74.711095,124.524388 78.1023804,123.453611 C80.664685,122.644154 82.9025657,120.81673 85.2902513,119.563847 C85.3169036,119.848842 85.3371227,120.135657 85.3748036,120.419741 C86.3443988,127.871479 92.5589983,132.802884 99.8350977,133.810835 C103.811816,134.360792 107.765559,133.673346 111.492297,132.244732 C113.696173,131.399764 115.805387,130.339913 117.83832,129.151678 C118.607563,128.702789 119.363939,128.232958 120.116639,127.754932 C120.679096,127.399827 121.236958,127.038349 121.791144,126.669586 C121.97771,126.592191 122.121082,126.525723 122.245153,126.464718 C122.495134,126.591281 122.743277,126.684154 122.987743,126.752444 C124.733015,116.555472 126.634524,106.387637 129.5139,96.4310439 C129.848433,95.2737663 130.364019,94.3195359 131,93.5410369 C129.705981,87.6708809 125.209081,83.5589491 118.59102,84.0378853" id="Fill-8" fill="#FFD500"></path>
                    <path d="M128.186489,95.4630038 C120.228446,135.188135 112.512008,174.960117 105.037175,214.776192 C104.587547,217.171055 108.356214,217.939946 108.80864,215.533142 C116.283473,175.717066 123.999911,135.945084 131.957954,96.2199529 C132.437433,93.8287653 128.667833,93.0626299 128.186489,95.4630038" id="Fill-10" fill="#000000"></path>
                    <g id="Group-14" transform="translate(103.000000, 395.000000)">
                        <mask id="mask-4" fill="white">
                            <use xlink:href="#path-3"></use>
                        </mask>
                        <g id="Clip-13"></g>
                        <path d="M103.570534,80.7989907 C103.434962,81.0166961 103.290229,81.2289132 103.151908,81.4447891 C90.2541985,74.6501845 77.3574046,67.8555798 64.4606107,61.0600605 C78.8138931,53.4979984 93.1671756,45.9359364 107.520458,38.3729597 C112.754656,52.0975488 111.483206,68.0796884 103.570534,80.7989907 M54.7525191,108.860122 C56.3738931,93.7771612 57.9943511,78.6951147 59.6148092,63.6130682 C59.7064122,63.5645876 59.7970992,63.5170217 59.8877863,63.4694558 L100.69145,84.9674093 C89.9079389,99.1996729 72.5555725,107.921611 54.7525191,108.860122 M21.1012214,98.7166961 C17.6120611,95.652355 15.1085496,91.9916109 13.3479389,87.9887581 C27.2532824,80.6626961 41.159542,73.3366341 55.0658015,66.0096574 L50.4526718,108.938789 C49.8581679,108.927812 49.2636641,108.908603 48.6700763,108.880247 C38.8850382,108.407332 28.5622901,105.270727 21.1012214,98.7166961 M11.8529771,83.9584636 C10.4184733,79.2723085 9.82671756,74.2568512 9.80198473,69.2413938 C9.75343511,59.1565101 12.2532824,49.4073318 16.7656489,40.7503395 L55.3158779,61.0600605 C40.8279389,68.6934713 26.340916,76.3259674 11.8529771,83.9584636 M49.2664122,11.6546496 C49.9149618,11.4076729 50.4480916,11.0619054 50.881374,10.6511922 C54.2459542,9.70902171 57.7103817,9.16384341 61.1940458,8.98913023 C59.4865649,24.8733938 57.78,40.7576574 56.0725191,56.6410062 C43.6703817,50.1070992 31.2691603,43.5731922 18.8679389,37.0392853 C25.8169466,25.6810992 36.3842748,16.5676574 49.2664122,11.6546496 M98.8923664,24.168138 C101.70458,27.300169 104.007481,30.7715643 105.814809,34.454262 L60.1635115,58.506138 C61.9387786,41.9897969 63.7140458,25.4743705 65.4883969,8.95802946 C78.0398473,9.43643256 90.4163359,14.7290527 98.8923664,24.168138 M110.718321,24.8368047 C95.6221374,1.57159535 64.5439695,-6.22829612 39.6673282,5.26526977 C38.6349618,5.74184341 37.9836641,6.42423101 37.6355725,7.19351783 C17.8877863,18.0568357 4.16839695,37.5250062 1.29206107,60.3612078 C-0.312824427,73.0951457 1.08778626,87.9448512 8.84198473,98.6169907 C15.7387786,108.10913 26.550687,114.063099 37.9003053,116.531037 C62.4664122,121.869394 89.7274809,112.345239 105.78458,93.0609287 C113.941832,83.2632698 119.126565,71.5693783 119.779695,58.7695798 C120.381527,46.9768977 117.152519,34.7533783 110.718321,24.8368047" id="Fill-12" fill="#000000" mask="url(#mask-4)"></path>
                    </g>
                    <path d="M504.740039,474.791302 C504.604637,475.009051 504.460085,475.221311 504.321023,475.437231 C491.440391,468.640332 478.559759,461.845262 465.679127,455.048362 C480.014422,447.484764 494.349718,439.921166 508.685013,432.356654 C513.911738,446.08403 512.642795,462.069416 504.740039,474.791302 M455.983201,502.858133 C457.601628,487.772108 459.220055,472.686998 460.839398,457.601889 C460.929971,457.553398 461.021459,457.505823 461.111118,457.458247 C474.69621,464.625687 488.280386,471.793127 501.864563,478.960567 C491.094565,493.195721 473.763944,501.918516 455.983201,502.858133 M422.374073,492.712646 C418.889286,489.647683 416.387997,485.986195 414.630507,481.982529 C428.518425,474.654979 442.407258,467.327429 456.296091,459.998965 L451.688742,502.936815 C451.094068,502.925836 450.501224,502.906623 449.907465,502.878261 C440.135604,502.40525 429.825792,499.268008 422.374073,492.712646 M413.137419,477.951416 C411.704712,473.264309 411.112783,468.247833 411.088996,463.231357 C411.040508,453.144425 413.537222,443.393267 418.043934,434.734516 L456.544939,455.048362 C442.07607,462.683324 427.606287,470.316455 413.137419,477.951416 M450.503969,405.632917 C451.151706,405.38589 451.684167,405.040052 452.115992,404.629256 C455.477271,403.686894 458.937357,403.141605 462.41574,402.966856 C460.711314,418.853431 459.006888,434.741836 457.300632,450.628411 C444.914951,444.093176 432.528355,437.557942 420.142675,431.022708 C427.083889,419.662215 437.63706,410.546923 450.503969,405.632917 M500.067734,418.148947 C502.876424,421.281614 505.176438,424.753714 506.980587,428.43716 C491.783472,436.456385 476.585442,444.474696 461.387412,452.493921 L466.705625,402.935749 C479.241346,403.414249 491.602325,408.707944 500.067734,418.148947 M511.878868,418.817749 C496.801603,395.547815 465.762381,387.746339 440.915999,399.242239 C439.884926,399.71891 439.234445,400.401436 438.887704,401.170879 C419.164665,412.036403 405.462468,431.508528 402.588822,454.349368 C400.986863,467.085892 402.385718,481.938613 410.130199,492.612921 C417.018351,502.106988 427.81671,508.062166 439.152105,510.530606 C463.687427,515.870046 490.914334,506.343957 506.950396,487.05573 C515.097425,477.256081 520.276576,465.559815 520.928887,452.757416 C521.529965,440.961424 518.304089,428.736337 511.878868,418.817749" id="Fill-15" fill="#000000"></path>
                    <path d="M318.339813,48.7176716 C317.930461,47.8905944 317.534906,47.0561816 317.143032,46.219935 C318.018771,45.5524048 318.807119,44.7610881 319.428048,43.8624898 C320.52732,42.270687 320.029658,40.3102756 318.041768,39.8618933 C317.317812,39.6986785 316.644449,39.6097357 315.963728,39.2924754 C315.271968,38.9687966 314.646441,38.556175 314.059548,38.0692814 C313.630878,37.7135098 313.231644,37.3293131 312.848968,36.9304455 C311.137046,33.2920392 309.480318,29.6325433 308.476714,25.7190559 L308.16947,25.3742876 C308.16487,25.367869 308.160271,25.3605335 308.156591,25.354115 C308.140033,25.3302746 308.116116,25.2871785 308.090359,25.2376639 C308.068281,25.2092389 308.046204,25.1817308 308.025046,25.1523888 C307.981811,25.0671136 307.937656,24.9809216 307.894421,24.8947295 C307.889822,24.8883109 307.885222,24.8818924 307.879703,24.8754738 C307.878783,24.8736399 307.540262,24.2061097 307.539342,24.202442 C307.539342,24.201525 307.531063,24.1630137 307.519105,24.1043297 C306.78227,23.881514 305.923089,24.0172207 305.326998,24.4958619 C304.610401,25.0707814 304.365709,25.9528749 304.541409,26.7790352 C303.971075,26.767115 303.393382,26.9394992 302.97575,27.2741812 C302.314347,27.8050878 302.072415,28.5560592 302.160724,29.3006121 C301.731134,29.1373973 301.24635,29.1080553 300.72753,29.2501806 C300.478239,29.3180339 300.254705,29.4253156 300.056008,29.5619392 C299.914344,29.6352942 299.77452,29.725154 299.637456,29.8351864 C299.179349,30.2047121 298.859226,30.6356725 298.643051,31.1078951 C298.04788,30.2615622 297.333123,29.5436004 296.295483,29.1960813 C295.692952,28.4781196 294.469494,28.3277419 293.656308,28.6862643 C292.672022,29.1208925 292.226793,30.1194369 292.301305,31.1464065 C292.325222,31.473753 292.352819,31.8010995 292.381335,32.1284461 C292.380416,32.4227829 292.393294,32.7217043 292.414452,33.0224597 C292.226793,33.0297952 292.043734,33.0582203 291.867115,33.1077349 C291.30506,32.8014779 290.601341,32.7217043 290.00893,32.8830853 C288.893099,33.1875084 288.206858,34.2951684 288.354041,35.4303365 C288.374279,35.5852988 288.399116,35.7393443 288.420273,35.8943066 C288.301607,35.8108654 288.174662,35.7384273 288.043117,35.6779095 C287.608007,34.7857297 286.654998,34.2089763 285.609998,34.3657725 C284.394819,34.5464091 283.43261,35.7668524 283.656144,36.9992158 C283.687421,37.1679322 283.715938,37.3366486 283.747214,37.5053651 C283.485964,37.5466272 283.241272,37.637404 283.015898,37.7611905 C282.360934,37.7135098 281.681133,37.9134021 281.180711,38.3278576 C280.894624,38.1499718 280.5791,38.0289361 280.259897,37.9904248 C280.207463,37.9840062 280.160549,37.9904248 280.109035,37.987674 C279.297688,43.8459849 279.204779,49.7804017 279.54422,55.7038152 C279.148666,57.6238814 279.398877,59.8914668 279.264572,61.71067 C278.995963,65.3490763 278.576492,68.96731 278.030075,72.5745404 C277.743068,74.4680155 279.569977,75.6389441 280.964536,75.3812848 C281.257982,76.3596567 282.197193,76.9840908 283.132725,77.0776184 C283.657064,77.7671551 284.552121,78.0679104 285.371746,77.9826353 C285.929202,78.2008663 286.553809,78.2274575 287.093787,78.0633257 C287.316401,78.1293452 287.545455,78.1559364 287.774508,78.1632719 C288.731198,79.1893245 290.534189,79.1884075 291.328057,78.1770259 C291.965543,78.7070156 292.869799,78.8647288 293.632391,78.657501 C293.831088,78.8106295 294.061981,78.9133264 294.302073,78.992183 C294.206404,81.7283232 298.579579,81.6613868 298.855547,78.831719 C299.233623,74.9732478 299.737725,71.1349492 300.359573,67.3094877 C300.399128,67.1774488 300.430405,67.0444929 300.47088,66.9133709 C300.47364,66.912454 300.476399,66.911537 300.479159,66.911537 C302.841446,67.3590023 305.271805,67.4066831 307.65065,67.0655825 C308.058162,67.0279881 308.464755,66.9793904 308.869509,66.9106201 C311.752455,66.4255604 314.355754,65.3206512 316.524863,63.341901 C318.672815,61.3824065 319.83648,58.707701 319.884315,55.8138476 C319.92203,53.5334251 319.199914,51.3602843 318.45848,49.2119007 C318.420764,49.046852 318.379369,48.8827203 318.339813,48.7176716" id="Fill-17" fill="#B10100"></path>
                    <path d="M384.144697,114.526576 C398.980743,152.057274 414.042009,189.498245 429.326662,226.848573 C430.244931,229.0945 433.771525,227.739436 432.846847,225.481607 C417.563109,188.131279 402.50276,150.690308 387.666713,113.15961 C386.773163,110.900864 383.2484,112.258675 384.144697,114.526576" id="Fill-19" fill="#000000"></path>
                    <path d="M397.893425,141.853622 C389.88606,151.116191 378.101567,154.818106 369.238742,145.689219 C359.883127,136.05124 360.601086,117.275218 365.196762,103.966455 C369.794283,90.6586083 379.050232,75.1340079 390.423145,76.0844376 C390.608633,76.2364331 390.82642,76.3398999 391.082966,76.3609595 C400.743113,77.1392497 408.510543,89.2512765 409.876326,102.587508 C411.409141,117.548993 405.885102,132.610281 397.893425,141.853622 M393.183319,72.5629033 C393.044895,72.4466176 392.882477,72.3568853 392.683147,72.3147661 C380.659641,69.7958527 370.681119,82.8106962 364.800869,96.4985317 C358.614241,110.900563 355.850376,130.958475 364.330228,144.834931 C372.283146,157.850691 386.054485,157.378223 395.75985,148.997411 C405.795588,140.331836 413.209575,123.999645 412.995479,106.913886 C412.791535,90.6036702 404.55254,75.1202733 393.183319,72.5629033" id="Fill-21" fill="#000000"></path>
                    <path d="M300.651689,38.3483921 C303.032209,37.202486 305.550348,36.3999258 308.191522,36.0190931 C308.940676,35.9117443 309.713524,36.256794 309.947749,37.0610582 C310.149163,37.7511578 309.754536,38.6840701 309.000826,38.7922709 C306.613015,39.1364687 304.305405,39.801861 302.150906,40.8387143 C301.475575,41.1641686 300.631638,41.0039974 300.205113,40.2951544 C299.825069,39.6621371 299.972712,38.6755504 300.651689,38.3483921" id="Fill-23" fill="#FFFFFF"></path>
                    <path d="M293.128886,37.2341887 C293.033251,37.1872593 292.972307,37.0942861 293.012624,36.9658944 C293.206706,36.36998 293.696131,36.0574128 294.305568,35.8696953 C294.81187,35.7138544 295.255352,35.6164538 295.726963,35.3649833 C296.065435,35.1843495 296.367341,34.9913193 296.744254,34.8877205 C297.640596,34.6424482 298.4188,34.6698974 299.215756,34.1288816 C299.904889,33.6604734 300.460883,33.2850385 301.324409,33.1894088 C301.899155,33.1265412 302.344513,33.0796118 302.844251,32.779441 C303.197725,32.5669307 303.502443,32.2897818 303.86623,32.0887824 C304.564739,31.7036075 305.278249,31.8727303 306.006761,31.6389689 C306.750274,31.4007803 307.136564,30.7933549 307.992588,31.0713893 C308.515767,31.2413975 308.893618,31.6504799 308.987377,32.1631611 C308.994878,32.2047777 308.993003,32.2428524 308.983627,32.2782708 C309.067073,32.6599039 308.824236,32.9822113 308.422007,33.185867 C307.604424,33.6002621 306.678079,33.8818383 305.822055,34.2200839 C304.931339,34.5716114 304.076252,34.7637562 303.141469,34.9691828 C302.235751,35.1684112 301.497864,35.74396 300.584646,35.909541 C300.292116,35.9617831 299.99021,35.9741796 299.69393,36.0131398 C299.460469,36.075122 299.228882,36.1335623 299.006672,36.1911172 C298.581004,36.36998 298.208778,36.6515562 297.784985,36.8357318 C297.408072,36.9995419 297.010531,37.0447003 296.612053,37.1385591 C296.165758,37.2448142 295.778531,37.45821 295.370677,37.6512402 C294.860625,37.8920852 294.225872,38.1391285 293.66144,37.9071381 C293.344533,37.7769755 293.138262,37.5219631 293.128886,37.2341887" id="Fill-25" fill="#000000"></path>
                    <path d="M308.037716,36.0847876 C309.926691,35.4778853 310.854443,38.3072587 308.962893,38.9150122 C307.07306,39.5227657 306.145308,36.6925411 308.037716,36.0847876" id="Fill-27" fill="#000000"></path>
                    <path d="M310.122912,34.0031398 C305.887894,34.329806 301.954138,35.711192 298.415674,38.1827427 C297.442505,38.8628982 298.355422,40.5230522 299.337719,39.8371489 C302.606873,37.5533595 306.200111,36.2217876 310.122912,35.9190705 C311.287794,35.8290218 311.296923,33.9121331 310.122912,34.0031398" id="Fill-29" fill="#000000"></path>
                    <path d="M301.303226,338.429572 C303.910087,332.796151 307.682185,327.284538 311.621401,322.610932 C319.307923,313.491767 333.378913,305.127267 343.239809,313.364464 C348.917238,318.106759 350.735338,325.539835 350.997952,333.227518 C351.018153,333.836561 350.887764,334.423624 350.65637,334.970389 C350.102676,337.935927 348.683089,340.858419 347.110157,343.529966 C338.045369,369.764621 328.981499,395.99836 319.917629,422.233931 C319.102239,424.593172 318.287767,426.952414 317.471459,429.311655 C314.948157,448.999782 330.480972,465.073946 342.323413,477.095453 C345.279202,480.097624 341.851442,484.721774 338.436536,484.903113 C338.283191,484.969055 338.106891,485.005689 337.906716,485 C332.608516,484.849078 327.249713,482.44496 322.250857,480.85412 C316.591792,479.05355 310.903344,477.243821 305.380177,475.056761 C302.130553,473.768153 296.603714,471.986816 294.62676,468.82437 C293.657107,467.271997 293.79025,465.336796 293.745257,463.587514 C293.697509,461.733824 293.884828,459.213392 292.83988,457.575844 C291.153088,454.934519 288.095374,454.028739 285.9109,456.41454 C284.220435,458.913908 282.529051,461.412359 280.838585,463.911726 C280.726561,464.07658 280.596172,464.195641 280.455683,464.278984 C280.174704,464.512527 279.79731,464.636167 279.352886,464.518022 C276.330984,463.71207 269.770215,462.899707 270.0062,458.849798 C270.206375,455.404353 271.623207,451.571501 272.410132,448.227716 C273.242051,444.692517 274.107943,441.167393 274.994956,437.646848 C275.037194,437.477415 275.106062,437.342784 275.190539,437.23105 C280.90378,413.111103 287.259783,389.125787 294.259467,365.3154 C296.192346,358.739564 298.18491,352.180213 300.216039,345.631853 C300.042493,343.218576 300.166455,340.887726 301.303226,338.429572" id="Fill-31" fill="#000000"></path>
                    <path d="M400.0979,77.7448415 C399.61051,77.5291324 399.140461,77.2747064 398.680452,77 C388.150449,101.225784 378.294942,125.742868 369.130362,150.529127 C368.279711,152.830024 371.83839,154.073577 372.685391,151.784664 C381.781517,127.184616 391.559443,102.850055 402,78.8012627 C401.367488,78.4472786 400.731325,78.0969819 400.0979,77.7448415" id="Fill-33" fill="#000000"></path>
                    <path d="M412.342367,115.861571 C412.629451,114.740205 412.807388,113.59098 413,112.445238 C396.195058,111.677346 379.378192,111.195891 362.554906,111 C362.632868,111.206338 362.657633,111.442278 362.594346,111.706948 C362.370549,112.640258 362.185274,113.581403 362.009172,114.52429 C362.007338,114.544315 362.002752,114.564339 362,114.584364 C378.769171,114.772419 395.531922,115.244297 412.282749,116 C412.300176,115.952986 412.31852,115.905102 412.342367,115.861571" id="Fill-35" fill="#000000"></path>
                    <path d="M310.11091,415.370029 C307.214331,413.803415 303.962597,414.674058 301.348296,416.332986 C300.429508,413.427826 298.514445,410.731729 295.284851,410.10635 C292.164109,409.501787 289.478777,411.54807 288.500028,414.383542 C286.001037,421.624721 293.666825,427.460382 293.953716,434.399279 C293.968475,434.764008 294.277505,434.9604 294.568086,434.969451 C294.774721,435.034613 295.01641,435.002032 295.197215,434.808355 C299.968269,429.677716 309.663509,430.049685 312.500127,422.92797 C313.609868,420.140465 312.896792,416.877816 310.11091,415.370029" id="Fill-37" fill="#FF510D"></path>
                    <path d="M320.111197,383.370411 C317.214586,381.803769 313.962818,382.673522 311.348488,384.33248 C310.42969,381.428173 308.514606,378.732028 305.284977,378.106639 C302.164201,377.50116 299.47884,379.547479 298.50008,382.383001 C296.001061,389.625214 303.666011,395.460978 303.953827,402.399999 C303.968587,402.764734 304.27762,402.96113 304.568204,402.969276 C304.774841,403.034439 305.016533,403.002762 305.19734,402.808177 C309.968446,397.677446 319.663791,398.049422 322.499518,390.928486 C323.610193,388.140026 322.89711,384.87732 320.111197,383.370411" id="Fill-39" fill="#FF510D"></path>
                    <path d="M331.110757,356.370934 C328.214198,354.80432 324.963409,355.674058 322.348204,357.332986 C321.429422,354.428731 319.514372,351.731729 316.2848,351.10635 C313.16408,350.501787 310.478767,352.54807 309.500025,355.383542 C307.00105,362.625626 314.666786,368.460382 314.953675,375.399279 C314.968434,375.764008 315.277462,375.961306 315.56804,375.969451 C315.774674,376.034613 316.016361,376.002032 316.197166,375.808355 C320.968187,370.677716 330.664281,371.049685 333.499958,363.92797 C334.609691,361.140465 333.897543,357.877816 331.110757,356.370934" id="Fill-41" fill="#FF510D"></path>
                    <path d="M314.621759,51.7011815 C314.701909,51.7263566 314.778416,51.7370076 314.856744,51.7563731 C314.913213,51.7176422 314.980612,51.6895622 315.058029,51.677943 C315.561699,51.6014494 316.065368,51.5249557 316.569037,51.4484621 C316.576324,51.4397477 316.574502,51.4261918 316.580878,51.4174774 C316.811309,51.1299002 317.129176,51.072772 317.462527,51.0853596 C317.526282,50.9130069 317.66108,50.8123064 317.817737,50.792941 C317.876027,50.5925084 318.029041,50.4753473 318.203003,50.4511404 C318.271312,50.0580214 318.606485,49.9156852 318.866972,50.0483387 C318.867883,50.0667359 318.868793,50.0841648 318.869704,50.1015937 C318.866972,50.1955162 318.866972,50.2913753 318.870615,50.3872344 L318.870615,50.4327432 C318.872437,51.3671272 319.09467,52.2385733 319.535495,53.0461134 C319.689419,53.2591336 319.845165,53.473122 320,53.6861422 C319.953549,53.7481117 319.898902,53.8003985 319.8397,53.8381611 C319.62202,54.0870074 319.204876,54.0724833 319.012699,53.6280458 C318.973535,53.5360598 318.941657,53.4431055 318.905225,53.3511196 C318.764052,53.359834 318.62379,53.295928 318.518137,53.1477821 C318.45256,53.1458456 318.387894,53.1264801 318.32596,53.0945271 C318.23397,53.2165295 318.106458,53.3036742 317.918835,53.3240079 C317.614629,53.3578975 316.826792,53.6609671 316.549,53.3685485 C315.715623,53.6580623 314.021545,53.058701 313.151737,52.7817747 C312.526932,52.5832787 313.993311,51.5007489 314.621759,51.7011815" id="Fill-43" fill="#FFFFFF"></path>
                    <path d="M319.755658,52.7204149 C318.912726,52.4978482 317.992757,52.7831097 317.155199,52.8531189 C315.583995,52.9837331 313.93038,53.1373354 312.644035,52.0391311 C312.555352,51.9638973 312.460399,52.0140531 312.389633,52.0495802 C312.072525,52.0746581 311.829768,52.5302405 312.15225,52.8259511 C313.744953,54.2930101 315.467544,55.6085565 317.462453,55.9126264 C318.463938,56.0651839 320.444515,56.1790795 320.898677,54.791434 C321.266844,53.6671067 320.573508,52.936712 319.755658,52.7204149" id="Fill-45" fill="#FF98AE"></path>
                    <path d="M319.883941,47.6424037 C319.416517,46.5329781 317.850782,47.1118088 317.38703,47.5209526 C315.88466,48.845717 314.292294,50.3315548 312.486877,51.3419246 C312.480449,51.34537 312.475857,51.3436473 312.469429,51.3470927 C312.365659,51.4116943 312.260971,51.4685438 312.151691,51.5193638 C312.092918,51.5469271 312.05894,51.592579 312.034146,51.6442603 C312.029554,51.6537352 312.025881,51.6623487 312.021289,51.6718236 C312.015779,51.6881894 312.010269,51.7045551 312.007514,51.723505 C311.990985,51.8027496 312.002005,51.8888852 312.037819,51.9577936 C312.044247,51.9724366 312.05343,51.985357 312.061695,52 C312.409738,51.9655458 312.755027,51.922478 313.100315,51.8751035 C315.413562,51.321252 320.861033,49.9611721 319.883941,47.6424037" id="Fill-47" fill="#FF98AE"></path>
                    <path d="M308.846665,22.0892963 C307.25444,21.71836 306.055031,22.5511304 305.478111,23.6988294 C304.25136,23.7631006 303.084761,24.4985461 302.791289,25.8666033 C302.347435,26.5524682 301.701248,26.602967 300.854553,26.0190177 C299.642384,25.7343884 298.255226,26.2081585 297.552532,27.2438421 C296.176311,26.0043272 293.824886,25.6838896 292.936266,27.7525023 C292.725731,28.6284262 292.233572,29.3051095 291.460701,29.7843886 C289.457432,29.0076259 287.545304,31.0422667 287.674724,32.9722373 C286.015055,30.6336859 282.09419,32.2735182 282.301991,35.0601314 C281.584715,34.6028881 280.78997,34.4284378 279.854868,34.6203331 C278.793992,33.8040896 277.310225,33.6590204 276.157297,34.9710699 C275.866559,35.3016072 275.586758,35.6835615 275.327007,36.1004058 C274.270689,36.6044752 273.413968,37.5106983 272.755022,38.73185 C271.972125,40.1825416 271.788933,41.7103585 272.248281,43.1169784 C272.2738,45.4445119 273.336499,47.7123652 275.729848,49.1492843 C279.206859,51.235342 281.99667,49.1823381 283.575224,46.2607555 C284.798329,46.8786766 286.095259,47.0687356 287.802321,46.1377221 C289.61146,45.1525373 290.440838,43.472306 290.713348,41.626806 C291.087025,41.4486831 291.448852,41.2329157 291.781515,40.9528771 C292.739402,40.1494878 293.206041,39.0981955 293.353689,37.9752868 C294.013546,37.8531717 294.644239,37.5712968 295.186525,37.1498617 C296.167197,36.3859533 296.862599,35.1611289 296.842548,33.8802968 C298.663535,34.3109135 300.595714,33.7930717 301.838871,32.1945565 C303.777429,32.23771 305.634873,31.7657762 306.941828,30.5336065 C308.866715,30.9394329 310.936516,30.5602331 312.176027,28.8818381 C314.360665,25.9235292 311.837896,22.7870973 308.846665,22.0892963" id="Fill-49" fill="#000000"></path>
                    <path d="M401.8685,148.548859 C393.440675,126.138812 384.431779,103.950982 374.859309,82 C373.92094,82.9812283 372.963233,83.9450816 372,84.9034481 C381.303575,106.313063 390.066598,127.949467 398.281702,149.79437 C399.135351,152.065003 402.726754,150.831381 401.8685,148.548859" id="Fill-51" fill="#000000"></path>
                    <path d="M309,51.6949609 C309.004651,50.7937071 309.709709,50.1192331 310.49815,49.9217783 C310.670477,49.8787684 310.86226,49.8523759 311.045705,49.834781 C311.235635,49.2345968 311.393138,48.6334351 311.887883,48.2150657 C312.397452,47.7849663 312.988551,47.7116539 313.617637,47.6989464 C313.649137,47.6989464 313.710285,47.7067664 313.768654,47.7096989 C313.782552,47.7057889 313.802008,47.7009014 313.830729,47.6930814 C313.839994,47.690149 313.852038,47.6872165 313.864082,47.6833065 C313.885392,47.649094 313.904848,47.6139041 313.924304,47.5845791 C314.319915,46.9863499 314.734981,46.4428607 315.441892,46.2600684 C315.696676,46.194576 315.967211,46.194576 316.228481,46.2072835 C316.241451,46.1818686 316.254422,46.1574311 316.26832,46.1339711 C316.37116,45.9521564 316.504574,45.7781616 316.643547,45.6295818 C316.911303,45.3461072 317.27078,45.13008 317.642302,45.0430826 C317.830379,44.9990952 318.019383,44.9902977 318.203754,45.0098477 C318.256564,45.0059377 318.3103,45.0039827 318.364036,45.0069152 C318.657733,45.0215777 318.968107,45.1330125 319.207141,45.3128723 C319.33129,45.4076896 319.435983,45.5132595 319.524926,45.6295818 C319.739871,45.8544065 319.897374,46.1417911 319.966861,46.4731631 C320.155865,47.3802819 319.508249,48.1779208 318.74019,48.4604179 C318.543775,48.5327528 318.354771,48.5611002 318.155576,48.5923802 C317.972132,49.1779019 317.624698,49.6852237 317.055835,49.9149359 C316.802903,50.0165957 316.56109,50.0762231 316.296114,50.1241206 C316.227554,50.1368281 316.158994,50.152468 316.089507,50.1651755 C316.030212,50.2619479 315.96999,50.3587202 315.909769,50.4535376 C315.692044,50.7907746 315.432627,51.0957542 315.091679,51.2951639 C314.615464,51.5737511 314.076248,51.581571 313.547223,51.5375836 C313.515723,51.5717961 313.487928,51.603076 313.482369,51.6079635 C313.481443,51.608941 313.480516,51.6099185 313.47959,51.610896 C313.451795,51.6470634 313.422148,51.6832309 313.393426,51.7193983 C313.266498,51.8777531 313.144201,52.0468604 312.99411,52.1817552 C312.464159,52.6548645 311.8675,52.8259268 311.253238,52.6861445 C310.863187,52.9774391 310.352692,53.067369 309.824593,52.9500691 C309.301128,52.8337468 308.997239,52.2110802 309,51.6949609" id="Fill-53" fill="#000000"></path>
                    <path d="M419.197555,103.268767 C420.788583,106.523755 420.005945,112.702465 416.918614,115.011246 C413.445943,117.607366 409.212704,117.172697 405.231455,116.284141 C402.604879,115.697566 399.915766,115.014906 397.324138,116.118509 C395.526184,116.884442 394.045516,118.286365 392.706477,119.664496 C389.94563,122.504946 385.415338,125.737056 381.897602,127.703591 C379.925831,128.805364 379.934108,126.594498 380.524536,125.021453 C379.231481,125.394811 378.021196,124.472397 377.716785,123.358728 C376.798955,123.359643 376.052184,122.622993 375.768925,121.741758 C375.485667,121.90556 375.207927,122.079427 374.92191,122.241399 C373.204887,123.215973 371.454756,121.825031 371.448318,120.348986 C370.448638,120.122043 369.69083,119.045893 369.669678,118.020988 C368.157741,117.594555 367.217839,115.341595 368.876923,114.097068 C376.960817,108.029083 385.977256,101.260137 395.635624,97.9136408 C404.229935,94.9377571 414.933968,94.5525028 419.197555,103.268767" id="Fill-55" fill="#B10100"></path>
                    <path d="M411.160915,209.32092 C408.057805,200.330226 402.122536,192.619207 394.156057,187.41349 C385.084725,181.486869 373.459506,179.477131 362.789935,180.114678 C345.481174,181.147943 330.223761,188.469656 314.634984,195.097029 C315.029509,194.359637 315.45241,193.62774 315.912842,192.902256 C318.398991,188.985373 316.729354,183.430654 312.833532,181.149775 C309.166554,179.003551 304.734325,180.002924 302.038556,182.990967 C301.830766,182.800436 301.611077,182.616316 301.377657,182.441357 C300.973063,182.139072 300.531854,181.87068 300.064099,181.638928 C299.467277,178.544627 297.396706,175.884518 294.0556,174.965754 C291.293924,174.206377 288.763837,174.86316 286.79945,176.381914 C283.673456,175.499791 280.379034,176.561453 278.138204,178.914697 C278.01646,178.912865 277.8938,178.913781 277.77114,178.918361 C277.484629,177.296098 276.725786,175.745283 275.459827,174.478434 C272.272503,171.287951 266.481863,171.061695 263.321085,174.478434 C247.027471,192.088834 238.213358,218.969312 255.171532,239.239822 C272.367702,259.795212 302.030317,257.43922 325.040012,250.392312 C330.135886,248.832337 335.173175,247.061679 340.137235,245.103238 C339.875439,247.996931 339.797632,250.907113 339.557805,253.812714 C339.451622,255.092388 339.288686,256.836482 338.63328,258.504546 C338.657995,258.378136 338.023642,259.656894 337.933021,259.813533 C337.751777,260.081009 337.684039,260.195511 337.725231,260.169863 C337.468927,260.467568 337.214454,260.768021 336.938927,261.050154 C334.995593,263.057144 332.829824,264.299261 329.659892,266.344724 C326.208942,268.572474 322.680184,270.955031 319.995399,274.099712 C316.894121,277.73263 314.932479,281.937142 314.188282,286.661035 C313.537453,290.790433 313.758973,295.841343 313.091667,299.382659 C312.424361,302.926724 310.799577,305.168214 308.22189,307.711073 C305.096812,310.794382 302.016587,312.805952 298.422838,315.537511 C290.770332,321.356042 283.700917,328.283868 282.088032,338.214394 C281.229414,343.501636 281.859189,348.81361 284.59615,353.500862 C287.368811,358.250403 292.172681,361.516915 296.841991,364.1871 C305.440076,369.105188 315.016694,372.397348 324.946644,372.941462 C342.656338,373.912438 362.183044,362.737964 365.885722,344.355362 C366.882562,339.41071 366.320523,334.863608 366.082527,329.898804 C365.980921,327.78922 365.881145,329.542474 366.222579,328.03746 C366.252786,327.903722 366.80384,326.501302 366.752579,326.505882 C367.043667,325.943448 367.356724,325.392923 367.692665,324.858886 C367.846448,324.61431 369.437364,322.477245 368.97327,323.027771 C373.811924,317.077333 379.563204,311.729634 381.674051,304.079072 C383.061754,299.047398 382.258058,294.056945 382.704759,288.97031 C383.041616,285.126708 384.557471,283.691312 387.441807,280.910288 C394.376662,274.226122 399.995212,267.404554 403.160567,258.140888 C404.69473,253.651496 405.111224,249.027449 405.59454,244.340197 C405.963435,240.76224 408.035836,238.082894 409.73202,234.606615 C413.561934,226.764605 414.008636,217.571472 411.160915,209.32092" id="Fill-57" fill="#FFFFFF"></path>
                    <path d="M319.478181,13.4968622 C316.145021,16.225799 312.602854,18.6525319 308.902791,20.7715995 C308.80787,20.5576902 308.683744,20.3428706 308.522197,20.1298715 C305.808756,16.5553103 303.095316,12.9807491 300.381875,9.40527766 C298.275376,6.62900782 296.172528,2.49828238 293.043811,0.741495233 C290.73652,-0.553793946 288.095182,-0.107770265 286.222333,1.73367036 C285.324242,2.61752545 284.698133,3.72257187 284.326667,4.92956657 C284.166032,5.45205145 284.072937,5.97999785 283.989882,6.51249551 C283.332742,5.85620352 282.692943,5.16441169 282.358897,4.92774606 C281.458068,4.29238988 280.490612,3.72166162 279.357958,3.63882865 C276.864477,3.45859867 275.090199,5.27273173 274.342702,7.47918357 C273.294016,10.578593 273.729371,14.4316915 273.846196,17.6321389 C274.008656,22.0614272 274.534368,26.453395 275.316547,30.8144143 C275.320198,30.8335296 275.328412,30.8490039 275.332063,30.8681192 C269.76919,31.2185664 264.145166,30.9655162 258.559476,30.0661868 C254.738024,29.4508562 253.495847,35.331997 257.328251,35.9491482 C280.517993,39.6839138 304.655111,33.3713133 322.841461,18.4832249 C325.810456,16.0519408 322.482772,11.0373602 319.478181,13.4968622" id="Fill-59" fill="#00310F"></path>
                    <path d="M387.687992,213.655527 C385.066808,214.114445 382.446538,214.57428 379.825354,215.033197 C382.023384,213.750982 384.289958,212.577989 386.629648,211.519725 C389.610925,210.170508 387.263009,206.299998 384.595215,206.675393 C381.178902,207.155421 377.68856,207.793316 374.420305,208.845155 C374.479711,207.917223 374.571105,206.991128 374.735615,206.067786 C374.986035,204.659828 374.355415,203.211484 372.892195,202.807637 C372.540328,202.710346 372.154644,202.707593 371.775359,202.772759 C371.134686,202.81039 370.494013,203.082987 369.941078,203.517123 C368.645109,204.535002 367.5694,205.733694 366.669168,207.059048 C366.55127,205.454673 366.367568,203.846626 366.102525,202.231236 C365.712272,199.852208 362.378213,199.825591 361.278742,201.59793 C359.116357,205.084785 357.452983,208.751535 356.241097,212.569728 C355.275061,209.39402 354.309939,206.218311 353.344817,203.042602 C352.57802,200.52131 349.02553,200.526817 348.255077,203.042602 C346.819275,207.724478 345.583626,212.452246 344.540819,217.226823 C343.588492,214.096088 342.805245,210.913036 342.181023,207.685929 C341.629002,204.833298 337.955872,205.530853 337.091283,207.685929 C336.187395,209.935542 335.484574,212.233801 334.943521,214.559594 L333.436431,209.352717 C332.713504,206.855289 329.048599,206.807561 328.345778,209.352717 C327.679515,211.766623 327.013251,214.181446 326.347902,216.59627 C325.953993,214.480661 325.506162,212.37423 324.987957,210.276977 C324.414002,207.947512 321.369663,207.826358 320.164175,209.644589 C319.783975,210.218235 319.427538,210.802896 319.083896,211.392146 C318.958686,210.324704 318.824337,209.256345 318.667139,208.187067 C318.306132,205.724516 314.973901,205.885137 313.843356,207.553761 L308.481262,215.465497 C308.902589,214.189707 309.32483,212.912999 309.747071,211.63629 C310.574188,209.134273 307.092985,207.136146 305.335476,209.057174 C303.425338,211.144331 301.515201,213.231487 299.605063,215.318644 C300.254875,214.034593 300.890065,212.743199 301.547189,211.463737 C302.675906,209.265523 300.269498,206.266956 297.936206,207.837372 C296.482125,208.816702 295.062774,209.837334 293.666272,210.885501 C294.986917,209.122341 296.357829,207.39314 297.779922,205.699734 C299.752208,203.353748 297.335747,200.268905 294.582041,201.537353 C292.124453,202.669044 289.702508,203.864983 287.308896,205.11232 C289.07463,203.142646 290.838537,201.173891 292.603358,199.204217 C294.22926,197.389657 292.684699,193.815608 290.035183,194.774746 C287.290617,195.767843 284.546051,196.761858 281.802399,197.754956 C283.612917,196.379121 285.422521,195.003287 287.233039,193.626534 C288.248427,192.854635 288.497019,191.712849 288.269448,190.705066 C288.336166,189.682598 287.879195,188.631677 287.052992,188.120443 C287.887421,186.747362 287.148956,184.532627 285.484669,184.113176 C281.481605,183.106311 277.478542,182.098528 273.475479,181.090746 C270.179806,180.261023 268.774164,185.372445 272.072579,186.202168 C273.689341,186.609687 275.307017,187.016288 276.92378,187.423806 C274.913109,188.360916 272.902438,189.298025 270.891766,190.236052 C267.979949,191.59353 265.13028,192.8271 264.32327,196.216665 C263.880008,198.072527 265.581767,200.15234 267.56959,199.476814 C269.545531,198.805877 271.522386,198.134939 273.499241,197.464002 C270.706236,199.586954 267.913232,201.710824 265.120227,203.833776 C262.962411,205.473947 264.073764,209.793278 267.15466,208.678109 C272.023226,206.914948 276.892706,205.152705 281.762185,203.389544 C278.549681,206.974607 275.337177,210.55967 272.124673,214.145651 C270.213622,216.277781 272.696801,220.04274 275.323468,218.308032 C279.076112,215.829878 282.920149,213.517852 286.849183,211.36094 C283.825865,215.699545 281.064848,220.216211 278.599948,224.930211 C277.267422,227.477202 280.669111,230.496879 282.744672,228.141715 C285.55687,224.952239 288.555512,221.978454 291.73877,219.215771 C290.069913,222.593403 288.424818,225.983885 286.806228,229.387217 C285.590686,231.945223 288.793136,234.956639 290.951866,232.599639 C294.244797,229.001726 297.536814,225.403813 300.829745,221.806819 C299.713822,225.182615 298.5979,228.558412 297.482891,231.934209 C296.494921,234.924515 300.700879,236.346241 302.306674,233.977309 C306.301512,228.082973 310.295435,222.188638 314.290273,216.29522 C314.516017,219.580151 314.56537,222.872425 314.448385,226.171123 C314.377098,227.038477 314.334142,227.912256 314.324089,228.79246 C314.282962,232.227916 319.39555,232.172846 319.602101,228.79246 C319.647798,228.045342 319.6807,227.300978 319.708118,226.556614 C319.930206,223.882961 320.511472,221.325873 321.408963,218.867911 C322.053291,222.542004 322.504778,226.24455 322.751543,229.991152 C322.942556,232.886003 327.108301,233.696452 327.936332,230.696049 C328.941668,227.052245 329.946089,223.40844 330.952339,219.765554 C331.978695,223.312068 333.005051,226.858582 334.031407,230.405096 C334.829278,233.160436 339.513228,232.777699 339.216197,229.700199 C338.853362,225.964611 338.962121,222.327231 339.516883,218.753182 C340.525875,222.015167 341.710343,225.223918 343.061148,228.399626 C343.927565,230.43722 347.531236,229.927822 347.884931,227.76632 C348.690113,222.85774 349.699105,217.997804 350.910077,213.185596 C351.994925,216.757809 353.081602,220.329104 354.16645,223.902236 C355.073994,226.887952 359.069746,226.101368 359.35124,223.197338 C359.682086,219.781157 360.409584,216.489801 361.505399,213.325107 C361.354599,215.895044 360.992678,218.457639 360.403186,221.006467 C359.621766,224.377674 364.313027,225.574531 365.492926,222.415343 C365.716841,221.815079 365.988282,221.260707 366.282571,220.730198 C366.888514,221.725131 368.140614,222.439207 369.348844,222.228105 C371.568808,221.838943 373.789686,221.449781 376.010563,221.059701 L364.199699,228.691498 C361.623298,230.355533 363.307692,234.104888 366.233218,233.53583 C367.370161,233.314632 368.502535,233.166861 369.63308,233.053049 C366.097041,233.811181 362.54912,234.519749 358.983835,235.142959 C356.437594,235.588109 356.491517,239.765176 358.983835,240.254382 C362.338914,240.915223 365.667488,241.669683 368.980526,242.491145 C364.930852,243.292415 360.933272,244.364446 356.999668,245.730185 C354.663634,246.541551 354.322734,250.182602 356.999668,250.841607 C359.513007,251.460228 362.025432,252.078848 364.538771,252.697469 C360.241418,253.595112 355.944066,254.492754 351.6458,255.389479 C348.962468,255.950276 349.314335,259.756537 351.6458,260.501819 C355.486181,261.728964 359.325649,262.956109 363.164203,264.184173 C358.448265,264.889988 353.754262,265.74541 349.087678,266.761453 C346.457354,267.3351 346.694979,271.169814 349.087678,271.873793 C352.310235,272.821916 355.531878,273.77004 358.754436,274.718163 L343.858105,276.629096 C340.932579,277.005408 340.238897,280.743749 343.156198,281.835973 C346.473805,283.077803 349.792327,284.318716 353.110848,285.561465 L336.460663,287.430176 C334.047858,287.700938 332.633991,290.974855 335.129051,292.369046 C340.006756,295.095015 345.112033,297.296901 350.309617,299.282178 C342.869221,300.534105 335.428824,301.786949 327.989341,303.039794 C325.592073,303.442724 325.631372,306.754272 327.358721,307.884126 C329.820879,309.494009 332.33239,311.005683 334.876803,312.459533 C330.321719,312.140127 325.771205,311.768404 321.223433,311.337021 C318.502629,311.07911 317.791583,315.010196 319.89182,316.276809 C322.847507,318.058326 325.88819,319.663619 328.998332,321.110127 C324.513622,321.15969 320.027083,321.208335 315.542373,321.256063 C313.105805,321.28268 311.709303,325.06416 314.209846,326.194932 C319.198139,328.451888 324.247665,330.55373 329.347458,332.528911 C322.497467,333.346702 315.647476,334.16541 308.796572,334.983201 C305.847283,335.33565 305.203868,339.096019 308.095579,340.18916 L316.226001,343.262989 C313.303217,343.376801 310.376776,343.621863 307.436627,344.024792 C304.767918,344.391009 305.082314,348.535951 307.436627,349.136215 C309.623689,349.695176 311.811664,350.25322 313.998726,350.812181 C311.28889,351.10956 308.583623,351.466598 305.882926,351.897062 C303.096319,352.341294 303.671188,356.245764 305.882926,357.009402 C310.533974,358.615613 315.185022,360.221824 319.83607,361.828953 C316.6455,362.493466 313.454931,363.158896 310.265275,363.823408 C306.940357,364.516374 308.346912,369.627796 311.668175,368.935749 C317.935072,367.628752 324.201054,366.322673 330.468864,365.015676 C333.193323,364.447536 332.751889,360.692674 330.468864,359.904254 C326.399997,358.499048 322.332044,357.093843 318.26409,355.688638 C322.598914,355.327929 326.947448,355.146198 331.310604,355.14528 C334.256237,355.14528 334.935295,350.68552 332.012511,349.93932 L327.672203,348.831494 C329.356597,349.004047 331.038249,349.216984 332.711676,349.495088 C336.059443,350.051296 337.320682,345.595208 334.114576,344.383666 L319.795856,338.970276 C326.724446,338.143307 333.653949,337.315419 340.582539,336.487532 C343.46968,336.142427 344.2511,332.297616 341.284446,331.280655 C336.874679,329.769899 332.510609,328.146249 328.186752,326.419802 C333.136659,326.367485 338.086565,326.313333 343.036472,326.260098 C346.022318,326.227056 346.607241,321.903136 343.738379,321.053221 C340.567002,320.113358 337.476052,319.000025 334.452734,317.733412 C338.676971,318.033544 342.90395,318.285949 347.135499,318.490626 C349.657063,318.61178 350.861638,314.663255 348.468025,313.550839 C344.218198,311.577494 340.093581,309.392129 336.065841,307.027787 L361.369222,302.768115 C364.15126,302.299101 363.588272,298.428592 361.369222,297.656692 C356.082071,295.814598 350.817769,293.938543 345.707922,291.692601 L364.353241,289.599938 C367.309841,289.2686 367.941375,285.473352 365.054234,284.393061 C361.617814,283.107174 358.179567,281.821287 354.742233,280.534483 C360.349264,279.8149 365.957208,279.096236 371.564238,278.377571 C374.353587,278.019615 375.342472,274.075679 372.266145,273.170694 C368.517158,272.067456 364.769998,270.964219 361.02101,269.860981 C365.809149,269.06889 370.621965,268.438337 375.464026,267.984927 C378.362134,267.714165 379.128017,263.726173 376.165933,262.778967 C371.683965,261.347145 367.20291,259.913487 362.721855,258.481664 C367.540154,257.4748 372.359367,256.468853 377.177666,255.461988 C379.747669,254.925972 379.63891,250.956336 377.177666,250.350565 L368.04465,248.102788 C372.747792,247.050031 377.527706,246.385519 382.390788,246.145964 C385.355614,246.000946 385.984405,241.85325 383.092695,240.940004 C379.549344,239.822081 375.980403,238.806038 372.391355,237.879025 C376.917193,236.884092 381.421096,235.786362 385.897581,234.57023 C388.463015,233.872676 388.352428,230.209597 385.897581,229.45789 C382.487666,228.414312 379.040279,227.817719 375.572785,227.641495 C380.288723,224.594283 385.00466,221.547989 389.721512,218.49986 C392.328987,216.815633 390.594326,213.146129 387.687992,213.655527" id="Fill-61" fill="#FF98AE"></path>
                    <path d="M290.43617,184.566561 C291.513496,183.64455 291.578117,181.679864 289.825962,181.405379 C282.746262,180.297308 279.452434,173.961128 276.650649,168.177602 C275.162518,165.105765 273.671617,162.105774 271.675749,159.31395 C269.984524,156.946748 268.063431,154.720472 266.650076,152.170894 C262.982369,145.551939 266.704542,139.039831 266.330663,132.104942 C265.982633,125.672047 260.90434,119.626011 263.32486,113.150746 C263.730127,112.067544 263.098687,111.281854 262.240149,111 C260.844334,112.401899 259.529757,113.86367 258.284417,115.378863 C258.28534,115.388995 258.280724,115.400048 258.279801,115.411101 C258.133942,115.522553 257.993622,115.649664 257.870842,115.813618 C254.061891,120.895273 251.494588,125.967717 250.736675,132.292844 C250.72929,132.294687 250.722828,132.298371 250.715443,132.299292 C250.627743,136.509596 251.02747,140.819377 249.971377,144.850069 C248.712189,149.660002 244.204408,152.866317 241.378621,156.784636 C235.598727,164.800885 237.481047,175.75449 245.145106,181.935927 C249.237466,185.236194 254.135744,186.536773 259.356203,185.799901 C264.32741,185.09803 269.31708,181.975534 274.389834,182.950969 C280.588842,184.144702 285.612668,186.243867 292,184.912891 C291.476569,184.829072 290.954985,184.706567 290.43617,184.566561" id="Fill-63" fill="#00310F"></path>
                    <path d="M390.627098,139.240704 C390.319419,134.490976 390.162365,129.702789 389.66916,124.968628 C388.840722,117.013956 384.659958,110.236873 376.363641,108.450345 C368.461337,106.749893 360.626998,110.344009 355.492889,116.320773 C353.19953,118.990034 351.629907,122.069527 349.604735,124.916434 C347.313214,128.140608 344.860046,128.398835 341.054927,128.416233 C337.091835,128.433631 333.342741,128.657062 329.662531,130.232063 C327.902789,130.985683 326.293673,131.915116 324.642308,132.877515 C323.404244,133.600002 321.662871,135.066035 320.136415,135.094421 C317.588648,135.141122 317.325972,131.343721 317.200145,129.412513 C316.905324,124.90453 317.550073,120.399293 316.0925,116.013098 C315.322843,113.698213 314.081105,112.018822 312.844877,109.979561 C311.718863,108.124356 312.153288,107.183934 312.723643,105.130938 C314.104066,100.155949 314.172949,95.6855093 311.943882,90.9302876 C311.104423,89.1382658 310.04913,87.2821451 308.819331,85.4681466 C305.342097,79.3320516 299.614672,74.512731 292.888896,72.2298949 C292.570196,72.0669006 292.234045,71.916726 291.8584,71.8004323 C285.263963,69.7483522 277.539837,71.7088625 272.951284,76.9136922 C268.083523,81.07371 265.550451,87.1530317 265.975691,93.75247 C266.239285,97.8502204 266.120805,100.782287 264.566796,104.649281 C263.108305,108.278194 261.506536,111.719388 261.091399,115.656891 C260.661566,119.743653 261.795846,123.348758 263.485786,127.021624 C265.376865,131.132194 266.331129,133.482792 265.4035,138.085092 C264.585165,142.148046 263.907352,146.165215 264.992036,150.252893 C266.038145,154.194974 268.42794,157.430137 270.921519,160.570982 C273.093643,163.306173 275.127081,165.905841 276.642516,169.075989 C278.061514,172.045599 279.182936,175.170877 281.065749,177.895996 C283.144191,180.904065 285.845338,183.397512 289.3538,184.617222 C293.592425,186.091497 297.734614,185.287513 302.082534,185.200522 C306.233907,185.118109 309.660627,187.095102 313.273791,188.877051 C317.236883,190.831151 321.189872,192.470252 325.630555,192.908871 C329.3971,193.28156 333.281205,192.517868 336.501275,190.493259 C339.419176,188.658199 341.241372,184.83699 344.747996,184.146553 C351.757571,182.76568 358.633972,185.476147 365.130136,181.169618 C367.964458,179.290605 369.971261,176.473001 371.367298,173.423725 C372.692615,170.531034 373.474212,166.891133 375.645417,164.470026 C377.527312,162.37033 380.584816,161.397858 382.92777,159.906185 C386.10651,157.88066 388.926137,155.260847 390.161446,151.606295 C391.507887,147.62026 390.892529,143.346695 390.627098,139.240704" id="Fill-65" fill="#00310F"></path>
                </g>
            </g>
        </g>
    </g>
</svg>