<svg xmlns="http://www.w3.org/2000/svg" width="509.6322" height="600.2836" viewBox="0 0 509.6322 600.2836"><title>microphone</title><g id="Layer_2" data-name="Layer 2"><g id="Layer_1-2" data-name="Layer 1"><path d="M216.9045,499.62c1.8786-7.8319-10.2353-11.0423-12.12-3.1829-5.5848,23.2821-15.3323,46.3815-31.619,64.2593-16.2992,17.8915-41.3787,31.5366-66.1876,25.8164a42.0626,42.0626,0,0,1-28.6582-23.8253,75.1129,75.1129,0,0,0,34.7145-21.6912c6.0735-6.7249,11.3945-14.6781,12.0064-23.967.5061-7.6825-3.1815-15.9114-9.9394-19.8849-15.1694-8.9191-34.6059,7.081-43.0434,18.7493a52.5529,52.5529,0,0,0-9.46,37.0291c-10.6732.6634-20.9648-2.4728-28.3-11.6534-8.4032-10.5165-9.9035-25.4514-6.0936-38.7364a42.0582,42.0582,0,0,0,23.6942,3.1087c14.4733-2.2645,30.5264-12.9563,33.9636-28.0646,2.1057-9.2564-5.7777-14.8845-13.7706-16.8014a41.8248,41.8248,0,0,0-25.5022,2.2812c-10.01,4.1267-18.0882,11.7609-23.7078,20.9538a37.9164,37.9164,0,0,1-7.445-37.0717,32.7027,32.7027,0,0,0,8.0033,3.8915c14.7788,4.8581,37.9343.2685,45.2737-14.9489,3.7846-7.8471,1.3946-16.7923-5.2856-22.2079-7.2681-5.8921-17.07-6.0433-25.6855-3.3569a52.1218,52.1218,0,0,0-23.6422,15.45c-3.9822-11.4018.0282-23.5546,6.0744-33.4528,3.9463-6.4606,8.7773-12.2894,13.6073-18.0959,5.1261-6.1626-3.7008-15.0673-8.8592-8.8658C13.21,379.4319,1.0294,394.6605.0561,413.7469A39.862,39.862,0,0,0,6.21,437.5721c-7.7422,15.7881-7.5547,35.1031,4.1886,50.6725a47.2147,47.2147,0,0,0,6.9653,7.425,61.0222,61.0222,0,0,0-2.1108,7.4417c-3.1048,14.5673-1.25,31.2008,7.5341,43.57,9.8488,13.8687,26.2754,19.879,42.87,18.4184a54.322,54.322,0,0,0,31.5321,31.5285c16.3808,6.1915,35.1392,4.0035,50.9777-2.7181,30.31-12.8632,50.1709-41.104,61.6036-71.0149A187.8284,187.8284,0,0,0,216.9045,499.62ZM45.162,421.3844c4.765-.7729,14.31.8316,12.75,7.784-1.269,5.6529-9.1168,8.5844-14.0127,9.8614-7.6792,2.0031-16.0635,1.22-22.2095-3.0267C27.5534,428.6247,35.91,422.8851,45.162,421.3844Zm.2534,56.3765A32.076,32.076,0,0,1,63.8588,472.26a20.7609,20.7609,0,0,1,8.3838,1.682c1.2558.6151,1.2227.3,1.32,1.095.1506,1.2314-1.5094,3.4508-2.1337,4.4793-5.7347,9.4446-17.113,14.5719-27.9493,14.18a28.67,28.67,0,0,1-10.527-2.3733A40.369,40.369,0,0,1,45.4154,477.7609Zm32.4779,53.0714c4.4525-10.2475,14.726-21.7557,26.4075-23.4489,5.809-.842,8.7755,4.5241,8.1824,9.753-.7608,6.7076-5.84,12.5874-10.4,17.21A67.3125,67.3125,0,0,1,74.9635,550.586,38.3415,38.3415,0,0,1,77.8933,530.8323Z"/><path d="M234.4176,538.3555q-1.2979,1.0167-2.6624,2.0348c1.2944-4.2286-2.9522-7.9392-6.8524-7.155a5.6815,5.6815,0,0,0-2.3326-.264,22.2512,22.2512,0,0,0-2.7362.4082,5.6449,5.6449,0,0,0-7.1392-3.982,16.1682,16.1682,0,0,0-2.1978.7549c-.8716-3.6037-5.1521-5.9613-8.6714-3.6738-.4383.2851-.9168.6253-1.4246,1.0137a5.364,5.364,0,0,0-3.5122-3.51q-.2191-1.4943-.543-2.9705c-.875-3.9865-5.1411-4.5488-8.2044-3.1073a4.6283,4.6283,0,0,0-2.9631-1.6958,11.202,11.202,0,0,0-3.4485.0464c-.1414-.5891-.2637-1.179-.4225-1.7671a5.6527,5.6527,0,0,0-4.5132-3.7947c-.1435-.7137-.278-1.4264-.4392-2.1423a4.6452,4.6452,0,0,0-5.9436-3.818,6.2732,6.2732,0,0,0-5.1934-.4572c-.0312-.4233-.0624-.8463-.0918-1.2635-.4648-6.5732-10.7058-6.0426-10.2389.5627,1.4962,21.1691,5.888,46.8361,27.3761,56.9561,20.1525,9.4913,41.6582-.99,57.6686-13.53C245.0914,542.9594,239.6118,534.287,234.4176,538.3555Z" fill="#7e29f3"/><path d="M466.9064,11.0271C455.2423,4.3154,441.8045,1.3879,428.5142.3338c-14.4681-1.1475-29.2514.5506-42.4351,6.8618-13.4368,6.4324-23.1238,17.6755-30.5149,30.359-14.9823,25.71-25.4575,57.44-22.284,87.4295a9.7717,9.7717,0,0,0,9.2439,8.8912c2.8808,5.7074,7.7376,9.8381,13.2147,14.1267a229.2349,229.2349,0,0,0,24.1559,16.4506c11.1411,6.6255,25.1613,15.9107,38.6583,14.8375,1.011.5357,2.02,1.0758,3.0345,1.6042a9.1255,9.1255,0,0,0,6.3475.9246,8.8294,8.8294,0,0,0,11.8052,1.3545c24.2418-16.0111,48.44-35.0916,61.1618-61.9569,12.0294-25.4031,12.0594-53.4781-2.6123-77.8C490.5026,30.5079,480.0663,18.5994,466.9064,11.0271Z" fill="#441998"/><path d="M442.2279,189.4489c3.1384-5.6628-6.9865-11.184-10.1145-5.54l-2.3547,4.249c-1.1325-4.1383-6.3556-7.119-9.5643-2.7836-.1768.2392-.3456.4831-.5217.7227a4.9141,4.9141,0,0,0-1.9538-.3679,6.1029,6.1029,0,0,0-4.5994-1.6073,6.4891,6.4891,0,0,0-3.12-3.78c.9951-4.8844-6.1827-8.1189-9.658-4.7971a6.5284,6.5284,0,0,0-.5554-.384c.5041-4.0684-3.6289-6.7651-7.3-5.8a5.9043,5.9043,0,0,0-9.1605-2.4548,5.8044,5.8044,0,0,0-4.1993-.38c-.0856-3.46-4.0641-5.3654-7.4159-4.5879a6.2145,6.2145,0,0,0-3.7013-2.5975c-.284-3.0594-3.5774-4.8108-6.6359-4.4632a5.5941,5.5941,0,0,0-5.2859-.974,6.2732,6.2732,0,0,0-6.4672-3.0348,5.24,5.24,0,0,0-.9421-1.9918c1.299-4.0232-2.5623-8.256-6.1863-7.968a6.154,6.154,0,0,0-5.4387-4.3178l.5542-1.1708c2.7608-5.8329-7.629-10.8373-10.3988-4.9853L191.8632,416.3915q-18.4757,39.0354-36.9514,78.07c-2.896,2.1913-4.0529,7.6605-.2474,10.071a499.6229,499.6229,0,0,0,84.1661,42.7636c3.8189,1.5056,7.3039-1.8171,7.9477-5.1608q21.05-37.9842,42.1-75.9682Z"/><path d="M498.0732,103.7884A1154.3923,1154.3923,0,0,1,363.9946,38.4058c-5.7192-3.2618-13.4431-.1017-16.12,5.5369-2.9437,6.2019.0044,13.0293,5.7452,16.3035a1154.3916,1154.3916,0,0,0,134.0786,65.3825c6.0751,2.49,13.1833.6492,16.12-5.5369C506.4723,114.5006,504.1844,106.2932,498.0732,103.7884Z"/><path d="M442.6052,181.3746A245.1006,245.1006,0,0,1,334.221,124.6507c-6.3444-5.7363-15.5791,3.8793-9.1927,9.6538a259.023,259.023,0,0,0,114.35,60.0007C447.7335,196.264,450.9739,183.3367,442.6052,181.3746Z" fill="#230968"/></g></g></svg>