<?xml version="1.0" encoding="UTF-8"?>
<svg width="398px" height="609px" viewBox="0 0 398 609" version="1.1" xmlns="http://www.w3.org/2000/svg" xmlns:xlink="http://www.w3.org/1999/xlink">
    <!-- Generator: Sketch 63.1 (92452) - https://sketch.com -->
    <title>Group 18</title>
    <desc>Created with Sketch.</desc>
    <defs>
        <polygon id="path-1" points="0.940830354 0.376 318.717738 0.376 318.717738 661.751624 0.940830354 661.751624"></polygon>
        <polygon id="path-3" points="0 0.7418526 341.817811 0.7418526 341.817811 261.545171 0 261.545171"></polygon>
        <polygon id="path-5" points="0.299167652 0.287001688 341.465 0.287001688 341.465 262 0.299167652 262"></polygon>
    </defs>
    <g id="Site" stroke="none" stroke-width="1" fill="none" fill-rule="evenodd">
        <g id="Contact-–-1440px" transform="translate(-1042.000000, -1024.000000)">
            <g id="Group-18" transform="translate(1042.000000, 1023.000000)">
                <g id="Group-3" transform="translate(81.000000, 0.624000)">
                    <mask id="mask-2" fill="white">
                        <use xlink:href="#path-1"></use>
                    </mask>
                    <g id="Clip-2"></g>
                    <path d="M305.5,520.1652 C299.517,509.3232 291.721,499.5332 282.844,490.7942 C273.983,482.0722 263.452,475.6002 253.807,467.7922 C244.768,460.4742 239.13,451.8912 238.414,440.2282 C237.759,429.5572 239.936,418.9182 241.068,408.2982 C242.212,397.5702 242.704,386.4832 238.956,376.2682 C235.12,365.8102 227.115,357.9832 218.478,351.0672 C210.567,344.7342 201.03,338.7162 196.338,329.5522 C193.551,324.1082 193.446,317.9242 193.612,311.9122 C193.818,304.4692 194.323,297.0812 193.758,289.6562 C192.758,276.5442 189.278,263.0162 180.658,252.7412 C173.183,243.8312 160.981,238.5132 155.01,228.5162 C149.176,218.7462 153.678,205.9452 153.288,195.2302 C152.859,183.4502 147.074,174.2972 138.231,166.6872 C130.723,160.2262 120.367,154.7832 116.206,145.5032 C111.499,135.0022 115.792,122.2332 115.103,111.1432 C114.24,97.2482 106.359,87.8322 95.33,79.8182 C90.461,76.2802 85.132,72.9492 81.043,68.5372 C75.737,62.8112 73.569,55.2882 71.823,47.9042 C68.589,34.2302 66.319,20.9892 55.485,10.9342 C54.756,10.2572 54.002,9.6262 53.231,9.0272 C50.902,7.0142 48.352,5.2512 45.752,3.6952 C44.582,3.0092 43.384,2.4922 42.16,2.1402 C38.479,0.6502 34.53,0.0122 30.421,0.5832 C19.937,2.0442 9.604,7.7552 5.303,18.3812 C3.378,21.7602 2.063,25.5732 1.421,29.6442 C-0.88,44.2462 5.521,56.0572 11.431,68.8052 C14.622,75.6882 17.568,82.9432 16.936,90.7232 C16.449,96.7182 14.32,102.6312 12.679,108.4222 C8.963,121.5392 8.588,133.8112 16.498,145.2682 C22.812,154.4122 34.08,161.7952 36.87,172.9592 C39.336,182.8262 34.559,193.5062 32.651,203.2272 C30.404,214.6742 31.514,225.4452 38.458,234.9702 C44.775,243.6342 56.227,250.9132 57.679,262.2002 C59.165,273.7492 52.86,285.4722 52.492,297.0962 C52.067,310.5022 57.694,323.2882 65.013,334.2122 C69.158,340.3982 74.122,345.8932 78.885,351.6172 C82.731,356.2412 86.472,361.1662 87.646,367.1682 C89.622,377.2722 85.845,387.8982 83.541,397.7662 C81.026,408.5412 79.572,419.6432 83.021,430.2332 C86.389,440.5812 93.628,448.9922 101.159,456.7182 C108.614,464.3652 116.901,471.3832 122.982,480.1772 C129.628,489.7872 130.502,500.0192 127.92,511.3582 C125.164,523.4592 120.886,535.0562 119.313,547.3892 C117.737,559.7452 117.66,572.2612 119.659,584.4802 C123.514,608.0562 134.343,630.1872 153.74,645.1032 C164.188,654.8392 179.741,659.1032 194.018,660.7772 C213.345,663.0432 232.986,661.3582 251.797,655.7102 C269.559,650.3762 287.417,641.1862 299.638,627.1862 C306.545,619.2732 311.317,609.9942 313.447,600.2632 C315.667,594.3222 316.991,588.0542 317.666,581.7122 C321.102,560.3512 315.879,538.9742 305.5,520.1652" id="Fill-1" fill="#00B266" mask="url(#mask-2)"></path>
                </g>
                <path d="M260.7134,377.7731 C261.3974,374.7061 256.8204,373.6441 256.1414,376.6911 C253.4574,388.7231 250.5564,400.6841 247.4614,412.5811 L236.3374,380.4701 C227.3344,354.4821 218.3314,328.4951 209.3284,302.5071 C211.5144,290.6071 214.3294,278.9011 217.8334,267.4301 C218.7344,264.4811 214.5204,262.1801 213.6094,265.1591 C210.7464,274.5331 208.2954,284.0411 206.2744,293.6901 C197.4084,268.0961 188.5424,242.5021 179.6754,216.9081 C183.6354,206.2731 187.5964,195.6361 191.5574,185.0001 C192.6364,182.1031 188.4184,179.8161 187.3334,182.7291 C183.9664,191.7711 180.5994,200.8141 177.2324,209.8561 C172.7274,196.8511 168.2224,183.8471 163.7174,170.8431 C158.9154,156.9821 154.1134,143.1211 149.3124,129.2611 C152.3744,120.6821 155.4354,112.1031 158.4974,103.5241 C159.5364,100.6131 155.3194,98.3231 154.2744,101.2531 C151.7934,108.2031 149.3134,115.1531 146.8324,122.1031 C138.8924,99.1811 130.9514,76.2601 123.0104,53.3381 C121.9634,50.3161 117.5444,51.5811 118.5994,54.6261 L141.4344,120.5431 C137.2554,117.6491 133.0774,114.7561 128.8994,111.8631 C126.3384,110.0901 124.4464,114.5031 126.9824,116.2591 C132.6694,120.1961 138.3564,124.1341 144.0424,128.0711 L171.9384,208.5961 C164.1574,203.9641 156.6424,198.8491 149.4134,193.2161 C146.9644,191.3081 144.0124,194.9641 146.4874,196.8931 C155.3654,203.8111 164.6484,210.0191 174.3264,215.4901 L190.8934,263.3141 L203.2284,298.9191 C194.1564,292.8181 185.2904,286.3771 176.6544,279.5541 C174.2154,277.6271 171.2654,281.2841 173.7294,283.2311 C184.1064,291.4301 194.7994,299.1181 205.7874,306.3061 C218.2994,342.4241 230.8124,378.5441 243.3244,414.6621 L217.3594,393.6291 C214.9374,391.6681 211.9904,395.3271 214.4344,397.3061 C225.0344,405.8931 235.6354,414.4801 246.2354,423.0671 C251.9954,439.6911 257.7544,456.3161 263.5134,472.9411 L285.6974,536.9781 C276.2084,527.9101 266.5434,519.0631 256.6814,510.4641 C254.3184,508.4041 251.3794,512.0681 253.7564,514.1421 C265.4554,524.3411 276.8934,534.8721 288.0664,545.7311 C288.3454,546.0021 288.6344,546.1831 288.9234,546.2891 C294.0224,561.0081 299.1214,575.7271 304.2204,590.4451 C305.2674,593.4691 309.6864,592.2031 308.6314,589.1571 L292.7694,543.3691 C296.7234,529.2921 299.4214,514.8491 300.8434,500.1031 C301.1454,496.9651 296.5744,495.8691 296.2714,499.0211 C295.0794,511.3751 292.9814,523.5151 290.0104,535.4061 L250.2254,420.5601 C254.0134,406.3941 257.5114,392.1311 260.7134,377.7731" id="Fill-4" fill="#000E02"></path>
                <g id="Group-8" transform="translate(0.000000, 404.624000)">
                    <mask id="mask-4" fill="white">
                        <use xlink:href="#path-3"></use>
                    </mask>
                    <g id="Clip-7"></g>
                    <path d="M337.7373,217.882 C333.8693,209.538 328.0013,202.498 322.9773,194.866 C317.9253,187.194 315.1653,179.065 312.3213,170.396 C307.2623,154.974 300.1883,141.156 284.2803,134.96 C271.9363,130.153 258.1263,130.45 245.9703,125.255 C229.8093,118.347 227.9093,99.359 217.4303,87.06 C207.8493,75.816 193.8263,73.551 180.2533,70.087 C173.3083,68.315 166.8523,65.939 161.6373,60.839 C156.3183,55.637 152.6473,48.987 148.0083,43.215 C143.5293,37.642 138.4103,32.607 131.7323,29.773 C124.3053,26.621 116.2053,26.48 108.2663,26.485 C99.9423,26.49 92.2583,26.124 84.4723,22.831 C76.7623,19.57 69.7903,14.836 62.5383,10.714 C48.8573,2.937 32.5903,-3.104 17.2623,3.694 C4.5553,9.33 -3.4617,22.869 1.4733,36.644 C6.6433,51.07 22.0213,59.117 35.7653,63.326 C42.9853,65.538 50.4033,67.295 57.2613,70.529 C66.0733,74.685 70.6793,80.346 73.3633,89.722 C77.9303,105.675 85.2943,119.341 101.0013,126.698 C114.6183,133.076 129.5613,130.733 143.7853,134.248 C160.7793,138.448 162.4383,155.672 168.5903,169.424 C175.0093,183.776 186.3793,191.506 201.6743,193.991 C214.6923,196.107 230.6333,194.138 242.2393,201.435 C249.3673,205.916 252.0763,213.979 254.7163,221.532 C257.7193,230.128 260.8443,238.987 267.6523,245.385 C268.1013,245.808 268.5743,246.176 269.0393,246.564 C279.2203,257.338 294.6753,258.713 309.1043,260.249 C316.5913,261.047 325.8783,263.575 332.2343,258.217 C333.2783,257.337 334.0903,256.377 334.7523,255.364 C344.0073,245.215 343.2583,229.794 337.7373,217.882" id="Fill-6" fill="#006624" mask="url(#mask-4)"></path>
                </g>
                <path d="M354.8145,628.6476 C354.4135,619.4596 351.6655,610.7156 349.9235,601.7476 C348.1715,592.7286 348.7115,584.1606 349.3805,575.0616 C350.5715,558.8756 349.2875,543.4046 336.9335,531.6226 C327.3485,522.4786 314.4635,517.4996 305.1995,508.0686 C292.8835,495.5296 298.3515,477.2476 293.3415,461.8856 C288.7595,447.8416 276.6535,440.4126 265.4185,432.0436 C259.6715,427.7606 254.6055,423.1076 251.7235,416.4066 C248.7835,409.5716 247.9195,402.0256 245.8265,394.9226 C243.8055,388.0646 240.9865,381.4606 235.8905,376.2976 C230.2215,370.5576 222.7845,367.3436 215.4405,364.3286 C207.7405,361.1656 200.7735,357.9026 194.8275,351.8946 C188.9385,345.9456 184.2915,338.9146 179.1535,332.3426 C169.4605,319.9446 156.7165,308.1676 139.9555,308.6216 C126.0595,308.9986 113.4935,318.4686 112.8165,333.0846 C112.1075,348.3926 123.2655,361.6866 134.3745,370.8096 C140.2095,375.6016 146.4005,380.0496 151.5115,385.6496 C158.0795,392.8456 160.1855,399.8346 159.0995,409.5256 C157.2525,426.0166 158.8615,441.4576 170.5875,454.2376 C180.7525,465.3176 195.4635,468.8366 207.2795,477.5006 C221.3965,487.8506 216.3775,504.4106 216.8325,519.4676 C217.3085,535.1826 224.8805,546.6596 238.0785,554.7776 C249.3125,561.6866 264.8035,565.9326 272.7595,577.0966 C277.6465,583.9546 277.0835,592.4406 276.6495,600.4306 C276.1575,609.5226 275.6755,618.9046 279.5365,627.4116 C279.7915,627.9726 280.0885,628.4936 280.3705,629.0296 C285.6855,642.8676 299.4555,650.0196 312.2125,656.9316 C318.8335,660.5186 326.4605,666.3896 334.3765,663.8536 C335.6765,663.4366 336.7935,662.8586 337.7915,662.1736 C350.2115,656.3096 355.3875,641.7646 354.8145,628.6476" id="Fill-9" fill="#00310E"></path>
                <path d="M331.4121,627.4259 C326.0371,619.9639 322.7791,611.3979 318.5911,603.2779 C314.3811,595.1119 308.6501,588.7199 302.4901,581.9899 C291.5311,570.0199 282.9571,557.0769 285.3581,540.1759 C287.2211,527.0609 294.2531,515.1699 295.6851,502.0299 C297.5891,484.5569 281.9731,473.5899 276.3921,458.4259 C271.2911,444.5629 276.1951,431.2309 279.8311,417.7019 C281.6921,410.7809 282.7871,403.9889 280.9001,396.9439 C278.9751,389.7569 274.9801,383.2969 272.2241,376.4239 C269.5631,369.7879 267.6851,362.8569 268.4901,355.6469 C269.3851,347.6289 273.2341,340.4999 277.1311,333.5839 C281.2181,326.3319 284.6671,319.4549 285.6151,311.0549 C286.5541,302.7379 285.8481,294.3389 285.8111,285.9969 C285.7421,270.2599 288.4541,253.1209 301.8941,243.0969 C313.0381,234.7859 328.7691,234.4379 338.3521,245.4939 C348.3911,257.0729 347.8631,274.4219 344.7921,288.4639 C343.1791,295.8409 341.0731,303.1669 340.5281,310.7299 C339.8291,320.4469 342.5041,327.2389 349.3591,334.1749 C361.0231,345.9779 369.3221,359.0969 368.0311,376.3939 C366.9131,391.3879 357.5431,403.2629 353.6321,417.3829 C348.9591,434.2529 363.1561,444.1449 372.1241,456.2489 C381.4841,468.8819 382.6461,482.5809 377.3121,497.1299 C372.7711,509.5129 363.2391,522.4409 363.9071,536.1329 C364.3171,544.5429 370.0161,550.8579 375.3051,556.8629 C381.3221,563.6949 387.5121,570.7629 389.7491,579.8329 C389.8961,580.4309 389.9851,581.0249 390.0961,581.6189 C394.4941,595.7769 388.1121,609.9199 382.3771,623.2469 C379.4001,630.1639 377.0501,639.4979 369.2631,642.4089 C367.9841,642.8879 366.7501,643.1239 365.5421,643.2049 C352.1581,646.2939 339.0861,638.0799 331.4121,627.4259" id="Fill-11" fill="#006624"></path>
                <path d="M326.3389,637.2589 C325.7289,629.0609 327.2469,621.0099 327.8499,612.8649 C328.4549,604.6749 327.0739,597.1259 325.5219,589.1199 C322.7619,574.8769 322.2739,561.0089 331.9999,549.2489 C339.5459,540.1239 350.4599,534.3469 357.6909,525.0009 C367.3039,512.5739 360.5259,496.9209 363.3569,482.7569 C365.9449,469.8089 375.9099,461.9389 385.0019,453.3269 C389.6529,448.9209 393.6599,444.2569 395.5139,438.0059 C397.4029,431.6289 397.3759,424.8399 398.4859,418.3149 C399.5589,412.0129 401.3649,405.8539 405.3469,400.7359 C409.7749,395.0429 416.0379,391.4069 422.2389,387.9579 C428.7419,384.3399 434.5829,380.7099 439.2299,374.7509 C443.8299,368.8499 447.2159,362.1189 451.0849,355.7449 C458.3839,343.7189 468.4569,331.9239 483.3839,330.5629 C495.7589,329.4349 507.9099,336.5189 510.0489,349.4219 C512.2899,362.9349 503.7839,375.9109 494.8839,385.1779 C490.2079,390.0469 485.1809,394.6469 481.2329,400.1559 C476.1589,407.2349 475.0259,413.6599 477.0099,422.1499 C480.3859,436.5929 480.5819,450.4689 471.5189,463.0479 C463.6609,473.9529 450.9729,478.6249 441.3959,487.5599 C429.9529,498.2339 436.1519,512.4049 437.3329,525.8199 C438.5649,539.8199 433.0509,550.8039 422.1889,559.3999 C412.9439,566.7149 399.6399,572.1139 393.7519,582.8629 C390.1359,589.4639 391.5289,596.9379 392.7549,603.9849 C394.1499,612.0029 395.5649,620.2809 393.0319,628.2389 C392.8649,628.7639 392.6559,629.2579 392.4619,629.7629 C389.1999,642.6069 377.7309,650.4049 367.1329,657.8829 C361.6329,661.7639 355.4819,667.7789 348.1869,666.3599 C346.9889,666.1269 345.9379,665.7309 344.9799,665.2289 C333.3369,661.3299 327.2109,648.9629 326.3389,637.2589" id="Fill-13" fill="#00B266"></path>
                <g id="Group-17" transform="translate(326.000000, 404.624000)">
                    <mask id="mask-6" fill="white">
                        <use xlink:href="#path-5"></use>
                    </mask>
                    <g id="Clip-16"></g>
                    <path d="M4.3238,218.3869 C8.1648,210.0319 14.0108,202.9729 19.0108,195.3259 C24.0388,187.6369 26.7738,179.4989 29.5898,170.8219 C34.6008,155.3839 41.6318,141.5439 57.5208,135.2989 C69.8488,130.4519 83.6598,130.7069 95.7988,125.4729 C111.9388,118.5139 113.7798,99.5199 124.2198,87.1879 C133.7648,75.9139 147.7818,73.6059 161.3438,70.0989 C168.2828,68.3049 174.7318,65.9079 179.9308,60.7919 C185.2338,55.5749 188.8828,48.9129 193.5028,43.1259 C197.9648,37.5389 203.0688,32.4879 209.7378,29.6329 C217.1548,26.4569 225.2548,26.2899 233.1928,26.2719 C241.5178,26.2509 249.1998,25.8609 256.9758,22.5429 C264.6748,19.2579 271.6328,14.5019 278.8718,10.3569 C292.5288,2.5369 308.7768,-3.5551 324.1248,3.1949 C336.8508,8.7919 344.9098,22.3059 340.0178,36.0949 C334.8928,50.5369 319.5398,58.6339 305.8098,62.8859 C298.5968,65.1189 291.1848,66.9009 284.3358,70.1559 C275.5368,74.3379 270.9478,80.0149 268.2938,89.3989 C263.7778,105.3669 256.4558,119.0549 240.7728,126.4609 C227.1758,132.8819 212.2258,130.5859 198.0118,134.1459 C181.0318,138.3989 179.4268,155.6269 173.3188,169.3989 C166.9438,183.7709 155.5988,191.5369 140.3118,194.0709 C127.2998,196.2259 111.3528,194.3079 99.7698,201.6409 C92.6558,206.1449 89.9728,214.2159 87.3558,221.7779 C84.3788,230.3819 81.2818,239.2519 74.4948,245.6709 C74.0468,246.0939 73.5738,246.4639 73.1118,246.8539 C62.9638,257.6599 47.5138,259.0829 33.0898,260.6649 C25.6048,261.4869 16.3258,264.0429 9.9528,258.7049 C8.9068,257.8279 8.0918,256.8709 7.4268,255.8609 C-1.8602,245.7399 -1.1602,230.3179 4.3238,218.3869" id="Fill-15" fill="#00310E" mask="url(#mask-6)"></path>
                </g>
            </g>
        </g>
    </g>
</svg>