<?xml version="1.0" encoding="UTF-8"?>
<svg width="541px" height="589px" viewBox="0 0 541 589" version="1.1" xmlns="http://www.w3.org/2000/svg" xmlns:xlink="http://www.w3.org/1999/xlink">
    <!-- Generator: Sketch 63.1 (92452) - https://sketch.com -->
    <title>Fill 1</title>
    <desc>Created with Sketch.</desc>
    <g id="Site" stroke="none" stroke-width="1" fill="none" fill-rule="evenodd">
        <g id="Food-+-Drink-–-1440px" transform="translate(0.000000, -260.000000)" fill="#FFD104">
            <g id="Food-+-Drink-/-Illustrations" transform="translate(-239.000000, 157.000000)">
                <g id="Plant-Left" transform="translate(177.000000, 103.000000)">
                    <path d="M598.125959,1.60867891 C613.156959,10.0006789 584.825959,37.9986789 578.506959,44.2336789 C563.884959,58.6586789 545.530959,75.6816789 524.805959,80.1826789 C524.787959,80.2106789 524.778959,80.2396789 524.760959,80.2676789 C523.534959,82.1226789 522.290959,83.9646789 521.057959,85.8146789 C545.826959,73.2346789 589.009959,54.5396789 589.125959,75.1506789 C589.161959,81.4456789 582.534959,86.6176789 578.199959,90.2116789 C572.210959,95.1756789 565.395959,99.3076789 558.257959,102.395679 C542.910959,109.035679 525.962959,110.881679 509.536959,107.929679 C508.604959,107.762679 507.865959,107.374679 507.284959,106.860679 C507.121959,106.863679 506.958959,106.876679 506.795959,106.863679 C501.344959,114.770679 495.829959,122.633679 490.244959,130.445679 C498.607959,126.384679 507.325959,123.106679 516.427959,120.758679 C528.015959,117.770679 543.262959,113.663679 552.430959,123.735679 C553.499959,124.910679 553.638959,126.855679 553.057959,128.270679 C547.773959,141.145679 532.309959,146.482679 519.905959,149.953679 C507.483959,153.428679 494.653959,154.398679 481.909959,153.182679 C481.009959,153.342679 480.043959,153.237679 479.155959,152.897679 C477.565959,152.705679 475.976959,152.500679 474.390959,152.240679 C466.883959,162.398679 459.278959,172.483679 451.552959,182.473679 C461.445959,177.343679 471.817959,173.191679 482.650959,170.172679 C494.928959,166.752679 516.312959,159.450679 525.967959,171.495679 C526.970959,172.748679 527.218959,174.551679 526.594959,176.030679 C520.901959,189.517679 501.457959,195.279679 488.632959,198.943679 C471.478959,203.843679 453.636959,204.891679 435.992959,202.428679 C435.958959,202.423679 435.932959,202.411679 435.897959,202.405679 C428.386959,211.828679 420.805959,221.196679 413.097959,230.460679 C426.871959,225.357679 441.066959,221.315679 455.509959,218.768679 C464.708959,217.145679 492.060959,216.997679 487.116959,233.767679 C485.222959,240.192679 477.311959,243.706679 471.782959,246.376679 C464.067959,250.103679 455.740959,252.623679 447.334959,254.224679 C429.427959,257.636679 410.959959,256.702679 393.001959,254.170679 C388.026959,259.934679 383.027959,265.674679 377.977959,271.371679 C388.337959,268.703679 398.928959,266.962679 409.662959,266.363679 C419.612959,265.807679 449.012959,264.272679 449.433959,279.814679 C449.801959,293.391679 425.819959,300.330679 415.770959,302.557679 C395.514959,307.046679 374.620959,303.702679 354.465959,300.382679 C353.654959,300.249679 352.993959,299.943679 352.447959,299.540679 C345.352959,307.197679 338.205959,314.807679 330.972959,322.335679 C345.337959,318.193679 360.045959,315.328679 374.980959,314.045679 C384.793959,313.202679 416.004959,310.733679 415.481959,327.016679 C415.028959,341.126679 387.423959,346.877679 376.892959,348.650679 C357.135959,351.976679 337.133959,349.428679 317.506959,346.212679 C317.460959,346.238679 317.408959,346.253679 317.361959,346.278679 L317.359959,346.278679 C317.106959,346.298679 316.854959,346.265679 316.602959,346.258679 C315.546959,346.040679 314.481959,345.871679 313.414959,345.725679 C312.686959,345.532679 311.959959,345.332679 311.237959,345.183679 C311.232959,345.175679 311.225959,345.170679 311.219959,345.163679 C310.801959,345.092679 310.382959,345.022679 309.965959,344.952679 C309.645959,344.897679 309.355959,344.810679 309.078959,344.710679 C301.942959,351.871679 294.766959,358.992679 287.503959,366.026679 C304.665959,362.266679 321.990959,359.117679 339.631959,359.308679 C351.759959,359.441679 375.718959,359.466679 379.866959,374.004679 C380.276959,375.439679 379.358959,377.440679 378.172959,378.255679 C363.895959,388.068679 344.932959,389.345679 328.101959,389.597679 C308.817959,389.887679 289.916959,386.948679 271.502959,381.295679 C264.119959,388.264679 256.692959,395.186679 249.186959,402.024679 C265.490959,399.148679 282.011959,397.814679 298.624959,398.125679 C308.282959,398.305679 341.887959,398.623679 338.951959,415.737679 C337.752959,422.727679 330.104959,424.771679 324.202959,426.361679 C314.547959,428.962679 304.629959,430.016679 294.646959,430.067679 C273.474959,430.174679 252.692959,425.598679 232.270959,420.446679 C231.698959,420.302679 231.225959,420.053679 230.794959,419.765679 C230.354959,419.809679 229.912959,419.783679 229.476959,419.705679 C222.617959,425.761679 215.718959,431.772679 208.762959,437.718679 C226.143959,435.541679 243.695959,435.006679 261.195959,436.337679 C275.447959,437.420679 299.869959,436.884679 307.552959,451.749679 C308.284959,453.167679 307.931959,455.081679 306.998959,456.307679 C295.617959,471.271679 272.387959,471.388679 255.343959,470.652679 C231.830959,469.636679 208.943959,462.998679 186.478959,456.438679 C179.760959,461.985679 173.012959,467.496679 166.210959,472.940679 C180.146959,472.238679 194.118959,472.530679 208.020959,473.988679 C224.439959,475.711679 244.285959,477.260679 257.642959,487.964679 C259.534959,489.480679 260.067959,492.365679 258.511959,494.338679 C247.468959,508.353679 224.868959,505.770679 209.081959,504.446679 C187.575959,502.641679 166.581959,496.933679 146.913959,488.129679 C144.132959,490.289679 141.359959,492.458679 138.566959,494.600679 C133.679959,498.348679 128.766959,502.062679 123.837959,505.753679 C139.963959,505.129679 157.168959,509.222679 171.988959,512.535679 C182.510959,514.886679 217.549959,520.381679 213.780959,537.423679 C209.968959,554.663679 177.707959,549.195679 166.260959,547.055679 C142.290959,542.577679 118.751959,535.541679 95.9729586,526.896679 C95.7509586,526.812679 95.5669586,526.702679 95.3739586,526.598679 C91.3209586,529.503679 87.2609586,532.398679 83.1839586,535.269679 C113.553959,540.867679 193.857959,557.665679 175.925959,580.928679 C164.521959,595.722679 136.023959,586.096679 122.355959,580.801679 C101.669959,572.788679 82.3819586,561.566679 64.8749586,547.984679 C46.0079586,560.904679 26.8989586,573.470679 7.52995859,585.632679 C2.61495859,588.719679 -3.04104141,581.587679 1.92095859,578.470679 C20.7619586,566.639679 39.3669586,554.439679 57.7229586,541.881679 C48.9749586,526.221679 42.7959586,509.274679 39.7569586,491.557679 C37.9719586,481.148679 32.9639586,459.411679 44.4949586,452.361679 C63.3189586,440.852679 69.4769586,505.938679 71.0919586,532.611679 C78.4999586,527.439679 85.8549586,522.194679 93.1799586,516.909679 C86.1239586,501.530679 79.3379586,485.544679 77.4279586,468.629679 C76.2279586,458.009679 75.1539586,435.072679 88.1409586,430.583679 C113.085959,421.960679 109.014959,479.213679 106.111959,507.483679 C117.241959,499.294679 128.251959,490.944679 139.179959,482.490679 C131.670959,466.211679 124.273959,449.504679 121.419959,431.686679 C119.775959,421.423679 116.659959,397.188679 129.546959,392.267679 C151.846959,383.753679 152.835959,445.001679 152.654959,471.971679 C162.382959,464.280679 172.017959,456.473679 181.574959,448.572679 C174.484959,431.417679 166.547959,413.781679 165.210959,395.169679 C164.396959,383.852679 165.540959,357.665679 180.826959,355.170679 C196.133959,352.673679 199.728959,376.816679 200.154959,386.911679 C200.803959,402.319679 200.578959,417.802679 199.846959,433.240679 C207.971959,426.329679 216.009959,419.317679 224.004959,412.255679 C217.216959,396.999679 212.514959,380.852679 210.507959,364.242679 C209.166959,353.136679 208.067959,329.755679 222.225959,325.390679 C243.026959,318.977679 242.876959,368.418679 240.920959,397.143679 C248.784959,390.011679 256.563959,382.788679 264.293959,375.510679 C258.784959,355.897679 251.922959,335.911679 250.171959,315.559679 C249.212959,304.406679 249.994959,279.112679 266.075959,278.165679 C279.974959,277.346679 281.795959,306.583679 282.710959,315.717679 C284.135959,329.946679 283.527959,344.237679 282.178959,358.452679 C290.395959,350.489679 298.504959,342.416679 306.561959,334.291679 C305.212959,331.112679 303.008959,326.941679 302.507959,325.534679 C301.124959,321.648679 299.849959,317.728679 298.715959,313.763679 C295.961959,304.136679 294.004959,294.302679 293.713959,284.270679 C293.327959,270.984679 294.330959,254.160679 307.221959,246.944679 C309.065959,245.912679 311.332959,246.928679 312.607959,248.316679 C322.786959,259.387679 323.708959,276.445679 324.413959,290.720679 C324.840959,299.361679 324.659959,307.973679 323.914959,316.536679 C331.351959,308.815679 338.708959,301.018679 346.006959,293.164679 C345.849959,292.891679 345.710959,292.589679 345.597959,292.250679 C335.758959,262.657679 326.727959,230.592679 343.811959,201.805679 C344.544959,200.570679 346.593959,199.730679 347.981959,200.043679 C362.964959,203.416679 362.936959,219.553679 363.539959,232.154679 C364.220959,246.403679 363.951959,260.653679 362.817959,274.852679 C371.499959,265.206679 380.047959,255.439679 388.509959,245.597679 C381.673959,230.131679 376.939959,213.807679 374.802959,196.997679 C373.182959,184.249679 369.615959,160.250679 383.741959,152.688679 C404.285959,141.691679 407.783959,193.234679 408.058959,222.492679 C413.235959,216.246679 418.373959,209.967679 423.460959,203.645679 C425.136959,201.563679 426.787959,199.461679 428.452959,197.370679 C419.636959,184.897679 413.884959,170.523679 412.492959,155.231679 C411.303959,142.162679 412.288959,127.258679 423.494959,118.682679 C425.219959,117.362679 427.304959,117.544679 429.052959,118.641679 C439.035959,124.905679 440.882959,140.224679 442.874959,150.775679 C444.418959,158.957679 445.292959,167.205679 445.619959,175.482679 C453.017959,165.871679 460.270959,156.152679 467.459959,146.386679 C460.693959,132.014679 454.238959,116.981679 452.707959,101.042679 C451.851959,92.1346789 450.902959,70.7526789 463.358959,68.5226789 C476.069959,66.2486789 478.752959,87.2376789 480.657959,95.4196789 C482.729959,104.313679 484.086959,113.317679 484.808959,122.376679 C490.120959,114.890679 495.366959,107.356679 500.572959,99.7956789 C487.575959,73.7976789 477.474959,29.1766789 507.073959,12.2226789 C508.471959,11.4226789 510.412959,11.9066789 511.632959,12.7766789 C521.149959,19.5776789 521.803959,31.3556789 522.208959,42.1276789 C522.461959,48.8396789 522.382959,55.5336789 522.022959,62.2086789 C530.298959,48.5546789 539.816959,35.6816789 550.702959,23.9316789 C557.298959,16.8116789 564.420959,9.97667891 573.049959,5.36567891 C579.607959,1.86167891 590.996959,-2.37132109 598.125959,1.60867891" id="Fill-1"></path>
                </g>
            </g>
        </g>
    </g>
</svg>