<?xml version="1.0" encoding="utf-8"?>
<!-- Generator: Adobe Illustrator 24.0.0, SVG Export Plug-In . SVG Version: 6.00 Build 0)  -->
<svg version="1.1" id="Layer_1" xmlns="http://www.w3.org/2000/svg" xmlns:xlink="http://www.w3.org/1999/xlink" x="0px" y="0px"
	 viewBox="0 0 208.961 584.615" style="enable-background:new 0 0 208.961 584.615;" xml:space="preserve">
<style type="text/css">
	.st0{fill:#FF5122;}
	.st1{fill:#FF97AC;}
	.st2{fill:#003418;}
</style>
<title>pot</title>
<g id="Layer_2_1_">
	<g id="Layer_10">
		<path class="st0" d="M138.96,492.14c1.291-2.652,1.742-4.855,3.196-7.443c0.188-5.96-0.091-12.666-2.369-18.214
			c-0.816-1.988-4.428-3.42-6.167-3.5c-34.355-7.47-69.175-6.434-103.526,1.056c-0.56,0.059-1.107,0.211-1.617,0.449l-0.017,0.008
			c-0.123,0.058-0.243,0.122-0.361,0.192l-0.044,0.026c-0.807,0.486-2.505,0.889-2.935,1.936
			c-3.719,9.056-2.802,18.674-1.132,28.244c0.027,0.342,5.146,2.653,3.132,2.756c2.514,0.953,0.98,1.065,1,1.167
			c0.075,0.285,0.066,0.585-0.024,0.866c0.287-0.008,0.574-0.04,0.856-0.097c35.122-7.336,71.379-7.354,106.508-0.052
			C136.518,497.024,137.761,494.604,138.96,492.14z"/>
		<path class="st1" d="M190.343,57.78c-8.393,0.166-16.516,1.144-22.392,7.751c-2.384,2.681-4.195,5.828-6.616,8.473
			c-3.788,4.137-8.001,3.874-13.213,4.249c-4.502,0.324-8.372,1.52-11.751,4.585c-3.026,2.745-4.985,6.44-7.934,9.251
			c-6.951,6.628-17.978-0.874-26.442,1.961c-4.268,1.43-2.438,8.222,1.869,6.779c0.355-0.119,0.71-0.217,1.066-0.302
			c-0.358,0.422-0.616,0.92-0.752,1.456c-0.792,3.143-0.699,6.444,0.268,9.537c-0.811,3.586-0.708,7.319,0.301,10.855
			c0.258,0.914,0.859,1.694,1.679,2.174c-0.006,0.999,0.05,1.997,0.167,2.989c0.125,0.887,0.483,1.726,1.038,2.43
			c0.139,0.321,0.296,0.634,0.469,0.939c0.071,0.123,0.154,0.225,0.232,0.336c-0.54,0.45-1.085,0.89-1.61,1.367
			c-0.587,0.502-1.009,1.169-1.213,1.914c-0.857,0.87-1.572,1.869-2.117,2.962c-2.273,4.6,4.625,8.658,6.908,4.038
			c1.376-2.786,4.553-3.618,7.091-5.085c1.287-0.722,2.479-1.601,3.549-2.617c3.141-0.38,7.138,0.836,9.62,0.899
			c4.009,0.165,7.92-1.258,10.886-3.96c2.765-2.702,4.891-5.988,6.221-9.618c2.007-4.838,3.086-11.799,9.075-12.858
			c3.739-0.661,7.45-0.293,11.157-1.435c3.761-1.045,7.128-3.18,9.678-6.135c2.626-3.219,3.308-7.158,4.645-10.971
			c1.56-4.448,4.785-7.826,8.619-10.455c5.475-3.756,16.772-5.719,17.984-13.341C210.495,55.424,196.605,57.657,190.343,57.78z"/>
		<path class="st1" d="M133.749,0.319c-9.55,0.189-18.794,1.302-25.481,8.82c-2.713,3.05-4.773,6.632-7.529,9.641
			c-4.31,4.708-9.104,4.409-15.036,4.835c-5.123,0.368-9.526,1.73-13.372,5.217c-3.444,3.123-5.673,7.329-9.028,10.528
			c-7.91,7.542-20.458-0.995-30.09,2.232c-4.857,1.627-2.774,9.356,2.127,7.714c1.47-0.48,3.003-0.739,4.548-0.768
			c-1.042,1.949-0.696,4.54,1.731,5.335c-1.023,6.809-0.764,13.75,0.766,20.464c0.531,1.887,2.347,3.115,4.296,2.906
			c0.46,1.227,0.946,2.447,1.458,3.66c-1.743,1.02-3.244,2.406-4.401,4.061c-3.013,4.184,3.923,8.182,6.908,4.038
			c3.019-4.192,10.916-1.235,15.073-1.129c4.561,0.188,9.013-1.431,12.387-4.506c3.301-2.978,5.397-6.888,7.079-10.944
			c2.283-5.505,3.511-13.426,10.326-14.632c4.255-0.753,8.477-0.334,12.696-1.633c4.279-1.189,8.111-3.619,11.012-6.982
			c2.989-3.663,3.765-8.145,5.286-12.484c1.775-5.061,5.445-8.905,9.807-11.897c6.231-4.274,19.085-6.508,20.464-15.182
			C156.681-2.363,140.875,0.178,133.749,0.319z"/>
		<path class="st2" d="M91.305,266.116c-0.097-0.951-0.894-1.677-1.85-1.684c-16.204-0.238-31.305,8.184-39.616,22.097
			c-0.162-6.705,2.394-13.314,4.544-19.551c2.589-7.512,5.128-15.233,5.154-23.27c0.046-14.274-7.942-26.69-9.73-40.458
			c18.405-1.368,34.157-13.724,39.87-31.273c0.153-0.445,0.128-0.933-0.071-1.36c-0.097-0.951-0.894-1.677-1.85-1.684
			c-12.814-0.209-25.114,5.038-33.832,14.432c0.683-1.482,1.379-2.97,2.039-4.484c3.247-7.453,4.593-15.075,2.521-23.06
			c-2.024-7.797-7.101-14.913-7.548-23.092c-0.478-8.744,3.046-17.278,4.457-25.802c1.469-8.876,0.811-17.011-2.953-25.252
			c-2.68-5.865-9.417-13.481-7.98-20.36c0.322-1.444,0.22-2.95-0.294-4.337c0.275-3.987-0.104-7.991-1.12-11.856
			c-2.296-8.704-15.804-5.012-13.5,3.722c0.656,2.401,0.908,4.894,0.745,7.378c-0.081,0.259-0.153,0.53-0.212,0.814
			c-1.572,7.526,0.092,14.14,3.47,20.923c3.016,6.057,7.391,11.83,7.727,18.816c0.368,7.658-2.437,15.129-3.914,22.542
			c-0.792,3.774-1.241,7.613-1.342,11.468c-7.785-11.479-20.348-18.818-34.172-19.962c-0.8-0.121-1.546,0.43-1.667,1.229
			c-0.001,0.006-0.002,0.012-0.003,0.017c-0.179,0.339-0.227,0.731-0.136,1.103c3.963,19.653,20.31,34.405,40.266,36.335
			c2,4.544,4.092,9.137,4.278,13.995c0.29,7.569-5.157,14.727-7.703,21.566c-5.702,15.314,0.665,29.777,5.091,44.421
			c2.256,7.464,3.366,14.6,1.461,22.276c-0.798,3.215-1.848,6.353-2.931,9.482C33.05,247.994,19.504,239.308,4.35,238.06
			c-0.8-0.121-1.546,0.43-1.667,1.229c-0.001,0.006-0.002,0.011-0.003,0.017c-0.179,0.339-0.227,0.731-0.136,1.103
			c3.494,17.219,16.555,30.909,33.591,35.207c-3.167,15.237,1.952,27.734,9.535,40.912c3.345,5.813,6.975,11.757,8.223,18.443
			c1.311,7.026-1.086,14.026-3.354,20.595c-1.09,3.155-2.21,6.301-3.195,9.48c-7.683-12.179-20.643-20.04-34.995-21.225
			c-0.8-0.121-1.546,0.43-1.667,1.229c-0.001,0.006-0.002,0.011-0.003,0.017c-0.179,0.339-0.227,0.731-0.136,1.103
			c3.522,17.362,16.767,31.121,33.983,35.3c0.283,6.386,2.179,12.596,5.509,18.052c4.08,7.004,8.598,12.922,7.455,21.445
			c-1.095,8.169-5.024,15.802-7.25,23.684c-2.28,8.072-3.025,16.423-0.502,24.536c2.197,7.066,8.327,15.551,6.056,23.175
			c-2.759,9.265,11.624,13.534,14.38,4.28c2.265-7.606,0.532-14.767-2.322-21.931c-2.681-6.731-5.619-13.026-4.499-20.452
			c2.207-14.643,11.366-27.253,8.838-42.645c-1.286-7.829-6.123-14.011-9.84-20.78c-3.6-6.557-3.215-12.851-1.179-19.862
			c4.239-14.599,11.142-28.331,6.192-43.783c-3.201-9.993-10.476-18.82-14.597-28.553c17.903-1.83,33.04-14.049,38.606-31.163
			C91.529,267.031,91.504,266.543,91.305,266.116z"/>
		<path class="st2" d="M154.166,178.476c0.153-0.445,0.128-0.933-0.071-1.36c-0.097-0.951-0.894-1.677-1.85-1.684
			c-13.18-0.212-25.795,5.344-34.537,15.21c0.418-1.603,0.803-3.205,1.111-4.809c1.7-8.835,1.254-16.984-2.294-25.32
			c-2.526-5.933-9.063-13.722-7.447-20.562c0.239-0.984,0.288-2.005,0.145-3.007c1.833-13.235,2.606-26.596,2.311-39.954
			c-0.228-8.993-14.229-9.027-14,0c0.249,9.19-0.032,18.386-0.843,27.544c-7.817-11.208-20.223-18.348-33.841-19.475
			c-0.8-0.121-1.546,0.43-1.667,1.229c-0.001,0.006-0.002,0.012-0.003,0.017c-0.179,0.339-0.227,0.731-0.136,1.103
			c3.453,17.018,16.254,30.607,33.036,35.071c0.258,4.81,1.503,9.516,3.658,13.825c2.857,6.134,7.08,12.019,7.234,19.011
			c0.169,7.665-2.831,15.061-4.5,22.433c-1.773,7.83-2.547,15.715-0.3,23.543c1.958,6.821,6.282,13.581,6.371,20.816
			c0.001,1.713-0.244,3.418-0.728,5.062c-6.463-16.047-21.433-27.068-38.676-28.473c-0.8-0.121-1.546,0.429-1.667,1.229
			c-0.001,0.006-0.002,0.012-0.003,0.017c-0.179,0.339-0.227,0.731-0.136,1.103c3.679,18.172,17.99,32.311,36.205,35.77
			c-1.201,2.158-2.288,4.377-3.259,6.649c-6.099,15.161-0.111,29.784,3.931,44.539c2.06,7.52,2.984,14.683,0.88,22.306
			c-0.722,2.616-1.615,5.175-2.553,7.719c-3.435-17.045-16.247-30.663-33.051-35.131c-0.765-0.261-1.598,0.148-1.859,0.913
			c-0.002,0.006-0.004,0.011-0.006,0.017c-0.236,0.302-0.353,0.679-0.33,1.062c0.401,19.518,13.189,36.613,31.8,42.51
			c-0.602,1.757-1.164,3.528-1.638,5.328c-4.134,15.707,0.747,28.648,8.18,42.383c3.192,5.898,6.666,11.934,7.739,18.651
			c0.556,4.465,0.09,8.999-1.365,13.258c-4.673-15.009-16.72-26.571-31.909-30.622c-0.766-0.261-1.598,0.148-1.859,0.913
			c-0.002,0.006-0.004,0.011-0.006,0.017c-0.236,0.302-0.353,0.679-0.33,1.062c0.391,18.588,12.022,35.079,29.401,41.685
			c-2.046,5.145-3.483,10.512-4.282,15.991c-0.943,7.85,1.052,15.266,4.812,22.125c3.279,5.983,6.875,11.211,7.122,17.777
			c0.438,0.042,0.875,0.086,1.313,0.123c4.553-0.901,9.088-1.882,13.636-2.788c-0.05-0.808-0.124-1.622-0.237-2.446
			c-1.081-7.859-5.756-14.166-9.295-21.03c-3.428-6.648-2.879-12.931-0.661-19.886c4.618-14.483,11.877-28.03,7.331-43.607
			c-2.474-8.476-7.85-16.202-11.799-24.3c17.514-2.16,32.193-14.266,37.649-31.047c0.153-0.445,0.128-0.933-0.071-1.36
			c-0.097-0.951-0.894-1.677-1.85-1.684c-16.374-0.239-31.606,8.364-39.856,22.509c-0.177-0.91-0.323-1.828-0.419-2.758
			c-0.785-7.569,2.342-14.958,4.936-21.892c2.784-7.441,5.523-15.094,5.758-23.127c0.298-10.171-3.506-19.504-6.237-29.028
			c17.55-2.13,32.271-14.246,37.738-31.058c0.153-0.445,0.128-0.933-0.071-1.36c-0.097-0.951-0.894-1.677-1.85-1.684
			c-15.406-0.233-29.875,7.376-38.414,20.201c-0.014-0.261-0.043-0.519-0.052-0.782c-0.256-7.91,3.768-14.266,7.002-21.19
			c3.441-7.366,4.985-14.951,3.122-22.987c-1.82-7.848-6.71-15.093-6.943-23.281c-0.016-0.572-0.014-1.143,0.002-1.713
			C132.334,208.654,148.383,196.234,154.166,178.476z"/>
		<path class="st0" d="M141.333,473.153c-0.027-0.345-0.089-0.686-0.185-1.018c-0.02-0.102-0.035-0.203-0.055-0.305
			c-0.419-1.984-2.245-3.349-4.267-3.19c-0.399-0.011-0.799,0.025-1.19,0.107c-35.176,7.348-71.491,7.355-106.67,0.02
			c-0.143-0.03-0.283-0.049-0.422-0.067c-2.169-0.327-4.55,0.618-5.049,3.13c-0.038,0.191-0.068,0.381-0.104,0.572
			c-0.051,0.205-0.088,0.413-0.113,0.622c-1.786,9.517-0.796,19.347,2.851,28.317c0.705,1.765,2.396,2.938,4.297,2.979
			c0.507,0.11,1.015,0.203,1.522,0.31c-0.308,24.463,1.881,48.893,6.531,72.912c0.269,2.034,2.136,3.465,4.171,3.196
			c0.031-0.004,0.062-0.009,0.092-0.013c0.135,0.035,0.269,0.071,0.413,0.099c26.183,5.08,53.101,5.055,79.275-0.075
			c1.918,0.094,3.586-1.303,3.829-3.208c4.649-24.016,6.838-48.443,6.531-72.902c0.568-0.12,1.137-0.224,1.704-0.348
			c0.56-0.059,1.107-0.211,1.617-0.449l0.017-0.008c0.123-0.058,0.243-0.122,0.361-0.192l0.044-0.026
			c0.874-0.528,1.55-1.328,1.926-2.277C142.089,492.412,143.087,482.63,141.333,473.153z"/>
	</g>
</g>
</svg>
