<?xml version="1.0" encoding="utf-8"?>
<!-- Generator: Adobe Illustrator 24.0.0, SVG Export Plug-In . SVG Version: 6.00 Build 0)  -->
<svg version="1.1" id="Layer_1" xmlns="http://www.w3.org/2000/svg" xmlns:xlink="http://www.w3.org/1999/xlink" x="0px" y="0px"
	 viewBox="0 0 738.7 1461.6" style="enable-background:new 0 0 738.7 1461.6;" xml:space="preserve">
<style type="text/css">
	.st0{fill:#FFFFFF;}
	.st1{fill:#B74F3B;}
	.st2{fill:#003418;}
	.st3{opacity:0.24;}
	.st4{fill:#FF5122;}
	.st5{fill:#02B26A;}
	.st6{fill:#230968;}
	.st7{fill:#DF69D5;}
	.st8{fill:#DC3D2C;}
	.st9{fill:#050505;}
	.st10{fill:#FF97AC;}
	.st11{opacity:0.19;}
	.st12{opacity:0.21;}
	.st13{fill:#7E29F3;}
	.st14{fill:#F7C59F;}
	.st15{opacity:0.61;fill:#82B6F3;enable-background:new    ;}
	.st16{opacity:0.13;}
	.st17{opacity:0.61;fill:#FF6EDC;enable-background:new    ;}
	.st18{fill:#DE521B;}
	.st19{fill:#FBB03B;}
	.st20{opacity:0.11;}
	.st21{fill:#FFFBE3;}
	.st22{opacity:0.12;}
	.st23{opacity:1.000000e-02;}
	.st24{fill:#441998;}
	.st25{fill:#5379FE;}
	.st26{fill:#FFD40C;}
	.st27{fill:none;stroke:#000000;stroke-width:9;stroke-miterlimit:10;}
</style>
<title>Asset 1</title>
<g id="Layer_2_1_">
	<g id="Layer_1-2">
		<path d="M435.1,497.6c24.6,82.7,46.2,154.4,70.8,237.2c24.5,82.5,49,164.9,73.5,247.4l41.4,139.4c1.9,6.2-7.3,8.6-9.2,2.4
			c-24.6-82.7-49.2-165.4-73.8-248.2c-24.5-82.5-49-164.9-73.5-247.4c-13.8-46.5-24.6-81.9-38.4-128.4
			C424,493.7,433.2,491.4,435.1,497.6z"/>
		<path class="st0" d="M677,1129.1c-5.2-10.1-14-16.4-23.4-20.3c-9.4-3.9-19.6-3.6-29.4-4.9c-3-0.5-5.8-1.4-8.6-2.5
			c-4.6-2.6-8.8-6-13-9.2c-5.7-4.3-12-8-18.7-9.6c-7-1.5-14.2-2.1-21.3-1.7c-5.8,0.2-11.6,0.6-17.4,0c-3.1-0.7-6-1.6-8.9-2.9
			c-11.7-6.2-22.2-15.2-34.7-19.3c-8.5-2.8-17-2.6-25.6-0.7c-6.4,1.4-12.7,3.8-19.1,5.1c-2.1,0.2-4.3,0.2-6.4,0
			c-1.3-0.3-2.5-0.6-3.8-0.9c-7.5-4-15.3-6.9-23.7-7.5c-2.6,0-5.3,0-7.9,0c-0.6,0-1.2,0.1-1.8,0.2c-3.1,0.2-6.1,0.8-9.1,1.7
			c-2.3,0.7-4.6,1.6-6.7,2.7c-2.1,0.9-4.1,1.9-6.1,3c-1.2,0.3-2.5,0.7-3.8,0.9c-2.1,0.2-4.3,0.2-6.4,0c-6.5-1.3-12.7-3.8-19.1-5.1
			c-8.6-1.8-17.1-2.1-25.6,0.7c-12.5,4.1-23,13.2-34.7,19.3c-2.9,1.3-5.8,2.3-8.9,2.9c-5.8,0.6-11.6,0.2-17.4,0
			c-7.2-0.4-14.3,0.1-21.3,1.7c-6.7,1.6-13,5.3-18.7,9.6c-4.3,3.2-8.4,6.6-13,9.2c-2.8,1.1-5.7,2-8.6,2.5c-9.8,1.2-20.1,1-29.4,4.9
			c-9.4,3.9-18.2,10.2-23.4,20.3c-10,20.4-1.6,45,18.7,55c2.8,1.4,5.8,2.4,8.8,3.1c5.4,1.2,10.9,1.8,16.4,1.7
			c4.1-0.2,8.2-0.1,12.4,0.2c2.8,0.7,5.6,1.6,8.2,2.8c9.8,5.1,18.9,12,29.4,14.9c7.8,2.2,15.2,1.8,23,0.6c5.3-0.9,10.6-2.3,15.9-3.3
			c2.7-0.3,5.4-0.4,8.1-0.2c2.5,0.6,5,1.4,7.3,2.5c6,3.2,11.5,7.3,17.2,11c6.4,4.2,13.3,8.1,20.5,10.2c2.9,0.8,5.9,1.5,8.8,1.8
			c7.8,1.7,15.8,2,23.7,1c5.1-0.6,10.2-1.7,15.1-3.2c5-1.7,9.8-3.8,14.4-6.4c0.7-0.4,1.4-0.8,2.1-1.2c2.6-1.1,5.2-2.1,7.9-3
			c5.6,1.6,10.9,4.5,16.4,6.4c6.1,2.1,12.3,3.6,18.7,4.3l0-0.1c4.2,1,8.4,1.8,12.6,2.3c8.2,1,16.5,0.3,24.4-2
			c7.2-2.1,14-5.9,20.5-10.2c5.7-3.7,11.3-7.8,17.2-11c2.4-1.1,4.8-1.9,7.3-2.5c2.7-0.2,5.4-0.1,8.1,0.2c5.3,1,10.5,2.4,15.9,3.3
			c7.8,1.3,15.2,1.6,23-0.6c10.5-2.9,19.7-9.8,29.4-14.9c2.6-1.2,5.4-2.1,8.2-2.8c4.1-0.3,8.2-0.3,12.4-0.2c5.5,0.1,11-0.5,16.3-1.7
			c22.1-5.1,35.8-27.2,30.7-49.3C679.5,1134.8,678.4,1131.9,677,1129.1L677,1129.1z"/>
		<path class="st1" d="M738.2,781.1c1.6-2.2-1-5.4-3.6-4.6c-5.6,1.8-10.4,6.1-15,9.7c-5.4,4.2-10.5,8.7-15.5,13.4
			c-0.2,0.2-0.5,0.5-0.6,0.8c-32,17.5-64,35.1-96.1,52.6c-29.4,16.1-59.1,32.4-91,43.2c-9,3.1-18.3,6-27.8,7.7
			c-7.4,1.3-15.5,1.1-21.1-4.2c-1.1-1.3-2.1-2.7-3-4.1c-2-3.9-2.5-8.7-2.5-13.1c6.6-0.7,13.1-1.9,18.6-6c0,0,0.1-0.1,0.1-0.1
			c4.1-3,1.3-7.7-0.5-11c0-0.1-0.1-0.2-0.1-0.3c-2.2-3.3-3.8-6.9-4.7-10.7c0-0.1,0-0.2,0-0.3c-0.1-0.1-0.2-0.2-0.3-0.3
			c0.8-1,1.5-2.1,2-3.3c0.8-2.1-0.3-4.2-2.7-4.2c-0.8,0.1-1.7,0-2.5-0.1c-0.9-0.2-1.7-0.5-2.5-0.9c-0.6-0.3-1.1-0.6-1.7-1
			c-3-3.6-5.7-7.5-8-11.6c-0.1-0.1-0.3-0.2-0.4-0.3c0,0,0,0,0,0c0,0-0.1-0.1-0.1-0.1c0,0-0.1-0.1-0.1-0.1l-0.2-0.3l0,0l-0.6-0.7
			c0,0,0,0,0-0.1c-0.9-0.1-1.8,0.3-2.4,1c-0.6,0.8-0.7,1.9-0.3,2.8c-0.6,0.1-1.2,0.5-1.7,1c-0.6,0.7-0.7,1.7-0.4,2.5
			c-0.6-0.1-1.1,0-1.6,0.3c-0.3,0.1-0.5,0.3-0.7,0.5c-0.1,0.1-0.3,0.3-0.4,0.4c-0.4,0.5-0.7,1.1-0.8,1.7c-0.9-0.9-2-1.4-3.2-1.6
			c-1.3-0.8-3-0.4-3.8,0.8c-0.5,0.7-0.6,1.7-0.2,2.5c0.1,0.4,0.2,0.7,0.4,1.1c0.1,0.3,0.2,0.7,0.3,1c-0.2,0.1-0.4,0.1-0.6,0.2
			c-0.7-0.2-1.5-0.1-2.2,0.2c-1.2,0.7-1.7,2.1-1.2,3.4c0.1,0.2,0.1,0.3,0.2,0.5c-0.2-0.1-0.3-0.1-0.5-0.1c-0.7-0.9-2-1.3-3.1-0.8
			c-1.4,0.6-2.1,2.1-1.5,3.5c0.1,0.2,0.2,0.4,0.2,0.6c-0.3,0.1-0.5,0.3-0.8,0.5c-0.8,0.1-1.5,0.5-1.9,1.1c-0.4-0.1-0.8-0.2-1.1-0.1
			c-0.1,0-0.1,0-0.2,0c0.3,3.5,0.9,7,1.6,10.4c-1.2,0.7-5.2,1.6-4.8,3.3c2.8,12,7.4,26.7,5.3,39.1c0,0.2,3.7-0.5,3.7-0.3
			c-2.8,5.4-12.7,7-17.6,8.6c-8.6,2.8-17.1,5.7-25.3,9.7c-15.6,7.7-28.1,20-39.5,32.8c-22.2,25-41.8,52.3-64.4,77
			c-12.6,13.8-26.3,26.8-41.6,37.7c-0.3,0.2-0.6,0.5-0.8,0.8c-8.6,5.9-19,7.9-25.1,17.2c-3.5,5.3-6.1,10.9-10.1,15.9
			c-3.2,4-12.7,10.9-11.2,16.5c3.7,13,48.3-16.6,59.1-28.3c0.3-0.1,0.5-0.2,0.8-0.4c45.3-27.3,90.5-56.1,128.2-93.6
			c10.6-10.5,21.7-21.7,28.9-34.8c1.1-1.9,0.4-4.3-1.4-5.4c2.3-1.6,4.5-3.2,6.8-4.9c0.9,0.5,2,0.6,2.9,0.2c22-8,43.7-16.5,65.3-25.5
			c0.4,0.8,1,1.4,1.7,1.9c-1,1-1.4,2.5-1.2,3.9c-1.9,2.4-0.6,6.6,2.5,6.6c0.3,0.3,0.6,0.6,1,0.9c0.3,0.2,0.7,0.3,1,0.5
			c-8.1,2.3-4.5,15,3.8,12.8c31.7-8.2,59.5-25.8,85.8-44.7c13.6-9.7,26.9-19.7,40.6-29.3c14.7-10.3,29.5-20.2,44-30.7
			c15.7-11.3,32.9-22.8,44.7-38.3c5.6,0.2,11.1-1.6,14.6-6.4c3.9-5.5,2.6-11.6-1.1-16.4C732.7,788,735.7,784.7,738.2,781.1z"/>
		<path class="st0" d="M454.5,849.3c2.4-2.1,5.1-3.7,8-4.9c0.9-0.4,1.9,0,2.3,0.8c0.5,0.8,0.2,1.9-0.6,2.4c-2.6,1.1-5.1,2.5-7.3,4.4
			c-0.7,0.6-1.8,0.6-2.4-0.1c0,0,0,0,0,0C453.9,851.1,453.9,850,454.5,849.3z"/>
		<path d="M462.4,844.5c0.9-0.5,2-0.2,2.6,0.7c0.5,0.9,0.2,2-0.6,2.6c-0.9,0.5-2,0.2-2.6-0.7C461.2,846.1,461.5,845,462.4,844.5z"/>
		<path class="st2" d="M443.4,866c-2.1-0.7-3.1,2-1.8,3.3c0,0.1,0,0.1,0,0.2c-0.6-0.6-1.5-0.6-2.1-0.1c-2.1,1.5-5.2,3.1-6.9,5.2
			c-0.8-0.8-2-0.9-2.9-0.1c-0.1,0.1-0.2,0.2-0.3,0.4c-1.2,1.8-0.8,3.3-0.1,5.2c0.9,2.4,0.7,4.7,1.5,7.2c0.6,1.9-0.2,4.5,1.5,5.9
			c1.5,1.3,3.4,0.6,4.6-0.9c0.5-0.9,1-1.8,1.2-2.8c0.7-1.7,1.7-2.3,2.8-3.6c2-2.3,1.2-5.4,2.3-8.1
			C444.7,875.1,447.8,867.5,443.4,866z"/>
		<path d="M464.6,843c-4.6,1.4-8.8,4.1-12.1,7.6c-0.4,0.5,0.3,1.2,0.7,0.7c3.2-3.4,7.2-6,11.6-7.4
			C465.4,843.7,465.2,842.8,464.6,843z"/>
		<g class="st3">
			
				<image style="overflow:visible;enable-background:new    ;" width="90" height="101" xlink:href="C8D3C41398E07E36.png"  transform="matrix(1 0 0 1 392.0434 829.3242)">
			</image>
		</g>
		<path class="st0" d="M473.4,862c0.1,0,0.2,0,0.3,0c0.1-0.1,0.1-0.1,0.2-0.1l1.7-0.5c0,0,0,0,0,0c0.2-0.3,0.6-0.5,1-0.5
			c0-0.2,0.2-0.3,0.4-0.4c0-0.2,0.2-0.4,0.4-0.5c0-0.3,0.2-0.6,0.5-0.6c0.1,0,0.1,0,0.2,0l0,0.1c0,0.1,0,0.2,0.1,0.3l0,0
			c0.2,1,0.6,2,1.3,2.7l0.7,0.6c0,0.1-0.1,0.1-0.2,0.2c-0.2,0.3-0.5,0.3-0.8,0.2c-0.1-0.1-0.1-0.1-0.2-0.2c-0.1-0.1-0.1-0.2-0.2-0.3
			c-0.2,0-0.4,0-0.5-0.1c-0.1,0-0.2,0-0.2,0c-0.1,0.2-0.2,0.3-0.4,0.3c-0.3,0.1-1.2,0.6-1.6,0.3c-0.9,0.5-3,0.2-4.1,0
			C471.1,863.4,472.6,861.9,473.4,862z"/>
		<path class="st0" d="M446.8,864c-4,0-7.3,3.3-7.3,7.3c0,4,3.3,7.3,7.3,7.3c4,0,7.3-3.3,7.3-7.3l0,0
			C454,867.3,450.8,864.1,446.8,864z M451.4,873.9c-0.2,0.3-0.3,0.5-0.5,0.7c-0.1,0.2-0.3,0.4-0.5,0.5c-0.2,0.1-0.4,0.3-0.5,0.4
			c-0.2,0.2-0.3,0.3-0.5,0.4l-1.2,0.5c0,0,0,0-0.1,0c-0.5,0.1-0.9,0.2-1.4,0.2c-0.9,0-1.8-0.3-2.6-0.7c-0.1,0-0.1-0.1-0.2-0.1l0,0
			c-0.1,0-0.1-0.1-0.2-0.1c-0.3-0.2-0.6-0.4-0.8-0.7l-0.2-0.3c-0.1-0.2-0.2-0.3-0.4-0.5L442,874c-0.2-0.4-0.4-0.8-0.5-1.2
			c-0.2-0.9-0.2-1.8,0-2.6c0.1-0.6,0.4-1.2,0.9-1.7c0.2-0.4,0.4-0.7,0.7-1c0.3-0.3,0.7-0.5,1-0.8c0.6-0.4,1.2-0.6,1.8-0.6
			c0.7-0.1,1.3-0.1,2,0.1c0.7,0.2,1.3,0.5,1.8,0.9C452,868.6,452.7,871.6,451.4,873.9L451.4,873.9z"/>
		<path class="st4" d="M480.2,862.2c-1,0.1-2.1,0.3-3.1,0.7c-1.8,0.4-3.8,0.9-5.5,0.1c-0.1,0-0.2,0-0.3,0.1c-0.2,0-0.4,0.3-0.4,0.5
			c0,0.1,0.1,0.3,0.2,0.3c2,1.3,4.4,2,6.8,2.1c1.2,0,3.6-0.3,3.9-1.8C482.1,862.9,481.2,862.3,480.2,862.2z"/>
		<path class="st4" d="M479.2,856.8c-0.8-1.3-2.5-0.3-2.9,0.3c-1.4,2.1-3.1,4-4.9,5.7c0,0,0,0,0,0c-0.1,0.1-0.2,0.2-0.3,0.3
			c-0.1,0-0.1,0.1-0.1,0.2c0,0,0,0,0,0c0,0,0,0,0,0.1c0,0.1,0,0.2,0.1,0.3c0,0,0,0,0,0c0.4-0.1,0.8-0.2,1.2-0.4
			C474.8,862.2,480.8,859.4,479.2,856.8z"/>
		<path class="st1" d="M604.9,1273.8c-0.4,0.1-0.8,0.3-1.2,0.5c-0.7-0.1-1.4,0-2.1,0.2c-1.9-1-4.2-0.5-5.5,1.2
			c-1.9-0.9-4.2,0-5.1,1.9c-0.1,0.2-0.1,0.3-0.2,0.5c-0.3,0.9-0.6,1.8-0.8,2.8c-1.8-1.1-4.2-0.4-5.3,1.4c-0.2,0.3-0.3,0.5-0.4,0.8
			c-1.1-1.4-3.1-1.8-4.7-1c-2.5-1-5.7,0.1-5.3,3.4c1.2,10,2,20,2.3,30.1c0,2.1,1.7,3.8,3.8,3.8c0.2,0,0.3,0,0.5,0
			c0.2,2.3,2.2,4,4.5,3.8c0.5,0,1-0.2,1.5-0.4c0.1,0,0.2,0,0.3,0c0,0.4,0.1,0.8,0.1,1.2c0.4,5,8.1,5.1,7.9,0c0-0.8-0.1-1.7-0.1-2.5
			c0.1,0,0.2,0,0.3-0.1c1,0.6,2.2,0.8,3.3,0.5c1.3,2.4,4.9,2.3,6.5,0.1c2.2,0.2,4.2-1.5,4.4-3.8c1.2-13.9,1.9-27.7,2.1-41.7
			C611.6,1272.7,607.1,1271.7,604.9,1273.8z"/>
		<path class="st1" d="M538.4,1347.4c-0.4,0.1-0.8,0.3-1.2,0.5c-0.7-0.1-1.4,0-2.1,0.2c-1.9-1-4.2-0.5-5.5,1.2
			c-1.9-0.9-4.2,0-5.1,1.9c-0.1,0.2-0.1,0.3-0.2,0.5c-0.3,0.9-0.6,1.8-0.8,2.8c-1.8-1.1-4.2-0.4-5.3,1.4c-0.2,0.3-0.3,0.5-0.4,0.8
			c-1.1-1.4-3.1-1.8-4.7-1c-2.5-1-5.7,0.1-5.3,3.4c1.2,10,2,20,2.3,30.1c0,2.1,1.7,3.8,3.8,3.8c0.2,0,0.3,0,0.5,0
			c0.2,2.3,2.2,4,4.5,3.8c0.5,0,1-0.2,1.5-0.4c0.1,0,0.2,0,0.3,0c0,0.4,0.1,0.8,0.1,1.2c0.4,5,8.1,5.1,7.9,0c0-0.8-0.1-1.7-0.1-2.5
			c0.1,0,0.2,0,0.3-0.1c1,0.6,2.2,0.8,3.3,0.5c1.3,2.4,4.9,2.3,6.5,0.1c2.2,0.2,4.2-1.5,4.4-3.8c1.2-13.9,1.9-27.7,2.1-41.7
			C545.2,1346.3,540.6,1345.4,538.4,1347.4z"/>
		<path class="st2" d="M467.4,862c-0.1-1,0.5-1.9,1.4-2.2c0.2-0.1,0.4-0.1,0.6-0.2c0-0.7,0.3-1.4,0.7-1.9c0.5-0.5,1.2-0.8,1.9-0.9
			c0,0,0.1,0,0.2,0c0,0,0,0,0.1,0l0,0c0,0,0-0.1,0.1-0.1c0.3-0.7,0.8-1.4,1.5-1.7c0.3-0.1,0.6-0.2,0.9-0.2c0,0,0-0.1,0-0.1
			c0.1-0.2,0.2-0.4,0.3-0.6c0.3-0.4,0.6-0.7,1-0.8c0.2-0.1,0.4-0.1,0.6-0.1c0.1,0,0.1,0,0.2,0c0.9,0,1.7,0.5,2.1,1.3
			c0.3,0.9-0.1,2-1,2.4c-0.2,0.1-0.4,0.2-0.6,0.3c-0.1,0.7-0.4,1.3-1,1.7c-0.3,0.2-0.5,0.3-0.8,0.4c-0.1,0-0.2,0.1-0.2,0.1
			c0,0.1-0.1,0.2-0.2,0.3c-0.2,0.4-0.4,0.8-0.8,1.1c-0.5,0.4-1.1,0.6-1.7,0.6c0,0-0.1,0.1-0.1,0.1l0,0c0,0-0.1,0.1-0.1,0.1
			c-0.1,0.2-0.2,0.4-0.4,0.6c-0.5,0.6-1.2,0.9-1.9,0.9c-0.4,0.4-1,0.6-1.6,0.6C467.9,863.1,467.4,862.6,467.4,862z"/>
		<path d="M460.7,839.2c-0.8,0.3-1.5,1-2.4,0.9c-0.6-0.1-1.2-0.1-1.8,0c-0.6,0.2-1,0.6-1.4,1.1c-0.3,0.4-0.6,0.7-0.9,1
			c-0.5,0.3-1,0.6-1.5,0.8c-1.3,0.6-1.5,1.9-2.4,2.9c-0.6,0.6-2.8,1.4-2.4,2.5c0.2,0.6,0.8,0.9,1.4,0.8c0.5,0,1-0.1,1.4-0.4
			c0.1-0.1,0.2-0.1,0.3-0.2c0.8-0.6,1.5-1.2,2-2c0.6-0.7,1.4-1.3,2.3-1.5c0.6-0.2,1.2-0.4,1.7-0.8c0.2-0.2,0.5-0.4,0.7-0.7
			c0.1-0.1,0.1-0.1,0.2-0.2c0.2-0.3,0.5-0.5,0.8-0.6c0.8-0.2,1.5-0.4,2.3-0.6c0.8-0.3,1.9-1.2,1.8-2.3
			C462.7,839,461.5,838.9,460.7,839.2z"/>
		<path class="st2" d="M470.9,822.9c0.2-1.4,0-2.7-0.6-4c-0.7-1.6-2.4-2.7-2.3-4.5c0-2.8,1.2-5-1-7.5c-0.5-0.6-1.4-0.9-1.9-1.5
			c-0.5-0.8-0.4-1.8-0.6-2.7c-0.3-1.7-1.2-3.2-2.5-4.2c-0.9-0.7-2.6-1.1-3.3-1.9c-0.8-1-0.6-2.9-0.9-4.1c-0.9-3.1-3.6-4.6-6.7-4.4
			c-1.8,0.1-2.1,0.2-3.2-1.3c-0.9-1.2-2-2.1-3.4-2.7c-3.3-1.3-5.8,0.8-9,0.6c-1.5-0.1-2.3-1.3-3.5-1.9c-1.2-0.7-2.6-1-4.1-0.8
			c-3.5,0.3-5.7,3.6-9.3,2.7c-3.1-0.7-5.8-1.5-8.8,0.2c-1.3,0.8-2.5,1.9-3.6,3c-1.7,1.7-2.9,1.8-5.3,2.1c-2.9,0.3-5.5,2-7.1,4.5
			c-0.7,1.3-1.8,2.4-3.1,3.1c-1.6,0.8-3.4,1.1-5,2c-2.9,1.8-3.9,4.4-4.1,7.7c-0.3,3.4-1.9,4.8-3.8,7.4c-1.7,2-2.4,4.5-2.1,7.1
			c0.3,1.6,1.1,3,1,4.6c-0.1,1.6-1,3.2-1.5,4.7c-0.9,2.9-1,6,0.7,8.6c0.9,1.2,1.8,2.2,2.9,3.2c1.9,1.9,2.1,3.5,2.2,6.2
			c0.1,3,0.5,6.2,2.6,8.5c1.1,1,2.3,1.7,3.6,2.3c1.9,1,1.8,2.2,2,4.3c0.4,2.8,0.8,5.7,2.9,7.8c2.3,2.2,5.9,1.8,8,3.8
			c1.2,1.1,1.6,3,2.7,4.3c1.1,1.2,2.6,2,4.2,2.2c1.7,0.1,3.3-0.1,4.9-0.7c1.6-0.6,3.3-0.5,4.8,0.3c3.3,1.2,6.2,1.3,8.9-1.3
			c0.4-0.4,1.1-1.6,1.7-1.9c0.6-0.2,1.8,0.3,2.4,0.4c1.6,0.4,3.3,0.2,4.9-0.5c1.5-0.8,2.1-2.1,3.2-3.2c1.3-1.4,3.2-1.4,4.8-2.5
			c2.2-1.5,3.6-3.9,3.9-6.5c0.4-2.3,0.5-4.6,0.2-6.9c1.2-1.1,2.8-1.7,3.8-3.2c2-2.9,2.6-6.5,1.6-9.9c0.6-0.3,1.2-0.5,1.8-0.7
			c3-1,5.4-2.7,5.8-6.1c0-0.3,0.1-0.6,0.1-0.9c0.5-0.2,1-0.3,1.4-0.4c1.1-0.3,2.2-0.7,3.2-1.3c1.1-0.7,1.9-1.7,2.3-2.9
			c0.5-1.6-0.4-3.5,0.2-4.9C467.9,826.7,470.4,825.6,470.9,822.9z"/>
		<path class="st5" d="M650.7,1206.6c7.2-9.1,14.8-17.7,13.2-30.3c-1.4-10.7-9.5-20.6-7-31.6c0-0.2,0-0.3,0-0.5
			c1.4-9.4,3.1-18.7,2.7-28.2c-0.5-12.4-4.4-25.7-14.3-33.9c-5.2-4.3-11.4-6.9-17.7-9.4c-6.1-2.4-12-5.2-17.8-8.2
			c-6.1-3.1-12.4-6-19.3-7c-7.3-1-14.9,0.3-22-1.5c-7.7-2-13.9-6.8-22-7.4c-6.1-0.5-12.3,0.9-18.4,0.1c-0.1-0.1-0.2-0.1-0.3-0.2
			c-0.1,0-0.1,0-0.2,0c-4.5,0.9-9.1,1.7-13.7,1.5c0.7,0.5,1.3,1,2,1.4c-0.1,0.3-0.1,0.6-0.2,0.9c-6.2-0.1-12.4,0.2-18.6,0.9
			c-0.8,0.1-1.5,0.2-2.2,0.4c-3.4-0.2-6.8,1.2-9,3.9c-2-2.8-4.7-4.3-8.6-4.7c-4.1-0.5-8,2-10.1,5.5l-4.2-4.6c-2.3-2.6-5.8-0.7-6.5,2
			c-0.5,0.4-0.9,0.9-1.2,1.5c-0.4,0-0.8,0.1-1.2,0.2c-0.5,0-1,0-1.5,0.1c-2-1.2-4.6-0.6-5.8,1.3c0,0,0,0,0,0.1
			c-1.3-0.5-2.7-0.6-4-0.4c-1-1.1-2.3-2-3.8-2.4c-3.2-5.5-13.2-6.3-15.5,1.8c-4.9,17.3-9.7,36.4-4.3,54.2
			c3.3,10.9,10.2,20.2,19.6,26.6c2.1,2.6,3.8,5.6,4.8,8.8c2.7,9.5,0.4,20.1,1.3,30.1c0.6,6,1.8,11.8,4.8,17
			c2.6,4.7,6.4,8.6,10.2,12.2c3.3,3.1,7.1,6.2,9.8,9.9c2.6,3.7,4.4,7.9,5.4,12.2c2.3,9.4,1.5,19.8-0.1,29.2c-2,12.4-4.1,24.8,0,37.1
			c3.4,10.1,9.7,19,12.7,29.2c2.8,9.7,2.1,20,6.1,29.7c3.8,9.8,12.9,16.6,23.4,17.4c20.8,1.9,38-16.8,41.5-36.6
			c2.1-11.8,0.2-22.8-4.6-33.7c-4.2-9.4-9.5-17.8-9-28.4c0.4-10,4.3-19.9,6.1-29.8c2.1-11.8,1.6-23-3.6-33.8
			c-4.5-9.2-11.8-16.7-15.7-26.2c-0.1-0.3-0.2-0.6-0.4-0.9c0.8-11.1-0.8-22-2.7-33c-2-11.2-4-22.6-9.8-32.5c0.4-1.4,1.2-2.6,2.3-3.6
			c16,15.4,38.4,19.7,60.1,19.9c0,1.6-1,3.8-1.7,5.7c-2.4,5.9-3.4,12.3-2.8,18.6c0.6,6.1,2.4,12,3.9,17.9c1.4,5.6,2.9,11.6,2,17.4
			c-0.8,5.4-3.4,10.3-6.3,14.7c-6.5,9.8-14.1,18.7-17.9,30.1c-3.7,11-4.9,23.1-0.9,34.2c3.7,10.4,12.1,18.4,22.6,21.7
			c20.9,6.4,46.5-3.8,59.3-21.1c7.8-10.5,7.7-22.7,6.2-35.2c-0.7-5.6-1.6-11.2-1-16.8C645.2,1215,647.4,1210.8,650.7,1206.6z"/>
		<path d="M563.5,914.2c-2.7-1.8-3.8-2.2-4.5-5.6c-0.6-2.8-1-5.6-2.7-8c-1.5-2.2-3.7-3.6-5.8-5.2c-2.5-2-2.9-3.8-3.5-6.8
			c-1.2-6-5.6-10-11.9-8.3c-3,0.8-5.2,2.8-7.7,4.4c-3,1.9-6.6,2.4-10,3.2c-3.5,0.6-6.9,1.8-10,3.6c-1.4,1-2.9,1.9-4.4,2.7
			c-1.9,0.9-3.9,0.8-5.9,0.9c-6.8,0.4-17.4,5.7-22.9-0.3c-0.7-0.9-1.9-1.3-3-1.1c-0.9,0-1.7,0.4-2.4,1.1
			c-9.8,9.4-23.8,12.9-36.8,9.4c-1.9-0.6-3.9,0.5-4.4,2.4c0,0.1,0,0.1-0.1,0.2c-1.7,3.2-4.9,4.1-8.3,4.9c-4.2,1-8.1,2-11.9,4.2
			c-3.4,2-7.2,3.2-11.1,3.6c-3.5,0.5-6.8,2-9.4,4.5c-2.3,2.1-4,4.8-6.4,7c-2.9,2.7-6.8,4.1-10.4,5.6c-6.8,2.9-12.5,7.2-15,14.4
			c-2.4,6.9,0.9,10.9,6.5,14.2c0.9,0.5,2.3,1.1,2.9,2.1c0.9,1.5,0.2,3.6,0.1,5.2c-0.3,3.3,0,6.5,2.4,9c2.1,2.2,5,2.8,7.2,4.7
			c3.1,2.7,1.2,7,2,10.5c1.6,7.3,10.5,9.6,15.8,5.6c3.5-2.7,4.4-7.9,8.7-9.7c3.4-1.4,6.5-2.6,8.9-5.5c2.2-2.6,3.2-6.1,5.3-8.7
			c0.2,1.6,0.5,3.3,0.9,4.9c0.8,2.9,2,5.7,2.3,8.7c0.3,3.3-0.8,6.5-1.6,9.7c-1.5,5.7-1.5,10.8,1,16.1c2.1,4.4,6.5,8.9,6,14
			c-0.5,5.7-5.1,10.3-6.5,15.8c-1.2,4.9-0.7,10.4,3.2,13.9c3.8,3.4,9.1,3.6,13.9,2.8c3.2-0.5,6.3-1.5,9.5-1c3.1,0.4,5.9,1.9,8.8,2.9
			c11,3.6,19.2-2.5,28.6-7.4c5.6-2.9,10.7-2.9,16.9-2.1c6,0.8,12.1,0.2,17.7-1.9c5.2-1.9,10.2-4.7,15.7-5.5
			c4.9-0.8,9.5-0.6,13.9-3.4c4.4-2.8,2.5-7.7,0.4-12.2c-2.5-5.2-6.7-6.3-7.7-12.4c-0.6-3.6,0-7.3,0.2-10.8c0.2-2.8,0.6-7.3-0.6-9.8
			c-2.7-5.6-7.2-6-8.3-12.4c-0.7-4.4-1.7-8.7-3.1-13c-1.2-2.9-3.4-3.5-5.3-6c-3.2-4.1-2.4-10.7-3.5-16.2c5.7-0.5,8.7-2.3,13.5-5.6
			c2.8-1.9,5.9-3.4,9.1-4.4c3.2-0.9,6.3-2.2,9.2-3.7c2.7-1.5,5.3-3.4,7.6-5.6c2.5-2.5,5.7-1.7,8.5-3.5
			C570.3,926.5,568.6,917.6,563.5,914.2z"/>
		<path class="st6" d="M596.2,1450.9c1.2-5.9-2.4-11.5-6.8-15c-2.9-2.2-6-4.1-9.3-5.8c-3.1-1.8-6-3.9-8.7-6.4
			c-5.4-5-8.9-11.3-12.4-17.6c-2.1-4-4.5-7.7-7.3-11.2c-0.7-3-1.6-6-4.2-7.9c-1.3-1-2.8-1.5-4.4-1.6c-1.1-0.3-2.2-0.3-3.3-0.1
			c-4.2,1-5.8,5.7-8.9,8.3c-1.5,1.3-3.5,2.4-5.6,2c-2.4-0.5-4.1-2.9-5.5-4.8c-1.9-2.4-4.9-5.4-7.9-5.2c-1.7-0.1-3.5,0.4-5,1.2
			c-2,1.2-3.6,3-4.6,5c-0.2,0.4-0.4,0.7-0.5,1.1c-9.3,7.2-17.7,16.3-17,28.8c0,0.2,0,0.4,0.1,0.5c-0.2,0.2-0.3,0.5-0.4,0.8
			c0.3,0.8,0.7,1.7,1.1,2.5c6,7.5,14.9,12.2,24.4,13c3.7,0.3,7.5,0.2,11.2,1.2c3.7,1.2,7.1,2.9,10.3,5.1c3.1,1.9,6.3,3.8,9.6,5.6
			c6.7,3.6,13.7,6.4,21,8.4c6.6,1.8,13.9,3.2,20.8,2.4C588.7,1460.7,594.9,1457.2,596.2,1450.9z"/>
		<path class="st7" d="M517.4,1428.2c2.1-5.2-5.2-8.7-10.2-10.1c-4-2-10.3-4.2-12.5-0.1c-0.9,1.4-1,3.3-0.2,4.8
			c1.2,2.5,4.2,4.3,6.5,5.5c2.7,1.5,5.8,2.3,8.9,2.5c0.9,0.1,1.9,0.1,2.8,0c0.1,0,0.2,0,0.4,0c0.2,0,0.3,0,0.5-0.1
			C515.2,1430.5,516.8,1429.8,517.4,1428.2z"/>
		<path class="st7" d="M535.7,1438.5c2-3.1-0.7-5.6-3.6-7c-1.8-1.1-3.8-1.7-5.9-1.7c-1.3-0.1-2.4,0.8-2.7,2.1
			c-0.5,2.3,1.8,4,3.5,5.2c1.6,1.1,4.2,2.9,6.3,2.6c0.3,0,0.5-0.1,0.8-0.2C534.8,1439.4,535.4,1439.1,535.7,1438.5z"/>
		<path class="st8" d="M554.3,1401.4c-3.8,0.1-7.5,1-11,2.5c-0.8,0.4-1.2,1.4-0.8,2.2c0.4,0.8,1.3,1.2,2.1,0.9
			c3.2-1.4,6.7-2.1,10.2-2.3C556.9,1404.6,556.4,1401.3,554.3,1401.4z"/>
		<path class="st8" d="M559.4,1408.9c-3.6-0.1-7.2,0.4-10.7,1.7c-2,0.7-0.7,3.8,1.3,3.1c2.9-1.1,5.9-1.6,9-1.5
			C561.1,1412.3,561.6,1409,559.4,1408.9z"/>
		<path class="st8" d="M562.8,1415.4c-3.3-0.5-6.8,0.2-9.7,1.9c-0.7,0.6-0.9,1.6-0.3,2.3c0.6,0.7,1.6,0.8,2.3,0.3
			c2.2-1.2,4.8-1.7,7.2-1.3C564.6,1419.1,564.9,1415.8,562.8,1415.4z"/>
		<path class="st8" d="M566.1,1421.2c-2.8-0.5-5.6,0.2-7.9,1.9c-1.7,1.3,0.4,4,2,2.7c1.5-1.2,3.5-1.7,5.4-1.3
			C567.8,1425,568.2,1421.6,566.1,1421.2z"/>
		<path class="st9" d="M586.8,1449.2c-4.3-2-8.7-3.6-13.3-4.7c-4.4-1.1-8.9-1.7-13.3-3c-4.5-1.3-8.7-3.2-11.6-7
			c-2.5-3.3-4.3-7.1-7.6-9.9c-3.3-2.8-7.7-4.1-11.9-4.9c-2.3-0.4-4.8-0.5-7-1.6c-2.3-1.2-3.8-3.3-5.5-5.2
			c-5.1-5.7-12.7-8.6-20.3-7.6c-2.1,0.3-1.7,3.6,0.5,3.3c4.1-0.6,8.3,0.2,12,2.2c3.7,2,5.9,5.5,9,8.2c3.4,3.1,7.5,3.3,11.8,4.1
			c4.7,0.9,8.9,2.8,11.8,6.7c2.4,3.1,4.1,6.6,7,9.3c3.2,2.9,7.2,4.5,11.3,5.6c4,1,8.1,1.6,12.1,2.6c4.7,1.2,9.3,2.8,13.7,4.9
			C587.5,1453.2,588.7,1450.1,586.8,1449.2z"/>
		<path class="st6" d="M674.8,1353.4c-0.4-6-5.3-10.4-10.5-12.8c-3.4-1.3-6.9-2.4-10.4-3.2c-3.5-0.9-6.9-2.2-10-3.9
			c-6.5-3.5-11.5-8.6-16.5-13.8c-3-3.3-6.4-6.3-10-8.9c-1.4-2.7-3.1-5.4-6.1-6.5c-1.5-0.6-3.1-0.7-4.7-0.4c-1.1,0-2.3,0.2-3.3,0.8
			c-3.8,2-4.1,7.1-6.4,10.3c-1.1,1.7-2.8,3.2-4.9,3.4c-2.5,0.2-4.7-1.8-6.6-3.2c-2.4-1.8-6.1-3.9-9-3c-1.7,0.4-3.3,1.3-4.5,2.5
			c-1.6,1.7-2.7,3.8-3.2,6.1c-0.1,0.4-0.2,0.8-0.2,1.2c-7.1,9.4-12.9,20.4-9,32.3c0.1,0.2,0.1,0.3,0.2,0.5c-0.1,0.3-0.2,0.6-0.2,0.9
			c0.5,0.7,1.1,1.4,1.7,2.1c7.8,5.7,17.5,7.9,27,6.2c3.7-0.6,7.3-1.7,11.1-1.7c3.8,0.2,7.6,1,11.3,2.2c3.5,1.1,7.1,2.1,10.7,2.9
			c7.4,1.7,14.9,2.6,22.4,2.7c6.9,0,14.3-0.5,20.8-3C670.2,1364.8,675.2,1359.8,674.8,1353.4z"/>
		<path class="st7" d="M592.9,1351.8c0.7-5.5-7.2-7-12.5-7.1c-4.4-0.9-11-1.4-12.1,3.2c-0.5,1.6-0.1,3.4,1,4.7
			c1.8,2.1,5.1,3.1,7.8,3.7c3,0.7,6.2,0.7,9.2,0.1c0.9-0.2,1.8-0.4,2.7-0.7c0.1,0,0.2-0.1,0.3-0.1c0.2,0,0.3-0.1,0.4-0.2
			C591.3,1354.7,592.7,1353.6,592.9,1351.8z"/>
		<path class="st7" d="M613.2,1357.1c1.1-3.5-2.1-5.3-5.3-5.8c-2-0.6-4.1-0.6-6.1-0.1c-1.3,0.2-2.2,1.4-2,2.7
			c0.1,2.4,2.8,3.4,4.7,4.1c1.9,0.7,4.8,1.7,6.7,0.9c0.2-0.1,0.5-0.2,0.7-0.4C612.5,1358.2,613,1357.7,613.2,1357.1z"/>
		<path class="st8" d="M621.5,1316.4c-3.6,1.1-7,2.9-10,5.2c-0.7,0.6-0.8,1.6-0.2,2.4c0.6,0.7,1.5,0.8,2.3,0.3
			c2.8-2.2,5.9-3.8,9.2-4.8C624.9,1318.8,623.6,1315.8,621.5,1316.4z"/>
		<path class="st8" d="M628.4,1322.4c-3.5,0.8-6.9,2.3-9.8,4.4c-1.8,1.2,0.3,3.9,2,2.6c2.5-1.8,5.3-3,8.3-3.7
			C631,1325.2,630.5,1321.9,628.4,1322.4z"/>
		<path class="st8" d="M633.4,1327.8c-3.4,0.4-6.5,1.9-8.8,4.4c-0.6,0.7-0.4,1.8,0.3,2.3c0.7,0.5,1.8,0.4,2.3-0.3
			c1.8-1.8,4.2-2.9,6.7-3.1C636,1330.9,635.6,1327.6,633.4,1327.8z"/>
		<path class="st8" d="M638.1,1332.5c-2.8,0.2-5.4,1.6-7.1,3.9c-1.3,1.7,1.4,3.8,2.7,2c1.2-1.6,3-2.5,4.9-2.6
			C640.7,1335.7,640.2,1332.4,638.1,1332.5z"/>
		<path class="st9" d="M665.3,1354.2c-4.7-0.8-9.4-1.2-14.1-1.1c-4.5,0-9.1,0.6-13.6,0.6c-4.7,0-9.2-0.9-13-3.8
			c-3.3-2.5-6-5.8-9.9-7.6c-3.9-1.8-8.5-2-12.7-1.6c-2.3,0.2-4.8,0.8-7.1,0.3c-2.5-0.6-4.5-2.2-6.6-3.6c-6.4-4.2-14.5-5-21.5-2.1
			c-2,0.8-0.7,3.9,1.3,3.1c3.8-1.6,8.1-2,12.1-1c4.1,1,7.1,3.7,10.8,5.6c4.1,2.1,8.1,1.2,12.4,0.9c4.7-0.3,9.3,0.4,13.1,3.4
			c3.1,2.4,5.6,5.4,9.1,7.2c3.8,2,8.2,2.5,12.4,2.4c4.1,0,8.2-0.5,12.3-0.6c4.9-0.1,9.7,0.3,14.5,1.1
			C667,1357.8,667.4,1354.5,665.3,1354.2z"/>
		<path d="M497.4,957.3c-4.7,6.5-9.1,13.1-13.4,19.9c-2.5,4,3.7,8,6.2,4c4.2-6.8,8.7-13.4,13.4-19.9
			C506.4,957.4,500.2,953.4,497.4,957.3z"/>
		<path d="M472,950.8c-1.6,7.8-2.9,15.7-4,23.6c-0.6,4.7,6.6,5.8,7.3,1.1c1.1-7.9,2.4-15.8,4-23.6C480.3,947.2,473,946.1,472,950.8z
			"/>
		<path d="M446.4,957.4c3.1,7.3,6.5,14.6,10.1,21.7c2.1,4.2,8.7,1,6.6-3.3c-3.6-7.1-7-14.4-10.1-21.7
			C451.2,949.8,444.6,953.1,446.4,957.4z"/>
		<path d="M430.2,978.2c6.3,4.9,12.7,9.6,19.3,14.1c3.9,2.7,8.1-3.4,4.2-6c-6.6-4.5-13-9.2-19.3-14.1
			C430.7,969.3,426.5,975.3,430.2,978.2z"/>
		<path class="st0" d="M505.8,980.2c0-0.4-0.2-0.8-0.4-1.2c-8.8-12.7-25.6-18.7-40.6-14.9c-14.9,3.8-26.4,16.1-30.5,30.7
			c-0.3,0.6-0.4,1.3-0.2,2c0.2,0.5,0.4,0.9,0.9,1.2c4.6,5.1,10.2,9.1,16.5,11.8c0.6,0.3,1.2,0.5,1.8,0.7c1.4,0.5,2.8,1,4.3,1.4
			c1.6,0.5,3.3,0.9,5,1c4.4,0.6,8.9,0.5,13.3-0.4c15.1-3.1,27.6-15.8,30.1-31C505.9,981,505.9,980.6,505.8,980.2z"/>
		<path d="M487.6,984.6c-1-4.5-3.5-8.5-7.1-11.3l-1.6-0.8c-0.5-0.3-1-0.6-1.6-0.9l-0.8-0.4c-1.1-0.4-2.3-0.7-3.5-0.9
			c-1.9-0.3-3.8-0.3-5.7,0c-9,1.5-16.3,10.9-14.3,20.1c0,0.1,0.1,0.3,0.1,0.4c1,4.4,3.5,8.3,7.1,11.1l3.9,2.1c2.9,1.1,6,1.4,9.1,0.9
			l4.5-1.4c2.7-1.3,5.1-3.2,6.8-5.7l0.1-0.1c1.3-1.6,2.1-3.5,2.5-5.5c0.1-0.4,0.2-0.8,0.3-1.2C487.9,988.8,488,986.7,487.6,984.6z"
			/>
		<path d="M438,1395.1c-1.8-0.3-3.6,0-5.3,0.9c-2.9,1.4-6,2.5-9.1,3.1c-5.1,0.8-15.6-1.2-14-8.5c0.6-2.8,2-5.6,2.9-8.2
			c1.1-3.2,2.2-6.5,3.2-9.7c2-6.1,3.8-12.3,5.6-18.4c3.6-12.5,6.7-25.2,9.4-38c2.9-13.5,6.5-27.8,4.5-41.6c-0.1-0.8-0.8-1.4-1.6-1.4
			c-0.1,0-0.2,0-0.3,0.1c-0.1,0-0.1,0-0.2,0c-14.4-0.7-28.9,0.5-43.1,3.4c-0.9,0.2-1.5,1-1.4,2c0,0.2,0.1,0.3,0.1,0.4
			c-2.8,45-16.8,88.2-30.6,130.8c-0.1,0.2-0.1,0.3-0.1,0.5c0,0.1,0,0.2,0,0.3c0,1,0.9,1.9,1.9,1.9l2.1,0.1c1,0,1.9-0.8,1.9-1.9
			c0,0,0-0.1,0-0.1c4.6-10.1,8.8-20.3,12.7-30.7c0.5,6.9,1.7,13.8,3.4,20.5c1,3.6,2.1,8.8,5,11.5c0.2,0.6,0.7,1,1.3,1
			c0.1,0,0.2,0,0.3,0.1c2.9,1.5,6.9,1.6,9.9,1.9c9.8,1,19.7,0.8,29.5-0.6c4-0.6,7.7-2.4,10.6-5.2c1.7-1.4,3.2-3.1,4.2-5.1
			C442.9,1400.6,442.6,1396.1,438,1395.1z"/>
		<path d="M501.7,1356.2c-1.7-0.7-3.5-0.9-5.3-0.5c-3.2,0.7-6.4,0.9-9.6,0.7c-5.1-0.5-14.8-5.1-11.4-11.7c1.3-2.5,3.3-4.9,4.9-7.3
			c1.9-2.8,3.7-5.7,5.6-8.6c3.4-5.4,6.8-10.9,10.1-16.4c6.6-11.2,12.9-22.7,18.7-34.4c6.2-12.4,13.3-25.2,14.9-39.1
			c0.1-0.8-0.4-1.6-1.2-1.7c-0.1,0-0.2,0-0.3,0c-0.1,0-0.1-0.1-0.2-0.1c-13.8-4.3-28.1-6.8-42.5-7.5c-0.9-0.1-1.7,0.6-1.8,1.6
			c0,0.2,0,0.3,0,0.5c-14,42.9-38.4,81.2-62.6,118.9c-0.1,0.1-0.2,0.3-0.2,0.4c0,0.1-0.1,0.2-0.1,0.3c-0.2,1,0.4,2,1.4,2.3l2,0.6
			c1,0.3,2-0.3,2.3-1.4c0,0,0-0.1,0-0.1c7-8.6,13.7-17.4,20.1-26.5c-1.2,6.8-1.8,13.7-1.8,20.7c0.1,3.7-0.2,9,1.9,12.4
			c0,0.6,0.4,1.1,1,1.3c0.1,0,0.2,0.1,0.3,0.1c2.4,2.2,6.3,3.3,9.1,4.4c9.3,3.5,18.9,5.8,28.7,6.9c4,0.5,8.1-0.4,11.6-2.4
			c2-0.9,3.8-2.2,5.3-3.8C505.1,1362.8,506,1358.3,501.7,1356.2z"/>
		<path class="st10" d="M365.6,870c0.8-2.4,0.7-5.3,0.9-7.7c0.4-4.2,0.7-8.3,1-12.5c1.3-16.3,3-32.8,1.6-49.2
			c-0.6-7.2-1.6-14.7-4.5-21.4c-1-2.2-2.1-5.1-4.4-6.4c-2.5-1.4-4.7,0.2-6,2.4c-4,6.8-5.3,15.1-6.3,22.8c-3,23.8-1,48,5.8,71
			c0,0.1,0,0.2,0,0.3c0.7,3,3.9,5.8,7.1,5.4C363.6,874.4,365.1,872.3,365.6,870z"/>
		<path class="st0" d="M363,865.8c0.2-1.9,0.4-3.9,0.3-5.8c0.1-3.1,0.2-6.2,0.3-9.4c0.4-12.2,0.9-24.7-0.1-36.3
			c-0.4-5.1-1.1-10.4-2.7-14.6c-0.5-1.4-1.2-3.3-2.4-3.7c-1.3-0.4-2.4,1.2-3,3.1c-1.9,5.9-2.4,12.3-2.8,18.1
			c-0.3,5.4-0.4,10.7-0.3,15.9c0.2,11.7,1.8,23.3,4.6,34.6c0,0.1,0,0.1,0,0.2c0.4,2,2.1,3.4,3.7,2.3
			C362.1,869.4,362.8,867.6,363,865.8z"/>
		<g class="st11">
			
				<image style="overflow:visible;enable-background:new    ;" width="157" height="216" xlink:href="C8D3C41398E07E3A.png"  transform="matrix(1 0 0 1 322.0434 1236.3242)">
			</image>
		</g>
		<g class="st12">
			
				<image style="overflow:visible;enable-background:new    ;" width="182" height="215" xlink:href="C8D3C41398E07E3D.png"  transform="matrix(1 0 0 1 384.0434 1193.3242)">
			</image>
		</g>
		<path class="st5" d="M423.2,906.2c-1.4-1.5-3.1-2.7-5.1-3.3c-1.6-0.6-4-0.7-5.4-1.8c-1.4-1.1-1.5-3.4-2-5
			c-0.6-2.4-1.9-4.5-3.5-6.3c-3.3-3.4-8-4.7-12.4-6.1c-0.5-0.2-2.6-0.5-3-0.9c-0.4-0.5-0.3-2.4-0.4-3c-0.4-2.3-1.5-4.4-3.2-5.9
			c-2-1.6-4.3-2.7-6.9-3.1c-1.3-0.3-2.6-0.5-3.9-0.6c-0.1,0-0.3,0-0.4-0.1c-0.2-0.5-0.4-1-0.7-1.5c-2.8-5.1-8.8-5.9-14.1-5.7
			c-5.4,0.2-5.4,8.5,0,8.4c1.8-0.2,3.6-0.1,5.3,0.4c1.7,0.7,1.7,2,2.6,3.5c1.2,1.7,3,2.9,5.1,3.1c-0.3,2,1,3.9,2.9,4.3
			c0.3,0.1,0.6,0.2,0.8,0.4c-1.2,0.7-1.9,2-1.8,3.4c0,3.9,0.3,7.7,0.7,11.6c-1.4,0.7-2.2,2.1-2.2,3.6c0,1.7,0.1,3.4,0.2,5
			c-1.7,0.5-2.8,2.1-2.7,3.8c0,0.1,0,0.2,0,0.3c-1,0.7-3.1,1.5-3.1,2.9c0,3.7-1.5,7.9,1.2,10.9c-0.4,1.2,2.5,1.4,2.1,2.6
			c-1,0.2-2,0.3-3.1,0.5c-2.3,0.3-4.2,1.7-4.2,4.2c0,2,1.9,4.5,4.2,4.2c12-1.5,23.7-4.5,35-8.9c5.3-2.1,11.4-4.1,15.8-7.7
			C424.9,916.3,426.7,910.5,423.2,906.2z"/>
		<path class="st13" d="M528.3,1142.4c-15.7-19.1-36.9-32.2-57.8-44.9c-12.6-7.6-25.2-15.2-36.7-24.4c-9.9-7.9-20.4-18.8-19.2-32.4
			c0.5-5.7-8.4-5.9-8.9-0.2c-0.3,3.8,0,7.6,0.9,11.2c-1.8-0.5-3.8,0.3-4.7,2c-1.3,0.1-2.6,0.7-3.5,1.7c-0.3-0.3-0.5-0.6-0.8-0.9
			c-2.3-2.5-6.2-1-7.4,1.6c-0.8-0.4-1.8-0.6-2.8-0.5c-2.5-2.4-6.8-0.2-7.2,3.1c-0.3,0.2-0.6,0.4-0.9,0.6l-0.4-0.6
			c-2.4-4.3-10.1-1.3-8.1,3.4c0.1,0.2,0.2,0.5,0.3,0.7l-3.1-4.6c-1.3-2.1-4.1-2.7-6.2-1.4c-1.6,1-2.4,3-2,4.8
			c0.1,0.3,0.1,0.6,0.2,0.9c-1.3-1.5-3.4-2-5.2-1.4c0.4-3.7,0.1-7.5-0.8-11.1c-1.4-5.5-10.1-3.4-8.6,2.2c2.8,10.9-3,21.4-8.3,30.6
			c-5.1,8.9-10.4,18.1-11.1,28.6c-1.5,22.1,16.6,37.5,28.6,53.7c12.5,16.9,25.6,36.1,29.9,56.6c4,19.4-1,41.5-3.4,61.2
			c-2.6,22.4-10.2,44-22,63.2c-2,3.1,0.5,6.3,3.7,6.8c28.8,4.3,58,5.4,87.1,3.1c3.2-0.2,5.8-3.4,4-6.6
			c-9.6-16.7-12.2-34.9-12.5-53.6c0.3,0.2,0.6,0.3,0.9,0.4c26.2,8.2,50.6,21.2,72.1,38.2c3.2,2.5,7.5-1.4,6.7-4.9
			c-5.3-21.2,1.2-42.5,8.6-62.4c7.6-20.6,16.8-41,19-63.1C550.7,1181,542.7,1159.9,528.3,1142.4z M470.7,1243.1
			c-7.7,16.1-17.7,31-29.5,44.4c0.2-16.7,1.7-33.6,1.1-49.8c-0.5-18.8-4.2-37.4-11-55c-6.1-15.6-14.9-29.8-23.4-44.2
			c-4.3-7.2-8.2-14.6-11.8-22.2c15.2,22.2,44.3,26.7,65.6,41.8c11.7,8.3,23.5,17.3,24.5,32.2
			C487.4,1206.8,477.7,1228.6,470.7,1243.1L470.7,1243.1z"/>
		<path class="st14" d="M382.6,897.7c-0.1-0.3-0.3-0.6-0.5-0.8c-0.4-0.9-0.8-1.7-1.2-2.6c-0.2-0.5-0.4-1-0.6-1.5
			c0.5-0.3,0.7-0.9,0.4-1.5c-0.4-0.9-0.7-1.9-0.8-2.9c0.8-0.4,1.5-0.9,2.1-1.6c1.2-1.5,2.6-3.6,0.9-4.6c-1.7-0.9-5.2-1.5-6.3-2.6
			c-1.2-1.1-2.2-2.3-3.2-3.6c0,0-0.1-0.1-0.1-0.1c-1.8-3.3-4.1-6.2-6.9-8.8l0,0c0,0-0.1-0.1-0.1-0.1c-0.2-0.3-0.5-0.7-0.7-1
			c-0.6-1.1-2-1.5-3.1-1c-0.2,0.1-0.5,0.3-0.6,0.5c-0.7-0.4-1.3-1.1-1.7-1.8c-0.3,0.2-0.6,0.4-0.9,0.6c-1.9,1.8-2,4.7-0.3,6.6
			c0.7,0.9,1.4,1.7,2.2,2.6c-1.9,0.2-3.5,1.5-4.2,3.3c-1,2.5-1.7,5.1-2.1,7.8c-0.4,2.9-0.8,6.7,1.6,8.9c0.1,0.1,0.2,0.2,0.3,0.3
			c-0.4,0.4-0.7,0.8-1,1.2c-1.5,2.4-1.1,5.5-0.2,8.2c-1.2,1.5-1,3.8,0.6,5c0.1,0.1,0.2,0.2,0.3,0.2c4.6,2.9,9.5,5.1,14.9,4.7
			c0.1,0,0.2,0,0.2,0c1.2-0.1,2.5-0.3,3.7-0.6c3.2-0.8,7.1-2.3,8.5-5.4C385.4,904,383.8,900.8,382.6,897.7z"/>
		<path d="M354.4,880.3c3.3-0.9,6.5-1.9,9.8-2.9c2.4-0.7,4.8-1.3,7.2-1.9c-0.3-0.3-0.7-0.6-1.1-0.7c-0.3-0.1-0.7-0.1-1,0.1
			c0,0-0.1,0-0.1,0.1c-0.7-0.3-1.4-0.3-2.1,0.1c-0.3-0.2-0.7-0.3-1.2-0.3c-0.5,0.1-0.8,0.5-1.3,0.6c-0.3,0-0.7-0.1-1-0.1
			c-0.2,0-0.5,0.1-0.7,0.2c-0.5,0.2-0.8,0.6-1.3,0.8c-0.6,0.3-1.4,0.2-2.1,0.4c-0.5,0.2-0.9,0.5-1.3,0.8c-0.6,0.4-1.3,0.6-2,0.7
			C355.6,878.3,353.7,879.3,354.4,880.3C354.4,880.3,354.4,880.3,354.4,880.3z"/>
		<path class="st0" d="M364.7,881.3c2-1.3,4.2-2.3,6.5-2.9c0.8-0.2,1.7,0.6,1.9,1.4c0.3,0.8-0.1,1.6-0.9,1.9c0,0-0.1,0-0.1,0
			c-2.1,0.6-4,1.5-5.8,2.7c-0.6,0.4-1.7-0.1-2.1-0.9C363.8,882.8,364,881.8,364.7,881.3z"/>
		<path d="M371.3,878.3c1-0.1,1.9,0.5,2,1.5c0.1,0.9-0.5,1.8-1.4,2c-1,0.1-1.9-0.5-2-1.5C369.8,879.4,370.4,878.5,371.3,878.3z"/>
		<path class="st14" d="M395.3,970.1c0.2,3.3,0.6,6.5,1,9.7c3.7-4.4,9.7-7,14.7-9.5c4.6-2.3,9.4-4.6,14.5-5.5
			c-7.9-16.5-21.6-30.5-40.2-33.4c-3.8-0.6-7.7-0.6-10.5-3.7c0,0,0,0,0,0c-2.7-4.6-5.4-12.1-2.5-16.7c2.9-4.6-4.3-8.8-7.2-4.2
			c-0.2,0.3-0.3,0.6-0.5,0.8c-2-1.5-5.5-0.4-6.5,2.2c-0.5,0.4-0.9,0.9-1.2,1.4c-2.1,0.6-3.3,2.8-2.7,4.9l1,3.9c0,0.3,0,0.6,0.1,0.9
			c0.8,3.7,1.8,7.4,2.8,11c0,0.1,0.1,0.3,0.1,0.4c0.1,0.2,0.1,0.4,0.2,0.7c0.2,0.7,0.4,1.4,0.6,2.1c0.1,0.2,0.1,0.3,0.2,0.4
			c-3.6,0.1-7.3,0.4-10.9,1c-0.7-0.4-1.6-0.6-2.4-0.4c-24.8,4.1-47.2,20.8-54.9,45.2c-3.7,11.7-4.5,24.2-4.1,36.5
			c0.5,14.1,3.2,28.6,0.3,42.6c-0.1,0.4-0.2,0.9-0.3,1.3c-7.6,18.9-15.3,37.8-22.9,56.8c-10.1,4.3-20.4,9.5-31.1,11.8
			c-4.3,0.9-9.2,2.4-10.9,7c-1.4,3.9,0.8,7.4,4.8,8.1c2.6,0.5,5.4-0.1,7.9-0.3c2.9-0.3,5.8-0.6,8.7-0.8c5.8-0.5,11.7-0.7,17.6-0.5
			c8,0.1,18.3-2.3,19.7-11.3c12-19.2,23-38.9,33-59.2c0.2-0.5,0.3-1,0.3-1.5c1.4-3.3,2.4-6.8,3-10.3c2-10.6,3.3-21.4,4.9-32.1
			c1.1-7.5,2.2-15,3.3-22.5c5.5,19.5,10.9,38.9,16.4,58.4c0.3,1.2,1.5,1.9,2.7,1.5c0.2-0.1,0.4-0.1,0.6-0.2c0.8,0.2,1.7-0.1,2.3-0.8
			c1.3,0.3,2.5-0.5,2.8-1.8c0-0.1,0-0.3,0.1-0.4c0-0.5,0-1,0-1.4c0.1-0.1,0.2-0.2,0.4-0.3c0.6,2.4,4.6,2.3,4.4-0.4l-1.2-14.9
			c-0.3-3.2-0.1-6.7-0.9-9.9l0.7-1.2c1.6-0.4,3.1-1,4.5-1.9c1.1-1.4,2.3-2.6,3.7-3.7c0.2-0.5,0.3-1,0.2-1.5c1.1-1.1,2.3-2.2,3.3-3.4
			c1.4-1.5,0.3-4.6-1.8-4.5c1-2.2-1.9-4.7-3.8-3.2c0-0.4,0-0.7-0.1-1.1c1.3-0.1,2.4-1.2,2.5-2.5l0.2-9.3c1.2-0.2,2.1-1.2,2.1-2.4
			c0-3.9-0.3-7.8-0.9-11.6c0.2-0.9,0.4-1.9,0.7-2.8c1,1.8,4.4,1.5,4.2-1c-0.1-2.1-0.3-4.1-0.4-6.2c1.3-1,2.5-2,3.7-3.1
			c1-0.7,2-1.5,3.1-2.1c0.2-0.2,0.5-0.3,0.8-0.5c0.7,1.1,2.2,1.5,3.3,0.8l9.6-4.6c1.1,0.3,2.2,0.2,3.2-0.1
			C392.5,970.9,394,970.8,395.3,970.1z"/>
		<path d="M372.2,877.2c-3.4,0.8-6.6,2.4-9.3,4.6c-0.6,0.5,0.3,1.3,0.8,0.8c2.5-2.1,5.6-3.6,8.8-4.3
			C373.2,878.2,372.9,877,372.2,877.2L372.2,877.2z"/>
		<path class="st4" d="M363.4,946.6c-8.4-1.7-16.4-5.2-23.4-10.2c-2-1.4-4,1.9-2,3.3c7.3,5.2,15.6,8.8,24.3,10.6
			C364.8,950.8,365.9,947.1,363.4,946.6z"/>
		<path class="st15" d="M374.4,925.8c-0.9-1.4-3-3.3-4.7-2.9c-1,0.2-1.3,1-2,1.3c-1.5,0.7-0.7,0.1-2.1-0.3c-0.6-0.2-1.2-0.2-1.8,0
			c-0.8,0.2-1.2,0.8-2.1,0.9c-0.6,0.1-0.8-0.2-1.3-0.2c-1.9,0-3.1,0.6-3.6,2.6c-0.3,1.5,1.9,2.1,2.3,0.6c0.2-0.8,2.2-0.5,3.1-0.5
			c0.1,0.2,0.2,0.4,0.4,0.5l2.8,2c-0.4,1.6-0.4,3.3,0.1,4.9c0,0.1,0.1,0.1,0.1,0.2c0,0,0,0.1,0,0.1c-2.6,3.4-5.2,6.8-7.9,10.1
			c1.5,0.3,3,1,4.6,1.3c1.2-1.6,2.5-3.1,3.7-4.7c2.7-3.3,5.1-6.9,7.1-10.7C374,929,375.5,927.5,374.4,925.8z"/>
		<path class="st4" d="M420.3,1048.1c-0.2-1.5-1.1-2.8-1.6-4.3c-0.5-2.1-0.6-4.2-0.6-6.3c-0.1-3.5-0.5-6.5-2.4-9.5
			c-1.1-1.6-2.3-3.2-2.8-5.1c-0.3-1.9-0.3-3.8,0.1-5.7c0.4-3.7,0.2-6.6-1.5-9.9c-4.2-7.8-4.3-18-4.5-26.7c0.4-0.6,0.3-1.4-0.3-1.8
			c-0.1-0.1-0.2-0.1-0.3-0.2c-4.1-1.8-6.1-6-9.6-8.5c-4-2.9-8.7-2.5-11.9-6.7c-2.2-2.9-4-6-7.5-7.5c-2.5-1-5.3-1-7.6-2.3
			c-2-1.3-3.7-3-4.9-5c2.1-3,4.9-5.6,7.1-8.7c2.4-3.3,4.4-6.9,6.1-10.6c1-2.2-2.3-4.2-3.3-2c-1.7,3.7-3.7,7.3-6.1,10.6
			c-2.4,3.3-5.5,6.1-7.7,9.6c-0.2,0.3-0.3,0.7-0.3,1.2c-2.1,5.4-4.5,10.6-7.2,15.7c-2.5,5-4.7,10.1-8.9,13.9
			c-3.4,3.1-7.2,5.7-9.1,9.9c-2.5,5.4-2.8,11-9.1,13.6c-0.7,0.3-1.1,0.9-1.1,1.6c-0.1,0.2-0.1,0.3-0.1,0.5
			c-0.4,5.6,1.1,10.9,2.8,16.2c0.9,2.8,1.8,5.5,2.3,8.4c0.6,2.8,0.3,5.8,0.9,8.5c0.6,2.4,2.9,3.8,3.5,6.2c0.6,2.5-0.1,5.2,0.3,7.7
			c0.3,2.5,1.7,4.1,2.7,6.3c1.5,3.1,1.5,6.6,1.5,9.9c0,1.1,1.4,2.2,2.4,1.4c5.3-4,12.9,0.2,18.9-1.5c3.1-0.9,5.9-3,9.1-3.8
			c3.6-0.9,7.1,0.9,10.6-0.2c2.6-0.8,4.8-2.5,7.2-3.9c1.4-0.9,2.9-1.5,4.6-1.6c2,0,3.8,1.2,5.8,1.5c5.8,0.7,9.3-5,14.6-5.7
			C416,1055.4,420.9,1052.4,420.3,1048.1z"/>
		<g class="st16">
			
				<image style="overflow:visible;enable-background:new    ;" width="100" height="88" xlink:href="C8D3C41398E07E3E.png"  transform="matrix(1 0 0 1 301.0434 899.3242)">
			</image>
		</g>
		<path d="M369.5,878.2c0.6-0.1,0.2,0.6-0.4,0.7c-0.6,0.1-1.2,0.2-1.9,0.4c0,0.1-0.1,0.2-0.2,0.3c-1.1,0.4-2.1,1.2-2.9,2.1
			c-0.1,0.2-0.2,0.2-0.4,0.2c-0.1,0.4-0.7,0.9-0.8,0.4C362.1,878.9,367.6,878.6,369.5,878.2z"/>
		<path class="st0" d="M436.3,1089.5c-3.4-0.3-6.8-0.5-10.3-0.6c-0.6,0-1.1,0-1.7,0c-0.8-2.9-1.6-5.9-2.5-8.8l-0.8-2.8
			c-0.1-0.4-0.7-0.3-0.9,0c-1.4,3.1-2.8,6.2-4.1,9.4c-0.4,0.9-0.7,1.8-1.1,2.7c0,0.1,0,0.2,0,0.3l-8.1,2.1l-2.8,0.7
			c-0.4,0.1-0.4,0.7,0,0.9c3.1,1.5,6.2,2.9,9.3,4.3c0.4,0.1,0.7,0.3,1.1,0.4l-2.1,9.3l-0.6,2.8c-0.1,0.4,0.5,0.6,0.7,0.4
			c2.7-2.1,5.4-4.2,8-6.4c0.5-0.4,1-0.8,1.5-1.2l7.4,4.7l2.4,1.5c0.4,0.2,0.8-0.2,0.6-0.6c-1-3.3-2.1-6.5-3.3-9.7
			c-0.3-0.9-0.7-1.8-1-2.7l5.9-4.2l2.3-1.7C436.9,1090.1,436.7,1089.5,436.3,1089.5z"/>
		<path class="st17" d="M358.3,933.6c-0.2-2.7-0.3-5.3-0.3-8c0-0.1,0-0.2,0-0.2C354.4,926.7,354.5,932.6,358.3,933.6z"/>
		<path class="st5" d="M365.4,928c-0.7-0.8-1.5-1.5-2.5-1.9c-0.6-0.3-1.2-0.5-1.9-0.6c-0.2,0-0.3-0.1-0.5-0.1c0.5-0.5,1-1,1.4-1.5
			c1.2-1.2,2.1-2.6,2.9-4.1c2.2-5.1-1.1-8.3-5.2-10.8c-0.4-0.2-0.8-0.4-1.1-0.7c-0.1-0.1-0.1-0.1-0.2-0.1c0.5-0.8,2.9-1.8,3.7-2.4
			c2.5-1.7,3.8-4.7,3.5-7.7c-0.4-3-1.9-5.7-4.2-7.7c-1.7-1.6-2.1-1.4-0.6-3.2c1-1.2,1.9-2.6,2.4-4.2c0.5-1.5,0.7-3.1,0.3-4.6
			c-0.1-0.5-0.2-1-0.4-1.5c2.2-1,4-5.7,4.1-7.8c0-0.9-0.1-1.7-0.4-2.5c-1.4-3.9-6-5.2-10.2-4.9c-0.3-0.1-0.6-0.1-0.9-0.1
			c-6.9,0.1-13.7,1.4-20.1,4c-5.2,2.1-11.2,5.3-11.3,11.7c0,1.1,1.1,2.9,0.8,3.8c-0.3,1.2-2.3,2.2-3.3,2.8c-2.7,1.8-5.7,3.2-8.3,5.1
			c-4.5,3.2-8.4,7.9-8.6,13.7c0,1.4,0.2,2.8,0.6,4.1c0.3,0.8,1.5,2.4,1.3,3.1s-2.2,1.6-2.8,1.9c-1.3,0.8-2.5,1.7-3.5,2.8
			c-3.7,4-5.5,9.4-4.7,14.8c0.2,1.9,0.6,2.7-0.7,4.1c-0.9,0.9-2.1,1.5-2.9,2.5c-2,2.2-3,5.2-2.7,8.1c0.3,2.6,1.6,4.2-0.1,6.5
			c-1.5,2-3.4,3.7-4.7,5.9c-2.6,5-0.3,10.6,5.7,10.7c2.6,0,5.3-0.8,7.8-1.3c3.5-0.7,7.1-1.5,10.6-2.3c13-2.9,25.9-6.5,38.2-11.9
			c5.6-2.5,12.2-5.3,16.7-9.6C367.3,938.5,369.1,932.2,365.4,928z"/>
		<path class="st0" d="M378.6,894.7c0.1,0,0.2,0,0.3,0c0-0.3,0.1-0.6,0.3-0.8c0.5-0.6,1.4-0.7,2-0.2c0.1,0.1,0.3,0.3,0.4,0.4
			c0.3,0.8,0.7,1.5,1.1,2.3c-0.2,0.5-0.6,0.8-1.2,0.9c-0.8,0.1-1.7,0.2-2.5,0.2c-0.8,0.1-1.4-0.5-1.5-1.2
			C377.2,895.4,377.8,894.8,378.6,894.7z"/>
		<path class="st18" d="M375.2,896c0.1,0.2,0.2,0.4,0.3,0.6c0.1-0.2,0.3-0.3,0.5-0.3c0.1-0.1,0.2-0.1,0.3-0.1c0.2,0,0.3,0.1,0.5,0.1
			c0.1-0.1,0.2-0.2,0.3-0.2c2,0.5,3.5-0.3,5.4-0.8c2.3-0.5,2.5,3.1,0.8,3.8c-1.6,0.6-3.4,0.7-5.1,0.2c-1.7-0.5-3.1-1.7-3.8-3.3
			C374.3,895.8,375,895.6,375.2,896z"/>
		<path class="st18" d="M374.8,895.7c0.1,0,0.2,0,0.2-0.1c0.1,0,0.2-0.1,0.3-0.1h0c1.1-0.4,2-1.1,2.6-2c0.5-0.9,0.7-1.9,1.2-2.7
			c0.4-0.7,1.1-1.1,1.9-1.1c0.7-0.1,1.4,0.3,1.6,0.9c1.6,3.4-4.2,6.4-7.1,6c0,0-0.1,0-0.1,0c-0.2,0-0.4-0.1-0.5-0.2
			c-0.2-0.1-0.6-0.4-0.5-0.7C374.4,895.7,374.7,895.7,374.8,895.7z"/>
		<path class="st10" d="M352.1,869.7c-0.4-2.5-1.9-5-2.8-7.2c-1.6-3.9-3.2-7.7-4.9-11.6c-6.4-15-12.6-30.5-21.4-44.3
			c-3.9-6.1-8.3-12.3-13.9-16.8c-1.9-1.5-4.3-3.6-6.8-3.6c-2.9-0.1-4,2.4-4.2,4.9c-0.4,7.9,2.3,15.9,5.1,23.1
			c8.4,22.5,21.4,43,38.1,60.2c0,0.1,0.1,0.2,0.2,0.2c2,2.3,6.1,3.3,8.7,1.5C352.3,874.5,352.7,872,352.1,869.7z"/>
		<path class="st0" d="M348,867.1c-0.7-1.8-1.5-3.6-2.4-5.3c-1.4-2.8-2.7-5.6-4.1-8.4c-5.3-11-10.6-22.3-16.9-32.1
			c-2.8-4.3-5.8-8.7-9.2-11.6c-1.1-1-2.6-2.3-3.8-2.1c-1.4,0.2-1.6,2.2-1.2,4.2c1,6.1,3.5,12,5.9,17.3c2.2,4.9,4.6,9.6,7.1,14.2
			c5.6,10.2,12.4,19.8,20.2,28.5c0,0.1,0.1,0.1,0.1,0.2c1.3,1.6,3.4,2,4.4,0.3C348.9,870.7,348.7,868.8,348,867.1z"/>
		<path class="st19" d="M381.4,978.9l-0.1,5.1c-1.1-1.1-2.9-1.1-4.1-0.2c-0.4,0-0.7,0.1-1.1,0.4c-0.4-1.1-1.5-1.9-2.7-1.9
			c-1.3,0-2.3,0.9-2.7,2.1c0,0.1,0,0.1-0.1,0.2c-0.6-0.3-1.2-0.3-1.8-0.2c-0.9-1.4-2.7-1.8-4.1-0.9c0,0-0.1,0-0.1,0.1
			c-0.3-0.5-0.7-1-1.3-1.3c-1.3-0.7-2.9-0.4-3.8,0.9c-0.4-0.2-0.9-0.4-1.4-0.4c-0.6,0-1.3,0.3-1.8,0.7c-0.6-0.3-1.4,0-1.7,0.6
			c-0.3-0.3-0.8-0.5-1.3-0.4l-0.1-4.7c0-0.7-0.6-1.2-1.3-1.2c-0.7,0-1.2,0.5-1.2,1.2l0.3,13.1c0.1,2.2,0.1,4.3,0.2,6.5
			c0,2.1,0.2,4.1,0.7,6.1c0.7,1.8,1.2,3.7,1.7,5.6c0.3,2,0.5,4,0.6,6c0.2,2.2,0.3,4.4,0.5,6.6c0.1,1,0.1,2,0.2,3
			c0,0.9,0.2,1.9,0.6,2.7c0.6,0.8,1.5,1.4,2.5,1.7c1,0.4,2.1,0.7,3.2,1c1.6,0.4,3.3,0.6,4.9,0.7c0.1,0,0.2,0,0.2,0
			c0.3,0,0.5,0,0.8,0h0.1h0.1c0.3,0,0.5,0,0.8,0c0.1,0,0.2,0,0.2,0c1.7-0.1,3.3-0.3,4.9-0.7c1.1-0.3,2.2-0.6,3.2-1
			c1-0.3,1.8-0.9,2.5-1.7c0.4-0.8,0.6-1.8,0.6-2.7c0.1-1,0.1-2,0.2-3l0.5-6.6c0.1-2,0.3-4,0.6-6c0.5-1.9,1-3.8,1.7-5.6
			c0.5-2,0.7-4.1,0.7-6.1c0.1-2.2,0.1-4.3,0.2-6.5l0.3-13.1c0-0.7-0.6-1.2-1.3-1.2C382,977.8,381.4,978.3,381.4,978.9z"/>
		<g class="st20">
			
				<image style="overflow:visible;enable-background:new    ;" width="106" height="127" xlink:href="C8D3C41398E07E3C.png"  transform="matrix(1 0 0 1 314.0434 941.3242)">
			</image>
		</g>
		<path class="st21" d="M383.9,978.2c-0.1-0.3-0.3-0.6-0.5-0.8c-1-0.8-2.2-1.3-3.4-1.6c-1.2-0.3-2.3-0.6-3.5-0.7
			c-4.9-0.8-9.9-0.9-14.8-0.3c-2.4,0.3-4.7,0.7-7,1.4c-1.7,0.5-3.7,1.3-3.7,2.5c0,0.1,0,0.2,0,0.3c0,1.5,0.1,3.5,0.1,5.1
			c0.8,0.3,1.7,0.6,2.5,0.8l0,0c0,0,0,0,0.1,0c1.3,0.4,2.6,0.7,3.9,0.9c2.8,0.4,5.5,0.7,8.3,0.8c5,0.2,10.4,0.1,14.7-1.2
			c0.2-0.1,0.5-0.2,0.7-0.2l0,0c0.8-0.2,1.6-0.5,2.4-0.8c0-1.6,0.2-3.8,0.2-5.3C384,978.7,383.9,978.5,383.9,978.2z"/>
		<g class="st22">
			
				<image style="overflow:visible;enable-background:new    ;" width="106" height="85" xlink:href="C8D3C41398E07E3B.png"  transform="matrix(1 0 0 1 314.0434 938.3242)">
			</image>
		</g>
		<path class="st14" d="M451.8,1040.3c-1.8-16.5-5.7-32.7-11.7-48.2c-6.4-17.1-16-32.8-28.1-46.5c-1.7-1.9-5.3-0.6-3.6,1.3
			c2.3,2.6,4.5,5.3,6.7,8.1c-1-0.4-2.2,0.1-2.7,1.1c-1.1-1.7-2.2-3.4-3.3-5.1c-0.6-0.9-1.8-1.2-2.7-0.6c-0.9,0.5-1.2,1.7-0.7,2.6
			c0.4,0.8,0.8,1.7,1.3,2.5c-1.2,0.1-2.3,1.2-1.8,2.4l4.1,10.1c-1.1-2.4-2.1-4.9-3.2-7.3c-0.4-0.8-1.4-1.2-2.3-0.8c0,0,0,0,0,0
			l-1.4-2.4c-0.7-0.9-2-1.2-3-0.5c-0.2,0.2-0.4,0.4-0.5,0.6c-0.6-0.9-1.2-1.7-1.8-2.6c-0.6-0.9-1.8-1.2-2.7-0.6
			c-0.6,0.4-1,1.1-0.9,1.9c-1-0.5-2.2,0-2.6,0.9c-0.2,0.4-0.2,0.8-0.1,1.3c0,0.2,0.1,0.4,0.1,0.6c2,0.7,8.3,6.1,8.9,8.1
			c8.2,30.2,4.7,54,21.9,80.2c-10.1-8.1-23.5-16.5-35.5-24.4c-0.5-0.3-2.6-1.9-4.4-3.3c-0.7-1.3-1.2-2.7-1.4-4.1
			c0-2.9,1.1-6.2,1.1-8.9c0-2.6,0.1-6-2.4-7.5c-0.9-0.5-2.1-0.2-2.7,0.8c-0.2,0.3-0.2,0.6-0.2,0.9c-0.4,2.7-1.1,5.4-2,8.1
			c-3.6-6.3-8.1-12-15.5-13.1c-0.6-0.2-1.3-0.3-2-0.2c-0.1,0-0.1,0-0.2,0c-0.6,0-1.2,0.2-1.5,0.7c-1.8,1.5-3.2,3.4-4.1,5.6
			c-1,2.8-0.1,5.4-0.5,8c-0.1,0.2-0.1,0.5-0.1,0.7c-0.3,2.7,0.2,5.5,1.3,8c1.1,2.5,2.7,4.6,4.8,6.3c2.5,2,5.7,3.2,8.1,5.3
			c7.9,10.2,18.3,25.2,28.5,32.4c6.8,4.9,14,9.1,21.6,12.7c6.8,3.3,14.6,6.9,22.3,5.7C455.7,1078,453.3,1053.8,451.8,1040.3z"/>
		<path class="st4" d="M417.7,998.6c-0.4-5.1-1.9-8.8-5.6-11.8c-4.4-3.6-6.8-7.2-10.6-11.7c-0.4-0.4-1-0.7-1.6-0.6
			c0.4,0.3,0.7,0.7,0.9,1.2c2.8,6.7,3.6,14,4.4,21.2c0.7,6,1.3,12,2,18.1C414.2,1014.7,418.3,1006.3,417.7,998.6z"/>
		<g class="st16">
			
				<image style="overflow:visible;enable-background:new    ;" width="90" height="114" xlink:href="C8D3C41398E07E35.png"  transform="matrix(1 0 0 1 364.0434 937.3242)">
			</image>
		</g>
		<g class="st20">
			
				<image style="overflow:visible;enable-background:new    ;" width="128" height="164" xlink:href="C8D3C41398E07E37.png"  transform="matrix(1 0 0 1 261.0434 749.3242)">
			</image>
		</g>
		<g class="st23">
			
				<image style="overflow:visible;enable-background:new    ;" width="111" height="138" xlink:href="C8D3C41398E07E34.png"  transform="matrix(1 0 0 1 274.0434 771.3242)">
			</image>
		</g>
		<path class="st24" d="M403.1,1366.9c-1.9,1.2-3.8,2.4-5.7,3.7c-0.5,0.3-0.6,1-0.2,1.5c0.3,0.4,0.9,0.6,1.4,0.3
			c1.9-1.3,3.7-2.5,5.7-3.7C405.5,1367.9,404.3,1366.2,403.1,1366.9z"/>
		<path class="st24" d="M397.3,1362.4c-1.3,1.9-2.5,3.8-3.7,5.7c-0.3,0.5-0.1,1.1,0.4,1.4c0.5,0.3,1.1,0.1,1.4-0.3
			c1.2-1.9,2.4-3.8,3.7-5.7C399.8,1362.4,398,1361.3,397.3,1362.4z"/>
		<path class="st24" d="M389.9,1361.3c0,2.3,0.1,4.5,0.2,6.8c0.1,0.6,0.6,1,1.1,0.9c0.5,0,1-0.5,0.9-1.1c-0.1-2.3-0.2-4.5-0.2-6.8
			C392,1359.8,389.9,1359.9,389.9,1361.3z"/>
		<path class="st24" d="M383.4,1364.9c1.1,2,2.2,3.9,3.5,5.8c0.3,0.5,1,0.6,1.4,0.3c0.5-0.3,0.6-0.9,0.3-1.4
			c-1.2-1.9-2.4-3.8-3.5-5.8C384.5,1362.6,382.7,1363.7,383.4,1364.9z"/>
		<path class="st0" d="M402.8,1373.7c0-0.1,0-0.2,0-0.4c-1-4.3-4.5-7.6-8.9-8.4c-4.3-0.6-8.6,1.2-11.3,4.6c-0.2,0.1-0.3,0.3-0.3,0.5
			c0,0.1,0,0.3,0.1,0.4c0.6,1.8,1.6,3.5,3,4.9c0.1,0.1,0.2,0.3,0.4,0.4c0.3,0.3,0.6,0.6,1,0.8c0.4,0.3,0.8,0.6,1.2,0.8
			c1.1,0.6,2.3,1.1,3.5,1.4c4.4,0.9,8.8-1,11.2-4.7C402.7,1374,402.8,1373.9,402.8,1373.7z"/>
		<path class="st24" d="M397.6,1372.9c0.3-1.3,0-2.6-0.6-3.7l-0.3-0.4c-0.1-0.1-0.2-0.3-0.3-0.4l-0.2-0.2c-0.2-0.2-0.5-0.4-0.8-0.6
			c-0.5-0.3-1-0.5-1.5-0.6c-2.6-0.6-5.3,1-5.9,3.6c0,0,0,0.1,0,0.1c-0.2,1.3,0,2.6,0.6,3.7l0.8,1c0.6,0.6,1.4,1,2.3,1.2l1.3,0.1
			c0.9,0,1.7-0.3,2.4-0.7l0,0c0.5-0.3,0.9-0.7,1.3-1.2c0.1-0.1,0.1-0.2,0.2-0.3C397.2,1374,397.4,1373.5,397.6,1372.9z"/>
		<path class="st24" d="M473,1321.8c-1.9,1.2-3.8,2.4-5.7,3.7c-0.5,0.3-0.6,1-0.2,1.5c0.3,0.4,0.9,0.6,1.4,0.3
			c1.9-1.3,3.7-2.5,5.7-3.7C475.3,1322.8,474.1,1321.1,473,1321.8z"/>
		<path class="st24" d="M467.1,1317.3c-1.3,1.9-2.5,3.8-3.7,5.7c-0.3,0.5-0.1,1.1,0.4,1.4c0.5,0.3,1.1,0.1,1.4-0.3
			c1.2-1.9,2.4-3.8,3.7-5.7C469.6,1317.3,467.9,1316.2,467.1,1317.3z"/>
		<path class="st24" d="M459.7,1316.2c0,2.3,0.1,4.5,0.2,6.8c0.1,0.6,0.6,1,1.1,0.9c0.5,0,1-0.5,0.9-1.1c-0.1-2.3-0.2-4.5-0.2-6.8
			C461.8,1314.7,459.7,1314.8,459.7,1316.2z"/>
		<path class="st24" d="M453.2,1319.8c1.1,2,2.2,3.9,3.5,5.8c0.3,0.5,1,0.6,1.4,0.3c0.5-0.3,0.6-0.9,0.3-1.4
			c-1.2-1.9-2.4-3.8-3.5-5.8C454.3,1317.5,452.6,1318.6,453.2,1319.8z"/>
		<path class="st0" d="M472.6,1328.6c0-0.1,0-0.2,0-0.4c-1-4.3-4.5-7.6-8.9-8.4c-4.3-0.6-8.6,1.2-11.3,4.6c-0.2,0.1-0.3,0.3-0.3,0.5
			c0,0.1,0,0.3,0.1,0.4c0.6,1.8,1.6,3.5,3,4.9c0.1,0.1,0.2,0.3,0.4,0.4c0.3,0.3,0.6,0.6,1,0.8c0.4,0.3,0.8,0.6,1.2,0.8
			c1.1,0.6,2.3,1.1,3.5,1.4c4.4,0.9,8.8-1,11.2-4.7C472.6,1328.9,472.6,1328.8,472.6,1328.6z"/>
		<path class="st24" d="M467.4,1327.8c0.3-1.3,0-2.6-0.6-3.7l-0.3-0.4c-0.1-0.1-0.2-0.3-0.3-0.4l-0.2-0.2c-0.2-0.2-0.5-0.4-0.8-0.6
			c-0.5-0.3-1-0.5-1.5-0.6c-2.6-0.6-5.3,1-5.9,3.6c0,0,0,0.1,0,0.1c-0.2,1.3,0,2.6,0.6,3.7l0.8,1c0.6,0.6,1.4,1,2.3,1.2l1.3,0.1
			c0.9,0,1.7-0.3,2.4-0.7l0,0c0.5-0.3,0.9-0.7,1.3-1.2c0.1-0.1,0.1-0.2,0.2-0.3C467,1328.9,467.3,1328.4,467.4,1327.8z"/>
		<path class="st18" d="M373.4,1089.5c-3.4-0.3-6.8-0.5-10.3-0.6c-0.6,0-1.1,0-1.7,0c-0.8-2.9-1.6-5.9-2.5-8.8l-0.8-2.8
			c-0.1-0.4-0.7-0.3-0.9,0c-1.4,3.1-2.8,6.2-4.1,9.4c-0.4,0.9-0.7,1.8-1.1,2.7c0,0.1,0,0.2,0,0.3l-8.1,2.1l-2.8,0.7
			c-0.4,0.1-0.4,0.7,0,0.9c3.1,1.5,6.2,2.9,9.3,4.3c0.4,0.1,0.7,0.3,1.1,0.4l-2.1,9.3l-0.6,2.8c-0.1,0.4,0.5,0.6,0.7,0.4
			c2.7-2.1,5.4-4.2,8-6.4c0.5-0.4,1-0.8,1.5-1.2l7.4,4.7l2.4,1.5c0.4,0.2,0.8-0.2,0.6-0.6c-1-3.3-2.1-6.5-3.3-9.7
			c-0.3-0.9-0.7-1.8-1-2.7l5.9-4.2l2.3-1.7C374,1090.1,373.8,1089.5,373.4,1089.5z"/>
		<path class="st25" d="M407,1145.3c-3.4-0.3-6.8-0.5-10.3-0.6c-0.6,0-1.1,0-1.7,0c-0.8-2.9-1.6-5.9-2.5-8.8l-0.8-2.8
			c-0.1-0.4-0.7-0.3-0.9,0c-1.4,3.1-2.8,6.2-4.1,9.4c-0.4,0.9-0.7,1.8-1.1,2.7c0,0.1,0,0.2,0,0.3l-8.1,2.1l-2.8,0.7
			c-0.4,0.1-0.4,0.7,0,0.9c3.1,1.5,6.2,2.9,9.3,4.3c0.4,0.1,0.7,0.3,1.1,0.4l-2.1,9.3l-0.6,2.8c-0.1,0.4,0.5,0.6,0.7,0.4
			c2.7-2.1,5.4-4.2,8-6.4c0.5-0.4,1-0.8,1.5-1.2l7.4,4.7l2.4,1.5c0.4,0.2,0.8-0.2,0.6-0.6c-1-3.3-2.1-6.5-3.3-9.7
			c-0.3-0.9-0.7-1.8-1-2.7l5.9-4.2l2.3-1.7C407.6,1145.9,407.3,1145.3,407,1145.3z"/>
		<path class="st5" d="M401.9,1201.9c-3.4-0.3-6.8-0.5-10.3-0.6c-0.6,0-1.1,0-1.7,0c-0.8-2.9-1.6-5.9-2.5-8.8l-0.8-2.8
			c-0.1-0.4-0.7-0.3-0.9,0c-1.4,3.1-2.8,6.2-4.1,9.4c-0.4,0.9-0.7,1.8-1.1,2.7c0,0.1,0,0.2,0,0.3l-2.7,0.7c2.6,5,4.1,10.4,5.6,15.8
			c0.8-0.6,2-1.4,2.7-2c0.5-0.4,1-0.8,1.5-1.2c2.5,1.6,5,3.1,7.4,4.7l2.4,1.5c0.4,0.2,0.8-0.2,0.6-0.6c-1-3.3-2.1-6.5-3.3-9.7
			c-0.3-0.9-0.7-1.8-1-2.7l5.9-4.2l2.3-1.7C402.6,1202.5,402.3,1201.9,401.9,1201.9z"/>
		<path class="st26" d="M441.3,1249.6c-3.4-0.3-6.8-0.5-10.3-0.6c-0.6,0-1.1,0-1.7,0c-0.8-2.9-1.6-5.9-2.5-8.8l-0.8-2.8
			c-0.1-0.4-0.7-0.3-0.9,0c-1.4,3.1-2.8,6.2-4.1,9.4c-0.4,0.9-0.7,1.8-1.1,2.7c0,0.1,0,0.2,0,0.3l-8.1,2.1l-2.8,0.7
			c-0.4,0.1-0.4,0.7,0,0.9c3.1,1.5,6.2,2.9,9.3,4.3c0.4,0.1,0.7,0.3,1.1,0.4l-2.1,9.3l-0.6,2.8c-0.1,0.4,0.5,0.6,0.7,0.4
			c2.7-2.1,5.4-4.2,8-6.4c0.5-0.4,1-0.8,1.5-1.2l7.4,4.7l2.4,1.5c0.4,0.2,0.8-0.2,0.6-0.6c-1-3.3-2.1-6.5-3.3-9.7
			c-0.3-0.9-0.7-1.8-1-2.7l5.9-4.2l2.3-1.7C442,1250.2,441.7,1249.6,441.3,1249.6z"/>
		<path class="st25" d="M398.3,1304.9c-3.4-0.3-6.8-0.5-10.3-0.6c-0.6,0-1.1,0-1.7,0c-0.8-2.9-1.6-5.9-2.5-8.8l-0.8-2.8
			c-0.1-0.4-0.7-0.3-0.9,0c-1.4,3.1-2.8,6.2-4.1,9.4c-0.4,0.9-0.7,1.8-1.1,2.7c0,0.1,0,0.2,0,0.3l-0.7,0.2c-0.6,2.3-1.2,5.3-2.1,7.6
			c0.5,0.2,0.7-0.1,1.2,0.1c0.4,0.1,0.7,0.3,1.1,0.4l-2.1,9.3l-0.6,2.8c-0.1,0.4,0.5,0.6,0.7,0.4c2.7-2.1,5.4-4.2,8-6.4
			c0.5-0.4,1-0.8,1.5-1.2c2.5,1.6,5,3.1,7.4,4.7l2.4,1.5c0.4,0.2,0.8-0.2,0.6-0.6c-1-3.3-2.1-6.5-3.3-9.7c-0.3-0.9-0.7-1.8-1-2.7
			l5.9-4.2l2.3-1.7C398.9,1305.5,398.6,1304.9,398.3,1304.9z"/>
		<path class="st0" d="M436.6,1327c-3.4-0.3-6.8-0.5-10.3-0.6c-0.6,0-1.1,0-1.7,0c-0.8-2.9-1.6-5.9-2.5-8.8l-0.8-2.8
			c-0.1-0.4-0.7-0.3-0.9,0c-1.4,3.1-2.8,6.2-4.1,9.4c-0.4,0.9-0.7,1.8-1.1,2.7c0,0.1,0,0.2,0,0.3l-8.1,2.1l-2.8,0.7
			c-0.4,0.1-0.4,0.7,0,0.9c3.1,1.5,6.2,2.9,9.3,4.3c0.4,0.1,0.7,0.3,1.1,0.4l-2.1,9.3l-0.6,2.8c-0.1,0.4,0.5,0.6,0.7,0.4
			c2.7-2.1,5.4-4.2,8-6.4c0.5-0.4,1-0.8,1.5-1.2l7.4,4.7l2.4,1.5c0.4,0.2,0.8-0.2,0.6-0.6c-1-3.3-2.1-6.5-3.3-9.7
			c-0.3-0.9-0.7-1.8-1-2.7l5.9-4.2l2.3-1.7C437.2,1327.5,436.9,1327,436.6,1327z"/>
		<path class="st26" d="M488.6,1123.1c-3.4-0.3-6.8-0.5-10.3-0.6c-0.6,0-1.1,0-1.7,0c-0.8-2.9-1.6-5.9-2.5-8.8l-0.8-2.8
			c-0.1-0.4-0.7-0.3-0.9,0c-1.4,3.1-2.8,6.2-4.1,9.4c-0.4,0.9-0.7,1.8-1.1,2.7c0,0.1,0,0.2,0,0.3l-8.1,2.1l-2.8,0.7
			c-0.4,0.1-0.4,0.7,0,0.9c3.1,1.5,6.2,2.9,9.3,4.3c0.4,0.1,0.7,0.3,1.1,0.4l-2.1,9.3l-0.6,2.8c-0.1,0.4,0.5,0.6,0.7,0.4
			c2.7-2.1,5.4-4.2,8-6.4c0.5-0.4,1-0.8,1.5-1.2l7.4,4.7l2.4,1.5c0.4,0.2,0.8-0.2,0.6-0.6c-1-3.3-2.1-6.5-3.3-9.7
			c-0.3-0.9-0.7-1.8-1-2.7l5.9-4.2l2.3-1.7C489.2,1123.6,488.9,1123.1,488.6,1123.1z"/>
		<path class="st18" d="M535.7,1168.2c-3.4-0.3-6.8-0.5-10.3-0.6c-0.6,0-1.1,0-1.7,0c-0.8-2.9-1.6-5.9-2.5-8.8l-0.8-2.8
			c-0.1-0.4-0.7-0.3-0.9,0c-1.4,3.1-2.8,6.2-4.1,9.4c-0.4,0.9-0.7,1.8-1.1,2.7c0,0.1,0,0.2,0,0.3l-8.1,2.1l-2.8,0.7
			c-0.4,0.1-0.4,0.7,0,0.9c3.1,1.5,6.2,2.9,9.3,4.3c0.4,0.1,0.7,0.3,1.1,0.4c-0.7,3.1-1.4,6.2-2.1,9.3l-0.6,2.8
			c-0.1,0.4,0.5,0.6,0.7,0.4c2.7-2.1,5.4-4.2,8-6.4c0.5-0.4,1-0.8,1.5-1.2l7.4,4.7l2.4,1.5c0.4,0.2,0.8-0.2,0.6-0.6
			c-1-3.3-2.1-6.5-3.3-9.7c-0.3-0.9-0.7-1.8-1-2.7l5.9-4.2l2.3-1.7C536.4,1168.8,536.1,1168.3,535.7,1168.2z"/>
		<path class="st0" d="M499.1,1230.1c-3.4-0.3-6.8-0.5-10.3-0.6c-0.6,0-1.1,0-1.7,0c-0.8-2.9-1.6-5.9-2.5-8.8l-0.8-2.8
			c-0.1-0.4-0.7-0.3-0.9,0c-1.4,3.1-2.8,6.2-4.1,9.4c-0.4,0.9-0.7,1.8-1.1,2.7c0,0.1,0,0.2,0,0.3c-0.5,0.1-1.4,0.4-1.9,0.6
			c-0.8,2.2-1.7,4.1-2.6,6.3c0.8,0.4,2.1,0.7,2.9,1.1c0.4,0.1,0.7,0.3,1.1,0.4l-2.1,9.3l-0.6,2.8c-0.1,0.4,0.5,0.6,0.7,0.4
			c2.7-2.1,5.4-4.2,8-6.4c0.5-0.4,1-0.8,1.5-1.2l7.4,4.7l2.4,1.5c0.4,0.2,0.8-0.2,0.6-0.6c-1-3.3-2.1-6.5-3.3-9.7
			c-0.3-0.9-0.7-1.8-1-2.7l5.9-4.2l2.3-1.7C499.8,1230.7,499.5,1230.2,499.1,1230.1z"/>
		<path class="st5" d="M519.5,1278.8l6.5-1.8c0.3-0.9,0.7-2.1,1-3c-2.4-1.1-4.8-1.8-7.3-2.8c-0.5-0.2-1-0.4-1.6-0.6
			c0.2-3,0.4-6.1,0.7-9.1c0.1-0.9,0.1-1.9,0.2-2.8c0-0.4-0.5-0.6-0.8-0.3c-2.4,2.4-4.7,4.9-7,7.5c-0.6,0.7-1.3,1.5-1.9,2.2
			c-0.1,0.1-0.1,0.2-0.1,0.3l-8.3-0.8l-2.8-0.3c-0.4,0-0.6,0.5-0.3,0.8c2.4,2.5,4.8,4.8,7.4,7.2c0.3,0.3,0.6,0.5,0.8,0.8l-5.1,8
			l-1.5,2.4c-0.2,0.4,0.2,0.8,0.6,0.6c3.3-1,6.5-2.1,9.7-3.3c0.6-0.2,1.2-0.4,1.8-0.7l5.4,6.9l1.8,2.2c0.3,0.3,0.8,0.1,0.8-0.3
			c0.1-3.4,0.2-6.8,0.1-10.3C519.5,1280.7,519.5,1279.7,519.5,1278.8z"/>
		<path class="st18" d="M490.8,1300.8c-3.1-1.4-6.3-2.8-9.4-4c-0.5-0.2-1-0.4-1.6-0.6c0.2-3,0.4-6.1,0.7-9.1l0.2-2.8
			c0-0.4-0.5-0.6-0.8-0.3c-2.4,2.4-4.7,4.9-7,7.5c-0.6,0.7-1.3,1.5-1.9,2.2c-0.1,0.1-0.1,0.2-0.1,0.3l-8.3-0.8l-2.8-0.3
			c-0.4,0-0.6,0.5-0.3,0.8c2.4,2.5,4.8,4.8,7.4,7.2c0.3,0.3,0.6,0.5,0.8,0.8l-2.1,3.3c2.8,1.5,5.6,2.8,8.5,3.9
			c2.3,1,4.7,2.5,6.9,3.6c0-1.5,0.2-3.7,0.2-5.1c0-0.9,0-1.9-0.1-2.8l7-2l2.7-0.8C491.2,1301.5,491.1,1300.9,490.8,1300.8z"/>
		<path class="st13" d="M584.5,482.4c-14.4-10-33.5-6-49.7-4c-36.4,4.6-72.9,11-109.7,11c-40.3,0-84.2-9.8-115.2-35.2
			c-2.6-1.8-5.2-3.7-7.6-5.6c-11.2-9-22-19.3-29.9-31.4c-16.7-25.5-18.3-30.5-24.6-55.7c-6.7-27-6.5-29.7-4.5-62.6
			c0.1-1.6,0.2-3.2,0.4-4.8c0.1-0.9,0.3-1.7,0.5-2.6c2.4-10.6,6.9-24.7,10.3-35c0.5-1.6,1.1-3.3,1.8-4.8c0.4-0.8,0.8-1.5,1.2-2.3
			c1.2-2.1,2.5-4.5,3.9-6.9c18.8-46.7,68.5-74.6,116.7-86.7c35.7-9,72.6-11.7,109-16.2c16.2-2,35.7-2.8,47.2-16
			c10.6-12.1,9.3-29.2,2.8-43c-1.8-4.6-4.2-9-7.1-13c-2.2-3.8-5-7.2-8.1-10.2c-0.5-0.6-1-1.2-1.6-1.7C452.3-4.2,344.4-8.9,258.9,9.5
			c-42.7,9.2-83.5,25.5-118.8,48.3c-36.9,23.7-68,55.5-90.8,92.9c-8.9,14.5-16.6,29.8-23.1,45.6c-10,20.9-17.6,43.2-21.4,65.9
			c-2.6,15.7-4.7,31.7-4.8,47.6c-0.1,7.2,0.3,14.3,1,21.4c0,0.2,0,0.4,0,0.7c0.1,15.7,2.2,31.5,5,47c1.2,6.4,2.6,12.7,4.4,18.9
			c1.7,9.3,3.8,18.4,6.4,27.5c6,20.1,13.8,39.5,23.4,58.2c6.6,12.7,14.2,25,22.6,36.5c12.9,19.9,27.9,38.2,44.8,54.8
			c31.4,30.7,69.2,53.9,110.8,67.9c39.8,13.4,83.3,19.2,127,17.7c87.4-3.1,190.8-34,242.2-108.8c0.7-1,1.2-2,1.5-3.1
			c3.7-6.6,6.5-13.7,8.1-21.1c0.2-0.8,0.3-1.6,0.3-2.4c0.4-1.5,0.6-2.9,0.7-4.4C600.2,506.4,596.9,491,584.5,482.4z"/>
		<path d="M377.6,52.9c-8.5,7.5-16.8,15.3-24.8,23.3c-4.7,4.8,2.6,12.2,7.3,7.4c8-8,16.3-15.8,24.8-23.3
			C390,55.9,382.7,48.5,377.6,52.9z"/>
		<path d="M344.5,36c-4.7,10.3-9,20.8-13,31.4c-2.4,6.3,7.4,10.1,9.7,3.7c4-10.6,8.3-21.1,13-31.4C357,33.6,347.3,29.9,344.5,36z"/>
		<path d="M307,37.1c2,11.2,4.4,22.2,7.2,33.2c1.6,6.5,11.8,4.1,10.1-2.5c-2.8-11-5.1-22.1-7.2-33.2C315.9,28.1,305.8,30.5,307,37.1
			z"/>
		<path d="M278,60.8c7.2,8.8,14.6,17.3,22.3,25.6c4.6,4.9,12.3-2.1,7.7-7.1c-7.7-8.3-15.2-16.9-22.3-25.6
			C281.5,48.6,273.8,55.6,278,60.8z"/>
		<path class="st0" d="M382,87.3c0.1-0.6,0-1.2-0.2-1.8c-8.2-20.3-29.6-34-51.5-33.4c-21.8,0.6-41.6,14-51.9,32.9
			c-0.7,0.7-1,1.7-0.9,2.7c0.1,0.7,0.3,1.4,0.8,2c4.7,8.5,11.2,15.9,19.1,21.5c0.7,0.6,1.5,1.1,2.3,1.5c1.8,1.2,3.6,2.2,5.5,3.2
			c2.1,1.3,4.3,2.2,6.6,2.9c5.9,2.2,12.2,3.5,18.5,3.6c21.9,0.5,43.2-13.2,51.4-33.5C382,88.4,382.1,87.9,382,87.3z"/>
		<path d="M355.4,87.7c0.3-3.3-0.2-6.6-1.6-9.7c-0.8-3.1-2.4-6-4.7-8.3l-1.9-1.7c-0.6-0.6-1.3-1.2-1.9-1.7l-0.9-0.8
			c-1.4-1-3-1.8-4.6-2.4c-2.5-1-5.2-1.7-7.9-1.8c-12.9-0.7-26,10-26.1,23.4c0,0.2,0,0.4,0,0.6c-0.3,3.2,0.3,6.4,1.6,9.3
			c0.8,3.1,2.4,6,4.7,8.3l4.8,4.2c3.7,2.4,7.9,3.8,12.3,4.1l6.6-0.5c4.2-0.9,8.1-2.9,11.3-5.7l0.2-0.2c2.3-1.9,4-4.2,5.2-6.9
			c0.3-0.5,0.5-1,0.8-1.6C354.6,93.7,355.4,90.8,355.4,87.7z"/>
		<path d="M219.5,127.4c-8.5,7.5-16.8,15.3-24.8,23.3c-4.7,4.8,2.6,12.2,7.3,7.4c8-8,16.3-15.8,24.8-23.3
			C231.9,130.3,224.6,122.9,219.5,127.4z"/>
		<path d="M186.5,110.4c-4.7,10.3-9,20.8-13,31.4c-2.4,6.3,7.4,10.1,9.7,3.7c4-10.6,8.3-21.1,13-31.4
			C199,108,189.2,104.3,186.5,110.4z"/>
		<path d="M148.9,111.6c2,11.2,4.4,22.2,7.2,33.2c1.6,6.5,11.8,4.1,10.1-2.5c-2.8-11-5.1-22.1-7.2-33.2
			C157.9,102.5,147.7,105,148.9,111.6z"/>
		<path d="M119.9,135.2c7.2,8.8,14.6,17.3,22.3,25.6c4.6,4.9,12.3-2.1,7.7-7.1c-7.7-8.3-15.2-16.9-22.3-25.6
			C123.4,123,115.7,130,119.9,135.2z"/>
		<path class="st0" d="M223.9,161.7c0.1-0.6,0-1.2-0.2-1.8c-8.2-20.3-29.6-34-51.5-33.4c-21.8,0.6-41.6,14-51.9,32.9
			c-0.7,0.7-1,1.7-0.9,2.7c0.1,0.7,0.3,1.4,0.8,2c4.7,8.5,11.2,15.9,19.1,21.5c0.7,0.6,1.5,1.1,2.3,1.5c1.8,1.2,3.6,2.2,5.5,3.2
			c2.1,1.3,4.3,2.2,6.6,2.9c5.9,2.2,12.2,3.5,18.5,3.6c21.9,0.5,43.2-13.2,51.4-33.5C223.9,162.9,224,162.3,223.9,161.7z"/>
		<path d="M197.3,162.2c0.3-3.3-0.2-6.6-1.6-9.7c-0.8-3.1-2.4-6-4.7-8.3l-1.9-1.7c-0.6-0.6-1.3-1.2-1.9-1.7l-0.9-0.8
			c-1.4-1-3-1.8-4.6-2.4c-2.5-1-5.2-1.7-7.9-1.8c-12.9-0.7-26,10-26.1,23.4c0,0.2,0,0.4,0,0.6c-0.3,3.2,0.3,6.4,1.6,9.3
			c0.8,3.1,2.4,6,4.7,8.3l4.8,4.2c3.7,2.4,7.9,3.8,12.3,4.1l6.6-0.5c4.2-0.9,8.1-2.9,11.3-5.7l0.2-0.2c2.3-1.9,4-4.2,5.2-6.9
			c0.3-0.5,0.5-1,0.8-1.6C196.5,168.1,197.3,165.2,197.3,162.2z"/>
		<path d="M148.6,288.5c-8.5,7.5-16.8,15.3-24.8,23.3c-4.7,4.8,2.6,12.2,7.3,7.4c8-8,16.3-15.8,24.8-23.3
			C161,291.5,153.6,284.1,148.6,288.5z"/>
		<path d="M115.5,271.6c-4.7,10.3-9,20.8-13,31.4c-2.4,6.3,7.4,10.1,9.7,3.7c4-10.6,8.3-21.1,13-31.4
			C128,269.2,118.3,265.5,115.5,271.6z"/>
		<path d="M78,272.7c2,11.2,4.4,22.2,7.2,33.2c1.6,6.5,11.8,4.1,10.1-2.5c-2.8-11-5.1-22.1-7.2-33.2C86.9,263.7,76.8,266.1,78,272.7
			z"/>
		<path d="M49,296.4c7.2,8.8,14.6,17.3,22.3,25.6c4.6,4.9,12.3-2.1,7.7-7c-7.7-8.3-15.2-16.9-22.3-25.6
			C52.4,284.2,44.8,291.2,49,296.4z"/>
		<path class="st0" d="M153,322.9c0.1-0.6,0-1.2-0.2-1.8c-8.2-20.3-29.6-34-51.5-33.4c-21.8,0.6-41.6,14-51.9,32.9
			c-0.7,0.7-1,1.7-0.9,2.7c0.1,0.7,0.3,1.4,0.8,2c4.7,8.5,11.2,15.9,19.1,21.5c0.7,0.6,1.5,1.1,2.3,1.5c1.8,1.2,3.6,2.2,5.5,3.2
			c2.1,1.3,4.3,2.2,6.6,2.9c5.9,2.2,12.2,3.5,18.5,3.6c21.9,0.5,43.2-13.2,51.4-33.5C153,324,153.1,323.5,153,322.9z"/>
		<path d="M126.4,323.3c0.1-6.5-2.1-12.9-6.3-17.9l-1.9-1.7c-0.6-0.6-1.3-1.2-1.9-1.7l-0.9-0.8c-1.4-1-3-1.8-4.6-2.4
			c-2.5-1-5.2-1.7-7.9-1.8c-12.9-0.7-26,10-26.1,23.4c0,0.2,0,0.4,0,0.6c-0.3,3.2,0.3,6.4,1.6,9.3c0.8,3.1,2.4,6,4.7,8.3l4.8,4.2
			c3.7,2.4,7.9,3.8,12.3,4.1l6.6-0.5c4.2-0.9,8.1-2.9,11.3-5.7l0.2-0.2c2.3-1.9,4-4.2,5.2-6.9c0.3-0.5,0.5-1,0.8-1.6
			C125.6,329.3,126.4,326.3,126.4,323.3z"/>
		<path d="M222.2,453.9c-8.5,7.5-16.8,15.3-24.8,23.3c-4.7,4.8,2.6,12.2,7.3,7.4c8-8,16.3-15.8,24.8-23.3
			C234.6,456.9,227.3,449.5,222.2,453.9z"/>
		<path d="M189.2,437c-4.7,10.3-9,20.8-13,31.4c-2.4,6.3,7.4,10.1,9.7,3.7c4-10.6,8.3-21.1,13-31.4
			C201.7,434.6,191.9,430.9,189.2,437z"/>
		<path d="M151.6,438.1c2,11.2,4.4,22.2,7.2,33.2c1.6,6.5,11.8,4.1,10.1-2.5c-2.8-11-5.1-22.1-7.2-33.2
			C160.6,429.1,150.4,431.5,151.6,438.1z"/>
		<path d="M122.6,461.8c7.2,8.8,14.6,17.3,22.3,25.6c4.6,4.9,12.3-2.1,7.7-7c-7.7-8.3-15.2-16.9-22.3-25.6
			C126.1,449.6,118.4,456.6,122.6,461.8z"/>
		<path class="st0" d="M226.6,488.3c0.1-0.6,0-1.2-0.2-1.8c-8.2-20.3-29.6-34-51.5-33.4c-21.8,0.6-41.6,14-51.9,32.9
			c-0.7,0.7-1,1.7-0.9,2.7c0.1,0.7,0.3,1.4,0.8,2c4.7,8.5,11.2,15.9,19.1,21.5c0.7,0.6,1.5,1.1,2.3,1.5c1.8,1.2,3.6,2.2,5.5,3.2
			c2.1,1.3,4.3,2.2,6.6,2.9c5.9,2.2,12.2,3.5,18.5,3.6c21.9,0.5,43.2-13.2,51.4-33.5C226.6,489.4,226.7,488.9,226.6,488.3z"/>
		<path d="M200,488.7c0.1-6.5-2.1-12.9-6.3-17.9l-1.9-1.7c-0.6-0.6-1.3-1.2-1.9-1.7l-0.9-0.8c-1.4-1-3-1.8-4.6-2.4
			c-2.5-1-5.2-1.7-7.9-1.8c-12.9-0.7-26,10-26.1,23.4c0,0.2,0,0.4,0,0.6c0,6.4,2.2,12.6,6.3,17.6l4.8,4.2c3.7,2.4,7.9,3.8,12.3,4.1
			l6.6-0.5c4.2-0.9,8.1-2.9,11.3-5.7l0.2-0.2c2.3-1.9,4-4.2,5.2-6.9c0.3-0.5,0.5-1,0.8-1.6C199.2,494.7,200,491.7,200,488.7z"/>
		<path d="M397.3,536.1c-8.5,7.5-16.8,15.3-24.8,23.3c-4.7,4.8,2.6,12.2,7.3,7.4c8-8,16.3-15.8,24.8-23.3
			C409.6,539,402.3,531.6,397.3,536.1z"/>
		<path d="M364.2,519.1c-4.7,10.3-9,20.8-13,31.4c-2.4,6.3,7.4,10.1,9.7,3.7c4-10.6,8.3-21.1,13-31.4
			C376.7,516.7,366.9,513,364.2,519.1z"/>
		<path d="M326.6,520.3c2,11.2,4.4,22.2,7.2,33.2c1.6,6.5,11.8,4.1,10.1-2.5c-2.8-11-5.1-22.1-7.2-33.2
			C335.6,511.2,325.4,513.7,326.6,520.3z"/>
		<path d="M297.6,543.9c7.2,8.8,14.6,17.3,22.3,25.6c4.6,4.9,12.3-2.1,7.7-7c-7.7-8.3-15.2-16.9-22.3-25.6
			C301.1,531.7,293.4,538.7,297.6,543.9z"/>
		<path class="st0" d="M401.6,570.4c0.1-0.6,0-1.2-0.2-1.8c-8.2-20.3-29.6-34-51.5-33.4c-21.8,0.6-41.6,14-51.9,32.9
			c-0.7,0.7-1,1.7-0.9,2.7c0.1,0.7,0.3,1.4,0.8,2c4.7,8.5,11.2,15.9,19.1,21.5c0.7,0.6,1.5,1.1,2.3,1.5c1.8,1.2,3.6,2.2,5.5,3.2
			c2.1,1.3,4.3,2.2,6.6,2.9c5.9,2.2,12.2,3.5,18.5,3.6c21.9,0.5,43.2-13.2,51.4-33.5C401.6,571.6,401.7,571,401.6,570.4z"/>
		<path d="M375,570.9c0.1-6.5-2.1-12.9-6.3-17.9l-1.9-1.7c-0.6-0.6-1.3-1.2-1.9-1.7l-0.9-0.8c-1.4-1-3-1.8-4.6-2.4
			c-2.5-1-5.2-1.7-7.9-1.8c-12.9-0.7-26,10-26.1,23.4c0,0.2,0,0.4,0,0.6c0,6.4,2.2,12.6,6.3,17.6l4.8,4.2c3.7,2.4,7.9,3.8,12.3,4.1
			l6.6-0.5c4.2-0.9,8.1-2.9,11.3-5.7l0.2-0.2c2.3-1.9,4-4.2,5.2-6.9c0.3-0.5,0.5-1,0.8-1.6C374.2,576.8,375,573.9,375,570.9z"/>
		<path d="M394.8,487.1c-24.6,82.7-49.2,165.4-73.8,248.2c-24.5,82.5-49,164.9-73.5,247.4L206.1,1122c-1.9,6.2,7.3,8.6,9.2,2.4
			c24.6-82.7,49.2-165.4,73.8-248.2c24.5-82.5,49-164.9,73.5-247.4L404,489.5C405.9,483.3,396.7,480.9,394.8,487.1z"/>
	</g>
</g>
<path class="st27" d="M431,502.4"/>
<path class="st27" d="M399.2,488.3"/>
</svg>
