<?xml version="1.0" encoding="UTF-8"?>
<svg width="608px" height="531px" viewBox="0 0 608 531" version="1.1" xmlns="http://www.w3.org/2000/svg" xmlns:xlink="http://www.w3.org/1999/xlink">
    <!-- Generator: Sketch 63.1 (92452) - https://sketch.com -->
    <title>Group 57</title>
    <desc>Created with Sketch.</desc>
    <defs>
        <polygon id="path-1" points="0.971970216 0.577662804 93.936 0.577662804 93.936 41.9244973 0.971970216 41.9244973"></polygon>
        <polygon id="path-3" points="0.445299462 0.458 158.087981 0.458 158.087981 66.1300544 0.445299462 66.1300544"></polygon>
    </defs>
    <g id="Site" stroke="none" stroke-width="1" fill="none" fill-rule="evenodd">
        <g id="About-–-1440px" transform="translate(0.000000, -2630.000000)">
            <g id="Group-57" transform="translate(-51.000000, 2629.000000)">
                <g id="Group-3" transform="translate(565.000000, 21.542000)">
                    <mask id="mask-2" fill="white">
                        <use xlink:href="#path-1"></use>
                    </mask>
                    <g id="Clip-2"></g>
                    <path d="M91.9436,2.7368 C87.2956,-1.4432 74.8566,5.7638 70.0896,7.0698 C56.5846,10.7718 42.5056,11.0158 29.0316,6.9498 C23.0516,5.1458 13.6146,-1.8912 6.8936,1.4788 C1.9896,3.9378 0.6556,9.5288 2.2776,14.3638 C2.4706,14.9418 2.8376,15.3098 3.2566,15.5558 C3.2856,16.7268 3.4176,17.9218 3.6546,19.1538 C3.6216,19.8478 3.5806,20.5418 3.5696,21.2348 C2.4656,26.9318 2.1066,32.9898 5.2976,36.7168 C4.5626,36.6588 3.8286,36.6008 3.0956,36.5378 C0.2556,36.2968 0.2726,40.7268 3.0956,40.9668 C25.6206,42.8828 49.1956,42.8508 69.6576,31.9348 C74.8606,29.1598 101.3176,11.1688 91.9436,2.7368" id="Fill-1" fill="#FF0E1D" mask="url(#mask-2)"></path>
                </g>
                <path d="M574.022774,66.6914 C573.9637,56.3584 573.9047,46.0254 573.8457,35.6924 C573.8457,35.5884 573.8217,35.5014 573.8157,35.4004 C573.8327,33.1774 572.4287,31.0874 569.5807,31.3674 C544.3357,33.8504 521.7827,28.7044 498.2987,19.8934 C479.4577,12.8244 460.3567,7.9044 441.1577,16.3864 C439.8127,16.9814 439.1257,17.9334 438.9217,18.9784 C438.7577,19.4484 438.6527,19.9674 438.662911,20.5624 C438.7517,25.4164 439.1857,30.2104 439.8337,35.0194 C440.0257,36.4454 441.2077,37.4714 442.5697,37.9464 C442.7007,39.6484 443.0357,41.2544 443.5827,42.6924 C443.8827,44.1754 444.2457,45.6684 444.7337,47.1904 C444.7907,47.3704 444.8937,47.4934 444.9647,47.6564 C443.6967,48.1034 442.4267,48.5984 441.1577,49.1594 C435.9557,51.4574 440.4577,59.0914 445.6277,56.8064 C467.8687,46.9804 490.4137,59.9654 511.4057,66.8704 C530.2267,73.0604 549.8977,74.9324 569.5807,72.9964 C572.4257,72.7164 573.8397,70.3074 573.8107,68.0684 C573.9367,67.6494 574.0257,67.2014 574.022774,66.6914" id="Fill-4" fill="#FF0E1D"></path>
                <path d="M586.2288,523.5214 C560.7328,429.8824 546.9698,331.5114 545.6578,231.7564 C545.6448,230.7854 545.5598,229.8754 545.4158,229.0264 C545.5328,225.4174 543.6928,221.8224 539.1898,220.5974 C443.8998,194.6654 358.9238,135.9494 301.4548,55.5504 C299.3378,52.5884 296.3118,51.5044 293.4028,51.6954 C290.4928,51.5044 287.4678,52.5884 285.3498,55.5504 C227.8798,135.9494 142.9048,194.6654 47.6158,220.5974 C43.1118,221.8224 41.2718,225.4174 41.3888,229.0264 C41.2448,229.8754 41.1608,230.7854 41.1478,231.7564 C39.8348,331.5114 26.0728,429.8824 0.5768,523.5214 C0.2088,524.8694 0.0778,526.1174 0.0488,527.3114 C-0.3682,531.7804 1.8928,536.8824 7.4018,538.5074 C151.0638,580.8844 303.0868,595.7324 452.1918,571.0254 C495.0058,563.9304 537.0658,553.2884 577.9288,539.2004 C579.3988,538.6934 580.5718,537.9564 581.4988,537.0794 C585.3258,535.1524 588.0598,530.2464 586.2288,523.5214" id="Fill-6" fill="#FFFFFF"></path>
                <path d="M207.0295,472.2851 C215.9545,403.9881 218.7795,334.8111 215.1655,266.0031 C215.0135,263.1221 210.5935,262.7471 210.7465,265.6561 C210.8155,266.9651 210.8535,268.2741 210.9155,269.5831 C210.0305,267.8271 208.6555,266.5621 207.0375,265.7721 C204.7275,263.1821 201.1905,262.1481 197.8835,262.5851 C193.3255,258.5271 184.7825,259.9341 181.9315,266.0401 C181.9645,263.6901 182.0155,261.3421 182.0315,258.9911 C182.0505,256.1061 177.6595,255.4581 177.6405,258.3711 C176.9615,361.7741 162.1875,464.6001 133.6385,563.6831 C133.2125,565.1621 133.5995,567.5641 134.6215,568.1261 C134.6575,568.1521 134.7145,568.1631 134.7535,568.1881 C134.7985,568.2051 134.8375,568.2411 134.8845,568.2501 C134.8845,568.2501 134.8885,568.2451 134.8885,568.2451 C135.0745,568.3451 135.2535,568.4521 135.4995,568.5001 C136.5525,568.7051 137.6125,568.8551 138.6665,569.0471 C143.6355,570.1141 148.6805,570.8571 153.7475,571.4621 C155.1925,571.6911 156.6425,571.8881 158.0905,572.0971 L163.3835,572.9051 C164.6545,573.1301 165.9195,573.3221 167.1885,573.5351 C171.3715,574.2601 175.5545,574.9831 179.7375,575.7081 C181.9955,576.3501 184.2745,576.8901 186.6235,577.0981 C187.7865,577.2011 188.4435,576.5091 188.6515,575.6491 C188.6865,575.5541 188.7575,575.4801 188.7745,575.3751 C188.7785,575.3611 188.7865,575.3551 188.7895,575.3421 C196.0015,543.2701 201.8285,510.8501 206.2655,478.2221 C206.8695,476.8311 207.2015,475.2251 207.0805,473.3581 C207.0575,473.0011 207.0495,472.6431 207.0295,472.2851" id="Fill-8" fill="#FF0E1D"></path>
                <path d="M105.4221,251.496 C105.3871,252.775 105.3221,254.052 105.2811,255.33 C104.5371,253.554 103.2661,252.216 101.7141,251.324 C99.6161,248.625 96.1721,247.346 92.8411,247.517 C88.6181,243.217 79.9901,243.928 76.6671,249.65 C76.8841,247.366 77.1211,245.084 77.3221,242.798 C77.5681,239.993 73.2421,239.024 72.9941,241.857 C64.1561,342.424 41.3151,441.343 5.0361,535.559 C4.4491,537.083 5.5191,538.376 6.7201,538.711 C6.7761,538.734 6.8081,538.777 6.8661,538.798 C22.6611,544.441 40.1711,548.67 56.6371,552.016 C57.3561,552.448 58.1731,552.469 58.7071,551.842 C58.8941,551.669 59.0131,551.441 59.0781,551.183 C59.0821,551.17 59.0911,551.165 59.0951,551.151 C68.8161,520.5 77.1831,489.401 84.1811,457.992 C84.8921,456.686 85.3511,455.15 85.3771,453.323 C85.3821,452.974 85.4021,452.625 85.4111,452.275 C99.6971,386.504 107.9721,319.408 109.800104,252.174 C109.8761,249.359 105.4991,248.654 105.4221,251.496" id="Fill-10" fill="#FF0E1D"></path>
                <path d="M69.1946,235.038 C68.9796,235.432 68.6716,236.034 68.2956,236.764 C68.0486,235.794 67.4826,234.931 66.4416,234.403 C66.2926,234.328 66.1406,234.271 65.9906,234.198 C65.1416,233.185 63.9046,232.593 62.5066,232.701 C59.7636,231.67 56.9626,230.946 53.9646,230.509 C52.2986,230.266 50.7836,231.453 50.0166,232.929 C49.9836,232.548 49.9316,232.171 49.9086,231.787 C49.5746,226.17 40.7736,225.962 41.1106,231.625 C41.6336,240.428 44.6976,255.859 54.3276,259.383 C65.1116,263.33 72.7906,246.798 76.7106,239.618 C79.4216,234.653 71.9126,230.06 69.1946,235.038" id="Fill-12" fill="#FF0E1D"></path>
                <path d="M137.3884,251.3442 C137.1974,251.7492 137.7214,250.5942 137.3884,251.3442 C137.0844,250.3912 135.6734,251.3372 134.6034,250.8712 C134.4494,250.8042 134.2954,250.7572 134.1414,250.6922 C133.2344,249.7312 131.9654,249.2122 130.5754,249.4022 C127.7774,248.5332 124.9384,247.9732 121.9204,247.7132 C121.2934,247.6582 120.7004,247.8022 120.1664,248.0822 C119.0284,247.7792 118.4374,247.6222 117.2994,247.3192 C115.1264,243.8112 108.5744,244.6872 109.1534,249.5782 C110.1904,258.3352 114.1494,273.5602 123.9694,276.5162 C134.9664,279.8262 141.6654,262.8742 145.1594,255.4772 C147.5754,250.3622 139.8104,246.2162 137.3884,251.3442" id="Fill-14" fill="#FF0E1D"></path>
                <path d="M317.2492,584.0507 C335.2622,583.5957 353.2532,582.6927 371.2102,581.3397 C370.1752,579.7407 369.0682,578.1847 367.9572,576.6267 C330.0922,513.5487 304.5322,444.8157 292.8872,373.5347 C292.8792,373.4897 292.8552,373.4577 292.8462,373.4147 L292.8702,260.8537 C292.8712,256.4887 286.2342,256.7877 286.2332,261.1387 L286.2092,371.4497 C286.1442,371.6427 286.0902,371.8417 286.0622,372.0567 C276.4262,444.4397 252.5472,514.8087 215.9822,579.8987 C249.4252,585.2387 283.4562,584.9047 317.2492,584.0507" id="Fill-16" fill="#000000"></path>
                <path d="M177.8484,256.2431 C175.9744,256.2061 174.1144,255.9401 172.2594,255.6511 C171.6794,255.5931 171.1014,255.5211 170.5154,255.5101 C168.2244,255.4651 166.1274,254.8611 164.3174,253.8351 C161.7304,253.0781 159.1054,252.5541 156.3224,252.3131 C155.8514,252.2721 155.3984,252.3431 154.9764,252.5001 C153.6514,252.1391 152.7584,251.8961 151.4324,251.5351 C149.0364,248.4851 142.9984,249.4751 143.5554,254.1791 C144.5924,262.9351 148.5524,278.1611 158.3714,281.1171 C169.3684,284.4271 176.0674,267.4741 179.5614,260.0771 C180.1314,258.8691 180.1094,257.4661 179.7314,256.0941 C179.0994,256.1921 178.4694,256.2551 177.8484,256.2431" id="Fill-18" fill="#FF0E1D"></path>
                <path d="M375.886,472.9326 C366.37,403.1586 363.359,332.4866 367.211,262.1896 C367.373,259.2456 372.086,258.8636 371.923,261.8346 C371.85,263.1716 371.809,264.5096 371.742,265.8466 C372.687,264.0526 374.153,262.7606 375.878,261.9536 C378.341,259.3076 382.113,258.2506 385.638,258.6976 C390.497,254.5516 399.607,255.9886 402.646,262.2276 C402.612,259.8266 402.556,257.4266 402.539,255.0246 C402.519,252.0786 407.201,251.4166 407.221,254.3916 C407.946,360.0316 423.698,465.0806 454.136,566.3076 C454.59,567.8176 454.178,570.2726 453.088,570.8456 C453.049,570.8726 452.99,570.8836 452.948,570.9096 C452.9,570.9256 452.859,570.9626 452.808,570.9726 C452.807,570.9726 452.804,570.9666 452.803,570.9666 C452.605,571.0696 452.415,571.1786 452.153,571.2276 C451.03,571.4376 449.9,571.5906 448.775,571.7866 C443.477,572.8766 438.099,573.6356 432.696,574.2536 C431.156,574.4886 429.61,574.6886 428.066,574.9026 C426.185,575.1776 424.303,575.4536 422.421,575.7286 C421.067,575.9576 419.718,576.1546 418.365,576.3716 C413.906,577.1126 409.446,577.8516 404.986,578.5916 C402.577,579.2476 400.148,579.7996 397.644,580.0116 C396.404,580.1176 395.703,579.4106 395.482,578.5326 C395.444,578.4346 395.367,578.3596 395.35,578.2516 C395.346,578.2376 395.337,578.2316 395.333,578.2176 C387.644,545.4536 381.431,512.3316 376.7,478.9966 C376.057,477.5766 375.702,475.9366 375.831,474.0296 C375.857,473.6626 375.865,473.2976 375.886,472.9326" id="Fill-20" fill="#FF0E1D"></path>
                <path d="M476.8537,248.9374 C476.8887,250.2374 476.9547,251.5364 476.9957,252.8354 C477.7387,251.0294 479.0097,249.6694 480.5607,248.7614 C482.6597,246.0184 486.1037,244.7174 489.4347,244.8914 C493.6577,240.5194 502.2857,241.2414 505.6097,247.0604 C505.3917,244.7384 505.1547,242.4174 504.9537,240.0934 C504.7077,237.2404 509.0337,236.2554 509.2827,239.1364 C518.1197,341.3934 540.9607,441.9744 577.2397,537.7744 C577.8267,539.3244 576.7557,540.6384 575.5547,540.9794 C575.5007,541.0034 575.4677,541.0464 575.4097,541.0684 C559.6147,546.8064 542.1047,551.1054 525.6387,554.5074 C524.9197,554.9474 524.1027,554.9684 523.5697,554.3314 C523.3817,554.1554 523.2627,553.9244 523.1987,553.6614 C523.1937,553.6474 523.1847,553.6424 523.1807,553.6294 C513.4597,522.4614 505.0927,490.8404 498.0947,458.9044 C497.3837,457.5764 496.9247,456.0134 496.8987,454.1574 C496.8937,453.8004 496.8737,453.4464 496.8657,453.0904 C482.5787,386.2144 474.3037,317.9914 472.474722,249.6264 C472.3997,246.7644 476.7767,246.0474 476.8537,248.9374" id="Fill-22" fill="#FF0E1D"></path>
                <path d="M103.1833,243.1049 C102.9683,243.4989 102.6593,244.1009 102.2843,244.8299 C102.0363,243.8609 101.4713,242.9979 100.4303,242.4699 C100.2803,242.3949 100.1293,242.3379 99.9793,242.2649 C99.1303,241.2519 97.8933,240.6599 96.4953,240.7679 C93.7523,239.7369 90.9513,239.0129 87.9533,238.5759 C86.2873,238.3329 84.7723,239.5199 84.0053,240.9959 C83.9723,240.6149 83.9203,240.2379 83.8973,239.8539 C83.5633,234.2369 74.7623,234.0279 75.0993,239.6919 C75.6223,248.4949 78.6853,263.9259 88.3163,267.4499 C99.1003,271.3969 106.7793,254.8649 110.6993,247.6849 C113.4103,242.7199 105.9003,238.1269 103.1833,243.1049" id="Fill-24" fill="#FF0E1D"></path>
                <path d="M213.9182,260.2426 C212.0442,260.2856 210.1742,260.0986 208.3082,259.8886 C207.7272,259.8546 207.1472,259.8086 206.5602,259.8216 C204.2702,259.8746 202.1482,259.3596 200.2972,258.4126 C197.6802,257.7656 195.0352,257.3536 192.2442,257.2316 C191.7722,257.2106 191.3232,257.3016 190.9072,257.4756 C189.5682,257.1716 188.6662,256.9666 187.3262,256.6626 C184.8022,253.7166 178.8122,254.9636 179.5682,259.6386 C180.9762,268.3436 185.5802,283.3866 195.5172,285.9216 C206.6442,288.7616 212.6162,271.5396 215.7932,264.0006 C216.3112,262.7696 216.2292,261.3686 215.7932,260.0136 C215.1662,260.1386 214.5392,260.2286 213.9182,260.2426" id="Fill-26" fill="#FF0E1D"></path>
                <g id="Group-30" transform="translate(291.000000, 0.542000)">
                    <mask id="mask-4" fill="white">
                        <use xlink:href="#path-3"></use>
                    </mask>
                    <g id="Clip-29"></g>
                    <path d="M156.9367,24.9936 C156.7157,23.4926 155.9377,22.5776 154.9417,22.1286 C154.0477,21.5476 152.8837,21.3626 151.5177,21.8636 C138.0117,26.8206 122.2707,22.7036 108.6627,19.8266 C95.1657,16.9726 82.1347,12.8596 69.0967,8.4086 C47.4797,1.0286 24.1037,-4.7334 3.2287,7.8226 C0.0787,9.7166 0.8247,13.5666 3.0607,15.2746 C3.0097,15.5116 2.9447,15.7386 2.9287,15.9996 C2.4347,23.7296 2.1307,31.4536 2.0167,39.1996 C2.0077,39.7956 2.1207,40.3376 2.3217,40.8226 C-2.1643,43.8606 2.1937,51.2036 7.0117,48.3056 C31.7897,33.4046 59.8207,48.5476 84.4777,55.8526 C104.5387,61.7956 132.5737,70.8056 153.1857,63.2406 C153.7437,63.0356 154.2087,62.7526 154.6037,62.4226 C155.3827,61.9126 155.9927,61.0866 156.2297,59.8526 C158.4647,48.2066 158.6627,36.7216 156.9367,24.9936" id="Fill-28" fill="#FF0E1D" mask="url(#mask-4)"></path>
                </g>
                <path d="M287.3913,262.6547 C285.5243,262.8107 283.9503,262.6597 282.0753,262.5627 C281.4923,262.5647 280.8263,262.6977 280.2413,262.7467 C277.9583,262.9367 275.7443,263.5317 273.8383,262.6987 C271.1873,262.2117 268.5223,261.9597 265.7293,262.0067 C265.2563,262.0147 264.8133,262.1317 264.4103,262.3307 C263.0543,262.1087 262.1413,261.9587 260.7853,261.7357 C258.0883,258.9477 252.0363,259.0277 253.0733,263.6477 C255.0053,272.2517 260.4533,289.5087 270.5243,291.4387 C281.8033,293.5997 286.9293,275.0567 289.6433,267.3397 C290.0863,266.0797 289.9203,264.6867 289.4023,263.3597 C288.7853,263.5227 288.0103,262.6027 287.3913,262.6547" id="Fill-31" fill="#FF0E1D"></path>
                <path d="M321.1394,260.894 C317.5804,261.902 313.9584,261.963 310.3084,262.563 C309.7404,262.656 309.2464,261.953 308.7504,262.196 C306.6134,261.936 304.6594,262.562 302.4254,262.655 C301.9524,262.674 301.3574,262.537 300.9584,262.747 C299.5974,262.558 298.6264,263.572 297.2654,263.383 C293.7624,259.551 286.8644,259.745 289.7894,267.008 C293.0834,275.188 297.8004,290.159 307.9164,291.84 C319.2454,293.722 323.7304,276.054 326.2534,268.272 C326.3514,267.969 326.4104,267.658 326.4424,267.344 C328.0074,264.436 325.3654,259.698 321.1394,260.894" id="Fill-33" fill="#FF0E1D"></path>
                <path d="M247.6203,259.4702 C244.0073,260.2612 240.3763,260.8732 236.6963,261.2512 C236.1233,261.3102 235.5723,261.4522 235.0613,261.6652 C232.9443,261.2772 230.8063,261.0012 228.5703,260.9592 C228.0983,260.9502 227.6513,261.0512 227.2403,261.2362 C225.8933,260.9652 224.9863,260.7822 223.6403,260.5122 C220.3743,256.4742 213.4773,256.2512 215.9573,263.6782 C218.7513,272.0422 222.5553,287.2702 232.5513,289.5592 C243.7453,292.1232 249.2903,274.7592 252.2793,267.1442 C252.3953,266.8472 252.4733,266.5402 252.5243,266.2282 C254.2623,263.4212 251.9113,258.5312 247.6203,259.4702" id="Fill-35" fill="#FF0E1D"></path>
                <path d="M397.8283,256.8442 C395.9893,257.2082 394.4083,257.2342 392.5343,257.3472 C391.9553,257.4142 391.3083,257.6202 390.7323,257.7342 C388.4853,258.1792 386.3513,259.0182 384.3653,258.4032 C381.6763,258.2152 378.9993,258.2622 376.2283,258.6212 C375.7603,258.6822 375.3333,258.8482 374.9543,259.0912 C373.5823,259.0222 372.6573,258.9742 371.2863,258.9052 C368.2943,256.4362 362.2883,257.1912 363.8363,261.6672 C366.7183,270.0012 374.0593,286.5402 384.2843,287.3332 C395.7333,288.2192 398.7553,269.2202 400.5893,261.2482 C400.8893,259.9472 400.5673,258.5802 399.9053,257.3202 C399.3093,257.5512 398.4363,256.7232 397.8283,256.8442" id="Fill-37" fill="#FF0E1D"></path>
                <path d="M431.1672,251.3222 C427.7432,252.7212 424.1512,253.1872 420.5912,254.1912 C420.0362,254.3472 419.4672,253.7042 419.0012,254.0012 C416.8492,253.9822 414.9772,254.8222 412.7672,255.1632 C412.3002,255.2362 411.6922,255.1662 411.3192,255.4192 C409.9462,255.3832 409.0952,256.5002 407.7222,256.4642 C403.8122,253.0472 396.9792,254.0112 400.6972,260.9022 C404.8852,268.6632 411.2462,283.0122 421.4862,283.5512 C432.9552,284.1552 435.4372,266.0972 437.0742,258.0822 C437.1382,257.7702 437.1612,257.4542 437.1582,257.1382 C438.3892,254.0742 435.2332,249.6602 431.1672,251.3222" id="Fill-39" fill="#FF0E1D"></path>
                <path d="M290.7053,5.1201 C290.8943,20.6791 291.0833,36.2381 291.2723,51.7961 C291.3243,56.0381 297.9513,56.5691 297.8983,52.2811 C297.7093,36.7231 297.5203,21.1631 297.3313,5.6051 C297.2803,1.3631 290.6533,0.8321 290.7053,5.1201" id="Fill-41" fill="#000000"></path>
                <path d="M357.9504,258.1249 C354.4474,259.3149 350.9084,260.3289 347.2934,261.1159 C346.7304,261.2389 346.1984,261.4419 345.7164,261.7099 C343.5674,261.5609 341.4124,261.5259 339.1854,261.7339 C338.7164,261.7779 338.2834,261.9289 337.8954,262.1579 C336.5264,262.0399 335.6044,261.9589 334.2364,261.8409 C330.5394,258.1939 323.6614,258.7429 326.9564,265.8459 C330.6674,273.8459 336.1494,288.5539 346.3394,289.7109 C357.7494,291.0069 361.3184,273.1309 363.4374,265.2299 C363.5194,264.9219 363.5624,264.6079 363.5784,264.2929 C364.9914,261.3089 362.1084,256.7119 357.9504,258.1249" id="Fill-43" fill="#FF0E1D"></path>
                <path d="M506.3186,236.4223 C504.5536,237.0543 502.9946,237.3143 501.1576,237.7043 C500.5946,237.8563 499.9856,238.1563 499.4336,238.3543 C497.2776,239.1273 495.2916,240.2733 493.2346,239.9593 C490.5476,240.1723 487.9086,240.6163 485.2206,241.3813 C484.7666,241.5113 484.3686,241.7383 484.0296,242.0353 C482.6636,242.1703 481.7426,242.2603 480.3756,242.3953 C477.0496,240.3963 471.2226,242.0343 473.4176,246.2313 C477.5026,254.0463 487.2146,269.3143 497.4436,268.5823 C508.8986,267.7623 509.0696,248.5243 509.7026,240.3683 C509.8046,239.0363 509.2856,237.7333 508.4426,236.5853 C507.8876,236.9013 506.9026,236.2133 506.3186,236.4223" id="Fill-45" fill="#FF0E1D"></path>
                <path d="M538.4709,226.019 C535.2919,227.911 531.8089,228.904 528.4369,230.424 C527.9109,230.661 527.2529,230.109 526.8359,230.472 C524.7039,230.772 522.9779,231.88 520.8429,232.546 C520.3919,232.686 519.7819,232.707 519.4499,233.013 C518.0859,233.181 517.4089,234.412 516.0459,234.58 C511.6719,231.781 505.0589,233.747 509.7569,240.011 C515.0489,247.064 523.4669,260.312 533.6739,259.328 C545.1059,258.225 544.8829,239.998 545.3149,231.829 C545.3309,231.511 545.4659,229.339 545.4159,229.027 C546.1789,225.814 542.2449,223.773 538.4709,226.019" id="Fill-47" fill="#FF0E1D"></path>
                <path d="M467.0705,243.6005 C463.7835,245.2965 460.4325,246.8245 456.9755,248.1385 C456.4365,248.3425 455.9405,248.6225 455.5035,248.9595 C453.3565,249.1305 451.2195,249.4155 449.0495,249.9515 C448.5905,250.0635 448.1845,250.2775 447.8355,250.5615 C446.4645,250.6475 445.5415,250.7045 444.1705,250.7905 C439.9725,247.7315 433.2525,249.2945 437.5635,255.8305 C442.4205,263.1915 450.0215,276.9245 460.2695,276.5585 C471.7465,276.1485 472.6275,257.9415 473.5505,249.8135 C473.5875,249.4965 473.5825,249.1805 473.5505,248.8655 C474.5065,245.7045 470.9735,241.5865 467.0705,243.6005" id="Fill-49" fill="#FF0E1D"></path>
                <path d="M301.5305,58.5322 C300.7675,56.6032 299.9945,54.6802 299.2685,52.7272 C299.1115,52.3032 298.8645,52.0412 298.5915,51.8422 C298.5785,51.8282 298.5765,51.8122 298.5635,51.7992 C298.2065,51.4312 297.8265,51.1792 297.4225,50.9862 C296.2985,50.3122 294.9675,50.1412 293.5005,50.3202 C292.8415,50.4012 292.2095,50.6202 291.6175,50.9122 C291.0055,51.0652 290.4725,51.4122 290.0645,51.8982 C289.8235,52.0942 289.6065,52.3432 289.4635,52.7272 C288.7375,54.6802 287.9655,56.6032 287.2015,58.5322 C243.2925,145.0802 161.4405,201.4742 74.2165,237.2292 C73.8535,237.3782 73.5985,237.5872 73.4065,237.8242 C74.6195,237.4542 75.9555,237.2422 77.4295,237.2422 C79.5375,237.2422 81.3755,237.6582 82.9495,238.3812 C84.1345,237.8782 85.3235,237.3922 86.5065,236.8822 C86.4385,237.8102 86.8705,238.7402 88.0505,239.0172 C88.1725,239.0462 88.2935,239.0672 88.4145,239.0952 C89.7545,238.6222 91.2535,238.3492 92.9295,238.3492 C96.6105,238.3492 99.4725,239.6142 101.5255,241.5792 C106.2915,242.2782 111.0855,242.7702 115.9475,243.0502 C114.8895,243.6682 113.8185,244.2552 112.7565,244.8642 C113.7185,245.3792 114.6155,246.0302 115.4645,246.7562 C115.8875,246.7062 116.3115,246.6722 116.7335,246.6532 C117.2765,246.6282 117.8325,246.6732 118.3925,246.7472 C192.7785,203.2922 258.6235,142.7122 291.1215,60.6322 C266.0815,129.7682 234.6025,198.0642 181.8605,250.6302 C181.0105,251.4782 181.0985,252.5062 181.6055,253.2822 C182.7955,253.1242 184.0605,253.1312 185.3985,253.3442 C185.7315,253.0012 186.0605,252.6572 186.3975,252.3172 C186.7865,252.8912 187.4765,253.2632 188.2195,253.3232 C188.3525,253.5142 188.5045,253.6922 188.6815,253.8372 C188.6635,253.8692 188.6465,253.9002 188.6285,253.9312 C188.6075,253.9672 188.6095,254.0042 188.5915,254.0402 C193.7555,255.2642 198.9615,256.3802 204.2045,257.2342 C205.0035,256.0232 205.8285,254.8532 206.6865,253.7262 C206.0435,254.9282 205.3665,256.1182 204.6615,257.3032 C205.9675,257.5112 207.2715,257.7242 208.5795,257.8962 C208.9155,257.9402 209.2505,257.9602 209.5865,257.9962 C209.7195,257.8082 209.8505,257.6172 209.9825,257.4282 C210.3275,257.7962 210.7745,258.0502 211.2395,258.1612 C211.4245,258.1752 211.6075,258.1822 211.7915,258.1942 C212.1485,258.1772 212.5025,258.0942 212.8185,257.8432 C212.9265,257.9992 213.0575,258.1362 213.1985,258.2612 C215.3625,258.3472 217.5245,258.3432 219.6855,258.3202 C219.7835,258.2302 219.8855,258.1462 219.9745,258.0332 C220.3145,258.0532 220.6475,257.9882 220.9675,257.8332 C220.8605,257.9942 220.7445,258.1512 220.6365,258.3112 C222.4085,258.2932 224.1795,258.2892 225.9515,258.3372 C263.2935,201.7572 281.9475,135.7812 294.6875,69.6092 C307.3775,135.5262 325.9325,201.2522 362.9865,257.6862 C363.0415,257.6702 363.0905,257.6482 363.1445,257.6322 C369.0715,255.9382 374.8395,256.2822 380.7815,256.5852 C383.2265,256.4572 385.6755,256.3222 388.1355,256.1362 C391.0425,255.9182 393.9155,255.4602 396.7795,254.9292 C395.9575,254.0712 395.1275,253.2542 394.2845,252.4772 C394.1855,252.3672 394.1005,252.2512 394.0045,252.1402 C394.2035,252.0102 394.3715,251.8522 394.5185,251.6792 C394.7025,251.7932 394.8825,251.9152 395.0645,252.0312 C396.1095,252.9312 397.2125,253.7852 398.3235,254.6352 C401.5325,254.0162 404.7385,253.3532 407.9715,252.8542 C408.2645,252.1552 408.2225,251.3362 407.5145,250.6302 C357.7645,201.0472 326.9365,137.4682 302.5825,72.3902 C336.4625,148.3892 399.3145,205.2182 469.9435,246.5532 C471.1685,245.4212 472.6625,244.5292 474.4235,243.9712 C474.0275,243.7482 473.6305,243.5272 473.2375,243.2972 C473.8625,243.1182 474.3405,242.5922 474.5665,241.9642 C474.8655,242.0012 475.1585,242.0322 475.4455,242.0552 C476.6365,242.8842 478.0985,243.1402 480.1365,242.8952 C481.4245,242.7402 482.2655,241.7872 482.2965,240.7142 C482.9575,240.3202 483.5905,239.8202 484.2095,239.2502 C484.4355,239.2432 484.6445,239.2542 484.8805,239.2382 C485.8085,239.1742 486.5455,238.5142 486.8865,237.7252 C489.1675,238.4472 491.2905,238.6502 494.0885,238.3722 C494.3335,238.3482 494.5535,238.2852 494.7625,238.2062 C495.0265,238.2402 495.2815,238.2772 495.5555,238.3052 C495.8935,238.3412 496.1795,238.2762 496.4415,238.1722 C496.6695,238.1782 496.8915,238.1572 497.1165,238.1402 C497.7425,238.4242 498.5395,238.3922 499.1145,238.0362 L499.6765,237.6892 C500.2925,237.3082 500.6015,236.7762 500.6895,236.2192 C502.2355,236.8902 503.7915,237.5262 505.3415,238.1862 C507.8395,237.5772 510.3435,237.0112 512.8595,236.5362 C426.2585,200.7482 345.1615,144.5322 301.5305,58.5322" id="Fill-51" fill="#FF0E1D"></path>
                <path d="M321.4802,259.4726 C305.2092,195.3976 296.8492,129.7166 296.5432,63.6086 C296.5372,62.1746 295.4152,61.4646 294.3022,61.4725331 C293.1892,61.4646 292.0672,62.1746 292.0602,63.6086 C291.7542,129.7166 283.3952,195.3976 267.1242,259.4726 C266.4222,262.2366 270.6912,263.4146 271.3942,260.6496 C271.6742,259.5456 271.9342,258.4366 272.2102,257.3306 C272.7822,258.6756 274.6292,259.1546 275.8012,258.0596 C275.9642,257.9086 276.0972,257.7596 276.2512,257.6096 C276.3402,258.1116 276.4332,258.6156 276.5472,259.1336 C276.8372,260.4506 278.4342,261.0266 279.5912,260.5716 C280.4872,261.6896 282.6272,261.8486 283.2662,260.3716 C283.3562,260.1616 283.4272,259.9556 283.5142,259.7466 C284.2772,260.5276 285.5732,260.7866 286.4372,260.1526 C287.4912,261.4456 289.9822,261.4796 290.3352,259.4846 C290.3812,259.2256 290.4022,258.9736 290.4452,258.7156 C291.4202,259.5336 292.9062,259.3186 293.6362,258.2646 C294.1842,258.7896 294.9462,259.0156 295.6582,258.9216 C295.7442,258.9946 295.8192,259.0836 295.9132,259.1416 C296.7292,259.6486 297.5272,259.8516 298.3072,259.8586 C298.3612,259.9106 298.3962,259.9656 298.4522,260.0166 C302.1532,263.3416 305.6182,262.2876 308.1642,259.4796 C309.1542,259.1506 309.9352,258.2766 309.7832,257.2666 C309.8892,257.0896 309.9912,256.9086 310.0912,256.7256 C310.3532,256.9286 310.6142,257.1296 310.8762,257.3316 C310.9632,257.4796 311.0212,257.6226 311.1112,257.7706 C311.4742,258.3636 312.1052,258.7016 312.7652,258.7886 L313.8052,259.5906 C315.0182,260.5266 316.2002,259.8036 316.7312,258.7046 C316.8942,259.3516 317.0452,260.0026 317.2092,260.6496 C317.9122,263.4146 322.1822,262.2366 321.4802,259.4726" id="Fill-53" fill="#FF0E1D"></path>
                <path d="M541.4446,224.2084 C379.4866,268.0434 207.2876,268.5514 45.0836,225.6254 C41.1326,224.5804 39.3766,230.6814 43.3296,231.7274 C169.5996,265.1434 302.1606,272.6484 431.4016,253.6674 C469.0606,248.1374 506.3276,240.2904 543.0646,230.3464 C547.0026,229.2814 545.4006,223.1374 541.4446,224.2084" id="Fill-55" fill="#000000"></path>
            </g>
        </g>
    </g>
</svg>