<!-- Generated by IcoMoon.io -->
<svg version="1.1" xmlns="http://www.w3.org/2000/svg" width="17" height="32" viewBox="0 0 17 32">
<title>flag</title>
<path d="M1.952 1.472c0.192-0.064 0.672-0.096 0.928-0.032 0.064 0 0.128 0.064 0.16 0.064 0.384 0.096 0.928-0.064 1.152 0.16 0.16 0.16 0.16 0.512 0.288 0.768 0.16 0.512 0.864 0.8 1.312 1.056 0.256 0.16 0.576 0.448 0.832 0.608 0.064 0.064 0.16 0.064 0.224 0.096 0.608 0.384 1.216 0.864 1.824 1.248 0.064 0.064 0.16 0.032 0.224 0.096 0.16 0.096 0.288 0.256 0.48 0.352 0.096 0.096 0.256 0.128 0.384 0.192l0.704 0.48 0.704 0.448c0.96 0.64 2.112 1.344 3.072 2.016 0.16 0.128 0.48 0.448 0.512 0.608 0.032 0.096 0 0.224 0 0.32 0.032 0.128 0.128 0.448 0.064 0.736-0.096 0.48 0 1.024-0.064 1.344-0.064 0.384-0.352 0.448-0.672 0.64-0.288 0.16-0.576 0.48-0.896 0.544-0.032 0.032-0.128 0-0.192 0.032 0 0-0.032 0.096-0.064 0.128-0.096 0.096-0.48 0.16-0.672 0.32-0.32 0.192-0.768 0.416-1.152 0.608l-2.080 0.992c-0.608 0.32-1.088 0.512-1.632 0.832-0.448 0.288-0.992 0.48-1.44 0.736-0.032 0.032-0.064 0.096-0.128 0.128-0.128 0.064-0.288 0.096-0.448 0.192l-0.608 0.416c-0.192 0.096-0.544 0.256-0.608 0.416-0.096 0.16-0.096 0.512-0.128 0.672-0.128 0.384 0.032 1.056-0.064 1.6-0.032 0.16 0.032 0.416 0 0.608 0 0.032-0.064 0.096-0.064 0.128 0 0.128 0.096 0.224 0.128 0.352 0.032 0.16-0.032 0.288-0.064 0.48s-0.032 0.448-0.064 0.576c-0.096 0.512 0.096 1.184 0 1.632-0.032 0.064-0.064 0.064-0.064 0.16-0.192 0.768 0.32 1.984-0.448 2.176-0.224 0.032-0.48 0-0.768 0.064-0.128 0-0.416 0.128-0.704 0.064-0.064 0-0.096-0.064-0.128-0.064-0.48-0.128-0.992 0-1.376-0.064-0.256-0.064-0.256-0.352-0.32-0.64-0.128-0.96-0.096-2.176 0.064-3.072 0.128-0.736-0.128-1.568 0-2.24l0.096-0.16c0.064-0.448-0.096-0.992 0-1.472 0-0.032 0.032-0.096 0.032-0.128 0.096-0.448-0.064-0.992 0-1.44 0.16-0.736-0.032-1.856 0.128-2.496 0.096-0.416-0.032-0.896 0.064-1.408 0.096-0.448-0.032-0.896 0.064-1.376 0.128-0.704-0.096-1.408 0-1.952 0-0.064 0.064-0.096 0.064-0.16 0.096-0.352 0-0.928 0-1.344v-2.656c0-0.448 0.096-0.96 0-1.312 0-0.064-0.064-0.128-0.064-0.16-0.096-0.448 0-1.088-0.064-1.504-0.032-0.224-0.032-0.608 0.064-0.896 0.032-0.096 0.16-0.288 0.224-0.32 0.256-0.224 0.832-0.128 1.184-0.192zM4.512 8.128c0.032 0.16-0.064 0.192-0.096 0.384-0.064 0.288-0.064 0.896 0 1.088 0.032 0.16 0.032 0.096 0 0.256-0.032 0.096 0.032 0.416 0 0.64-0.096 0.32-0.064 0.928-0.128 1.376-0.032 0.192-0.032 0.448 0 0.544 0 0.096 0.032 0.288 0.064 0.384 0.064 0.288 0.064 0.448 0.384 0.352 0.384-0.16 0.768-0.352 1.184-0.512 0.352-0.128 0.64-0.384 0.928-0.512 0.256-0.128 0.512-0.224 0.8-0.384 0.48-0.224 0.832-0.448 1.248-0.672 0.096-0.064 0.352-0.224 0.352-0.32 0.032-0.256-0.32-0.32-0.416-0.384-0.416-0.288-0.8-0.608-1.248-0.8-0.16-0.096-0.32-0.288-0.448-0.32l-0.16-0.128c-0.352-0.256-0.736-0.448-1.088-0.672-0.032 0-0.032-0.064-0.064-0.096-0.128-0.096-0.352-0.16-0.544-0.256-0.224-0.16-0.448-0.352-0.704-0.416-0.128 0.096-0.064 0.416-0.064 0.448z"></path>
</svg>
