<svg aria-hidden="true" style="position: absolute; width: 0; height: 0; overflow: hidden;" version="1.1" xmlns="http://www.w3.org/2000/svg" xmlns:xlink="http://www.w3.org/1999/xlink">
<defs>
<symbol id="icon-website" viewBox="0 0 24 24">
<title>website</title>
<path d="M9 5.016h9.984v9.984h-1.969v-6.609l-11.625 11.625-1.406-1.406 11.625-11.625h-6.609v-1.969z"></path>
</symbol>
<symbol id="icon-dehaze" viewBox="0 0 24 24">
<title>dehaze</title>
<path d="M2.016 5.484h19.969v2.016h-19.969v-2.016zM2.016 10.5h19.969v2.016h-19.969v-2.016zM2.016 15.516h19.969v1.969h-19.969v-1.969z"></path>
</symbol>
<symbol id="icon-arrow_back" viewBox="0 0 24 24">
<title>arrow_back</title>
<path d="M20.016 11.016v1.969h-12.188l5.578 5.625-1.406 1.406-8.016-8.016 8.016-8.016 1.406 1.406-5.578 5.625h12.188z"></path>
</symbol>
<symbol id="icon-arrow_forward" viewBox="0 0 24 24">
<title>arrow_forward</title>
<path d="M12 3.984l8.016 8.016-8.016 8.016-1.406-1.406 5.578-5.625h-12.188v-1.969h12.188l-5.578-5.625z"></path>
</symbol>
<symbol id="icon-grid_view" viewBox="0 0 24 24">
<title>grid_view</title>
<path d="M18.984 18.984v-3.984h-3.984v3.984h3.984zM12.984 12.984h8.016v8.016h-8.016v-8.016zM18.984 9v-3.984h-3.984v3.984h3.984zM12.984 3h8.016v8.016h-8.016v-8.016zM9 18.984v-3.984h-3.984v3.984h3.984zM3 12.984h8.016v8.016h-8.016v-8.016zM9 9v-3.984h-3.984v3.984h3.984zM3 3h8.016v8.016h-8.016v-8.016z"></path>
</symbol>
<symbol id="icon-tickets" viewBox="0 0 73 32">
<title>tickets</title>
<path d="M43.943 0c0.446 0.021 0.893 0.049 1.339 0.064 5.944 0.2 11.805 0.922 17.492 2.763 2.319 0.75 4.507 1.745 6.43 3.283 1.406 1.124 2.529 2.444 3.080 4.196 0.727 2.31 0.431 4.526-0.599 6.676-0.906 1.889-2.245 3.437-3.769 4.841-2.928 2.696-6.387 4.42-10.143 5.601-4.245 1.335-8.566 2.344-12.955 3.065-4.226 0.694-8.479 1.119-12.755 1.338-3.366 0.173-6.734 0.217-10.102 0.13-2.389-0.062-4.78-0.188-7.162-0.387-2.604-0.219-5.182-0.655-7.703-1.372-1.33-0.378-2.556-0.984-3.643-1.855-1.572-1.259-2.469-2.933-2.929-4.864-0.589-2.47-0.324-4.904 0.375-7.308 0.802-2.758 2.176-5.183 4.225-7.205 0.046-0.045 0.091-0.092 0.138-0.136 0.34-0.313 0.554-0.253 0.665 0.198 0.112 0.457 0.045 0.84-0.322 1.207-2.334 2.336-3.911 5.097-4.496 8.38-0.317 1.777-0.204 3.537 0.381 5.255 0.781 2.295 2.39 3.752 4.659 4.429 1.601 0.477 3.239 0.841 4.878 1.17 3.103 0.623 6.249 0.848 9.409 0.912 3.332 0.068 6.66-0.023 9.985-0.231 2.433-0.152 4.869-0.308 7.289-0.583 3.051-0.347 6.096-0.77 9.129-1.249 2.378-0.376 4.75-0.82 7.098-1.351 3.937-0.891 7.663-2.354 11.098-4.503 2.422-1.515 4.379-3.514 5.838-5.986 0.662-1.122 1.063-2.327 1.039-3.656-0.026-1.437-0.579-2.651-1.487-3.729-1.519-1.803-3.457-2.987-5.604-3.876-2.855-1.182-5.82-1.948-8.861-2.444-3.801-0.62-7.629-0.961-11.475-1.101-3.727-0.135-7.453-0.104-11.173 0.156-2.679 0.187-5.359 0.391-8.028 0.682-5.564 0.608-11.027 1.712-16.315 3.598-2.197 0.784-4.257 1.836-6.147 3.21-1.107 0.804-1.859 1.855-2.092 3.24-0.035 0.211-0.096 0.489-0.38 0.463-0.26-0.024-0.322-0.284-0.34-0.509-0.050-0.627 0.144-1.21 0.387-1.769 0.732-1.69 1.962-2.937 3.524-3.857 2.448-1.443 5.065-2.488 7.789-3.27 3.861-1.108 7.788-1.901 11.764-2.458 3.803-0.533 7.623-0.858 11.46-0.998 1.287-0.047 2.575-0.075 3.862-0.114 0.078-0.002 0.155-0.029 0.232-0.044h4.917z"></path>
<path d="M18.587 19.657v-6.517h1.744v-1.163h-4.718v1.163h1.744v6.517h1.229zM24.74 19.657v-1.163h-1.163v-5.354h1.163v-1.163h-3.555v1.163h1.163v5.354h-1.163v1.163h3.555zM28.907 19.723c0.709 0 1.353-0.174 1.931-0.521s1.033-0.821 1.366-1.421c0.333-0.6 0.499-1.254 0.499-1.964v0h-1.251c0 0.519-0.108 0.987-0.324 1.404s-0.517 0.744-0.905 0.982c-0.388 0.238-0.826 0.357-1.317 0.357s-0.929-0.121-1.317-0.362c-0.388-0.241-0.689-0.572-0.905-0.993s-0.324-0.883-0.324-1.388c0-0.505 0.108-0.967 0.324-1.388s0.517-0.752 0.905-0.993c0.388-0.241 0.826-0.362 1.317-0.362 0.87 0 1.558 0.366 2.063 1.097v0l0.856-0.856c-0.358-0.439-0.784-0.783-1.278-1.031s-1.040-0.373-1.64-0.373c-0.709 0-1.353 0.174-1.931 0.521s-1.033 0.821-1.366 1.421c-0.333 0.6-0.499 1.254-0.499 1.964s0.166 1.364 0.499 1.964c0.333 0.6 0.788 1.073 1.366 1.421s1.221 0.521 1.931 0.521zM35.005 19.657v-3.028l0.669-0.933 2.15 3.961h1.437l-2.787-5.091 1.843-2.589h-1.448l-1.865 2.677v-2.677h-1.229v7.68h1.229zM45.020 19.657v-1.163h-3.654v-2.128h2.315v-1.163h-2.315v-2.063h3.588v-1.163h-4.816v7.68h4.882zM48.891 19.657v-6.517h1.744v-1.163h-4.718v1.163h1.744v6.517h1.229zM53.3 19.723c0.453 0 0.869-0.11 1.245-0.329s0.675-0.519 0.894-0.9c0.219-0.38 0.329-0.805 0.329-1.273 0-0.563-0.135-1.018-0.406-1.366s-0.658-0.616-1.163-0.806c-0.197-0.080-0.384-0.146-0.56-0.197-0.3-0.102-0.527-0.188-0.68-0.258s-0.276-0.161-0.368-0.274c-0.091-0.113-0.137-0.265-0.137-0.455 0-0.227 0.079-0.415 0.236-0.565s0.36-0.225 0.609-0.225c0.212 0 0.402 0.057 0.571 0.17s0.3 0.272 0.395 0.477v0l0.933-0.669c-0.402-0.761-1.046-1.141-1.931-1.141-0.38 0-0.724 0.086-1.031 0.258s-0.549 0.411-0.724 0.719c-0.176 0.307-0.263 0.655-0.263 1.042 0 0.417 0.11 0.777 0.329 1.081s0.512 0.528 0.878 0.675c0.146 0.059 0.366 0.132 0.658 0.219 0.344 0.11 0.607 0.208 0.79 0.296s0.335 0.214 0.455 0.378c0.121 0.165 0.181 0.39 0.181 0.675 0 0.388-0.112 0.702-0.335 0.944s-0.525 0.362-0.905 0.362c-0.38 0-0.682-0.124-0.905-0.373s-0.335-0.56-0.335-0.933v0h-1.229c0 0.446 0.108 0.859 0.324 1.24s0.512 0.68 0.889 0.9c0.377 0.219 0.795 0.329 1.256 0.329z"></path>
</symbol>
<symbol id="icon-menu-old" viewBox="0 0 52 32">
<title>menu-old</title>
<path d="M26.898 18.921l0.124 0.086c0.247 0.029 0.494 0 0.659 0.058 0.124 0.029 0.329 0.23 0.453 0.345 0.165 0.173 0.494 0.374 0.618 0.518 0.165 0.173 0.329 0.259 0.453 0.431 0.165 0.201 0.371 0.403 0.577 0.604l0.865 0.863c0.124 0.115 0.288 0.173 0.371 0.259 0.206 0.201 0.453 0.374 0.618 0.518 0.124 0.144 0.288 0.201 0.412 0.345 0.124 0.201 0.453 0.345 0.618 0.518 0.082 0.058 0.082 0.144 0.124 0.173 0.124 0.144 0.371 0.316 0.494 0.403 0 0.029 0.124 0.029 0.124 0.058 0.041 0.029 0.041 0.115 0.082 0.173 0.082 0.086 0.247 0.144 0.329 0.201 0.247 0.259 0.577 0.518 0.824 0.777 0.206 0.201 0.453 0.345 0.659 0.575 0.329 0.288 0.741 0.46 1.030 0.777 0.082 0.058 0.082 0.173 0.124 0.201 0.247 0.086 0.577-0.259 0.659-0.374 0.165-0.173 0.453-0.316 0.659-0.489 0.329-0.345 0.659-0.604 1.112-0.921 0.535-0.374 0.947-0.633 1.4-1.093 0.329-0.316 0.906-0.518 1.194-0.863 0.082-0.115 0.247-0.23 0.371-0.316 0.124-0.144 0.288-0.259 0.412-0.374 0.165-0.144 0.453-0.288 0.659-0.46 0.247-0.144 0.494-0.316 0.659-0.518 0.082-0.058 0.247-0.115 0.288-0.201 0.247-0.23 0.618-0.547 0.988-0.604 0.082-0.029 0.206 0 0.288 0 0.206-0.029 0.371-0.058 0.824 0 0.618 0.086 0.947 0.345 1.153 0.748 0.288 0.489 0.577 0.921 0.741 1.467l0.247 0.489c0.082 0.144 0.288 0.288 0.329 0.403 0.124 0.46 0.329 0.805 0.577 1.266 0.082 0.144 0.247 0.288 0.329 0.46l0.082 0.23c0.082 0.201 0.288 0.345 0.329 0.46 0 0.058-0.041 0.144 0 0.201 0.041 0.115 0.247 0.23 0.329 0.374 0.041 0.115 0 0.201 0.082 0.288 0.124 0.259 0.329 0.518 0.494 0.834 0.165 0.345 0.412 0.633 0.535 1.007 0.041 0.058 0.165 0.144 0.165 0.201 0.082 0.259 0.371 0.604 0.247 0.949-0.082 0.259-0.988 0.46-1.441 0.575-0.494 0.144-1.112 0.374-1.688 0.46-0.165 0.029-0.329 0.173-0.412 0.173-0.618 0.086-1.071-0.058-1.235-0.259-0.041-0.058-0.041-0.173-0.082-0.259-0.124-0.288-0.371-0.575-0.494-0.834-0.165-0.316-0.288-0.633-0.494-1.007-0.247-0.489-0.659-1.007-0.906-1.553 0-0.029 0.041-0.058 0-0.086-0.082-0.201-0.371-0.46-0.494-0.662-0.124-0.316-0.494 0.173-0.618 0.259-0.041 0.058-0.165 0.058-0.206 0.086l-0.165 0.23c-0.206 0.201-0.659 0.374-0.865 0.604-0.371 0.345-0.741 0.604-1.112 0.978l-0.371 0.316c-0.206 0.201-0.535 0.345-0.741 0.547-0.494 0.489-1.071 0.834-1.565 1.352-0.288 0.259-0.824 0.518-1.112 0.805-0.124 0.115-0.165 0.201-0.247 0.23-0.082 0-0.247-0.029-0.329 0-0.247 0.029-0.535 0.115-0.782 0.058-0.082 0-0.124-0.058-0.165-0.058-0.165-0.029-0.329 0.029-0.453 0s-0.412-0.288-0.577-0.431c-0.041-0.086-0.206-0.144-0.288-0.23-0.247-0.201-0.371-0.431-0.577-0.633-0.082-0.058-0.206-0.086-0.247-0.173-0.371-0.345-0.741-0.777-1.071-1.151-0.288-0.259-0.782-0.489-0.988-0.777-0.124-0.173-0.453-0.316-0.535-0.431l-0.371-0.374c-0.165-0.144-0.453-0.288-0.618-0.46-0.165-0.144-0.206-0.316-0.371-0.403-0.165-0.115-0.412-0.259-0.577-0.431-0.124-0.173-0.329-0.288-0.453-0.431-0.124-0.086-0.288-0.201-0.412-0.345-0.247-0.201-0.577-0.46-0.824-0.719-0.082-0.086-0.247-0.144-0.329-0.201-0.247-0.288-0.618-0.834-0.988-0.46-0.041 0.029 0 0.086-0.041 0.115-0.288 0.345-0.618 0.575-0.947 0.921l-0.082 0.201c-0.247 0.288-0.577 0.518-0.782 0.777-0.124 0.086-0.165 0.288-0.288 0.374s-0.082 0-0.124 0.144c-0.041 0.086-0.247 0.144-0.329 0.201-0.082 0.115-0.124 0.259-0.206 0.345-0.247 0.288-0.577 0.575-0.865 0.863-0.206 0.201-0.329 0.431-0.535 0.604-0.124 0.115-0.329 0.23-0.453 0.374-0.165 0.173-0.247 0.403-0.412 0.604-0.288 0.288-0.7 0.633-0.988 0.949-0.082 0.086-0.082 0.201-0.165 0.288-0.082 0.115-0.494 0.403-0.618 0.431-0.082 0.029-0.247 0-0.371 0-0.041 0-0.082 0.058-0.124 0.058-0.247 0.058-0.824-0.029-0.947-0.058-0.329-0.086-0.865 0.058-1.194 0-0.082-0.029-0.124-0.115-0.247-0.173-0.206-0.086-0.494-0.23-0.618-0.374-0.329-0.316-0.535-0.547-0.824-0.863l-0.659-0.604-0.577-0.547-0.412-0.374c-0.165-0.173-0.371-0.345-0.577-0.518-0.329-0.345-0.947-0.719-1.318-1.093-0.041-0.058-0.124-0.086-0.124-0.115-0.082-0.173-0.082-0.086-0.206-0.23-0.082-0.115-0.412-0.259-0.535-0.374-0.206-0.23-0.535-0.374-0.659-0.604-0.082-0.115-0.371-0.201-0.494-0.288-0.082-0.115-0.124-0.316-0.288-0.288l-0.453 0.403-0.824 0.863c-0.124 0.115-0.124 0.288-0.247 0.431-0.206 0.23-0.494 0.46-0.7 0.69-0.165 0.144-0.206 0.345-0.371 0.489l-0.329 0.259c-0.124 0.173-0.165 0.374-0.329 0.547-0.041 0.029-0.124 0.058-0.124 0.086-0.124 0.115-0.165 0.259-0.288 0.374l-0.247 0.23c-0.206 0.23-0.412 0.46-0.659 0.69-0.082 0.086-0.329 0.259-0.453 0.345-0.041 0.086-0.041 0.144-0.124 0.173-0.041 0.029-0.7 0.029-0.782 0-0.535-0.23-1.071-0.547-1.606-0.777-0.371-0.173-0.947-0.259-1.277-0.403-0.124-0.058-0.453-0.23-0.535-0.316-0.082-0.144-0.041-0.23 0-0.345 0.082-0.201 0.124-0.288 0.288-0.46l0.288-0.23 0.247-0.403c0.288-0.288 0.577-0.547 0.865-0.863l0.453-0.547c0.371-0.403 0.824-0.805 1.194-1.237 0.165-0.144 0.206-0.316 0.371-0.489l0.659-0.662c0.206-0.288 0.577-0.518 0.782-0.777l0.329-0.431 0.329-0.259c0.165-0.173 0.247-0.374 0.412-0.547l0.165-0.086c0.206-0.201 0.329-0.46 0.494-0.662 0.247-0.23 0.494-0.547 0.741-0.777 0.082-0.086 0.165-0.144 0.247-0.259 0.165-0.144 0.577-0.115 0.906-0.173 0.288-0.029 0.247-0.029 0.453 0s0.535-0.029 0.782 0c0.371 0.058 0.659 0.259 0.824 0.431 0.288 0.288 0.659 0.547 0.906 0.777 0.082 0.086 0.082 0.173 0.165 0.259 0.371 0.345 0.782 0.633 1.112 1.007l0.288 0.316c0.165 0.144 0.412 0.288 0.535 0.431 0.165 0.144 0.329 0.259 0.453 0.403 0.124 0.201 0.618 0.431 0.782 0.604 0.082 0.115 0.206 0.201 0.247 0.316 0.082 0.115 0.371 0.201 0.494 0.316 0.041 0.086 0.041 0.173 0.124 0.201l0.165 0.086c0.124 0.086 0.206 0.201 0.288 0.288 0.124 0.115 0.329 0.201 0.412 0.345 0.247 0.345 0.782 0.518 0.988 0.748 0.082 0.086 0.082 0.201 0.165 0.201 0.124 0.029 0.288-0.173 0.453-0.316l1.936-2.071 0.288-0.23c0.206-0.201 0.329-0.46 0.535-0.662 0.124-0.144 0.329-0.23 0.453-0.374 0.206-0.23 0.371-0.547 0.618-0.777 0.206-0.23 0.535-0.403 0.7-0.633 0.165-0.259 0.453-0.46 0.659-0.69l0.247-0.374c0.288-0.316 0.618-0.604 0.906-0.892l0.082-0.201c0.288-0.288 0.659-0.374 1.235-0.46 0.124-0.029 0.535-0.058 0.782-0.029z"></path>
<path d="M6.071 12.364v-7.75l3.212 7.75h1.745l3.212-7.75v7.75h1.955v-12.218h-2.164l-3.875 9.425-3.875-9.425h-2.164v12.218h1.955zM26.124 12.364v-1.85h-5.812v-3.386h3.683v-1.85h-3.683v-3.281h5.708v-1.85h-7.663v12.218h7.767zM29.926 12.364v-8.413l3.927 8.413h2.164v-12.218h-1.955v8.413l-3.927-8.413h-2.164v12.218h1.955zM42.159 12.468c0.756 0 1.437-0.169 2.042-0.506s1.079-0.815 1.423-1.431c0.343-0.617 0.515-1.315 0.515-2.095v0-8.291h-1.955v8.396c0 0.628-0.183 1.132-0.55 1.51s-0.858 0.567-1.475 0.567c-0.617 0-1.108-0.189-1.475-0.567s-0.55-0.881-0.55-1.51v0-8.396h-1.955v8.291c0 0.78 0.172 1.478 0.515 2.095s0.817 1.094 1.423 1.431c0.605 0.337 1.286 0.506 2.042 0.506z"></path>
</symbol>
<symbol id="icon-greenwich-stacked-logo" viewBox="0 0 32 32">
<title>greenwich-stacked-logo</title>
<path d="M2.798 11.483c0.332-0.272 0.506-0.665 0.506-1.102v-1.488h-0.83v0.174c-0.203-0.151-0.475-0.219-0.77-0.219-0.891 0-1.517 0.679-1.517 1.532 0 0.437 0.182 0.823 0.506 1.102-0.166 0.090-0.28 0.204-0.37 0.324l0.604 0.596c0.144-0.287 0.46-0.498 0.823-0.498 0.558 0 0.921 0.385 0.921 0.951s-0.362 0.959-0.921 0.959c-0.506 0-0.778-0.287-0.891-0.656h-0.861c0.151 0.853 0.823 1.442 1.751 1.442 0.989 0 1.766-0.687 1.766-1.743 0-0.558-0.264-1.057-0.717-1.373zM1.749 11.121c-0.422 0-0.732-0.295-0.732-0.74 0-0.453 0.309-0.748 0.732-0.748 0.416 0 0.725 0.295 0.725 0.748 0 0.445-0.309 0.74-0.725 0.74z"></path>
<path d="M4.73 10.586c0-0.558 0.37-0.936 0.899-0.936h0.075v-0.8c-0.529 0-0.792 0.196-0.974 0.437v-0.393h-0.83v3.775h0.83v-2.084z"></path>
<path d="M7.712 12.714c0.853 0 1.585-0.46 1.842-1.147h-0.989c-0.159 0.242-0.468 0.362-0.853 0.362-0.543 0-0.974-0.385-1.064-0.861h2.937c0.015-0.090 0.023-0.188 0.023-0.287 0-1.072-0.845-1.933-1.917-1.933s-1.917 0.861-1.917 1.933c0 1.072 0.845 1.933 1.94 1.933zM7.689 9.619c0.476 0 0.884 0.317 1.004 0.709h-2.008c0.121-0.393 0.529-0.709 1.004-0.709z"></path>
<path d="M11.811 12.714c0.853 0 1.585-0.46 1.842-1.147h-0.989c-0.159 0.242-0.468 0.362-0.853 0.362-0.543 0-0.974-0.385-1.064-0.861h2.937c0.015-0.090 0.023-0.188 0.023-0.287 0-1.072-0.845-1.933-1.917-1.933s-1.917 0.861-1.917 1.933c0 1.072 0.845 1.933 1.94 1.933zM11.788 9.619c0.476 0 0.884 0.317 1.004 0.709h-2.008c0.121-0.393 0.529-0.709 1.004-0.709z"></path>
<path d="M14.921 10.586c0-0.558 0.287-0.951 0.83-0.951s0.823 0.287 0.823 0.951v2.084h0.83v-2.265c0-1.004-0.514-1.555-1.45-1.555-0.521 0-0.861 0.249-1.034 0.475v-0.43h-0.83v3.775h0.83v-2.084z"></path>
<path d="M20.030 12.67l0.332-0.989 0.332 0.989h0.755l1.488-3.775h-0.846l-0.997 2.71-0.324-0.966 0.657-1.743h-0.815l-0.249 0.786-0.249-0.786h-0.815l0.657 1.743-0.324 0.966-0.997-2.71h-0.846l1.488 3.775z"></path>
<path d="M24.235 7.905c0 0.313-0.25 0.566-0.558 0.566s-0.558-0.253-0.558-0.566c0-0.313 0.25-0.566 0.558-0.566s0.558 0.253 0.558 0.566z"></path>
<path d="M23.261 8.895h0.83v3.775h-0.83v-3.775z"></path>
<path d="M26.394 12.714c1.095 0 1.925-0.83 1.925-1.933h-0.83c0 0.679-0.453 1.147-1.095 1.147-0.65 0-1.087-0.468-1.087-1.147s0.437-1.147 1.087-1.147c0.332 0 0.581 0.136 0.77 0.34l0.611-0.551c-0.347-0.355-0.792-0.573-1.381-0.573-1.11 0-1.933 0.823-1.933 1.933s0.823 1.933 1.933 1.933z"></path>
<path d="M30.554 8.849c-0.491 0-0.853 0.203-1.079 0.475v-2.031l-0.83 0.090v5.284h0.83v-2.084c0-0.551 0.34-0.951 0.876-0.951 0.573 0 0.823 0.362 0.823 0.951v2.084h0.83v-2.265c0-1.004-0.551-1.555-1.45-1.555z"></path>
<path d="M7.274 16.542h-0.83c0 0.679-0.453 1.147-1.095 1.147-0.65 0-1.087-0.468-1.087-1.147s0.438-1.147 1.087-1.147c0.332 0 0.581 0.136 0.77 0.34l0.612-0.551c-0.347-0.355-0.792-0.573-1.381-0.573-1.11 0-1.933 0.823-1.933 1.933s0.823 1.933 1.933 1.933c1.095 0 1.925-0.83 1.925-1.933z"></path>
<path d="M7.493 16.542c0 1.102 0.815 1.933 1.933 1.933s1.933-0.83 1.933-1.933-0.815-1.933-1.933-1.933c-1.118 0-1.933 0.83-1.933 1.933zM10.513 16.542c0 0.657-0.437 1.133-1.087 1.133s-1.087-0.475-1.087-1.133 0.438-1.133 1.087-1.133c0.65 0 1.087 0.475 1.087 1.133z"></path>
<path d="M15.812 14.609c-0.543 0-0.853 0.219-1.139 0.521-0.204-0.332-0.529-0.521-0.989-0.521-0.416 0-0.778 0.196-0.982 0.475v-0.43h-0.83v3.775h0.83v-2.265c0-0.491 0.287-0.77 0.671-0.77 0.438 0 0.672 0.28 0.672 0.77v2.265h0.83v-2.265c0-0.491 0.287-0.77 0.671-0.77 0.445 0 0.671 0.28 0.671 0.77v2.265h0.83v-2.476c0-0.928-0.468-1.344-1.238-1.344z"></path>
<path d="M19.367 18.475c0.853 0 1.585-0.46 1.842-1.147h-0.989c-0.159 0.242-0.468 0.362-0.853 0.362-0.543 0-0.974-0.385-1.064-0.861h2.937c0.015-0.090 0.023-0.188 0.023-0.287 0-1.072-0.845-1.933-1.917-1.933s-1.918 0.861-1.918 1.933c0 1.072 0.845 1.933 1.94 1.933zM19.344 15.38c0.475 0 0.883 0.317 1.004 0.71h-2.008c0.121-0.393 0.529-0.709 1.004-0.709z"></path>
<path d="M21.525 16.542c0 1.177 0.748 1.933 1.872 1.933 0.498 0 0.868-0.204 1.11-0.438v0.393h0.83v-5.375l-0.83 0.090v1.902c-0.234-0.257-0.642-0.437-1.11-0.437-1.125 0-1.872 0.755-1.872 1.933zM24.522 16.542c0 0.65-0.43 1.133-1.087 1.133s-1.095-0.483-1.095-1.133 0.438-1.133 1.095-1.133c0.657 0 1.087 0.483 1.087 1.133z"></path>
<path d="M27.323 16.852l-0.936-2.197h-0.861l1.381 3.11v1.618l-0.725 0.666v4.613h0.83v-4.35l0.725-0.666v-1.879l1.381-3.11h-0.861z"></path>
<path d="M7.75 20.887h-1.208v-0.521c0-0.151 0.090-0.249 0.226-0.249 0.113 0 0.182 0.053 0.219 0.113l0.558-0.551c-0.196-0.242-0.476-0.347-0.815-0.347-0.529 0-1.020 0.287-1.020 0.982v0.574h-0.763v0.786h0.763v2.989h0.83v-2.989h1.208v-0.786z"></path>
<path d="M9.614 20.841c-1.072 0-1.917 0.861-1.917 1.933s0.845 1.933 1.94 1.933c0.853 0 1.585-0.46 1.842-1.147h-0.989c-0.159 0.242-0.468 0.362-0.853 0.362-0.543 0-0.974-0.385-1.064-0.861h2.937c0.015-0.090 0.023-0.188 0.023-0.287 0-1.072-0.845-1.933-1.917-1.933zM8.611 22.321c0.121-0.393 0.529-0.709 1.004-0.709s0.884 0.317 1.004 0.709h-2.008z"></path>
<path d="M13.584 22.358c-0.408-0.151-0.83-0.144-0.83-0.475 0-0.151 0.106-0.303 0.301-0.303 0.151 0 0.272 0.098 0.332 0.249l0.514-0.506c-0.211-0.309-0.506-0.483-0.899-0.483-0.574 0-1.041 0.438-1.041 1.041 0 0.612 0.408 0.905 0.786 1.012 0.37 0.106 0.74 0.136 0.74 0.558 0 0.303-0.196 0.468-0.483 0.468-0.249 0-0.498-0.188-0.498-0.506h-0.792c0 0.717 0.514 1.291 1.291 1.291 0.763 0 1.313-0.514 1.313-1.268 0-0.642-0.347-0.936-0.732-1.079z"></path>
<path d="M15.758 19.286l-0.83 0.090v1.509h-0.763v0.786h0.763v2.989h0.83v-2.989h1.133v-0.786h-1.133z"></path>
<path d="M18.22 19.897c0 0.313-0.25 0.566-0.558 0.566s-0.558-0.253-0.558-0.566c0-0.313 0.25-0.566 0.558-0.566s0.558 0.253 0.558 0.566z"></path>
<path d="M17.246 20.887h0.83v3.775h-0.83v-3.775z"></path>
<path d="M21.058 20.887l-0.905 2.596-0.905-2.596h-0.891l1.39 3.775h0.815l1.388-3.775z"></path>
<path d="M24.681 21.278c-0.159-0.204-0.581-0.438-1.079-0.438-1.079 0-1.895 0.8-1.895 1.933s0.815 1.933 1.895 1.933c0.506 0 0.921-0.234 1.079-0.437v0.393h0.845v-3.775h-0.845v0.393zM23.631 23.905c-0.627 0-1.11-0.514-1.11-1.133s0.483-1.133 1.11-1.133c0.612 0 1.079 0.514 1.079 1.133s-0.468 1.133-1.079 1.133z"></path>
</symbol>
<symbol id="icon-brighton-stacked-logo" viewBox="0 0 42 32">
<title>brighton-stacked-logo</title>
<path d="M3.201 7.582c1.078 0 1.796-0.793 1.796-1.858s-0.718-1.858-1.796-1.858c-1.078 0-1.784 0.793-1.784 1.858s0.706 1.858 1.784 1.858zM0.079 8.82v-8.671l1.363-0.149v3.27c0.384-0.421 1.053-0.718 1.821-0.718 1.846 0 3.072 1.239 3.072 3.171s-1.226 3.172-3.072 3.172c-0.818 0-1.425-0.335-1.821-0.719v0.644h-1.363z"></path>
<path d="M7.048 2.627h1.363v0.644c0.297-0.397 0.731-0.718 1.598-0.718v1.313h-0.124c-0.868 0-1.474 0.62-1.474 1.536v3.419h-1.363v-6.194z"></path>
<path d="M10.434 8.82h1.363v-6.194h-1.363v6.194zM11.115 0.075c0.508 0 0.917 0.409 0.917 0.929s-0.409 0.929-0.917 0.929c-0.507 0-0.916-0.408-0.916-0.929s0.409-0.929 0.916-0.929z"></path>
<path d="M15.125 6.281c0.681 0 1.19-0.484 1.19-1.214 0-0.743-0.508-1.226-1.19-1.226-0.694 0-1.202 0.483-1.202 1.226 0 0.731 0.508 1.214 1.202 1.214zM15.051 2.552c0.483 0 0.929 0.111 1.264 0.359v-0.285h1.362v2.44c0 0.718-0.284 1.363-0.83 1.809 0.743 0.521 1.177 1.338 1.177 2.255 0 1.735-1.275 2.861-2.899 2.861-1.524 0-2.627-0.966-2.874-2.366h1.412c0.185 0.607 0.632 1.078 1.462 1.078 0.917 0 1.512-0.644 1.512-1.573s-0.595-1.561-1.512-1.561c-0.595 0-1.115 0.347-1.35 0.818l-0.991-0.979c0.149-0.198 0.334-0.385 0.607-0.533-0.533-0.458-0.83-1.090-0.83-1.809 0-1.399 1.028-2.515 2.49-2.515z"></path>
<path d="M18.698 0.149l1.363-0.149v3.333c0.371-0.446 0.966-0.78 1.771-0.78 1.475 0 2.379 0.904 2.379 2.552v3.717h-1.363v-3.419c0-0.966-0.409-1.561-1.35-1.561-0.879 0-1.437 0.657-1.437 1.561v3.419h-1.363v-8.671z"></path>
<path d="M25.715 0.149l1.363-0.149v2.627h1.858v1.288h-1.858v4.906h-1.363v-4.906h-1.251v-1.288h1.251z"></path>
<path d="M32.132 7.582c1.065 0 1.784-0.78 1.784-1.858s-0.719-1.858-1.784-1.858c-1.065 0-1.784 0.78-1.784 1.858s0.719 1.858 1.784 1.858zM32.132 2.553c1.833 0 3.172 1.363 3.172 3.171s-1.338 3.172-3.172 3.172c-1.834 0-3.172-1.363-3.172-3.172s1.338-3.171 3.172-3.171z"></path>
<path d="M35.989 2.627h1.363v0.706c0.284-0.372 0.842-0.78 1.697-0.78 1.536 0 2.378 0.904 2.378 2.552v3.717h-1.363v-3.419c0-1.090-0.458-1.56-1.35-1.56s-1.363 0.644-1.363 1.56v3.419h-1.363v-6.194z"></path>
<path d="M3.171 17.413c1.053 0 1.796-0.768 1.796-1.883h1.363c0 1.808-1.363 3.171-3.159 3.171-1.821 0-3.172-1.351-3.172-3.171 0-1.822 1.351-3.172 3.172-3.172 0.966 0 1.697 0.359 2.267 0.941l-1.004 0.904c-0.31-0.334-0.718-0.557-1.263-0.557-1.065 0-1.784 0.768-1.784 1.883s0.719 1.883 1.784 1.883z"></path>
<path d="M9.776 17.388c1.065 0 1.784-0.78 1.784-1.858s-0.719-1.858-1.784-1.858c-1.065 0-1.784 0.78-1.784 1.858s0.719 1.858 1.784 1.858zM9.776 12.359c1.833 0 3.172 1.363 3.172 3.171s-1.338 3.172-3.172 3.172c-1.834 0-3.172-1.363-3.172-3.172s1.338-3.171 3.172-3.171z"></path>
<path d="M13.633 12.433h1.363v0.706c0.334-0.459 0.929-0.78 1.61-0.78 0.756 0 1.288 0.31 1.623 0.855 0.471-0.496 0.979-0.855 1.87-0.855 1.264 0 2.032 0.682 2.032 2.205v4.063h-1.363v-3.717c0-0.805-0.372-1.263-1.103-1.263-0.631 0-1.102 0.458-1.102 1.263v3.717h-1.363v-3.717c0-0.805-0.384-1.263-1.102-1.263-0.632 0-1.102 0.458-1.102 1.263v3.717h-1.363v-6.194z"></path>
<path d="M24.252 14.787h3.295c-0.198-0.645-0.867-1.165-1.647-1.165s-1.449 0.52-1.647 1.165zM24.19 16.001c0.149 0.78 0.855 1.412 1.747 1.412 0.632 0 1.14-0.199 1.4-0.595h1.622c-0.421 1.127-1.622 1.883-3.022 1.883-1.797 0-3.183-1.412-3.183-3.172s1.387-3.171 3.146-3.171 3.146 1.412 3.146 3.171c0 0.161-0.012 0.322-0.037 0.471h-4.819z"></path>
<path d="M32.503 13.672c-1.078 0-1.796 0.793-1.796 1.859 0 1.065 0.718 1.858 1.796 1.858s1.784-0.793 1.784-1.858c0-1.066-0.706-1.859-1.784-1.859zM34.262 18.627v-0.644c-0.396 0.384-1.003 0.718-1.821 0.718-1.846 0-3.072-1.239-3.072-3.171s1.226-3.172 3.072-3.172c0.768 0 1.437 0.297 1.821 0.718v-3.122l1.363-0.149v8.821h-1.363z"></path>
<path d="M37.33 12.433l1.537 3.605 1.536-3.605h1.412l-2.267 5.104v4.187l-1.363 0.149v-4.336l-2.267-5.104z"></path>
<path d="M5.506 25.894c0.681 0 1.19-0.484 1.19-1.214 0-0.743-0.508-1.226-1.19-1.226-0.694 0-1.202 0.483-1.202 1.226 0 0.731 0.508 1.214 1.202 1.214zM5.432 22.165c0.483 0 0.929 0.111 1.264 0.359v-0.285h1.362v2.44c0 0.718-0.284 1.363-0.83 1.809 0.743 0.521 1.177 1.338 1.177 2.255 0 1.735-1.275 2.861-2.899 2.861-1.524 0-2.627-0.966-2.874-2.366h1.412c0.185 0.607 0.632 1.078 1.462 1.078 0.917 0 1.512-0.644 1.512-1.573s-0.595-1.561-1.512-1.561c-0.595 0-1.115 0.347-1.35 0.818l-0.991-0.979c0.149-0.198 0.334-0.385 0.607-0.533-0.533-0.458-0.83-1.090-0.83-1.809 0-1.399 1.028-2.515 2.49-2.515z"></path>
<path d="M11.774 23.478c-1.028 0-1.821 0.842-1.821 1.859 0 1.015 0.793 1.858 1.821 1.858 1.003 0 1.772-0.842 1.772-1.858s-0.769-1.859-1.772-1.859zM14.883 22.24v6.194h-1.387v-0.644c-0.26 0.334-0.941 0.718-1.771 0.718-1.771 0-3.109-1.314-3.109-3.171 0-1.859 1.338-3.172 3.109-3.172 0.818 0 1.511 0.384 1.771 0.718v-0.644h1.387z"></path>
<path d="M15.972 22.239h1.363v0.644c0.297-0.397 0.731-0.718 1.598-0.718v1.313h-0.124c-0.868 0-1.474 0.62-1.474 1.536v3.419h-1.363v-6.194z"></path>
<path d="M22.072 23.478c-1.078 0-1.796 0.793-1.796 1.859 0 1.065 0.718 1.858 1.796 1.858s1.784-0.793 1.784-1.858c0-1.066-0.706-1.859-1.784-1.859zM23.831 28.434v-0.644c-0.396 0.384-1.003 0.718-1.821 0.718-1.846 0-3.072-1.239-3.072-3.171s1.226-3.172 3.072-3.172c0.768 0 1.437 0.297 1.821 0.718v-3.122l1.363-0.149v8.821h-1.363z"></path>
<path d="M27.379 24.593h3.295c-0.198-0.645-0.867-1.165-1.647-1.165s-1.449 0.52-1.647 1.165zM27.317 25.808c0.149 0.78 0.855 1.412 1.747 1.412 0.632 0 1.14-0.199 1.4-0.595h1.622c-0.421 1.127-1.622 1.883-3.022 1.883-1.797 0-3.183-1.412-3.183-3.172s1.387-3.171 3.146-3.171 3.146 1.412 3.146 3.171c0 0.161-0.012 0.322-0.037 0.471h-4.819z"></path>
<path d="M32.864 22.239h1.363v0.706c0.284-0.372 0.842-0.78 1.697-0.78 1.536 0 2.378 0.904 2.378 2.552v3.717h-1.363v-3.419c0-1.090-0.458-1.56-1.35-1.56s-1.363 0.644-1.363 1.56v3.419h-1.363v-6.194z"></path>
</symbol>
<symbol id="icon-bristol-stacked-logo" viewBox="0 0 44 32">
<title>bristol-stacked-logo</title>
<path d="M9.535 7.924c1.13 0 1.883-0.829 1.883-1.942s-0.753-1.942-1.883-1.942c-1.13 0-1.87 0.829-1.87 1.942s0.74 1.942 1.87 1.942zM6.263 9.218v-9.063l1.428-0.156v3.418c0.402-0.44 1.104-0.75 1.909-0.75 1.934 0 3.22 1.295 3.22 3.314s-1.285 3.315-3.22 3.315c-0.857 0-1.493-0.35-1.909-0.751v0.673h-1.428z"></path>
<path d="M13.602 2.72h1.441v0.674c0.314-0.415 0.773-0.751 1.69-0.751v1.373h-0.131c-0.918 0-1.559 0.648-1.559 1.607v3.577h-1.441v-6.479z"></path>
<path d="M17.279 9.199h1.455v-6.446h-1.455v6.446zM18.006 0.098c0.543 0 0.979 0.425 0.979 0.967s-0.436 0.967-0.979 0.967c-0.542 0-0.978-0.425-0.978-0.967s0.436-0.967 0.978-0.967z"></path>
<path d="M20.747 7.074c0 0.546 0.431 0.871 0.861 0.871 0.496 0 0.835-0.286 0.835-0.806 0-0.728-0.64-0.78-1.279-0.962-0.653-0.182-1.357-0.689-1.357-1.741 0-1.040 0.809-1.793 1.801-1.793 0.678 0 1.187 0.299 1.552 0.832l-0.887 0.871c-0.104-0.26-0.314-0.429-0.574-0.429-0.339 0-0.522 0.26-0.522 0.52 0 0.572 0.731 0.559 1.435 0.819 0.665 0.246 1.265 0.753 1.265 1.858 0 1.3-0.952 2.184-2.27 2.184-1.344 0-2.231-0.988-2.231-2.223h1.37z"></path>
<path d="M24.996 0.156l1.432-0.156v2.739h1.952v1.343h-1.952v5.116h-1.432v-5.116h-1.314v-1.343h1.314z"></path>
<path d="M31.804 7.919c1.117 0 1.871-0.819 1.871-1.949s-0.754-1.949-1.871-1.949c-1.118 0-1.872 0.819-1.872 1.949s0.754 1.949 1.872 1.949zM31.804 2.642c1.923 0 3.327 1.43 3.327 3.327s-1.404 3.328-3.327 3.328c-1.924 0-3.327-1.43-3.327-3.328s1.403-3.327 3.327-3.327z"></path>
<path d="M35.914 0.156l1.468-0.156v9.199h-1.468z"></path>
<path d="M3.334 17.633c1.107 0 1.888-0.806 1.888-1.975h1.432c0 1.897-1.432 3.327-3.32 3.327-1.914 0-3.334-1.417-3.334-3.327 0-1.911 1.42-3.328 3.334-3.328 1.016 0 1.784 0.376 2.383 0.988l-1.055 0.949c-0.326-0.351-0.755-0.585-1.328-0.585-1.12 0-1.876 0.806-1.876 1.976s0.756 1.975 1.876 1.975z"></path>
<path d="M10.275 17.607c1.117 0 1.871-0.819 1.871-1.949s-0.754-1.949-1.871-1.949c-1.118 0-1.872 0.819-1.872 1.949s0.754 1.949 1.872 1.949zM10.275 12.33c1.923 0 3.327 1.43 3.327 3.327s-1.404 3.327-3.327 3.327c-1.924 0-3.327-1.43-3.327-3.328s1.403-3.327 3.327-3.327z"></path>
<path d="M14.385 12.506h1.428v0.739c0.35-0.48 0.973-0.816 1.687-0.816 0.792 0 1.35 0.324 1.7 0.895 0.493-0.519 1.026-0.895 1.96-0.895 1.325 0 2.129 0.713 2.129 2.306v4.25h-1.428v-3.888c0-0.842-0.39-1.321-1.156-1.321-0.661 0-1.155 0.479-1.155 1.321v3.888h-1.428v-3.888c0-0.842-0.402-1.321-1.155-1.321-0.662 0-1.155 0.479-1.155 1.321v3.888h-1.428v-6.479z"></path>
<path d="M25.635 14.877h3.433c-0.206-0.676-0.903-1.222-1.717-1.222s-1.51 0.546-1.717 1.222zM25.571 16.152c0.155 0.818 0.891 1.482 1.82 1.482 0.658 0 1.187-0.208 1.459-0.624h1.69c-0.438 1.182-1.69 1.975-3.149 1.975-1.872 0-3.317-1.482-3.317-3.328s1.445-3.327 3.278-3.327 3.278 1.482 3.278 3.327c0 0.169-0.012 0.337-0.038 0.494h-5.021z"></path>
<path d="M34.306 13.728c-1.129 0-1.882 0.829-1.882 1.942s0.753 1.941 1.882 1.941 1.869-0.829 1.869-1.941c0-1.114-0.74-1.942-1.869-1.942zM36.149 18.907v-0.673c-0.415 0.401-1.052 0.751-1.908 0.751-1.934 0-3.22-1.295-3.22-3.314s1.285-3.315 3.22-3.315c0.805 0 1.506 0.311 1.908 0.751v-3.263l1.429-0.156v9.219h-1.429z"></path>
<path d="M39.446 12.428l1.606 3.774 1.606-3.774h1.476l-2.37 5.344v4.384l-1.425 0.156v-4.54l-2.37-5.344z"></path>
<path d="M5.761 26.021c0.716 0 1.25-0.506 1.25-1.272 0-0.778-0.534-1.284-1.25-1.284-0.729 0-1.263 0.506-1.263 1.284 0 0.765 0.534 1.272 1.263 1.272zM5.683 22.116c0.508 0 0.976 0.116 1.329 0.376v-0.298h1.432v2.555c0 0.752-0.299 1.427-0.872 1.894 0.781 0.545 1.237 1.401 1.237 2.361 0 1.816-1.341 2.996-3.047 2.996-1.601 0-2.761-1.012-3.021-2.477h1.484c0.195 0.636 0.664 1.128 1.536 1.128 0.963 0 1.589-0.674 1.589-1.647s-0.625-1.634-1.589-1.634c-0.625 0-1.172 0.363-1.419 0.856l-1.042-1.025c0.156-0.208 0.351-0.403 0.638-0.558-0.56-0.479-0.873-1.141-0.873-1.894 0-1.465 1.081-2.633 2.618-2.633z"></path>
<path d="M12.405 23.494c-1.075 0-1.905 0.884-1.905 1.95s0.829 1.949 1.905 1.949c1.050 0 1.854-0.884 1.854-1.949s-0.804-1.95-1.854-1.95zM15.658 22.194v6.498h-1.451v-0.676c-0.272 0.351-0.984 0.754-1.853 0.754-1.853 0-3.252-1.378-3.252-3.327 0-1.95 1.399-3.328 3.252-3.328 0.855 0 1.581 0.403 1.853 0.754v-0.676h1.451z"></path>
<path d="M16.832 22.194h1.441v0.674c0.314-0.415 0.773-0.751 1.69-0.751v1.373h-0.131c-0.918 0-1.559 0.648-1.559 1.607v3.577h-1.441v-6.479z"></path>
<path d="M23.346 23.514c-1.129 0-1.882 0.829-1.882 1.942s0.753 1.941 1.882 1.941 1.869-0.829 1.869-1.941c0-1.114-0.74-1.942-1.869-1.942zM25.189 28.693v-0.673c-0.415 0.401-1.052 0.751-1.908 0.751-1.934 0-3.22-1.295-3.22-3.314s1.285-3.315 3.22-3.315c0.805 0 1.506 0.311 1.908 0.751v-3.262l1.429-0.156v9.219h-1.429z"></path>
<path d="M28.962 24.663h3.433c-0.206-0.676-0.903-1.222-1.717-1.222s-1.51 0.546-1.717 1.222zM28.898 25.938c0.155 0.818 0.891 1.482 1.82 1.482 0.658 0 1.187-0.208 1.459-0.624h1.69c-0.438 1.182-1.69 1.975-3.149 1.975-1.872 0-3.317-1.482-3.317-3.328s1.445-3.327 3.278-3.327 3.278 1.482 3.278 3.327c0 0.169-0.012 0.337-0.038 0.494h-5.021z"></path>
<path d="M34.74 22.194h1.422v0.739c0.297-0.389 0.879-0.816 1.771-0.816 1.603 0 2.482 0.946 2.482 2.669v3.888h-1.422v-3.577c0-1.14-0.478-1.632-1.409-1.632s-1.422 0.674-1.422 1.632v3.577h-1.422v-6.479z"></path>
</symbol>
<symbol id="icon-twitter" viewBox="0 0 26 28">
<title>twitter</title>
<path d="M25.312 6.375c-0.688 1-1.547 1.891-2.531 2.609 0.016 0.219 0.016 0.438 0.016 0.656 0 6.672-5.078 14.359-14.359 14.359-2.859 0-5.516-0.828-7.75-2.266 0.406 0.047 0.797 0.063 1.219 0.063 2.359 0 4.531-0.797 6.266-2.156-2.219-0.047-4.078-1.5-4.719-3.5 0.313 0.047 0.625 0.078 0.953 0.078 0.453 0 0.906-0.063 1.328-0.172-2.312-0.469-4.047-2.5-4.047-4.953v-0.063c0.672 0.375 1.453 0.609 2.281 0.641-1.359-0.906-2.25-2.453-2.25-4.203 0-0.938 0.25-1.797 0.688-2.547 2.484 3.062 6.219 5.063 10.406 5.281-0.078-0.375-0.125-0.766-0.125-1.156 0-2.781 2.25-5.047 5.047-5.047 1.453 0 2.766 0.609 3.687 1.594 1.141-0.219 2.234-0.641 3.203-1.219-0.375 1.172-1.172 2.156-2.219 2.781 1.016-0.109 2-0.391 2.906-0.781z"></path>
</symbol>
<symbol id="icon-facebook" viewBox="0 0 16 28">
<title>facebook</title>
<path d="M14.984 0.187v4.125h-2.453c-1.922 0-2.281 0.922-2.281 2.25v2.953h4.578l-0.609 4.625h-3.969v11.859h-4.781v-11.859h-3.984v-4.625h3.984v-3.406c0-3.953 2.422-6.109 5.953-6.109 1.687 0 3.141 0.125 3.563 0.187z"></path>
</symbol>
<symbol id="icon-instagram" viewBox="0 0 24 28">
<title>instagram</title>
<path d="M16 14c0-2.203-1.797-4-4-4s-4 1.797-4 4 1.797 4 4 4 4-1.797 4-4zM18.156 14c0 3.406-2.75 6.156-6.156 6.156s-6.156-2.75-6.156-6.156 2.75-6.156 6.156-6.156 6.156 2.75 6.156 6.156zM19.844 7.594c0 0.797-0.641 1.437-1.437 1.437s-1.437-0.641-1.437-1.437 0.641-1.437 1.437-1.437 1.437 0.641 1.437 1.437zM12 4.156c-1.75 0-5.5-0.141-7.078 0.484-0.547 0.219-0.953 0.484-1.375 0.906s-0.688 0.828-0.906 1.375c-0.625 1.578-0.484 5.328-0.484 7.078s-0.141 5.5 0.484 7.078c0.219 0.547 0.484 0.953 0.906 1.375s0.828 0.688 1.375 0.906c1.578 0.625 5.328 0.484 7.078 0.484s5.5 0.141 7.078-0.484c0.547-0.219 0.953-0.484 1.375-0.906s0.688-0.828 0.906-1.375c0.625-1.578 0.484-5.328 0.484-7.078s0.141-5.5-0.484-7.078c-0.219-0.547-0.484-0.953-0.906-1.375s-0.828-0.688-1.375-0.906c-1.578-0.625-5.328-0.484-7.078-0.484zM24 14c0 1.656 0.016 3.297-0.078 4.953-0.094 1.922-0.531 3.625-1.937 5.031s-3.109 1.844-5.031 1.937c-1.656 0.094-3.297 0.078-4.953 0.078s-3.297 0.016-4.953-0.078c-1.922-0.094-3.625-0.531-5.031-1.937s-1.844-3.109-1.937-5.031c-0.094-1.656-0.078-3.297-0.078-4.953s-0.016-3.297 0.078-4.953c0.094-1.922 0.531-3.625 1.937-5.031s3.109-1.844 5.031-1.937c1.656-0.094 3.297-0.078 4.953-0.078s3.297-0.016 4.953 0.078c1.922 0.094 3.625 0.531 5.031 1.937s1.844 3.109 1.937 5.031c0.094 1.656 0.078 3.297 0.078 4.953z"></path>
</symbol>
</defs>
</svg>
