<svg aria-hidden="true" style="position: absolute; width: 0; height: 0; overflow: hidden;" version="1.1" xmlns="http://www.w3.org/2000/svg" xmlns:xlink="http://www.w3.org/1999/xlink">
<defs>
<symbol id="icon-website" viewBox="0 0 24 24">
<title>website</title>
<path d="M9 5.016h9.984v9.984h-1.969v-6.609l-11.625 11.625-1.406-1.406 11.625-11.625h-6.609v-1.969z"></path>
</symbol>
<symbol id="icon-dehaze" viewBox="0 0 24 24">
<title>dehaze</title>
<path d="M2.016 5.484h19.969v2.016h-19.969v-2.016zM2.016 10.5h19.969v2.016h-19.969v-2.016zM2.016 15.516h19.969v1.969h-19.969v-1.969z"></path>
</symbol>
<symbol id="icon-arrow_back" viewBox="0 0 24 24">
<title>arrow_back</title>
<path d="M20.016 11.016v1.969h-12.188l5.578 5.625-1.406 1.406-8.016-8.016 8.016-8.016 1.406 1.406-5.578 5.625h12.188z"></path>
</symbol>
<symbol id="icon-arrow_forward" viewBox="0 0 24 24">
<title>arrow_forward</title>
<path d="M12 3.984l8.016 8.016-8.016 8.016-1.406-1.406 5.578-5.625h-12.188v-1.969h12.188l-5.578-5.625z"></path>
</symbol>
<symbol id="icon-grid_view" viewBox="0 0 24 24">
<title>grid_view</title>
<path d="M18.984 18.984v-3.984h-3.984v3.984h3.984zM12.984 12.984h8.016v8.016h-8.016v-8.016zM18.984 9v-3.984h-3.984v3.984h3.984zM12.984 3h8.016v8.016h-8.016v-8.016zM9 18.984v-3.984h-3.984v3.984h3.984zM3 12.984h8.016v8.016h-8.016v-8.016zM9 9v-3.984h-3.984v3.984h3.984zM3 3h8.016v8.016h-8.016v-8.016z"></path>
</symbol>
<symbol id="icon-twitter" viewBox="0 0 26 28">
<title>twitter</title>
<path d="M25.312 6.375c-0.688 1-1.547 1.891-2.531 2.609 0.016 0.219 0.016 0.438 0.016 0.656 0 6.672-5.078 14.359-14.359 14.359-2.859 0-5.516-0.828-7.75-2.266 0.406 0.047 0.797 0.063 1.219 0.063 2.359 0 4.531-0.797 6.266-2.156-2.219-0.047-4.078-1.5-4.719-3.5 0.313 0.047 0.625 0.078 0.953 0.078 0.453 0 0.906-0.063 1.328-0.172-2.312-0.469-4.047-2.5-4.047-4.953v-0.063c0.672 0.375 1.453 0.609 2.281 0.641-1.359-0.906-2.25-2.453-2.25-4.203 0-0.938 0.25-1.797 0.688-2.547 2.484 3.062 6.219 5.063 10.406 5.281-0.078-0.375-0.125-0.766-0.125-1.156 0-2.781 2.25-5.047 5.047-5.047 1.453 0 2.766 0.609 3.687 1.594 1.141-0.219 2.234-0.641 3.203-1.219-0.375 1.172-1.172 2.156-2.219 2.781 1.016-0.109 2-0.391 2.906-0.781z"></path>
</symbol>
<symbol id="icon-facebook" viewBox="0 0 16 28">
<title>facebook</title>
<path d="M14.984 0.187v4.125h-2.453c-1.922 0-2.281 0.922-2.281 2.25v2.953h4.578l-0.609 4.625h-3.969v11.859h-4.781v-11.859h-3.984v-4.625h3.984v-3.406c0-3.953 2.422-6.109 5.953-6.109 1.687 0 3.141 0.125 3.563 0.187z"></path>
</symbol>
<symbol id="icon-instagram" viewBox="0 0 24 28">
<title>instagram</title>
<path d="M16 14c0-2.203-1.797-4-4-4s-4 1.797-4 4 1.797 4 4 4 4-1.797 4-4zM18.156 14c0 3.406-2.75 6.156-6.156 6.156s-6.156-2.75-6.156-6.156 2.75-6.156 6.156-6.156 6.156 2.75 6.156 6.156zM19.844 7.594c0 0.797-0.641 1.437-1.437 1.437s-1.437-0.641-1.437-1.437 0.641-1.437 1.437-1.437 1.437 0.641 1.437 1.437zM12 4.156c-1.75 0-5.5-0.141-7.078 0.484-0.547 0.219-0.953 0.484-1.375 0.906s-0.688 0.828-0.906 1.375c-0.625 1.578-0.484 5.328-0.484 7.078s-0.141 5.5 0.484 7.078c0.219 0.547 0.484 0.953 0.906 1.375s0.828 0.688 1.375 0.906c1.578 0.625 5.328 0.484 7.078 0.484s5.5 0.141 7.078-0.484c0.547-0.219 0.953-0.484 1.375-0.906s0.688-0.828 0.906-1.375c0.625-1.578 0.484-5.328 0.484-7.078s0.141-5.5-0.484-7.078c-0.219-0.547-0.484-0.953-0.906-1.375s-0.828-0.688-1.375-0.906c-1.578-0.625-5.328-0.484-7.078-0.484zM24 14c0 1.656 0.016 3.297-0.078 4.953-0.094 1.922-0.531 3.625-1.937 5.031s-3.109 1.844-5.031 1.937c-1.656 0.094-3.297 0.078-4.953 0.078s-3.297 0.016-4.953-0.078c-1.922-0.094-3.625-0.531-5.031-1.937s-1.844-3.109-1.937-5.031c-0.094-1.656-0.078-3.297-0.078-4.953s-0.016-3.297 0.078-4.953c0.094-1.922 0.531-3.625 1.937-5.031s3.109-1.844 5.031-1.937c1.656-0.094 3.297-0.078 4.953-0.078s3.297-0.016 4.953 0.078c1.922 0.094 3.625 0.531 5.031 1.937s1.844 3.109 1.937 5.031c0.094 1.656 0.078 3.297 0.078 4.953z"></path>
</symbol>
<symbol id="icon-eye" viewBox="0 0 38 32">
<title>eye</title>
<path fill="#000" style="fill: var(--color1, #000)" d="M34.706 5.763c-2.755 2.849-5.416 5.781-7.986 8.798-1.52 1.784 1.233 4.177 2.76 2.385 2.57-3.017 5.231-5.949 7.987-8.798 1.632-1.685-1.129-4.070-2.761-2.385z"></path>
<path fill="#000" style="fill: var(--color1, #000)" d="M23.111 1.245c-1.375 3.794-2.626 7.626-3.755 11.5-0.668 2.289 2.912 3.357 3.584 1.057 1.128-3.873 2.381-7.705 3.756-11.5 0.813-2.245-2.772-3.302-3.585-1.057z"></path>
<path fill="#000" style="fill: var(--color1, #000)" d="M10.122 2.389c0.967 3.864 2.047 7.688 3.242 11.478 0.708 2.24 4.006 1.109 3.296-1.143-1.196-3.79-2.276-7.616-3.243-11.477-0.572-2.287-3.866-1.143-3.295 1.142z"></path>
<path fill="#000" style="fill: var(--color1, #000)" d="M0.526 11.362c2.739 2.802 5.565 5.514 8.481 8.138 1.723 1.552 4.221-1.046 2.49-2.607-2.915-2.625-5.742-5.336-8.48-8.137-1.621-1.657-4.111 0.95-2.491 2.606z"></path>
<path fill="#fff" style="fill: var(--color2, #fff)" d="M37.477 18.153c0.014-0.195-0.019-0.403-0.123-0.614-3.423-6.86-11.227-11.034-18.847-10.234-7.574 0.794-14.095 6.023-17.193 12.869-0.199 0.266-0.302 0.606-0.227 0.958 0.039 0.255 0.159 0.481 0.329 0.659 1.866 2.835 4.372 5.233 7.257 6.976 0.257 0.182 0.534 0.342 0.827 0.477 0.655 0.36 1.327 0.686 2.013 0.976 0.762 0.383 1.563 0.668 2.374 0.835 2.111 0.606 4.322 0.882 6.561 0.76 7.651-0.414 14.696-5.768 16.993-13.083 0.064-0.207 0.069-0.401 0.035-0.579z"></path>
<path fill="#000" style="fill: var(--color1, #000)" d="M28.478 18.654c0.020-1.207-0.256-2.324-0.826-3.354-0.376-1.077-0.999-2.003-1.87-2.778l-0.72-0.531c-0.233-0.192-0.476-0.372-0.728-0.538l-0.351-0.26c-0.546-0.301-1.107-0.538-1.684-0.715-0.884-0.287-1.832-0.442-2.833-0.42-4.574 0.1-8.87 4.219-8.556 8.939 0.005 0.068 0.017 0.135 0.023 0.204-0.001 1.163 0.271 2.246 0.825 3.246 0.376 1.077 0.999 2.003 1.87 2.776l1.798 1.33c1.383 0.762 2.862 1.127 4.441 1.098 0.772-0.121 1.545-0.241 2.317-0.363 1.473-0.448 2.742-1.226 3.811-2.334 0.017-0.021 0.037-0.039 0.055-0.059 0.761-0.738 1.3-1.599 1.64-2.568 0.088-0.187 0.165-0.379 0.237-0.57 0.43-0.972 0.616-2.008 0.551-3.104z"></path>
</symbol>
<symbol id="icon-tickets" viewBox="0 0 58 32">
<title>tickets</title>
<path d="M57.714 30h-57.714v1.714h57.714v-1.714zM57.714 25.143h-57.714v1.714h57.714v-1.714zM7.111 12v0c-0.185 0-0.254 0.080-0.254 0.263v1.623c0 0.183 0.069 0.263 0.254 0.263h1.905c0.185 0 0.254 0.080 0.254 0.263v5.326c0 0.183 0.069 0.263 0.254 0.263h1.524c0.185 0 0.254-0.080 0.254-0.263v-5.326c0-0.183 0.069-0.263 0.254-0.263h1.905c0.185 0 0.254-0.080 0.254-0.263v-1.623c0-0.183-0.069-0.263-0.254-0.263zM14.553 12v0c-0.195 0-0.267 0.069-0.267 0.251v7.497c0 0.183 0.073 0.251 0.267 0.251h1.751c0.195 0 0.267-0.069 0.267-0.251v-7.497c0-0.183-0.073-0.251-0.267-0.251zM21.058 12c-2.266 0-3.916 1.678-3.916 4s1.649 4 3.916 4c1.492 0 2.827-0.722 3.444-2 0.090-0.189 0.123-0.356-0.101-0.467l-1.279-0.6c-0.191-0.089-0.28-0.067-0.404 0.1-0.404 0.556-0.92 0.856-1.649 0.856-1.077 0-1.874-0.833-1.874-1.889s0.797-1.889 1.874-1.889c0.729 0 1.245 0.3 1.649 0.856 0.123 0.167 0.213 0.189 0.404 0.1l1.279-0.6c0.224-0.111 0.191-0.278 0.101-0.467-0.617-1.278-1.952-2-3.444-2zM25.386 12v0c-0.177 0-0.243 0.080-0.243 0.263v7.474c0 0.183 0.066 0.263 0.243 0.263h1.505c0.177 0 0.243-0.080 0.243-0.263v-1.771c0-0.206 0.022-0.286 0.166-0.446l0.221-0.251c0.111-0.126 0.243-0.126 0.343 0.023l1.682 2.434c0.166 0.229 0.31 0.274 0.509 0.274h1.738c0.21 0 0.255-0.183 0.155-0.331l-2.634-3.829c-0.066-0.091-0.111-0.171-0.111-0.251s0.055-0.16 0.166-0.286l2.557-2.971c0.133-0.16 0.066-0.331-0.133-0.331h-1.948c-0.221 0-0.365 0.080-0.564 0.309l-1.859 2.183c-0.122 0.137-0.288 0.114-0.288-0.080v-2.149c0-0.183-0.066-0.263-0.243-0.263zM32.806 12v0c-0.17 0-0.234 0.080-0.234 0.263v7.474c0 0.183 0.064 0.263 0.234 0.263h4.674c0.17 0 0.234-0.080 0.234-0.263v-1.611c0-0.183-0.064-0.263-0.234-0.263h-2.843c-0.17 0-0.234-0.080-0.234-0.263v-0.411c0-0.183 0.064-0.263 0.234-0.263h2.311c0.17 0 0.234-0.080 0.234-0.263v-1.314c0-0.183-0.064-0.263-0.234-0.263h-2.311c-0.17 0-0.234-0.080-0.234-0.263v-0.423c0-0.183 0.064-0.263 0.234-0.263h2.843c0.17 0 0.234-0.080 0.234-0.263v-1.611c0-0.183-0.064-0.263-0.234-0.263zM44.889 12c0.185 0 0.254 0.080 0.254 0.263v0 1.623c0 0.183-0.069 0.263-0.254 0.263v0h-1.905c-0.185 0-0.254 0.080-0.254 0.263v0 5.326c0 0.183-0.069 0.263-0.254 0.263v0h-1.524c-0.185 0-0.254-0.080-0.254-0.263v0-5.326c0-0.183-0.069-0.263-0.254-0.263v0h-1.905c-0.185 0-0.254-0.080-0.254-0.263v0-1.623c0-0.183 0.069-0.263 0.254-0.263v0zM48.405 12c1.072 0 2.005 0.411 2.734 1.011 0.15 0.122 0.279 0.256 0.107 0.456v0l-0.986 1.1c-0.118 0.122-0.225 0.122-0.375 0-0.45-0.378-1.051-0.567-1.619-0.567-0.686 0-1.051 0.233-1.051 0.533 0 0.267 0.182 0.467 0.901 0.467v0h0.386c1.651 0 2.927 0.667 2.927 2.267 0 1.778-1.372 2.733-3.045 2.733-1.319 0-2.38-0.5-3.13-1.289-0.118-0.122-0.161-0.256-0.032-0.389v0l1.083-1.067c0.139-0.133 0.225-0.133 0.364 0.011 0.397 0.4 1.072 0.733 1.833 0.733 0.665 0 1.008-0.233 1.008-0.544s-0.225-0.456-0.879-0.456v0h-0.311c-1.672 0-3.023-0.567-3.023-2.3 0-1.7 1.34-2.7 3.109-2.7zM57.714 4.857h-57.714v1.714h57.714v-1.714zM57.714 0h-57.714v1.714h57.714v-1.714z"></path>
</symbol>
<symbol id="icon-greenwich-stacked-logo" viewBox="0 0 32 32">
<title>greenwich-stacked-logo</title>
<path d="M2.798 11.483c0.332-0.272 0.506-0.665 0.506-1.102v-1.488h-0.83v0.174c-0.203-0.151-0.475-0.219-0.77-0.219-0.891 0-1.517 0.679-1.517 1.532 0 0.437 0.182 0.823 0.506 1.102-0.166 0.090-0.28 0.204-0.37 0.324l0.604 0.596c0.144-0.287 0.46-0.498 0.823-0.498 0.558 0 0.921 0.385 0.921 0.951s-0.362 0.959-0.921 0.959c-0.506 0-0.778-0.287-0.891-0.656h-0.861c0.151 0.853 0.823 1.442 1.751 1.442 0.989 0 1.766-0.687 1.766-1.743 0-0.558-0.264-1.057-0.717-1.373zM1.749 11.121c-0.422 0-0.732-0.295-0.732-0.74 0-0.453 0.309-0.748 0.732-0.748 0.416 0 0.725 0.295 0.725 0.748 0 0.445-0.309 0.74-0.725 0.74z"></path>
<path d="M4.73 10.586c0-0.558 0.37-0.936 0.899-0.936h0.075v-0.8c-0.529 0-0.792 0.196-0.974 0.437v-0.393h-0.83v3.775h0.83v-2.084z"></path>
<path d="M7.712 12.714c0.853 0 1.585-0.46 1.842-1.147h-0.989c-0.159 0.242-0.468 0.362-0.853 0.362-0.543 0-0.974-0.385-1.064-0.861h2.937c0.015-0.090 0.023-0.188 0.023-0.287 0-1.072-0.845-1.933-1.917-1.933s-1.917 0.861-1.917 1.933c0 1.072 0.845 1.933 1.94 1.933zM7.689 9.619c0.476 0 0.884 0.317 1.004 0.709h-2.008c0.121-0.393 0.529-0.709 1.004-0.709z"></path>
<path d="M11.811 12.714c0.853 0 1.585-0.46 1.842-1.147h-0.989c-0.159 0.242-0.468 0.362-0.853 0.362-0.543 0-0.974-0.385-1.064-0.861h2.937c0.015-0.090 0.023-0.188 0.023-0.287 0-1.072-0.845-1.933-1.917-1.933s-1.917 0.861-1.917 1.933c0 1.072 0.845 1.933 1.94 1.933zM11.788 9.619c0.476 0 0.884 0.317 1.004 0.709h-2.008c0.121-0.393 0.529-0.709 1.004-0.709z"></path>
<path d="M14.921 10.586c0-0.558 0.287-0.951 0.83-0.951s0.823 0.287 0.823 0.951v2.084h0.83v-2.265c0-1.004-0.514-1.555-1.45-1.555-0.521 0-0.861 0.249-1.034 0.475v-0.43h-0.83v3.775h0.83v-2.084z"></path>
<path d="M20.030 12.67l0.332-0.989 0.332 0.989h0.755l1.488-3.775h-0.846l-0.997 2.71-0.324-0.966 0.657-1.743h-0.815l-0.249 0.786-0.249-0.786h-0.815l0.657 1.743-0.324 0.966-0.997-2.71h-0.846l1.488 3.775z"></path>
<path d="M24.235 7.905c0 0.313-0.25 0.566-0.558 0.566s-0.558-0.253-0.558-0.566c0-0.313 0.25-0.566 0.558-0.566s0.558 0.253 0.558 0.566z"></path>
<path d="M23.261 8.895h0.83v3.775h-0.83v-3.775z"></path>
<path d="M26.394 12.714c1.095 0 1.925-0.83 1.925-1.933h-0.83c0 0.679-0.453 1.147-1.095 1.147-0.65 0-1.087-0.468-1.087-1.147s0.437-1.147 1.087-1.147c0.332 0 0.581 0.136 0.77 0.34l0.611-0.551c-0.347-0.355-0.792-0.573-1.381-0.573-1.11 0-1.933 0.823-1.933 1.933s0.823 1.933 1.933 1.933z"></path>
<path d="M30.554 8.849c-0.491 0-0.853 0.203-1.079 0.475v-2.031l-0.83 0.090v5.284h0.83v-2.084c0-0.551 0.34-0.951 0.876-0.951 0.573 0 0.823 0.362 0.823 0.951v2.084h0.83v-2.265c0-1.004-0.551-1.555-1.45-1.555z"></path>
<path d="M7.274 16.542h-0.83c0 0.679-0.453 1.147-1.095 1.147-0.65 0-1.087-0.468-1.087-1.147s0.438-1.147 1.087-1.147c0.332 0 0.581 0.136 0.77 0.34l0.612-0.551c-0.347-0.355-0.792-0.573-1.381-0.573-1.11 0-1.933 0.823-1.933 1.933s0.823 1.933 1.933 1.933c1.095 0 1.925-0.83 1.925-1.933z"></path>
<path d="M7.493 16.542c0 1.102 0.815 1.933 1.933 1.933s1.933-0.83 1.933-1.933-0.815-1.933-1.933-1.933c-1.118 0-1.933 0.83-1.933 1.933zM10.513 16.542c0 0.657-0.437 1.133-1.087 1.133s-1.087-0.475-1.087-1.133 0.438-1.133 1.087-1.133c0.65 0 1.087 0.475 1.087 1.133z"></path>
<path d="M15.812 14.609c-0.543 0-0.853 0.219-1.139 0.521-0.204-0.332-0.529-0.521-0.989-0.521-0.416 0-0.778 0.196-0.982 0.475v-0.43h-0.83v3.775h0.83v-2.265c0-0.491 0.287-0.77 0.671-0.77 0.438 0 0.672 0.28 0.672 0.77v2.265h0.83v-2.265c0-0.491 0.287-0.77 0.671-0.77 0.445 0 0.671 0.28 0.671 0.77v2.265h0.83v-2.476c0-0.928-0.468-1.344-1.238-1.344z"></path>
<path d="M19.367 18.475c0.853 0 1.585-0.46 1.842-1.147h-0.989c-0.159 0.242-0.468 0.362-0.853 0.362-0.543 0-0.974-0.385-1.064-0.861h2.937c0.015-0.090 0.023-0.188 0.023-0.287 0-1.072-0.845-1.933-1.917-1.933s-1.918 0.861-1.918 1.933c0 1.072 0.845 1.933 1.94 1.933zM19.344 15.38c0.475 0 0.883 0.317 1.004 0.71h-2.008c0.121-0.393 0.529-0.709 1.004-0.709z"></path>
<path d="M21.525 16.542c0 1.177 0.748 1.933 1.872 1.933 0.498 0 0.868-0.204 1.11-0.438v0.393h0.83v-5.375l-0.83 0.090v1.902c-0.234-0.257-0.642-0.437-1.11-0.437-1.125 0-1.872 0.755-1.872 1.933zM24.522 16.542c0 0.65-0.43 1.133-1.087 1.133s-1.095-0.483-1.095-1.133 0.438-1.133 1.095-1.133c0.657 0 1.087 0.483 1.087 1.133z"></path>
<path d="M27.323 16.852l-0.936-2.197h-0.861l1.381 3.11v1.618l-0.725 0.666v4.613h0.83v-4.35l0.725-0.666v-1.879l1.381-3.11h-0.861z"></path>
<path d="M7.75 20.887h-1.208v-0.521c0-0.151 0.090-0.249 0.226-0.249 0.113 0 0.182 0.053 0.219 0.113l0.558-0.551c-0.196-0.242-0.476-0.347-0.815-0.347-0.529 0-1.020 0.287-1.020 0.982v0.574h-0.763v0.786h0.763v2.989h0.83v-2.989h1.208v-0.786z"></path>
<path d="M9.614 20.841c-1.072 0-1.917 0.861-1.917 1.933s0.845 1.933 1.94 1.933c0.853 0 1.585-0.46 1.842-1.147h-0.989c-0.159 0.242-0.468 0.362-0.853 0.362-0.543 0-0.974-0.385-1.064-0.861h2.937c0.015-0.090 0.023-0.188 0.023-0.287 0-1.072-0.845-1.933-1.917-1.933zM8.611 22.321c0.121-0.393 0.529-0.709 1.004-0.709s0.884 0.317 1.004 0.709h-2.008z"></path>
<path d="M13.584 22.358c-0.408-0.151-0.83-0.144-0.83-0.475 0-0.151 0.106-0.303 0.301-0.303 0.151 0 0.272 0.098 0.332 0.249l0.514-0.506c-0.211-0.309-0.506-0.483-0.899-0.483-0.574 0-1.041 0.438-1.041 1.041 0 0.612 0.408 0.905 0.786 1.012 0.37 0.106 0.74 0.136 0.74 0.558 0 0.303-0.196 0.468-0.483 0.468-0.249 0-0.498-0.188-0.498-0.506h-0.792c0 0.717 0.514 1.291 1.291 1.291 0.763 0 1.313-0.514 1.313-1.268 0-0.642-0.347-0.936-0.732-1.079z"></path>
<path d="M15.758 19.286l-0.83 0.090v1.509h-0.763v0.786h0.763v2.989h0.83v-2.989h1.133v-0.786h-1.133z"></path>
<path d="M18.22 19.897c0 0.313-0.25 0.566-0.558 0.566s-0.558-0.253-0.558-0.566c0-0.313 0.25-0.566 0.558-0.566s0.558 0.253 0.558 0.566z"></path>
<path d="M17.246 20.887h0.83v3.775h-0.83v-3.775z"></path>
<path d="M21.058 20.887l-0.905 2.596-0.905-2.596h-0.891l1.39 3.775h0.815l1.388-3.775z"></path>
<path d="M24.681 21.278c-0.159-0.204-0.581-0.438-1.079-0.438-1.079 0-1.895 0.8-1.895 1.933s0.815 1.933 1.895 1.933c0.506 0 0.921-0.234 1.079-0.437v0.393h0.845v-3.775h-0.845v0.393zM23.631 23.905c-0.627 0-1.11-0.514-1.11-1.133s0.483-1.133 1.11-1.133c0.612 0 1.079 0.514 1.079 1.133s-0.468 1.133-1.079 1.133z"></path>
</symbol>
<symbol id="icon-brighton-stacked-logo" viewBox="0 0 42 32">
<title>brighton-stacked-logo</title>
<path d="M3.201 7.582c1.078 0 1.796-0.793 1.796-1.858s-0.718-1.858-1.796-1.858c-1.078 0-1.784 0.793-1.784 1.858s0.706 1.858 1.784 1.858zM0.079 8.82v-8.671l1.363-0.149v3.27c0.384-0.421 1.053-0.718 1.821-0.718 1.846 0 3.072 1.239 3.072 3.171s-1.226 3.172-3.072 3.172c-0.818 0-1.425-0.335-1.821-0.719v0.644h-1.363z"></path>
<path d="M7.048 2.627h1.363v0.644c0.297-0.397 0.731-0.718 1.598-0.718v1.313h-0.124c-0.868 0-1.474 0.62-1.474 1.536v3.419h-1.363v-6.194z"></path>
<path d="M10.434 8.82h1.363v-6.194h-1.363v6.194zM11.115 0.075c0.508 0 0.917 0.409 0.917 0.929s-0.409 0.929-0.917 0.929c-0.507 0-0.916-0.408-0.916-0.929s0.409-0.929 0.916-0.929z"></path>
<path d="M15.125 6.281c0.681 0 1.19-0.484 1.19-1.214 0-0.743-0.508-1.226-1.19-1.226-0.694 0-1.202 0.483-1.202 1.226 0 0.731 0.508 1.214 1.202 1.214zM15.051 2.552c0.483 0 0.929 0.111 1.264 0.359v-0.285h1.362v2.44c0 0.718-0.284 1.363-0.83 1.809 0.743 0.521 1.177 1.338 1.177 2.255 0 1.735-1.275 2.861-2.899 2.861-1.524 0-2.627-0.966-2.874-2.366h1.412c0.185 0.607 0.632 1.078 1.462 1.078 0.917 0 1.512-0.644 1.512-1.573s-0.595-1.561-1.512-1.561c-0.595 0-1.115 0.347-1.35 0.818l-0.991-0.979c0.149-0.198 0.334-0.385 0.607-0.533-0.533-0.458-0.83-1.090-0.83-1.809 0-1.399 1.028-2.515 2.49-2.515z"></path>
<path d="M18.698 0.149l1.363-0.149v3.333c0.371-0.446 0.966-0.78 1.771-0.78 1.475 0 2.379 0.904 2.379 2.552v3.717h-1.363v-3.419c0-0.966-0.409-1.561-1.35-1.561-0.879 0-1.437 0.657-1.437 1.561v3.419h-1.363v-8.671z"></path>
<path d="M25.715 0.149l1.363-0.149v2.627h1.858v1.288h-1.858v4.906h-1.363v-4.906h-1.251v-1.288h1.251z"></path>
<path d="M32.132 7.582c1.065 0 1.784-0.78 1.784-1.858s-0.719-1.858-1.784-1.858c-1.065 0-1.784 0.78-1.784 1.858s0.719 1.858 1.784 1.858zM32.132 2.553c1.833 0 3.172 1.363 3.172 3.171s-1.338 3.172-3.172 3.172c-1.834 0-3.172-1.363-3.172-3.172s1.338-3.171 3.172-3.171z"></path>
<path d="M35.989 2.627h1.363v0.706c0.284-0.372 0.842-0.78 1.697-0.78 1.536 0 2.378 0.904 2.378 2.552v3.717h-1.363v-3.419c0-1.090-0.458-1.56-1.35-1.56s-1.363 0.644-1.363 1.56v3.419h-1.363v-6.194z"></path>
<path d="M3.171 17.413c1.053 0 1.796-0.768 1.796-1.883h1.363c0 1.808-1.363 3.171-3.159 3.171-1.821 0-3.172-1.351-3.172-3.171 0-1.822 1.351-3.172 3.172-3.172 0.966 0 1.697 0.359 2.267 0.941l-1.004 0.904c-0.31-0.334-0.718-0.557-1.263-0.557-1.065 0-1.784 0.768-1.784 1.883s0.719 1.883 1.784 1.883z"></path>
<path d="M9.776 17.388c1.065 0 1.784-0.78 1.784-1.858s-0.719-1.858-1.784-1.858c-1.065 0-1.784 0.78-1.784 1.858s0.719 1.858 1.784 1.858zM9.776 12.359c1.833 0 3.172 1.363 3.172 3.171s-1.338 3.172-3.172 3.172c-1.834 0-3.172-1.363-3.172-3.172s1.338-3.171 3.172-3.171z"></path>
<path d="M13.633 12.433h1.363v0.706c0.334-0.459 0.929-0.78 1.61-0.78 0.756 0 1.288 0.31 1.623 0.855 0.471-0.496 0.979-0.855 1.87-0.855 1.264 0 2.032 0.682 2.032 2.205v4.063h-1.363v-3.717c0-0.805-0.372-1.263-1.103-1.263-0.631 0-1.102 0.458-1.102 1.263v3.717h-1.363v-3.717c0-0.805-0.384-1.263-1.102-1.263-0.632 0-1.102 0.458-1.102 1.263v3.717h-1.363v-6.194z"></path>
<path d="M24.252 14.787h3.295c-0.198-0.645-0.867-1.165-1.647-1.165s-1.449 0.52-1.647 1.165zM24.19 16.001c0.149 0.78 0.855 1.412 1.747 1.412 0.632 0 1.14-0.199 1.4-0.595h1.622c-0.421 1.127-1.622 1.883-3.022 1.883-1.797 0-3.183-1.412-3.183-3.172s1.387-3.171 3.146-3.171 3.146 1.412 3.146 3.171c0 0.161-0.012 0.322-0.037 0.471h-4.819z"></path>
<path d="M32.503 13.672c-1.078 0-1.796 0.793-1.796 1.859 0 1.065 0.718 1.858 1.796 1.858s1.784-0.793 1.784-1.858c0-1.066-0.706-1.859-1.784-1.859zM34.262 18.627v-0.644c-0.396 0.384-1.003 0.718-1.821 0.718-1.846 0-3.072-1.239-3.072-3.171s1.226-3.172 3.072-3.172c0.768 0 1.437 0.297 1.821 0.718v-3.122l1.363-0.149v8.821h-1.363z"></path>
<path d="M37.33 12.433l1.537 3.605 1.536-3.605h1.412l-2.267 5.104v4.187l-1.363 0.149v-4.336l-2.267-5.104z"></path>
<path d="M5.506 25.894c0.681 0 1.19-0.484 1.19-1.214 0-0.743-0.508-1.226-1.19-1.226-0.694 0-1.202 0.483-1.202 1.226 0 0.731 0.508 1.214 1.202 1.214zM5.432 22.165c0.483 0 0.929 0.111 1.264 0.359v-0.285h1.362v2.44c0 0.718-0.284 1.363-0.83 1.809 0.743 0.521 1.177 1.338 1.177 2.255 0 1.735-1.275 2.861-2.899 2.861-1.524 0-2.627-0.966-2.874-2.366h1.412c0.185 0.607 0.632 1.078 1.462 1.078 0.917 0 1.512-0.644 1.512-1.573s-0.595-1.561-1.512-1.561c-0.595 0-1.115 0.347-1.35 0.818l-0.991-0.979c0.149-0.198 0.334-0.385 0.607-0.533-0.533-0.458-0.83-1.090-0.83-1.809 0-1.399 1.028-2.515 2.49-2.515z"></path>
<path d="M11.774 23.478c-1.028 0-1.821 0.842-1.821 1.859 0 1.015 0.793 1.858 1.821 1.858 1.003 0 1.772-0.842 1.772-1.858s-0.769-1.859-1.772-1.859zM14.883 22.24v6.194h-1.387v-0.644c-0.26 0.334-0.941 0.718-1.771 0.718-1.771 0-3.109-1.314-3.109-3.171 0-1.859 1.338-3.172 3.109-3.172 0.818 0 1.511 0.384 1.771 0.718v-0.644h1.387z"></path>
<path d="M15.972 22.239h1.363v0.644c0.297-0.397 0.731-0.718 1.598-0.718v1.313h-0.124c-0.868 0-1.474 0.62-1.474 1.536v3.419h-1.363v-6.194z"></path>
<path d="M22.072 23.478c-1.078 0-1.796 0.793-1.796 1.859 0 1.065 0.718 1.858 1.796 1.858s1.784-0.793 1.784-1.858c0-1.066-0.706-1.859-1.784-1.859zM23.831 28.434v-0.644c-0.396 0.384-1.003 0.718-1.821 0.718-1.846 0-3.072-1.239-3.072-3.171s1.226-3.172 3.072-3.172c0.768 0 1.437 0.297 1.821 0.718v-3.122l1.363-0.149v8.821h-1.363z"></path>
<path d="M27.379 24.593h3.295c-0.198-0.645-0.867-1.165-1.647-1.165s-1.449 0.52-1.647 1.165zM27.317 25.808c0.149 0.78 0.855 1.412 1.747 1.412 0.632 0 1.14-0.199 1.4-0.595h1.622c-0.421 1.127-1.622 1.883-3.022 1.883-1.797 0-3.183-1.412-3.183-3.172s1.387-3.171 3.146-3.171 3.146 1.412 3.146 3.171c0 0.161-0.012 0.322-0.037 0.471h-4.819z"></path>
<path d="M32.864 22.239h1.363v0.706c0.284-0.372 0.842-0.78 1.697-0.78 1.536 0 2.378 0.904 2.378 2.552v3.717h-1.363v-3.419c0-1.090-0.458-1.56-1.35-1.56s-1.363 0.644-1.363 1.56v3.419h-1.363v-6.194z"></path>
</symbol>
<symbol id="icon-bristol-stacked-logo" viewBox="0 0 44 32">
<title>bristol-stacked-logo</title>
<path d="M9.535 7.924c1.13 0 1.883-0.829 1.883-1.942s-0.753-1.942-1.883-1.942c-1.13 0-1.87 0.829-1.87 1.942s0.74 1.942 1.87 1.942zM6.263 9.218v-9.063l1.428-0.156v3.418c0.402-0.44 1.104-0.75 1.909-0.75 1.934 0 3.22 1.295 3.22 3.314s-1.285 3.315-3.22 3.315c-0.857 0-1.493-0.35-1.909-0.751v0.673h-1.428z"></path>
<path d="M13.602 2.72h1.441v0.674c0.314-0.415 0.773-0.751 1.69-0.751v1.373h-0.131c-0.918 0-1.559 0.648-1.559 1.607v3.577h-1.441v-6.479z"></path>
<path d="M17.279 9.199h1.455v-6.446h-1.455v6.446zM18.006 0.098c0.543 0 0.979 0.425 0.979 0.967s-0.436 0.967-0.979 0.967c-0.542 0-0.978-0.425-0.978-0.967s0.436-0.967 0.978-0.967z"></path>
<path d="M20.747 7.074c0 0.546 0.431 0.871 0.861 0.871 0.496 0 0.835-0.286 0.835-0.806 0-0.728-0.64-0.78-1.279-0.962-0.653-0.182-1.357-0.689-1.357-1.741 0-1.040 0.809-1.793 1.801-1.793 0.678 0 1.187 0.299 1.552 0.832l-0.887 0.871c-0.104-0.26-0.314-0.429-0.574-0.429-0.339 0-0.522 0.26-0.522 0.52 0 0.572 0.731 0.559 1.435 0.819 0.665 0.246 1.265 0.753 1.265 1.858 0 1.3-0.952 2.184-2.27 2.184-1.344 0-2.231-0.988-2.231-2.223h1.37z"></path>
<path d="M24.996 0.156l1.432-0.156v2.739h1.952v1.343h-1.952v5.116h-1.432v-5.116h-1.314v-1.343h1.314z"></path>
<path d="M31.804 7.919c1.117 0 1.871-0.819 1.871-1.949s-0.754-1.949-1.871-1.949c-1.118 0-1.872 0.819-1.872 1.949s0.754 1.949 1.872 1.949zM31.804 2.642c1.923 0 3.327 1.43 3.327 3.327s-1.404 3.328-3.327 3.328c-1.924 0-3.327-1.43-3.327-3.328s1.403-3.327 3.327-3.327z"></path>
<path d="M35.914 0.156l1.468-0.156v9.199h-1.468z"></path>
<path d="M3.334 17.633c1.107 0 1.888-0.806 1.888-1.975h1.432c0 1.897-1.432 3.327-3.32 3.327-1.914 0-3.334-1.417-3.334-3.327 0-1.911 1.42-3.328 3.334-3.328 1.016 0 1.784 0.376 2.383 0.988l-1.055 0.949c-0.326-0.351-0.755-0.585-1.328-0.585-1.12 0-1.876 0.806-1.876 1.976s0.756 1.975 1.876 1.975z"></path>
<path d="M10.275 17.607c1.117 0 1.871-0.819 1.871-1.949s-0.754-1.949-1.871-1.949c-1.118 0-1.872 0.819-1.872 1.949s0.754 1.949 1.872 1.949zM10.275 12.33c1.923 0 3.327 1.43 3.327 3.327s-1.404 3.327-3.327 3.327c-1.924 0-3.327-1.43-3.327-3.328s1.403-3.327 3.327-3.327z"></path>
<path d="M14.385 12.506h1.428v0.739c0.35-0.48 0.973-0.816 1.687-0.816 0.792 0 1.35 0.324 1.7 0.895 0.493-0.519 1.026-0.895 1.96-0.895 1.325 0 2.129 0.713 2.129 2.306v4.25h-1.428v-3.888c0-0.842-0.39-1.321-1.156-1.321-0.661 0-1.155 0.479-1.155 1.321v3.888h-1.428v-3.888c0-0.842-0.402-1.321-1.155-1.321-0.662 0-1.155 0.479-1.155 1.321v3.888h-1.428v-6.479z"></path>
<path d="M25.635 14.877h3.433c-0.206-0.676-0.903-1.222-1.717-1.222s-1.51 0.546-1.717 1.222zM25.571 16.152c0.155 0.818 0.891 1.482 1.82 1.482 0.658 0 1.187-0.208 1.459-0.624h1.69c-0.438 1.182-1.69 1.975-3.149 1.975-1.872 0-3.317-1.482-3.317-3.328s1.445-3.327 3.278-3.327 3.278 1.482 3.278 3.327c0 0.169-0.012 0.337-0.038 0.494h-5.021z"></path>
<path d="M34.306 13.728c-1.129 0-1.882 0.829-1.882 1.942s0.753 1.941 1.882 1.941 1.869-0.829 1.869-1.941c0-1.114-0.74-1.942-1.869-1.942zM36.149 18.907v-0.673c-0.415 0.401-1.052 0.751-1.908 0.751-1.934 0-3.22-1.295-3.22-3.314s1.285-3.315 3.22-3.315c0.805 0 1.506 0.311 1.908 0.751v-3.263l1.429-0.156v9.219h-1.429z"></path>
<path d="M39.446 12.428l1.606 3.774 1.606-3.774h1.476l-2.37 5.344v4.384l-1.425 0.156v-4.54l-2.37-5.344z"></path>
<path d="M5.761 26.021c0.716 0 1.25-0.506 1.25-1.272 0-0.778-0.534-1.284-1.25-1.284-0.729 0-1.263 0.506-1.263 1.284 0 0.765 0.534 1.272 1.263 1.272zM5.683 22.116c0.508 0 0.976 0.116 1.329 0.376v-0.298h1.432v2.555c0 0.752-0.299 1.427-0.872 1.894 0.781 0.545 1.237 1.401 1.237 2.361 0 1.816-1.341 2.996-3.047 2.996-1.601 0-2.761-1.012-3.021-2.477h1.484c0.195 0.636 0.664 1.128 1.536 1.128 0.963 0 1.589-0.674 1.589-1.647s-0.625-1.634-1.589-1.634c-0.625 0-1.172 0.363-1.419 0.856l-1.042-1.025c0.156-0.208 0.351-0.403 0.638-0.558-0.56-0.479-0.873-1.141-0.873-1.894 0-1.465 1.081-2.633 2.618-2.633z"></path>
<path d="M12.405 23.494c-1.075 0-1.905 0.884-1.905 1.95s0.829 1.949 1.905 1.949c1.050 0 1.854-0.884 1.854-1.949s-0.804-1.95-1.854-1.95zM15.658 22.194v6.498h-1.451v-0.676c-0.272 0.351-0.984 0.754-1.853 0.754-1.853 0-3.252-1.378-3.252-3.327 0-1.95 1.399-3.328 3.252-3.328 0.855 0 1.581 0.403 1.853 0.754v-0.676h1.451z"></path>
<path d="M16.832 22.194h1.441v0.674c0.314-0.415 0.773-0.751 1.69-0.751v1.373h-0.131c-0.918 0-1.559 0.648-1.559 1.607v3.577h-1.441v-6.479z"></path>
<path d="M23.346 23.514c-1.129 0-1.882 0.829-1.882 1.942s0.753 1.941 1.882 1.941 1.869-0.829 1.869-1.941c0-1.114-0.74-1.942-1.869-1.942zM25.189 28.693v-0.673c-0.415 0.401-1.052 0.751-1.908 0.751-1.934 0-3.22-1.295-3.22-3.314s1.285-3.315 3.22-3.315c0.805 0 1.506 0.311 1.908 0.751v-3.262l1.429-0.156v9.219h-1.429z"></path>
<path d="M28.962 24.663h3.433c-0.206-0.676-0.903-1.222-1.717-1.222s-1.51 0.546-1.717 1.222zM28.898 25.938c0.155 0.818 0.891 1.482 1.82 1.482 0.658 0 1.187-0.208 1.459-0.624h1.69c-0.438 1.182-1.69 1.975-3.149 1.975-1.872 0-3.317-1.482-3.317-3.328s1.445-3.327 3.278-3.327 3.278 1.482 3.278 3.327c0 0.169-0.012 0.337-0.038 0.494h-5.021z"></path>
<path d="M34.74 22.194h1.422v0.739c0.297-0.389 0.879-0.816 1.771-0.816 1.603 0 2.482 0.946 2.482 2.669v3.888h-1.422v-3.577c0-1.14-0.478-1.632-1.409-1.632s-1.422 0.674-1.422 1.632v3.577h-1.422v-6.479z"></path>
</symbol>
</defs>
</svg>
