<svg aria-hidden="true" style="position: absolute; width: 0; height: 0; overflow: hidden;" version="1.1" xmlns="http://www.w3.org/2000/svg" xmlns:xlink="http://www.w3.org/1999/xlink">
<defs>
<symbol id="icon-website" viewBox="0 0 24 24">
<path d="M9 5.016h9.984v9.984h-1.969v-6.609l-11.625 11.625-1.406-1.406 11.625-11.625h-6.609v-1.969z"></path>
</symbol>
<symbol id="icon-location_onplaceroom" viewBox="0 0 24 24">
<path d="M12 11.484q1.031 0 1.758-0.727t0.727-1.758-0.727-1.758-1.758-0.727-1.758 0.727-0.727 1.758 0.727 1.758 1.758 0.727zM12 2.016q2.906 0 4.945 2.039t2.039 4.945q0 1.453-0.727 3.328t-1.758 3.516-2.039 3.070-1.711 2.273l-0.75 0.797q-0.281-0.328-0.75-0.867t-1.688-2.156-2.133-3.141-1.664-3.445-0.75-3.375q0-2.906 2.039-4.945t4.945-2.039z"></path>
</symbol>
<symbol id="icon-clearclose" viewBox="0 0 24 24">
<path d="M18.984 6.422l-5.578 5.578 5.578 5.578-1.406 1.406-5.578-5.578-5.578 5.578-1.406-1.406 5.578-5.578-5.578-5.578 1.406-1.406 5.578 5.578 5.578-5.578z"></path>
</symbol>
<symbol id="icon-dehaze" viewBox="0 0 24 24">
<path d="M2.016 5.484h19.969v2.016h-19.969v-2.016zM2.016 10.5h19.969v2.016h-19.969v-2.016zM2.016 15.516h19.969v1.969h-19.969v-1.969z"></path>
</symbol>
<symbol id="icon-arrow_back" viewBox="0 0 24 24">
<path d="M20.016 11.016v1.969h-12.188l5.578 5.625-1.406 1.406-8.016-8.016 8.016-8.016 1.406 1.406-5.578 5.625h12.188z"></path>
</symbol>
<symbol id="icon-arrow_forward" viewBox="0 0 24 24">
<path d="M12 3.984l8.016 8.016-8.016 8.016-1.406-1.406 5.578-5.625h-12.188v-1.969h12.188l-5.578-5.625z"></path>
</symbol>
<symbol id="icon-grid_view" viewBox="0 0 24 24">
<path d="M18.984 18.984v-3.984h-3.984v3.984h3.984zM12.984 12.984h8.016v8.016h-8.016v-8.016zM18.984 9v-3.984h-3.984v3.984h3.984zM12.984 3h8.016v8.016h-8.016v-8.016zM9 18.984v-3.984h-3.984v3.984h3.984zM3 12.984h8.016v8.016h-8.016v-8.016zM9 9v-3.984h-3.984v3.984h3.984zM3 3h8.016v8.016h-8.016v-8.016z"></path>
</symbol>
<symbol id="icon-twitter" viewBox="0 0 26 28">
<path d="M25.312 6.375c-0.688 1-1.547 1.891-2.531 2.609 0.016 0.219 0.016 0.438 0.016 0.656 0 6.672-5.078 14.359-14.359 14.359-2.859 0-5.516-0.828-7.75-2.266 0.406 0.047 0.797 0.063 1.219 0.063 2.359 0 4.531-0.797 6.266-2.156-2.219-0.047-4.078-1.5-4.719-3.5 0.313 0.047 0.625 0.078 0.953 0.078 0.453 0 0.906-0.063 1.328-0.172-2.312-0.469-4.047-2.5-4.047-4.953v-0.063c0.672 0.375 1.453 0.609 2.281 0.641-1.359-0.906-2.25-2.453-2.25-4.203 0-0.938 0.25-1.797 0.688-2.547 2.484 3.062 6.219 5.063 10.406 5.281-0.078-0.375-0.125-0.766-0.125-1.156 0-2.781 2.25-5.047 5.047-5.047 1.453 0 2.766 0.609 3.687 1.594 1.141-0.219 2.234-0.641 3.203-1.219-0.375 1.172-1.172 2.156-2.219 2.781 1.016-0.109 2-0.391 2.906-0.781z"></path>
</symbol>
<symbol id="icon-facebook" viewBox="0 0 16 28">
<path d="M14.984 0.187v4.125h-2.453c-1.922 0-2.281 0.922-2.281 2.25v2.953h4.578l-0.609 4.625h-3.969v11.859h-4.781v-11.859h-3.984v-4.625h3.984v-3.406c0-3.953 2.422-6.109 5.953-6.109 1.687 0 3.141 0.125 3.563 0.187z"></path>
</symbol>
<symbol id="icon-instagram" viewBox="0 0 24 28">
<path d="M16 14c0-2.203-1.797-4-4-4s-4 1.797-4 4 1.797 4 4 4 4-1.797 4-4zM18.156 14c0 3.406-2.75 6.156-6.156 6.156s-6.156-2.75-6.156-6.156 2.75-6.156 6.156-6.156 6.156 2.75 6.156 6.156zM19.844 7.594c0 0.797-0.641 1.437-1.437 1.437s-1.437-0.641-1.437-1.437 0.641-1.437 1.437-1.437 1.437 0.641 1.437 1.437zM12 4.156c-1.75 0-5.5-0.141-7.078 0.484-0.547 0.219-0.953 0.484-1.375 0.906s-0.688 0.828-0.906 1.375c-0.625 1.578-0.484 5.328-0.484 7.078s-0.141 5.5 0.484 7.078c0.219 0.547 0.484 0.953 0.906 1.375s0.828 0.688 1.375 0.906c1.578 0.625 5.328 0.484 7.078 0.484s5.5 0.141 7.078-0.484c0.547-0.219 0.953-0.484 1.375-0.906s0.688-0.828 0.906-1.375c0.625-1.578 0.484-5.328 0.484-7.078s0.141-5.5-0.484-7.078c-0.219-0.547-0.484-0.953-0.906-1.375s-0.828-0.688-1.375-0.906c-1.578-0.625-5.328-0.484-7.078-0.484zM24 14c0 1.656 0.016 3.297-0.078 4.953-0.094 1.922-0.531 3.625-1.937 5.031s-3.109 1.844-5.031 1.937c-1.656 0.094-3.297 0.078-4.953 0.078s-3.297 0.016-4.953-0.078c-1.922-0.094-3.625-0.531-5.031-1.937s-1.844-3.109-1.937-5.031c-0.094-1.656-0.078-3.297-0.078-4.953s-0.016-3.297 0.078-4.953c0.094-1.922 0.531-3.625 1.937-5.031s3.109-1.844 5.031-1.937c1.656-0.094 3.297-0.078 4.953-0.078s3.297-0.016 4.953 0.078c1.922 0.094 3.625 0.531 5.031 1.937s1.844 3.109 1.937 5.031c0.094 1.656 0.078 3.297 0.078 4.953z"></path>
</symbol>
<symbol id="icon-greenwich-stacked-logo" viewBox="0 0 59 32">
<path d="M5.145 7.7c0.61-0.5 0.93-1.222 0.93-2.025v-2.735h-1.525v0.32c-0.373-0.277-0.873-0.402-1.415-0.402-1.637 0-2.788 1.248-2.788 2.815 0 0.803 0.334 1.512 0.93 2.025-0.305 0.165-0.515 0.375-0.68 0.595l1.11 1.095c0.265-0.527 0.846-0.915 1.513-0.915 1.025 0 1.692 0.707 1.692 1.748s-0.665 1.762-1.692 1.762c-0.93 0-1.43-0.527-1.637-1.206h-1.583c0.277 1.568 1.512 2.65 3.218 2.65 1.817 0 3.245-1.262 3.245-3.203 0-1.025-0.485-1.942-1.318-2.523v-0.001zM3.218 7.035c-0.775 0-1.345-0.542-1.345-1.36 0-0.833 0.567-1.375 1.345-1.375 0.764 0 1.332 0.542 1.332 1.375 0 0.817-0.568 1.36-1.332 1.36z"></path>
<path d="M8.696 6.051c0-1.025 0.68-1.72 1.652-1.72h0.138v-1.47c-0.972 0-1.455 0.36-1.79 0.803v-0.722h-1.525v6.937h1.525v-3.828z"></path>
<path d="M14.176 9.962c1.568 0 2.913-0.845 3.385-2.108h-1.817c-0.292 0.445-0.86 0.665-1.568 0.665-0.998 0-1.79-0.707-1.955-1.582h5.397c0.028-0.165 0.042-0.345 0.042-0.527 0-1.97-1.553-3.552-3.523-3.552s-3.523 1.582-3.523 3.552 1.553 3.552 3.565 3.552h-0.003zM14.133 4.274c0.875 0 1.624 0.583 1.845 1.303h-3.69c0.223-0.722 0.973-1.303 1.845-1.303z"></path>
<path d="M21.707 9.962c1.568 0 2.913-0.845 3.385-2.108h-1.817c-0.292 0.445-0.86 0.665-1.568 0.665-0.998 0-1.79-0.707-1.955-1.582h5.397c0.028-0.165 0.042-0.345 0.042-0.527 0-1.97-1.553-3.552-3.523-3.552s-3.522 1.582-3.522 3.552 1.553 3.552 3.565 3.552h-0.004zM21.665 4.274c0.875 0 1.624 0.583 1.845 1.303h-3.69c0.222-0.722 0.972-1.303 1.845-1.303z"></path>
<path d="M27.422 6.051c0-1.025 0.527-1.748 1.525-1.748s1.512 0.527 1.512 1.748v3.83h1.525v-4.162c0-1.845-0.945-2.858-2.665-2.858-0.957 0-1.582 0.458-1.9 0.873v-0.79h-1.525v6.937h1.525v-3.83h0.003z"></path>
<path d="M36.811 9.881l0.61-1.817 0.61 1.817h1.387l2.734-6.937h-1.555l-1.832 4.98-0.595-1.775 1.207-3.203h-1.498l-0.456 1.444-0.458-1.444h-1.498l1.207 3.203-0.595 1.775-1.832-4.98h-1.555l2.734 6.937h1.385z"></path>
<path d="M44.538 1.125c0 0.575-0.459 1.040-1.025 1.040s-1.025-0.465-1.025-1.040c0-0.575 0.459-1.040 1.025-1.040s1.025 0.464 1.025 1.040z"></path>
<path d="M42.748 2.944h1.525v6.937h-1.525v-6.937z"></path>
<path d="M48.505 9.962c2.012 0 3.537-1.525 3.537-3.552h-1.525c0 1.248-0.832 2.108-2.012 2.108-1.194 0-1.998-0.86-1.998-2.108s0.803-2.108 1.998-2.108c0.61 0 1.068 0.25 1.415 0.625l1.123-1.013c-0.638-0.652-1.455-1.053-2.538-1.053-2.040 0-3.552 1.512-3.552 3.552s1.512 3.552 3.552 3.552v-0.003z"></path>
<path d="M56.15 2.859c-0.902 0-1.568 0.373-1.983 0.873v-3.732l-1.525 0.165v9.71h1.525v-3.83c0-1.013 0.625-1.748 1.61-1.748 1.053 0 1.512 0.665 1.512 1.748v3.83h1.525v-4.162c0-1.845-1.013-2.858-2.665-2.858v0.004z"></path>
<path d="M13.371 16.996h-1.525c0 1.248-0.832 2.108-2.012 2.108-1.194 0-1.998-0.86-1.998-2.108s0.805-2.108 1.998-2.108c0.61 0 1.068 0.25 1.415 0.625l1.125-1.013c-0.638-0.652-1.455-1.053-2.538-1.053-2.040 0-3.552 1.512-3.552 3.552s1.512 3.552 3.552 3.552c2.012 0 3.537-1.525 3.537-3.552l-0.002-0.003z"></path>
<path d="M13.773 16.996c0 2.025 1.498 3.552 3.552 3.552s3.552-1.525 3.552-3.552c0-2.027-1.498-3.552-3.552-3.552s-3.552 1.525-3.552 3.552zM19.322 16.996c0 1.207-0.803 2.082-1.998 2.082s-1.998-0.873-1.998-2.082 0.805-2.082 1.998-2.082c1.195-0.001 1.998 0.872 1.998 2.082z"></path>
<path d="M29.060 13.444c-0.998 0-1.568 0.402-2.093 0.957-0.375-0.61-0.972-0.957-1.817-0.957-0.764 0-1.43 0.36-1.805 0.873v-0.79h-1.526v6.937h1.525v-4.162c0-0.902 0.527-1.415 1.233-1.415 0.805 0 1.235 0.515 1.235 1.415v4.162h1.525v-4.162c0-0.902 0.527-1.415 1.233-1.415 0.818 0 1.233 0.515 1.233 1.415v4.162h1.525v-4.55c0-1.705-0.86-2.47-2.275-2.47h0.007z"></path>
<path d="M35.593 20.548c1.568 0 2.913-0.845 3.385-2.108h-1.817c-0.292 0.445-0.86 0.665-1.568 0.665-0.998 0-1.79-0.707-1.955-1.582h5.397c0.028-0.165 0.042-0.345 0.042-0.527 0-1.97-1.553-3.552-3.523-3.552s-3.525 1.582-3.525 3.552 1.553 3.552 3.565 3.552h-0.001zM35.55 14.861c0.873 0 1.623 0.583 1.845 1.305h-3.69c0.222-0.722 0.972-1.303 1.845-1.303v-0.002z"></path>
<path d="M39.558 16.996c0 2.163 1.375 3.552 3.44 3.552 0.915 0 1.595-0.375 2.040-0.805v0.722h1.525v-9.877l-1.525 0.165v3.495c-0.43-0.472-1.18-0.803-2.040-0.803-2.067 0-3.44 1.387-3.44 3.552v-0.001zM45.066 16.996c0 1.194-0.79 2.082-1.998 2.082s-2.012-0.888-2.012-2.082 0.805-2.082 2.012-2.082c1.208-0.001 1.998 0.887 1.998 2.082z"></path>
<path d="M50.212 17.565l-1.72-4.037h-1.582l2.538 5.715v2.973l-1.332 1.224v8.477h1.525v-7.994l1.332-1.224v-3.453l2.538-5.715h-1.583l-1.716 4.034z"></path>
<path d="M14.246 24.98h-2.22v-0.957c0-0.277 0.165-0.458 0.415-0.458 0.208 0 0.334 0.097 0.402 0.208l1.025-1.013c-0.36-0.445-0.875-0.638-1.498-0.638-0.972 0-1.874 0.527-1.874 1.805v1.055h-1.401v1.444h1.402v5.493h1.525v-5.493h2.22v-1.444l0.004-0.002z"></path>
<path d="M17.67 24.896c-1.97 0-3.523 1.582-3.523 3.552s1.553 3.552 3.565 3.552c1.568 0 2.913-0.845 3.385-2.108h-1.817c-0.292 0.445-0.86 0.665-1.568 0.665-0.998 0-1.79-0.707-1.955-1.582h5.397c0.028-0.165 0.042-0.345 0.042-0.527 0-1.97-1.553-3.552-3.523-3.552h-0.003zM15.828 27.615c0.222-0.722 0.972-1.303 1.845-1.303s1.624 0.583 1.845 1.303h-3.69z"></path>
<path d="M24.965 27.683c-0.75-0.277-1.525-0.265-1.525-0.873 0-0.277 0.195-0.557 0.553-0.557 0.277 0 0.5 0.18 0.61 0.458l0.945-0.93c-0.388-0.568-0.93-0.888-1.652-0.888-1.055 0-1.913 0.805-1.913 1.913 0 1.125 0.75 1.663 1.444 1.86 0.68 0.195 1.36 0.25 1.36 1.025 0 0.557-0.36 0.86-0.888 0.86-0.458 0-0.915-0.345-0.915-0.93h-1.455c0 1.318 0.945 2.372 2.372 2.372 1.402 0 2.413-0.945 2.413-2.33 0-1.18-0.638-1.72-1.345-1.983l-0.004 0.003z"></path>
<path d="M28.961 22.038l-1.525 0.165v2.773h-1.402v1.444h1.402v5.493h1.525v-5.493h2.082v-1.444h-2.082v-2.938z"></path>
<path d="M33.485 23.161c0 0.575-0.459 1.040-1.025 1.040s-1.025-0.465-1.025-1.040c0-0.575 0.459-1.040 1.025-1.040 0.565 0 1.025 0.465 1.025 1.040z"></path>
<path d="M31.695 24.98h1.525v6.937h-1.525v-6.937z"></path>
<path d="M38.7 24.98l-1.663 4.771-1.663-4.771h-1.637l2.554 6.937h1.498l2.551-6.937h-1.64z"></path>
<path d="M45.358 25.699c-0.292-0.375-1.068-0.805-1.983-0.805-1.983 0-3.482 1.47-3.482 3.552s1.498 3.552 3.482 3.552c0.93 0 1.692-0.43 1.983-0.803v0.722h1.553v-6.937h-1.553v0.719zM43.428 30.526c-1.152 0-2.040-0.945-2.040-2.082s0.888-2.082 2.040-2.082c1.125 0 1.983 0.945 1.983 2.082s-0.86 2.082-1.983 2.082z"></path>
</symbol>
<symbol id="icon-eye" viewBox="0 0 38 32">
<path fill="#000" style="fill: var(--color1, #000)" d="M34.706 5.763c-2.755 2.849-5.416 5.781-7.986 8.798-1.52 1.784 1.233 4.177 2.76 2.385 2.57-3.017 5.231-5.949 7.987-8.798 1.632-1.685-1.129-4.070-2.761-2.385z"></path>
<path fill="#000" style="fill: var(--color1, #000)" d="M23.111 1.245c-1.375 3.794-2.626 7.626-3.755 11.5-0.668 2.289 2.912 3.357 3.584 1.057 1.128-3.873 2.381-7.705 3.756-11.5 0.813-2.245-2.772-3.302-3.585-1.057z"></path>
<path fill="#000" style="fill: var(--color1, #000)" d="M10.122 2.389c0.967 3.864 2.047 7.688 3.242 11.478 0.708 2.24 4.006 1.109 3.296-1.143-1.196-3.79-2.276-7.616-3.243-11.477-0.572-2.287-3.866-1.143-3.295 1.142z"></path>
<path fill="#000" style="fill: var(--color1, #000)" d="M0.526 11.362c2.739 2.802 5.565 5.514 8.481 8.138 1.723 1.552 4.221-1.046 2.49-2.607-2.915-2.625-5.742-5.336-8.48-8.137-1.621-1.657-4.111 0.95-2.491 2.606z"></path>
<path fill="#fff" style="fill: var(--color2, #fff)" d="M37.477 18.153c0.014-0.195-0.019-0.403-0.123-0.614-3.423-6.86-11.227-11.034-18.847-10.234-7.574 0.794-14.095 6.023-17.193 12.869-0.199 0.266-0.302 0.606-0.227 0.958 0.039 0.255 0.159 0.481 0.329 0.659 1.866 2.835 4.372 5.233 7.257 6.976 0.257 0.182 0.534 0.342 0.827 0.477 0.655 0.36 1.327 0.686 2.013 0.976 0.762 0.383 1.563 0.668 2.374 0.835 2.111 0.606 4.322 0.882 6.561 0.76 7.651-0.414 14.696-5.768 16.993-13.083 0.064-0.207 0.069-0.401 0.035-0.579z"></path>
<path fill="#000" style="fill: var(--color1, #000)" d="M28.478 18.654c0.020-1.207-0.256-2.324-0.826-3.354-0.376-1.077-0.999-2.003-1.87-2.778l-0.72-0.531c-0.233-0.192-0.476-0.372-0.728-0.538l-0.351-0.26c-0.546-0.301-1.107-0.538-1.684-0.715-0.884-0.287-1.832-0.442-2.833-0.42-4.574 0.1-8.87 4.219-8.556 8.939 0.005 0.068 0.017 0.135 0.023 0.204-0.001 1.163 0.271 2.246 0.825 3.246 0.376 1.077 0.999 2.003 1.87 2.776l1.798 1.33c1.383 0.762 2.862 1.127 4.441 1.098 0.772-0.121 1.545-0.241 2.317-0.363 1.473-0.448 2.742-1.226 3.811-2.334 0.017-0.021 0.037-0.039 0.055-0.059 0.761-0.738 1.3-1.599 1.64-2.568 0.088-0.187 0.165-0.379 0.237-0.57 0.43-0.972 0.616-2.008 0.551-3.104z"></path>
</symbol>
<symbol id="icon-tickets" viewBox="0 0 58 32">
<path d="M57.714 30h-57.714v1.714h57.714v-1.714zM57.714 25.143h-57.714v1.714h57.714v-1.714zM7.111 12v0c-0.185 0-0.254 0.080-0.254 0.263v1.623c0 0.183 0.069 0.263 0.254 0.263h1.905c0.185 0 0.254 0.080 0.254 0.263v5.326c0 0.183 0.069 0.263 0.254 0.263h1.524c0.185 0 0.254-0.080 0.254-0.263v-5.326c0-0.183 0.069-0.263 0.254-0.263h1.905c0.185 0 0.254-0.080 0.254-0.263v-1.623c0-0.183-0.069-0.263-0.254-0.263zM14.553 12v0c-0.195 0-0.267 0.069-0.267 0.251v7.497c0 0.183 0.073 0.251 0.267 0.251h1.751c0.195 0 0.267-0.069 0.267-0.251v-7.497c0-0.183-0.073-0.251-0.267-0.251zM21.058 12c-2.266 0-3.916 1.678-3.916 4s1.649 4 3.916 4c1.492 0 2.827-0.722 3.444-2 0.090-0.189 0.123-0.356-0.101-0.467l-1.279-0.6c-0.191-0.089-0.28-0.067-0.404 0.1-0.404 0.556-0.92 0.856-1.649 0.856-1.077 0-1.874-0.833-1.874-1.889s0.797-1.889 1.874-1.889c0.729 0 1.245 0.3 1.649 0.856 0.123 0.167 0.213 0.189 0.404 0.1l1.279-0.6c0.224-0.111 0.191-0.278 0.101-0.467-0.617-1.278-1.952-2-3.444-2zM25.386 12v0c-0.177 0-0.243 0.080-0.243 0.263v7.474c0 0.183 0.066 0.263 0.243 0.263h1.505c0.177 0 0.243-0.080 0.243-0.263v-1.771c0-0.206 0.022-0.286 0.166-0.446l0.221-0.251c0.111-0.126 0.243-0.126 0.343 0.023l1.682 2.434c0.166 0.229 0.31 0.274 0.509 0.274h1.738c0.21 0 0.255-0.183 0.155-0.331l-2.634-3.829c-0.066-0.091-0.111-0.171-0.111-0.251s0.055-0.16 0.166-0.286l2.557-2.971c0.133-0.16 0.066-0.331-0.133-0.331h-1.948c-0.221 0-0.365 0.080-0.564 0.309l-1.859 2.183c-0.122 0.137-0.288 0.114-0.288-0.080v-2.149c0-0.183-0.066-0.263-0.243-0.263zM32.806 12v0c-0.17 0-0.234 0.080-0.234 0.263v7.474c0 0.183 0.064 0.263 0.234 0.263h4.674c0.17 0 0.234-0.080 0.234-0.263v-1.611c0-0.183-0.064-0.263-0.234-0.263h-2.843c-0.17 0-0.234-0.080-0.234-0.263v-0.411c0-0.183 0.064-0.263 0.234-0.263h2.311c0.17 0 0.234-0.080 0.234-0.263v-1.314c0-0.183-0.064-0.263-0.234-0.263h-2.311c-0.17 0-0.234-0.080-0.234-0.263v-0.423c0-0.183 0.064-0.263 0.234-0.263h2.843c0.17 0 0.234-0.080 0.234-0.263v-1.611c0-0.183-0.064-0.263-0.234-0.263zM44.889 12c0.185 0 0.254 0.080 0.254 0.263v0 1.623c0 0.183-0.069 0.263-0.254 0.263v0h-1.905c-0.185 0-0.254 0.080-0.254 0.263v0 5.326c0 0.183-0.069 0.263-0.254 0.263v0h-1.524c-0.185 0-0.254-0.080-0.254-0.263v0-5.326c0-0.183-0.069-0.263-0.254-0.263v0h-1.905c-0.185 0-0.254-0.080-0.254-0.263v0-1.623c0-0.183 0.069-0.263 0.254-0.263v0zM48.405 12c1.072 0 2.005 0.411 2.734 1.011 0.15 0.122 0.279 0.256 0.107 0.456v0l-0.986 1.1c-0.118 0.122-0.225 0.122-0.375 0-0.45-0.378-1.051-0.567-1.619-0.567-0.686 0-1.051 0.233-1.051 0.533 0 0.267 0.182 0.467 0.901 0.467v0h0.386c1.651 0 2.927 0.667 2.927 2.267 0 1.778-1.372 2.733-3.045 2.733-1.319 0-2.38-0.5-3.13-1.289-0.118-0.122-0.161-0.256-0.032-0.389v0l1.083-1.067c0.139-0.133 0.225-0.133 0.364 0.011 0.397 0.4 1.072 0.733 1.833 0.733 0.665 0 1.008-0.233 1.008-0.544s-0.225-0.456-0.879-0.456v0h-0.311c-1.672 0-3.023-0.567-3.023-2.3 0-1.7 1.34-2.7 3.109-2.7zM57.714 4.857h-57.714v1.714h57.714v-1.714zM57.714 0h-57.714v1.714h57.714v-1.714z"></path>
</symbol>
<symbol id="icon-brighton-stacked-logo" viewBox="0 0 42 32">
<path d="M3.201 7.582c1.078 0 1.796-0.793 1.796-1.858s-0.718-1.858-1.796-1.858c-1.078 0-1.784 0.793-1.784 1.858s0.706 1.858 1.784 1.858zM0.079 8.82v-8.671l1.363-0.149v3.27c0.384-0.421 1.053-0.718 1.821-0.718 1.846 0 3.072 1.239 3.072 3.171s-1.226 3.172-3.072 3.172c-0.818 0-1.425-0.335-1.821-0.719v0.644h-1.363z"></path>
<path d="M7.048 2.627h1.363v0.644c0.297-0.397 0.731-0.718 1.598-0.718v1.313h-0.124c-0.868 0-1.474 0.62-1.474 1.536v3.419h-1.363v-6.194z"></path>
<path d="M10.434 8.82h1.363v-6.194h-1.363v6.194zM11.115 0.075c0.508 0 0.917 0.409 0.917 0.929s-0.409 0.929-0.917 0.929c-0.507 0-0.916-0.408-0.916-0.929s0.409-0.929 0.916-0.929z"></path>
<path d="M15.125 6.281c0.681 0 1.19-0.484 1.19-1.214 0-0.743-0.508-1.226-1.19-1.226-0.694 0-1.202 0.483-1.202 1.226 0 0.731 0.508 1.214 1.202 1.214zM15.051 2.552c0.483 0 0.929 0.111 1.264 0.359v-0.285h1.362v2.44c0 0.718-0.284 1.363-0.83 1.809 0.743 0.521 1.177 1.338 1.177 2.255 0 1.735-1.275 2.861-2.899 2.861-1.524 0-2.627-0.966-2.874-2.366h1.412c0.185 0.607 0.632 1.078 1.462 1.078 0.917 0 1.512-0.644 1.512-1.573s-0.595-1.561-1.512-1.561c-0.595 0-1.115 0.347-1.35 0.818l-0.991-0.979c0.149-0.198 0.334-0.385 0.607-0.533-0.533-0.458-0.83-1.090-0.83-1.809 0-1.399 1.028-2.515 2.49-2.515z"></path>
<path d="M18.698 0.149l1.363-0.149v3.333c0.371-0.446 0.966-0.78 1.771-0.78 1.475 0 2.379 0.904 2.379 2.552v3.717h-1.363v-3.419c0-0.966-0.409-1.561-1.35-1.561-0.879 0-1.437 0.657-1.437 1.561v3.419h-1.363v-8.671z"></path>
<path d="M25.715 0.149l1.363-0.149v2.627h1.858v1.288h-1.858v4.906h-1.363v-4.906h-1.251v-1.288h1.251z"></path>
<path d="M32.132 7.582c1.065 0 1.784-0.78 1.784-1.858s-0.719-1.858-1.784-1.858c-1.065 0-1.784 0.78-1.784 1.858s0.719 1.858 1.784 1.858zM32.132 2.553c1.833 0 3.172 1.363 3.172 3.171s-1.338 3.172-3.172 3.172c-1.834 0-3.172-1.363-3.172-3.172s1.338-3.171 3.172-3.171z"></path>
<path d="M35.989 2.627h1.363v0.706c0.284-0.372 0.842-0.78 1.697-0.78 1.536 0 2.378 0.904 2.378 2.552v3.717h-1.363v-3.419c0-1.090-0.458-1.56-1.35-1.56s-1.363 0.644-1.363 1.56v3.419h-1.363v-6.194z"></path>
<path d="M3.171 17.413c1.053 0 1.796-0.768 1.796-1.883h1.363c0 1.808-1.363 3.171-3.159 3.171-1.821 0-3.172-1.351-3.172-3.171 0-1.822 1.351-3.172 3.172-3.172 0.966 0 1.697 0.359 2.267 0.941l-1.004 0.904c-0.31-0.334-0.718-0.557-1.263-0.557-1.065 0-1.784 0.768-1.784 1.883s0.719 1.883 1.784 1.883z"></path>
<path d="M9.776 17.388c1.065 0 1.784-0.78 1.784-1.858s-0.719-1.858-1.784-1.858c-1.065 0-1.784 0.78-1.784 1.858s0.719 1.858 1.784 1.858zM9.776 12.359c1.833 0 3.172 1.363 3.172 3.171s-1.338 3.172-3.172 3.172c-1.834 0-3.172-1.363-3.172-3.172s1.338-3.171 3.172-3.171z"></path>
<path d="M13.633 12.433h1.363v0.706c0.334-0.459 0.929-0.78 1.61-0.78 0.756 0 1.288 0.31 1.623 0.855 0.471-0.496 0.979-0.855 1.87-0.855 1.264 0 2.032 0.682 2.032 2.205v4.063h-1.363v-3.717c0-0.805-0.372-1.263-1.103-1.263-0.631 0-1.102 0.458-1.102 1.263v3.717h-1.363v-3.717c0-0.805-0.384-1.263-1.102-1.263-0.632 0-1.102 0.458-1.102 1.263v3.717h-1.363v-6.194z"></path>
<path d="M24.252 14.787h3.295c-0.198-0.645-0.867-1.165-1.647-1.165s-1.449 0.52-1.647 1.165zM24.19 16.001c0.149 0.78 0.855 1.412 1.747 1.412 0.632 0 1.14-0.199 1.4-0.595h1.622c-0.421 1.127-1.622 1.883-3.022 1.883-1.797 0-3.183-1.412-3.183-3.172s1.387-3.171 3.146-3.171 3.146 1.412 3.146 3.171c0 0.161-0.012 0.322-0.037 0.471h-4.819z"></path>
<path d="M32.503 13.672c-1.078 0-1.796 0.793-1.796 1.859 0 1.065 0.718 1.858 1.796 1.858s1.784-0.793 1.784-1.858c0-1.066-0.706-1.859-1.784-1.859zM34.262 18.627v-0.644c-0.396 0.384-1.003 0.718-1.821 0.718-1.846 0-3.072-1.239-3.072-3.171s1.226-3.172 3.072-3.172c0.768 0 1.437 0.297 1.821 0.718v-3.122l1.363-0.149v8.821h-1.363z"></path>
<path d="M37.33 12.433l1.537 3.605 1.536-3.605h1.412l-2.267 5.104v4.187l-1.363 0.149v-4.336l-2.267-5.104z"></path>
<path d="M5.506 25.894c0.681 0 1.19-0.484 1.19-1.214 0-0.743-0.508-1.226-1.19-1.226-0.694 0-1.202 0.483-1.202 1.226 0 0.731 0.508 1.214 1.202 1.214zM5.432 22.165c0.483 0 0.929 0.111 1.264 0.359v-0.285h1.362v2.44c0 0.718-0.284 1.363-0.83 1.809 0.743 0.521 1.177 1.338 1.177 2.255 0 1.735-1.275 2.861-2.899 2.861-1.524 0-2.627-0.966-2.874-2.366h1.412c0.185 0.607 0.632 1.078 1.462 1.078 0.917 0 1.512-0.644 1.512-1.573s-0.595-1.561-1.512-1.561c-0.595 0-1.115 0.347-1.35 0.818l-0.991-0.979c0.149-0.198 0.334-0.385 0.607-0.533-0.533-0.458-0.83-1.090-0.83-1.809 0-1.399 1.028-2.515 2.49-2.515z"></path>
<path d="M11.774 23.478c-1.028 0-1.821 0.842-1.821 1.859 0 1.015 0.793 1.858 1.821 1.858 1.003 0 1.772-0.842 1.772-1.858s-0.769-1.859-1.772-1.859zM14.883 22.24v6.194h-1.387v-0.644c-0.26 0.334-0.941 0.718-1.771 0.718-1.771 0-3.109-1.314-3.109-3.171 0-1.859 1.338-3.172 3.109-3.172 0.818 0 1.511 0.384 1.771 0.718v-0.644h1.387z"></path>
<path d="M15.972 22.239h1.363v0.644c0.297-0.397 0.731-0.718 1.598-0.718v1.313h-0.124c-0.868 0-1.474 0.62-1.474 1.536v3.419h-1.363v-6.194z"></path>
<path d="M22.072 23.478c-1.078 0-1.796 0.793-1.796 1.859 0 1.065 0.718 1.858 1.796 1.858s1.784-0.793 1.784-1.858c0-1.066-0.706-1.859-1.784-1.859zM23.831 28.434v-0.644c-0.396 0.384-1.003 0.718-1.821 0.718-1.846 0-3.072-1.239-3.072-3.171s1.226-3.172 3.072-3.172c0.768 0 1.437 0.297 1.821 0.718v-3.122l1.363-0.149v8.821h-1.363z"></path>
<path d="M27.379 24.593h3.295c-0.198-0.645-0.867-1.165-1.647-1.165s-1.449 0.52-1.647 1.165zM27.317 25.808c0.149 0.78 0.855 1.412 1.747 1.412 0.632 0 1.14-0.199 1.4-0.595h1.622c-0.421 1.127-1.622 1.883-3.022 1.883-1.797 0-3.183-1.412-3.183-3.172s1.387-3.171 3.146-3.171 3.146 1.412 3.146 3.171c0 0.161-0.012 0.322-0.037 0.471h-4.819z"></path>
<path d="M32.864 22.239h1.363v0.706c0.284-0.372 0.842-0.78 1.697-0.78 1.536 0 2.378 0.904 2.378 2.552v3.717h-1.363v-3.419c0-1.090-0.458-1.56-1.35-1.56s-1.363 0.644-1.363 1.56v3.419h-1.363v-6.194z"></path>
</symbol>
<symbol id="icon-bristol-stacked-logo" viewBox="0 0 44 32">
<path d="M9.535 7.924c1.13 0 1.883-0.829 1.883-1.942s-0.753-1.942-1.883-1.942c-1.13 0-1.87 0.829-1.87 1.942s0.74 1.942 1.87 1.942zM6.263 9.218v-9.063l1.428-0.156v3.418c0.402-0.44 1.104-0.75 1.909-0.75 1.934 0 3.22 1.295 3.22 3.314s-1.285 3.315-3.22 3.315c-0.857 0-1.493-0.35-1.909-0.751v0.673h-1.428z"></path>
<path d="M13.602 2.72h1.441v0.674c0.314-0.415 0.773-0.751 1.69-0.751v1.373h-0.131c-0.918 0-1.559 0.648-1.559 1.607v3.577h-1.441v-6.479z"></path>
<path d="M17.279 9.199h1.455v-6.446h-1.455v6.446zM18.006 0.098c0.543 0 0.979 0.425 0.979 0.967s-0.436 0.967-0.979 0.967c-0.542 0-0.978-0.425-0.978-0.967s0.436-0.967 0.978-0.967z"></path>
<path d="M20.747 7.074c0 0.546 0.431 0.871 0.861 0.871 0.496 0 0.835-0.286 0.835-0.806 0-0.728-0.64-0.78-1.279-0.962-0.653-0.182-1.357-0.689-1.357-1.741 0-1.040 0.809-1.793 1.801-1.793 0.678 0 1.187 0.299 1.552 0.832l-0.887 0.871c-0.104-0.26-0.314-0.429-0.574-0.429-0.339 0-0.522 0.26-0.522 0.52 0 0.572 0.731 0.559 1.435 0.819 0.665 0.246 1.265 0.753 1.265 1.858 0 1.3-0.952 2.184-2.27 2.184-1.344 0-2.231-0.988-2.231-2.223h1.37z"></path>
<path d="M24.996 0.156l1.432-0.156v2.739h1.952v1.343h-1.952v5.116h-1.432v-5.116h-1.314v-1.343h1.314z"></path>
<path d="M31.804 7.919c1.117 0 1.871-0.819 1.871-1.949s-0.754-1.949-1.871-1.949c-1.118 0-1.872 0.819-1.872 1.949s0.754 1.949 1.872 1.949zM31.804 2.642c1.923 0 3.327 1.43 3.327 3.327s-1.404 3.328-3.327 3.328c-1.924 0-3.327-1.43-3.327-3.328s1.403-3.327 3.327-3.327z"></path>
<path d="M35.914 0.156l1.468-0.156v9.199h-1.468z"></path>
<path d="M3.334 17.633c1.107 0 1.888-0.806 1.888-1.975h1.432c0 1.897-1.432 3.327-3.32 3.327-1.914 0-3.334-1.417-3.334-3.327 0-1.911 1.42-3.328 3.334-3.328 1.016 0 1.784 0.376 2.383 0.988l-1.055 0.949c-0.326-0.351-0.755-0.585-1.328-0.585-1.12 0-1.876 0.806-1.876 1.976s0.756 1.975 1.876 1.975z"></path>
<path d="M10.275 17.607c1.117 0 1.871-0.819 1.871-1.949s-0.754-1.949-1.871-1.949c-1.118 0-1.872 0.819-1.872 1.949s0.754 1.949 1.872 1.949zM10.275 12.33c1.923 0 3.327 1.43 3.327 3.327s-1.404 3.327-3.327 3.327c-1.924 0-3.327-1.43-3.327-3.328s1.403-3.327 3.327-3.327z"></path>
<path d="M14.385 12.506h1.428v0.739c0.35-0.48 0.973-0.816 1.687-0.816 0.792 0 1.35 0.324 1.7 0.895 0.493-0.519 1.026-0.895 1.96-0.895 1.325 0 2.129 0.713 2.129 2.306v4.25h-1.428v-3.888c0-0.842-0.39-1.321-1.156-1.321-0.661 0-1.155 0.479-1.155 1.321v3.888h-1.428v-3.888c0-0.842-0.402-1.321-1.155-1.321-0.662 0-1.155 0.479-1.155 1.321v3.888h-1.428v-6.479z"></path>
<path d="M25.635 14.877h3.433c-0.206-0.676-0.903-1.222-1.717-1.222s-1.51 0.546-1.717 1.222zM25.571 16.152c0.155 0.818 0.891 1.482 1.82 1.482 0.658 0 1.187-0.208 1.459-0.624h1.69c-0.438 1.182-1.69 1.975-3.149 1.975-1.872 0-3.317-1.482-3.317-3.328s1.445-3.327 3.278-3.327 3.278 1.482 3.278 3.327c0 0.169-0.012 0.337-0.038 0.494h-5.021z"></path>
<path d="M34.306 13.728c-1.129 0-1.882 0.829-1.882 1.942s0.753 1.941 1.882 1.941 1.869-0.829 1.869-1.941c0-1.114-0.74-1.942-1.869-1.942zM36.149 18.907v-0.673c-0.415 0.401-1.052 0.751-1.908 0.751-1.934 0-3.22-1.295-3.22-3.314s1.285-3.315 3.22-3.315c0.805 0 1.506 0.311 1.908 0.751v-3.263l1.429-0.156v9.219h-1.429z"></path>
<path d="M39.446 12.428l1.606 3.774 1.606-3.774h1.476l-2.37 5.344v4.384l-1.425 0.156v-4.54l-2.37-5.344z"></path>
<path d="M5.761 26.021c0.716 0 1.25-0.506 1.25-1.272 0-0.778-0.534-1.284-1.25-1.284-0.729 0-1.263 0.506-1.263 1.284 0 0.765 0.534 1.272 1.263 1.272zM5.683 22.116c0.508 0 0.976 0.116 1.329 0.376v-0.298h1.432v2.555c0 0.752-0.299 1.427-0.872 1.894 0.781 0.545 1.237 1.401 1.237 2.361 0 1.816-1.341 2.996-3.047 2.996-1.601 0-2.761-1.012-3.021-2.477h1.484c0.195 0.636 0.664 1.128 1.536 1.128 0.963 0 1.589-0.674 1.589-1.647s-0.625-1.634-1.589-1.634c-0.625 0-1.172 0.363-1.419 0.856l-1.042-1.025c0.156-0.208 0.351-0.403 0.638-0.558-0.56-0.479-0.873-1.141-0.873-1.894 0-1.465 1.081-2.633 2.618-2.633z"></path>
<path d="M12.405 23.494c-1.075 0-1.905 0.884-1.905 1.95s0.829 1.949 1.905 1.949c1.050 0 1.854-0.884 1.854-1.949s-0.804-1.95-1.854-1.95zM15.658 22.194v6.498h-1.451v-0.676c-0.272 0.351-0.984 0.754-1.853 0.754-1.853 0-3.252-1.378-3.252-3.327 0-1.95 1.399-3.328 3.252-3.328 0.855 0 1.581 0.403 1.853 0.754v-0.676h1.451z"></path>
<path d="M16.832 22.194h1.441v0.674c0.314-0.415 0.773-0.751 1.69-0.751v1.373h-0.131c-0.918 0-1.559 0.648-1.559 1.607v3.577h-1.441v-6.479z"></path>
<path d="M23.346 23.514c-1.129 0-1.882 0.829-1.882 1.942s0.753 1.941 1.882 1.941 1.869-0.829 1.869-1.941c0-1.114-0.74-1.942-1.869-1.942zM25.189 28.693v-0.673c-0.415 0.401-1.052 0.751-1.908 0.751-1.934 0-3.22-1.295-3.22-3.314s1.285-3.315 3.22-3.315c0.805 0 1.506 0.311 1.908 0.751v-3.262l1.429-0.156v9.219h-1.429z"></path>
<path d="M28.962 24.663h3.433c-0.206-0.676-0.903-1.222-1.717-1.222s-1.51 0.546-1.717 1.222zM28.898 25.938c0.155 0.818 0.891 1.482 1.82 1.482 0.658 0 1.187-0.208 1.459-0.624h1.69c-0.438 1.182-1.69 1.975-3.149 1.975-1.872 0-3.317-1.482-3.317-3.328s1.445-3.327 3.278-3.327 3.278 1.482 3.278 3.327c0 0.169-0.012 0.337-0.038 0.494h-5.021z"></path>
<path d="M34.74 22.194h1.422v0.739c0.297-0.389 0.879-0.816 1.771-0.816 1.603 0 2.482 0.946 2.482 2.669v3.888h-1.422v-3.577c0-1.14-0.478-1.632-1.409-1.632s-1.422 0.674-1.422 1.632v3.577h-1.422v-6.479z"></path>
</symbol>
</defs>
</svg>
