<svg aria-hidden="true" style="position: absolute; width: 0; height: 0; overflow: hidden;" version="1.1" xmlns="http://www.w3.org/2000/svg" xmlns:xlink="http://www.w3.org/1999/xlink">
<defs>
<symbol id="icon-street-food" viewBox="0 0 32 32">
<path d="M16 28.5c1.82 0 3.461-1.096 4.157-2.777 0.696-1.683 0.311-3.618-0.975-4.905-1.288-1.286-3.222-1.671-4.905-0.975-1.681 0.696-2.777 2.337-2.777 4.157 0.002 2.484 2.016 4.498 4.5 4.5zM16 20.5c1.415 0 2.691 0.852 3.234 2.16 0.541 1.309 0.242 2.814-0.759 3.815s-2.506 1.3-3.815 0.759c-1.308-0.543-2.16-1.819-2.16-3.234 0.002-1.933 1.567-3.498 3.5-3.5z"></path>
<path d="M14 24.5c0.133 0 0.26-0.052 0.354-0.146s0.146-0.221 0.146-0.354c0-0.829 0.671-1.5 1.5-1.5s1.5 0.671 1.5 1.5c0 0.276 0.224 0.5 0.5 0.5s0.5-0.224 0.5-0.5c0-1.381-1.119-2.5-2.5-2.5s-2.5 1.119-2.5 2.5c0 0.133 0.053 0.26 0.146 0.354s0.221 0.146 0.354 0.146z"></path>
<path d="M14.145 25.145c-0.117 0.119-0.168 0.288-0.135 0.45 0.033 0.164 0.145 0.3 0.299 0.364s0.329 0.047 0.467-0.045c0.139-0.093 0.223-0.247 0.224-0.414-0.001-0.131-0.053-0.256-0.145-0.35-0.199-0.189-0.509-0.191-0.71-0.005z"></path>
<path d="M31.5 8c0.133 0 0.26-0.053 0.354-0.146s0.146-0.221 0.146-0.354v-2.5c-0.001-1.656-1.344-2.999-3-3h-26c-1.656 0.001-2.999 1.344-3 3v2.5c0 0.133 0.052 0.26 0.146 0.354s0.221 0.146 0.354 0.146h1.5v8h-1.5c-0.276 0-0.5 0.224-0.5 0.5v13c0 0.133 0.052 0.26 0.146 0.354s0.221 0.146 0.354 0.146h31c0.133 0 0.26-0.052 0.354-0.146s0.146-0.221 0.146-0.354v-13c0-0.133-0.052-0.26-0.146-0.354s-0.221-0.146-0.354-0.146h-1.5v-8zM1 6h8.5c0.276 0 0.5-0.224 0.5-0.5s-0.224-0.5-0.5-0.5h-8.5c0-1.105 0.895-2 2-2h26c0.53 0 1.039 0.211 1.414 0.586s0.586 0.884 0.586 1.414v2h-30zM26 16v-1.5c0-0.133-0.052-0.26-0.146-0.354s-0.221-0.146-0.354-0.146h-6c-0.276 0-0.5 0.224-0.5 0.5v1.5h-4v-1.5c-0.001-0.424-0.184-0.828-0.5-1.11v-1.39c0-0.133-0.053-0.26-0.146-0.354s-0.221-0.146-0.354-0.146h-0.5v-0.5c0-0.276-0.224-0.5-0.5-0.5s-0.5 0.224-0.5 0.5v0.5h-0.5c-0.276 0-0.5 0.224-0.5 0.5v1.39c-0.316 0.283-0.499 0.686-0.5 1.11v1.5h-1v-1.5c-0.001-0.424-0.184-0.828-0.5-1.11v-1.39c0-0.133-0.053-0.26-0.146-0.354s-0.221-0.146-0.354-0.146h-0.5v-0.5c0-0.276-0.224-0.5-0.5-0.5s-0.5 0.224-0.5 0.5v0.5h-0.5c-0.276 0-0.5 0.224-0.5 0.5v1.39c-0.316 0.283-0.499 0.686-0.5 1.11v1.5h-1v-8h22v8zM25 16h-5v-1h5zM13.5 12.5v0.5h-1v-0.5zM12 14.5c0-0.276 0.224-0.5 0.5-0.5h1c0.133 0 0.26 0.053 0.354 0.146s0.146 0.221 0.146 0.354v1.5h-2zM8.5 12.5v0.5h-1v-0.5zM7 14.5c0-0.276 0.224-0.5 0.5-0.5h1c0.133 0 0.26 0.053 0.354 0.146s0.146 0.221 0.146 0.354v1.5h-2zM3 8h1v8h-1zM31 29h-30v-8h6c0.276 0 0.5-0.224 0.5-0.5s-0.224-0.5-0.5-0.5h-6v-1h30zM31 18h-30v-1h30zM29 16h-1v-8h1z"></path>
<path d="M15 6h9c0.276 0 0.5-0.224 0.5-0.5s-0.224-0.5-0.5-0.5h-9c-0.276 0-0.5 0.224-0.5 0.5s0.224 0.5 0.5 0.5z"></path>
<path d="M12 6c0.204 0.001 0.386-0.121 0.465-0.309 0.078-0.188 0.034-0.404-0.11-0.546-0.196-0.196-0.514-0.196-0.71 0s-0.196 0.514 0 0.71c0.096 0.091 0.223 0.143 0.355 0.145z"></path>
<path d="M29.5 6c0.204 0.001 0.386-0.121 0.465-0.309 0.078-0.188 0.034-0.404-0.11-0.546-0.196-0.196-0.514-0.196-0.71 0s-0.196 0.514 0 0.71c0.095 0.093 0.223 0.144 0.355 0.145z"></path>
<path d="M9.5 21c0.204 0.001 0.386-0.121 0.465-0.309 0.078-0.188 0.034-0.404-0.11-0.546-0.2-0.185-0.51-0.185-0.71 0-0.194 0.198-0.194 0.512 0 0.71 0.096 0.091 0.223 0.142 0.355 0.145z"></path>
<path d="M24.5 28h2.5c0.276 0 0.5-0.224 0.5-0.5s-0.224-0.5-0.5-0.5h-2.5c-0.276 0-0.5 0.224-0.5 0.5s0.224 0.5 0.5 0.5z"></path>
<path d="M29.5 28c0.236-0.003 0.438-0.17 0.481-0.402 0.044-0.231-0.081-0.461-0.299-0.551-0.219-0.089-0.469-0.011-0.6 0.185-0.13 0.196-0.104 0.457 0.063 0.624 0.096 0.091 0.223 0.142 0.355 0.145z"></path>
</symbol>
<symbol id="icon-outdoor-stage" viewBox="0 0 32 32">
<path d="M26.57 10.492h1.478v-2.488h1.49s-0.574-0.075-1.49-0.209v-0.016h-0.12c-3.229-0.471-10.332-1.598-11.928-2.615-1.593 1.017-8.699 2.144-11.928 2.615h-0.118v0.016c-0.916 0.134-1.49 0.209-1.49 0.209h1.49v2.488h1.476v11.936h-5.43v2.881h32v-2.881h-5.43zM26.57 10.271h-1.311l1.186-0.991 1.186 0.991zM24.205 19.222l1.007-1.207 1.007 1.207zM26.222 19.443l-1.010 1.21-1.007-1.21zM24.080 19.026v-2.372l0.991 1.186zM24.205 16.461h2.017l-1.010 1.207zM24.080 16.042v-2.373l0.991 1.186zM24.205 16.237l1.007-1.207 1.007 1.207zM24.205 13.476h2.017l-1.010 1.207zM24.080 13.057v-2.373l0.991 1.186zM24.205 13.253l1.007-1.207 1.007 1.207zM24.205 10.492h2.017l-1.007 1.207zM27.825 10.144l-1.207-1.007 1.207-1.010zM27.625 8.006l-1.182 0.986-1.182-0.986zM25.064 8.127l1.207 1.010-1.207 1.007zM24.843 10.144l-1.207-1.007 1.207-1.010zM24.64 8.006l-1.182 0.986-1.182-0.986zM22.079 8.127l1.207 1.010-1.207 1.007zM20.651 9.136l1.207-1.010v2.017zM21.66 10.271h-2.372l1.186-0.991zM21.658 8.006l-1.182 0.986-1.182-0.986zM19.095 8.127l1.207 1.010-1.207 1.007zM17.666 9.136l1.207-1.010v2.017zM18.679 10.271h-2.372l1.186-0.991zM18.674 8.007l-1.182 0.986-1.182-0.986zM16.111 8.127l1.207 1.010-1.207 1.007zM14.682 9.136l1.207-1.010v2.017zM15.694 10.271h-2.373l1.186-0.991zM15.689 8.007l-1.182 0.986-1.182-0.986zM13.126 8.127l1.207 1.010-1.207 1.007zM11.698 9.136l1.207-1.010v2.017zM12.71 10.271h-2.373l1.186-0.991zM12.705 8.007l-1.182 0.986-1.182-0.986zM10.142 8.127l1.207 1.010-1.207 1.007zM5.778 19.222l1.007-1.207 1.007 1.207zM7.795 19.443l-1.007 1.21-1.007-1.21zM5.651 19.026v-2.372l0.991 1.186zM5.778 16.461h2.017l-1.007 1.207zM5.651 16.042v-2.373l0.991 1.186zM5.778 16.237l1.007-1.207 1.007 1.207zM5.778 13.476h2.017l-1.007 1.207zM5.651 13.057v-2.373l0.991 1.186zM5.778 13.253l1.007-1.207 1.007 1.207zM5.778 10.492h2.017l-1.007 1.207zM7.355 10.271l1.186-0.991 1.186 0.991zM8.713 9.136l1.207-1.010v2.017zM9.721 8.007l-1.182 0.986-1.182-0.986zM7.16 8.127l1.207 1.010-1.207 1.007zM6.939 10.144l-1.207-1.007 1.207-1.010zM6.739 8.007l-1.182 0.986-1.182-0.986zM4.175 8.127l1.207 1.010-1.207 1.007zM4.371 10.271l1.186-0.991 1.186 0.991zM5.651 19.639l0.991 1.186-0.991 1.186zM5.778 22.206l1.007-1.207 1.007 1.207zM7.922 22.011l-0.991-1.186 0.991-1.186zM7.922 19.027l-0.991-1.186 0.991-1.186zM7.922 16.042l-0.991-1.186 0.991-1.186zM7.922 13.058l-0.991-1.186 0.991-1.186zM23.856 22.428h-15.713v-11.936h15.713zM22.275 10.271l1.186-0.991 1.186 0.991zM24.080 19.639l0.991 1.186-0.991 1.186zM24.205 22.206l1.007-1.207 1.007 1.207zM26.349 22.011l-0.991-1.186 0.991-1.186zM26.349 19.027l-0.991-1.186 0.991-1.186zM26.349 16.042l-0.991-1.186 0.991-1.186zM26.349 13.058l-0.991-1.186 0.991-1.186z"></path>
<path d="M16 25.504h-5.941l-4.63 1.332h21.141l-4.63-1.332z"></path>
<path d="M1.984 17.219c0 0.939-1.405 0.939-1.405 0 0-0.937 1.405-0.937 1.405 0z"></path>
<path d="M4.926 15.732h-4.926v6.56h4.926zM0.355 17.219c0-0.511 0.414-0.925 0.925-0.925s0.925 0.417 0.925 0.925c0 0.511-0.414 0.925-0.925 0.925-0.508 0.002-0.925-0.414-0.925-0.925zM2.464 21.717c-0.786 0-1.424-0.64-1.424-1.424 0-0.786 0.64-1.424 1.424-1.424 0.786 0 1.424 0.64 1.424 1.424 0 0.786-0.638 1.424-1.424 1.424zM3.646 18.147c-0.511 0-0.925-0.414-0.925-0.925s0.414-0.925 0.925-0.925 0.925 0.417 0.925 0.925-0.414 0.925-0.925 0.925z"></path>
<path d="M2.464 19.090c-0.664 0-1.203 0.539-1.203 1.203s0.539 1.203 1.203 1.203c0.664 0 1.203-0.539 1.203-1.203s-0.539-1.203-1.203-1.203zM2.464 20.856c-0.311 0-0.563-0.249-0.563-0.563 0-0.311 0.252-0.56 0.563-0.56s0.56 0.249 0.56 0.56-0.249 0.563-0.56 0.563z"></path>
<path d="M4.349 17.221c0 0.937-1.408 0.937-1.408 0 0-0.939 1.408-0.939 1.408 0z"></path>
<path d="M29.058 17.219c0 0.939-1.408 0.939-1.408 0 0-0.937 1.408-0.937 1.408 0z"></path>
<path d="M27.074 15.732v6.56h4.926v-6.56zM27.429 17.219c0-0.511 0.414-0.925 0.925-0.925s0.925 0.417 0.925 0.925c0 0.511-0.414 0.925-0.925 0.925-0.511 0.002-0.925-0.414-0.925-0.925zM29.536 21.717c-0.786 0-1.424-0.64-1.424-1.424 0-0.786 0.64-1.424 1.424-1.424 0.786 0 1.424 0.64 1.424 1.424 0.002 0.786-0.638 1.424-1.424 1.424zM30.72 18.147c-0.511 0-0.925-0.414-0.925-0.925s0.414-0.925 0.925-0.925c0.511 0 0.925 0.417 0.925 0.925s-0.417 0.925-0.925 0.925z"></path>
<path d="M29.536 19.090c-0.664 0-1.203 0.539-1.203 1.203s0.539 1.203 1.203 1.203c0.664 0 1.203-0.539 1.203-1.203 0.002-0.664-0.539-1.203-1.203-1.203zM29.536 20.856c-0.311 0-0.56-0.249-0.56-0.563 0-0.311 0.249-0.56 0.56-0.56s0.563 0.249 0.563 0.56-0.252 0.563-0.563 0.563z"></path>
<path d="M31.421 17.221c0 0.937-1.405 0.937-1.405 0 0-0.939 1.405-0.939 1.405 0z"></path>
<path d="M9.694 13.032l0.814-0.756-0.88-0.949v-0.744h-0.221v0.52c-0.209-0.153-0.504-0.139-0.701 0.042-0.224 0.209-0.238 0.56-0.031 0.786z"></path>
<path d="M23.324 11.933c0.209-0.224 0.193-0.577-0.031-0.786-0.198-0.184-0.492-0.193-0.701-0.042v-0.52h-0.221v0.744l-0.88 0.949 0.814 0.756z"></path>
</symbol>
<symbol id="icon-seating" viewBox="0 0 32 32">
<path d="M9.376 6.080l-0.8-0.128-0.352-0.704c-0.064-0.096-0.16-0.192-0.287-0.192s-0.224 0.064-0.287 0.192l-0.353 0.704-0.769 0.128c-0.128 0.032-0.224 0.096-0.256 0.224s0 0.256 0.096 0.32l0.576 0.544-0.128 0.768c-0.032 0.127 0.032 0.256 0.128 0.32 0.064 0.033 0.128 0.064 0.192 0.064 0.064 0 0.096 0 0.16-0.033l0.704-0.384 0.704 0.384c0.096 0.064 0.224 0.033 0.352-0.033 0.096-0.064 0.16-0.193 0.127-0.32l-0.127-0.768 0.576-0.544c0.096-0.096 0.127-0.224 0.096-0.32-0.129-0.126-0.225-0.223-0.352-0.223zM8.416 6.816c-0.064 0.064-0.096 0.192-0.096 0.287l0.064 0.32-0.287-0.16c-0.096-0.064-0.192-0.064-0.287 0l-0.287 0.16 0.064-0.32c0.032-0.096-0.032-0.224-0.096-0.287l-0.224-0.224 0.32-0.032c0.096 0 0.192-0.096 0.256-0.16l0.128-0.287 0.127 0.287c0.033 0.096 0.127 0.16 0.256 0.16l0.32 0.032z"></path>
<path d="M17.44 6.080l-0.8-0.128-0.32-0.705c-0.096-0.224-0.48-0.224-0.576 0l-0.352 0.704-0.799 0.129c-0.127 0.032-0.224 0.096-0.256 0.224s0 0.256 0.096 0.32l0.576 0.544-0.127 0.768c-0.033 0.127 0.033 0.256 0.127 0.32 0.096 0.064 0.224 0.096 0.352 0.033l0.704-0.384 0.704 0.384c0.032 0.033 0.096 0.033 0.16 0.033s0.128-0.033 0.192-0.064c0.096-0.064 0.16-0.193 0.128-0.32l-0.128-0.768 0.576-0.544c0.096-0.096 0.128-0.224 0.096-0.32-0.13-0.129-0.226-0.225-0.354-0.225zM16.48 6.816c-0.064 0.064-0.096 0.192-0.096 0.287l0.064 0.32-0.288-0.16c-0.032-0.032-0.096-0.032-0.16-0.032s-0.096 0-0.16 0.032l-0.287 0.16 0.064-0.32c0.033-0.096-0.033-0.224-0.096-0.287l-0.224-0.224 0.32-0.032c0.096 0 0.193-0.096 0.256-0.16l0.127-0.287 0.128 0.287c0.032 0.096 0.128 0.16 0.256 0.16l0.32 0.032z"></path>
<path d="M25.536 6.080l-0.8-0.128-0.352-0.704c-0.096-0.224-0.48-0.224-0.576 0l-0.352 0.704-0.799 0.128c-0.128 0.032-0.224 0.096-0.256 0.224s0 0.256 0.096 0.32l0.576 0.544-0.128 0.768c-0.032 0.127 0.032 0.256 0.128 0.32 0.096 0.064 0.224 0.096 0.352 0.033l0.704-0.384 0.704 0.384c0 0.033 0.064 0.033 0.128 0.033s0.128-0.033 0.192-0.064c0.096-0.064 0.16-0.193 0.128-0.32l-0.128-0.768 0.576-0.544c0.096-0.096 0.128-0.224 0.096-0.32-0.098-0.129-0.192-0.225-0.289-0.225zM24.576 6.816c-0.064 0.064-0.096 0.192-0.096 0.287l0.064 0.32-0.288-0.16c-0.032-0.032-0.096-0.032-0.16-0.032s-0.096 0-0.16 0.032l-0.256 0.16 0.064-0.32c0.032-0.096-0.032-0.224-0.096-0.287l-0.224-0.224 0.32-0.032c0.096 0 0.192-0.096 0.256-0.16l0.128-0.287 0.128 0.287c0.032 0.096 0.128 0.16 0.256 0.16l0.32 0.032z"></path>
<path d="M27.36 9.536h-0.224v-3.616c0-1.473-1.216-2.688-2.688-2.688h-0.736c-1.473 0-2.688 1.216-2.688 2.688v3.616h-0.224c-0.192 0-0.32 0.127-0.32 0.32v0.416h-0.896v-0.416c0-0.193-0.128-0.32-0.32-0.32h-0.224l-0.001-3.616c0-1.473-1.216-2.688-2.688-2.688h-0.736c-1.473 0-2.688 1.216-2.688 2.688v3.616h-0.224c-0.193 0-0.32 0.127-0.32 0.32v0.416h-0.865v-0.416c0-0.193-0.127-0.32-0.32-0.32h-0.224v-3.616c0-1.473-1.216-2.688-2.688-2.688h-0.736c-1.473 0-2.688 1.216-2.688 2.688v3.616h-0.224c-0.192 0-0.32 0.127-0.32 0.32v0.8c0 0.544 0.447 0.96 0.96 0.96h2.304l-0.001 3.104h-2.4c-0.192 0-0.32 0.127-0.32 0.32s0.128 0.32 0.32 0.32h21.793c0.192 0 0.32-0.127 0.32-0.32s-0.128-0.32-0.32-0.32h-2.593v-3.072h2.304c0.544 0 0.96-0.447 0.96-0.96v-0.8c0.032-0.191-0.095-0.351-0.288-0.351zM21.696 5.92c0-1.12 0.927-2.047 2.047-2.047h0.736c1.12 0 2.047 0.927 2.047 2.047v3.616h-4.831zM13.408 11.007c-0.193 0-0.32-0.16-0.32-0.32v-0.48h5.887v0.48c0 0.193-0.16 0.32-0.32 0.32zM13.6 5.92c0-1.12 0.928-2.047 2.047-2.047h0.736c1.12 0 2.047 0.927 2.047 2.047v3.616h-4.831zM5.537 5.92c0-1.12 0.928-2.047 2.047-2.047h0.736c1.12 0 2.047 0.927 2.047 2.047v3.616h-4.831zM4.993 10.656v-0.48h5.887v0.48c0 0.193-0.16 0.32-0.32 0.32h-5.216c-0.191 0.031-0.351-0.129-0.351-0.32zM8.256 11.648h2.304c0.447 0 0.832-0.32 0.928-0.736h0.96c0.096 0.416 0.48 0.736 0.928 0.736h2.304l0.001 3.072h-7.424zM23.776 14.72h-7.424v-3.072h2.304c0.448 0 0.832-0.32 0.927-0.736h0.96c0.096 0.416 0.48 0.736 0.927 0.736h2.304zM27.040 10.656c0 0.193-0.16 0.32-0.32 0.32h-5.247c-0.192 0-0.32-0.16-0.32-0.32v-0.48h5.887z"></path>
<path d="M9.376 19.073l-0.8-0.128-0.352-0.705c-0.064-0.096-0.16-0.192-0.287-0.192s-0.224 0.064-0.287 0.192l-0.353 0.704-0.8 0.128c-0.128 0.032-0.224 0.096-0.256 0.224s0 0.256 0.096 0.32l0.576 0.544-0.128 0.767c-0.032 0.128 0.032 0.256 0.128 0.32 0.096 0.064 0.224 0.096 0.353 0.032l0.704-0.384 0.704 0.384c0.033 0.032 0.096 0.032 0.16 0.032s0.127-0.032 0.193-0.064c0.096-0.064 0.16-0.192 0.127-0.32l-0.127-0.767 0.576-0.544c0.096-0.096 0.127-0.224 0.096-0.32-0.098-0.129-0.194-0.192-0.321-0.224zM8.416 19.84c-0.064 0.064-0.096 0.192-0.096 0.288l0.064 0.32-0.287-0.16c-0.096-0.064-0.192-0.064-0.287 0l-0.287 0.16 0.064-0.32c0.032-0.096-0.032-0.224-0.096-0.288l-0.224-0.224 0.32-0.032c0.096 0 0.192-0.096 0.256-0.16l0.128-0.288 0.127 0.288c0.033 0.096 0.127 0.16 0.256 0.16l0.32 0.032z"></path>
<path d="M17.44 19.073l-0.8-0.128-0.32-0.705c-0.096-0.224-0.48-0.224-0.576 0l-0.352 0.704-0.8 0.128c-0.127 0.032-0.224 0.096-0.256 0.224s0 0.256 0.096 0.32l0.576 0.544-0.127 0.767c-0.033 0.128 0.033 0.256 0.127 0.32 0.096 0.064 0.224 0.096 0.352 0.032l0.704-0.384 0.704 0.384c0.032 0.032 0.096 0.032 0.16 0.032s0.128-0.032 0.192-0.064c0.096-0.064 0.16-0.192 0.128-0.32l-0.128-0.767 0.576-0.544c0.096-0.096 0.128-0.224 0.096-0.32-0.129-0.129-0.225-0.192-0.352-0.224zM16.48 19.84c-0.064 0.064-0.096 0.192-0.096 0.288l0.064 0.32-0.288-0.16c-0.032-0.032-0.096-0.032-0.16-0.032s-0.096 0-0.16 0.032l-0.287 0.16 0.064-0.32c0.033-0.096-0.033-0.224-0.096-0.288l-0.224-0.224 0.32-0.032c0.096 0 0.193-0.096 0.256-0.16l0.127-0.288 0.128 0.288c0.032 0.096 0.128 0.16 0.256 0.16l0.32 0.032z"></path>
<path d="M25.536 19.073l-0.8-0.128-0.352-0.705c-0.096-0.224-0.48-0.224-0.576 0l-0.352 0.704-0.8 0.128c-0.128 0.032-0.224 0.096-0.256 0.224s0 0.256 0.096 0.32l0.576 0.544-0.128 0.767c-0.032 0.128 0.032 0.256 0.128 0.32 0.096 0.064 0.224 0.096 0.352 0.032l0.704-0.384 0.704 0.384c0.032 0.032 0.096 0.032 0.16 0.032s0.128-0.032 0.192-0.064c0.096-0.064 0.16-0.192 0.128-0.32l-0.128-0.767 0.576-0.544c0.096-0.096 0.128-0.224 0.096-0.32-0.129-0.129-0.224-0.192-0.32-0.224zM24.576 19.84c-0.064 0.064-0.096 0.192-0.096 0.288l0.064 0.32-0.288-0.16c-0.032-0.032-0.096-0.032-0.16-0.032s-0.096 0-0.16 0.032l-0.256 0.129 0.064-0.32c0.032-0.096-0.032-0.224-0.096-0.288l-0.224-0.224 0.32-0.032c0.096 0 0.192-0.096 0.256-0.16l0.128-0.288 0.128 0.288c0.032 0.096 0.128 0.16 0.256 0.16l0.32 0.032z"></path>
<path d="M27.36 22.56h-0.224v-3.616c0-1.473-1.216-2.688-2.688-2.688h-0.736c-1.473 0-2.688 1.216-2.688 2.688v3.616h-0.224c-0.192 0-0.32 0.128-0.32 0.32v0.416h-0.896v-0.416c0-0.192-0.128-0.32-0.32-0.32h-0.224l-0.001-3.616c0-1.473-1.216-2.688-2.688-2.688h-0.736c-1.473 0-2.688 1.216-2.688 2.688v3.616h-0.224c-0.193 0-0.32 0.128-0.32 0.32v0.416h-0.865v-0.416c0-0.192-0.127-0.32-0.32-0.32h-0.224v-3.616c0-1.473-1.216-2.688-2.688-2.688h-0.736c-1.473 0-2.688 1.216-2.688 2.688v3.616h-0.224c-0.192 0-0.32 0.128-0.32 0.32l-0.001 0.8c0 0.544 0.447 0.96 0.96 0.96h2.304v3.072h-2.4c-0.192 0-0.32 0.128-0.32 0.32s0.128 0.32 0.32 0.32h21.793c0.192 0 0.32-0.128 0.32-0.32s-0.128-0.32-0.32-0.32h-2.593v-3.072h2.304c0.544 0 0.96-0.448 0.96-0.96v-0.8c0.032-0.192-0.095-0.32-0.288-0.32zM21.696 18.944c0-1.12 0.927-2.047 2.047-2.047h0.736c1.12 0 2.047 0.927 2.047 2.047v3.616h-4.831zM13.408 24.032c-0.193 0-0.32-0.16-0.32-0.32v-0.48h5.887l0.001 0.448c0 0.192-0.16 0.32-0.32 0.32h-5.249zM13.6 18.944c0-1.12 0.928-2.047 2.047-2.047h0.736c1.12 0 2.047 0.927 2.047 2.047v3.616h-4.831zM5.537 18.944c0-1.12 0.928-2.047 2.047-2.047h0.736c1.12 0 2.047 0.927 2.047 2.047v3.616h-4.831zM4.993 23.68v-0.48h5.887v0.48c0 0.192-0.16 0.32-0.32 0.32h-5.216c-0.191 0.032-0.351-0.128-0.351-0.32zM8.256 24.672h2.304c0.447 0 0.832-0.32 0.928-0.736h0.96c0.096 0.416 0.48 0.736 0.928 0.736h2.304v3.072l-7.422-0.001zM23.776 27.712h-7.424v-3.072h2.304c0.448 0 0.832-0.32 0.927-0.736h0.96c0.096 0.416 0.48 0.736 0.927 0.736h2.304zM27.040 23.68c0 0.192-0.16 0.32-0.32 0.32h-5.247c-0.192 0-0.32-0.16-0.32-0.32v-0.48h5.887z"></path>
</symbol>
<symbol id="icon-big-screen" viewBox="0 0 32 32">
<path d="M30.5 5h-4v-1h1c0.133 0 0.26-0.053 0.354-0.146s0.146-0.221 0.146-0.354v-2c0-0.133-0.052-0.26-0.146-0.354s-0.221-0.146-0.354-0.146h-3c-0.276 0-0.5 0.224-0.5 0.5v2c0 0.132 0.052 0.26 0.146 0.354s0.221 0.146 0.354 0.146h1v1h-9v-1h1c0.133 0 0.26-0.053 0.354-0.146s0.146-0.221 0.146-0.354v-2c0-0.133-0.052-0.26-0.146-0.354s-0.221-0.146-0.354-0.146h-3c-0.276 0-0.5 0.224-0.5 0.5v2c0 0.132 0.053 0.26 0.146 0.354s0.221 0.146 0.354 0.146h1v1h-9v-1h1c0.133 0 0.26-0.053 0.354-0.146s0.146-0.221 0.146-0.354v-2c0-0.133-0.053-0.26-0.146-0.354s-0.221-0.146-0.354-0.146h-3c-0.276 0-0.5 0.224-0.5 0.5v2c0 0.132 0.053 0.26 0.146 0.354s0.221 0.146 0.354 0.146h1v1h-4c-0.276 0-0.5 0.224-0.5 0.5v18.5c0 0.133 0.052 0.26 0.146 0.354s0.221 0.146 0.354 0.146h2.5v6.5h1v-2.6l3 1.875v0.725h1v-6.5h14v6.5h1v-0.723l3-1.875v2.598h1v-6.5h2.5c0.133 0 0.26-0.052 0.354-0.146s0.146-0.221 0.146-0.354v-18.5c0-0.133-0.052-0.26-0.146-0.354s-0.221-0.146-0.354-0.146zM25 2h2v1h-2zM15 2h2v1h-2zM5 2h2v1h-2zM27 23.5h-22v-17.5h22zM2 22h1v-1h-1v-2.5h1v-1h-1v-2.5h1v-1h-1v-2.5h1v-1h-1v-2h1v-1h-1v-1.5h2v17.5h-2zM5.444 27.5l2.556-1.6v3.2zM8 24.723l-3 1.878v-2.1h3zM24 29.1v-3.2l2.556 1.6zM24 24.725v-0.225h3v2.1zM28 23.5v-17.5h2v1.5h-1v1h1v2h-1v1h1v2.5h-1v1h1v2.5h-1v1h1v2.5h-1v1h1v1.5z"></path>
<path d="M6.5 22.5h19c0.133 0 0.26-0.052 0.354-0.146s0.146-0.221 0.146-0.354v-14.5c0-0.133-0.052-0.26-0.146-0.354s-0.221-0.146-0.354-0.146h-19c-0.276 0-0.5 0.224-0.5 0.5v14.5c0 0.133 0.053 0.26 0.146 0.354s0.221 0.146 0.354 0.146zM7 8h18v13.5h-18z"></path>
<path d="M9.646 16.646l5.5-5.5 0.707 0.707-5.5 5.5z"></path>
<path d="M13.146 18.146l6.5-6.5 0.707 0.707-6.5 6.5z"></path>
<path d="M18.646 17.146l3.5-3.5 0.707 0.707-3.5 3.5z"></path>
<path d="M9.146 12.646l2-2 0.707 0.707-2 2z"></path>
</symbol>
<symbol id="icon-pint" viewBox="0 0 32 32">
<path d="M24.765 6.4l-1.386-6.4h-14.739l-1.401 6.4c-0.849 3.904-0.515 7.971 0.96 11.684 0.912 2.303 1.381 4.757 1.379 7.235v6.681h12.851v-6.675c-0.004-2.477 0.465-4.932 1.379-7.235 1.474-3.715 1.806-7.785 0.957-11.69zM9.114 6.813l1.059-4.892h11.655l1.059 4.89c0.264 1.223 0.402 2.47 0.413 3.721h-14.595c0.006-1.25 0.144-2.496 0.41-3.719zM12.634 20.294v-1.92h1.92v1.92zM17.754 15.174v-1.887h1.92v1.904z"></path>
</symbol>
<symbol id="icon-social-distancing" viewBox="0 0 32 32">
<path d="M26 5v0.2c0 0.066 0 0.134-0.066 0.2-0.066 0.134-0.134 0.266-0.266 0.334l-4 4c-0.4 0.4-1 0.4-1.4 0s-0.4-1 0-1.4l2.332-2.334h-13.2l2.334 2.334c0.4 0.4 0.4 1 0 1.4s-1 0.4-1.4 0l-4-4c-0.134-0.134-0.2-0.2-0.268-0.334-0.066-0.134-0.066-0.266-0.066-0.4s0-0.266 0.066-0.334c0.066-0.134 0.134-0.266 0.266-0.334l4-4c0.4-0.4 1-0.4 1.4 0s0.4 1 0 1.4l-2.332 2.268h13.2l-2.334-2.334c-0.4-0.4-0.4-1 0-1.4s1-0.4 1.4 0l4 4c0.134 0.066 0.2 0.2 0.266 0.334 0.001 0.066 0.067 0.134 0.067 0.2v0.2zM31.334 14c0-1.466-1.2-2.666-2.666-2.666s-2.666 1.2-2.666 2.666 1.2 2.666 2.666 2.666c1.466 0 2.666-1.2 2.666-2.666zM32 18.6c-1.066-0.4-2.2-0.6-3.334-0.6-4.934 0-8.666 3.466-8.666 8 0 0.734 0.6 1.334 1.334 1.334s1.334-0.6 1.334-1.334c-0.066-1.866 1-3.6 2.666-4.466v10.466h6.666zM3.334 16.666c1.466 0 2.666-1.2 2.666-2.666s-1.2-2.666-2.666-2.666-2.666 1.2-2.666 2.666c-0.001 1.466 1.199 2.666 2.666 2.666zM3.334 18c-1.134 0-2.266 0.2-3.334 0.6v13.4h6.666v-10.466c1.666 0.866 2.734 2.6 2.666 4.466 0 0.734 0.6 1.334 1.334 1.334s1.334-0.6 1.334-1.334c0-4.534-3.734-8-8.666-8z"></path>
</symbol>
<symbol id="icon-time" viewBox="0 0 32 32">
<path d="M16 7.36c-4.767 0-8.64 3.873-8.64 8.64s3.873 8.64 8.64 8.64 8.64-3.873 8.64-8.64-3.873-8.64-8.64-8.64zM16 22.976c-3.84 0-6.976-3.136-6.976-6.976s3.136-6.976 6.976-6.976 6.976 3.136 6.976 6.976-3.136 6.976-6.976 6.976z"></path>
<path d="M19.616 15.167h-2.784v-3.424c0-0.447-0.352-0.832-0.832-0.832-0.447 0-0.832 0.352-0.832 0.832v4.256c0 0.448 0.352 0.832 0.832 0.832h3.616c0.448 0 0.832-0.352 0.832-0.832-0.001-0.447-0.385-0.832-0.832-0.832z"></path>
<path d="M7.36 7.36c3.2-3.2 7.904-4.384 12.256-3.040l0.224 0.064-0.416 1.216c-0.096 0.32-0.032 0.64 0.192 0.864 0.224 0.224 0.544 0.32 0.864 0.256l4.064-0.96c0.288-0.064 0.544-0.287 0.64-0.576 0.096-0.287 0.032-0.607-0.16-0.833l-2.688-3.231c-0.224-0.256-0.544-0.353-0.832-0.287-0.32 0.064-0.576 0.287-0.672 0.576l-0.384 1.184-0.192-0.064c-1.407-0.448-2.816-0.64-4.224-0.64-3.68 0-7.296 1.44-9.984 4.127-4.447 4.416-5.44 11.071-2.527 16.607 0.127 0.224 0.353 0.416 0.607 0.48 0.256 0.064 0.513 0.032 0.704-0.064 0.447-0.256 0.607-0.832 0.384-1.28-2.495-4.736-1.631-10.624 2.145-14.4z"></path>
<path d="M28.48 9.376c-0.128-0.224-0.352-0.416-0.608-0.48-0.256-0.064-0.512-0.033-0.704 0.064-0.448 0.256-0.608 0.832-0.384 1.28 2.496 4.704 1.6 10.624-2.144 14.367-3.2 3.2-7.904 4.384-12.256 3.040l-0.224-0.064 0.416-1.216c0.096-0.32 0.033-0.64-0.193-0.864-0.16-0.192-0.416-0.288-0.64-0.288-0.064 0-0.16 0-0.224 0.032l-4.065 0.991c-0.287 0.064-0.544 0.288-0.64 0.576-0.096 0.288-0.032 0.608 0.16 0.832l2.688 3.233c0.224 0.256 0.512 0.352 0.832 0.32 0.32-0.064 0.576-0.288 0.672-0.576l0.384-1.184 0.193 0.064c5.024 1.567 10.496 0.224 14.207-3.487 4.447-4.45 5.44-11.105 2.527-16.641z"></path>
</symbol>
<symbol id="icon-website" viewBox="0 0 24 24">
<path d="M9 5.016h9.984v9.984h-1.969v-6.609l-11.625 11.625-1.406-1.406 11.625-11.625h-6.609v-1.969z"></path>
</symbol>
<symbol id="icon-location_onplaceroom" viewBox="0 0 24 24">
<path d="M12 11.484q1.031 0 1.758-0.727t0.727-1.758-0.727-1.758-1.758-0.727-1.758 0.727-0.727 1.758 0.727 1.758 1.758 0.727zM12 2.016q2.906 0 4.945 2.039t2.039 4.945q0 1.453-0.727 3.328t-1.758 3.516-2.039 3.070-1.711 2.273l-0.75 0.797q-0.281-0.328-0.75-0.867t-1.688-2.156-2.133-3.141-1.664-3.445-0.75-3.375q0-2.906 2.039-4.945t4.945-2.039z"></path>
</symbol>
<symbol id="icon-clearclose" viewBox="0 0 24 24">
<path d="M18.984 6.422l-5.578 5.578 5.578 5.578-1.406 1.406-5.578-5.578-5.578 5.578-1.406-1.406 5.578-5.578-5.578-5.578 1.406-1.406 5.578 5.578 5.578-5.578z"></path>
</symbol>
<symbol id="icon-dehaze" viewBox="0 0 24 24">
<path d="M2.016 5.484h19.969v2.016h-19.969v-2.016zM2.016 10.5h19.969v2.016h-19.969v-2.016zM2.016 15.516h19.969v1.969h-19.969v-1.969z"></path>
</symbol>
<symbol id="icon-arrow_back" viewBox="0 0 24 24">
<path d="M20.016 11.016v1.969h-12.188l5.578 5.625-1.406 1.406-8.016-8.016 8.016-8.016 1.406 1.406-5.578 5.625h12.188z"></path>
</symbol>
<symbol id="icon-arrow_forward" viewBox="0 0 24 24">
<path d="M12 3.984l8.016 8.016-8.016 8.016-1.406-1.406 5.578-5.625h-12.188v-1.969h12.188l-5.578-5.625z"></path>
</symbol>
<symbol id="icon-grid_view" viewBox="0 0 24 24">
<path d="M18.984 18.984v-3.984h-3.984v3.984h3.984zM12.984 12.984h8.016v8.016h-8.016v-8.016zM18.984 9v-3.984h-3.984v3.984h3.984zM12.984 3h8.016v8.016h-8.016v-8.016zM9 18.984v-3.984h-3.984v3.984h3.984zM3 12.984h8.016v8.016h-8.016v-8.016zM9 9v-3.984h-3.984v3.984h3.984zM3 3h8.016v8.016h-8.016v-8.016z"></path>
</symbol>
<symbol id="icon-twitter" viewBox="0 0 26 28">
<path d="M25.312 6.375c-0.688 1-1.547 1.891-2.531 2.609 0.016 0.219 0.016 0.438 0.016 0.656 0 6.672-5.078 14.359-14.359 14.359-2.859 0-5.516-0.828-7.75-2.266 0.406 0.047 0.797 0.063 1.219 0.063 2.359 0 4.531-0.797 6.266-2.156-2.219-0.047-4.078-1.5-4.719-3.5 0.313 0.047 0.625 0.078 0.953 0.078 0.453 0 0.906-0.063 1.328-0.172-2.312-0.469-4.047-2.5-4.047-4.953v-0.063c0.672 0.375 1.453 0.609 2.281 0.641-1.359-0.906-2.25-2.453-2.25-4.203 0-0.938 0.25-1.797 0.688-2.547 2.484 3.062 6.219 5.063 10.406 5.281-0.078-0.375-0.125-0.766-0.125-1.156 0-2.781 2.25-5.047 5.047-5.047 1.453 0 2.766 0.609 3.687 1.594 1.141-0.219 2.234-0.641 3.203-1.219-0.375 1.172-1.172 2.156-2.219 2.781 1.016-0.109 2-0.391 2.906-0.781z"></path>
</symbol>
<symbol id="icon-facebook" viewBox="0 0 16 28">
<path d="M14.984 0.187v4.125h-2.453c-1.922 0-2.281 0.922-2.281 2.25v2.953h4.578l-0.609 4.625h-3.969v11.859h-4.781v-11.859h-3.984v-4.625h3.984v-3.406c0-3.953 2.422-6.109 5.953-6.109 1.687 0 3.141 0.125 3.563 0.187z"></path>
</symbol>
<symbol id="icon-instagram" viewBox="0 0 24 28">
<path d="M16 14c0-2.203-1.797-4-4-4s-4 1.797-4 4 1.797 4 4 4 4-1.797 4-4zM18.156 14c0 3.406-2.75 6.156-6.156 6.156s-6.156-2.75-6.156-6.156 2.75-6.156 6.156-6.156 6.156 2.75 6.156 6.156zM19.844 7.594c0 0.797-0.641 1.437-1.437 1.437s-1.437-0.641-1.437-1.437 0.641-1.437 1.437-1.437 1.437 0.641 1.437 1.437zM12 4.156c-1.75 0-5.5-0.141-7.078 0.484-0.547 0.219-0.953 0.484-1.375 0.906s-0.688 0.828-0.906 1.375c-0.625 1.578-0.484 5.328-0.484 7.078s-0.141 5.5 0.484 7.078c0.219 0.547 0.484 0.953 0.906 1.375s0.828 0.688 1.375 0.906c1.578 0.625 5.328 0.484 7.078 0.484s5.5 0.141 7.078-0.484c0.547-0.219 0.953-0.484 1.375-0.906s0.688-0.828 0.906-1.375c0.625-1.578 0.484-5.328 0.484-7.078s0.141-5.5-0.484-7.078c-0.219-0.547-0.484-0.953-0.906-1.375s-0.828-0.688-1.375-0.906c-1.578-0.625-5.328-0.484-7.078-0.484zM24 14c0 1.656 0.016 3.297-0.078 4.953-0.094 1.922-0.531 3.625-1.937 5.031s-3.109 1.844-5.031 1.937c-1.656 0.094-3.297 0.078-4.953 0.078s-3.297 0.016-4.953-0.078c-1.922-0.094-3.625-0.531-5.031-1.937s-1.844-3.109-1.937-5.031c-0.094-1.656-0.078-3.297-0.078-4.953s-0.016-3.297 0.078-4.953c0.094-1.922 0.531-3.625 1.937-5.031s3.109-1.844 5.031-1.937c1.656-0.094 3.297-0.078 4.953-0.078s3.297-0.016 4.953 0.078c1.922 0.094 3.625 0.531 5.031 1.937s1.844 3.109 1.937 5.031c0.094 1.656 0.078 3.297 0.078 4.953z"></path>
</symbol>
<symbol id="icon-stalbans-stacked-logo" viewBox="0 0 46 32">
<path d="M1.39 8.99c-0.323-0.186-0.582-0.451-0.755-0.77l-0.005-0.010c-0.17-0.308-0.271-0.675-0.271-1.065 0-0.007 0-0.015 0-0.022v0.001h1.32c-0 0.009-0.001 0.020-0.001 0.031 0 0.228 0.097 0.434 0.252 0.578l0 0c0.149 0.144 0.351 0.232 0.575 0.232 0.001 0 0.002 0 0.004 0h-0c0.013 0.001 0.028 0.001 0.043 0.001 0.21 0 0.402-0.079 0.547-0.21l-0.001 0.001c0.136-0.136 0.22-0.323 0.22-0.531 0-0.014-0-0.028-0.001-0.042l0 0.002c0.002-0.020 0.004-0.044 0.004-0.068 0-0.202-0.094-0.381-0.241-0.497l-0.001-0.001c-0.213-0.131-0.461-0.235-0.724-0.299l-0.018-0.004q-0.063-0.013-0.251-0.063c-0.372-0.099-0.688-0.297-0.93-0.564l-0.001-0.002c-0.236-0.276-0.379-0.638-0.379-1.033 0-0.030 0.001-0.060 0.002-0.090l-0 0.004c-0-0.007-0-0.015-0-0.023 0-0.632 0.343-1.185 0.854-1.481l0.008-0.004c0.246-0.142 0.541-0.226 0.856-0.226 0.006 0 0.012 0 0.018 0h-0.001c0.010-0 0.023-0 0.035-0 0.612 0 1.15 0.319 1.456 0.799l0.004 0.007-0.854 0.843c-0.047-0.122-0.121-0.225-0.216-0.304l-0.001-0.001c-0.090-0.070-0.204-0.113-0.329-0.113-0.002 0-0.003 0-0.005 0h0c-0.008-0-0.018-0.001-0.028-0.001-0.133 0-0.254 0.053-0.343 0.139l0-0c-0.082 0.086-0.132 0.203-0.132 0.332 0 0.003 0 0.005 0 0.008v-0c-0.001 0.009-0.001 0.019-0.001 0.029 0 0.159 0.083 0.298 0.207 0.378l0.002 0.001c0.194 0.11 0.418 0.198 0.654 0.254l0.018 0.003c0.199 0.046 0.367 0.098 0.53 0.161l-0.027-0.009q1.22 0.451 1.22 1.797c0.001 0.023 0.002 0.051 0.002 0.079 0 0.569-0.236 1.083-0.616 1.448l-0.001 0.001c-0.391 0.363-0.916 0.585-1.493 0.585-0.030 0-0.061-0.001-0.091-0.002l0.004 0c-0.012 0-0.027 0-0.042 0-0.396 0-0.767-0.105-1.087-0.288l0.011 0.006zM5.914 4.221h-1.27v-1.307h1.27v-2.514l1.383-0.151v2.665h1.885v1.307h-1.885v4.978h-1.383zM12.89 8.858c-0.475-0.277-0.857-0.665-1.12-1.129l-0.008-0.015c-0.264-0.462-0.419-1.016-0.419-1.606 0-0.020 0-0.041 0.001-0.061l-0 0.003c-0-0.017-0.001-0.037-0.001-0.057 0-0.588 0.154-1.141 0.425-1.619l-0.009 0.016c0.271-0.479 0.654-0.867 1.114-1.136l0.014-0.008c0.449-0.261 0.989-0.414 1.564-0.414 0.017 0 0.033 0 0.050 0l-0.002-0c0.007-0 0.015-0 0.024-0 0.38 0 0.741 0.081 1.068 0.226l-0.017-0.007c0.287 0.114 0.529 0.288 0.72 0.507l0.002 0.002v-0.646h1.408v6.285h-1.408v-0.654c-0.191 0.221-0.431 0.395-0.703 0.505l-0.012 0.004c-0.309 0.139-0.669 0.219-1.048 0.219-0.012 0-0.023-0-0.035-0l0.002 0c-0.014 0-0.031 0-0.048 0-0.574 0-1.112-0.154-1.575-0.423l0.015 0.008zM15.838 7.426c0.317-0.334 0.511-0.787 0.511-1.285 0-0.032-0.001-0.064-0.002-0.096l0 0.004c0.001-0.026 0.002-0.056 0.002-0.086 0-0.498-0.195-0.951-0.512-1.287l0.001 0.001c-0.315-0.318-0.752-0.515-1.234-0.515-0.019 0-0.038 0-0.057 0.001l0.003-0c-0.018-0.001-0.040-0.001-0.062-0.001-0.492 0-0.939 0.197-1.265 0.515l0-0c-0.323 0.332-0.523 0.785-0.523 1.285 0 0.030 0.001 0.060 0.002 0.090l-0-0.004c-0.001 0.026-0.002 0.056-0.002 0.086 0 0.5 0.199 0.952 0.523 1.284l-0-0c0.326 0.319 0.773 0.517 1.266 0.517 0.021 0 0.042-0 0.063-0.001l-0.003 0c0.018 0.001 0.038 0.001 0.059 0.001 0.48 0 0.915-0.195 1.23-0.51l0-0zM18.709 0.4l1.383-0.151v8.95h-1.383zM23.284 9.073c-0.311-0.134-0.578-0.312-0.807-0.53l0.001 0.001v0.654h-1.381v-8.798l1.383-0.151v3.318c0.217-0.226 0.481-0.405 0.776-0.522l0.015-0.005c0.304-0.127 0.658-0.202 1.029-0.202 0.009 0 0.018 0 0.027 0h-0.001c0.021-0.001 0.046-0.001 0.071-0.001 0.573 0 1.111 0.147 1.58 0.404l-0.017-0.009c0.468 0.265 0.842 0.65 1.087 1.113l0.007 0.015c0.246 0.47 0.391 1.027 0.391 1.618 0 0.025-0 0.050-0.001 0.075l0-0.004c0.001 0.023 0.001 0.050 0.001 0.076 0 0.592-0.145 1.149-0.4 1.64l0.009-0.020c-0.252 0.478-0.626 0.863-1.081 1.121l-0.014 0.007c-0.452 0.251-0.991 0.399-1.565 0.399-0.024 0-0.048-0-0.072-0.001l0.004 0c-0.012 0-0.027 0-0.041 0-0.361 0-0.705-0.074-1.018-0.207l0.017 0.006zM25.583 7.406c0.312-0.336 0.504-0.789 0.504-1.286 0-0.025-0-0.050-0.001-0.075l0 0.004c0.001-0.019 0.001-0.042 0.001-0.065 0-0.497-0.192-0.95-0.505-1.288l0.001 0.001c-0.339-0.33-0.802-0.533-1.313-0.533s-0.974 0.203-1.314 0.534l0-0c-0.312 0.337-0.504 0.789-0.504 1.287 0 0.023 0 0.046 0.001 0.068l-0-0.003c-0.001 0.019-0.001 0.042-0.001 0.065 0 0.497 0.192 0.949 0.505 1.287l-0.001-0.001c0.338 0.331 0.802 0.535 1.313 0.535s0.975-0.204 1.314-0.536l-0 0zM29.493 8.858c-0.474-0.278-0.856-0.665-1.12-1.129l-0.008-0.015c-0.263-0.462-0.418-1.015-0.418-1.604 0-0.021 0-0.043 0.001-0.064l-0 0.003c-0-0.018-0.001-0.039-0.001-0.060 0-0.587 0.154-1.139 0.423-1.616l-0.009 0.016c0.272-0.478 0.654-0.866 1.114-1.136l0.014-0.008c0.45-0.261 0.99-0.414 1.565-0.414 0.016 0 0.032 0 0.049 0l-0.002-0c0.007-0 0.016-0 0.025-0 0.379 0 0.74 0.081 1.065 0.226l-0.017-0.007c0.287 0.114 0.53 0.288 0.722 0.507l0.002 0.002v-0.646h1.408v6.285h-1.408v-0.654c-0.192 0.221-0.432 0.394-0.705 0.505l-0.012 0.004c-0.308 0.139-0.667 0.219-1.046 0.219-0.012 0-0.024-0-0.036-0l0.002 0c-0.014 0-0.030 0-0.047 0-0.574 0-1.113-0.154-1.577-0.423l0.015 0.008zM32.44 7.426c0.317-0.333 0.511-0.785 0.511-1.282 0-0.031-0.001-0.062-0.002-0.092l0 0.004c0.001-0.026 0.002-0.057 0.002-0.088 0-0.497-0.195-0.95-0.512-1.284l0.001 0.001c-0.314-0.318-0.75-0.515-1.232-0.515-0.020 0-0.040 0-0.060 0.001l0.003-0c-0.019-0.001-0.041-0.001-0.063-0.001-0.492 0-0.938 0.197-1.264 0.515l0-0c-0.323 0.332-0.522 0.785-0.522 1.285 0 0.028 0.001 0.056 0.002 0.084l-0-0.004c-0.001 0.025-0.002 0.055-0.002 0.084 0 0.5 0.2 0.954 0.524 1.286l-0-0c0.326 0.319 0.773 0.517 1.265 0.517 0.021 0 0.043-0 0.064-0.001l-0.003 0c0.018 0.001 0.038 0.001 0.059 0.001 0.48 0 0.914-0.195 1.228-0.51l0-0zM35.312 2.914h1.383v0.719c0.187-0.232 0.417-0.42 0.68-0.554l0.012-0.005c0.285-0.147 0.622-0.233 0.98-0.233 0.018 0 0.036 0 0.054 0.001l-0.003-0q1.17 0 1.79 0.665t0.624 1.924v3.771h-1.383v-3.474q0-0.817-0.334-1.2t-0.986-0.383c-0.024-0.002-0.052-0.002-0.081-0.002-0.389 0-0.739 0.168-0.982 0.435l-0.001 0.001c-0.232 0.29-0.373 0.662-0.373 1.067 0 0.029 0.001 0.059 0.002 0.088l-0-0.004v3.471h-1.383zM42.489 8.99c-0.323-0.186-0.582-0.451-0.755-0.77l-0.005-0.010c-0.169-0.307-0.269-0.673-0.269-1.062 0-0.009 0-0.017 0-0.026v0.001h1.318c-0 0.009-0.001 0.020-0.001 0.031 0 0.229 0.097 0.434 0.253 0.578l0.001 0c0.156 0.144 0.365 0.232 0.595 0.232 0.217 0 0.415-0.079 0.568-0.209l-0.001 0.001c0.137-0.135 0.222-0.323 0.222-0.53 0-0.014-0-0.028-0.001-0.042l0 0.002c0.002-0.020 0.004-0.043 0.004-0.066 0-0.202-0.095-0.382-0.242-0.498l-0.001-0.001c-0.213-0.131-0.461-0.235-0.724-0.299l-0.018-0.004q-0.063-0.013-0.251-0.063c-0.369-0.1-0.684-0.298-0.923-0.564l-0.002-0.002c-0.236-0.276-0.379-0.638-0.379-1.033 0-0.030 0.001-0.060 0.002-0.090l-0 0.004c-0-0.007-0-0.015-0-0.023 0-0.318 0.086-0.616 0.237-0.871l-0.004 0.008c0.153-0.26 0.366-0.471 0.62-0.618l0.008-0.004c0.251-0.142 0.552-0.226 0.872-0.226 0.623 0 1.172 0.317 1.494 0.798l0.004 0.006-0.856 0.843c-0.049-0.122-0.126-0.224-0.224-0.302l-0.002-0.001c-0.090-0.070-0.204-0.113-0.329-0.113-0.002 0-0.003 0-0.005 0h0c-0.009-0.001-0.020-0.001-0.031-0.001-0.132 0-0.253 0.053-0.34 0.14l0-0c-0.082 0.084-0.132 0.2-0.132 0.326 0 0.005 0 0.010 0 0.014l-0-0.001c-0.001 0.009-0.001 0.019-0.001 0.029 0 0.159 0.083 0.298 0.207 0.378l0.002 0.001c0.194 0.11 0.418 0.199 0.655 0.255l0.017 0.003c0.2 0.047 0.368 0.099 0.531 0.161l-0.028-0.009q1.226 0.451 1.226 1.797c0.001 0.023 0.002 0.051 0.002 0.079 0 0.569-0.236 1.083-0.616 1.448l-0.001 0.001c-0.416 0.362-0.964 0.583-1.564 0.583-0.412 0-0.8-0.104-1.138-0.288l0.013 0.006zM3.325 18.52c-0.482-0.278-0.872-0.668-1.143-1.136l-0.008-0.015c-0.265-0.475-0.421-1.042-0.421-1.646s0.156-1.171 0.43-1.664l-0.009 0.018c0.278-0.482 0.668-0.872 1.136-1.143l0.015-0.008c0.458-0.265 1.008-0.421 1.595-0.421 0.018 0 0.037 0 0.055 0l-0.003-0c0.021-0.001 0.045-0.001 0.069-0.001 0.877 0 1.669 0.367 2.229 0.955l0.001 0.001-1.018 0.917c-0.31-0.348-0.76-0.566-1.26-0.566-0.007 0-0.015 0-0.022 0h0.001c-0.020-0.001-0.043-0.001-0.066-0.001-0.488 0-0.929 0.203-1.242 0.529l-0.001 0.001c-0.313 0.34-0.504 0.796-0.504 1.297 0 0.028 0.001 0.056 0.002 0.083l-0-0.004c-0.001 0.024-0.002 0.052-0.002 0.080 0 0.502 0.192 0.96 0.506 1.304l-0.001-0.002c0.315 0.326 0.755 0.528 1.243 0.528 0.023 0 0.046-0 0.068-0.001l-0.003 0c0.018 0.001 0.039 0.001 0.061 0.001 0.492 0 0.936-0.205 1.252-0.534l0.001-0.001c0.316-0.341 0.511-0.799 0.511-1.303 0-0.026-0.001-0.051-0.002-0.077l0 0.004h1.383c0 0.011 0 0.024 0 0.038 0 0.589-0.157 1.142-0.431 1.619l0.008-0.016c-0.277 0.484-0.667 0.876-1.134 1.148l-0.015 0.008c-0.46 0.269-1.012 0.427-1.601 0.427-0.012 0-0.023-0-0.035-0h0.002c-0.016 0-0.034 0-0.052 0-0.586 0-1.136-0.156-1.61-0.429l0.016 0.008zM9.993 18.52c-0.485-0.277-0.875-0.669-1.143-1.14l-0.008-0.015c-0.261-0.474-0.414-1.039-0.414-1.64s0.153-1.166 0.423-1.658l-0.009 0.018c0.275-0.487 0.665-0.88 1.136-1.149l0.015-0.008c0.477-0.265 1.047-0.421 1.653-0.421s1.175 0.156 1.67 0.43l-0.018-0.009c0.485 0.278 0.875 0.67 1.143 1.142l0.008 0.015c0.261 0.474 0.414 1.039 0.414 1.64s-0.153 1.166-0.423 1.658l0.009-0.018c-0.276 0.486-0.666 0.878-1.136 1.148l-0.015 0.008c-0.477 0.265-1.047 0.421-1.653 0.421s-1.175-0.156-1.67-0.43l0.018 0.009zM12.953 17.081c0.312-0.362 0.503-0.838 0.503-1.358s-0.19-0.995-0.505-1.36l0.002 0.003c-0.315-0.326-0.755-0.528-1.244-0.528-0.025 0-0.050 0.001-0.075 0.002l0.004-0c-0.019-0.001-0.042-0.001-0.064-0.001-0.488 0-0.928 0.202-1.242 0.528l-0.001 0.001c-0.312 0.362-0.503 0.838-0.503 1.358s0.19 0.995 0.505 1.36l-0.002-0.003c0.315 0.327 0.756 0.53 1.245 0.53 0.022 0 0.044-0 0.065-0.001l-0.003 0c0.021 0.001 0.045 0.001 0.069 0.001 0.489 0 0.931-0.203 1.245-0.529l0.001-0.001zM15.617 12.582h1.383v0.719c0.181-0.245 0.416-0.441 0.687-0.574l0.011-0.005c0.269-0.134 0.585-0.213 0.92-0.213 0.006 0 0.012 0 0.017 0h-0.001q1.12 0 1.647 0.867c0.236-0.258 0.512-0.473 0.82-0.637l0.016-0.008c0.29-0.139 0.629-0.22 0.988-0.22 0.026 0 0.052 0 0.077 0.001l-0.004-0q0.991 0 1.526 0.553t0.535 1.686v4.124h-1.383v-3.779c0.002-0.027 0.003-0.059 0.003-0.092 0-0.323-0.108-0.622-0.289-0.861l0.003 0.004c-0.21-0.208-0.5-0.337-0.819-0.337s-0.609 0.129-0.82 0.337l0-0c-0.202 0.231-0.324 0.535-0.324 0.868 0 0.026 0.001 0.052 0.002 0.078l-0-0.004v3.771h-1.383v-3.764c0.002-0.027 0.003-0.059 0.003-0.091 0-0.325-0.11-0.623-0.295-0.861l0.002 0.003c-0.209-0.208-0.498-0.337-0.817-0.337s-0.608 0.129-0.817 0.337l0-0c-0.201 0.232-0.324 0.537-0.324 0.871 0 0.025 0.001 0.050 0.002 0.075l-0-0.003v3.771h-1.367zM26.508 18.514c-0.485-0.282-0.875-0.678-1.143-1.153l-0.008-0.015c-0.261-0.468-0.414-1.027-0.414-1.622s0.153-1.154 0.423-1.639l-0.009 0.017c0.275-0.49 0.666-0.886 1.136-1.16l0.015-0.008c0.46-0.269 1.014-0.427 1.604-0.427 0.017 0 0.034 0 0.050 0l-0.003-0c0.018-0 0.040-0.001 0.062-0.001 0.696 0 1.339 0.229 1.857 0.616l-0.008-0.006c0.53 0.394 0.929 0.938 1.138 1.568l0.006 0.023-4.249 2.451c0.326 0.295 0.761 0.476 1.237 0.476 0.45 0 0.862-0.161 1.183-0.428l-0.003 0.002c0.311-0.306 0.52-0.715 0.571-1.172l0.001-0.009h1.407q-0.276 1.37-1.112 2.143c-0.525 0.48-1.226 0.773-1.997 0.773-0.035 0-0.069-0.001-0.103-0.002l0.005 0c-0.013 0-0.028 0-0.043 0-0.59 0-1.143-0.159-1.619-0.436l0.015 0.008zM29.364 14.316c-0.148-0.157-0.328-0.283-0.53-0.367l-0.010-0.004c-0.194-0.084-0.419-0.132-0.656-0.132-0.004 0-0.008 0-0.012 0h0.001c-0.011-0-0.025-0-0.038-0-0.337 0-0.651 0.096-0.916 0.262l0.007-0.004c-0.271 0.172-0.487 0.408-0.63 0.688l-0.005 0.010c-0.141 0.271-0.224 0.591-0.224 0.931 0 0.006 0 0.012 0 0.019v-0.001c-0.001 0.014-0.001 0.030-0.001 0.047 0 0.095 0.010 0.187 0.028 0.276l-0.002-0.009zM33.201 18.546c-0.467-0.266-0.84-0.65-1.085-1.113l-0.007-0.015c-0.246-0.47-0.391-1.026-0.391-1.616 0-0.030 0-0.059 0.001-0.088l-0 0.004c-0.001-0.026-0.001-0.056-0.001-0.086 0-0.586 0.143-1.138 0.395-1.624l-0.009 0.020c0.252-0.478 0.625-0.863 1.079-1.121l0.014-0.007c0.451-0.248 0.989-0.394 1.561-0.394 0.030 0 0.060 0 0.090 0.001l-0.004-0c0.008-0 0.017-0 0.027-0 0.371 0 0.724 0.074 1.047 0.208l-0.018-0.007c0.311 0.122 0.575 0.301 0.792 0.526l0.001 0.001v-3.166l1.375-0.152v8.95h-1.383v-0.654c-0.228 0.216-0.495 0.394-0.788 0.522l-0.018 0.007c-0.296 0.126-0.641 0.2-1.003 0.2-0.011 0-0.022-0-0.033-0l0.002 0c-0.025 0.001-0.053 0.001-0.082 0.001-0.572 0-1.109-0.147-1.577-0.404l0.017 0.009zM36.204 17.075c0.312-0.36 0.503-0.833 0.503-1.351s-0.19-0.991-0.505-1.354l0.002 0.003c-0.339-0.33-0.802-0.533-1.313-0.533s-0.974 0.203-1.314 0.534l0-0c-0.312 0.36-0.503 0.833-0.503 1.351s0.19 0.991 0.505 1.354l-0.002-0.003c0.338 0.331 0.802 0.535 1.313 0.535s0.975-0.204 1.314-0.536l-0 0zM40.919 17.76l-2.301-5.177h1.433l1.56 3.656 1.56-3.656h1.433l-2.301 5.177v4.243l-1.381 0.15zM5.568 31.093c-0.515-0.431-0.871-1.037-0.978-1.725l-0.002-0.016h1.433c0.090 0.322 0.271 0.595 0.513 0.796l0.003 0.002c0.245 0.185 0.556 0.297 0.892 0.297 0.026 0 0.052-0.001 0.078-0.002l-0.004 0c0.019 0.001 0.041 0.001 0.063 0.001 0.411 0 0.783-0.169 1.049-0.441l0-0c0.263-0.284 0.424-0.665 0.424-1.084 0-0.025-0.001-0.050-0.002-0.075l0 0.004c0.001-0.021 0.001-0.045 0.001-0.069 0-0.414-0.156-0.791-0.412-1.076l0.001 0.002c-0.255-0.272-0.617-0.441-1.019-0.441-0.020 0-0.039 0-0.059 0.001l0.003-0c-0.007-0-0.016-0-0.025-0-0.307 0-0.593 0.086-0.836 0.236l0.007-0.004c-0.241 0.145-0.433 0.348-0.562 0.59l-0.004 0.008-1.005-0.994c0.164-0.222 0.369-0.403 0.606-0.535l0.010-0.005c-0.258-0.225-0.468-0.499-0.616-0.808l-0.006-0.015c-0.138-0.291-0.219-0.633-0.219-0.993 0-0.006 0-0.013 0-0.019v0.001c-0-0.010-0-0.022-0-0.035 0-0.459 0.114-0.891 0.315-1.269l-0.007 0.015c0.202-0.386 0.498-0.7 0.857-0.919l0.010-0.006c0.355-0.213 0.783-0.339 1.24-0.339 0.017 0 0.034 0 0.052 0.001l-0.003-0c0.006-0 0.012-0 0.019-0 0.273 0 0.535 0.048 0.777 0.137l-0.016-0.005c0.227 0.076 0.419 0.209 0.564 0.382l0.002 0.002v-0.44h1.383v2.477c0 0.007 0 0.016 0 0.025 0 0.362-0.079 0.706-0.221 1.015l0.006-0.015c-0.149 0.322-0.362 0.592-0.624 0.802l-0.004 0.003c0.367 0.26 0.664 0.595 0.872 0.984l0.007 0.015c0.203 0.372 0.322 0.815 0.322 1.286 0 0.001 0 0.002 0 0.003v-0c0 0.017 0.001 0.037 0.001 0.057 0 0.537-0.144 1.040-0.396 1.472l0.008-0.014c-0.257 0.434-0.618 0.782-1.049 1.016l-0.014 0.007c-0.419 0.229-0.918 0.364-1.449 0.364-0.014 0-0.028-0-0.042-0l0.002 0c-0.030 0.001-0.065 0.002-0.1 0.002-0.702 0-1.346-0.248-1.85-0.66l0.005 0.004zM8.37 25.614c0.211-0.216 0.341-0.512 0.341-0.839 0-0.019-0-0.038-0.001-0.056l0 0.003c0.001-0.015 0.001-0.033 0.001-0.051 0-0.329-0.13-0.627-0.341-0.847l0 0c-0.211-0.214-0.504-0.347-0.828-0.347-0.014 0-0.028 0-0.041 0.001l0.002-0c-0.012-0-0.025-0.001-0.039-0.001-0.325 0-0.62 0.13-0.835 0.341l0-0c-0.214 0.218-0.346 0.516-0.346 0.846 0 0.020 0 0.041 0.002 0.061l-0-0.003c-0.001 0.018-0.002 0.039-0.002 0.061 0 0.648 0.525 1.173 1.173 1.173 0.016 0 0.033-0 0.049-0.001l-0.002 0c0.013 0.001 0.029 0.001 0.044 0.001 0.32 0 0.611-0.128 0.823-0.336l-0 0zM12.217 28.195c-0.474-0.278-0.856-0.665-1.12-1.129l-0.008-0.015c-0.261-0.48-0.414-1.052-0.414-1.659s0.153-1.179 0.423-1.678l-0.009 0.019c0.272-0.479 0.654-0.866 1.114-1.136l0.014-0.008c0.45-0.261 0.99-0.414 1.565-0.414 0.016 0 0.032 0 0.049 0l-0.002-0c0.007-0 0.015-0 0.024-0 0.38 0 0.741 0.081 1.068 0.226l-0.017-0.007c0.287 0.115 0.528 0.288 0.72 0.507l0.002 0.002v-0.653h1.408v6.285h-1.41v-0.654c-0.192 0.221-0.432 0.394-0.705 0.505l-0.012 0.004c-0.308 0.139-0.667 0.219-1.046 0.219-0.012 0-0.024-0-0.036-0l0.002 0c-0.014 0-0.031 0-0.048 0-0.574 0-1.113-0.154-1.577-0.423l0.015 0.008zM15.164 26.763c0.317-0.365 0.51-0.845 0.51-1.37s-0.193-1.005-0.512-1.372l0.002 0.003c-0.314-0.318-0.75-0.515-1.232-0.515-0.020 0-0.040 0-0.060 0.001l0.003-0c-0.018-0.001-0.040-0.001-0.062-0.001-0.492 0-0.939 0.197-1.265 0.515l0-0c-0.324 0.362-0.522 0.843-0.522 1.37s0.198 1.008 0.523 1.372l-0.002-0.002c0.326 0.32 0.773 0.517 1.266 0.517 0.021 0 0.042-0 0.063-0.001l-0.003 0c0.016 0.001 0.035 0.001 0.054 0.001 0.483 0 0.92-0.198 1.234-0.516l0-0zM18.037 22.251h1.383v0.828c0.12-0.271 0.31-0.493 0.547-0.649l0.006-0.003c0.245-0.158 0.544-0.252 0.866-0.252 0.018 0 0.036 0 0.054 0.001l-0.003-0c0.019-0.001 0.042-0.001 0.064-0.001 0.175 0 0.343 0.028 0.5 0.080l-0.011-0.003v1.45c-0.157-0.064-0.34-0.101-0.531-0.101-0.016 0-0.032 0-0.048 0.001l0.002-0c-0.016-0.001-0.034-0.001-0.053-0.001-0.388 0-0.739 0.159-0.991 0.415l-0 0c-0.251 0.278-0.404 0.649-0.404 1.055 0 0.031 0.001 0.063 0.003 0.094l-0-0.004v3.369h-1.383zM22.926 28.215c-0.468-0.266-0.841-0.65-1.087-1.113l-0.007-0.015c-0.246-0.496-0.39-1.079-0.39-1.697s0.144-1.201 0.4-1.72l-0.010 0.023c0.253-0.478 0.626-0.862 1.081-1.121l0.014-0.007c0.452-0.249 0.991-0.396 1.563-0.396 0.025 0 0.050 0 0.074 0.001l-0.004-0c0.008-0 0.017-0 0.026-0 0.371 0 0.725 0.074 1.048 0.208l-0.018-0.007c0.311 0.121 0.575 0.3 0.79 0.526l0.001 0.001v-3.162l1.383-0.151v8.95h-1.383v-0.654c-0.227 0.217-0.494 0.395-0.788 0.522l-0.017 0.007c-0.296 0.127-0.64 0.2-1.001 0.2-0.015 0-0.029-0-0.044-0l0.002 0c-0.022 0.001-0.047 0.001-0.073 0.001-0.572 0-1.109-0.147-1.576-0.404l0.017 0.009zM25.93 26.743c0.312-0.36 0.503-0.833 0.503-1.351s-0.19-0.991-0.505-1.354l0.002 0.003c-0.339-0.33-0.802-0.533-1.313-0.533s-0.974 0.203-1.314 0.534l0-0c-0.312 0.36-0.503 0.833-0.503 1.351s0.19 0.991 0.505 1.354l-0.002-0.003c0.338 0.331 0.802 0.535 1.313 0.535s0.975-0.204 1.314-0.536l-0 0zM30.108 28.182c-0.485-0.282-0.875-0.678-1.141-1.153l-0.008-0.015c-0.262-0.468-0.416-1.027-0.416-1.622s0.154-1.154 0.425-1.639l-0.009 0.017c0.275-0.49 0.665-0.886 1.134-1.16l0.015-0.008c0.46-0.269 1.014-0.427 1.604-0.427 0.017 0 0.035 0 0.052 0l-0.003-0c0.018-0 0.040-0.001 0.061-0.001 0.697 0 1.34 0.229 1.858 0.616l-0.008-0.006c0.53 0.395 0.929 0.938 1.138 1.568l0.007 0.023-4.249 2.451c0.307 0.299 0.727 0.483 1.189 0.483 0.002 0 0.003 0 0.005 0h-0c0.026 0.001 0.056 0.002 0.087 0.002 0.438 0 0.837-0.163 1.141-0.431l-0.002 0.002c0.311-0.306 0.519-0.716 0.571-1.172l0.001-0.009h1.407q-0.276 1.371-1.112 2.143c-0.525 0.48-1.226 0.773-1.997 0.773-0.035 0-0.069-0.001-0.103-0.002l0.005 0c-0.011 0-0.024 0-0.037 0-0.595 0-1.152-0.161-1.63-0.442l0.015 0.008zM32.969 23.993c-0.149-0.16-0.33-0.288-0.533-0.375l-0.010-0.004c-0.194-0.084-0.42-0.132-0.657-0.132-0.003 0-0.007 0-0.010 0h0.001c-0.011-0-0.024-0-0.037-0-0.337 0-0.652 0.096-0.919 0.262l0.007-0.004c-0.27 0.173-0.486 0.409-0.63 0.688l-0.005 0.010c-0.142 0.273-0.226 0.596-0.226 0.939 0 0.006 0 0.011 0 0.017v-0.001c-0.001 0.016-0.001 0.035-0.001 0.053 0 0.095 0.010 0.188 0.028 0.278l-0.002-0.009zM35.721 22.251h1.378v0.719c0.187-0.232 0.417-0.42 0.68-0.554l0.012-0.005c0.285-0.147 0.622-0.233 0.98-0.233 0.018 0 0.036 0 0.054 0.001l-0.003-0q1.168 0 1.79 0.666t0.622 1.924v3.771h-1.383v-3.474q0-0.817-0.332-1.201t-0.988-0.384c-0.024-0.002-0.053-0.003-0.081-0.003-0.389 0-0.738 0.168-0.98 0.435l-0.001 0.001c-0.232 0.29-0.373 0.662-0.373 1.067 0 0.029 0.001 0.059 0.002 0.088l-0-0.004v3.469h-1.383z"></path>
</symbol>
<symbol id="icon-greenwich-stacked-logo" viewBox="0 0 59 32">
<path d="M5.145 7.7c0.61-0.5 0.93-1.222 0.93-2.025v-2.735h-1.525v0.32c-0.373-0.277-0.873-0.402-1.415-0.402-1.637 0-2.788 1.248-2.788 2.815 0 0.803 0.334 1.512 0.93 2.025-0.305 0.165-0.515 0.375-0.68 0.595l1.11 1.095c0.265-0.527 0.846-0.915 1.513-0.915 1.025 0 1.692 0.707 1.692 1.748s-0.665 1.762-1.692 1.762c-0.93 0-1.43-0.527-1.637-1.206h-1.583c0.277 1.568 1.512 2.65 3.218 2.65 1.817 0 3.245-1.262 3.245-3.203 0-1.025-0.485-1.942-1.318-2.523v-0.001zM3.218 7.035c-0.775 0-1.345-0.542-1.345-1.36 0-0.833 0.567-1.375 1.345-1.375 0.764 0 1.332 0.542 1.332 1.375 0 0.817-0.568 1.36-1.332 1.36z"></path>
<path d="M8.696 6.051c0-1.025 0.68-1.72 1.652-1.72h0.138v-1.47c-0.972 0-1.455 0.36-1.79 0.803v-0.722h-1.525v6.937h1.525v-3.828z"></path>
<path d="M14.176 9.962c1.568 0 2.913-0.845 3.385-2.108h-1.817c-0.292 0.445-0.86 0.665-1.568 0.665-0.998 0-1.79-0.707-1.955-1.582h5.397c0.028-0.165 0.042-0.345 0.042-0.527 0-1.97-1.553-3.552-3.523-3.552s-3.523 1.582-3.523 3.552 1.553 3.552 3.565 3.552h-0.003zM14.133 4.274c0.875 0 1.624 0.583 1.845 1.303h-3.69c0.223-0.722 0.973-1.303 1.845-1.303z"></path>
<path d="M21.707 9.962c1.568 0 2.913-0.845 3.385-2.108h-1.817c-0.292 0.445-0.86 0.665-1.568 0.665-0.998 0-1.79-0.707-1.955-1.582h5.397c0.028-0.165 0.042-0.345 0.042-0.527 0-1.97-1.553-3.552-3.523-3.552s-3.522 1.582-3.522 3.552 1.553 3.552 3.565 3.552h-0.004zM21.665 4.274c0.875 0 1.624 0.583 1.845 1.303h-3.69c0.222-0.722 0.972-1.303 1.845-1.303z"></path>
<path d="M27.422 6.051c0-1.025 0.527-1.748 1.525-1.748s1.512 0.527 1.512 1.748v3.83h1.525v-4.162c0-1.845-0.945-2.858-2.665-2.858-0.957 0-1.582 0.458-1.9 0.873v-0.79h-1.525v6.937h1.525v-3.83h0.003z"></path>
<path d="M36.811 9.881l0.61-1.817 0.61 1.817h1.387l2.734-6.937h-1.555l-1.832 4.98-0.595-1.775 1.207-3.203h-1.498l-0.456 1.444-0.458-1.444h-1.498l1.207 3.203-0.595 1.775-1.832-4.98h-1.555l2.734 6.937h1.385z"></path>
<path d="M44.538 1.125c0 0.575-0.459 1.040-1.025 1.040s-1.025-0.465-1.025-1.040c0-0.575 0.459-1.040 1.025-1.040s1.025 0.464 1.025 1.040z"></path>
<path d="M42.748 2.944h1.525v6.937h-1.525v-6.937z"></path>
<path d="M48.505 9.962c2.012 0 3.537-1.525 3.537-3.552h-1.525c0 1.248-0.832 2.108-2.012 2.108-1.194 0-1.998-0.86-1.998-2.108s0.803-2.108 1.998-2.108c0.61 0 1.068 0.25 1.415 0.625l1.123-1.013c-0.638-0.652-1.455-1.053-2.538-1.053-2.040 0-3.552 1.512-3.552 3.552s1.512 3.552 3.552 3.552v-0.003z"></path>
<path d="M56.15 2.859c-0.902 0-1.568 0.373-1.983 0.873v-3.732l-1.525 0.165v9.71h1.525v-3.83c0-1.013 0.625-1.748 1.61-1.748 1.053 0 1.512 0.665 1.512 1.748v3.83h1.525v-4.162c0-1.845-1.013-2.858-2.665-2.858v0.004z"></path>
<path d="M13.371 16.996h-1.525c0 1.248-0.832 2.108-2.012 2.108-1.194 0-1.998-0.86-1.998-2.108s0.805-2.108 1.998-2.108c0.61 0 1.068 0.25 1.415 0.625l1.125-1.013c-0.638-0.652-1.455-1.053-2.538-1.053-2.040 0-3.552 1.512-3.552 3.552s1.512 3.552 3.552 3.552c2.012 0 3.537-1.525 3.537-3.552l-0.002-0.003z"></path>
<path d="M13.773 16.996c0 2.025 1.498 3.552 3.552 3.552s3.552-1.525 3.552-3.552c0-2.027-1.498-3.552-3.552-3.552s-3.552 1.525-3.552 3.552zM19.322 16.996c0 1.207-0.803 2.082-1.998 2.082s-1.998-0.873-1.998-2.082 0.805-2.082 1.998-2.082c1.195-0.001 1.998 0.872 1.998 2.082z"></path>
<path d="M29.060 13.444c-0.998 0-1.568 0.402-2.093 0.957-0.375-0.61-0.972-0.957-1.817-0.957-0.764 0-1.43 0.36-1.805 0.873v-0.79h-1.526v6.937h1.525v-4.162c0-0.902 0.527-1.415 1.233-1.415 0.805 0 1.235 0.515 1.235 1.415v4.162h1.525v-4.162c0-0.902 0.527-1.415 1.233-1.415 0.818 0 1.233 0.515 1.233 1.415v4.162h1.525v-4.55c0-1.705-0.86-2.47-2.275-2.47h0.007z"></path>
<path d="M35.593 20.548c1.568 0 2.913-0.845 3.385-2.108h-1.817c-0.292 0.445-0.86 0.665-1.568 0.665-0.998 0-1.79-0.707-1.955-1.582h5.397c0.028-0.165 0.042-0.345 0.042-0.527 0-1.97-1.553-3.552-3.523-3.552s-3.525 1.582-3.525 3.552 1.553 3.552 3.565 3.552h-0.001zM35.55 14.861c0.873 0 1.623 0.583 1.845 1.305h-3.69c0.222-0.722 0.972-1.303 1.845-1.303v-0.002z"></path>
<path d="M39.558 16.996c0 2.163 1.375 3.552 3.44 3.552 0.915 0 1.595-0.375 2.040-0.805v0.722h1.525v-9.877l-1.525 0.165v3.495c-0.43-0.472-1.18-0.803-2.040-0.803-2.067 0-3.44 1.387-3.44 3.552v-0.001zM45.066 16.996c0 1.194-0.79 2.082-1.998 2.082s-2.012-0.888-2.012-2.082 0.805-2.082 2.012-2.082c1.208-0.001 1.998 0.887 1.998 2.082z"></path>
<path d="M50.212 17.565l-1.72-4.037h-1.582l2.538 5.715v2.973l-1.332 1.224v8.477h1.525v-7.994l1.332-1.224v-3.453l2.538-5.715h-1.583l-1.716 4.034z"></path>
<path d="M14.246 24.98h-2.22v-0.957c0-0.277 0.165-0.458 0.415-0.458 0.208 0 0.334 0.097 0.402 0.208l1.025-1.013c-0.36-0.445-0.875-0.638-1.498-0.638-0.972 0-1.874 0.527-1.874 1.805v1.055h-1.401v1.444h1.402v5.493h1.525v-5.493h2.22v-1.444l0.004-0.002z"></path>
<path d="M17.67 24.896c-1.97 0-3.523 1.582-3.523 3.552s1.553 3.552 3.565 3.552c1.568 0 2.913-0.845 3.385-2.108h-1.817c-0.292 0.445-0.86 0.665-1.568 0.665-0.998 0-1.79-0.707-1.955-1.582h5.397c0.028-0.165 0.042-0.345 0.042-0.527 0-1.97-1.553-3.552-3.523-3.552h-0.003zM15.828 27.615c0.222-0.722 0.972-1.303 1.845-1.303s1.624 0.583 1.845 1.303h-3.69z"></path>
<path d="M24.965 27.683c-0.75-0.277-1.525-0.265-1.525-0.873 0-0.277 0.195-0.557 0.553-0.557 0.277 0 0.5 0.18 0.61 0.458l0.945-0.93c-0.388-0.568-0.93-0.888-1.652-0.888-1.055 0-1.913 0.805-1.913 1.913 0 1.125 0.75 1.663 1.444 1.86 0.68 0.195 1.36 0.25 1.36 1.025 0 0.557-0.36 0.86-0.888 0.86-0.458 0-0.915-0.345-0.915-0.93h-1.455c0 1.318 0.945 2.372 2.372 2.372 1.402 0 2.413-0.945 2.413-2.33 0-1.18-0.638-1.72-1.345-1.983l-0.004 0.003z"></path>
<path d="M28.961 22.038l-1.525 0.165v2.773h-1.402v1.444h1.402v5.493h1.525v-5.493h2.082v-1.444h-2.082v-2.938z"></path>
<path d="M33.485 23.161c0 0.575-0.459 1.040-1.025 1.040s-1.025-0.465-1.025-1.040c0-0.575 0.459-1.040 1.025-1.040 0.565 0 1.025 0.465 1.025 1.040z"></path>
<path d="M31.695 24.98h1.525v6.937h-1.525v-6.937z"></path>
<path d="M38.7 24.98l-1.663 4.771-1.663-4.771h-1.637l2.554 6.937h1.498l2.551-6.937h-1.64z"></path>
<path d="M45.358 25.699c-0.292-0.375-1.068-0.805-1.983-0.805-1.983 0-3.482 1.47-3.482 3.552s1.498 3.552 3.482 3.552c0.93 0 1.692-0.43 1.983-0.803v0.722h1.553v-6.937h-1.553v0.719zM43.428 30.526c-1.152 0-2.040-0.945-2.040-2.082s0.888-2.082 2.040-2.082c1.125 0 1.983 0.945 1.983 2.082s-0.86 2.082-1.983 2.082z"></path>
</symbol>
<symbol id="icon-eye" viewBox="0 0 38 32">
<path fill="#000" style="fill: var(--color1, #000)" d="M34.706 5.763c-2.755 2.849-5.416 5.781-7.986 8.798-1.52 1.784 1.233 4.177 2.76 2.385 2.57-3.017 5.231-5.949 7.987-8.798 1.632-1.685-1.129-4.070-2.761-2.385z"></path>
<path fill="#000" style="fill: var(--color1, #000)" d="M23.111 1.245c-1.375 3.794-2.626 7.626-3.755 11.5-0.668 2.289 2.912 3.357 3.584 1.057 1.128-3.873 2.381-7.705 3.756-11.5 0.813-2.245-2.772-3.302-3.585-1.057z"></path>
<path fill="#000" style="fill: var(--color1, #000)" d="M10.122 2.389c0.967 3.864 2.047 7.688 3.242 11.478 0.708 2.24 4.006 1.109 3.296-1.143-1.196-3.79-2.276-7.616-3.243-11.477-0.572-2.287-3.866-1.143-3.295 1.142z"></path>
<path fill="#000" style="fill: var(--color1, #000)" d="M0.526 11.362c2.739 2.802 5.565 5.514 8.481 8.138 1.723 1.552 4.221-1.046 2.49-2.607-2.915-2.625-5.742-5.336-8.48-8.137-1.621-1.657-4.111 0.95-2.491 2.606z"></path>
<path fill="#fff" style="fill: var(--color2, #fff)" d="M37.477 18.153c0.014-0.195-0.019-0.403-0.123-0.614-3.423-6.86-11.227-11.034-18.847-10.234-7.574 0.794-14.095 6.023-17.193 12.869-0.199 0.266-0.302 0.606-0.227 0.958 0.039 0.255 0.159 0.481 0.329 0.659 1.866 2.835 4.372 5.233 7.257 6.976 0.257 0.182 0.534 0.342 0.827 0.477 0.655 0.36 1.327 0.686 2.013 0.976 0.762 0.383 1.563 0.668 2.374 0.835 2.111 0.606 4.322 0.882 6.561 0.76 7.651-0.414 14.696-5.768 16.993-13.083 0.064-0.207 0.069-0.401 0.035-0.579z"></path>
<path fill="#000" style="fill: var(--color1, #000)" d="M28.478 18.654c0.020-1.207-0.256-2.324-0.826-3.354-0.376-1.077-0.999-2.003-1.87-2.778l-0.72-0.531c-0.233-0.192-0.476-0.372-0.728-0.538l-0.351-0.26c-0.546-0.301-1.107-0.538-1.684-0.715-0.884-0.287-1.832-0.442-2.833-0.42-4.574 0.1-8.87 4.219-8.556 8.939 0.005 0.068 0.017 0.135 0.023 0.204-0.001 1.163 0.271 2.246 0.825 3.246 0.376 1.077 0.999 2.003 1.87 2.776l1.798 1.33c1.383 0.762 2.862 1.127 4.441 1.098 0.772-0.121 1.545-0.241 2.317-0.363 1.473-0.448 2.742-1.226 3.811-2.334 0.017-0.021 0.037-0.039 0.055-0.059 0.761-0.738 1.3-1.599 1.64-2.568 0.088-0.187 0.165-0.379 0.237-0.57 0.43-0.972 0.616-2.008 0.551-3.104z"></path>
</symbol>
<symbol id="icon-tickets" viewBox="0 0 58 32">
<path d="M57.714 30h-57.714v1.714h57.714v-1.714zM57.714 25.143h-57.714v1.714h57.714v-1.714zM7.111 12v0c-0.185 0-0.254 0.080-0.254 0.263v1.623c0 0.183 0.069 0.263 0.254 0.263h1.905c0.185 0 0.254 0.080 0.254 0.263v5.326c0 0.183 0.069 0.263 0.254 0.263h1.524c0.185 0 0.254-0.080 0.254-0.263v-5.326c0-0.183 0.069-0.263 0.254-0.263h1.905c0.185 0 0.254-0.080 0.254-0.263v-1.623c0-0.183-0.069-0.263-0.254-0.263zM14.553 12v0c-0.195 0-0.267 0.069-0.267 0.251v7.497c0 0.183 0.073 0.251 0.267 0.251h1.751c0.195 0 0.267-0.069 0.267-0.251v-7.497c0-0.183-0.073-0.251-0.267-0.251zM21.058 12c-2.266 0-3.916 1.678-3.916 4s1.649 4 3.916 4c1.492 0 2.827-0.722 3.444-2 0.090-0.189 0.123-0.356-0.101-0.467l-1.279-0.6c-0.191-0.089-0.28-0.067-0.404 0.1-0.404 0.556-0.92 0.856-1.649 0.856-1.077 0-1.874-0.833-1.874-1.889s0.797-1.889 1.874-1.889c0.729 0 1.245 0.3 1.649 0.856 0.123 0.167 0.213 0.189 0.404 0.1l1.279-0.6c0.224-0.111 0.191-0.278 0.101-0.467-0.617-1.278-1.952-2-3.444-2zM25.386 12v0c-0.177 0-0.243 0.080-0.243 0.263v7.474c0 0.183 0.066 0.263 0.243 0.263h1.505c0.177 0 0.243-0.080 0.243-0.263v-1.771c0-0.206 0.022-0.286 0.166-0.446l0.221-0.251c0.111-0.126 0.243-0.126 0.343 0.023l1.682 2.434c0.166 0.229 0.31 0.274 0.509 0.274h1.738c0.21 0 0.255-0.183 0.155-0.331l-2.634-3.829c-0.066-0.091-0.111-0.171-0.111-0.251s0.055-0.16 0.166-0.286l2.557-2.971c0.133-0.16 0.066-0.331-0.133-0.331h-1.948c-0.221 0-0.365 0.080-0.564 0.309l-1.859 2.183c-0.122 0.137-0.288 0.114-0.288-0.080v-2.149c0-0.183-0.066-0.263-0.243-0.263zM32.806 12v0c-0.17 0-0.234 0.080-0.234 0.263v7.474c0 0.183 0.064 0.263 0.234 0.263h4.674c0.17 0 0.234-0.080 0.234-0.263v-1.611c0-0.183-0.064-0.263-0.234-0.263h-2.843c-0.17 0-0.234-0.080-0.234-0.263v-0.411c0-0.183 0.064-0.263 0.234-0.263h2.311c0.17 0 0.234-0.080 0.234-0.263v-1.314c0-0.183-0.064-0.263-0.234-0.263h-2.311c-0.17 0-0.234-0.080-0.234-0.263v-0.423c0-0.183 0.064-0.263 0.234-0.263h2.843c0.17 0 0.234-0.080 0.234-0.263v-1.611c0-0.183-0.064-0.263-0.234-0.263zM44.889 12c0.185 0 0.254 0.080 0.254 0.263v0 1.623c0 0.183-0.069 0.263-0.254 0.263v0h-1.905c-0.185 0-0.254 0.080-0.254 0.263v0 5.326c0 0.183-0.069 0.263-0.254 0.263v0h-1.524c-0.185 0-0.254-0.080-0.254-0.263v0-5.326c0-0.183-0.069-0.263-0.254-0.263v0h-1.905c-0.185 0-0.254-0.080-0.254-0.263v0-1.623c0-0.183 0.069-0.263 0.254-0.263v0zM48.405 12c1.072 0 2.005 0.411 2.734 1.011 0.15 0.122 0.279 0.256 0.107 0.456v0l-0.986 1.1c-0.118 0.122-0.225 0.122-0.375 0-0.45-0.378-1.051-0.567-1.619-0.567-0.686 0-1.051 0.233-1.051 0.533 0 0.267 0.182 0.467 0.901 0.467v0h0.386c1.651 0 2.927 0.667 2.927 2.267 0 1.778-1.372 2.733-3.045 2.733-1.319 0-2.38-0.5-3.13-1.289-0.118-0.122-0.161-0.256-0.032-0.389v0l1.083-1.067c0.139-0.133 0.225-0.133 0.364 0.011 0.397 0.4 1.072 0.733 1.833 0.733 0.665 0 1.008-0.233 1.008-0.544s-0.225-0.456-0.879-0.456v0h-0.311c-1.672 0-3.023-0.567-3.023-2.3 0-1.7 1.34-2.7 3.109-2.7zM57.714 4.857h-57.714v1.714h57.714v-1.714zM57.714 0h-57.714v1.714h57.714v-1.714z"></path>
</symbol>
<symbol id="icon-brighton-stacked-logo" viewBox="0 0 42 32">
<path d="M3.201 7.582c1.078 0 1.796-0.793 1.796-1.858s-0.718-1.858-1.796-1.858c-1.078 0-1.784 0.793-1.784 1.858s0.706 1.858 1.784 1.858zM0.079 8.82v-8.671l1.363-0.149v3.27c0.384-0.421 1.053-0.718 1.821-0.718 1.846 0 3.072 1.239 3.072 3.171s-1.226 3.172-3.072 3.172c-0.818 0-1.425-0.335-1.821-0.719v0.644h-1.363z"></path>
<path d="M7.048 2.627h1.363v0.644c0.297-0.397 0.731-0.718 1.598-0.718v1.313h-0.124c-0.868 0-1.474 0.62-1.474 1.536v3.419h-1.363v-6.194z"></path>
<path d="M10.434 8.82h1.363v-6.194h-1.363v6.194zM11.115 0.075c0.508 0 0.917 0.409 0.917 0.929s-0.409 0.929-0.917 0.929c-0.507 0-0.916-0.408-0.916-0.929s0.409-0.929 0.916-0.929z"></path>
<path d="M15.125 6.281c0.681 0 1.19-0.484 1.19-1.214 0-0.743-0.508-1.226-1.19-1.226-0.694 0-1.202 0.483-1.202 1.226 0 0.731 0.508 1.214 1.202 1.214zM15.051 2.552c0.483 0 0.929 0.111 1.264 0.359v-0.285h1.362v2.44c0 0.718-0.284 1.363-0.83 1.809 0.743 0.521 1.177 1.338 1.177 2.255 0 1.735-1.275 2.861-2.899 2.861-1.524 0-2.627-0.966-2.874-2.366h1.412c0.185 0.607 0.632 1.078 1.462 1.078 0.917 0 1.512-0.644 1.512-1.573s-0.595-1.561-1.512-1.561c-0.595 0-1.115 0.347-1.35 0.818l-0.991-0.979c0.149-0.198 0.334-0.385 0.607-0.533-0.533-0.458-0.83-1.090-0.83-1.809 0-1.399 1.028-2.515 2.49-2.515z"></path>
<path d="M18.698 0.149l1.363-0.149v3.333c0.371-0.446 0.966-0.78 1.771-0.78 1.475 0 2.379 0.904 2.379 2.552v3.717h-1.363v-3.419c0-0.966-0.409-1.561-1.35-1.561-0.879 0-1.437 0.657-1.437 1.561v3.419h-1.363v-8.671z"></path>
<path d="M25.715 0.149l1.363-0.149v2.627h1.858v1.288h-1.858v4.906h-1.363v-4.906h-1.251v-1.288h1.251z"></path>
<path d="M32.132 7.582c1.065 0 1.784-0.78 1.784-1.858s-0.719-1.858-1.784-1.858c-1.065 0-1.784 0.78-1.784 1.858s0.719 1.858 1.784 1.858zM32.132 2.553c1.833 0 3.172 1.363 3.172 3.171s-1.338 3.172-3.172 3.172c-1.834 0-3.172-1.363-3.172-3.172s1.338-3.171 3.172-3.171z"></path>
<path d="M35.989 2.627h1.363v0.706c0.284-0.372 0.842-0.78 1.697-0.78 1.536 0 2.378 0.904 2.378 2.552v3.717h-1.363v-3.419c0-1.090-0.458-1.56-1.35-1.56s-1.363 0.644-1.363 1.56v3.419h-1.363v-6.194z"></path>
<path d="M3.171 17.413c1.053 0 1.796-0.768 1.796-1.883h1.363c0 1.808-1.363 3.171-3.159 3.171-1.821 0-3.172-1.351-3.172-3.171 0-1.822 1.351-3.172 3.172-3.172 0.966 0 1.697 0.359 2.267 0.941l-1.004 0.904c-0.31-0.334-0.718-0.557-1.263-0.557-1.065 0-1.784 0.768-1.784 1.883s0.719 1.883 1.784 1.883z"></path>
<path d="M9.776 17.388c1.065 0 1.784-0.78 1.784-1.858s-0.719-1.858-1.784-1.858c-1.065 0-1.784 0.78-1.784 1.858s0.719 1.858 1.784 1.858zM9.776 12.359c1.833 0 3.172 1.363 3.172 3.171s-1.338 3.172-3.172 3.172c-1.834 0-3.172-1.363-3.172-3.172s1.338-3.171 3.172-3.171z"></path>
<path d="M13.633 12.433h1.363v0.706c0.334-0.459 0.929-0.78 1.61-0.78 0.756 0 1.288 0.31 1.623 0.855 0.471-0.496 0.979-0.855 1.87-0.855 1.264 0 2.032 0.682 2.032 2.205v4.063h-1.363v-3.717c0-0.805-0.372-1.263-1.103-1.263-0.631 0-1.102 0.458-1.102 1.263v3.717h-1.363v-3.717c0-0.805-0.384-1.263-1.102-1.263-0.632 0-1.102 0.458-1.102 1.263v3.717h-1.363v-6.194z"></path>
<path d="M24.252 14.787h3.295c-0.198-0.645-0.867-1.165-1.647-1.165s-1.449 0.52-1.647 1.165zM24.19 16.001c0.149 0.78 0.855 1.412 1.747 1.412 0.632 0 1.14-0.199 1.4-0.595h1.622c-0.421 1.127-1.622 1.883-3.022 1.883-1.797 0-3.183-1.412-3.183-3.172s1.387-3.171 3.146-3.171 3.146 1.412 3.146 3.171c0 0.161-0.012 0.322-0.037 0.471h-4.819z"></path>
<path d="M32.503 13.672c-1.078 0-1.796 0.793-1.796 1.859 0 1.065 0.718 1.858 1.796 1.858s1.784-0.793 1.784-1.858c0-1.066-0.706-1.859-1.784-1.859zM34.262 18.627v-0.644c-0.396 0.384-1.003 0.718-1.821 0.718-1.846 0-3.072-1.239-3.072-3.171s1.226-3.172 3.072-3.172c0.768 0 1.437 0.297 1.821 0.718v-3.122l1.363-0.149v8.821h-1.363z"></path>
<path d="M37.33 12.433l1.537 3.605 1.536-3.605h1.412l-2.267 5.104v4.187l-1.363 0.149v-4.336l-2.267-5.104z"></path>
<path d="M5.506 25.894c0.681 0 1.19-0.484 1.19-1.214 0-0.743-0.508-1.226-1.19-1.226-0.694 0-1.202 0.483-1.202 1.226 0 0.731 0.508 1.214 1.202 1.214zM5.432 22.165c0.483 0 0.929 0.111 1.264 0.359v-0.285h1.362v2.44c0 0.718-0.284 1.363-0.83 1.809 0.743 0.521 1.177 1.338 1.177 2.255 0 1.735-1.275 2.861-2.899 2.861-1.524 0-2.627-0.966-2.874-2.366h1.412c0.185 0.607 0.632 1.078 1.462 1.078 0.917 0 1.512-0.644 1.512-1.573s-0.595-1.561-1.512-1.561c-0.595 0-1.115 0.347-1.35 0.818l-0.991-0.979c0.149-0.198 0.334-0.385 0.607-0.533-0.533-0.458-0.83-1.090-0.83-1.809 0-1.399 1.028-2.515 2.49-2.515z"></path>
<path d="M11.774 23.478c-1.028 0-1.821 0.842-1.821 1.859 0 1.015 0.793 1.858 1.821 1.858 1.003 0 1.772-0.842 1.772-1.858s-0.769-1.859-1.772-1.859zM14.883 22.24v6.194h-1.387v-0.644c-0.26 0.334-0.941 0.718-1.771 0.718-1.771 0-3.109-1.314-3.109-3.171 0-1.859 1.338-3.172 3.109-3.172 0.818 0 1.511 0.384 1.771 0.718v-0.644h1.387z"></path>
<path d="M15.972 22.239h1.363v0.644c0.297-0.397 0.731-0.718 1.598-0.718v1.313h-0.124c-0.868 0-1.474 0.62-1.474 1.536v3.419h-1.363v-6.194z"></path>
<path d="M22.072 23.478c-1.078 0-1.796 0.793-1.796 1.859 0 1.065 0.718 1.858 1.796 1.858s1.784-0.793 1.784-1.858c0-1.066-0.706-1.859-1.784-1.859zM23.831 28.434v-0.644c-0.396 0.384-1.003 0.718-1.821 0.718-1.846 0-3.072-1.239-3.072-3.171s1.226-3.172 3.072-3.172c0.768 0 1.437 0.297 1.821 0.718v-3.122l1.363-0.149v8.821h-1.363z"></path>
<path d="M27.379 24.593h3.295c-0.198-0.645-0.867-1.165-1.647-1.165s-1.449 0.52-1.647 1.165zM27.317 25.808c0.149 0.78 0.855 1.412 1.747 1.412 0.632 0 1.14-0.199 1.4-0.595h1.622c-0.421 1.127-1.622 1.883-3.022 1.883-1.797 0-3.183-1.412-3.183-3.172s1.387-3.171 3.146-3.171 3.146 1.412 3.146 3.171c0 0.161-0.012 0.322-0.037 0.471h-4.819z"></path>
<path d="M32.864 22.239h1.363v0.706c0.284-0.372 0.842-0.78 1.697-0.78 1.536 0 2.378 0.904 2.378 2.552v3.717h-1.363v-3.419c0-1.090-0.458-1.56-1.35-1.56s-1.363 0.644-1.363 1.56v3.419h-1.363v-6.194z"></path>
</symbol>
<symbol id="icon-bristol-stacked-logo" viewBox="0 0 44 32">
<path d="M9.535 7.924c1.13 0 1.883-0.829 1.883-1.942s-0.753-1.942-1.883-1.942c-1.13 0-1.87 0.829-1.87 1.942s0.74 1.942 1.87 1.942zM6.263 9.218v-9.063l1.428-0.156v3.418c0.402-0.44 1.104-0.75 1.909-0.75 1.934 0 3.22 1.295 3.22 3.314s-1.285 3.315-3.22 3.315c-0.857 0-1.493-0.35-1.909-0.751v0.673h-1.428z"></path>
<path d="M13.602 2.72h1.441v0.674c0.314-0.415 0.773-0.751 1.69-0.751v1.373h-0.131c-0.918 0-1.559 0.648-1.559 1.607v3.577h-1.441v-6.479z"></path>
<path d="M17.279 9.199h1.455v-6.446h-1.455v6.446zM18.006 0.098c0.543 0 0.979 0.425 0.979 0.967s-0.436 0.967-0.979 0.967c-0.542 0-0.978-0.425-0.978-0.967s0.436-0.967 0.978-0.967z"></path>
<path d="M20.747 7.074c0 0.546 0.431 0.871 0.861 0.871 0.496 0 0.835-0.286 0.835-0.806 0-0.728-0.64-0.78-1.279-0.962-0.653-0.182-1.357-0.689-1.357-1.741 0-1.040 0.809-1.793 1.801-1.793 0.678 0 1.187 0.299 1.552 0.832l-0.887 0.871c-0.104-0.26-0.314-0.429-0.574-0.429-0.339 0-0.522 0.26-0.522 0.52 0 0.572 0.731 0.559 1.435 0.819 0.665 0.246 1.265 0.753 1.265 1.858 0 1.3-0.952 2.184-2.27 2.184-1.344 0-2.231-0.988-2.231-2.223h1.37z"></path>
<path d="M24.996 0.156l1.432-0.156v2.739h1.952v1.343h-1.952v5.116h-1.432v-5.116h-1.314v-1.343h1.314z"></path>
<path d="M31.804 7.919c1.117 0 1.871-0.819 1.871-1.949s-0.754-1.949-1.871-1.949c-1.118 0-1.872 0.819-1.872 1.949s0.754 1.949 1.872 1.949zM31.804 2.642c1.923 0 3.327 1.43 3.327 3.327s-1.404 3.328-3.327 3.328c-1.924 0-3.327-1.43-3.327-3.328s1.403-3.327 3.327-3.327z"></path>
<path d="M35.914 0.156l1.468-0.156v9.199h-1.468z"></path>
<path d="M3.334 17.633c1.107 0 1.888-0.806 1.888-1.975h1.432c0 1.897-1.432 3.327-3.32 3.327-1.914 0-3.334-1.417-3.334-3.327 0-1.911 1.42-3.328 3.334-3.328 1.016 0 1.784 0.376 2.383 0.988l-1.055 0.949c-0.326-0.351-0.755-0.585-1.328-0.585-1.12 0-1.876 0.806-1.876 1.976s0.756 1.975 1.876 1.975z"></path>
<path d="M10.275 17.607c1.117 0 1.871-0.819 1.871-1.949s-0.754-1.949-1.871-1.949c-1.118 0-1.872 0.819-1.872 1.949s0.754 1.949 1.872 1.949zM10.275 12.33c1.923 0 3.327 1.43 3.327 3.327s-1.404 3.327-3.327 3.327c-1.924 0-3.327-1.43-3.327-3.328s1.403-3.327 3.327-3.327z"></path>
<path d="M14.385 12.506h1.428v0.739c0.35-0.48 0.973-0.816 1.687-0.816 0.792 0 1.35 0.324 1.7 0.895 0.493-0.519 1.026-0.895 1.96-0.895 1.325 0 2.129 0.713 2.129 2.306v4.25h-1.428v-3.888c0-0.842-0.39-1.321-1.156-1.321-0.661 0-1.155 0.479-1.155 1.321v3.888h-1.428v-3.888c0-0.842-0.402-1.321-1.155-1.321-0.662 0-1.155 0.479-1.155 1.321v3.888h-1.428v-6.479z"></path>
<path d="M25.635 14.877h3.433c-0.206-0.676-0.903-1.222-1.717-1.222s-1.51 0.546-1.717 1.222zM25.571 16.152c0.155 0.818 0.891 1.482 1.82 1.482 0.658 0 1.187-0.208 1.459-0.624h1.69c-0.438 1.182-1.69 1.975-3.149 1.975-1.872 0-3.317-1.482-3.317-3.328s1.445-3.327 3.278-3.327 3.278 1.482 3.278 3.327c0 0.169-0.012 0.337-0.038 0.494h-5.021z"></path>
<path d="M34.306 13.728c-1.129 0-1.882 0.829-1.882 1.942s0.753 1.941 1.882 1.941 1.869-0.829 1.869-1.941c0-1.114-0.74-1.942-1.869-1.942zM36.149 18.907v-0.673c-0.415 0.401-1.052 0.751-1.908 0.751-1.934 0-3.22-1.295-3.22-3.314s1.285-3.315 3.22-3.315c0.805 0 1.506 0.311 1.908 0.751v-3.263l1.429-0.156v9.219h-1.429z"></path>
<path d="M39.446 12.428l1.606 3.774 1.606-3.774h1.476l-2.37 5.344v4.384l-1.425 0.156v-4.54l-2.37-5.344z"></path>
<path d="M5.761 26.021c0.716 0 1.25-0.506 1.25-1.272 0-0.778-0.534-1.284-1.25-1.284-0.729 0-1.263 0.506-1.263 1.284 0 0.765 0.534 1.272 1.263 1.272zM5.683 22.116c0.508 0 0.976 0.116 1.329 0.376v-0.298h1.432v2.555c0 0.752-0.299 1.427-0.872 1.894 0.781 0.545 1.237 1.401 1.237 2.361 0 1.816-1.341 2.996-3.047 2.996-1.601 0-2.761-1.012-3.021-2.477h1.484c0.195 0.636 0.664 1.128 1.536 1.128 0.963 0 1.589-0.674 1.589-1.647s-0.625-1.634-1.589-1.634c-0.625 0-1.172 0.363-1.419 0.856l-1.042-1.025c0.156-0.208 0.351-0.403 0.638-0.558-0.56-0.479-0.873-1.141-0.873-1.894 0-1.465 1.081-2.633 2.618-2.633z"></path>
<path d="M12.405 23.494c-1.075 0-1.905 0.884-1.905 1.95s0.829 1.949 1.905 1.949c1.050 0 1.854-0.884 1.854-1.949s-0.804-1.95-1.854-1.95zM15.658 22.194v6.498h-1.451v-0.676c-0.272 0.351-0.984 0.754-1.853 0.754-1.853 0-3.252-1.378-3.252-3.327 0-1.95 1.399-3.328 3.252-3.328 0.855 0 1.581 0.403 1.853 0.754v-0.676h1.451z"></path>
<path d="M16.832 22.194h1.441v0.674c0.314-0.415 0.773-0.751 1.69-0.751v1.373h-0.131c-0.918 0-1.559 0.648-1.559 1.607v3.577h-1.441v-6.479z"></path>
<path d="M23.346 23.514c-1.129 0-1.882 0.829-1.882 1.942s0.753 1.941 1.882 1.941 1.869-0.829 1.869-1.941c0-1.114-0.74-1.942-1.869-1.942zM25.189 28.693v-0.673c-0.415 0.401-1.052 0.751-1.908 0.751-1.934 0-3.22-1.295-3.22-3.314s1.285-3.315 3.22-3.315c0.805 0 1.506 0.311 1.908 0.751v-3.262l1.429-0.156v9.219h-1.429z"></path>
<path d="M28.962 24.663h3.433c-0.206-0.676-0.903-1.222-1.717-1.222s-1.51 0.546-1.717 1.222zM28.898 25.938c0.155 0.818 0.891 1.482 1.82 1.482 0.658 0 1.187-0.208 1.459-0.624h1.69c-0.438 1.182-1.69 1.975-3.149 1.975-1.872 0-3.317-1.482-3.317-3.328s1.445-3.327 3.278-3.327 3.278 1.482 3.278 3.327c0 0.169-0.012 0.337-0.038 0.494h-5.021z"></path>
<path d="M34.74 22.194h1.422v0.739c0.297-0.389 0.879-0.816 1.771-0.816 1.603 0 2.482 0.946 2.482 2.669v3.888h-1.422v-3.577c0-1.14-0.478-1.632-1.409-1.632s-1.422 0.674-1.422 1.632v3.577h-1.422v-6.479z"></path>
</symbol>
</defs>
</svg>
