<svg aria-hidden="true" style="position: absolute; width: 0; height: 0; overflow: hidden;" version="1.1" xmlns="http://www.w3.org/2000/svg" xmlns:xlink="http://www.w3.org/1999/xlink">
<defs>
<symbol id="icon-arrow_back" viewBox="0 0 24 24">
<title>arrow_back</title>
<path d="M20.016 11.016v1.969h-12.188l5.578 5.625-1.406 1.406-8.016-8.016 8.016-8.016 1.406 1.406-5.578 5.625h12.188z"></path>
</symbol>
<symbol id="icon-arrow_forward" viewBox="0 0 24 24">
<title>arrow_forward</title>
<path d="M12 3.984l8.016 8.016-8.016 8.016-1.406-1.406 5.578-5.625h-12.188v-1.969h12.188l-5.578-5.625z"></path>
</symbol>
<symbol id="icon-grid_view" viewBox="0 0 24 24">
<title>grid_view</title>
<path d="M18.984 18.984v-3.984h-3.984v3.984h3.984zM12.984 12.984h8.016v8.016h-8.016v-8.016zM18.984 9v-3.984h-3.984v3.984h3.984zM12.984 3h8.016v8.016h-8.016v-8.016zM9 18.984v-3.984h-3.984v3.984h3.984zM3 12.984h8.016v8.016h-8.016v-8.016zM9 9v-3.984h-3.984v3.984h3.984zM3 3h8.016v8.016h-8.016v-8.016z"></path>
</symbol>
<symbol id="icon-view" viewBox="0 0 42 32">
<title>view</title>
<path d="M9.536 6.176c0.128 0 0.256 0.032 0.416 0.064 0.32 0.064 0.736 0 1.024 0.064 0.192 0.032 0.32 0.096 0.448 0.128 0.224 0.064 0.448 0 0.64 0.064 0.096 0 0.128 0.096 0.192 0.128 0.384 0.128 0.704 0.192 1.024 0.384 0.096 0.064 0.224 0.096 0.352 0.192 0.096 0.064 0.192 0.192 0.288 0.224 0.224 0.128 0.384 0.32 0.608 0.544 0.192 0.192 0.416 0.352 0.544 0.608 0.064 0.128 0.224 0.192 0.32 0.352 0.064 0.192 0.256 0.32 0.352 0.448 0.032 0.064 0.032 0.16 0.064 0.192l0.128 0.256c0.032 0.064 0.128 0.128 0.192 0.192 0.096 0.16 0.192 0.48 0.32 0.704l0.128 0.128c0.032 0.064 0 0.16 0.064 0.256 0.128 0.192 0.288 0.352 0.704 0.288l0.16-0.096c1.216-0.256 3.328-0.256 4.544 0 0.096 0.032 0.32 0.16 0.48 0.064 0.288-0.16 0.416-0.544 0.608-0.832s0.288-0.704 0.512-1.024l0.224-0.288c0.064-0.096 0.096-0.224 0.16-0.288l0.384-0.512c0.064-0.096 0.224-0.16 0.288-0.288 0.16-0.192 0.288-0.416 0.48-0.544l0.288-0.16c0.16-0.096 0.288-0.288 0.48-0.416l0.192-0.064c0.16-0.096 0.352-0.288 0.544-0.32 0.032-0.032 0.128 0 0.192 0l0.416-0.128c0.096-0.032 0.224 0.032 0.32 0 0.16-0.032 0.192-0.032 0.352 0 0.192 0.032 0.544 0.032 0.736 0 0.256-0.032 0.512-0.064 0.864 0l0.512 0.128c0.224 0.032 0.416 0 0.64 0.064 0.16 0.032 0.256 0.096 0.448 0.128 0.384 0.064 0.64 0.288 1.024 0.384 0.256 0.064 0.608 0.32 0.896 0.48l0.608 0.352c0.288 0.192 0.48 0.384 0.704 0.544 0.128 0.096 0.256 0.128 0.384 0.224s0.224 0.288 0.352 0.416c0.448 0.288 0.832 0.608 1.12 0.992l0.608 0.928c0.064 0.096 0.064 0.288 0.128 0.448 0.064 0.192 0.224 0.416 0.32 0.704 0.128 0.352 0.416 0.768 1.024 0.672 0.384-0.064 0.8-0.096 1.12 0 0.16 0.064 0.288 0.288 0.32 0.512 0.032 0.128-0.032 0.256 0 0.384 0 0.064 0.064 0.064 0.064 0.128 0.032 0.128 0 0.256 0 0.384 0.064 0.288 0.064 0.608 0 0.896 0 0.032-0.064 0.064-0.064 0.128-0.032 0.096 0.032 0.256 0 0.384 0 0.096-0.096 0.192-0.128 0.288-0.064 0.288-0.096 0.608-0.352 0.672-0.288 0.096-0.928-0.128-1.184 0-0.032 0-0.192 0.224-0.224 0.288-0.128 0.16-0.096 0.256-0.128 0.448-0.064 0.288-0.192 0.544-0.256 0.832-0.064 0.224-0.192 0.512-0.256 0.704-0.064 0.224-0.224 0.512-0.32 0.672l-0.192 0.32c-0.064 0.096-0.192 0.128-0.224 0.224-0.032 0.064 0 0.096-0.032 0.192-0.192 0.32-0.448 0.544-0.768 0.864-0.544 0.544-0.992 0.896-1.664 1.344-0.256 0.16-0.64 0.32-0.928 0.448-0.128 0.032-0.224 0.16-0.352 0.192-0.16 0.064-0.32 0.064-0.48 0.128-0.288 0.096-0.544 0.256-0.8 0.32-0.096 0-0.256-0.032-0.32 0-0.064 0-0.096 0.032-0.128 0.064-0.256 0.032-0.512 0-0.768 0.064-0.032 0-0.096 0.064-0.16 0.064-0.128 0.032-0.32-0.032-0.48 0-0.192 0.032-0.256 0.032-0.448 0-0.224-0.032-0.448 0.032-0.64 0-0.064 0-0.096-0.064-0.128-0.064-0.32-0.064-0.512-0.032-0.768-0.064-0.064-0.032-0.064-0.064-0.128-0.064-0.128-0.032-0.256 0.032-0.384 0l-0.416-0.128c-0.256-0.096-0.48-0.256-0.704-0.32-0.128-0.032-0.128-0.064-0.224-0.128-0.384-0.256-0.928-0.384-1.312-0.64-0.256-0.16-0.416-0.448-0.672-0.608-0.32-0.256-0.448-0.544-0.672-0.96-0.096-0.192-0.16-0.288-0.192-0.544 0-0.032-0.032-0.128-0.064-0.192l-0.384-0.896c-0.064-0.224-0.16-0.448-0.192-0.608-0.096-0.352-0.16-0.832-0.256-1.184-0.064-0.352 0.032-0.768-0.064-1.152 0-0.032-0.064-0.096-0.064-0.16-0.032-0.192 0.064-0.512 0-0.704-0.032-0.096-0.288-0.32-0.384-0.32-0.096-0.032-0.224 0-0.256 0l-0.192-0.096c-0.064 0-0.16 0.032-0.224 0-0.672-0.096-1.76-0.128-2.336 0-0.352 0.096-0.8 0.288-0.896 0.64 0 0.064 0.032 0.16 0 0.256 0 0.032-0.032 0.064-0.064 0.128 0 0.096 0.032 0.192 0 0.32 0 0.032-0.032 0.064-0.032 0.096-0.064 0.256-0.032 0.576-0.064 0.832-0.032 0.128-0.16 0.256-0.224 0.448-0.032 0.192 0 0.288-0.032 0.512-0.064 0.288-0.224 0.608-0.32 0.864s-0.384 0.512-0.448 0.736c-0.032 0.064 0 0.128 0 0.16l-0.128 0.064c-0.064 0.064-0.064 0.224-0.128 0.32-0.128 0.192-0.32 0.352-0.448 0.544 0 0.032 0 0.096-0.032 0.128-0.064 0.096-0.224 0.128-0.288 0.256-0.128 0.224-0.352 0.416-0.576 0.64-0.32 0.32-0.544 0.544-0.896 0.8l-0.576 0.288c-0.192 0.128-0.512 0.256-0.736 0.352l-0.256 0.192c-0.224 0.064-0.512 0-0.704 0.064-0.064 0-0.064 0.064-0.096 0.064-0.16 0.032-0.352-0.032-0.544 0-0.16 0.032-0.64 0.096-0.96 0.064-0.224-0.064-0.48-0.032-0.64-0.064-0.032-0.032-0.096-0.064-0.128-0.064-0.096-0.032-0.256 0.032-0.384 0-0.032 0-0.064-0.064-0.128-0.064l-0.48-0.064-0.704-0.192-0.16-0.128c-0.384-0.128-0.832-0.256-1.152-0.448-0.128-0.096-0.352-0.192-0.544-0.32-0.384-0.288-0.704-0.608-1.088-0.992-0.416-0.416-0.672-0.704-0.992-1.184-0.032-0.064-0.032-0.128-0.096-0.192-0.192-0.352-0.416-0.608-0.48-0.928-0.064-0.288-0.32-0.576-0.448-0.864-0.064-0.192-0.096-0.352-0.128-0.544-0.032-0.16-0.16-0.288-0.192-0.416-0.096-0.416-0.16-0.864-0.64-0.96-0.096-0.032-0.16 0.064-0.224 0.064-0.192 0.032-0.448-0.032-0.576-0.064-0.224-0.064-0.448 0.064-0.576-0.064l-0.16-0.32c-0.064-0.288 0.032-0.64-0.064-1.024-0.032-0.192-0.096-0.96-0.032-1.216 0.064-0.32 0.064-0.96 0.352-1.088 0.448-0.224 1.152 0.064 1.76-0.064 0.416-0.096 0.64-0.864 0.8-1.248l0.064-0.288c0.096-0.256 0.288-0.512 0.448-0.768 0.064-0.096 0.064-0.256 0.128-0.352 0.224-0.352 0.416-0.768 0.704-1.12 0.16-0.288 0.48-0.544 0.736-0.8 0.224-0.224 0.448-0.48 0.704-0.672 0.352-0.256 0.704-0.416 1.152-0.576 0.352-0.128 0.608-0.32 0.992-0.384 0.096-0.032 0.16 0 0.256 0 0.064 0 0.096-0.064 0.16-0.064 0.352-0.096 0.896-0.128 1.216-0.192zM28.256 10.272l-0.32 0.128c-0.352 0.128-0.512 0.448-0.704 0.768l-0.064 0.224c-0.032 0.032-0.096 0-0.096 0.032-0.032 0.064 0 0.16-0.032 0.256s-0.16 0.224-0.192 0.352c-0.128 0.32-0.288 0.704-0.384 1.056-0.064 0.16-0.032 0.384-0.064 0.544s-0.16 0.352-0.192 0.544c-0.032 0.224 0.032 0.448 0 0.576 0 0.128-0.128 0.16-0.128 0.224-0.064 0.256 0.032 0.544 0 0.832-0.032 0.128-0.096 0.256-0.064 0.384s0.128 0.256 0.128 0.352c0.064 0.32 0.032 0.64 0.064 0.896 0.032 0.16 0.16 0.32 0.192 0.448 0.096 0.32 0.256 0.608 0.384 0.832l0.064 0.192c0.416 0.608 1.216 1.088 2.016 1.28 0.16 0.032 0.32-0.032 0.544-0.064 0.192-0.032 0.352 0.032 0.448 0 0.064 0 0.096-0.064 0.16-0.064 0.064-0.032 0.224 0 0.32 0l0.448-0.128c0.544-0.192 1.024-0.608 1.472-0.896l0.224-0.16c0.544-0.32 0.896-1.024 1.12-1.632l0.128-0.192c0.064-0.288 0.064-0.512 0.128-0.8l0.128-0.352c0.096-0.512-0.032-1.152-0.128-1.664-0.032-0.096 0.032-0.224 0-0.32s-0.096-0.192-0.128-0.32c-0.096-0.288-0.192-0.512-0.32-0.704-0.064-0.096-0.064-0.224-0.128-0.32-0.16-0.288-0.384-0.48-0.64-0.608-0.512-0.32-1.024-0.768-1.6-1.024-0.128-0.032-0.224-0.128-0.32-0.16-0.352-0.16-0.672-0.192-1.024-0.32-0.064-0.032-0.128-0.128-0.224-0.128-0.096-0.032-0.224-0.064-0.288-0.064-0.224-0.064-0.768-0.032-0.928 0zM8.8 10.144c-0.224 0.128-0.416 0.192-0.608 0.32-0.448 0.32-0.864 0.96-1.184 1.44-0.128 0.192-0.352 0.672-0.384 0.832-0.16 0.512-0.384 0.928-0.448 1.408-0.032 0.096 0 0.288 0 0.384-0.032 0.032-0.064 0.032-0.064 0.096-0.064 0.16 0.032 0.256 0.064 0.384 0.064 0.416 0 0.864 0.064 1.184 0.064 0.384 0.256 0.768 0.384 1.088 0.064 0.192 0.16 0.32 0.288 0.512 0.32 0.48 0.608 1.024 1.056 1.312 0.448 0.32 0.768 0.48 1.28 0.704 0.128 0.064 0.32 0.224 0.448 0.256 0.224 0.032 0.768 0 0.928-0.064 0.448-0.16 1.152-0.64 1.568-0.928 0.096-0.096 0.192-0.128 0.352-0.224l0.256-0.256c0.224-0.32 0.48-0.896 0.64-1.248l0.192-0.704c0.032-0.224 0-0.48 0.064-0.768 0.032-0.224 0.032-0.576 0-0.8-0.032-0.064-0.128-0.192-0.16-0.288-0.032-0.192 0.064-0.416 0-0.608-0.032-0.192-0.128-0.352-0.16-0.576-0.064-0.256-0.128-0.416-0.192-0.608-0.16-0.352-0.448-0.928-0.64-1.248-0.096-0.16-0.16-0.384-0.256-0.512s-0.224-0.192-0.32-0.32c-0.128-0.192-0.384-0.48-0.576-0.576-0.224-0.16-0.544-0.192-0.768-0.256-0.096-0.032-0.16-0.128-0.224-0.128-0.224-0.064-0.608-0.096-0.864-0.064-0.352 0.096-0.416 0.096-0.736 0.256z"></path>
</symbol>
<symbol id="icon-flag" viewBox="0 0 17 32">
<title>flag</title>
<path d="M1.952 1.472c0.192-0.064 0.672-0.096 0.928-0.032 0.064 0 0.128 0.064 0.16 0.064 0.384 0.096 0.928-0.064 1.152 0.16 0.16 0.16 0.16 0.512 0.288 0.768 0.16 0.512 0.864 0.8 1.312 1.056 0.256 0.16 0.576 0.448 0.832 0.608 0.064 0.064 0.16 0.064 0.224 0.096 0.608 0.384 1.216 0.864 1.824 1.248 0.064 0.064 0.16 0.032 0.224 0.096 0.16 0.096 0.288 0.256 0.48 0.352 0.096 0.096 0.256 0.128 0.384 0.192l0.704 0.48 0.704 0.448c0.96 0.64 2.112 1.344 3.072 2.016 0.16 0.128 0.48 0.448 0.512 0.608 0.032 0.096 0 0.224 0 0.32 0.032 0.128 0.128 0.448 0.064 0.736-0.096 0.48 0 1.024-0.064 1.344-0.064 0.384-0.352 0.448-0.672 0.64-0.288 0.16-0.576 0.48-0.896 0.544-0.032 0.032-0.128 0-0.192 0.032 0 0-0.032 0.096-0.064 0.128-0.096 0.096-0.48 0.16-0.672 0.32-0.32 0.192-0.768 0.416-1.152 0.608l-2.080 0.992c-0.608 0.32-1.088 0.512-1.632 0.832-0.448 0.288-0.992 0.48-1.44 0.736-0.032 0.032-0.064 0.096-0.128 0.128-0.128 0.064-0.288 0.096-0.448 0.192l-0.608 0.416c-0.192 0.096-0.544 0.256-0.608 0.416-0.096 0.16-0.096 0.512-0.128 0.672-0.128 0.384 0.032 1.056-0.064 1.6-0.032 0.16 0.032 0.416 0 0.608 0 0.032-0.064 0.096-0.064 0.128 0 0.128 0.096 0.224 0.128 0.352 0.032 0.16-0.032 0.288-0.064 0.48s-0.032 0.448-0.064 0.576c-0.096 0.512 0.096 1.184 0 1.632-0.032 0.064-0.064 0.064-0.064 0.16-0.192 0.768 0.32 1.984-0.448 2.176-0.224 0.032-0.48 0-0.768 0.064-0.128 0-0.416 0.128-0.704 0.064-0.064 0-0.096-0.064-0.128-0.064-0.48-0.128-0.992 0-1.376-0.064-0.256-0.064-0.256-0.352-0.32-0.64-0.128-0.96-0.096-2.176 0.064-3.072 0.128-0.736-0.128-1.568 0-2.24l0.096-0.16c0.064-0.448-0.096-0.992 0-1.472 0-0.032 0.032-0.096 0.032-0.128 0.096-0.448-0.064-0.992 0-1.44 0.16-0.736-0.032-1.856 0.128-2.496 0.096-0.416-0.032-0.896 0.064-1.408 0.096-0.448-0.032-0.896 0.064-1.376 0.128-0.704-0.096-1.408 0-1.952 0-0.064 0.064-0.096 0.064-0.16 0.096-0.352 0-0.928 0-1.344v-2.656c0-0.448 0.096-0.96 0-1.312 0-0.064-0.064-0.128-0.064-0.16-0.096-0.448 0-1.088-0.064-1.504-0.032-0.224-0.032-0.608 0.064-0.896 0.032-0.096 0.16-0.288 0.224-0.32 0.256-0.224 0.832-0.128 1.184-0.192zM4.512 8.128c0.032 0.16-0.064 0.192-0.096 0.384-0.064 0.288-0.064 0.896 0 1.088 0.032 0.16 0.032 0.096 0 0.256-0.032 0.096 0.032 0.416 0 0.64-0.096 0.32-0.064 0.928-0.128 1.376-0.032 0.192-0.032 0.448 0 0.544 0 0.096 0.032 0.288 0.064 0.384 0.064 0.288 0.064 0.448 0.384 0.352 0.384-0.16 0.768-0.352 1.184-0.512 0.352-0.128 0.64-0.384 0.928-0.512 0.256-0.128 0.512-0.224 0.8-0.384 0.48-0.224 0.832-0.448 1.248-0.672 0.096-0.064 0.352-0.224 0.352-0.32 0.032-0.256-0.32-0.32-0.416-0.384-0.416-0.288-0.8-0.608-1.248-0.8-0.16-0.096-0.32-0.288-0.448-0.32l-0.16-0.128c-0.352-0.256-0.736-0.448-1.088-0.672-0.032 0-0.032-0.064-0.064-0.096-0.128-0.096-0.352-0.16-0.544-0.256-0.224-0.16-0.448-0.352-0.704-0.416-0.128 0.096-0.064 0.416-0.064 0.448z"></path>
</symbol>
<symbol id="icon-menu" viewBox="0 0 26 32">
<title>menu</title>
<path d="M23.744 13.632c0.032 0.448-0.16 0.992-0.064 1.568 0 0.064 0.064 0.128 0.064 0.16 0.032 0.16-0.032 0.192-0.064 0.352-0.096 0.48 0.096 1.024-0.32 1.12-0.192 0.064-0.576 0-0.896 0s-0.672 0.064-0.896 0h-0.32c-0.224 0.064-0.384-0.096-0.544-0.096-0.032 0-0.064 0.032-0.16 0.064-0.16 0-0.384-0.032-0.416 0.064-0.064 0.16 0 0.64 0 0.896v0.864c0 0.672 0.032 1.408-0.064 1.888-0.096 0.416 0.064 0.96-0.288 1.088-0.064 0.032-0.192 0-0.256 0l-0.192 0.096c-0.096 0-0.16-0.032-0.288-0.032-0.256 0-0.608 0.064-0.832 0.032-0.128-0.032-0.256-0.16-0.352-0.16-0.064 0-0.128 0.064-0.16 0.064-0.224 0.032-0.48 0-0.608-0.064-0.192-0.064-0.704 0.032-0.8-0.192-0.096-0.192-0.096-0.672-0.16-0.896-0.032-0.16-0.032-0.512 0-0.768 0.096-0.416 0.064-0.768 0.128-1.024 0.064-0.224 0.064-1.184 0-1.472 0-0.096-0.032-0.384-0.064-0.416-0.032-0.064-0.352-0.288-0.48-0.288-0.096-0.032-0.192 0-0.288 0-0.064-0.032-0.128-0.064-0.16-0.064-0.096 0-0.224 0.096-0.384 0.096-0.512 0.096-0.704-0.192-1.248-0.096-0.096 0-0.128 0.064-0.288 0.064-0.128-0.032-0.224-0.096-0.384 0-0.064 0.032-0.224 0.224-0.256 0.32-0.032 0.064 0 0.224 0 0.32-0.064 0.224-0.16 0.576-0.096 0.864l0.096 0.16c0.032 0.256 0 0.672 0 0.992s0.032 0.736 0 0.96l-0.096 0.192c-0.032 0.16 0.032 0.352-0.064 0.512-0.096 0.256-0.32 0.32-0.64 0.352-0.224 0.064-0.48-0.032-0.608-0.064-0.256-0.032-0.512 0.064-0.768 0-0.352-0.032-0.64-0.128-0.928-0.16-0.128-0.032-0.192 0-0.288 0l-0.16-0.096h-0.224c-0.096-0.032-0.16-0.192-0.16-0.256-0.096-0.448 0-0.992 0-1.568 0-0.48-0.096-1.152 0-1.568 0.032-0.256 0.16-0.928-0.096-1.024-0.064-0.032-0.256-0.032-0.448-0.064l-0.16-0.096c-0.256-0.032-0.704-0.032-0.896 0l-0.16 0.096c-0.288 0.032-0.48-0.032-0.608 0.192-0.096 0.224-0.032 0.416-0.064 0.704-0.096 0.576-0.128 1.472 0 2.176 0.064 0.352 0 1.024-0.064 1.28-0.064 0.288 0.032 0.64-0.064 0.832-0.16 0.288-0.64 0.352-1.152 0.256-0.064 0-0.128-0.064-0.16-0.064-0.096 0-0.16 0.096-0.256 0.064-0.064 0-0.128-0.032-0.192-0.064-0.224-0.032-0.48 0-0.736-0.032-0.128-0.032-0.352-0.128-0.576-0.128-0.032 0-0.096 0.032-0.128 0.032-0.224 0-0.48-0.224-0.544-0.416-0.032-0.192 0-0.384-0.032-0.64l-0.096-0.16c-0.032-0.192 0-0.48 0-0.736 0-0.224-0.032-0.512 0-0.704 0-0.064 0.064-0.096 0.096-0.16 0.064-0.448-0.032-1.024 0.032-1.472 0.032-0.16 0.096-0.32 0.064-0.48-0.032-0.256-0.224-0.512-0.512-0.576-0.48-0.096-1.12 0.032-1.568-0.064-0.128 0-0.288-0.128-0.32-0.224-0.064-0.16 0.032-0.256 0-0.384 0-0.064-0.064-0.096-0.064-0.16-0.032-0.16 0.032-0.288 0-0.48-0.064-0.256-0.064-0.544 0-0.928 0.032-0.192-0.032-0.352 0-0.48 0-0.032 0.064-0.096 0.064-0.16 0.064-0.288-0.064-0.544 0.064-0.8 0.096-0.224 0.48-0.288 0.768-0.352 0.448-0.064 1.216 0.128 1.536-0.064l0.16-0.16c0.032-0.064 0-0.16 0-0.256 0.032-0.192 0.064-0.288 0-0.576-0.064-0.32 0-0.8 0-1.312 0-0.448-0.064-0.928 0-1.28 0-0.064 0.064-0.096 0.064-0.16 0.032-0.16-0.032-0.32 0-0.448 0-0.064 0.064-0.128 0.064-0.192 0.032-0.16 0-0.32 0.064-0.416l0.224-0.16 0.672-0.128c0.512-0.096 0.864 0.16 1.376 0.064 0.192-0.032 0.192-0.032 0.384 0 0.32 0.064 0.64-0.032 0.8 0.16 0.128 0.096 0.16 0.48 0.224 0.736 0 0.064 0.064 0.096 0.064 0.128 0.032 0.16-0.032 0.32 0 0.512 0.032 0.256 0.064 0.448 0 0.736-0.032 0.192 0.032 0.384 0 0.544 0 0.064-0.064 0.096-0.064 0.16-0.096 0.352 0.064 0.832 0 1.248-0.064 0.32-0.096 0.768 0.224 0.864 0.224 0.096 0.576 0.096 0.768 0.128s0.384-0.032 0.48-0.064c0.32-0.064 0.608 0 0.704-0.288 0.064-0.224 0.032-0.416 0-0.576s0.032-0.416 0-0.672c0-0.032-0.064-0.096-0.064-0.128-0.064-0.288 0.064-0.576 0-0.768 0-0.032-0.064-0.064-0.064-0.128-0.032-0.192 0.032-0.448 0-0.672-0.032-0.256-0.032-0.384 0-0.672 0.064-0.32-0.032-0.672 0.064-0.96 0.096-0.224 0.32-0.288 0.64-0.352 0.16-0.032 0.16-0.032 0.352 0 0.608 0.096 1.472-0.032 2.048 0.064 0.192 0.032 0.544 0.16 0.608 0.288 0.224 0.416 0.032 1.056 0.16 1.632 0.032 0.224 0.128 0.928 0.032 1.28-0.032 0.352-0.032 0.512 0 0.768 0.096 0.448-0.064 0.96 0.128 1.152s0.704 0.16 1.12 0.224c0.032 0 0.096 0.064 0.16 0.064 0.224 0.032 0.576 0.032 0.768 0 0.096 0 0.16-0.064 0.224-0.064 0.16 0 0.288 0.096 0.544 0.064 0.064 0 0.096-0.064 0.16-0.064 0.096-0.032 0.192 0 0.256 0 0.192-0.064 0.32-0.32 0.288-0.512-0.032-0.448 0-1.024 0-1.568s0.096-1.152 0-1.536c0-0.064-0.064-0.128-0.064-0.16-0.064-0.32-0.032-0.736 0-0.96 0-0.064 0.064-0.096 0.064-0.16 0.064-0.288 0-0.608 0.224-0.704 0.096-0.032 0.288 0 0.48-0.064 0.256-0.032 0.64-0.192 1.024-0.128l0.608 0.128c0.128 0.032 0.256 0 0.352 0 0.416 0.064 1.056 0.096 1.184 0.448 0.064 0.192 0.032 0.288 0 0.448-0.096 0.48 0 1.216 0 1.92 0 0.736-0.032 1.536 0.064 2.016 0.064 0.384-0.096 0.864 0.192 0.992 0.256 0.16 1.12 0.224 1.6 0.16 0.32-0.064 0.544-0.064 0.8 0 0.384 0.064 0.672 0 0.864 0.192 0.128 0.128 0.192 0.512 0.224 0.64z"></path>
</symbol>
<symbol id="icon-atsign" viewBox="0 0 29 32">
<title>atsign</title>
<path d="M13.184 2.624c0.288-0.064 0.896-0.096 1.184-0.032 0.064 0.032 0.096 0.096 0.128 0.096 0.416 0.096 0.864-0.032 1.28 0.064s1.024 0.128 1.504 0.224c0.224 0.064 0.416 0.16 0.704 0.224 0.256 0.032 0.48 0.16 0.704 0.256l1.184 0.48 0.64 0.32c0.064 0.032 0.064 0.096 0.096 0.128 0.096 0.064 0.192 0.032 0.224 0.096 0.32 0.192 0.64 0.384 0.896 0.576 0.288 0.192 0.512 0.448 0.8 0.736 0.16 0.16 0.352 0.288 0.48 0.448 0.224 0.32 0.512 0.512 0.704 0.8 0.032 0.032 0.032 0.128 0.064 0.192 0.064 0.096 0.192 0.16 0.256 0.224 0.256 0.384 0.544 0.8 0.704 1.248 0.192 0.48 0.48 0.96 0.64 1.472 0.064 0.224 0.096 0.416 0.192 0.704 0 0.032 0.064 0.096 0.064 0.128 0.032 0.096 0 0.224 0 0.288 0.032 0.064 0.032 0.192 0.064 0.352 0.032 0.256 0.224 0.384 0.192 0.672-0.032 0.096-0.064 0.16 0 0.384 0 0.096 0.096 0.192 0.128 0.288 0.032 0.16-0.032 0.384 0 0.64 0.064 0.352 0.064 0.736 0 0.992-0.032 0.16-0.032 0.448 0 0.576s0.032 0.128 0 0.288 0.032 0.384 0 0.608c0 0.064-0.064 0.096-0.064 0.16-0.096 0.416 0 0.896-0.064 1.28-0.096 0.32-0.192 0.768-0.256 1.12 0 0.064 0.032 0.16 0 0.256 0 0.032-0.064 0.096-0.064 0.128-0.032 0.096 0 0.192 0 0.256-0.064 0.352-0.256 0.64-0.32 0.928l-0.064 0.384c-0.096 0.224-0.16 0.48-0.256 0.736-0.032 0.128-0.256 0.64-0.32 0.736-0.032 0-0.096 0-0.128 0.032-0.032 0.064-0.032 0.192-0.064 0.288-0.064 0.064-0.064 0.128-0.128 0.224l-0.128 0.064c-0.096 0.128-0.16 0.384-0.256 0.512-0.064 0.096-0.192 0.16-0.224 0.224-0.16 0.192-0.288 0.384-0.416 0.576-0.224 0.32-0.704 0.672-1.056 0.896-0.416 0.288-0.864 0.64-1.344 0.832-0.288 0.128-0.576 0.192-0.928 0.32-0.192 0.064-0.512 0.256-0.8 0.32-0.16 0.032-0.288-0.032-0.448 0l-0.352 0.128c-0.128 0-0.256-0.032-0.416 0-0.032 0-0.032 0.032-0.096 0.064-0.128 0-0.352-0.064-0.512 0-0.224 0.032-0.992 0.128-1.376 0.064-0.544-0.096-1.024-0.128-1.536-0.256-0.128-0.032-0.288 0.032-0.416 0-0.192-0.032-0.416-0.224-0.64-0.256-0.64-0.16-1.088-0.32-1.632-0.576l-0.64-0.32-0.096-0.128c-0.128-0.064-0.256-0.064-0.384-0.128l-0.544-0.384c-0.16-0.128-0.32-0.256-0.544-0.384l-0.288-0.256c-0.256-0.192-0.48-0.48-0.768-0.64-0.16-0.096-0.224-0.32-0.352-0.48-0.192-0.256-0.384-0.352-0.512-0.576-0.096-0.224-0.416-0.384-0.544-0.608-0.032-0.064-0.032-0.16-0.096-0.192-0.224-0.352-0.48-0.8-0.608-1.152-0.096-0.224-0.192-0.544-0.256-0.768-0.064-0.192-0.16-0.512-0.192-0.704l-0.064-0.64c0-0.064-0.064-0.096-0.064-0.16-0.064-0.224-0.064-0.672 0-0.896 0-0.128 0.096-0.32 0.064-0.544 0-0.032-0.064-0.064-0.064-0.096 0-0.128 0.096-0.256 0.128-0.384v-0.256c0.032-0.256 0.128-0.544 0.192-0.768 0.032-0.16 0.16-0.256 0.192-0.448 0.064-0.32 0.128-0.512 0.256-0.832 0.032-0.128 0.128-0.16 0.192-0.256l0.064-0.224 0.544-0.8c0.064-0.064 0.032-0.16 0.096-0.192 0.128-0.224 0.352-0.416 0.48-0.64 0.128-0.192 0.352-0.416 0.576-0.64 0.192-0.192 0.384-0.416 0.64-0.544 0.096-0.064 0.16-0.224 0.288-0.32l1.088-0.64c0.224-0.128 0.448-0.256 0.736-0.384 0.448-0.16 0.96-0.416 1.472-0.512 0.128-0.032 0.288 0.032 0.384 0 0.032 0 0.064-0.032 0.096-0.064 0.288-0.064 0.704 0.064 0.96 0 0.16-0.032 0.384-0.064 0.672 0 0.032 0.032 0.064 0.064 0.128 0.064 0.096 0.032 0.256-0.032 0.384 0 0.8 0.192 1.568 0.512 2.208 0.928l0.512 0.352c0.128 0.096 0.192 0.256 0.352 0.384 0.256 0.16 0.448 0.352 0.608 0.608 0.224 0.288 0.512 0.576 0.576 0.928 0.064 0.224 0.224 0.288 0.256 0.48s0.224 0.384 0.32 0.64c0.032 0.064 0.032 0.192 0.064 0.288 0.064 0.16 0.16 0.352 0.192 0.544 0.032 0.16-0.032 0.288 0 0.448 0.064 0.416 0.16 1.024 0.064 1.504 0 0.032-0.064 0.064-0.064 0.128 0 0.096 0.032 0.192 0 0.32 0 0.064-0.096 0.128-0.128 0.224l-0.064 0.416-0.256 0.544-0.384 0.544c-0.064 0.128-0.224 0.192-0.288 0.288-0.16 0.224-0.288 0.384-0.512 0.544-0.192 0.128-0.288 0.288-0.48 0.416-0.416 0.288-1.056 0.448-1.568 0.64-0.096 0.064-0.192 0.064-0.352 0.064-0.16 0.032-0.32 0.16-0.448 0.192s-0.32-0.032-0.448 0c-0.288 0.064-1.248 0.192-1.408-0.096-0.096-0.192 0.032-0.512-0.064-0.864 0-0.032-0.064-0.064-0.064-0.096-0.032-0.16 0.032-0.288 0-0.416-0.064-0.224-0.128-0.96-0.064-1.312s0.224-0.928 0.448-1.024c0.32-0.128 0.704 0 0.992-0.096 0.672-0.256 1.472-0.512 1.28-1.568-0.032-0.192-0.128-0.48-0.256-0.64-0.32-0.544-1.088-1.12-1.76-1.376-0.256-0.096-0.704-0.192-1.024-0.128-0.096 0-0.16 0.096-0.256 0.128l-0.544 0.192c-0.8 0.288-1.856 1.376-2.368 2.208l-0.096 0.192c-0.16 0.448-0.32 0.672-0.448 1.152-0.032 0.128-0.16 0.352-0.16 0.48 0 0.096 0.064 0.16 0.064 0.256-0.032 0.064-0.064 0.064-0.064 0.128-0.096 0.256 0.032 0.672 0.064 0.8 0 0.096-0.032 0.16 0 0.256 0.096 0.576 0.512 1.056 0.864 1.536 0.192 0.288 0.448 0.576 0.768 0.768 0.064 0.032 0.128 0.16 0.192 0.224l0.512 0.384c0.192 0.16 0.448 0.224 0.64 0.352 0.288 0.192 0.608 0.416 0.96 0.544 0.544 0.224 1.184 0.416 1.824 0.576 0.16 0.064 0.512 0.096 0.704 0.128 0.256 0.032 0.8 0.064 1.056 0 0.832-0.192 1.568-0.32 2.24-0.768 0.16-0.096 0.256-0.256 0.416-0.352 0.224-0.16 0.384-0.32 0.512-0.512 0.16-0.224 0.352-0.352 0.48-0.672 0.096-0.192 0.192-0.352 0.256-0.544 0.064-0.128 0.096-0.224 0.128-0.352 0.096-0.256 0.256-0.48 0.32-0.768 0.064-0.224 0.064-0.544 0.128-0.768 0.096-0.384 0.256-0.736 0.32-1.152 0.032-0.128-0.032-0.256 0-0.384 0-0.032 0.064-0.064 0.064-0.096 0.032-0.128-0.032-0.256 0-0.384s0.096-0.256 0.128-0.416c0.032-0.128 0-0.256 0-0.384 0.16-0.8 0.096-1.856-0.064-2.624-0.192-1.024-0.544-1.824-1.088-2.592-0.32-0.48-0.736-0.96-1.248-1.28l-0.192-0.256-0.576-0.384c-0.128-0.064-0.256-0.064-0.384-0.16-0.16-0.096-0.384-0.256-0.608-0.352l-0.736-0.32-1.184-0.384c-0.16-0.032-0.288-0.16-0.416-0.192-0.064 0-0.16 0.032-0.224 0-0.288-0.064-0.672-0.128-0.992-0.16-0.192-0.064-0.416 0.032-0.608 0-0.064-0.032-0.064-0.096-0.128-0.096-0.128-0.032-0.16 0.032-0.352 0.096-0.384 0.064-0.896-0.032-1.28 0.032-0.288 0.096-0.64 0.128-0.992 0.192-0.192 0.032-0.448 0.224-0.672 0.32-0.16 0.064-0.32 0.064-0.48 0.128-0.544 0.192-1.056 0.448-1.536 0.768-0.384 0.256-0.672 0.576-0.992 0.768-0.192 0.16-0.448 0.448-0.576 0.672-0.064 0.096-0.16 0.128-0.224 0.224-0.256 0.416-0.64 0.768-0.896 1.184-0.064 0.096-0.096 0.256-0.16 0.352-0.288 0.608-0.48 1.28-0.736 2.048-0.064 0.128-0.096 0.288-0.128 0.512-0.064 0.352-0.256 0.64-0.32 0.96-0.064 0.256-0.032 0.384-0.064 0.64l-0.128 0.288-0.064 0.416c-0.096 0.288 0 0.608-0.064 0.896l-0.128 0.48c-0.032 0.064 0.032 0.224 0 0.32-0.032 0.16-0.032 0.096 0 0.224 0.096 0.448-0.192 0.736-0.512 0.832-0.352 0.064-0.704 0-1.024 0.064-0.032 0-0.064 0.032-0.128 0.032-0.192 0.064-0.96 0.064-1.248 0-0.192-0.032-0.8-0.064-0.928-0.192-0.096-0.064-0.224-0.544-0.16-0.8 0-0.032 0.064-0.064 0.064-0.096 0.064-0.192-0.032-0.448 0-0.64 0.032-0.096 0.064-0.256 0.064-0.384 0.096-0.544 0.128-1.152 0.256-1.632 0.032-0.096-0.032-0.192 0-0.288 0.064-0.32 0.192-0.576 0.256-0.864 0.032-0.096 0-0.192 0-0.256 0.064-0.288 0.16-0.448 0.192-0.768 0.064-0.32 0.192-0.608 0.256-0.96 0.032-0.192 0.16-0.448 0.256-0.672 0.064-0.16 0.064-0.352 0.128-0.512 0.096-0.288 0.256-0.544 0.384-0.832 0.128-0.352 0.256-0.768 0.448-1.088 0.032-0.032 0.096-0.064 0.096-0.096 0.288-0.416 0.448-0.864 0.736-1.248 0.256-0.352 0.768-0.672 0.992-1.12 0.096-0.16 0.448-0.448 0.704-0.608 0.256-0.192 0.512-0.48 0.768-0.672 0.416-0.288 0.896-0.512 1.312-0.8 0.256-0.16 0.576-0.384 0.896-0.48 0.192-0.096 0.32-0.16 0.544-0.224 0.416-0.096 0.8-0.352 1.184-0.416 0.032-0.032 0.096 0 0.128 0 0.192-0.064 0.384-0.16 0.608-0.224 0.32-0.064 0.64-0.032 0.992-0.096l0.48-0.128c0.384-0.096 0.896 0 1.28-0.064 0.064-0.032 0.096-0.064 0.128-0.064z"></path>
</symbol>
<symbol id="icon-email" viewBox="0 0 29 32">
<title>email</title>
<path d="M1.664 5.856c0.384-0.096 0.768 0.128 1.248 0.064l0.192-0.096c0.288-0.032 0.544 0.032 0.864 0.096 0.576 0.096 1.184-0.096 1.792 0 0.512 0.064 1.088 0.032 1.536 0.096 0.256 0.064 0.512-0.032 0.8 0 0.032 0.032 0.096 0.064 0.16 0.064 0.416 0.096 0.832-0.064 1.28 0 0.544 0.096 1.024 0 1.536 0.064 0.064 0.032 0.096 0.064 0.16 0.064 0.864 0.128 1.696-0.128 2.56 0l0.192 0.096c0.288 0.032 0.544-0.064 0.832 0 0.416 0.032 0.768-0.032 1.216 0.032 0.896 0.16 1.856-0.128 2.784 0 0.096 0.032 0.128 0.064 0.192 0.064 0.096 0.032 0.32-0.032 0.512 0 0.064 0.032 0.128 0.064 0.16 0.064 0.416 0.096 0.96-0.064 1.504 0 0.288 0.064 0.448 0.064 0.704 0 0.512-0.064 1.184 0.064 1.632 0 0.16 0 0.352-0.032 0.64 0 0.512 0.096 0.96 0.128 1.056 0.576 0.032 0.128-0.064 0.288-0.064 0.384-0.032 0.192 0.032 0.416 0 0.64-0.096 0.544 0 1.12-0.064 1.536-0.032 0.16-0.128 0.192-0.128 0.384 0 0.128 0.128 0.224 0.128 0.32s-0.096 0.256-0.128 0.416c0 0.064 0.032 0.16 0 0.256 0 0.064-0.064 0.16-0.064 0.192 0 0.192 0.16 0.416 0.128 0.64 0 0.096-0.096 0.224-0.128 0.352-0.064 0.32-0.032 0.864 0 1.216 0.032 0.16 0.032 0.16 0 0.32-0.032 0.192-0.032 0.512-0.032 0.768 0 0.288 0.096 0.576 0.032 0.864 0 0.096-0.096 0.224-0.128 0.352-0.032 0.192 0.032 0.384 0 0.576-0.096 0.704-0.032 1.536-0.128 2.144-0.032 0.256 0.032 0.576 0 0.832 0 0.128-0.064 1.568-0.096 1.76 0 0.064-0.064 0.16-0.064 0.192 0 0.096 0.064 0.16 0.064 0.256s-0.032 0.128-0.064 0.256c0 0.096 0.032 0.192 0 0.32 0 0.16-0.096 0.32-0.128 0.512-0.032 0.16 0.032 0.32 0 0.448l-0.128 0.608c-0.032 0.224 0.032 0.48 0 0.672 0 0.128-0.096 0.224-0.128 0.352 0 0.16 0.032 0.32 0 0.48l-0.192 0.64c-0.096 0.384-0.128 0.576-0.512 0.672-0.128 0-0.32-0.032-0.48 0-0.192 0.032-0.192 0.032-0.384 0-0.352-0.064-0.832 0-1.312 0-0.928 0-1.44 0.064-2.368 0.064-0.416 0-0.8-0.032-1.088-0.064-0.448-0.096-0.96 0.064-1.344 0-0.064-0.032-0.128-0.064-0.192-0.064-0.768-0.128-1.536 0.064-2.336-0.064-0.672-0.096-1.344 0.096-1.984 0l-0.192-0.096c-0.096 0-0.16 0.064-0.256 0.096-0.16 0.032-0.48 0.032-0.672 0l-0.224-0.096c-0.128 0-0.352 0.032-0.512 0-0.256-0.032-0.384-0.032-0.64 0-0.16 0.032-0.48 0.032-0.704 0-0.704-0.096-1.536 0.064-2.208-0.032-1.12-0.192-2.368-0.128-3.648-0.128h-1.184c-0.544 0-1.312 0.096-1.44-0.224-0.096-0.256 0-0.608-0.064-0.96-0.032-0.32 0-0.608-0.064-0.832 0-0.064-0.064-0.128-0.064-0.192 0-0.128 0.064-0.128 0.064-0.224 0.032-0.192 0-0.384 0-0.544 0.096-0.512 0.544-0.704 0.64-1.12 0.096-0.448-0.032-2.304 0.032-2.816 0-0.064 0.064-0.128 0.064-0.192 0.032-0.288-0.032-0.576 0-0.832 0-0.064 0.064-0.096 0.064-0.192 0.064-0.288-0.064-0.672 0-1.024 0.096-0.64 0-1.472 0.128-2.112 0.096-0.544 0-1.216 0-1.824 0-0.8 0.032-1.536-0.064-1.984-0.064-0.32 0.064-0.736 0-1.056-0.032-0.128-0.096-0.16-0.128-0.288-0.064-0.256 0-0.672 0-0.992 0-0.352-0.064-0.672 0-0.992 0-0.064 0.064-0.128 0.064-0.224 0.032-0.064 0-0.16 0-0.256 0.064-0.48 0.224-1.056 0.512-1.216 0.096-0.032 0.192-0.064 0.256-0.064zM4.96 13.312c-0.032 0.128-0.128 0.256-0.128 0.384-0.128 0.64 0.224 1.312 0.064 1.984-0.128 0.416 0 1.056-0.064 1.568-0.128 0.608-0.032 1.28-0.128 1.728-0.096 0.416-0.032 2.4 0.032 2.752 0.032 0.288 0 0.416 0.224 0.48 0.544 0.16 1.344 0 1.984 0.128 0.352 0.064 0.832 0 1.216 0 0.416 0 0.896-0.064 1.248 0 0.416 0.096 1.152-0.032 1.6 0.064 0.032 0 0.096 0.064 0.16 0.064 0.256 0.064 0.608-0.064 0.928 0 0.224 0.032 0.288 0.032 0.48 0 0.128-0.032 0.416-0.032 0.608 0 0.48 0.096 1.28 0.064 1.952 0.064 0.704 0 1.536-0.032 1.984 0.064 0.256 0.032 0.576-0.032 0.8 0 0.192 0.032 0.576 0.096 0.832 0.064 0.032 0 0.064-0.064 0.128-0.064 0.448-0.096 1.312 0.064 1.568-0.16 0.128-0.128 0.128-0.352 0.16-0.576l0.096-0.192c0.096-0.576 0.096-2.56 0.192-3.2 0.064-0.32 0.064-0.736 0.128-0.992 0.096-0.32-0.032-1.024-0.064-1.184-0.064-0.416 0.096-0.8 0.16-1.056 0.032-0.256 0-0.544 0-0.864 0-0.192 0.032-0.8-0.032-0.864-0.128-0.064-0.288 0.16-0.352 0.192-0.224 0.128-0.448 0.256-0.672 0.416-0.192 0.128-0.288 0.352-0.48 0.48-0.16 0.128-0.384 0.224-0.576 0.384-0.096 0.064-0.16 0.128-0.288 0.192-0.256 0.16-0.448 0.512-0.64 0.608-0.256 0.16-0.416 0.352-0.64 0.512-0.192 0.128-0.352 0.352-0.512 0.448-0.224 0.128-0.416 0.352-0.608 0.512-0.256 0.16-0.48 0.416-0.704 0.576s-0.576 0.352-0.768 0.384c-0.128 0.032-0.256-0.032-0.384 0l-0.512 0.128c-0.128 0.032-0.256-0.032-0.352 0-0.48 0.096-0.896 0.064-1.28-0.128-0.096-0.064-0.128-0.16-0.224-0.224-0.48-0.352-0.992-0.736-1.472-1.056l-0.192-0.224-0.704-0.48c-0.096-0.064-0.16-0.224-0.256-0.288-0.512-0.352-0.96-0.8-1.472-1.152-0.192-0.128-0.384-0.192-0.512-0.384-0.096-0.128-0.064-0.064-0.224-0.128-0.16-0.096-0.352-0.32-0.512-0.448-0.032 0-0.096 0-0.128-0.032-0.224-0.128-0.448-0.384-0.704-0.576l-0.512-0.384c-0.096-0.064-0.32-0.224-0.384-0.192-0.16 0.096-0.064 0.576-0.064 0.672zM8.192 9.984c0 0.096 0.256 0.32 0.32 0.352 0.288 0.288 0.64 0.608 0.96 0.832l0.736 0.48c0.096 0.064 0.128 0.16 0.192 0.192 0.352 0.256 0.704 0.512 1.056 0.736l0.16 0.192c0.448 0.288 0.928 0.576 1.376 0.896 0.064 0.064 0.096 0.128 0.16 0.16 0.096 0.064 0.224 0.096 0.288 0.16 0.096 0.064 0.16 0.224 0.288 0.224 0.192 0.032 0.48-0.352 0.672-0.48l0.928-0.672c0.096-0.064 0.128-0.16 0.224-0.224l1.12-0.8c0.352-0.256 0.768-0.768 1.152-1.024 0.16-0.128 0.48-0.384 0.544-0.48 0.256-0.352-0.096-0.192-0.384-0.256-0.032 0-0.096-0.064-0.128-0.064-0.128-0.032-0.32 0.032-0.512 0-0.192-0.064-0.768-0.128-1.024-0.064-0.224 0.064-0.544 0.032-0.736 0-0.16-0.032-0.288 0.032-0.448 0-0.448-0.096-1.248 0.032-1.696-0.064-0.16-0.032-0.224-0.128-0.416-0.064-0.064 0-0.096 0.064-0.16 0.064-0.256 0.064-0.544-0.032-0.672-0.064s-0.352 0.032-0.512 0-0.16-0.032-0.32 0c-0.224 0.032-0.576-0.032-0.704-0.064-0.16-0.032-0.32 0.032-0.512 0-0.416-0.128-1.216 0.064-1.632-0.064-0.064-0.032-0.064-0.064-0.096-0.032-0.032 0-0.224 0.128-0.224 0.128z"></path>
</symbol>
<symbol id="icon-tickets" viewBox="0 0 73 32">
<title>tickets</title>
<path d="M43.943 0c0.446 0.021 0.893 0.049 1.339 0.064 5.944 0.2 11.805 0.922 17.492 2.763 2.319 0.75 4.507 1.745 6.43 3.283 1.406 1.124 2.529 2.444 3.080 4.196 0.727 2.31 0.431 4.526-0.599 6.676-0.906 1.889-2.245 3.437-3.769 4.841-2.928 2.696-6.387 4.42-10.143 5.601-4.245 1.335-8.566 2.344-12.955 3.065-4.226 0.694-8.479 1.119-12.755 1.338-3.366 0.173-6.734 0.217-10.102 0.13-2.389-0.062-4.78-0.188-7.162-0.387-2.604-0.219-5.182-0.655-7.703-1.372-1.33-0.378-2.556-0.984-3.643-1.855-1.572-1.259-2.469-2.933-2.929-4.864-0.589-2.47-0.324-4.904 0.375-7.308 0.802-2.758 2.176-5.183 4.225-7.205 0.046-0.045 0.091-0.092 0.138-0.136 0.34-0.313 0.554-0.253 0.665 0.198 0.112 0.457 0.045 0.84-0.322 1.207-2.334 2.336-3.911 5.097-4.496 8.38-0.317 1.777-0.204 3.537 0.381 5.255 0.781 2.295 2.39 3.752 4.659 4.429 1.601 0.477 3.239 0.841 4.878 1.17 3.103 0.623 6.249 0.848 9.409 0.912 3.332 0.068 6.66-0.023 9.985-0.231 2.433-0.152 4.869-0.308 7.289-0.583 3.051-0.347 6.096-0.77 9.129-1.249 2.378-0.376 4.75-0.82 7.098-1.351 3.937-0.891 7.663-2.354 11.098-4.503 2.422-1.515 4.379-3.514 5.838-5.986 0.662-1.122 1.063-2.327 1.039-3.656-0.026-1.437-0.579-2.651-1.487-3.729-1.519-1.803-3.457-2.987-5.604-3.876-2.855-1.182-5.82-1.948-8.861-2.444-3.801-0.62-7.629-0.961-11.475-1.101-3.727-0.135-7.453-0.104-11.173 0.156-2.679 0.187-5.359 0.391-8.028 0.682-5.564 0.608-11.027 1.712-16.315 3.598-2.197 0.784-4.257 1.836-6.147 3.21-1.107 0.804-1.859 1.855-2.092 3.24-0.035 0.211-0.096 0.489-0.38 0.463-0.26-0.024-0.322-0.284-0.34-0.509-0.050-0.627 0.144-1.21 0.387-1.769 0.732-1.69 1.962-2.937 3.524-3.857 2.448-1.443 5.065-2.488 7.789-3.27 3.861-1.108 7.788-1.901 11.764-2.458 3.803-0.533 7.623-0.858 11.46-0.998 1.287-0.047 2.575-0.075 3.862-0.114 0.078-0.002 0.155-0.029 0.232-0.044h4.917z"></path>
<path d="M18.587 19.657v-6.517h1.744v-1.163h-4.718v1.163h1.744v6.517h1.229zM24.74 19.657v-1.163h-1.163v-5.354h1.163v-1.163h-3.555v1.163h1.163v5.354h-1.163v1.163h3.555zM28.907 19.723c0.709 0 1.353-0.174 1.931-0.521s1.033-0.821 1.366-1.421c0.333-0.6 0.499-1.254 0.499-1.964v0h-1.251c0 0.519-0.108 0.987-0.324 1.404s-0.517 0.744-0.905 0.982c-0.388 0.238-0.826 0.357-1.317 0.357s-0.929-0.121-1.317-0.362c-0.388-0.241-0.689-0.572-0.905-0.993s-0.324-0.883-0.324-1.388c0-0.505 0.108-0.967 0.324-1.388s0.517-0.752 0.905-0.993c0.388-0.241 0.826-0.362 1.317-0.362 0.87 0 1.558 0.366 2.063 1.097v0l0.856-0.856c-0.358-0.439-0.784-0.783-1.278-1.031s-1.040-0.373-1.64-0.373c-0.709 0-1.353 0.174-1.931 0.521s-1.033 0.821-1.366 1.421c-0.333 0.6-0.499 1.254-0.499 1.964s0.166 1.364 0.499 1.964c0.333 0.6 0.788 1.073 1.366 1.421s1.221 0.521 1.931 0.521zM35.005 19.657v-3.028l0.669-0.933 2.15 3.961h1.437l-2.787-5.091 1.843-2.589h-1.448l-1.865 2.677v-2.677h-1.229v7.68h1.229zM45.020 19.657v-1.163h-3.654v-2.128h2.315v-1.163h-2.315v-2.063h3.588v-1.163h-4.816v7.68h4.882zM48.891 19.657v-6.517h1.744v-1.163h-4.718v1.163h1.744v6.517h1.229zM53.3 19.723c0.453 0 0.869-0.11 1.245-0.329s0.675-0.519 0.894-0.9c0.219-0.38 0.329-0.805 0.329-1.273 0-0.563-0.135-1.018-0.406-1.366s-0.658-0.616-1.163-0.806c-0.197-0.080-0.384-0.146-0.56-0.197-0.3-0.102-0.527-0.188-0.68-0.258s-0.276-0.161-0.368-0.274c-0.091-0.113-0.137-0.265-0.137-0.455 0-0.227 0.079-0.415 0.236-0.565s0.36-0.225 0.609-0.225c0.212 0 0.402 0.057 0.571 0.17s0.3 0.272 0.395 0.477v0l0.933-0.669c-0.402-0.761-1.046-1.141-1.931-1.141-0.38 0-0.724 0.086-1.031 0.258s-0.549 0.411-0.724 0.719c-0.176 0.307-0.263 0.655-0.263 1.042 0 0.417 0.11 0.777 0.329 1.081s0.512 0.528 0.878 0.675c0.146 0.059 0.366 0.132 0.658 0.219 0.344 0.11 0.607 0.208 0.79 0.296s0.335 0.214 0.455 0.378c0.121 0.165 0.181 0.39 0.181 0.675 0 0.388-0.112 0.702-0.335 0.944s-0.525 0.362-0.905 0.362c-0.38 0-0.682-0.124-0.905-0.373s-0.335-0.56-0.335-0.933v0h-1.229c0 0.446 0.108 0.859 0.324 1.24s0.512 0.68 0.889 0.9c0.377 0.219 0.795 0.329 1.256 0.329z"></path>
</symbol>
<symbol id="icon-menu-old" viewBox="0 0 52 32">
<title>menu-old</title>
<path d="M26.898 18.921l0.124 0.086c0.247 0.029 0.494 0 0.659 0.058 0.124 0.029 0.329 0.23 0.453 0.345 0.165 0.173 0.494 0.374 0.618 0.518 0.165 0.173 0.329 0.259 0.453 0.431 0.165 0.201 0.371 0.403 0.577 0.604l0.865 0.863c0.124 0.115 0.288 0.173 0.371 0.259 0.206 0.201 0.453 0.374 0.618 0.518 0.124 0.144 0.288 0.201 0.412 0.345 0.124 0.201 0.453 0.345 0.618 0.518 0.082 0.058 0.082 0.144 0.124 0.173 0.124 0.144 0.371 0.316 0.494 0.403 0 0.029 0.124 0.029 0.124 0.058 0.041 0.029 0.041 0.115 0.082 0.173 0.082 0.086 0.247 0.144 0.329 0.201 0.247 0.259 0.577 0.518 0.824 0.777 0.206 0.201 0.453 0.345 0.659 0.575 0.329 0.288 0.741 0.46 1.030 0.777 0.082 0.058 0.082 0.173 0.124 0.201 0.247 0.086 0.577-0.259 0.659-0.374 0.165-0.173 0.453-0.316 0.659-0.489 0.329-0.345 0.659-0.604 1.112-0.921 0.535-0.374 0.947-0.633 1.4-1.093 0.329-0.316 0.906-0.518 1.194-0.863 0.082-0.115 0.247-0.23 0.371-0.316 0.124-0.144 0.288-0.259 0.412-0.374 0.165-0.144 0.453-0.288 0.659-0.46 0.247-0.144 0.494-0.316 0.659-0.518 0.082-0.058 0.247-0.115 0.288-0.201 0.247-0.23 0.618-0.547 0.988-0.604 0.082-0.029 0.206 0 0.288 0 0.206-0.029 0.371-0.058 0.824 0 0.618 0.086 0.947 0.345 1.153 0.748 0.288 0.489 0.577 0.921 0.741 1.467l0.247 0.489c0.082 0.144 0.288 0.288 0.329 0.403 0.124 0.46 0.329 0.805 0.577 1.266 0.082 0.144 0.247 0.288 0.329 0.46l0.082 0.23c0.082 0.201 0.288 0.345 0.329 0.46 0 0.058-0.041 0.144 0 0.201 0.041 0.115 0.247 0.23 0.329 0.374 0.041 0.115 0 0.201 0.082 0.288 0.124 0.259 0.329 0.518 0.494 0.834 0.165 0.345 0.412 0.633 0.535 1.007 0.041 0.058 0.165 0.144 0.165 0.201 0.082 0.259 0.371 0.604 0.247 0.949-0.082 0.259-0.988 0.46-1.441 0.575-0.494 0.144-1.112 0.374-1.688 0.46-0.165 0.029-0.329 0.173-0.412 0.173-0.618 0.086-1.071-0.058-1.235-0.259-0.041-0.058-0.041-0.173-0.082-0.259-0.124-0.288-0.371-0.575-0.494-0.834-0.165-0.316-0.288-0.633-0.494-1.007-0.247-0.489-0.659-1.007-0.906-1.553 0-0.029 0.041-0.058 0-0.086-0.082-0.201-0.371-0.46-0.494-0.662-0.124-0.316-0.494 0.173-0.618 0.259-0.041 0.058-0.165 0.058-0.206 0.086l-0.165 0.23c-0.206 0.201-0.659 0.374-0.865 0.604-0.371 0.345-0.741 0.604-1.112 0.978l-0.371 0.316c-0.206 0.201-0.535 0.345-0.741 0.547-0.494 0.489-1.071 0.834-1.565 1.352-0.288 0.259-0.824 0.518-1.112 0.805-0.124 0.115-0.165 0.201-0.247 0.23-0.082 0-0.247-0.029-0.329 0-0.247 0.029-0.535 0.115-0.782 0.058-0.082 0-0.124-0.058-0.165-0.058-0.165-0.029-0.329 0.029-0.453 0s-0.412-0.288-0.577-0.431c-0.041-0.086-0.206-0.144-0.288-0.23-0.247-0.201-0.371-0.431-0.577-0.633-0.082-0.058-0.206-0.086-0.247-0.173-0.371-0.345-0.741-0.777-1.071-1.151-0.288-0.259-0.782-0.489-0.988-0.777-0.124-0.173-0.453-0.316-0.535-0.431l-0.371-0.374c-0.165-0.144-0.453-0.288-0.618-0.46-0.165-0.144-0.206-0.316-0.371-0.403-0.165-0.115-0.412-0.259-0.577-0.431-0.124-0.173-0.329-0.288-0.453-0.431-0.124-0.086-0.288-0.201-0.412-0.345-0.247-0.201-0.577-0.46-0.824-0.719-0.082-0.086-0.247-0.144-0.329-0.201-0.247-0.288-0.618-0.834-0.988-0.46-0.041 0.029 0 0.086-0.041 0.115-0.288 0.345-0.618 0.575-0.947 0.921l-0.082 0.201c-0.247 0.288-0.577 0.518-0.782 0.777-0.124 0.086-0.165 0.288-0.288 0.374s-0.082 0-0.124 0.144c-0.041 0.086-0.247 0.144-0.329 0.201-0.082 0.115-0.124 0.259-0.206 0.345-0.247 0.288-0.577 0.575-0.865 0.863-0.206 0.201-0.329 0.431-0.535 0.604-0.124 0.115-0.329 0.23-0.453 0.374-0.165 0.173-0.247 0.403-0.412 0.604-0.288 0.288-0.7 0.633-0.988 0.949-0.082 0.086-0.082 0.201-0.165 0.288-0.082 0.115-0.494 0.403-0.618 0.431-0.082 0.029-0.247 0-0.371 0-0.041 0-0.082 0.058-0.124 0.058-0.247 0.058-0.824-0.029-0.947-0.058-0.329-0.086-0.865 0.058-1.194 0-0.082-0.029-0.124-0.115-0.247-0.173-0.206-0.086-0.494-0.23-0.618-0.374-0.329-0.316-0.535-0.547-0.824-0.863l-0.659-0.604-0.577-0.547-0.412-0.374c-0.165-0.173-0.371-0.345-0.577-0.518-0.329-0.345-0.947-0.719-1.318-1.093-0.041-0.058-0.124-0.086-0.124-0.115-0.082-0.173-0.082-0.086-0.206-0.23-0.082-0.115-0.412-0.259-0.535-0.374-0.206-0.23-0.535-0.374-0.659-0.604-0.082-0.115-0.371-0.201-0.494-0.288-0.082-0.115-0.124-0.316-0.288-0.288l-0.453 0.403-0.824 0.863c-0.124 0.115-0.124 0.288-0.247 0.431-0.206 0.23-0.494 0.46-0.7 0.69-0.165 0.144-0.206 0.345-0.371 0.489l-0.329 0.259c-0.124 0.173-0.165 0.374-0.329 0.547-0.041 0.029-0.124 0.058-0.124 0.086-0.124 0.115-0.165 0.259-0.288 0.374l-0.247 0.23c-0.206 0.23-0.412 0.46-0.659 0.69-0.082 0.086-0.329 0.259-0.453 0.345-0.041 0.086-0.041 0.144-0.124 0.173-0.041 0.029-0.7 0.029-0.782 0-0.535-0.23-1.071-0.547-1.606-0.777-0.371-0.173-0.947-0.259-1.277-0.403-0.124-0.058-0.453-0.23-0.535-0.316-0.082-0.144-0.041-0.23 0-0.345 0.082-0.201 0.124-0.288 0.288-0.46l0.288-0.23 0.247-0.403c0.288-0.288 0.577-0.547 0.865-0.863l0.453-0.547c0.371-0.403 0.824-0.805 1.194-1.237 0.165-0.144 0.206-0.316 0.371-0.489l0.659-0.662c0.206-0.288 0.577-0.518 0.782-0.777l0.329-0.431 0.329-0.259c0.165-0.173 0.247-0.374 0.412-0.547l0.165-0.086c0.206-0.201 0.329-0.46 0.494-0.662 0.247-0.23 0.494-0.547 0.741-0.777 0.082-0.086 0.165-0.144 0.247-0.259 0.165-0.144 0.577-0.115 0.906-0.173 0.288-0.029 0.247-0.029 0.453 0s0.535-0.029 0.782 0c0.371 0.058 0.659 0.259 0.824 0.431 0.288 0.288 0.659 0.547 0.906 0.777 0.082 0.086 0.082 0.173 0.165 0.259 0.371 0.345 0.782 0.633 1.112 1.007l0.288 0.316c0.165 0.144 0.412 0.288 0.535 0.431 0.165 0.144 0.329 0.259 0.453 0.403 0.124 0.201 0.618 0.431 0.782 0.604 0.082 0.115 0.206 0.201 0.247 0.316 0.082 0.115 0.371 0.201 0.494 0.316 0.041 0.086 0.041 0.173 0.124 0.201l0.165 0.086c0.124 0.086 0.206 0.201 0.288 0.288 0.124 0.115 0.329 0.201 0.412 0.345 0.247 0.345 0.782 0.518 0.988 0.748 0.082 0.086 0.082 0.201 0.165 0.201 0.124 0.029 0.288-0.173 0.453-0.316l1.936-2.071 0.288-0.23c0.206-0.201 0.329-0.46 0.535-0.662 0.124-0.144 0.329-0.23 0.453-0.374 0.206-0.23 0.371-0.547 0.618-0.777 0.206-0.23 0.535-0.403 0.7-0.633 0.165-0.259 0.453-0.46 0.659-0.69l0.247-0.374c0.288-0.316 0.618-0.604 0.906-0.892l0.082-0.201c0.288-0.288 0.659-0.374 1.235-0.46 0.124-0.029 0.535-0.058 0.782-0.029z"></path>
<path d="M6.071 12.364v-7.75l3.212 7.75h1.745l3.212-7.75v7.75h1.955v-12.218h-2.164l-3.875 9.425-3.875-9.425h-2.164v12.218h1.955zM26.124 12.364v-1.85h-5.812v-3.386h3.683v-1.85h-3.683v-3.281h5.708v-1.85h-7.663v12.218h7.767zM29.926 12.364v-8.413l3.927 8.413h2.164v-12.218h-1.955v8.413l-3.927-8.413h-2.164v12.218h1.955zM42.159 12.468c0.756 0 1.437-0.169 2.042-0.506s1.079-0.815 1.423-1.431c0.343-0.617 0.515-1.315 0.515-2.095v0-8.291h-1.955v8.396c0 0.628-0.183 1.132-0.55 1.51s-0.858 0.567-1.475 0.567c-0.617 0-1.108-0.189-1.475-0.567s-0.55-0.881-0.55-1.51v0-8.396h-1.955v8.291c0 0.78 0.172 1.478 0.515 2.095s0.817 1.094 1.423 1.431c0.605 0.337 1.286 0.506 2.042 0.506z"></path>
</symbol>
<symbol id="icon-brighton-comedy-garden" viewBox="0 0 43 32">
<title>brighton-comedy-garden</title>
<path d="M4.569 31.694c-0.404-0.201-0.738-0.487-0.989-0.837l-0.005-0.008c-0.248-0.347-0.418-0.766-0.478-1.22l-0.001-0.014h1.582c0.074 0.273 0.226 0.504 0.429 0.675l0.002 0.002c0.207 0.162 0.471 0.259 0.758 0.259 0.020 0 0.040-0 0.060-0.001l-0.003 0c0.014 0.001 0.031 0.001 0.047 0.001 0.347 0 0.661-0.143 0.887-0.372l0-0c0.223-0.236 0.361-0.556 0.361-0.907 0-0.018-0-0.036-0.001-0.054l0 0.003c0.001-0.016 0.001-0.035 0.001-0.054 0-0.349-0.132-0.666-0.35-0.906l0.001 0.001c-0.217-0.23-0.524-0.372-0.865-0.372-0.016 0-0.032 0-0.048 0.001l0.002-0c-0.006-0-0.014-0-0.021-0-0.27 0-0.521 0.078-0.733 0.213l0.006-0.003c-0.207 0.127-0.37 0.309-0.47 0.526l-0.003 0.007-1.15-1.043c0.161-0.208 0.346-0.386 0.555-0.534l0.008-0.005c-0.486-0.435-0.791-1.064-0.791-1.764 0-0.007 0-0.015 0-0.022v0.001c-0-0.009-0-0.020-0-0.031 0-0.436 0.116-0.844 0.318-1.196l-0.006 0.012c0.208-0.362 0.501-0.655 0.852-0.857l0.011-0.006c0.345-0.2 0.759-0.318 1.201-0.318 0.012 0 0.023 0 0.035 0l-0.002-0c0.005-0 0.010-0 0.015-0 0.26 0 0.511 0.044 0.744 0.125l-0.016-0.005c0.213 0.067 0.395 0.183 0.539 0.335l0.001 0.001v-0.383h1.426l-0.012 2.217c0 0.015 0 0.033 0 0.051 0 0.355-0.062 0.696-0.175 1.012l0.007-0.021c-0.13 0.331-0.326 0.612-0.574 0.837l-0.002 0.002c0.325 0.248 0.585 0.566 0.76 0.931l0.007 0.015c0.174 0.366 0.276 0.795 0.276 1.248 0 0.527-0.138 1.022-0.379 1.451l0.008-0.015c-0.245 0.419-0.594 0.753-1.011 0.976l-0.014 0.007c-0.408 0.219-0.893 0.348-1.408 0.348-0.012 0-0.025-0-0.037-0l0.002 0c-0.011 0-0.025 0-0.038 0-0.479 0-0.932-0.113-1.334-0.314l0.017 0.008zM6.661 26.080c0.189-0.189 0.306-0.45 0.306-0.738 0-0.014-0-0.029-0.001-0.043l0 0.002c0.001-0.014 0.001-0.030 0.001-0.046 0-0.291-0.117-0.554-0.307-0.745l0 0c-0.188-0.185-0.447-0.3-0.732-0.3-0.010 0-0.020 0-0.030 0l0.001-0c-0.011-0-0.024-0.001-0.036-0.001-0.285 0-0.543 0.115-0.73 0.3l0-0c-0.186 0.192-0.301 0.454-0.301 0.743 0 0.017 0 0.033 0.001 0.050l-0-0.002c-0.001 0.013-0.001 0.028-0.001 0.042 0 0.287 0.115 0.547 0.301 0.737l-0-0c0.187 0.186 0.445 0.3 0.73 0.3 0.013 0 0.026-0 0.039-0.001l-0.002 0c0.009 0 0.019 0 0.029 0 0.285 0 0.544-0.115 0.732-0.3l-0 0z"></path>
<path d="M10.651 28.609c-0.456-0.263-0.824-0.632-1.077-1.076l-0.007-0.014c-0.249-0.458-0.395-1.003-0.395-1.582s0.146-1.124 0.404-1.599l-0.009 0.018c0.26-0.458 0.628-0.828 1.071-1.083l0.014-0.007c0.431-0.249 0.948-0.396 1.499-0.396 0.014 0 0.029 0 0.043 0l-0.002-0c0.009-0 0.019-0 0.029-0 0.346 0 0.675 0.068 0.976 0.192l-0.017-0.006c0.27 0.103 0.5 0.256 0.689 0.449l0 0v-0.563h1.546v5.992h-1.546v-0.575c-0.184 0.196-0.411 0.351-0.665 0.451l-0.012 0.004c-0.286 0.121-0.618 0.192-0.966 0.192-0.012 0-0.024-0-0.036-0l0.002 0c-0.012 0-0.027 0-0.041 0-0.551 0-1.068-0.147-1.514-0.404l0.015 0.008zM13.413 27.117c0.275-0.316 0.443-0.732 0.443-1.187 0-0.452-0.166-0.865-0.44-1.182l0.002 0.002c-0.273-0.274-0.651-0.444-1.068-0.444-0.018 0-0.037 0-0.055 0.001l0.003-0c-0.006-0-0.013-0-0.020-0-0.9 0-1.63 0.73-1.63 1.63s0.73 1.63 1.63 1.63c0.007 0 0.014-0 0.021-0h-0.001c0.013 0 0.028 0.001 0.043 0.001 0.42 0 0.799-0.172 1.072-0.45l0-0z"></path>
<path d="M18.038 22.941v0.791c0.115-0.259 0.296-0.471 0.522-0.62l0.005-0.003c0.258-0.151 0.567-0.24 0.898-0.24 0.18 0 0.353 0.026 0.517 0.075l-0.013-0.003v1.522c-0.149-0.061-0.323-0.097-0.505-0.097-0.016 0-0.033 0-0.049 0.001l0.002-0c-0.015-0.001-0.032-0.001-0.050-0.001-0.37 0-0.704 0.152-0.944 0.396l-0 0c-0.239 0.265-0.386 0.618-0.386 1.005 0 0.030 0.001 0.060 0.003 0.090l-0-0.004v3.080h-1.534v-5.992z"></path>
<path d="M21.687 28.621c-0.456-0.255-0.822-0.625-1.066-1.070l-0.007-0.014c-0.242-0.465-0.383-1.016-0.383-1.6s0.142-1.134 0.393-1.619l-0.009 0.020c0.25-0.46 0.616-0.829 1.059-1.077l0.014-0.007c0.434-0.242 0.952-0.384 1.504-0.384 0.017 0 0.034 0 0.051 0l-0.003-0c0.007-0 0.016-0 0.025-0 0.342 0 0.669 0.064 0.97 0.18l-0.018-0.006c0.284 0.104 0.526 0.262 0.725 0.461l0 0v-2.948l1.534-0.168v8.544h-1.534v-0.575c-0.202 0.197-0.443 0.355-0.71 0.462l-0.015 0.005c-0.279 0.114-0.602 0.18-0.941 0.18-0.013 0-0.025-0-0.038-0l0.002 0c-0.014 0-0.032 0-0.049 0-0.551 0-1.069-0.142-1.519-0.392l0.016 0.008zM24.473 27.111c0.268-0.315 0.431-0.727 0.431-1.177s-0.163-0.862-0.433-1.18l0.002 0.003c-0.271-0.278-0.649-0.451-1.068-0.451-0.021 0-0.041 0-0.062 0.001l0.003-0c-0.015-0.001-0.033-0.001-0.050-0.001-0.428 0-0.815 0.174-1.094 0.456l-0 0c-0.279 0.31-0.449 0.722-0.449 1.174s0.17 0.864 0.451 1.176l-0.001-0.002c0.279 0.282 0.666 0.456 1.094 0.456 0.018 0 0.036-0 0.053-0.001l-0.003 0c0.017 0.001 0.037 0.001 0.057 0.001 0.42 0 0.799-0.175 1.069-0.456l0-0.001z"></path>
<path d="M28.823 28.597c-0.465-0.267-0.841-0.643-1.101-1.094l-0.008-0.014c-0.253-0.447-0.401-0.982-0.401-1.552s0.149-1.105 0.41-1.568l-0.008 0.016c0.267-0.464 0.64-0.84 1.088-1.101l0.014-0.008c0.438-0.256 0.964-0.408 1.525-0.408 0.014 0 0.027 0 0.041 0l-0.002-0c0.021-0.001 0.045-0.001 0.070-0.001 0.668 0 1.284 0.223 1.777 0.599l-0.007-0.005c0.501 0.383 0.878 0.904 1.078 1.506l0.006 0.022-3.906 2.241c0.258 0.245 0.608 0.395 0.992 0.395 0.005 0 0.010-0 0.015-0h-0.001c0.018 0.001 0.039 0.001 0.060 0.001 0.359 0 0.688-0.13 0.943-0.345l-0.002 0.002c0.268-0.251 0.452-0.588 0.508-0.968l0.001-0.009h1.558q-0.24 1.27-1.054 1.983c-0.513 0.444-1.187 0.714-1.924 0.714-0.031 0-0.063-0-0.094-0.001l0.005 0c-0.013 0-0.027 0-0.042 0-0.566 0-1.097-0.151-1.554-0.416l0.015 0.008zM30.944 24.319c-0.164-0.068-0.354-0.108-0.553-0.108-0.003 0-0.007 0-0.010 0h0.001c-0.015-0.001-0.032-0.001-0.049-0.001-0.412 0-0.781 0.18-1.034 0.467l-0.001 0.002c-0.257 0.295-0.414 0.683-0.414 1.109 0 0.019 0 0.038 0.001 0.057l-0-0.003c-0 0.011-0 0.025-0 0.038 0 0.071 0.004 0.141 0.013 0.21l-0.001-0.008 2.493-1.45c-0.12-0.134-0.268-0.24-0.436-0.309l-0.008-0.003z"></path>
<path d="M35.845 22.941v0.563c0.179-0.19 0.394-0.344 0.635-0.45l0.013-0.005c0.258-0.114 0.558-0.18 0.875-0.18 0.017 0 0.034 0 0.051 0.001l-0.002-0q1.090 0 1.719 0.641t0.629 1.827v3.595h-1.534v-3.235q0-1.378-1.139-1.378c-0.021-0.001-0.045-0.002-0.069-0.002-0.338 0-0.642 0.146-0.852 0.379l-0.001 0.001c-0.203 0.252-0.325 0.575-0.325 0.927 0 0.026 0.001 0.051 0.002 0.077l-0-0.004v3.235h-1.534v-5.992z"></path>
<path d="M4.815 16.548c-0.267 0.274-0.639 0.445-1.052 0.445-0.020 0-0.040-0-0.060-0.001l0.003 0c-0.016 0.001-0.036 0.001-0.055 0.001-0.415 0-0.79-0.17-1.059-0.444l-0-0c-0.268-0.285-0.433-0.669-0.433-1.093 0-0.024 0.001-0.049 0.002-0.073l-0 0.003c-0.001-0.020-0.001-0.043-0.001-0.067 0-0.426 0.165-0.813 0.434-1.102l-0.001 0.001c0.269-0.278 0.645-0.45 1.062-0.45 0.019 0 0.037 0 0.056 0.001l-0.003-0c0.002 0 0.005-0 0.007-0 0.441 0 0.836 0.194 1.106 0.502l0.001 0.002 1.127-1.007c-0.539-0.584-1.308-0.948-2.162-0.948-0.028 0-0.055 0-0.083 0.001l0.004-0c-0.013-0-0.028-0-0.043-0-0.565 0-1.096 0.149-1.554 0.41l0.016-0.008c-0.465 0.263-0.841 0.635-1.101 1.082l-0.008 0.014c-0.253 0.452-0.401 0.992-0.401 1.567s0.149 1.115 0.41 1.583l-0.008-0.017c0.266 0.464 0.643 0.838 1.094 1.095l0.014 0.008c0.443 0.253 0.973 0.402 1.538 0.402 0.015 0 0.031-0 0.046-0l-0.002 0c0.013 0 0.028 0 0.043 0 0.557 0 1.080-0.149 1.53-0.41l-0.015 0.008c0.46-0.267 0.832-0.64 1.089-1.088l0.008-0.014c0.253-0.438 0.402-0.964 0.402-1.524 0-0.014-0-0.028-0-0.042l0 0.002h-1.522c0.001 0.021 0.002 0.046 0.002 0.071 0 0.422-0.162 0.806-0.428 1.093l0.001-0.001z"></path>
<path d="M11.867 12.719c-0.457-0.253-1.002-0.401-1.582-0.401s-1.125 0.149-1.599 0.41l0.017-0.009c-0.465 0.263-0.839 0.638-1.095 1.088l-0.007 0.014c-0.249 0.452-0.395 0.991-0.395 1.564s0.146 1.112 0.404 1.581l-0.009-0.017c0.263 0.465 0.638 0.839 1.088 1.095l0.014 0.007c0.457 0.253 1.002 0.401 1.582 0.401s1.125-0.149 1.599-0.41l-0.017 0.009c0.465-0.263 0.839-0.638 1.095-1.088l0.007-0.014c0.249-0.452 0.395-0.991 0.395-1.564s-0.146-1.112-0.404-1.581l0.009 0.017c-0.263-0.465-0.638-0.839-1.088-1.095l-0.014-0.007zM11.394 16.536c-0.267 0.274-0.639 0.444-1.052 0.444-0.020 0-0.040-0-0.059-0.001l0.003 0c-0.017 0.001-0.037 0.001-0.057 0.001-0.412 0-0.785-0.17-1.051-0.444l-0-0c-0.264-0.283-0.427-0.665-0.427-1.085 0-0.023 0.001-0.046 0.001-0.069l-0 0.003c-0.001-0.019-0.001-0.041-0.001-0.063 0-0.422 0.162-0.807 0.428-1.094l-0.001 0.001c0.266-0.278 0.639-0.45 1.053-0.45 0.019 0 0.039 0 0.058 0.001l-0.003-0c0.016-0.001 0.036-0.001 0.055-0.001 0.414 0 0.787 0.173 1.053 0.45l0.001 0.001c0.264 0.287 0.427 0.671 0.427 1.094 0 0.022-0 0.044-0.001 0.066l0-0.003c0.001 0.020 0.001 0.042 0.001 0.065 0 0.42-0.162 0.801-0.428 1.086l0.001-0.001z"></path>
<path d="M20.59 12.318c-0.018-0.001-0.039-0.001-0.061-0.001-0.691 0-1.313 0.295-1.747 0.766l-0.002 0.002c-0.309-0.466-0.832-0.769-1.425-0.769-0.030 0-0.060 0.001-0.089 0.002l0.004-0c-0.006-0-0.013-0-0.020-0-0.305 0-0.595 0.066-0.856 0.185l0.013-0.005c-0.261 0.117-0.481 0.284-0.657 0.489l-0.002 0.002v-0.599h-1.546v5.992h1.534v-3.499c-0.001-0.019-0.002-0.041-0.002-0.063 0-0.288 0.105-0.551 0.279-0.753l-0.001 0.002c0.166-0.184 0.406-0.3 0.672-0.3 0.008 0 0.016 0 0.024 0l-0.001-0c0.017-0.001 0.038-0.002 0.058-0.002 0.259 0 0.492 0.111 0.654 0.289l0.001 0.001c0.155 0.205 0.249 0.463 0.249 0.744 0 0.029-0.001 0.058-0.003 0.087l0-0.004v3.499h1.534v-3.499c-0.001-0.019-0.002-0.042-0.002-0.065 0-0.286 0.102-0.548 0.273-0.752l-0.002 0.002c0.165-0.185 0.405-0.3 0.671-0.3 0.011 0 0.021 0 0.032 0.001l-0.002-0c0.017-0.001 0.037-0.002 0.058-0.002 0.259 0 0.492 0.111 0.654 0.289l0.001 0.001c0.155 0.205 0.248 0.464 0.248 0.744 0 0.029-0.001 0.058-0.003 0.086l0-0.004v3.499h1.534v-3.835q0-1.102-0.551-1.666t-1.522-0.563z"></path>
<path d="M28.044 15.757c-0.057 0.388-0.241 0.726-0.508 0.976l-0.001 0.001c-0.252 0.213-0.581 0.343-0.941 0.343-0.021 0-0.042-0-0.063-0.001l0.003 0c-0.004 0-0.009 0-0.014 0-0.385 0-0.734-0.151-0.993-0.396l0.001 0.001 3.906-2.241c-0.206-0.624-0.584-1.145-1.077-1.522l-0.008-0.006c-0.486-0.371-1.102-0.594-1.77-0.594-0.024 0-0.049 0-0.073 0.001l0.004-0c-0.012-0-0.025-0-0.039-0-0.561 0-1.087 0.151-1.539 0.416l0.014-0.008c-0.462 0.269-0.836 0.644-1.095 1.094l-0.008 0.014c-0.253 0.447-0.401 0.982-0.401 1.552s0.149 1.105 0.41 1.568l-0.008-0.016c0.268 0.465 0.643 0.841 1.094 1.101l0.014 0.008c0.442 0.257 0.973 0.408 1.54 0.408 0.015 0 0.030-0 0.044-0l-0.002 0c0.027 0.001 0.058 0.001 0.089 0.001 0.737 0 1.411-0.271 1.928-0.718l-0.004 0.003q0.815-0.713 1.055-1.983zM25.012 15.29c-0.001-0.016-0.001-0.035-0.001-0.054 0-0.425 0.157-0.813 0.416-1.11l-0.002 0.002c0.254-0.288 0.623-0.468 1.035-0.468 0.017 0 0.035 0 0.052 0.001l-0.003-0c0.003-0 0.006-0 0.009-0 0.2 0 0.39 0.040 0.564 0.112l-0.010-0.004c0.175 0.071 0.324 0.177 0.442 0.31l0.001 0.001-2.493 1.45c-0.008-0.061-0.012-0.131-0.012-0.202 0-0.013 0-0.027 0-0.040l-0 0.002z"></path>
<path d="M31.501 18.070c0.434 0.242 0.952 0.384 1.503 0.384 0.017 0 0.034-0 0.051-0l-0.003 0c0.010 0 0.023 0 0.035 0 0.339 0 0.663-0.066 0.959-0.186l-0.017 0.006c0.282-0.112 0.523-0.271 0.726-0.468l-0.001 0v0.575h1.534v-8.544l-1.534 0.168v2.948c-0.199-0.2-0.441-0.357-0.711-0.457l-0.014-0.004c-0.282-0.11-0.61-0.174-0.951-0.174-0.009 0-0.018 0-0.027 0h0.001c-0.014-0-0.031-0-0.048-0-0.551 0-1.070 0.142-1.52 0.392l0.016-0.008c-0.456 0.255-0.822 0.625-1.065 1.070l-0.007 0.014c-0.242 0.465-0.384 1.016-0.384 1.6s0.142 1.134 0.393 1.619l-0.009-0.020c0.25 0.46 0.616 0.829 1.059 1.077l0.014 0.007zM32.016 14.211c0.279-0.282 0.666-0.456 1.094-0.456 0.018 0 0.036 0 0.053 0.001l-0.003-0c0.017-0.001 0.038-0.001 0.058-0.001 0.419 0 0.797 0.172 1.068 0.45l0 0c0.268 0.315 0.431 0.727 0.431 1.177s-0.163 0.862-0.434 1.18l0.002-0.003c-0.27 0.282-0.649 0.456-1.069 0.456-0.020 0-0.040-0-0.060-0.001l0.003 0c-0.015 0.001-0.033 0.001-0.051 0.001-0.428 0-0.815-0.174-1.094-0.456l-0-0c-0.279-0.31-0.449-0.722-0.449-1.174s0.17-0.864 0.451-1.176l-0.001 0.002z"></path>
<path d="M41.367 12.983l-1.354 3.187-1.354-3.187h-1.606l2.148 4.826c-0.342 0.866-0.878 1.592-1.557 2.151l-0.009 0.007c-0.843 0.657-1.916 1.053-3.083 1.053-0.837 0-1.626-0.204-2.321-0.565l0.028 0.013c-0.807-0.443-1.464-1.070-1.931-1.826l-0.013-0.022-1.188 0.824c0.808 1.348 2.073 2.353 3.576 2.807l0.044 0.012c0.545 0.169 1.172 0.266 1.822 0.266 1.898 0 3.602-0.829 4.769-2.146l0.006-0.007c0.498-0.563 0.899-1.226 1.168-1.953l0.014-0.043 2.444-5.398z"></path>
<path d="M2.217 8.508c-0.283-0.118-0.523-0.289-0.718-0.502l-0.001-0.002v0.623h-1.498v-8.376l1.534-0.168v3.104c0.201-0.196 0.442-0.35 0.711-0.451l0.014-0.005c0.277-0.106 0.598-0.168 0.933-0.168 0.011 0 0.022 0 0.034 0l-0.002-0c0.018-0 0.040-0.001 0.062-0.001 0.544 0 1.055 0.14 1.5 0.386l-0.016-0.008c0.448 0.255 0.806 0.622 1.042 1.064l0.007 0.014c0.238 0.449 0.378 0.981 0.378 1.545 0 0.023-0 0.047-0.001 0.070l0-0.003c0 0.021 0.001 0.045 0.001 0.069 0 0.562-0.14 1.091-0.387 1.554l0.009-0.018c-0.246 0.456-0.606 0.823-1.041 1.072l-0.013 0.007c-0.429 0.242-0.941 0.384-1.486 0.384-0.019 0-0.037-0-0.056-0.001l0.003 0c-0.013 0-0.028 0-0.043 0-0.348 0-0.679-0.071-0.98-0.198l0.016 0.006zM4.236 6.806c0.272-0.29 0.438-0.681 0.438-1.11 0-0.022-0-0.045-0.001-0.067l0 0.003c0.001-0.019 0.001-0.041 0.001-0.064 0-0.43-0.167-0.821-0.439-1.112l0.001 0.001c-0.273-0.282-0.655-0.456-1.078-0.456-0.019 0-0.038 0-0.058 0.001l0.003-0c-0.016-0.001-0.034-0.001-0.053-0.001-0.425 0-0.809 0.175-1.085 0.456l-0 0c-0.275 0.289-0.445 0.681-0.445 1.112 0 0.022 0 0.044 0.001 0.066l-0-0.003c-0.001 0.016-0.001 0.036-0.001 0.055 0 0.432 0.169 0.824 0.445 1.114l-0.001-0.001c0.275 0.285 0.66 0.462 1.087 0.462 0.018 0 0.036-0 0.054-0.001l-0.003 0c0.016 0.001 0.036 0.001 0.055 0.001 0.423 0 0.805-0.175 1.077-0.456l0-0z"></path>
<path d="M8.568 2.636v0.791c0.115-0.259 0.296-0.471 0.522-0.62l0.005-0.003c0.234-0.151 0.52-0.24 0.827-0.24 0.017 0 0.034 0 0.051 0.001l-0.002-0c0.017-0.001 0.037-0.001 0.057-0.001 0.168 0 0.33 0.027 0.481 0.076l-0.011-0.003v1.522c-0.149-0.061-0.323-0.097-0.505-0.097-0.016 0-0.033 0-0.049 0.001l0.002-0c-0.015-0.001-0.032-0.001-0.050-0.001-0.37 0-0.704 0.152-0.944 0.396l-0 0c-0.239 0.265-0.386 0.618-0.386 1.005 0 0.030 0.001 0.060 0.003 0.090l-0-0.004v3.080h-1.534v-5.992z"></path>
<path d="M11.222 1.72c-0.181-0.176-0.294-0.423-0.294-0.695 0-0.006 0-0.012 0-0.019v0.001c-0-0.005-0-0.011-0-0.017 0-0.273 0.112-0.519 0.293-0.695l0-0c0.174-0.181 0.419-0.294 0.69-0.294 0.004 0 0.008 0 0.012 0h-0.001c0.005-0 0.011-0 0.017-0 0.273 0 0.519 0.112 0.695 0.293l0 0c0.181 0.177 0.294 0.423 0.294 0.696 0 0.006-0 0.012-0 0.018v-0.001c0 0.005 0 0.011 0 0.017 0 0.273-0.112 0.519-0.293 0.695l-0 0c-0.176 0.181-0.423 0.294-0.695 0.294-0.006 0-0.012-0-0.018-0h0.001c-0.003 0-0.008 0-0.012 0-0.271 0-0.515-0.113-0.689-0.293l-0-0zM12.702 2.636v5.992h-1.534v-5.992z"></path>
<path d="M14.943 11.39c-0.404-0.201-0.738-0.487-0.989-0.837l-0.005-0.008c-0.248-0.347-0.418-0.766-0.478-1.22l-0.002-0.014h1.582c0.074 0.273 0.226 0.504 0.429 0.675l0.002 0.002c0.224 0.161 0.503 0.258 0.805 0.258 0.365 0 0.698-0.141 0.945-0.372l-0.001 0.001c0.223-0.236 0.36-0.555 0.36-0.907 0-0.018-0-0.036-0.001-0.054l0 0.003c0.001-0.016 0.001-0.035 0.001-0.054 0-0.349-0.132-0.666-0.35-0.905l0.001 0.001c-0.217-0.23-0.524-0.372-0.865-0.372-0.016 0-0.032 0-0.048 0.001l0.002-0c-0.006-0-0.014-0-0.022-0-0.27 0-0.521 0.078-0.733 0.213l0.005-0.003c-0.207 0.127-0.37 0.309-0.47 0.526l-0.003 0.007-1.15-1.043c0.161-0.208 0.346-0.386 0.555-0.534l0.008-0.005c-0.486-0.435-0.791-1.064-0.791-1.764 0-0.007 0-0.015 0-0.022v0.001c-0-0.009-0-0.021-0-0.032 0-0.435 0.116-0.844 0.318-1.196l-0.006 0.012c0.208-0.362 0.501-0.655 0.852-0.857l0.011-0.006c0.345-0.2 0.759-0.318 1.201-0.318 0.012 0 0.023 0 0.035 0l-0.002-0c0.005-0 0.010-0 0.015-0 0.26 0 0.511 0.044 0.743 0.125l-0.016-0.005c0.213 0.067 0.395 0.183 0.539 0.335l0.001 0.001v-0.383h1.426l-0.012 2.217c0 0.015 0 0.033 0 0.051 0 0.355-0.062 0.696-0.175 1.012l0.007-0.021c-0.13 0.332-0.326 0.612-0.573 0.837l-0.002 0.002c0.325 0.248 0.585 0.566 0.76 0.931l0.007 0.015c0.174 0.366 0.276 0.795 0.276 1.248 0 0.527-0.138 1.022-0.379 1.451l0.008-0.015c-0.245 0.419-0.594 0.753-1.011 0.976l-0.014 0.007c-0.408 0.219-0.893 0.348-1.408 0.348-0.012 0-0.025-0-0.037-0l0.002 0c-0.011 0-0.024 0-0.038 0-0.479 0-0.932-0.113-1.334-0.314l0.017 0.008zM17.034 5.776c0.189-0.189 0.306-0.45 0.306-0.738 0-0.014-0-0.029-0.001-0.043l0 0.002c0.001-0.014 0.001-0.030 0.001-0.046 0-0.29-0.117-0.553-0.307-0.745l0 0c-0.2-0.186-0.469-0.3-0.764-0.3s-0.564 0.114-0.765 0.3l0.001-0.001c-0.186 0.192-0.301 0.454-0.301 0.743 0 0.017 0 0.033 0.001 0.050l-0-0.002c-0.001 0.013-0.001 0.028-0.001 0.043 0 0.287 0.115 0.547 0.301 0.737l-0-0c0.2 0.186 0.469 0.3 0.764 0.3s0.564-0.114 0.765-0.3l-0.001 0.001z"></path>
<path d="M21.593 0.084v3.163c0.194-0.207 0.427-0.375 0.688-0.492l0.014-0.005c0.264-0.118 0.571-0.186 0.895-0.186 0.012 0 0.024 0 0.036 0l-0.002-0q1.066 0 1.702 0.647t0.635 1.821v3.595h-1.534v-3.235q0-1.378-1.174-1.378c-0.015-0.001-0.033-0.001-0.051-0.001-0.343 0-0.651 0.148-0.865 0.384l-0.001 0.001c-0.213 0.249-0.343 0.576-0.343 0.933 0 0.022 0 0.043 0.001 0.065l-0-0.003v3.236h-1.534v-8.376z"></path>
<path d="M25.967 4.062v-1.426h1.21v-2.385l1.534-0.168v2.552h1.774v1.426h-1.774v4.566h-1.534v-4.566z"></path>
<path d="M32.138 8.298c-0.465-0.263-0.839-0.638-1.095-1.088l-0.007-0.014c-0.249-0.439-0.396-0.963-0.396-1.522 0-0.014 0-0.029 0-0.043l-0 0.002c-0-0.012-0-0.027-0-0.041 0-0.559 0.147-1.084 0.404-1.538l-0.008 0.016c0.263-0.465 0.638-0.839 1.088-1.095l0.014-0.007c0.457-0.253 1.002-0.401 1.582-0.401s1.125 0.149 1.599 0.41l-0.017-0.009c0.465 0.263 0.839 0.638 1.095 1.088l0.007 0.014c0.249 0.439 0.396 0.963 0.396 1.523 0 0.015-0 0.029-0 0.043l0-0.002c0 0.012 0 0.027 0 0.041 0 0.559-0.147 1.084-0.404 1.538l0.008-0.016c-0.263 0.465-0.638 0.839-1.088 1.095l-0.014 0.007c-0.457 0.253-1.002 0.401-1.582 0.401s-1.125-0.149-1.599-0.41l0.017 0.009zM34.828 6.782c0.264-0.284 0.427-0.665 0.427-1.085 0-0.023-0.001-0.046-0.001-0.069l0 0.003c0.001-0.019 0.001-0.041 0.001-0.063 0-0.422-0.162-0.807-0.428-1.094l0.001 0.001c-0.286-0.278-0.677-0.449-1.108-0.449s-0.822 0.171-1.109 0.45l0-0c-0.264 0.287-0.427 0.671-0.427 1.093 0 0.022 0 0.044 0.001 0.067l-0-0.003c-0.001 0.020-0.001 0.043-0.001 0.066 0 0.42 0.162 0.801 0.428 1.086l-0.001-0.001c0.288 0.274 0.678 0.443 1.108 0.443s0.821-0.169 1.109-0.444l-0.001 0.001z"></path>
<path d="M39.172 2.636v0.563c0.179-0.19 0.394-0.344 0.635-0.45l0.013-0.005c0.258-0.114 0.558-0.18 0.875-0.18 0.017 0 0.034 0 0.051 0.001l-0.002-0q1.090 0 1.719 0.641t0.629 1.827v3.595h-1.534v-3.235q0-1.378-1.139-1.378c-0.021-0.001-0.045-0.002-0.069-0.002-0.338 0-0.642 0.146-0.852 0.379l-0.001 0.001c-0.203 0.252-0.325 0.575-0.325 0.927 0 0.026 0.001 0.051 0.002 0.077l-0-0.004v3.235h-1.534v-5.992z"></path>
</symbol>
<symbol id="icon-bristol-comedy-garden" viewBox="0 0 43 32">
<title>bristol-comedy-garden</title>
<path d="M7.678 8.597c-0.286-0.119-0.529-0.292-0.725-0.507l-0.001-0.002v0.63h-1.514v-8.464l1.55-0.17v3.136c0.203-0.198 0.447-0.354 0.718-0.455l0.014-0.005c0.28-0.108 0.604-0.17 0.943-0.17 0.011 0 0.023 0 0.034 0l-0.002-0c0.019-0 0.041-0.001 0.063-0.001 0.55 0 1.066 0.142 1.515 0.39l-0.016-0.008c0.453 0.257 0.814 0.629 1.053 1.075l0.007 0.014c0.241 0.453 0.382 0.991 0.382 1.562 0 0.024-0 0.047-0.001 0.071l0-0.003c0 0.021 0.001 0.045 0.001 0.070 0 0.568-0.141 1.102-0.391 1.571l0.009-0.018c-0.249 0.461-0.612 0.832-1.052 1.083l-0.013 0.007c-0.433 0.244-0.951 0.388-1.502 0.388-0.019 0-0.038-0-0.057-0.001l0.003 0c-0.013 0-0.028 0-0.043 0-0.351 0-0.686-0.071-0.991-0.2l0.017 0.006zM9.718 6.878c0.275-0.293 0.443-0.688 0.443-1.122 0-0.023-0-0.045-0.001-0.068l0 0.003c0.001-0.019 0.001-0.042 0.001-0.064 0-0.434-0.169-0.83-0.444-1.123l0.001 0.001c-0.276-0.284-0.662-0.461-1.089-0.461-0.020 0-0.039 0-0.058 0.001l0.003-0c-0.016-0.001-0.035-0.001-0.053-0.001-0.43 0-0.818 0.176-1.097 0.461l-0 0c-0.278 0.292-0.449 0.688-0.449 1.124 0 0.022 0 0.044 0.001 0.066l-0-0.003c-0.001 0.016-0.001 0.036-0.001 0.055 0 0.436 0.171 0.833 0.45 1.126l-0.001-0.001c0.278 0.288 0.667 0.467 1.099 0.467 0.018 0 0.037-0 0.055-0.001l-0.003 0c0.017 0.001 0.036 0.001 0.056 0.001 0.427 0 0.813-0.177 1.088-0.461l0-0z"></path>
<path d="M14.095 2.664v0.799c0.116-0.262 0.299-0.476 0.527-0.626l0.005-0.003c0.26-0.152 0.573-0.242 0.907-0.242 0.182 0 0.357 0.027 0.523 0.076l-0.013-0.003v1.538c-0.151-0.062-0.326-0.098-0.51-0.098-0.017 0-0.033 0-0.049 0.001l0.002-0c-0.015-0.001-0.033-0.001-0.051-0.001-0.374 0-0.712 0.153-0.954 0.4l-0 0c-0.242 0.268-0.39 0.624-0.39 1.015 0 0.031 0.001 0.061 0.003 0.091l-0-0.004v3.112h-1.55v-6.054z"></path>
<path d="M16.777 1.738c-0.183-0.178-0.297-0.427-0.297-0.703 0-0.006 0-0.013 0-0.019v0.001c-0-0.005-0-0.011-0-0.018 0-0.276 0.114-0.524 0.297-0.703l0-0c0.176-0.183 0.423-0.297 0.697-0.297 0.004 0 0.008 0 0.012 0h-0.001c0.005-0 0.011-0 0.017-0 0.276 0 0.525 0.114 0.703 0.297l0 0c0.183 0.178 0.297 0.427 0.297 0.703 0 0.006-0 0.012-0 0.018v-0.001c0 0.005 0 0.011 0 0.018 0 0.276-0.114 0.525-0.297 0.703l-0 0c-0.178 0.183-0.427 0.297-0.703 0.297-0.006 0-0.012-0-0.019-0h0.001c-0.003 0-0.008 0-0.012 0-0.274 0-0.521-0.114-0.696-0.296l-0-0zM18.273 2.664v6.054h-1.55v-6.054z"></path>
<path d="M20.113 8.512c-0.325-0.181-0.586-0.44-0.764-0.753l-0.005-0.010c-0.171-0.303-0.273-0.665-0.273-1.050 0-0.010 0-0.019 0-0.029v0.001h1.477c-0.001 0.017-0.002 0.036-0.002 0.056 0 0.184 0.075 0.351 0.196 0.471l0 0c0.133 0.124 0.311 0.2 0.508 0.2 0.18 0 0.346-0.064 0.474-0.171l-0.001 0.001c0.113-0.109 0.182-0.262 0.182-0.43 0-0.010-0-0.021-0.001-0.031l0 0.001c0.001-0.010 0.001-0.022 0.001-0.035 0-0.138-0.051-0.264-0.135-0.36l0.001 0.001c-0.077-0.084-0.172-0.15-0.28-0.192l-0.005-0.002q-0.151-0.054-0.599-0.164c-0.414-0.086-0.771-0.287-1.047-0.569l-0-0c-0.253-0.276-0.407-0.646-0.407-1.051 0-0.026 0.001-0.053 0.002-0.079l-0 0.004c-0-0.014-0.001-0.031-0.001-0.047 0-0.47 0.198-0.894 0.515-1.193l0.001-0.001c0.321-0.304 0.756-0.491 1.234-0.491 0.020 0 0.039 0 0.058 0.001l-0.003-0c0.011-0 0.024-0 0.038-0 0.62 0 1.17 0.303 1.508 0.77l0.004 0.005-0.945 0.908c-0.054-0.11-0.129-0.201-0.222-0.271l-0.002-0.001c-0.081-0.063-0.184-0.102-0.297-0.103h-0c-0.007-0-0.014-0.001-0.022-0.001-0.11 0-0.211 0.042-0.287 0.11l0-0c-0.071 0.065-0.115 0.157-0.115 0.261 0 0.002 0 0.004 0 0.006v-0c-0.001 0.009-0.001 0.019-0.001 0.029 0 0.134 0.073 0.252 0.181 0.315l0.002 0.001c0.171 0.086 0.37 0.155 0.578 0.197l0.015 0.003q0.327 0.085 0.424 0.121 1.295 0.424 1.296 1.78c0.001 0.022 0.001 0.048 0.001 0.074 0 0.559-0.233 1.063-0.606 1.421l-0.001 0.001c-0.384 0.357-0.901 0.577-1.469 0.577-0.028 0-0.057-0.001-0.085-0.002l0.004 0c-0.012 0-0.025 0-0.039 0-0.399 0-0.773-0.103-1.099-0.285l0.011 0.006z"></path>
<path d="M23.552 4.105v-1.441h1.223v-2.41l1.55-0.17v2.579h1.792v1.441h-1.792v4.614h-1.55v-4.614z"></path>
<path d="M29.788 8.385c-0.47-0.266-0.848-0.644-1.107-1.1l-0.008-0.014c-0.252-0.443-0.4-0.973-0.4-1.538 0-0.015 0-0.029 0-0.044l-0 0.002c-0-0.012-0-0.027-0-0.042 0-0.565 0.148-1.095 0.408-1.554l-0.008 0.016c0.266-0.47 0.645-0.848 1.1-1.107l0.014-0.007c0.462-0.255 1.013-0.406 1.598-0.406s1.137 0.15 1.616 0.414l-0.017-0.009c0.469 0.266 0.848 0.645 1.106 1.1l0.008 0.014c0.252 0.443 0.4 0.974 0.4 1.539 0 0.014-0 0.029-0 0.043l0-0.002c0 0.012 0 0.027 0 0.041 0 0.565-0.148 1.096-0.408 1.554l0.008-0.016c-0.266 0.47-0.644 0.848-1.1 1.107l-0.014 0.008c-0.462 0.255-1.013 0.406-1.598 0.406s-1.137-0.15-1.616-0.414l0.017 0.009zM32.507 6.854c0.267-0.287 0.431-0.672 0.431-1.096 0-0.023-0.001-0.046-0.001-0.069l0 0.003c0.001-0.019 0.001-0.041 0.001-0.064 0-0.427-0.164-0.815-0.432-1.106l0.001 0.001c-0.289-0.281-0.684-0.454-1.12-0.454s-0.831 0.173-1.12 0.454l0-0c-0.267 0.289-0.431 0.678-0.431 1.104 0 0.023 0 0.045 0.001 0.067l-0-0.003c-0.001 0.020-0.001 0.043-0.001 0.066 0 0.424 0.164 0.81 0.432 1.097l-0.001-0.001c0.291 0.277 0.686 0.448 1.12 0.448s0.829-0.171 1.121-0.449l-0.001 0.001z"></path>
<path d="M36.896 0.085v8.634h-1.55v-8.464z"></path>
<path d="M3.996 31.691c-0.408-0.203-0.746-0.492-1-0.846l-0.005-0.008c-0.25-0.351-0.423-0.774-0.483-1.233l-0.002-0.014h1.598c0.075 0.276 0.228 0.51 0.434 0.683l0.002 0.002c0.209 0.163 0.476 0.262 0.766 0.262 0.020 0 0.041-0 0.061-0.001l-0.003 0c0.014 0.001 0.031 0.001 0.048 0.001 0.351 0 0.668-0.144 0.896-0.376l0-0c0.226-0.239 0.364-0.561 0.364-0.917 0-0.018-0-0.037-0.001-0.055l0 0.003c0.001-0.016 0.001-0.035 0.001-0.055 0-0.352-0.134-0.673-0.353-0.915l0.001 0.001c-0.22-0.232-0.53-0.376-0.874-0.376-0.016 0-0.033 0-0.049 0.001l0.002-0c-0.006-0-0.014-0-0.022-0-0.273 0-0.527 0.079-0.741 0.216l0.006-0.003c-0.209 0.129-0.374 0.312-0.475 0.531l-0.003 0.008-1.162-1.054c0.162-0.21 0.35-0.39 0.561-0.539l0.008-0.005c-0.491-0.439-0.799-1.075-0.799-1.783 0-0.008 0-0.015 0-0.023v0.001c-0-0.009-0-0.021-0-0.032 0-0.44 0.117-0.853 0.321-1.209l-0.006 0.012c0.21-0.366 0.506-0.662 0.861-0.866l0.011-0.006c0.349-0.202 0.767-0.321 1.214-0.321 0.012 0 0.024 0 0.035 0l-0.002-0c0.005-0 0.010-0 0.015-0 0.263 0 0.516 0.044 0.751 0.126l-0.016-0.005c0.215 0.068 0.399 0.185 0.544 0.338l0.001 0.001v-0.387h1.441l-0.012 2.24c0 0.015 0 0.034 0 0.052 0 0.359-0.062 0.703-0.177 1.023l0.007-0.021c-0.131 0.335-0.329 0.619-0.58 0.846l-0.002 0.002c0.329 0.251 0.591 0.572 0.768 0.941l0.007 0.015c0.176 0.37 0.279 0.803 0.279 1.261 0 0.533-0.139 1.033-0.383 1.466l0.008-0.015c-0.248 0.423-0.6 0.761-1.021 0.986l-0.014 0.007c-0.413 0.221-0.903 0.351-1.423 0.351-0.013 0-0.025-0-0.038-0l0.002 0c-0.011 0-0.025 0-0.038 0-0.484 0-0.942-0.114-1.348-0.317l0.017 0.008zM6.109 26.018c0.191-0.191 0.31-0.454 0.31-0.746 0-0.015-0-0.029-0.001-0.043l0 0.002c0.001-0.014 0.001-0.030 0.001-0.047 0-0.294-0.118-0.559-0.31-0.753l0 0c-0.19-0.187-0.452-0.303-0.74-0.303-0.010 0-0.020 0-0.030 0l0.001-0c-0.011-0-0.024-0.001-0.037-0.001-0.288 0-0.549 0.116-0.738 0.303l0-0c-0.188 0.194-0.304 0.459-0.304 0.751 0 0.017 0 0.034 0.001 0.051l-0-0.002c-0.001 0.013-0.001 0.028-0.001 0.043 0 0.29 0.116 0.552 0.304 0.744l-0-0c0.189 0.188 0.45 0.304 0.738 0.304 0.013 0 0.026-0 0.039-0.001l-0.002 0c0.009 0 0.019 0 0.029 0 0.288 0 0.55-0.116 0.74-0.303l-0 0z"></path>
<path d="M10.142 28.573c-0.461-0.265-0.833-0.639-1.088-1.088l-0.008-0.014c-0.252-0.463-0.4-1.013-0.4-1.598s0.148-1.136 0.409-1.616l-0.009 0.018c0.263-0.463 0.635-0.837 1.082-1.095l0.014-0.007c0.435-0.252 0.958-0.4 1.515-0.4 0.015 0 0.029 0 0.044 0l-0.002-0c0.009-0 0.019-0 0.030-0 0.349 0 0.682 0.069 0.986 0.194l-0.017-0.006c0.273 0.104 0.505 0.259 0.696 0.454l0 0v-0.569h1.562v6.055h-1.562v-0.581c-0.186 0.198-0.415 0.355-0.672 0.456l-0.012 0.004c-0.289 0.123-0.624 0.194-0.976 0.194-0.012 0-0.024-0-0.037-0l0.002 0c-0.012 0-0.027 0-0.041 0-0.557 0-1.079-0.148-1.53-0.408l0.015 0.008zM12.933 27.066c0.278-0.319 0.448-0.739 0.448-1.199 0-0.457-0.167-0.874-0.444-1.195l0.002 0.002c-0.276-0.277-0.658-0.449-1.079-0.449-0.018 0-0.037 0-0.055 0.001l0.003-0c-0.006-0-0.013-0-0.020-0-0.91 0-1.647 0.737-1.647 1.647s0.737 1.647 1.647 1.647c0.007 0 0.014-0 0.021-0h-0.001c0.013 0 0.028 0.001 0.043 0.001 0.424 0 0.807-0.174 1.083-0.454l0-0z"></path>
<path d="M17.607 22.846v0.799c0.116-0.262 0.299-0.476 0.527-0.626l0.005-0.003c0.26-0.152 0.573-0.242 0.907-0.242 0.182 0 0.357 0.027 0.523 0.076l-0.013-0.003v1.538c-0.151-0.062-0.326-0.098-0.51-0.098-0.017 0-0.033 0-0.049 0.001l0.002-0c-0.015-0.001-0.033-0.001-0.050-0.001-0.374 0-0.712 0.153-0.954 0.4l-0 0c-0.242 0.268-0.39 0.624-0.39 1.015 0 0.031 0.001 0.061 0.003 0.091l-0-0.004v3.112h-1.55v-6.055z"></path>
<path d="M21.294 28.585c-0.461-0.258-0.831-0.631-1.077-1.082l-0.007-0.014c-0.244-0.47-0.387-1.027-0.387-1.617s0.143-1.146 0.397-1.636l-0.009 0.020c0.253-0.465 0.623-0.838 1.070-1.089l0.014-0.007c0.439-0.244 0.962-0.388 1.519-0.388 0.017 0 0.034 0 0.051 0l-0.003-0c0.008-0 0.016-0 0.025-0 0.346 0 0.676 0.064 0.98 0.182l-0.019-0.006c0.287 0.105 0.531 0.264 0.733 0.466l0 0v-2.979l1.55-0.169v8.634h-1.55v-0.581c-0.204 0.199-0.448 0.359-0.718 0.467l-0.015 0.005c-0.282 0.115-0.608 0.182-0.95 0.182-0.013 0-0.026-0-0.038-0l0.002 0c-0.015 0-0.032 0-0.049 0-0.557 0-1.080-0.144-1.535-0.396l0.016 0.008zM24.109 27.060c0.271-0.319 0.436-0.735 0.436-1.19s-0.165-0.871-0.438-1.192l0.002 0.003c-0.274-0.281-0.656-0.455-1.079-0.455-0.021 0-0.042 0-0.062 0.001l0.003-0c-0.015-0.001-0.033-0.001-0.051-0.001-0.432 0-0.823 0.176-1.105 0.461l-0 0c-0.282 0.313-0.454 0.73-0.454 1.187s0.172 0.873 0.455 1.188l-0.001-0.002c0.282 0.285 0.673 0.461 1.105 0.461 0.018 0 0.036-0 0.054-0.001l-0.003 0c0.017 0.001 0.038 0.001 0.058 0.001 0.424 0 0.808-0.177 1.080-0.461l0-0.001z"></path>
<path d="M28.505 28.561c-0.47-0.27-0.85-0.65-1.112-1.105l-0.008-0.014c-0.255-0.452-0.406-0.993-0.406-1.568s0.15-1.116 0.414-1.584l-0.008 0.016c0.269-0.469 0.647-0.848 1.1-1.112l0.014-0.008c0.442-0.259 0.974-0.412 1.541-0.412 0.014 0 0.027 0 0.041 0l-0.002-0c0.021-0.001 0.046-0.001 0.070-0.001 0.675 0 1.297 0.226 1.796 0.606l-0.007-0.005c0.506 0.387 0.887 0.913 1.089 1.522l0.006 0.022-3.947 2.264c0.261 0.247 0.614 0.4 1.003 0.4 0.005 0 0.010-0 0.015-0h-0.001c0.018 0.001 0.039 0.001 0.061 0.001 0.363 0 0.695-0.131 0.953-0.348l-0.002 0.002c0.271-0.254 0.457-0.595 0.514-0.978l0.001-0.009h1.574q-0.242 1.284-1.066 2.004c-0.518 0.449-1.199 0.722-1.944 0.722-0.032 0-0.063-0-0.095-0.001l0.005 0c-0.013 0-0.028 0-0.043 0-0.572 0-1.109-0.153-1.571-0.42l0.015 0.008zM30.648 24.238c-0.165-0.069-0.358-0.109-0.559-0.109-0.003 0-0.007 0-0.010 0h0.001c-0.015-0.001-0.032-0.001-0.050-0.001-0.416 0-0.79 0.182-1.045 0.472l-0.001 0.002c-0.26 0.298-0.419 0.691-0.419 1.12 0 0.019 0 0.038 0.001 0.057l-0-0.003c-0 0.011-0 0.025-0 0.038 0 0.072 0.005 0.142 0.013 0.212l-0.001-0.008 2.519-1.465c-0.121-0.136-0.271-0.243-0.44-0.312l-0.008-0.003z"></path>
<path d="M35.6 22.846v0.569c0.181-0.192 0.398-0.347 0.641-0.455l0.013-0.005c0.261-0.115 0.564-0.182 0.884-0.182 0.017 0 0.034 0 0.051 0.001l-0.003-0q1.102 0 1.737 0.648t0.636 1.847v3.633h-1.55v-3.269q0-1.392-1.151-1.393c-0.021-0.001-0.045-0.002-0.070-0.002-0.342 0-0.649 0.148-0.861 0.383l-0.001 0.001c-0.205 0.254-0.329 0.581-0.329 0.937 0 0.026 0.001 0.052 0.002 0.078l-0-0.004v3.269h-1.55v-6.055z"></path>
<path d="M4.244 16.385c-0.27 0.277-0.646 0.449-1.063 0.449-0.020 0-0.040-0-0.060-0.001l0.003 0c-0.017 0.001-0.036 0.001-0.055 0.001-0.419 0-0.798-0.172-1.071-0.449l-0-0c-0.271-0.288-0.437-0.677-0.437-1.104 0-0.025 0.001-0.049 0.002-0.074l-0 0.003c-0.001-0.020-0.001-0.044-0.001-0.068 0-0.43 0.166-0.822 0.438-1.114l-0.001 0.001c0.272-0.281 0.652-0.455 1.073-0.455 0.019 0 0.038 0 0.056 0.001l-0.003-0c0.002 0 0.005-0 0.007-0 0.445 0 0.845 0.196 1.117 0.507l0.001 0.002 1.138-1.017c-0.545-0.59-1.322-0.958-2.185-0.958-0.028 0-0.056 0-0.084 0.001l0.004-0c-0.013-0-0.028-0-0.044-0-0.571 0-1.107 0.151-1.571 0.414l0.016-0.008c-0.47 0.266-0.849 0.642-1.113 1.094l-0.008 0.014c-0.255 0.457-0.406 1.003-0.406 1.583s0.15 1.126 0.414 1.6l-0.009-0.017c0.269 0.469 0.649 0.847 1.106 1.107l0.015 0.008c0.447 0.255 0.983 0.406 1.554 0.406 0.015 0 0.031-0 0.046-0l-0.002 0c0.013 0 0.028 0 0.043 0 0.563 0 1.091-0.151 1.546-0.414l-0.015 0.008c0.465-0.27 0.841-0.647 1.1-1.1l0.008-0.014c0.255-0.443 0.406-0.974 0.406-1.54 0-0.014-0-0.028-0-0.043l0 0.002h-1.538c0.001 0.021 0.002 0.046 0.002 0.072 0 0.426-0.164 0.814-0.432 1.104l0.001-0.001z"></path>
<path d="M11.37 12.517c-0.462-0.255-1.013-0.406-1.598-0.406s-1.137 0.15-1.616 0.414l0.017-0.009c-0.47 0.266-0.848 0.645-1.107 1.1l-0.008 0.014c-0.252 0.457-0.4 1.001-0.4 1.58s0.148 1.123 0.408 1.597l-0.009-0.017c0.266 0.47 0.644 0.848 1.1 1.107l0.014 0.008c0.462 0.255 1.013 0.406 1.598 0.406s1.137-0.15 1.616-0.414l-0.017 0.009c0.47-0.266 0.848-0.644 1.107-1.1l0.008-0.014c0.252-0.457 0.4-1.001 0.4-1.58s-0.148-1.123-0.408-1.597l0.009 0.017c-0.266-0.47-0.644-0.848-1.1-1.107l-0.014-0.008zM10.892 16.373c-0.27 0.277-0.646 0.449-1.063 0.449-0.020 0-0.040-0-0.060-0.001l0.003 0c-0.017 0.001-0.037 0.001-0.057 0.001-0.417 0-0.793-0.172-1.062-0.449l-0-0c-0.267-0.286-0.431-0.672-0.431-1.096 0-0.023 0.001-0.047 0.001-0.070l-0 0.003c-0.001-0.019-0.001-0.041-0.001-0.064 0-0.427 0.164-0.815 0.432-1.106l-0.001 0.001c0.268-0.281 0.646-0.455 1.064-0.455 0.020 0 0.039 0 0.059 0.001l-0.003-0c0.017-0.001 0.036-0.001 0.056-0.001 0.418 0 0.796 0.174 1.064 0.454l0.001 0.001c0.267 0.29 0.431 0.678 0.431 1.105 0 0.022-0 0.045-0.001 0.067l0-0.003c0.001 0.020 0.001 0.043 0.001 0.066 0 0.424-0.164 0.81-0.432 1.097l0.001-0.001z"></path>
<path d="M20.186 12.111c-0.018-0.001-0.040-0.001-0.061-0.001-0.698 0-1.327 0.298-1.766 0.774l-0.002 0.002c-0.312-0.471-0.84-0.777-1.44-0.777-0.030 0-0.060 0.001-0.090 0.002l0.004-0c-0.006-0-0.013-0-0.020-0-0.308 0-0.601 0.067-0.865 0.187l0.013-0.005c-0.264 0.119-0.486 0.287-0.664 0.494l-0.002 0.003v-0.606h-1.562v6.055h1.55v-3.536c-0.001-0.019-0.002-0.041-0.002-0.064 0-0.291 0.106-0.556 0.282-0.761l-0.001 0.002c0.168-0.186 0.41-0.303 0.68-0.303 0.008 0 0.016 0 0.024 0l-0.001-0c0.017-0.001 0.038-0.002 0.058-0.002 0.262 0 0.498 0.112 0.661 0.292l0.001 0.001c0.157 0.207 0.251 0.468 0.251 0.752 0 0.029-0.001 0.059-0.003 0.088l0-0.004v3.536h1.55v-3.536c-0.001-0.019-0.002-0.042-0.002-0.065 0-0.289 0.104-0.554 0.276-0.76l-0.002 0.002c0.167-0.186 0.409-0.303 0.678-0.303 0.011 0 0.022 0 0.032 0.001l-0.002-0c0.017-0.001 0.038-0.002 0.058-0.002 0.262 0 0.498 0.112 0.661 0.292l0.001 0.001c0.157 0.207 0.251 0.468 0.251 0.752 0 0.029-0.001 0.058-0.003 0.087l0-0.004v3.536h1.55v-3.875q0-1.114-0.557-1.683t-1.538-0.569z"></path>
<path d="M27.717 15.586c-0.058 0.392-0.244 0.733-0.514 0.986l-0.001 0.001c-0.255 0.215-0.587 0.346-0.95 0.346-0.021 0-0.043-0-0.064-0.001l0.003 0c-0.004 0-0.009 0-0.015 0-0.389 0-0.742-0.152-1.003-0.4l0.001 0.001 3.947-2.265c-0.208-0.631-0.59-1.157-1.088-1.538l-0.008-0.006c-0.491-0.375-1.113-0.6-1.788-0.6-0.025 0-0.049 0-0.074 0.001l0.004-0c-0.012-0-0.025-0-0.039-0-0.567 0-1.099 0.153-1.556 0.42l0.015-0.008c-0.467 0.272-0.845 0.651-1.106 1.105l-0.008 0.015c-0.255 0.452-0.406 0.993-0.406 1.568s0.15 1.116 0.414 1.584l-0.008-0.016c0.27 0.47 0.65 0.85 1.106 1.112l0.014 0.008c0.447 0.259 0.983 0.412 1.556 0.412 0.015 0 0.030-0 0.045-0l-0.002 0c0.027 0.001 0.058 0.001 0.090 0.001 0.745 0 1.426-0.273 1.948-0.725l-0.004 0.003q0.823-0.72 1.066-2.004zM24.654 15.114c-0.001-0.016-0.001-0.035-0.001-0.055 0-0.429 0.159-0.822 0.42-1.122l-0.002 0.002c0.256-0.291 0.63-0.473 1.046-0.473 0.018 0 0.035 0 0.052 0.001l-0.003-0c0.003-0 0.006-0 0.009-0 0.202 0 0.394 0.040 0.57 0.113l-0.010-0.004c0.177 0.072 0.327 0.179 0.447 0.313l0.001 0.001-2.519 1.465c-0.008-0.061-0.012-0.132-0.012-0.204 0-0.013 0-0.027 0-0.040l-0 0.002z"></path>
<path d="M31.211 17.923c0.439 0.244 0.962 0.388 1.519 0.388 0.017 0 0.035-0 0.052-0l-0.003 0c0.011 0 0.023 0 0.036 0 0.343 0 0.67-0.067 0.969-0.188l-0.017 0.006c0.285-0.114 0.528-0.273 0.733-0.473l-0.001 0v0.581h1.55v-8.634l-1.55 0.169v2.979c-0.202-0.202-0.446-0.361-0.719-0.462l-0.014-0.004c-0.285-0.111-0.616-0.176-0.961-0.176-0.009 0-0.018 0-0.027 0h0.001c-0.014-0-0.031-0-0.048-0-0.557 0-1.081 0.144-1.536 0.396l0.016-0.008c-0.461 0.258-0.831 0.631-1.077 1.082l-0.007 0.014c-0.244 0.47-0.388 1.027-0.388 1.617s0.143 1.146 0.397 1.637l-0.009-0.020c0.253 0.465 0.622 0.838 1.070 1.089l0.014 0.007zM31.731 14.024c0.282-0.285 0.673-0.461 1.105-0.461 0.018 0 0.036 0 0.054 0.001l-0.003-0c0.018-0.001 0.038-0.001 0.059-0.001 0.423 0 0.805 0.174 1.079 0.455l0 0c0.271 0.319 0.436 0.735 0.436 1.19s-0.165 0.871-0.438 1.192l0.002-0.003c-0.273 0.285-0.656 0.461-1.080 0.461-0.020 0-0.041-0-0.061-0.001l0.003 0c-0.015 0.001-0.033 0.001-0.051 0.001-0.432 0-0.823-0.176-1.105-0.461l-0-0c-0.282-0.313-0.454-0.73-0.454-1.187s0.172-0.873 0.455-1.188l-0.001 0.002z"></path>
<path d="M41.18 12.784l-1.368 3.221-1.368-3.221h-1.623l2.17 4.877c-0.346 0.875-0.888 1.609-1.573 2.174l-0.009 0.007c-0.851 0.664-1.937 1.064-3.115 1.064-0.846 0-1.643-0.206-2.345-0.571l0.028 0.013c-0.816-0.448-1.479-1.081-1.951-1.846l-0.013-0.022-1.2 0.832c0.817 1.363 2.095 2.377 3.614 2.837l0.045 0.012c0.551 0.171 1.185 0.269 1.841 0.269 1.918 0 3.64-0.838 4.82-2.168l0.006-0.007c0.503-0.569 0.908-1.239 1.181-1.974l0.014-0.044 2.47-5.455z"></path>
</symbol>
<symbol id="icon-greenwich-comedy-festival" viewBox="0 0 60 32">
<title>greenwich-comedy-festival</title>
<path d="M5.132 7.473c0.277-0.251 0.494-0.563 0.633-0.914l0.006-0.017c0.118-0.328 0.187-0.706 0.187-1.1 0-0.020-0-0.040-0.001-0.060l0 0.003 0.013-2.46h-1.582v0.425c-0.16-0.169-0.362-0.298-0.589-0.37l-0.010-0.003c-0.241-0.084-0.518-0.133-0.807-0.133-0.006 0-0.012 0-0.018 0h0.001c-0.011-0-0.024-0-0.037-0-0.49 0-0.95 0.131-1.346 0.36l0.013-0.007c-0.402 0.231-0.726 0.556-0.951 0.945l-0.007 0.012c-0.218 0.378-0.346 0.831-0.346 1.315 0 0.012 0 0.025 0 0.037l-0-0.002c-0 0.007-0 0.015-0 0.023 0 0.777 0.338 1.475 0.875 1.956l0.003 0.002c-0.241 0.17-0.447 0.367-0.62 0.592l-0.005 0.007 1.277 1.157c0.115-0.249 0.295-0.45 0.519-0.588l0.006-0.003c0.229-0.146 0.508-0.233 0.808-0.233 0.008 0 0.016 0 0.024 0h-0.001c0.015-0.001 0.033-0.001 0.051-0.001 0.378 0 0.718 0.159 0.959 0.413l0.001 0.001c0.24 0.264 0.387 0.617 0.387 1.004 0 0.021-0 0.042-0.001 0.063l0-0.003c0.001 0.017 0.001 0.037 0.001 0.057 0 0.39-0.152 0.745-0.401 1.007l0.001-0.001c-0.25 0.255-0.599 0.413-0.984 0.413-0.019 0-0.037-0-0.056-0.001l0.003 0c-0.019 0.001-0.041 0.002-0.064 0.002-0.318 0-0.611-0.108-0.843-0.29l0.003 0.002c-0.228-0.191-0.396-0.448-0.476-0.741l-0.002-0.010h-1.755c0.068 0.519 0.257 0.984 0.538 1.379l-0.006-0.009c0.285 0.397 0.656 0.714 1.087 0.93l0.017 0.008c0.426 0.214 0.929 0.339 1.461 0.339 0.015 0 0.029-0 0.044-0l-0.002 0c0.012 0 0.025 0 0.039 0 0.572 0 1.11-0.143 1.581-0.395l-0.018 0.009c0.478-0.254 0.864-0.626 1.13-1.077l0.007-0.013c0.259-0.459 0.412-1.009 0.412-1.594 0-0.503-0.113-0.979-0.314-1.405l0.008 0.020c-0.202-0.423-0.49-0.775-0.844-1.045l-0.007-0.005zM3.956 6.409c-0.209 0.206-0.496 0.333-0.813 0.333-0.011 0-0.022-0-0.034-0l0.002 0c-0.012 0-0.026 0.001-0.041 0.001-0.316 0-0.602-0.127-0.81-0.333l0 0c-0.206-0.21-0.333-0.499-0.333-0.817 0-0.017 0-0.033 0.001-0.049l-0 0.002c-0.001-0.016-0.001-0.034-0.001-0.053 0-0.321 0.127-0.611 0.334-0.825l-0 0c0.208-0.206 0.494-0.333 0.811-0.333 0.014 0 0.028 0 0.042 0.001l-0.002-0c0.009-0 0.020-0 0.031-0 0.317 0 0.604 0.127 0.813 0.333l-0-0c0.21 0.212 0.34 0.504 0.34 0.826 0 0.018-0 0.036-0.001 0.054l0-0.003c0.001 0.013 0.001 0.029 0.001 0.045 0 0.32-0.13 0.61-0.34 0.819l-0 0z"></path>
<path d="M8.935 6.156c-0.002-0.029-0.003-0.062-0.003-0.095 0-0.429 0.163-0.821 0.43-1.116l-0.001 0.001c0.267-0.272 0.638-0.44 1.048-0.44 0.019 0 0.039 0 0.058 0.001l-0.003-0c0.015-0.001 0.033-0.001 0.051-0.001 0.202 0 0.394 0.039 0.571 0.111l-0.010-0.004v-1.689c-0.156-0.051-0.335-0.081-0.522-0.081-0.022 0-0.045 0-0.067 0.001l0.003-0c-0.016-0.001-0.035-0.001-0.053-0.001-0.34 0-0.658 0.099-0.924 0.271l0.007-0.004c-0.257 0.169-0.458 0.404-0.581 0.681l-0.004 0.010v-0.878h-1.702v6.649h1.702z"></path>
<path d="M13.044 9.201c0.491 0.285 1.080 0.453 1.708 0.453 0.017 0 0.033-0 0.049-0l-0.002 0c0.029 0.001 0.064 0.002 0.099 0.002 0.818 0 1.566-0.3 2.139-0.796l-0.004 0.004q0.904-0.791 1.17-2.201h-1.729c-0.064 0.431-0.268 0.805-0.564 1.083l-0.001 0.001c-0.28 0.236-0.645 0.38-1.044 0.38-0.023 0-0.047-0.001-0.070-0.001l0.003 0c-0.005 0-0.010 0-0.016 0-0.427 0-0.815-0.167-1.102-0.439l0.001 0.001 4.335-2.487c-0.229-0.692-0.648-1.27-1.195-1.689l-0.008-0.006c-0.539-0.411-1.223-0.659-1.964-0.659-0.027 0-0.054 0-0.081 0.001l0.004-0c-0.013-0-0.028-0-0.043-0-0.623 0-1.207 0.168-1.708 0.461l0.016-0.009c-0.513 0.298-0.928 0.715-1.215 1.214l-0.008 0.016c-0.28 0.484-0.446 1.064-0.446 1.683 0 0.014 0 0.027 0 0.041l-0-0.002c-0 0.012-0 0.025-0 0.039 0 0.619 0.165 1.199 0.454 1.699l-0.009-0.016c0.297 0.516 0.714 0.933 1.214 1.221l0.016 0.008zM13.569 4.853c0.282-0.319 0.692-0.52 1.148-0.52 0.019 0 0.038 0 0.058 0.001l-0.003-0c0.003-0 0.007-0 0.010-0 0.222 0 0.433 0.044 0.626 0.124l-0.011-0.004c0.195 0.079 0.359 0.197 0.491 0.344l0.001 0.001-2.766 1.609c-0.009-0.067-0.014-0.145-0.014-0.224 0-0.015 0-0.030 0.001-0.045l-0 0.002c-0.001-0.018-0.001-0.039-0.001-0.060 0-0.472 0.174-0.903 0.462-1.232l-0.002 0.002z"></path>
<path d="M20.371 9.201c0.491 0.285 1.080 0.453 1.708 0.453 0.017 0 0.033-0 0.049-0l-0.003 0c0.029 0.001 0.064 0.002 0.099 0.002 0.818 0 1.566-0.3 2.139-0.796l-0.004 0.004q0.904-0.791 1.17-2.201h-1.729c-0.063 0.431-0.268 0.805-0.564 1.083l-0.001 0.001c-0.28 0.236-0.645 0.38-1.044 0.38-0.023 0-0.047-0.001-0.070-0.001l0.003 0c-0.005 0-0.010 0-0.016 0-0.427 0-0.815-0.167-1.102-0.439l0.001 0.001 4.335-2.487c-0.229-0.692-0.648-1.27-1.195-1.689l-0.008-0.006c-0.539-0.411-1.222-0.659-1.964-0.659-0.027 0-0.054 0-0.081 0.001l0.004-0c-0.013-0-0.028-0-0.043-0-0.623 0-1.207 0.168-1.708 0.461l0.016-0.009c-0.513 0.298-0.928 0.715-1.215 1.214l-0.008 0.016c-0.28 0.484-0.446 1.064-0.446 1.684 0 0.013 0 0.027 0 0.040l-0-0.002c-0 0.011-0 0.025-0 0.039 0 0.619 0.165 1.2 0.454 1.7l-0.009-0.016c0.297 0.516 0.714 0.933 1.214 1.221l0.016 0.008zM20.896 4.853c0.282-0.319 0.692-0.52 1.148-0.52 0.019 0 0.039 0 0.058 0.001l-0.003-0c0.003-0 0.007-0 0.010-0 0.221 0 0.433 0.044 0.625 0.124l-0.011-0.004c0.195 0.079 0.359 0.197 0.491 0.344l0.001 0.001-2.766 1.609c-0.009-0.067-0.014-0.145-0.014-0.224 0-0.015 0-0.030 0.001-0.044l-0 0.002c-0.001-0.018-0.001-0.039-0.001-0.060 0-0.472 0.174-0.903 0.462-1.232l-0.002 0.002z"></path>
<path d="M28.163 5.984c-0.001-0.024-0.002-0.053-0.002-0.081 0-0.391 0.136-0.75 0.364-1.032l-0.002 0.003c0.234-0.259 0.571-0.421 0.946-0.421 0.027 0 0.054 0.001 0.081 0.003l-0.004-0q1.263 0 1.263 1.529v3.59h1.702v-3.989q0-1.316-0.698-2.028t-1.908-0.712c-0.016-0-0.034-0.001-0.053-0.001-0.351 0-0.685 0.074-0.987 0.206l0.016-0.006c-0.281 0.124-0.519 0.294-0.717 0.504l-0.001 0.001v-0.625h-1.702v6.649h1.702z"></path>
<path d="M37.019 9.574l0.532-1.529 0.532 1.529h1.569l2.633-6.649h-1.742l-1.702 4.641-0.479-1.409 1.21-3.231h-1.595l-0.425 1.343-0.439-1.343h-1.582l1.21 3.231-0.479 1.409-1.715-4.641h-1.729l2.633 6.648h1.569z"></path>
<path d="M43.853 2.234c0.005 0 0.011 0 0.017 0 0.305 0 0.582-0.125 0.781-0.326l0-0c0.205-0.195 0.333-0.469 0.333-0.774 0-0.006-0-0.012-0-0.018v0.001c0-0.005 0-0.011 0-0.017 0-0.305-0.128-0.579-0.332-0.774l-0-0c-0.199-0.201-0.476-0.326-0.782-0.326-0.006 0-0.011 0-0.017 0h0.001c-0.004-0-0.008-0-0.012-0-0.301 0-0.572 0.125-0.765 0.325l-0 0c-0.201 0.196-0.326 0.469-0.326 0.772 0 0.007 0 0.014 0 0.020v-0.001c-0 0.006-0 0.013-0 0.020 0 0.302 0.125 0.576 0.326 0.771l0 0c0.193 0.201 0.465 0.326 0.765 0.326 0.005 0 0.009-0 0.013-0h-0.001z"></path>
<path d="M43.002 2.925h1.702v6.649h-1.702v-6.649z"></path>
<path d="M47.31 9.208c0.491 0.28 1.080 0.446 1.707 0.446 0.017 0 0.034-0 0.051-0l-0.003 0c0.014 0 0.031 0 0.047 0 0.618 0 1.198-0.165 1.698-0.454l-0.016 0.009c0.511-0.296 0.923-0.711 1.208-1.208l0.008-0.016c0.28-0.486 0.446-1.069 0.446-1.691 0-0.016-0-0.031-0-0.047l0 0.002h-1.689c0.001 0.023 0.002 0.051 0.002 0.078 0 0.468-0.18 0.894-0.475 1.213l0.001-0.001c-0.296 0.304-0.709 0.493-1.167 0.493-0.022 0-0.044-0-0.066-0.001l0.003 0c-0.018 0.001-0.039 0.001-0.061 0.001-0.46 0-0.877-0.189-1.176-0.493l-0-0c-0.298-0.316-0.48-0.743-0.48-1.212 0-0.027 0.001-0.054 0.002-0.081l-0 0.004c-0.001-0.022-0.002-0.048-0.002-0.075 0-0.473 0.183-0.902 0.481-1.223l-0.001 0.001c0.31-0.308 0.737-0.499 1.208-0.499 0.501 0 0.951 0.215 1.264 0.557l0.001 0.001 1.25-1.117c-0.598-0.648-1.451-1.052-2.399-1.052-0.031 0-0.061 0-0.092 0.001l0.005-0c-0.014-0-0.031-0-0.048-0-0.627 0-1.216 0.165-1.725 0.455l0.017-0.009c-0.516 0.292-0.933 0.705-1.221 1.201l-0.008 0.015c-0.28 0.485-0.446 1.068-0.446 1.688 0 0.019 0 0.038 0 0.056l-0-0.003c-0 0.013-0 0.029-0 0.045 0 0.622 0.165 1.204 0.455 1.707l-0.009-0.017c0.296 0.515 0.713 0.93 1.214 1.215l0.016 0.008z"></path>
<path d="M58.786 3.564q-0.705-0.718-1.888-0.718c-0.011-0-0.025-0-0.038-0-0.359 0-0.7 0.076-1.008 0.213l0.016-0.006c-0.304 0.136-0.563 0.322-0.777 0.55l-0.001 0.001v-3.51l-1.702 0.186v9.295h1.702v-3.59c-0.001-0.021-0.001-0.045-0.001-0.069 0-0.396 0.144-0.758 0.382-1.037l-0.002 0.002c0.238-0.263 0.58-0.427 0.96-0.427 0.020 0 0.040 0 0.060 0.001l-0.003-0q1.303 0 1.303 1.529v3.59h1.702v-3.989q0-1.303-0.705-2.021z"></path>
<path d="M12.778 24.201c0.086-0.095 0.209-0.154 0.347-0.154 0.009 0 0.018 0 0.027 0.001l-0.001-0c0.010-0.001 0.021-0.001 0.033-0.001 0.11 0 0.214 0.030 0.302 0.082l-0.003-0.002c0.086 0.060 0.157 0.136 0.211 0.223l0.002 0.003 1.077-1.050q-0.519-0.771-1.742-0.771c-0.022-0.001-0.047-0.001-0.073-0.001-0.54 0-1.036 0.194-1.42 0.516l0.003-0.003c-0.369 0.328-0.601 0.803-0.601 1.333 0 0.034 0.001 0.067 0.003 0.101l-0-0.005v0.798h-1.197v1.582h1.197v5.066h1.702v-5.066h1.848v-1.582h-1.848v-0.705c-0-0.003-0-0.007-0-0.011 0-0.136 0.050-0.26 0.134-0.355l-0.001 0.001z"></path>
<path d="M19.327 30.092c-0.28 0.236-0.645 0.38-1.044 0.38-0.023 0-0.047-0-0.070-0.001l0.003 0c-0.005 0-0.010 0-0.016 0-0.427 0-0.815-0.167-1.102-0.439l0.001 0.001 4.335-2.487c-0.229-0.692-0.648-1.27-1.195-1.689l-0.008-0.006c-0.539-0.411-1.222-0.659-1.964-0.659-0.027 0-0.054 0-0.081 0.001l0.004-0c-0.013-0-0.028-0-0.043-0-0.623 0-1.207 0.168-1.709 0.461l0.016-0.009c-0.513 0.298-0.928 0.715-1.215 1.214l-0.008 0.016c-0.28 0.496-0.445 1.090-0.445 1.722s0.165 1.226 0.455 1.74l-0.009-0.018c0.297 0.516 0.714 0.933 1.214 1.221l0.016 0.008c0.491 0.285 1.080 0.453 1.708 0.453 0.017 0 0.033-0 0.049-0l-0.003 0c0.029 0.001 0.064 0.002 0.099 0.002 0.818 0 1.566-0.3 2.139-0.796l-0.004 0.003q0.904-0.791 1.17-2.201h-1.729c-0.063 0.431-0.268 0.805-0.564 1.083l-0.001 0.001zM16.528 28.489c-0.001-0.018-0.001-0.039-0.001-0.060 0-0.472 0.174-0.903 0.462-1.232l-0.002 0.002c0.282-0.319 0.692-0.52 1.148-0.52 0.019 0 0.039 0 0.058 0.001l-0.003-0c0.003-0 0.007-0 0.010-0 0.221 0 0.433 0.044 0.625 0.124l-0.011-0.004c0.195 0.079 0.359 0.197 0.491 0.344l0.001 0.001-2.766 1.609c-0.009-0.067-0.014-0.145-0.014-0.224 0-0.015 0-0.029 0-0.044l-0 0.002z"></path>
<path d="M25.251 27.771q-0.107-0.040-0.465-0.133c-0.246-0.049-0.464-0.125-0.667-0.226l0.015 0.007c-0.121-0.070-0.201-0.199-0.201-0.347 0-0.011 0-0.022 0.001-0.033l-0 0.001c-0-0.002-0-0.004-0-0.006 0-0.113 0.049-0.215 0.126-0.286l0-0c0.083-0.075 0.194-0.12 0.315-0.12 0.009 0 0.017 0 0.026 0.001l-0.001-0c0.123 0.001 0.237 0.043 0.327 0.114l-0.001-0.001c0.104 0.079 0.187 0.179 0.244 0.294l0.002 0.005 1.037-0.997c-0.376-0.518-0.979-0.852-1.66-0.852-0.015 0-0.029 0-0.044 0l0.002-0c-0.018-0.001-0.040-0.001-0.061-0.001-0.525 0-1.003 0.205-1.356 0.54l0.001-0.001c-0.349 0.329-0.566 0.795-0.566 1.311 0 0.018 0 0.037 0.001 0.055l-0-0.003c-0.001 0.025-0.002 0.053-0.002 0.082 0 0.445 0.17 0.851 0.449 1.155l-0.001-0.001c0.303 0.31 0.696 0.531 1.135 0.623l0.014 0.003q0.492 0.12 0.658 0.179c0.123 0.048 0.228 0.12 0.312 0.212l0.001 0.001c0.092 0.105 0.147 0.243 0.147 0.394 0 0.013-0 0.027-0.001 0.040l0-0.002c0 0.010 0.001 0.021 0.001 0.033 0 0.185-0.077 0.353-0.2 0.472l-0 0c-0.14 0.116-0.322 0.186-0.52 0.186-0.216 0-0.412-0.083-0.558-0.22l0 0c-0.133-0.132-0.215-0.315-0.215-0.517 0-0.021 0.001-0.043 0.003-0.064l-0 0.003h-1.622c-0 0.009-0 0.020-0 0.030 0 0.423 0.111 0.821 0.305 1.165l-0.006-0.012c0.201 0.354 0.488 0.639 0.833 0.832l0.011 0.006c0.345 0.193 0.756 0.306 1.194 0.306 0.015 0 0.030-0 0.044-0l-0.002 0c0.026 0.001 0.057 0.002 0.089 0.002 0.624 0 1.191-0.241 1.615-0.635l-0.001 0.001c0.411-0.394 0.666-0.948 0.666-1.561 0-0.028-0.001-0.057-0.002-0.085l0 0.004q-0-1.489-1.423-1.955z"></path>
<path d="M29.891 22.439l-1.702 0.186v2.646h-1.343v1.582h1.343v5.066h1.702v-5.066h1.968v-1.582h-1.968v-2.832z"></path>
<path d="M33.415 22.346c-0.004-0-0.008-0-0.012-0-0.301 0-0.572 0.125-0.765 0.325l-0 0c-0.201 0.203-0.326 0.483-0.326 0.791s0.124 0.588 0.326 0.791l-0-0c0.193 0.201 0.465 0.326 0.765 0.326 0.005 0 0.009-0 0.014-0h-0.001c0.001 0 0.003 0 0.005 0 0.617 0 1.117-0.5 1.117-1.117s-0.5-1.117-1.117-1.117c-0.002 0-0.003 0-0.005 0h0z"></path>
<path d="M32.577 25.272h1.702v6.648h-1.702v-6.648z"></path>
<path d="M39.797 25.272l-1.503 4.295-1.489-4.295h-1.809l2.447 6.648h1.702l2.447-6.648h-1.795z"></path>
<path d="M44.172 25.192c-0.008-0-0.017-0-0.026-0-0.419 0-0.817 0.091-1.176 0.253l0.018-0.007c-0.355 0.157-0.653 0.385-0.888 0.668l-0.003 0.004 0.931 1.13c0.242-0.285 0.597-0.468 0.995-0.479l0.002-0c0.013-0.001 0.029-0.001 0.045-0.001 0.227 0 0.435 0.084 0.595 0.222l-0.001-0.001c0.148 0.142 0.24 0.342 0.24 0.563 0 0.015-0 0.029-0.001 0.044l0-0.002v0.226c-0.316-0.217-0.706-0.347-1.127-0.347-0.020 0-0.039 0-0.059 0.001l0.003-0c-0.008-0-0.017-0-0.026-0-0.419 0-0.813 0.106-1.157 0.293l0.013-0.006c-0.354 0.191-0.64 0.467-0.839 0.801l-0.005 0.010c-0.197 0.33-0.313 0.729-0.313 1.154 0 0.013 0 0.026 0 0.038l-0-0.002c-0 0.013-0 0.028-0 0.044 0 0.417 0.114 0.808 0.312 1.143l-0.006-0.010c0.198 0.334 0.476 0.603 0.807 0.786l0.011 0.006c0.318 0.176 0.697 0.279 1.1 0.279 0.008 0 0.016-0 0.024-0h-0.001c0.007 0 0.015 0 0.024 0 0.254 0 0.497-0.044 0.723-0.125l-0.015 0.005c0.209-0.071 0.387-0.185 0.531-0.332l0-0v0.372h1.702v-4.295q0-1.144-0.645-1.789t-1.788-0.645zM44.664 30.364c-0.165 0.149-0.385 0.24-0.627 0.24-0.009 0-0.018-0-0.026-0l0.001 0c-0.007 0-0.015 0-0.023 0-0.244 0-0.467-0.091-0.636-0.241l0.001 0.001c-0.168-0.149-0.273-0.365-0.273-0.605 0-0.012 0-0.023 0.001-0.034l-0 0.002c-0.001-0.012-0.001-0.027-0.001-0.041 0-0.241 0.102-0.458 0.266-0.61l0.001-0c0.168-0.149 0.39-0.24 0.634-0.24 0.011 0 0.022 0 0.033 0.001l-0.002-0c0.007-0 0.016-0 0.025-0 0.241 0 0.461 0.091 0.628 0.24l-0.001-0.001c0.164 0.153 0.267 0.37 0.267 0.611 0 0.014-0 0.028-0.001 0.042l0-0.002c0 0.010 0.001 0.022 0.001 0.034 0 0.239-0.102 0.454-0.266 0.603l-0.001 0.001z"></path>
<path d="M11.721 19.735c0.511-0.296 0.923-0.711 1.208-1.208l0.008-0.016c0.28-0.486 0.446-1.069 0.446-1.691 0-0.016-0-0.031-0-0.047l0 0.002h-1.689c0.001 0.023 0.002 0.051 0.002 0.079 0 0.468-0.18 0.894-0.475 1.212l0.001-0.001c-0.296 0.304-0.709 0.493-1.167 0.493-0.022 0-0.044-0-0.066-0.001l0.003 0c-0.018 0.001-0.039 0.001-0.061 0.001-0.46 0-0.877-0.189-1.176-0.493l-0-0c-0.298-0.316-0.48-0.743-0.48-1.213 0-0.027 0.001-0.054 0.002-0.081l-0 0.004c-0.001-0.022-0.002-0.048-0.002-0.074 0-0.473 0.183-0.903 0.481-1.223l-0.001 0.001c0.31-0.308 0.736-0.499 1.208-0.499 0.501 0 0.951 0.215 1.264 0.557l0.001 0.001 1.25-1.117c-0.598-0.648-1.451-1.052-2.399-1.052-0.031 0-0.061 0-0.092 0.001l0.005-0c-0.014-0-0.031-0-0.048-0-0.627 0-1.216 0.165-1.725 0.455l0.017-0.009c-0.516 0.292-0.933 0.705-1.222 1.201l-0.008 0.015c-0.28 0.502-0.446 1.101-0.446 1.739s0.165 1.237 0.455 1.757l-0.009-0.018c0.296 0.515 0.713 0.93 1.214 1.215l0.016 0.008c0.491 0.28 1.080 0.446 1.707 0.446 0.017 0 0.034-0 0.051-0l-0.003 0c0.014 0 0.031 0 0.047 0 0.619 0 1.198-0.166 1.698-0.455l-0.016 0.009z"></path>
<path d="M19.048 13.818c-0.507-0.28-1.112-0.445-1.755-0.445s-1.248 0.165-1.774 0.455l0.019-0.010c-0.516 0.292-0.931 0.708-1.215 1.208l-0.008 0.016c-0.276 0.502-0.439 1.099-0.439 1.735s0.163 1.234 0.448 1.754l-0.010-0.019c0.292 0.516 0.708 0.931 1.208 1.215l0.016 0.008c0.507 0.28 1.112 0.445 1.755 0.445s1.248-0.165 1.774-0.455l-0.019 0.010c0.516-0.292 0.931-0.708 1.215-1.208l0.008-0.016c0.276-0.502 0.439-1.099 0.439-1.735s-0.163-1.234-0.448-1.754l0.010 0.019c-0.292-0.516-0.708-0.931-1.208-1.215l-0.016-0.008zM18.522 18.053c-0.319 0.305-0.753 0.492-1.23 0.492s-0.911-0.187-1.231-0.493l0.001 0.001c-0.293-0.315-0.474-0.738-0.474-1.204 0-0.026 0.001-0.051 0.002-0.076l-0 0.004c-0.001-0.021-0.001-0.045-0.001-0.070 0-0.469 0.18-0.895 0.474-1.214l-0.001 0.001c0.318-0.308 0.752-0.498 1.23-0.498s0.912 0.19 1.23 0.499l-0-0c0.293 0.318 0.473 0.745 0.473 1.213 0 0.025-0 0.049-0.001 0.073l0-0.003c0.001 0.022 0.002 0.047 0.002 0.073 0 0.466-0.18 0.889-0.474 1.205l0.001-0.001z"></path>
<path d="M23.343 16.218c-0.001-0.021-0.002-0.046-0.002-0.070 0-0.319 0.116-0.611 0.309-0.835l-0.001 0.002c0.184-0.205 0.45-0.333 0.746-0.333 0.009 0 0.017 0 0.026 0l-0.001-0c0.019-0.001 0.042-0.002 0.064-0.002 0.288 0 0.546 0.123 0.726 0.32l0.001 0.001c0.172 0.227 0.276 0.514 0.276 0.826 0 0.032-0.001 0.064-0.003 0.096l0-0.004v3.883h1.702v-3.883c-0.001-0.021-0.002-0.046-0.002-0.072 0-0.318 0.114-0.609 0.303-0.835l-0.002 0.002c0.184-0.205 0.449-0.333 0.744-0.333 0.012 0 0.024 0 0.035 0.001l-0.002-0c0.019-0.001 0.042-0.002 0.064-0.002 0.288 0 0.546 0.123 0.726 0.32l0.001 0.001c0.172 0.227 0.276 0.514 0.276 0.826 0 0.032-0.001 0.064-0.003 0.096l0-0.004v3.883h1.702v-4.255q0-1.223-0.612-1.848t-1.689-0.625c-0.020-0.001-0.044-0.001-0.067-0.001-0.767 0-1.457 0.327-1.939 0.85l-0.002 0.002c-0.343-0.517-0.923-0.853-1.581-0.853-0.033 0-0.066 0.001-0.099 0.003l0.005-0c-0.007-0-0.015-0-0.022-0-0.339 0-0.66 0.073-0.949 0.205l0.014-0.006c-0.29 0.13-0.534 0.315-0.729 0.543l-0.002 0.003v-0.665h-1.715v6.649h1.702z"></path>
<path d="M33.568 19.728c0.491 0.285 1.080 0.453 1.708 0.453 0.016 0 0.033-0 0.049-0l-0.002 0c0.029 0.001 0.064 0.002 0.099 0.002 0.818 0 1.566-0.3 2.139-0.796l-0.004 0.003q0.904-0.791 1.17-2.201h-1.728c-0.063 0.431-0.268 0.805-0.564 1.083l-0.001 0.001c-0.28 0.236-0.645 0.38-1.044 0.38-0.023 0-0.047-0-0.070-0.001l0.003 0c-0.005 0-0.010 0-0.016 0-0.427 0-0.815-0.167-1.102-0.439l0.001 0.001 4.335-2.487c-0.229-0.692-0.648-1.27-1.195-1.689l-0.008-0.006c-0.539-0.411-1.223-0.659-1.964-0.659-0.027 0-0.054 0-0.081 0.001l0.004-0c-0.013-0-0.028-0-0.043-0-0.623 0-1.207 0.168-1.708 0.461l0.016-0.009c-0.513 0.298-0.928 0.715-1.215 1.214l-0.008 0.016c-0.28 0.496-0.445 1.090-0.445 1.722s0.165 1.226 0.455 1.74l-0.009-0.018c0.297 0.516 0.714 0.933 1.214 1.221l0.016 0.008zM34.093 15.38c0.282-0.319 0.692-0.52 1.149-0.52 0.019 0 0.038 0 0.058 0.001l-0.003-0c0.003-0 0.007-0 0.010-0 0.222 0 0.433 0.044 0.625 0.124l-0.011-0.004c0.195 0.079 0.359 0.197 0.491 0.344l0.001 0.001-2.766 1.609c-0.009-0.067-0.014-0.145-0.014-0.224 0-0.015 0-0.030 0.001-0.044l-0 0.002c-0.001-0.018-0.001-0.039-0.001-0.060 0-0.472 0.174-0.903 0.462-1.232l-0.002 0.002z"></path>
<path d="M39.645 15.001c-0.268 0.516-0.426 1.127-0.426 1.775s0.157 1.259 0.436 1.797l-0.010-0.022c0.278 0.51 0.683 0.92 1.175 1.196l0.015 0.008c0.482 0.268 1.056 0.426 1.668 0.426 0.019 0 0.038-0 0.057-0l-0.003 0c0.012 0 0.025 0 0.039 0 0.376 0 0.735-0.073 1.064-0.207l-0.019 0.007c0.313-0.125 0.58-0.3 0.805-0.519l-0.001 0.001v0.638h1.702v-9.481l-1.702 0.186v3.271c-0.221-0.222-0.49-0.396-0.789-0.507l-0.015-0.005c-0.313-0.122-0.676-0.193-1.056-0.193-0.010 0-0.020 0-0.029 0h0.002c-0.016-0-0.034-0-0.053-0-0.612 0-1.187 0.158-1.687 0.435l0.018-0.009c-0.506 0.283-0.912 0.693-1.182 1.188l-0.008 0.016zM41.406 15.473c0.31-0.313 0.739-0.506 1.214-0.506 0.020 0 0.039 0 0.059 0.001l-0.003-0c0.019-0.001 0.042-0.001 0.065-0.001 0.464 0 0.884 0.191 1.185 0.5l0 0c0.298 0.35 0.479 0.807 0.479 1.306s-0.181 0.956-0.481 1.309l0.002-0.003c-0.3 0.312-0.72 0.507-1.186 0.507-0.022 0-0.045-0-0.067-0.001l0.003 0c-0.017 0.001-0.037 0.001-0.056 0.001-0.475 0-0.904-0.194-1.213-0.506l-0-0c-0.309-0.344-0.498-0.801-0.498-1.303s0.189-0.959 0.5-1.305l-0.002 0.002z"></path>
<path d="M50.28 17.648l-1.502-3.537h-1.782l2.383 5.356c-0.38 0.961-0.975 1.767-1.728 2.387l-0.010 0.008c-0.935 0.729-2.127 1.169-3.421 1.169-0.929 0-1.804-0.226-2.575-0.627l0.031 0.015c-0.896-0.492-1.625-1.187-2.142-2.027l-0.014-0.025-1.318 0.914c0.897 1.496 2.3 2.611 3.968 3.115l0.049 0.013c0.601 0.181 1.293 0.285 2.008 0.285 1.187 0 2.307-0.287 3.295-0.795l-0.040 0.019c0.033-0.017 0.065-0.036 0.097-0.053l0.17 8.055h1.702l-0.185-8.927-0.472 0.052c0.915-0.773 1.621-1.765 2.041-2.896l0.016-0.048 2.713-5.99h-1.782z"></path>
</symbol>
<symbol id="icon-twitter" viewBox="0 0 26 28">
<title>twitter</title>
<path d="M25.312 6.375c-0.688 1-1.547 1.891-2.531 2.609 0.016 0.219 0.016 0.438 0.016 0.656 0 6.672-5.078 14.359-14.359 14.359-2.859 0-5.516-0.828-7.75-2.266 0.406 0.047 0.797 0.063 1.219 0.063 2.359 0 4.531-0.797 6.266-2.156-2.219-0.047-4.078-1.5-4.719-3.5 0.313 0.047 0.625 0.078 0.953 0.078 0.453 0 0.906-0.063 1.328-0.172-2.312-0.469-4.047-2.5-4.047-4.953v-0.063c0.672 0.375 1.453 0.609 2.281 0.641-1.359-0.906-2.25-2.453-2.25-4.203 0-0.938 0.25-1.797 0.688-2.547 2.484 3.062 6.219 5.063 10.406 5.281-0.078-0.375-0.125-0.766-0.125-1.156 0-2.781 2.25-5.047 5.047-5.047 1.453 0 2.766 0.609 3.687 1.594 1.141-0.219 2.234-0.641 3.203-1.219-0.375 1.172-1.172 2.156-2.219 2.781 1.016-0.109 2-0.391 2.906-0.781z"></path>
</symbol>
<symbol id="icon-facebook" viewBox="0 0 16 28">
<title>facebook</title>
<path d="M14.984 0.187v4.125h-2.453c-1.922 0-2.281 0.922-2.281 2.25v2.953h4.578l-0.609 4.625h-3.969v11.859h-4.781v-11.859h-3.984v-4.625h3.984v-3.406c0-3.953 2.422-6.109 5.953-6.109 1.687 0 3.141 0.125 3.563 0.187z"></path>
</symbol>
<symbol id="icon-instagram" viewBox="0 0 24 28">
<title>instagram</title>
<path d="M16 14c0-2.203-1.797-4-4-4s-4 1.797-4 4 1.797 4 4 4 4-1.797 4-4zM18.156 14c0 3.406-2.75 6.156-6.156 6.156s-6.156-2.75-6.156-6.156 2.75-6.156 6.156-6.156 6.156 2.75 6.156 6.156zM19.844 7.594c0 0.797-0.641 1.437-1.437 1.437s-1.437-0.641-1.437-1.437 0.641-1.437 1.437-1.437 1.437 0.641 1.437 1.437zM12 4.156c-1.75 0-5.5-0.141-7.078 0.484-0.547 0.219-0.953 0.484-1.375 0.906s-0.688 0.828-0.906 1.375c-0.625 1.578-0.484 5.328-0.484 7.078s-0.141 5.5 0.484 7.078c0.219 0.547 0.484 0.953 0.906 1.375s0.828 0.688 1.375 0.906c1.578 0.625 5.328 0.484 7.078 0.484s5.5 0.141 7.078-0.484c0.547-0.219 0.953-0.484 1.375-0.906s0.688-0.828 0.906-1.375c0.625-1.578 0.484-5.328 0.484-7.078s0.141-5.5-0.484-7.078c-0.219-0.547-0.484-0.953-0.906-1.375s-0.828-0.688-1.375-0.906c-1.578-0.625-5.328-0.484-7.078-0.484zM24 14c0 1.656 0.016 3.297-0.078 4.953-0.094 1.922-0.531 3.625-1.937 5.031s-3.109 1.844-5.031 1.937c-1.656 0.094-3.297 0.078-4.953 0.078s-3.297 0.016-4.953-0.078c-1.922-0.094-3.625-0.531-5.031-1.937s-1.844-3.109-1.937-5.031c-0.094-1.656-0.078-3.297-0.078-4.953s-0.016-3.297 0.078-4.953c0.094-1.922 0.531-3.625 1.937-5.031s3.109-1.844 5.031-1.937c1.656-0.094 3.297-0.078 4.953-0.078s3.297-0.016 4.953 0.078c1.922 0.094 3.625 0.531 5.031 1.937s1.844 3.109 1.937 5.031c0.094 1.656 0.078 3.297 0.078 4.953z"></path>
</symbol>
</defs>
</svg>
